<svg width="169" height="27" viewBox="0 0 169 27" fill="none" xmlns="http://www.w3.org/2000/svg">
<path d="M1.91293 5.93147H4.47849V8.36201H1.91293V5.93147ZM1.91293 10.3649H4.47849V22.9902C4.47849 24.1455 4.22344 25.0382 3.71332 25.6683C3.20321 26.2984 2.34802 26.6135 1.14776 26.6135C0.892705 26.6135 0.675157 26.606 0.495117 26.591C0.330081 26.576 0.165045 26.5535 8.42558e-06 26.5235V24.498C0.165045 24.5281 0.322579 24.5506 0.472612 24.5656C0.622645 24.5806 0.757675 24.5881 0.877701 24.5881C1.3428 24.5881 1.62787 24.4455 1.73289 24.1605C1.85292 23.8754 1.91293 23.4478 1.91293 22.8777V10.3649ZM17.4911 22H14.9705V20.3796H14.9255C14.6105 20.9648 14.1379 21.4374 13.5077 21.7975C12.8926 22.1425 12.2624 22.3151 11.6173 22.3151C10.087 22.3151 8.97673 21.94 8.28657 21.1898C7.61143 20.4247 7.27385 19.2769 7.27385 17.7466V10.3649H9.83942V17.499C9.83942 18.5192 10.0345 19.2394 10.4245 19.6595C10.8146 20.0796 11.3622 20.2896 12.0674 20.2896C12.6075 20.2896 13.0576 20.2071 13.4177 20.0421C13.7778 19.877 14.0703 19.6595 14.2954 19.3894C14.5204 19.1044 14.678 18.7668 14.768 18.3767C14.873 17.9866 14.9255 17.5665 14.9255 17.1164V10.3649H17.4911V22ZM31.1565 22H28.726V20.4247H28.681C28.3359 21.0998 27.8333 21.5874 27.1731 21.8875C26.513 22.1725 25.8153 22.3151 25.0802 22.3151C24.165 22.3151 23.3623 22.1575 22.6722 21.8425C21.997 21.5124 21.4344 21.0698 20.9843 20.5147C20.5342 19.9596 20.1966 19.3069 19.9716 18.5567C19.7465 17.7916 19.634 16.9739 19.634 16.1037C19.634 15.0535 19.7765 14.1458 20.0616 13.3806C20.3466 12.6154 20.7217 11.9853 21.1868 11.4902C21.6669 10.9951 22.2071 10.635 22.8072 10.41C23.4223 10.1699 24.045 10.0499 24.6751 10.0499C25.0352 10.0499 25.4028 10.0874 25.7778 10.1624C26.1529 10.2224 26.513 10.3274 26.8581 10.4775C27.2032 10.6275 27.5182 10.8225 27.8033 11.0626C28.1033 11.2876 28.3509 11.5577 28.5459 11.8728H28.591V5.93147H31.1565V22ZM22.1996 16.3062C22.1996 16.8014 22.2596 17.289 22.3796 17.7691C22.5146 18.2492 22.7097 18.6768 22.9647 19.0519C23.2348 19.4269 23.5724 19.727 23.9774 19.9521C24.3825 20.1771 24.8626 20.2896 25.4178 20.2896C25.9879 20.2896 26.4755 20.1696 26.8806 19.9295C27.3007 19.6895 27.6382 19.3744 27.8933 18.9843C28.1634 18.5943 28.3584 18.1592 28.4784 17.6791C28.6135 17.1839 28.681 16.6813 28.681 16.1712C28.681 14.8809 28.3884 13.8757 27.8033 13.1556C27.2332 12.4354 26.453 12.0753 25.4628 12.0753C24.8626 12.0753 24.3525 12.2028 23.9324 12.4579C23.5273 12.698 23.1898 13.0205 22.9197 13.4256C22.6647 13.8157 22.4771 14.2658 22.3571 14.7759C22.2521 15.271 22.1996 15.7811 22.1996 16.3062ZM44.7119 21.3924C44.7119 23.1478 44.2168 24.453 43.2266 25.3082C42.2513 26.1784 40.841 26.6135 38.9956 26.6135C38.4105 26.6135 37.8179 26.5535 37.2177 26.4335C36.6326 26.3134 36.0925 26.1109 35.5974 25.8258C35.1173 25.5408 34.7122 25.1657 34.3821 24.7006C34.052 24.2355 33.857 23.6654 33.797 22.9902H36.3625C36.4376 23.3503 36.5651 23.6429 36.7451 23.8679C36.9252 24.093 37.1352 24.2655 37.3753 24.3855C37.6303 24.5206 37.9079 24.6031 38.2079 24.6331C38.508 24.6781 38.8231 24.7006 39.1532 24.7006C40.1884 24.7006 40.946 24.4455 41.4262 23.9354C41.9063 23.4253 42.1463 22.6902 42.1463 21.7299V19.9521H42.1013C41.7412 20.5972 41.2461 21.0998 40.616 21.4599C40.0008 21.82 39.3332 22 38.613 22C37.6828 22 36.8877 21.8425 36.2275 21.5274C35.5824 21.1973 35.0423 20.7547 34.6072 20.1996C34.1871 19.6295 33.8795 18.9768 33.6845 18.2417C33.4894 17.5065 33.3919 16.7188 33.3919 15.8787C33.3919 15.0985 33.5119 14.3558 33.752 13.6507C33.992 12.9455 34.3371 12.3304 34.7872 11.8053C35.2373 11.2651 35.7849 10.8375 36.4301 10.5225C37.0902 10.2074 37.8329 10.0499 38.658 10.0499C39.3932 10.0499 40.0684 10.2074 40.6835 10.5225C41.2986 10.8225 41.7712 11.3027 42.1013 11.9628H42.1463V10.3649H44.7119V21.3924ZM39.0181 19.9746C39.5883 19.9746 40.0684 19.862 40.4584 19.637C40.8635 19.3969 41.1861 19.0894 41.4262 18.7143C41.6812 18.3242 41.8613 17.8891 41.9663 17.409C42.0863 16.9139 42.1463 16.4188 42.1463 15.9237C42.1463 15.4286 42.0863 14.9485 41.9663 14.4833C41.8462 14.0182 41.6587 13.6057 41.4037 13.2456C41.1636 12.8855 40.841 12.6004 40.4359 12.3904C40.0459 12.1803 39.5732 12.0753 39.0181 12.0753C38.448 12.0753 37.9679 12.1953 37.5778 12.4354C37.1877 12.6755 36.8727 12.9905 36.6326 13.3806C36.3925 13.7557 36.22 14.1908 36.115 14.6859C36.01 15.166 35.9575 15.6461 35.9575 16.1262C35.9575 16.6063 36.0175 17.0789 36.1375 17.544C36.2575 17.9941 36.4376 18.3992 36.6776 18.7593C36.9327 19.1194 37.2477 19.4119 37.6228 19.637C38.0129 19.862 38.478 19.9746 39.0181 19.9746ZM55.2841 15.1585C55.2541 14.7534 55.1641 14.3633 55.014 13.9882C54.879 13.6132 54.684 13.2906 54.4289 13.0205C54.1889 12.7355 53.8888 12.5104 53.5287 12.3454C53.1836 12.1653 52.7936 12.0753 52.3585 12.0753C51.9084 12.0753 51.4958 12.1578 51.1207 12.3229C50.7606 12.4729 50.4455 12.6905 50.1755 12.9755C49.9204 13.2456 49.7104 13.5681 49.5453 13.9432C49.3953 14.3183 49.3128 14.7234 49.2978 15.1585H55.2841ZM49.2978 16.8464C49.2978 17.2965 49.3578 17.7316 49.4778 18.1517C49.6129 18.5717 49.8079 18.9393 50.063 19.2544C50.318 19.5695 50.6406 19.8245 51.0307 20.0196C51.4208 20.1996 51.8859 20.2896 52.426 20.2896C53.1761 20.2896 53.7763 20.1321 54.2264 19.817C54.6915 19.4869 55.0365 18.9993 55.2616 18.3542H57.6921C57.5571 18.9843 57.3245 19.547 56.9945 20.0421C56.6644 20.5372 56.2668 20.9573 55.8017 21.3023C55.3366 21.6324 54.8115 21.88 54.2264 22.045C53.6562 22.225 53.0561 22.3151 52.426 22.3151C51.5108 22.3151 50.7006 22.165 49.9954 21.865C49.2903 21.5649 48.6902 21.1448 48.195 20.6047C47.7149 20.0646 47.3474 19.4194 47.0923 18.6693C46.8522 17.9191 46.7322 17.0939 46.7322 16.1937C46.7322 15.3685 46.8598 14.5884 47.1148 13.8532C47.3849 13.103 47.7599 12.4504 48.2401 11.8953C48.7352 11.3252 49.3278 10.8751 50.0179 10.545C50.7081 10.2149 51.4883 10.0499 52.3585 10.0499C53.2737 10.0499 54.0913 10.2449 54.8115 10.635C55.5467 11.0101 56.1543 11.5127 56.6344 12.1428C57.1145 12.773 57.4596 13.5006 57.6696 14.3258C57.8947 15.136 57.9547 15.9762 57.8497 16.8464H49.2978ZM66.0636 4.31112H68.3591V26.8161H66.0636V4.31112ZM77.3161 5.93147H79.8816V11.8953H79.9267C80.2417 11.3702 80.7068 10.9351 81.322 10.59C81.9521 10.2299 82.6498 10.0499 83.4149 10.0499C84.6902 10.0499 85.6954 10.3799 86.4306 11.0401C87.1657 11.7002 87.5333 12.6905 87.5333 14.0107V22H84.9678V14.6859C84.9378 13.7707 84.7427 13.1105 84.3826 12.7055C84.0226 12.2854 83.4599 12.0753 82.6948 12.0753C82.2597 12.0753 81.8696 12.1578 81.5245 12.3229C81.1794 12.4729 80.8869 12.6905 80.6468 12.9755C80.4068 13.2456 80.2192 13.5681 80.0842 13.9432C79.9492 14.3183 79.8816 14.7159 79.8816 15.136V22H77.3161V5.93147ZM90.3064 5.93147H92.8719V8.36201H90.3064V5.93147ZM90.3064 10.3649H92.8719V22H90.3064V10.3649ZM95.7348 10.3649H98.1653V11.9403H98.2103C98.5704 11.2651 99.073 10.785 99.7182 10.5C100.363 10.1999 101.061 10.0499 101.811 10.0499C102.726 10.0499 103.522 10.2149 104.197 10.545C104.887 10.8601 105.457 11.3027 105.907 11.8728C106.357 12.4279 106.695 13.0805 106.92 13.8307C107.145 14.5809 107.257 15.3835 107.257 16.2387C107.257 17.0189 107.152 17.7766 106.942 18.5117C106.747 19.2469 106.44 19.8995 106.02 20.4697C105.614 21.0248 105.097 21.4749 104.467 21.82C103.837 22.15 103.094 22.3151 102.239 22.3151C101.864 22.3151 101.489 22.2776 101.113 22.2025C100.738 22.1425 100.378 22.0375 100.033 21.8875C99.6882 21.7374 99.3656 21.5499 99.0655 21.3249C98.7805 21.0848 98.5404 20.8072 98.3454 20.4922H98.3004V26.2984H95.7348V10.3649ZM104.692 16.1937C104.692 15.6686 104.624 15.1585 104.489 14.6634C104.354 14.1683 104.152 13.7332 103.882 13.3581C103.612 12.968 103.274 12.6604 102.869 12.4354C102.464 12.1953 101.999 12.0753 101.474 12.0753C100.393 12.0753 99.5756 12.4504 99.0205 13.2006C98.4804 13.9507 98.2103 14.9485 98.2103 16.1937C98.2103 16.7789 98.2779 17.3265 98.4129 17.8366C98.5629 18.3317 98.7805 18.7593 99.0655 19.1194C99.3506 19.4794 99.6882 19.7645 100.078 19.9746C100.483 20.1846 100.948 20.2896 101.474 20.2896C102.059 20.2896 102.554 20.1696 102.959 19.9295C103.364 19.6895 103.694 19.3819 103.949 19.0068C104.219 18.6168 104.407 18.1817 104.512 17.7016C104.632 17.2064 104.692 16.7038 104.692 16.1937ZM115.689 5.93147H118.254V11.8953H118.299C118.614 11.3702 119.08 10.9351 119.695 10.59C120.325 10.2299 121.022 10.0499 121.788 10.0499C123.063 10.0499 124.068 10.3799 124.803 11.0401C125.538 11.7002 125.906 12.6905 125.906 14.0107V22H123.34V14.6859C123.31 13.7707 123.115 13.1105 122.755 12.7055C122.395 12.2854 121.833 12.0753 121.067 12.0753C120.632 12.0753 120.242 12.1578 119.897 12.3229C119.552 12.4729 119.26 12.6905 119.02 12.9755C118.779 13.2456 118.592 13.5681 118.457 13.9432C118.322 14.3183 118.254 14.7159 118.254 15.136V22H115.689V5.93147ZM133.945 22.3151C133.015 22.3151 132.182 22.165 131.447 21.865C130.727 21.5499 130.112 21.1223 129.602 20.5822C129.107 20.0421 128.724 19.3969 128.454 18.6468C128.199 17.8966 128.071 17.0714 128.071 16.1712C128.071 15.286 128.199 14.4683 128.454 13.7182C128.724 12.968 129.107 12.3229 129.602 11.7828C130.112 11.2426 130.727 10.8225 131.447 10.5225C132.182 10.2074 133.015 10.0499 133.945 10.0499C134.875 10.0499 135.701 10.2074 136.421 10.5225C137.156 10.8225 137.771 11.2426 138.266 11.7828C138.776 12.3229 139.159 12.968 139.414 13.7182C139.684 14.4683 139.819 15.286 139.819 16.1712C139.819 17.0714 139.684 17.8966 139.414 18.6468C139.159 19.3969 138.776 20.0421 138.266 20.5822C137.771 21.1223 137.156 21.5499 136.421 21.865C135.701 22.165 134.875 22.3151 133.945 22.3151ZM133.945 20.2896C134.515 20.2896 135.01 20.1696 135.431 19.9295C135.851 19.6895 136.196 19.3744 136.466 18.9843C136.736 18.5943 136.931 18.1592 137.051 17.6791C137.186 17.1839 137.253 16.6813 137.253 16.1712C137.253 15.6761 137.186 15.181 137.051 14.6859C136.931 14.1908 136.736 13.7557 136.466 13.3806C136.196 12.9905 135.851 12.6755 135.431 12.4354C135.01 12.1953 134.515 12.0753 133.945 12.0753C133.375 12.0753 132.88 12.1953 132.46 12.4354C132.04 12.6755 131.695 12.9905 131.425 13.3806C131.155 13.7557 130.952 14.1908 130.817 14.6859C130.697 15.181 130.637 15.6761 130.637 16.1712C130.637 16.6813 130.697 17.1839 130.817 17.6791C130.952 18.1592 131.155 18.5943 131.425 18.9843C131.695 19.3744 132.04 19.6895 132.46 19.9295C132.88 20.1696 133.375 20.2896 133.945 20.2896ZM142.019 10.3649H144.45V11.9403H144.495C144.855 11.2651 145.358 10.785 146.003 10.5C146.648 10.1999 147.346 10.0499 148.096 10.0499C149.011 10.0499 149.806 10.2149 150.481 10.545C151.171 10.8601 151.742 11.3027 152.192 11.8728C152.642 12.4279 152.979 13.0805 153.204 13.8307C153.429 14.5809 153.542 15.3835 153.542 16.2387C153.542 17.0189 153.437 17.7766 153.227 18.5117C153.032 19.2469 152.724 19.8995 152.304 20.4697C151.899 21.0248 151.381 21.4749 150.751 21.82C150.121 22.15 149.378 22.3151 148.523 22.3151C148.148 22.3151 147.773 22.2776 147.398 22.2025C147.023 22.1425 146.663 22.0375 146.318 21.8875C145.973 21.7374 145.65 21.5499 145.35 21.3249C145.065 21.0848 144.825 20.8072 144.63 20.4922H144.585V26.2984H142.019V10.3649ZM150.976 16.1937C150.976 15.6686 150.909 15.1585 150.774 14.6634C150.639 14.1683 150.436 13.7332 150.166 13.3581C149.896 12.968 149.559 12.6604 149.153 12.4354C148.748 12.1953 148.283 12.0753 147.758 12.0753C146.678 12.0753 145.86 12.4504 145.305 13.2006C144.765 13.9507 144.495 14.9485 144.495 16.1937C144.495 16.7789 144.562 17.3265 144.697 17.8366C144.847 18.3317 145.065 18.7593 145.35 19.1194C145.635 19.4794 145.973 19.7645 146.363 19.9746C146.768 20.1846 147.233 20.2896 147.758 20.2896C148.343 20.2896 148.838 20.1696 149.243 19.9295C149.649 19.6895 149.979 19.3819 150.234 19.0068C150.504 18.6168 150.691 18.1817 150.796 17.7016C150.916 17.2064 150.976 16.7038 150.976 16.1937Z" fill="#8DC0FF"/>
</svg>
