<svg width="177" height="30" viewBox="0 0 177 30" fill="none" xmlns="http://www.w3.org/2000/svg">
<path d="M2.02811 6.9637H4.74819V9.54062H2.02811V6.9637ZM2.02811 11.6642H4.74819V25.0499C4.74819 26.2747 4.47777 27.2211 3.93693 27.8892C3.3961 28.5573 2.48941 28.8914 1.21685 28.8914C0.946435 28.8914 0.715785 28.8834 0.524902 28.8675C0.349926 28.8516 0.17495 28.8277 -2.5684e-05 28.7959V26.6485C0.17495 26.6803 0.341973 26.7042 0.501042 26.7201C0.660111 26.736 0.803273 26.7439 0.930529 26.7439C1.42364 26.7439 1.72587 26.5928 1.83722 26.2906C1.96448 25.9884 2.02811 25.535 2.02811 24.9306V11.6642ZM18.5445 24H15.8721V22.2821H15.8244C15.4904 22.9024 14.9893 23.4035 14.3212 23.7853C13.669 24.1511 13.001 24.334 12.317 24.334C10.6945 24.334 9.51734 23.9364 8.78562 23.141C8.06981 22.3298 7.7119 21.1129 7.7119 19.4904V11.6642H10.432V19.2279C10.432 20.3096 10.6388 21.0731 11.0524 21.5185C11.4659 21.9639 12.0465 22.1866 12.7942 22.1866C13.3668 22.1866 13.844 22.0991 14.2258 21.9241C14.6076 21.7492 14.9177 21.5185 15.1563 21.2322C15.3949 20.93 15.562 20.5721 15.6574 20.1585C15.7688 19.7449 15.8244 19.2995 15.8244 18.8223V11.6642H18.5445V24ZM33.033 24H30.456V22.3298H30.4083C30.0425 23.0456 29.5096 23.5626 28.8097 23.8807C28.1098 24.1829 27.3701 24.334 26.5907 24.334C25.6203 24.334 24.7693 24.167 24.0376 23.833C23.3218 23.483 22.7253 23.0138 22.2481 22.4252C21.7709 21.8367 21.413 21.1447 21.1744 20.3494C20.9358 19.5381 20.8165 18.6712 20.8165 17.7486C20.8165 16.6351 20.9676 15.6727 21.2698 14.8615C21.572 14.0502 21.9697 13.3821 22.4628 12.8572C22.9718 12.3323 23.5445 11.9505 24.1808 11.7119C24.833 11.4574 25.4931 11.3301 26.1612 11.3301C26.543 11.3301 26.9327 11.3699 27.3303 11.4494C27.728 11.5131 28.1098 11.6244 28.4756 11.7835C28.8415 11.9426 29.1755 12.1494 29.4778 12.4039C29.7959 12.6425 30.0584 12.9288 30.2652 13.2628H30.3129V6.9637H33.033V24ZM23.5365 17.9633C23.5365 18.4883 23.6002 19.0052 23.7274 19.5143C23.8706 20.0233 24.0774 20.4766 24.3478 20.8743C24.6341 21.272 24.992 21.5901 25.4215 21.8287C25.851 22.0673 26.36 22.1866 26.9486 22.1866C27.553 22.1866 28.07 22.0594 28.4995 21.8048C28.9449 21.5503 29.3028 21.2163 29.5732 20.8027C29.8595 20.3891 30.0663 19.9278 30.1936 19.4188C30.3367 18.8939 30.4083 18.361 30.4083 17.8202C30.4083 16.4522 30.0981 15.3864 29.4778 14.6229C28.8733 13.8593 28.0462 13.4776 26.9963 13.4776C26.36 13.4776 25.8192 13.6128 25.3738 13.8832C24.9443 14.1377 24.5864 14.4797 24.3001 14.9092C24.0297 15.3228 23.8308 15.8 23.7036 16.3408C23.5922 16.8658 23.5365 17.4066 23.5365 17.9633ZM47.4047 23.3558C47.4047 25.2169 46.8798 26.6008 45.83 27.5075C44.796 28.4301 43.3008 28.8914 41.3442 28.8914C40.7238 28.8914 40.0955 28.8277 39.4592 28.7005C38.8389 28.5732 38.2662 28.3585 37.7413 28.0563C37.2323 27.754 36.8028 27.3564 36.4528 26.8632C36.1029 26.3701 35.8961 25.7657 35.8325 25.0499H38.5525C38.6321 25.4316 38.7673 25.7418 38.9582 25.9804C39.1491 26.219 39.3718 26.4019 39.6263 26.5292C39.8967 26.6724 40.191 26.7598 40.5091 26.7917C40.8272 26.8394 41.1613 26.8632 41.5112 26.8632C42.6088 26.8632 43.4121 26.5928 43.9211 26.052C44.4301 25.5112 44.6847 24.7317 44.6847 23.7137V21.8287H44.6369C44.2552 22.5127 43.7302 23.0456 43.0622 23.4274C42.41 23.8091 41.7021 24 40.9386 24C39.9524 24 39.1093 23.833 38.4094 23.4989C37.7254 23.149 37.1527 22.6797 36.6914 22.0912C36.246 21.4867 35.92 20.7948 35.7132 20.0153C35.5064 19.2359 35.403 18.4008 35.403 17.51C35.403 16.6828 35.5302 15.8954 35.7847 15.1478C36.0393 14.4002 36.4051 13.748 36.8823 13.1913C37.3595 12.6186 37.9401 12.1653 38.6241 11.8312C39.324 11.4972 40.1114 11.3301 40.9863 11.3301C41.7657 11.3301 42.4816 11.4972 43.1337 11.8312C43.7859 12.1494 44.287 12.6584 44.6369 13.3583H44.6847V11.6642H47.4047V23.3558ZM41.3681 21.8526C41.9725 21.8526 42.4816 21.7333 42.8951 21.4947C43.3246 21.2402 43.6666 20.9141 43.9211 20.5164C44.1915 20.1028 44.3824 19.6415 44.4938 19.1325C44.621 18.6076 44.6847 18.0826 44.6847 17.5577C44.6847 17.0328 44.621 16.5238 44.4938 16.0306C44.3665 15.5375 44.1677 15.1001 43.8973 14.7183C43.6428 14.3366 43.3008 14.0343 42.8713 13.8116C42.4577 13.5889 41.9566 13.4776 41.3681 13.4776C40.7636 13.4776 40.2546 13.6048 39.841 13.8593C39.4274 14.1139 39.0934 14.4479 38.8389 14.8615C38.5844 15.2592 38.4014 15.7205 38.2901 16.2454C38.1787 16.7544 38.1231 17.2634 38.1231 17.7724C38.1231 18.2815 38.1867 18.7825 38.3139 19.2756C38.4412 19.7529 38.6321 20.1823 38.8866 20.5641C39.157 20.9459 39.4911 21.2561 39.8887 21.4947C40.3023 21.7333 40.7954 21.8526 41.3681 21.8526ZM58.6137 16.7464C58.5819 16.317 58.4864 15.9034 58.3274 15.5057C58.1842 15.108 57.9774 14.766 57.707 14.4797C57.4525 14.1775 57.1344 13.9389 56.7526 13.7639C56.3867 13.573 55.9732 13.4776 55.5119 13.4776C55.0346 13.4776 54.5972 13.5651 54.1995 13.74C53.8178 13.8991 53.4837 14.1298 53.1974 14.432C52.927 14.7183 52.7043 15.0603 52.5293 15.458C52.3702 15.8557 52.2828 16.2851 52.2668 16.7464H58.6137ZM52.2668 18.536C52.2668 19.0132 52.3305 19.4745 52.4577 19.9199C52.6009 20.3653 52.8077 20.755 53.0781 21.089C53.3485 21.4231 53.6905 21.6935 54.1041 21.9003C54.5177 22.0912 55.0108 22.1866 55.5834 22.1866C56.3788 22.1866 57.0151 22.0196 57.4923 21.6855C57.9854 21.3356 58.3512 20.8186 58.5898 20.1346H61.1668C61.0236 20.8027 60.777 21.3992 60.4271 21.9241C60.0771 22.4491 59.6556 22.8945 59.1625 23.2603C58.6694 23.6103 58.1126 23.8727 57.4923 24.0477C56.8878 24.2386 56.2515 24.334 55.5834 24.334C54.6131 24.334 53.7541 24.175 53.0065 23.8568C52.2589 23.5387 51.6226 23.0933 51.0977 22.5207C50.5887 21.948 50.1989 21.264 49.9285 20.4687C49.674 19.6733 49.5468 18.7984 49.5468 17.844C49.5468 16.9691 49.682 16.142 49.9524 15.3625C50.2387 14.5672 50.6364 13.8753 51.1454 13.2867C51.6703 12.6822 52.2987 12.205 53.0304 11.8551C53.7621 11.5051 54.5893 11.3301 55.5119 11.3301C56.4822 11.3301 57.3491 11.5369 58.1126 11.9505C58.8921 12.3482 59.5363 12.8811 60.0453 13.5492C60.5543 14.2173 60.9202 14.9887 61.1429 15.8636C61.3815 16.7226 61.4451 17.6134 61.3338 18.536H52.2668ZM70.0424 5.24575H72.4762V29.1061H70.0424V5.24575ZM82.0442 6.9637H84.7643V13.2628H84.812C85.0029 12.9606 85.2335 12.6902 85.504 12.4516C85.7744 12.213 86.0687 12.0141 86.3868 11.8551C86.7208 11.6801 87.0628 11.5528 87.4128 11.4733C87.7786 11.3779 88.1365 11.3301 88.4865 11.3301C89.4568 11.3301 90.2999 11.5051 91.0157 11.8551C91.7474 12.1891 92.3519 12.6584 92.8291 13.2628C93.3063 13.8514 93.6642 14.5433 93.9028 15.3387C94.1414 16.134 94.2607 16.9851 94.2607 17.8917C94.2607 18.7189 94.1494 19.5222 93.9267 20.3016C93.7199 21.0811 93.3938 21.773 92.9484 22.3775C92.5189 22.9661 91.9701 23.4433 91.302 23.8091C90.6339 24.1591 89.8465 24.334 88.9398 24.334C88.5263 24.334 88.1047 24.3022 87.6752 24.2386C87.2617 24.1909 86.864 24.0875 86.4822 23.9284C86.1005 23.7693 85.7505 23.5626 85.4324 23.308C85.1301 23.0535 84.8756 22.7195 84.6688 22.3059H84.6211V24H82.0442V6.9637ZM91.5406 17.844C91.5406 17.2873 91.469 16.7464 91.3259 16.2215C91.1827 15.6966 90.968 15.2353 90.6817 14.8376C90.3953 14.424 90.0374 14.0979 89.6079 13.8593C89.1785 13.6048 88.6853 13.4776 88.1286 13.4776C86.9833 13.4776 86.1164 13.8753 85.5278 14.6706C84.9552 15.4659 84.6688 16.5238 84.6688 17.844C84.6688 18.4644 84.7404 19.045 84.8836 19.5858C85.0427 20.1108 85.2733 20.5641 85.5755 20.9459C85.8778 21.3276 86.2357 21.6299 86.6493 21.8526C87.0787 22.0753 87.5719 22.1866 88.1286 22.1866C88.749 22.1866 89.2739 22.0594 89.7034 21.8048C90.1329 21.5503 90.4828 21.2242 90.7532 20.8266C91.0396 20.413 91.2384 19.9517 91.3497 19.4427C91.477 18.9177 91.5406 18.3849 91.5406 17.844ZM96.5591 11.6642H99.1122V14.0502H99.1599C99.2394 13.7162 99.3906 13.3901 99.6133 13.072C99.8519 12.7538 100.13 12.4675 100.448 12.213C100.782 11.9426 101.148 11.7278 101.546 11.5688C101.944 11.4097 102.349 11.3301 102.763 11.3301C103.081 11.3301 103.296 11.3381 103.407 11.354C103.534 11.3699 103.662 11.3858 103.789 11.4017V14.0264C103.598 13.9946 103.399 13.9707 103.192 13.9548C103.001 13.923 102.811 13.9071 102.62 13.9071C102.158 13.9071 101.721 14.0025 101.307 14.1934C100.91 14.3684 100.56 14.6388 100.257 15.0046C99.9553 15.3546 99.7167 15.792 99.5417 16.317C99.3667 16.8419 99.2792 17.4464 99.2792 18.1304V24H96.5591V11.6642ZM112.999 16.7464C112.967 16.317 112.871 15.9034 112.712 15.5057C112.569 15.108 112.362 14.766 112.092 14.4797C111.837 14.1775 111.519 13.9389 111.137 13.7639C110.772 13.573 110.358 13.4776 109.897 13.4776C109.42 13.4776 108.982 13.5651 108.584 13.74C108.203 13.8991 107.869 14.1298 107.582 14.432C107.312 14.7183 107.089 15.0603 106.914 15.458C106.755 15.8557 106.668 16.2851 106.652 16.7464H112.999ZM106.652 18.536C106.652 19.0132 106.715 19.4745 106.843 19.9199C106.986 20.3653 107.193 20.755 107.463 21.089C107.733 21.4231 108.075 21.6935 108.489 21.9003C108.903 22.0912 109.396 22.1866 109.968 22.1866C110.764 22.1866 111.4 22.0196 111.877 21.6855C112.37 21.3356 112.736 20.8186 112.975 20.1346H115.552C115.408 20.8027 115.162 21.3992 114.812 21.9241C114.462 22.4491 114.04 22.8945 113.547 23.2603C113.054 23.6103 112.497 23.8727 111.877 24.0477C111.273 24.2386 110.636 24.334 109.968 24.334C108.998 24.334 108.139 24.175 107.391 23.8568C106.644 23.5387 106.007 23.0933 105.483 22.5207C104.974 21.948 104.584 21.264 104.313 20.4687C104.059 19.6733 103.932 18.7984 103.932 17.844C103.932 16.9691 104.067 16.142 104.337 15.3625C104.624 14.5672 105.021 13.8753 105.53 13.2867C106.055 12.6822 106.684 12.205 107.415 11.8551C108.147 11.5051 108.974 11.3301 109.897 11.3301C110.867 11.3301 111.734 11.5369 112.497 11.9505C113.277 12.3482 113.921 12.8811 114.43 13.5492C114.939 14.2173 115.305 14.9887 115.528 15.8636C115.766 16.7226 115.83 17.6134 115.719 18.536H106.652ZM128.118 21.2561C128.118 21.5901 128.158 21.8287 128.237 21.9719C128.333 22.115 128.508 22.1866 128.762 22.1866C128.842 22.1866 128.937 22.1866 129.049 22.1866C129.16 22.1866 129.287 22.1707 129.43 22.1389V24.0239C129.335 24.0557 129.208 24.0875 129.049 24.1193C128.905 24.167 128.754 24.2068 128.595 24.2386C128.436 24.2704 128.277 24.2943 128.118 24.3102C127.959 24.3261 127.824 24.334 127.712 24.334C127.156 24.334 126.694 24.2227 126.328 24C125.963 23.7773 125.724 23.3876 125.613 22.8308C125.072 23.3558 124.404 23.7375 123.608 23.9761C122.829 24.2147 122.073 24.334 121.342 24.334C120.785 24.334 120.252 24.2545 119.743 24.0954C119.234 23.9523 118.781 23.7375 118.383 23.4512C118.001 23.149 117.691 22.7752 117.452 22.3298C117.23 21.8685 117.118 21.3356 117.118 20.7311C117.118 19.9676 117.254 19.3472 117.524 18.87C117.81 18.3928 118.176 18.019 118.622 17.7486C119.083 17.4782 119.592 17.2873 120.149 17.1759C120.721 17.0487 121.294 16.9532 121.867 16.8896C122.36 16.7942 122.829 16.7305 123.274 16.6987C123.72 16.651 124.109 16.5794 124.444 16.484C124.793 16.3885 125.064 16.2454 125.255 16.0545C125.462 15.8477 125.565 15.5455 125.565 15.1478C125.565 14.7979 125.477 14.5115 125.302 14.2888C125.143 14.0661 124.937 13.8991 124.682 13.7878C124.444 13.6605 124.173 13.581 123.871 13.5492C123.569 13.5014 123.282 13.4776 123.012 13.4776C122.248 13.4776 121.62 13.6366 121.127 13.9548C120.634 14.2729 120.355 14.766 120.292 15.4341H117.572C117.619 14.6388 117.81 13.9786 118.144 13.4537C118.478 12.9288 118.9 12.5073 119.409 12.1891C119.934 11.871 120.522 11.6483 121.175 11.521C121.827 11.3938 122.495 11.3301 123.179 11.3301C123.783 11.3301 124.38 11.3938 124.968 11.521C125.557 11.6483 126.082 11.8551 126.543 12.1414C127.02 12.4277 127.402 12.8015 127.689 13.2628C127.975 13.7082 128.118 14.257 128.118 14.9092V21.2561ZM125.398 17.8202C124.984 18.0906 124.475 18.2576 123.871 18.3212C123.266 18.369 122.662 18.4485 122.057 18.5598C121.771 18.6076 121.493 18.6791 121.222 18.7746C120.952 18.8541 120.713 18.9734 120.507 19.1325C120.3 19.2756 120.133 19.4745 120.005 19.729C119.894 19.9676 119.838 20.2619 119.838 20.6118C119.838 20.9141 119.926 21.1686 120.101 21.3754C120.276 21.5821 120.483 21.7492 120.721 21.8764C120.976 21.9878 121.246 22.0673 121.533 22.115C121.835 22.1628 122.105 22.1866 122.344 22.1866C122.646 22.1866 122.972 22.1468 123.322 22.0673C123.672 21.9878 123.998 21.8526 124.3 21.6617C124.618 21.4708 124.881 21.2322 125.088 20.9459C125.295 20.6436 125.398 20.2778 125.398 19.8483V17.8202ZM131.116 6.9637H133.836V16.651L138.752 11.6642H142.092L137.368 16.1977L142.546 24H139.229L135.459 18.011L133.836 19.5858V24H131.116V6.9637ZM143.932 6.9637H146.652V9.54062H143.932V6.9637ZM143.932 11.6642H146.652V24H143.932V11.6642ZM149.616 11.6642H152.193V13.4776L152.24 13.5253C152.654 12.8413 153.195 12.3084 153.863 11.9267C154.531 11.529 155.271 11.3301 156.082 11.3301C157.434 11.3301 158.5 11.6801 159.279 12.38C160.059 13.0799 160.448 14.1298 160.448 15.5296V24H157.728V16.2454C157.697 15.2751 157.49 14.5752 157.108 14.1457C156.726 13.7003 156.13 13.4776 155.318 13.4776C154.857 13.4776 154.444 13.5651 154.078 13.74C153.712 13.8991 153.402 14.1298 153.147 14.432C152.893 14.7183 152.694 15.0603 152.551 15.458C152.407 15.8557 152.336 16.2772 152.336 16.7226V24H149.616V11.6642ZM174.722 23.3558C174.722 25.2169 174.197 26.6008 173.147 27.5075C172.113 28.4301 170.618 28.8914 168.662 28.8914C168.041 28.8914 167.413 28.8277 166.777 28.7005C166.156 28.5732 165.584 28.3585 165.059 28.0563C164.55 27.754 164.12 27.3564 163.77 26.8632C163.42 26.3701 163.213 25.7657 163.15 25.0499H165.87C165.949 25.4316 166.085 25.7418 166.276 25.9804C166.466 26.219 166.689 26.4019 166.944 26.5292C167.214 26.6724 167.508 26.7598 167.826 26.7917C168.145 26.8394 168.479 26.8632 168.829 26.8632C169.926 26.8632 170.73 26.5928 171.239 26.052C171.748 25.5112 172.002 24.7317 172.002 23.7137V21.8287H171.954C171.573 22.5127 171.048 23.0456 170.38 23.4274C169.727 23.8091 169.02 24 168.256 24C167.27 24 166.427 23.833 165.727 23.4989C165.043 23.149 164.47 22.6797 164.009 22.0912C163.563 21.4867 163.237 20.7948 163.031 20.0153C162.824 19.2359 162.72 18.4008 162.72 17.51C162.72 16.6828 162.848 15.8954 163.102 15.1478C163.357 14.4002 163.723 13.748 164.2 13.1913C164.677 12.6186 165.258 12.1653 165.942 11.8312C166.641 11.4972 167.429 11.3301 168.304 11.3301C169.083 11.3301 169.799 11.4972 170.451 11.8312C171.103 12.1494 171.604 12.6584 171.954 13.3583H172.002V11.6642H174.722V23.3558ZM168.685 21.8526C169.29 21.8526 169.799 21.7333 170.213 21.4947C170.642 21.2402 170.984 20.9141 171.239 20.5164C171.509 20.1028 171.7 19.6415 171.811 19.1325C171.938 18.6076 172.002 18.0826 172.002 17.5577C172.002 17.0328 171.938 16.5238 171.811 16.0306C171.684 15.5375 171.485 15.1001 171.215 14.7183C170.96 14.3366 170.618 14.0343 170.189 13.8116C169.775 13.5889 169.274 13.4776 168.685 13.4776C168.081 13.4776 167.572 13.6048 167.158 13.8593C166.745 14.1139 166.411 14.4479 166.156 14.8615C165.902 15.2592 165.719 15.7205 165.607 16.2454C165.496 16.7544 165.44 17.2634 165.44 17.7724C165.44 18.2815 165.504 18.7825 165.631 19.2756C165.759 19.7529 165.949 20.1823 166.204 20.5641C166.474 20.9459 166.808 21.2561 167.206 21.4947C167.62 21.7333 168.113 21.8526 168.685 21.8526Z" fill="#8DC0FF"/>
</svg>
