<svg width="492" height="359" viewBox="0 0 492 359" fill="none" xmlns="http://www.w3.org/2000/svg">
<path d="M45.2614 103.11C45.0923 103.571 44.6256 103.803 44.5678 104.273C45.6288 104.562 46.6832 104.604 47.7161 104.323C48.1082 104.217 48.4065 104.216 48.8098 104.274C50.6427 104.536 52.3156 105.189 54.0672 105.644C54.9394 105.871 55.845 105.906 56.7282 106.039C59.9831 106.527 63.2558 106.932 66.5119 107.429C70.2621 108.001 73.9894 108.66 77.6488 109.509C81.3752 110.373 84.9295 111.643 88.3356 113.188C90.6338 114.23 92.5931 115.593 94.3822 117.13C97.145 119.502 99.0561 122.313 100.059 125.465C100.575 127.086 100.905 128.781 100.897 130.487C100.891 131.799 100.822 133.115 100.915 134.423C101.073 136.622 100.566 138.789 100.555 140.977C100.552 141.509 100.198 141.968 100.167 142.52C100.091 143.866 100.585 145.108 101.014 146.36C101.43 147.576 101.327 148.733 100.632 149.838C100.075 150.723 100.045 151.662 100.045 152.611C100.045 152.784 100.061 152.941 100.005 153.118C99.7476 153.931 99.525 154.747 99.5166 155.598C99.5059 156.69 98.6132 157.555 98.3062 158.58C98.0086 159.574 97.2739 160.46 97.3775 161.568C97.415 161.968 96.9571 162.391 96.7562 162.818C96.4556 163.458 96.8934 164.12 96.471 164.747C96.1472 165.228 96.1775 165.851 95.6256 166.262C95.4541 166.389 95.441 166.575 95.4354 166.754C95.4309 166.896 95.4363 167.038 95.4294 167.18C95.402 167.746 94.968 168.423 94.5283 168.459C93.7326 168.525 93.813 167.891 93.5335 167.454C93.123 168.46 92.5851 169.325 91.9698 170.161C91.4482 170.869 91.361 171.704 91.0234 172.467C90.9457 172.643 90.9737 172.847 91.194 172.929C91.4631 173.03 91.6798 172.918 91.8435 172.716C91.973 172.556 91.7569 172.251 92.1886 172.206C92.3841 172.506 92.3032 172.814 92.1781 173.102C91.7599 174.064 91.698 175.049 91.9876 176.028C92.1463 176.565 91.9656 177.08 92.0132 177.608C92.0528 178.048 91.9957 178.576 91.1255 178.503C90.9811 178.491 90.7516 178.579 90.6778 178.679C90.161 179.377 89.2516 178.989 88.5577 179.142C88.0448 179.255 87.6614 178.583 87.3961 178.146C87.2658 177.931 87.2202 177.667 87.2044 177.423C87.1809 177.06 86.9455 176.944 86.5469 176.903C86.2254 176.871 85.7794 177.032 85.6124 176.707C85.4332 176.359 85.2746 175.981 85.4564 175.576C85.7092 175.014 85.9027 174.433 86.1727 173.877C87.7828 170.561 89.3999 167.246 90.712 163.842C91.2955 162.329 91.7614 160.784 92.1668 159.225C92.5621 157.705 93.1018 156.208 93.5302 154.689C94.0428 152.873 94.7278 151.09 95.2496 149.275C95.6143 148.007 95.8712 146.715 96.0974 145.424C96.2195 144.726 96.5401 144.059 96.4844 143.33C96.4365 142.702 96.6413 142.055 96.1632 141.474C96.0986 141.396 96.0942 141.263 96.1132 141.163C96.3362 139.986 95.9319 138.837 95.7081 137.712C95.1877 135.099 95.5774 132.49 95.4524 129.883C95.4288 129.394 95.5336 128.893 95.6536 128.409C95.7676 127.949 95.8218 127.486 95.7295 127.036C95.5923 126.368 95.3172 125.887 94.3268 125.599C91.5369 124.787 88.7598 123.9 86.1113 122.822C83.9261 121.933 81.7452 120.993 79.7284 119.842C79.2968 119.595 78.8559 119.359 79.0866 118.817C79.1298 118.715 79.0357 118.509 78.9235 118.44C78.1159 117.944 77.6601 117.15 76.6661 116.793C75.4028 116.34 74.2043 115.766 72.9668 115.262C72.1911 114.946 71.4397 114.598 70.733 114.19C70.4401 114.021 70.1135 113.815 69.7888 113.932C69.024 114.21 68.2992 113.959 67.5541 113.937C66.8063 113.916 66.1591 113.78 65.4655 113.514C64.7156 113.226 63.7857 113.045 62.9715 113.114C60.2376 113.343 57.829 112.448 55.3059 111.878C52.8497 111.323 50.5334 110.458 48.0918 109.884C46.7671 109.573 45.424 109.692 44.0987 109.779C43.6748 109.806 43.3071 109.846 42.8829 109.758C42.4739 109.673 42.0235 109.717 41.591 109.713C40.2187 109.7 38.8175 109.858 37.5467 109.118C37.1504 109.64 37.2305 110.088 37.3579 110.523C38.1188 113.12 38.8484 115.725 39.6769 118.309C40.5074 120.899 41.1873 123.518 41.9577 126.119C42.6076 128.313 43.1687 130.532 43.7001 132.751C44.0674 134.286 44.6967 135.752 45.2248 137.246C46.1878 139.968 46.8329 142.745 47.4068 145.535C47.8522 147.699 48.2112 149.886 48.0454 152.077C47.8245 154.999 47.3803 157.895 46.128 160.686C44.6425 163.996 43.3235 167.356 41.7378 170.639C41.5582 171.01 41.3933 171.269 40.8754 171.288C40.6575 171.296 40.4276 171.332 40.305 171.497C39.804 172.172 38.8225 171.631 38.2108 172.054C38.1182 172.118 37.9155 171.969 37.7893 171.862C36.8513 171.062 36.7641 170.309 37.1847 169.453C38.8836 165.998 40.3961 162.484 41.7571 158.932C43.5167 154.34 43.553 149.654 42.6082 144.934C41.8235 141.013 40.522 137.196 39.2586 133.369C38.3433 130.597 37.8458 127.749 37.0608 124.953C36.0725 121.432 35.0619 117.915 34.065 114.396C33.5479 112.57 33.0228 110.745 32.5372 108.913C32.3685 108.276 32.105 107.706 31.5739 107.205C30.8684 106.538 30.3293 105.832 31.0971 104.925C31.3278 104.653 31.1337 104.303 31.0417 103.994C30.1826 101.106 29.1225 98.2643 28.1024 95.4134C26.377 90.5916 24.515 85.8045 22.6568 81.0165C20.3778 75.1435 17.7701 69.3661 14.9912 63.6434C13.203 59.9606 11.1823 56.3536 9.29978 52.7011C7.55089 49.3081 5.82879 45.9059 4.13705 42.4936C3.75006 41.713 3.23477 41.1285 2.1774 40.9784C1.3427 40.8599 0.816096 40.4144 0.354984 39.8833C-0.315399 39.1114 -0.0171205 38.3056 1.08788 38.0931C1.89966 37.9369 2.66531 37.7682 3.30532 37.29C3.54704 37.1094 3.91022 37.0156 4.23797 36.9371C8.46924 35.9239 12.5642 34.6082 16.6228 33.2114C19.1332 32.3474 21.7608 31.7727 24.3459 31.0932C27.7651 30.1943 31.2995 29.6959 34.7982 29.0702C37.8262 28.5289 40.8935 28.3946 43.9516 28.5764C46.9231 28.7533 49.741 29.5055 52.3933 30.67C55.299 31.9457 58.0026 33.4608 60.5903 35.1201C61.4566 35.6755 62.4946 35.9441 63.4362 36.3714C63.8607 36.5639 64.3409 36.7302 64.5138 37.1001C64.9517 38.0378 65.8489 38.6583 66.692 39.3066C67.9131 40.246 68.3771 41.4388 68.7847 42.7242C69.1913 44.0067 69.6167 45.3219 70.4785 46.4677C71.4138 47.7112 72.1673 49.021 72.7966 50.3766C73.2901 51.4398 73.3881 52.5341 73.1615 53.6916C72.7346 55.8744 71.8779 58.0249 72.164 60.2743C72.3307 61.5855 71.8541 62.735 70.9405 63.7499C70.0591 64.7292 69.8066 65.8918 69.4438 66.9937C68.8817 68.7005 68.3212 70.3864 67.2105 71.9175C66.6815 72.6468 66.1883 73.3955 65.6117 74.0987C64.8326 75.0485 64.5525 76.1838 63.8399 77.1516C63.5073 77.6035 63.9878 78.0339 63.7497 78.5597C63.4538 79.2138 63.1186 79.8297 62.753 80.4617C61.25 83.0596 59.0099 85.28 57.2932 87.7695C56.2873 89.2282 54.918 90.4976 53.0509 91.3662C52.2704 91.7294 52.1269 92.6166 51.5818 93.2081C51.5497 93.2429 51.5833 93.3577 51.6325 93.3972C52.4582 94.0636 51.7852 94.5108 51.3235 95.0285C49.3379 97.2552 47.1368 99.3418 45.0748 101.519C44.9953 101.603 44.9057 101.68 44.8298 101.767C44.3091 102.358 44.3121 102.367 44.9882 102.872C45.0822 102.942 45.1635 103.024 45.2626 103.111L45.2614 103.11ZM67.7145 56.7273C67.7014 54.5286 67.1995 52.3762 66.6238 50.2421C65.9546 47.7614 64.9151 45.3543 64.3391 42.8522C64.29 42.6394 64.2483 42.4122 64.0143 42.2928C62.7033 41.6233 61.6099 40.6866 60.1956 40.1519C58.2023 39.3983 56.2031 38.6517 54.1714 37.972C52.1799 37.3056 50.1845 36.6066 48.1165 36.1462C46.3703 35.7574 44.7095 35.1878 42.9779 34.7771C41.2403 34.3652 39.5465 33.8427 37.7015 33.858C37.0454 33.8636 36.3211 33.8363 35.8255 33.5231C34.6526 32.782 33.4934 33.1434 32.4161 33.5075C31.0664 33.9638 29.6274 34.2621 28.3893 34.949C28.0175 35.1552 27.5418 35.2787 27.0358 35.2539C25.7685 35.1915 24.5564 35.493 23.346 35.725C21.6295 36.054 19.9378 36.4416 18.355 37.1333C17.1178 37.6739 15.6654 37.6222 14.3134 37.7221C11.9593 37.8964 9.75226 38.3924 7.6256 39.1969C7.46545 39.2576 7.28893 39.2976 7.27226 39.4643C7.25618 39.6259 7.39431 39.7149 7.55892 39.7741C7.99473 39.9311 8.45138 40.0641 8.6794 40.4514C8.79133 40.6413 8.97828 40.8909 8.64993 40.9976C7.78784 41.2779 8.17334 41.7298 8.40256 42.1181C9.41528 43.8329 10.1913 45.6273 11.0918 47.3797C12.2424 49.6184 13.4462 51.8392 14.5566 54.0913C15.3139 55.6271 16.0804 57.1665 16.9032 58.671C18.3464 61.3099 19.6535 63.9926 20.9338 66.68C22.9989 71.0133 24.9404 75.388 26.655 79.8258C27.7966 82.7803 28.9329 85.7361 30.0668 88.6923C30.5437 89.9353 31.0161 91.1793 31.4763 92.4264C32.1351 94.211 32.801 95.9939 33.4267 97.7863C34.0632 99.6102 34.7907 101.415 35.2155 103.285C35.2542 103.455 35.3203 103.629 35.4218 103.778C35.5263 103.932 35.6966 104.061 35.9454 104.021C36.2166 103.977 36.2407 103.79 36.2482 103.611C36.2568 103.399 36.2029 103.205 36.1011 102.999C35.7272 102.243 35.8993 101.589 36.5899 100.962C37.7086 99.945 39.0139 99.0379 39.5736 97.6676C39.9005 96.8672 40.3041 96.0863 40.7143 95.3112C40.9584 94.8501 41.1421 94.3902 41.0477 93.8879C40.9313 93.2693 41.2573 92.8015 41.7419 92.3699C42.2393 91.9268 42.7606 91.4944 43.0642 90.9334C43.7864 89.5997 44.7804 88.39 45.8422 87.2418C49.5472 83.2361 52.9214 79.0459 56.3076 74.862C58.1663 72.5656 59.9658 70.237 61.9159 67.9905C62.5149 67.3008 63.2674 66.6902 63.6115 65.8676C64.5772 63.558 65.662 61.2848 67.1046 59.1485C67.638 58.3585 67.7928 57.5837 67.7139 56.727L67.7145 56.7273ZM83.5813 117.067C85.6172 118.558 87.9114 119.743 90.2563 121.029C89.6815 121.172 89.1558 120.914 88.8375 121.378C90.1188 121.994 91.4494 122.402 93.0709 122.621C92.266 121.663 91.0571 121.138 90.7781 120.069C90.7641 120.014 90.6519 119.977 90.5858 119.932C89.557 119.23 88.5196 118.539 87.3476 117.998C86.1828 117.46 84.9218 117.182 83.5813 117.067V117.067ZM40.1678 106.775C42.1646 107.147 43.8602 107.463 45.5558 107.779C45.5942 107.694 45.6326 107.61 45.671 107.526C44.7319 107.133 43.7543 106.793 42.8981 106.287C42.6847 106.161 42.4075 106.197 42.1503 106.266C41.5865 106.416 41.0191 106.557 40.1678 106.775V106.775ZM62.038 109.538C63.8196 110.44 63.9327 110.433 64.3266 109.456C63.6086 109.456 62.8986 109.198 62.038 109.538ZM80.6 118.43C81.6824 119.096 82.7612 119.16 83.6909 119.522C82.8005 118.78 81.7274 118.377 80.6 118.43ZM78.5541 117.668C78.9235 117.94 79.1905 118.133 79.5956 118.125C79.6349 118.124 79.718 117.998 79.7016 117.982C79.4682 117.739 79.2179 117.51 78.5541 117.668V117.668ZM87.8629 120.815C87.2256 120.452 86.8204 120.332 86.0479 120.307C86.6728 120.675 86.9981 120.968 87.8629 120.815ZM84.9063 120.061C84.9846 120.04 85.1189 120.032 85.1311 119.996C85.1704 119.879 85.057 119.811 84.9361 119.779C84.8087 119.745 84.6729 119.772 84.6554 119.893C84.6363 120.024 84.7852 120.041 84.9063 120.061Z" fill="#8DC0FF"/>
<path d="M452.146 264.987C451.505 265.063 451.127 264.764 450.754 264.481C449.288 263.372 447.767 262.325 445.97 261.583C445.777 261.503 445.59 261.412 445.391 261.344C445.328 261.322 445.234 261.359 445.152 261.37C444.967 261.547 445.103 261.713 445.221 261.846C446.245 262.989 447.272 264.124 448.9 264.769C450.08 265.237 450.9 266.11 452.004 266.68C453.825 267.621 455.728 268.455 457.476 269.495C458.178 269.913 458.833 270.364 459.478 270.836C461.998 272.682 464.215 274.762 466.486 276.802C467.109 277.362 467.478 278.043 468.02 278.637C468.133 278.761 468.07 278.927 467.906 279.002C467.816 279.044 467.632 279.041 467.553 278.992C467.243 278.801 466.963 278.578 466.662 278.377C466.56 278.309 466.405 278.286 466.316 278.373C466.242 278.445 466.186 278.569 466.204 278.659C466.282 279.04 466.582 279.28 467.009 279.427C467.722 279.675 468.412 279.99 469.152 280.162C470.236 280.414 470.955 281.012 471.5 281.733C472.52 283.085 474.167 283.81 475.668 284.686C476.078 284.926 476.436 284.854 476.458 284.384C476.48 283.95 476.728 283.629 477.137 283.408C477.722 283.092 477.824 282.66 477.819 282.127C477.811 281.112 478.205 280.737 479.422 280.6C479.912 280.545 480.049 280.343 480.172 280.004C480.686 278.58 481.083 277.131 481.635 275.712C482.017 274.726 481.745 273.602 481.607 272.549C481.382 270.82 481.332 269.107 481.627 267.374C481.788 266.434 481.683 265.463 481.684 264.507C481.685 263.835 481.838 263.199 482.202 262.603C482.651 262.718 482.406 263.176 482.773 263.273C483.15 263.172 483.076 262.933 483.1 262.736C483.134 262.454 483.042 262.121 483.195 261.898C483.854 260.94 483.626 259.984 483.312 259.014C483.098 258.353 483.215 257.686 483.202 257.018C483.167 255.326 483.281 253.63 483.177 251.945C483.083 250.44 483.211 248.975 483.643 247.528C483.983 246.389 484.207 245.268 484.225 244.079C484.252 242.316 483.941 240.535 484.455 238.783C484.514 238.582 484.532 238.342 484.456 238.15C484.057 237.134 484.25 236.141 484.455 235.117C484.802 233.38 484.935 231.613 485.313 229.882C485.769 227.797 485.895 225.666 486.442 223.613C486.88 221.97 487.43 220.335 487.837 218.681C488.091 217.647 488.195 216.587 488.344 215.537C488.593 213.785 488.895 212.036 489.039 210.277C489.148 208.938 489.529 207.618 489.427 206.266C489.404 205.956 489.359 205.587 489.873 205.489C490.296 205.409 491.049 205.891 491.037 206.281C491.005 207.408 491.087 208.529 490.896 209.667C490.723 210.698 490.484 211.734 490.449 212.796C490.419 213.699 490.29 214.621 490.156 215.53C489.95 216.926 489.456 218.328 489.539 219.71C489.668 221.859 489.035 223.901 488.727 225.989C488.608 226.795 488.577 227.607 488.367 228.408C488.25 228.853 488.309 229.31 488.79 229.68C489.253 230.036 489.312 230.468 489.218 231.025C489 232.32 489.105 233.655 488.825 234.936C488.591 236.002 488.437 237.073 488.676 238.096C489.009 239.529 488.871 240.929 488.597 242.315C488.253 244.061 488.253 245.836 487.785 247.571C487.555 248.428 487.522 249.332 487.517 250.215C487.505 252.202 487.04 254.152 486.872 256.127C486.732 257.779 486.35 259.417 486.066 261.061C485.642 263.513 485.423 265.974 485.578 268.451C485.731 270.9 485.423 273.344 485.185 275.768C484.959 278.071 485.075 280.357 484.995 282.649C484.958 283.711 485.033 284.777 484.783 285.83C484.547 286.824 484.833 287.844 485.076 288.755C485.34 289.746 486.009 290.81 487.276 291.394C487.916 291.689 488.539 292.009 489.166 292.323C489.459 292.47 489.77 292.606 489.901 292.941C489.097 293.653 488.142 293.997 486.896 293.934C485.465 293.861 485.481 293.925 484.95 295.021C484.609 295.726 484.481 296.443 484.464 297.197C484.424 299.005 484.622 300.802 484.725 302.605C484.884 305.391 485.505 308.157 485.285 310.959C485.232 311.625 485.278 312.28 485.081 312.955C484.874 313.665 485.378 314.402 485.303 315.156C485.109 317.103 485.678 319.029 485.582 320.975C485.556 321.507 485.644 322.032 485.777 322.557C486.25 324.415 486.068 326.301 486.094 328.177C486.101 328.673 485.823 329.118 485.388 329.385C484.615 329.86 484.586 330.488 484.78 331.103C485.405 333.088 486.012 335.073 486.495 337.087C486.675 337.84 487.076 338.557 487.325 339.309C487.777 340.678 487.874 342.09 488.282 343.466C488.668 344.766 489.101 346.067 489.303 347.408C489.546 349.02 489.898 350.621 490.166 352.23C490.28 352.916 489.985 353.008 489.175 352.927C488.262 352.834 487.679 352.265 486.864 352.06C486.551 351.981 486.453 351.7 486.381 351.462C486.193 350.846 485.886 350.222 485.893 349.604C485.911 348.107 485.181 346.773 484.667 345.401C484.072 343.808 483.664 342.19 483.279 340.56C482.764 338.378 482.227 336.206 481.473 334.06C480.728 331.939 480.042 329.785 480.022 327.526C480.012 326.376 479.744 325.204 479.386 324.086C479.076 323.12 478.84 322.144 478.763 321.166C478.691 320.246 478.766 319.294 479.109 318.39C479.213 318.115 479.263 317.841 479.299 317.558C479.34 317.236 479.397 316.887 479.915 316.867C480.416 316.847 480.719 317.089 480.842 317.474C481.051 318.125 481.245 318.779 481.447 319.431C481.591 319.895 481.653 320.384 482.055 320.787C482.212 318.645 482.989 316.559 481.934 314.375C481.353 313.171 481.458 311.735 481.341 310.398C481.311 310.051 481.307 309.696 481.241 309.35C481.142 308.82 481.005 308.255 481.193 307.765C481.68 306.494 481.108 305.342 480.781 304.154C480.702 303.866 480.556 303.74 480.151 303.794C479.452 303.889 479.16 303.522 478.976 303.03C478.731 302.374 478.744 301.701 478.706 301.03C478.664 300.282 478.551 299.562 478.056 298.896C477.741 298.473 477.634 297.972 477.557 297.475C477.221 295.295 476.849 293.119 476.552 290.936C476.48 290.406 476.186 290.106 475.676 289.851C474.237 289.128 472.609 288.878 470.992 288.704C469.105 288.502 467.272 288.231 465.465 287.698C462.861 286.931 460.695 285.609 458.419 284.396C456.998 283.639 455.719 282.748 454.365 281.929C453.62 281.478 452.748 281.252 451.921 280.953C449.532 280.092 447.438 278.834 445.235 277.72C443.724 276.956 443.338 277.071 442.752 278.491C442.422 279.291 442.212 280.125 441.94 280.941C441.85 281.21 441.847 281.529 441.509 281.688C440.784 282.03 440.76 282.69 440.438 283.214C440.292 283.452 440.277 283.716 440.457 283.927C440.981 284.545 440.667 285.146 440.483 285.765C440.015 287.345 439.471 288.916 439.158 290.516C438.947 291.591 438.943 292.704 438.866 293.798C438.682 296.453 438.254 299.088 437.959 301.732C437.777 303.36 437.797 304.977 437.73 306.599C437.69 307.54 437.226 308.479 437.705 309.43C437.777 309.574 437.73 309.805 437.633 309.949C436.712 311.321 437.056 312.844 436.823 314.29C436.249 313.937 436.235 313.939 436.057 312.947C435.955 312.384 435.828 311.828 435.576 311.298C435.328 310.776 435.376 310.18 435.031 309.698C434.829 309.71 434.704 309.768 434.703 309.879C434.687 311.471 434.245 313.042 434.377 314.644C434.59 317.223 434.574 319.813 434.748 322.389C434.873 324.229 434.779 326.078 435.01 327.902C435.367 330.722 435.113 333.572 435.757 336.374C436.395 339.154 437.006 341.94 437.563 344.732C438.395 348.906 440.155 352.867 441.66 356.884C442.209 358.352 441.462 358.586 440.015 358.898C439.573 358.993 439.246 358.808 439.066 358.49C438.885 358.169 438.727 357.836 438.611 357.497C437.736 354.946 436.926 352.38 435.992 349.844C435.202 347.697 434.855 345.488 434.397 343.292C433.888 340.853 433.397 338.412 432.9 335.972C432.85 335.728 432.762 335.482 432.77 335.239C432.844 333.005 432.519 330.781 432.522 328.552C432.526 325.365 432.273 322.184 432.145 319.003C432.044 316.49 431.95 313.976 432.03 311.469C432.082 309.817 432.119 308.149 432.444 306.5C432.657 305.42 432.618 304.311 432.692 303.221C432.814 301.423 433.181 299.631 433.031 297.818C432.979 297.189 432.931 296.542 433.247 295.928C433.31 295.806 433.309 295.644 433.275 295.511C432.817 293.68 433.007 291.85 433.257 290.018C433.315 289.596 433.401 289.162 433.199 288.757C433.012 288.379 433.032 287.993 433.029 287.605C433.02 286.507 433.026 285.408 433.016 284.309C432.989 281.16 433.185 278.011 432.8 274.862C432.564 272.932 432.767 270.984 432.991 269.05C433.114 267.984 432.923 266.921 432.776 265.88C432.665 265.101 432.449 264.442 433.285 263.866C433.43 263.766 433.554 263.536 433.52 263.392C433.274 262.333 433.596 261.199 432.754 260.213C431.964 259.288 432.189 258.915 433.469 258.507C434.025 258.33 434.572 258.362 435.129 258.356C436.568 258.339 436.592 258.348 436.849 257.152C437.073 256.106 437.234 255.051 437.43 254.001C437.978 251.069 438.236 248.111 438.419 245.154C438.521 243.492 438.683 241.841 438.921 240.189C439.073 239.137 439.168 238.079 439.053 237.012C438.868 235.291 439.463 233.667 439.97 232.019C440.392 230.65 440.939 229.288 441.156 227.897C441.374 226.496 441.669 225.103 441.869 223.7C442.158 221.668 442.267 219.619 442.539 217.595C442.816 215.525 442.794 213.437 443.19 211.377C443.309 210.754 443.266 210.101 443.221 209.466C443.109 207.887 443.339 206.376 444.314 204.973C444.705 204.411 444.794 203.749 444.883 203.134C445.014 202.228 445.136 201.305 445.171 200.401C445.223 199.092 445.58 197.807 445.517 196.492C445.492 195.971 445.662 195.441 445.781 194.921C445.875 194.513 446.219 194.409 446.656 194.576C447.17 194.773 447.455 195.097 447.401 195.59C447.271 196.787 447.153 197.984 447.032 199.181C446.85 200.976 446.665 202.771 446.493 204.567C446.461 204.906 446.641 205.182 446.968 205.398C447.489 205.742 447.66 206.186 447.541 206.724C447.504 206.894 447.481 207.102 447.566 207.248C448.159 208.267 447.601 209.194 447.224 210.121C446.549 211.776 446.161 213.475 446.024 215.207C445.878 217.045 445.637 218.874 445.38 220.702C445.301 221.265 445.232 221.832 445.233 222.398C445.234 223.747 444.885 225.056 444.674 226.383C444.395 228.135 443.798 229.855 443.827 231.64C443.83 231.815 443.826 232.005 443.751 232.165C443.167 233.425 443.236 234.737 443.227 236.05C443.215 237.674 442.844 239.281 442.757 240.895C442.642 243.049 442.488 245.225 443.016 247.363C443.464 249.177 443.667 251.033 443.629 252.848C443.586 254.894 444.009 256.845 444.41 258.826C444.513 259.339 444.839 259.612 445.381 259.681C447.6 259.961 449.012 261.217 450.437 262.447C450.939 262.88 451.318 263.408 451.769 263.881C452.079 264.206 452.182 264.56 452.146 264.987L452.146 264.987ZM444.397 271.868C445.735 272.752 446.929 273.784 448.557 274.297C447.69 272.885 446.581 271.75 444.397 271.868Z" fill="#8DC0FF"/>
<path d="M382.258 233.766C381.585 234.972 380.621 235.981 379.426 236.888C378.412 237.656 377.491 238.502 376.279 239.073C374.614 239.858 372.787 239.987 370.925 239.895C370.103 239.855 369.865 239.263 369.806 238.755C369.735 238.159 369.39 237.953 368.768 237.763C367.842 237.48 366.991 237.092 365.946 237.047C365.392 237.024 364.846 236.669 364.321 236.428C363.38 235.995 362.444 235.583 361.393 235.32C360.791 235.169 360.214 235.103 359.618 235.133C358.884 235.169 358.278 234.984 357.692 234.639C355.337 233.256 353.121 231.739 351.014 230.113C349.028 228.581 346.961 227.131 344.618 225.973C343.864 225.601 343.33 225.029 342.753 224.541C340.742 222.839 338.509 221.333 336.499 219.637C335.421 218.726 334.369 217.79 333.605 216.659C333.015 215.784 332.116 215.098 331.223 214.426C330.73 214.055 330.364 213.624 330.211 213.093C329.963 212.227 330.547 211.68 331.62 211.62C332.715 211.558 333.722 211.909 334.787 211.968C335.105 211.985 335.332 212.155 335.434 212.422C336.291 214.661 338.172 216.3 340.286 217.752C341.232 218.402 341.919 219.195 342.722 219.925C344.777 221.791 346.824 223.665 349.258 225.222C351.982 226.965 354.479 228.955 357.525 230.35C358.431 230.765 359.35 231.159 360.263 231.564C362.809 232.691 365.351 233.823 367.903 234.941C368.467 235.188 368.892 235.642 369.595 235.685C370.484 235.74 371.351 235.64 372.062 235.199C373.229 234.474 374.504 233.822 375.359 232.827C376.503 231.493 377.922 230.547 379.956 230.41C380.726 230.359 381.105 229.996 381.454 229.534C381.932 228.903 382.6 228.39 383.069 227.747C383.474 227.19 384.147 226.913 384.95 227.016C385.96 227.146 386.658 226.774 387.329 226.218C388.094 225.584 388.74 224.928 389.184 224.083C390.462 221.647 391.849 219.25 393.207 216.843C394.448 214.641 395.129 212.378 394.501 209.938C394.403 209.554 394.326 209.182 394.089 208.833C393.648 208.184 393.206 207.533 392.811 206.865C392.343 206.071 391.774 205.387 390.644 205.174C390.315 205.111 390.159 204.913 390.003 204.69C389.296 203.679 388.499 202.707 387.875 201.664C386.669 199.653 384.784 198.101 382.919 196.529C382.187 195.912 381.268 195.461 380.339 195.115C378.407 194.395 376.837 193.298 375.316 192.143C374.072 191.199 372.801 190.304 371.231 189.738C371.035 189.667 370.838 189.578 370.675 189.466C368.368 187.868 365.512 187.058 362.92 185.871C360.986 184.985 359.06 184.086 357.425 182.883C356.478 182.186 355.628 181.364 354.73 180.601C354.521 180.424 354.349 180.18 354.094 180.083C352.394 179.438 351.081 178.326 349.488 177.561C346.286 176.023 343.716 173.856 340.973 171.864C339.905 171.089 338.846 170.307 337.68 169.639C336.405 168.908 335.403 167.968 334.728 166.865C333.887 165.49 332.831 164.245 331.728 163.022C328.417 159.352 326.015 155.279 323.77 151.133C323.245 150.164 322.759 149.175 322.146 148.244C321.118 146.683 320.806 144.967 320.406 143.271C319.791 140.662 319.091 138.079 317.737 135.641C316.711 133.792 316.132 131.85 316.137 129.805C316.137 129.633 315.979 129.456 316.002 129.292C316.112 128.512 315.817 127.743 317.028 127.129C318.041 126.615 318.734 125.602 318.732 124.409C318.726 120.396 319.536 116.464 320.651 112.568C321.092 111.024 321.468 109.465 322.23 107.996C322.426 107.619 322.371 107.223 322.342 106.841C322.206 105.02 322.814 103.39 323.803 101.751C325.607 98.7643 326.879 95.6058 327.646 92.3176C328.002 90.7933 328.32 89.2547 328.963 87.7864C329.617 86.2948 330.721 85.1386 332.621 84.575C335.66 83.674 338.762 82.9557 341.877 82.2547C344.577 81.6471 347.275 81.0156 349.937 80.2849C351.831 79.765 353.752 79.2154 355.835 79.6678C356.448 79.8009 357.126 79.7404 357.774 79.756C362.299 79.8654 366.447 80.9383 370.102 83.1287C371.415 83.9155 372.657 84.8061 373.563 85.9663C374.161 86.7321 374.886 87.4321 375.567 88.1533C377.046 89.7195 378.316 91.3788 379.376 93.1704C380.313 94.7523 381.512 96.2312 382.624 97.7416C383.25 98.5917 383.731 99.4882 384.204 100.401C385.149 102.225 385.839 104.123 386.644 105.983C387.361 107.638 388.047 109.316 388.699 110.996C389.36 112.702 389.953 114.441 390.888 116.083C391.469 117.102 391.874 118.198 392.24 119.286C392.607 120.375 392.182 121.466 391.996 122.547C391.699 124.263 391.295 125.973 391.875 127.701C391.886 127.735 391.888 127.772 391.885 127.807C391.726 129.934 392.298 132.036 392.219 134.164C392.197 134.741 392.038 135.284 391.903 135.834C391.55 137.271 391.529 138.73 391.667 140.169C391.834 141.913 390.485 142.18 388.706 142.326C388.471 142.345 388.314 142.203 388.194 142.047C387.915 141.682 387.719 141.305 387.735 140.854C387.762 140.11 387.718 139.364 387.746 138.62C387.79 137.48 387.476 136.377 387.287 135.261C387.086 134.072 386.871 132.884 386.662 131.696C386.331 129.812 386.03 127.925 385.659 126.046C385.432 124.896 385.296 123.736 385.01 122.591C384.606 120.97 384.34 119.327 383.969 117.7C382.923 113.119 381.636 108.583 380.298 104.053C378.984 99.6052 376.886 95.4544 373.91 91.5945C372.206 89.3848 370.042 87.4964 367.42 86.0289C365.345 84.8678 362.955 84.2943 360.456 83.9204C358.79 83.671 357.108 83.7871 355.448 83.4802C353.794 83.1746 352.089 83.3881 350.437 83.7349C346.665 84.5275 343.459 86.1305 340.669 88.3253C340.234 88.6678 339.751 88.9727 339.289 89.2829C337.594 90.4217 336.51 91.9511 335.216 93.3469C334.826 93.7669 334.5 94.2351 334.054 94.6089C333.318 95.2268 332.815 95.975 332.359 96.7165C331.3 98.4387 330.175 100.133 329.137 101.865C328.322 103.224 327.65 104.62 326.918 106.001C325.266 109.117 325.1 112.462 324.276 115.704C323.259 119.705 323.882 123.759 323.766 127.789C323.733 128.956 324.284 130.077 324.7 131.193C325.823 134.208 326.488 137.303 327.098 140.408C327.241 141.138 327.42 141.862 327.758 142.564C328.678 144.472 329.429 146.428 330.048 148.418C330.627 150.28 331.498 152.054 332.557 153.764C332.852 154.24 333.154 154.712 333.326 155.226C333.509 155.774 333.846 156.171 334.547 156.357C335.612 156.639 336.379 157.257 337.099 157.936C339.313 160.023 341.163 162.338 343.274 164.489C344.467 165.704 345.716 166.882 346.921 168.09C348.59 169.761 350.178 171.491 351.917 173.111C353.969 175.023 356.008 176.971 358.308 178.672C360.554 180.333 363.3 181.444 366.061 182.491C370.533 184.186 374.934 185.997 379.143 188.108C381.246 189.163 383.347 190.215 385.363 191.379C387.846 192.811 390.137 194.426 392.159 196.278C393.018 197.065 393.633 198.023 394.565 198.777C394.838 198.997 395.08 199.321 394.943 199.644C394.696 200.221 395.038 200.691 395.28 201.166C396.136 202.845 396.511 204.63 396.904 206.396C397.182 207.647 397.601 208.867 397.89 210.113C398.172 211.336 398.195 212.513 397.906 213.763C397.571 215.215 397.442 216.706 396.986 218.144C396.573 219.447 395.942 220.689 395.227 221.901C395.115 222.092 395.026 222.344 394.832 222.441C393.863 222.926 393.887 223.831 393.437 224.532C393.322 224.71 393.337 224.861 393.446 225.03C393.845 225.646 393.51 226.079 392.969 226.523C391.506 227.723 390.053 228.932 388.661 230.187C387.91 230.863 387.254 231.595 386.381 232.195C385.153 233.037 383.788 233.557 382.232 233.785C382.308 233.615 382.345 233.433 382.115 233.34C381.999 233.293 381.863 233.394 381.853 233.509C381.832 233.745 382.015 233.795 382.259 233.766L382.258 233.766ZM328.855 95.48C329.487 95.228 329.702 94.9543 329.928 94.7016C331.178 93.3072 332.363 91.8728 333.754 90.5664C333.867 90.4602 333.988 90.35 334.059 90.2245C334.568 89.3305 335.457 88.7121 336.337 88.085C337.855 87.0038 339.37 85.9207 340.87 84.8497C340.792 84.6903 340.667 84.6608 340.542 84.6747C338.489 84.9036 336.461 85.2699 334.535 85.878C332.403 86.5512 331.388 88.1184 330.651 89.7451C329.841 91.5316 329.821 93.4917 328.855 95.4798V95.48ZM387.05 114.292C387.114 115.813 387.556 117.283 387.818 118.774C387.94 119.472 388.105 120.165 388.255 120.859C388.305 121.095 388.305 121.42 388.69 121.41C389.027 121.4 389.148 121.098 389.186 120.855C389.235 120.542 389.258 120.217 389.212 119.905C388.916 117.927 387.917 116.128 387.05 114.291L387.05 114.292ZM344.926 170.84C344.503 170.099 343.665 169.689 343.001 169.139C343.38 169.901 344.087 170.422 344.926 170.84ZM322.264 133.547C322.035 133.788 322.085 134.053 322.206 134.314C322.282 134.477 322.397 134.663 322.658 134.605C323.02 134.525 322.928 134.287 322.827 134.098C322.714 133.888 322.686 133.607 322.264 133.547ZM373.023 187.642C373.344 187.874 373.693 187.979 374.071 187.956C373.716 187.823 373.472 187.543 373.023 187.642Z" fill="#8DC0FF"/>
<path d="M235.489 87.6935C234.975 87.2957 234.305 87.3313 233.813 87.0849C231.807 86.079 229.528 86.4436 227.39 86.2691C225.326 86.101 223.303 85.8177 221.298 85.4563C220.377 85.2903 219.431 85.1687 218.518 85.051C217.287 84.8921 216.088 84.5689 214.827 84.5257C214.143 84.5023 213.464 84.3512 212.87 84.0139C212.35 83.718 211.75 83.7056 211.078 83.728C211.152 84.2379 211.615 84.2691 211.999 84.3476C213.879 84.7331 215.712 85.2301 217.49 85.8643C217.958 86.0313 218.453 86.1646 218.786 86.4836C218.684 86.8168 218.39 86.7946 218.152 86.7693C216.794 86.625 215.42 86.6135 214.067 86.4753C213.272 86.3942 212.847 86.6328 212.461 87.0981C212.388 87.186 212.306 87.2701 212.242 87.3623C211.714 88.1154 210.902 88.363 209.866 88.4074C206.518 88.5514 203.189 88.2894 199.966 87.6703C197.635 87.2226 195.264 87.1595 192.951 86.7451C191.862 86.5502 190.795 86.2964 189.787 85.8528C188.726 85.3863 187.566 85.0749 186.464 84.6668C185.929 84.4687 185.323 84.348 184.959 83.9971C184.933 83.6985 185.151 83.719 185.304 83.7C185.827 83.6344 185.896 83.4382 185.53 83.1511C184.775 82.5608 184.253 81.8354 183.686 81.1311C183.168 80.4893 183.19 79.7825 183.209 79.0813C183.225 78.4488 183.035 77.9038 182.598 77.3861C182.155 76.8624 181.814 76.2925 181.564 75.6817C181.334 75.1192 180.94 74.6393 180.484 74.1582C179.943 73.5878 179.564 72.8861 179.416 72.1379C179.299 71.5468 179.199 70.9477 178.804 70.4257C178.646 70.2175 178.456 69.9721 178.1 70.0411C177.785 70.102 177.83 70.3745 177.802 70.5729C177.733 71.0647 177.64 71.5595 177.644 72.0526C177.654 73.4745 177.556 74.8852 177.234 76.2857C177.114 76.8058 177.091 77.3325 177.135 77.8714C177.183 78.4664 177.169 79.0903 177.001 79.6665C176.618 80.9853 176.593 82.3322 176.406 83.6654C176.317 84.2976 176.429 84.9269 176.531 85.5638C176.665 86.401 176.594 87.2621 176.584 88.1127C176.567 89.6677 176.788 91.2035 177.094 92.7338C177.114 92.8382 177.136 92.9466 177.122 93.0502C176.871 94.9888 177.234 96.9255 177.139 98.8656C176.997 101.739 177.533 104.59 177.649 107.456C177.655 107.615 177.643 107.807 177.954 107.949C178.348 107.426 177.987 106.785 178.375 106.171C178.846 107.599 179.157 108.962 179.049 110.337C178.78 113.736 179.71 116.96 180.989 120.144C181.151 120.547 181.281 120.981 181.561 121.327C182.598 122.609 182.709 124.043 182.694 125.506C182.691 125.754 182.655 126 182.794 126.235C183.308 127.107 182.879 128.045 183.074 128.959C183.268 129.861 184.365 130.429 184.211 131.398C184.206 131.431 184.227 131.468 184.244 131.501C185.095 133.17 184.954 134.93 185.033 136.685C185.143 139.139 185.488 141.569 186.281 143.966C187.138 146.559 188.18 149.116 188.779 151.765C188.841 152.043 188.952 152.318 188.97 152.598C189.054 153.902 189.62 155.074 190.343 156.216C190.972 157.212 190.351 158.253 189.005 158.382C188.537 158.427 188.123 158.87 187.67 158.598C187.118 158.267 186.629 157.859 186.263 157.365C185.987 156.994 185.788 156.578 185.753 156.173C185.475 152.974 184.29 149.92 183.55 146.796C182.835 143.774 181.91 140.786 181.088 137.782C180.927 137.194 180.535 136.734 179.952 136.404C178.652 135.669 178.302 134.569 178.113 133.386C177.603 130.195 177.186 126.999 176.799 123.796C176.515 121.438 176.483 119.066 176.087 116.72C175.875 115.459 175.639 114.2 175.345 112.951C174.76 110.471 174.602 107.96 174.468 105.448C174.393 104.035 174.138 102.65 173.72 101.284C173.613 100.933 173.558 100.591 173.562 100.238C173.584 98.1439 173.35 96.0639 173.062 93.9864C173.003 93.563 172.947 93.1311 173.091 92.717C173.273 92.1947 173.261 91.6665 173.26 91.135C173.257 89.4077 173.04 87.6854 173.251 85.9515C173.575 83.301 173.159 80.6414 173.24 77.9921C173.317 75.4777 173.549 72.9617 173.497 70.4462C173.451 68.2097 173.713 65.9898 173.862 63.7662C173.996 61.7574 174.136 59.7437 174.347 57.741C174.69 54.4981 174.708 51.2344 175.182 48.0081C175.652 44.8145 176.26 41.6309 176.951 38.458C177.285 36.9227 178.135 35.5856 178.709 34.1474C179.514 32.1281 180.237 30.0851 181.111 28.0863C182.026 25.9907 182.972 23.9044 183.802 21.7844C183.88 21.5855 184.038 21.4074 184.161 21.2207C185.112 19.7751 186.432 18.5542 187.741 17.3312C188.198 16.9039 188.665 16.4879 189.049 16.0131C190.066 14.7538 191.407 13.7474 192.876 12.8631C195.559 11.2475 198.252 9.64176 201.124 8.25201C201.73 7.9588 202.18 7.5174 202.604 7.07089C203.932 5.67188 205.697 4.83783 207.741 4.3511C207.865 4.32161 208.003 4.31503 208.114 4.26628C209.768 3.53948 211.592 3.29112 213.399 2.98256C214.999 2.70934 216.556 2.31815 218.108 1.88382C220.555 1.19869 223.068 0.759979 225.704 0.887938C226.924 0.947164 228.217 1.14264 229.368 0.531847C229.456 0.485051 229.656 0.490901 229.741 0.542328C230.878 1.22599 232.353 1.4763 232.941 2.82462C233.594 4.31917 234.301 5.80691 234.975 7.3C235.205 7.81037 235.481 8.25981 235.947 8.65465C237.37 9.86087 238.143 11.3028 238.493 12.9697C238.709 13.9962 239.321 14.9687 239.773 15.96C240.936 18.5109 242.161 21.0427 243.126 23.6528C244.187 26.5233 245.305 29.3795 246.371 32.2487C247.185 34.4401 248.014 36.6227 249.234 38.6947C249.569 39.2635 249.728 39.9002 250.004 40.4946C250.877 42.375 251.782 44.2454 252.639 46.1304C252.864 46.6239 252.946 47.1597 253.119 47.6705C253.933 50.0839 254.787 52.4888 255.566 54.9098C256.073 56.4845 256.421 58.0949 257.065 59.6394C257.93 61.7121 258.609 63.8308 259.482 65.9045C260.152 67.497 260.409 69.21 260.791 70.8785C261.308 73.1389 261.78 75.4036 261.633 77.7242C261.568 78.7481 262.003 79.7564 261.854 80.7935C261.618 82.4416 261.411 84.0926 261.179 85.7412C261.032 86.7932 261.213 86.9889 262.438 87.1719C264.136 87.4254 265.857 87.5887 267.544 87.8414C270.902 88.3445 274.288 88.7676 277.576 89.5883C278.969 89.9358 280.385 90.2432 281.783 90.5895C282.027 90.6502 282.296 90.717 282.483 90.8486C282.799 91.0721 282.842 91.3531 282.389 91.503C281.915 91.6597 281.456 91.8298 280.907 91.8401C279.001 91.8754 277.164 91.5084 275.296 91.319C274.022 91.1898 272.723 90.6234 271.382 91.1379C271.253 91.1874 271.026 91.1442 270.886 91.0826C270.355 90.85 269.783 90.8834 269.23 90.9166C266.865 91.0582 264.477 91.0336 262.155 91.5159C261.12 91.7306 260.805 91.8369 260.805 92.7641C260.805 93.4221 260.65 94.0773 260.796 94.7458C260.863 95.052 260.879 95.4032 260.681 95.6859C260.113 96.4953 260.217 97.3888 260.096 98.2638C259.701 101.111 260.076 104.015 259.261 106.819C258.882 108.122 258.964 109.415 258.833 110.715C258.635 112.685 258.304 114.65 257.66 116.561C257.402 117.327 257.49 118.104 257.347 118.871C257.286 119.201 257.497 119.48 257.889 119.651C258.86 120.076 258.895 120.727 258.743 121.553C258.22 124.394 257.259 127.144 256.351 129.909C255.588 132.23 254.833 134.554 254.15 136.891C253.669 138.542 253.328 140.22 252.9 141.882C252.098 144.994 251.536 148.14 250.931 151.28C250.581 153.096 250.224 154.912 249.794 156.716C249.641 157.357 249.127 157.926 249.13 158.622C249.13 158.771 248.942 158.941 248.794 159.065C248.492 159.317 248.135 159.59 247.686 159.5C247.272 159.418 247.189 159.051 247.07 158.741C246.978 158.499 246.907 158.255 246.959 158.01C247.167 157.029 247.018 156.013 247.247 155.055C247.566 153.724 247.509 152.38 247.675 151.048C247.934 148.966 248.347 146.912 248.825 144.863C249.092 143.716 249.304 142.564 249.499 141.408C249.716 140.112 250.019 138.825 250.314 137.539C250.802 135.418 251.323 133.303 251.962 131.209C252.069 130.857 252.065 130.507 251.869 130.169C251.523 129.575 251.498 128.944 251.503 128.299C251.528 125.459 252.051 122.662 252.586 119.866C252.641 119.579 252.734 119.25 253.221 119.48C253.535 119.628 253.579 119.497 253.636 119.315C253.765 118.904 253.967 118.495 253.999 118.078C254.097 116.811 254.14 115.544 254.274 114.274C254.528 111.878 254.774 109.483 255.156 107.1C255.426 105.415 255.635 103.713 256.107 102.065C257.004 98.9363 256.415 95.7797 256.582 92.64C256.62 91.9278 256.487 91.8442 255.617 91.8354C254.577 91.825 253.532 91.8954 252.638 91.3212C252.406 91.1723 252.161 91.0716 251.975 90.8466C250.779 89.3996 249.84 89.0945 247.792 89.5025C246.191 89.8215 244.56 89.9858 242.94 90.2068C242.114 90.3194 241.302 90.2575 240.515 89.9977C239.493 89.6602 238.43 89.5378 237.33 89.626C235.937 89.7381 234.739 89.1244 233.434 88.9068C233.119 88.8541 233.136 88.5924 233.354 88.4015C233.915 87.9085 234.621 87.6935 235.49 87.6947L235.489 87.6935ZM225.838 2.78806C224.185 3.03764 222.4 2.98256 220.705 3.40518C219.645 3.66939 218.615 4.01597 217.573 4.32649C216.92 4.52074 216.268 4.72864 215.556 4.66478C214.838 4.60044 214.177 4.77105 213.549 5.0043C211.31 5.8364 208.96 6.46936 206.822 7.48426C205.179 8.2642 203.406 8.87718 201.949 9.8989C200.703 10.7724 199.672 11.8261 198.403 12.6952C196.583 13.9419 194.969 15.3931 193.122 16.6098C191.74 17.5199 190.602 18.4804 189.912 19.8487C189.225 21.2114 188.271 22.4861 187.525 23.8264C186.708 25.2941 186.359 26.9127 185.509 28.3956C184.649 29.8938 184.099 31.5095 183.283 33.0265C182.887 33.7623 182.751 34.4991 183.05 35.1837C183.374 35.9264 183.209 36.5801 182.968 37.2501C182.293 39.1188 181.666 40.9948 181.156 42.9C180.852 44.0363 180.499 45.1669 180.126 46.293C179.586 47.9301 179.337 49.614 179.436 51.3206C179.546 53.221 180.066 55.0911 180.051 57.0013C180.047 57.6374 179.929 58.3128 180.144 58.9016C180.613 60.1863 180.44 61.5044 180.479 62.784C180.54 64.7646 180.985 66.6315 181.709 68.5C182.106 69.5246 182.538 70.5856 182.077 71.7114C181.927 72.0796 182.077 72.4833 182.343 72.8308C182.687 73.2817 182.99 73.7558 183.369 74.1857C183.991 74.8911 184.23 75.6939 184.514 76.5155C184.795 77.3272 184.922 78.1607 185.218 78.9655C185.758 80.4342 189.157 82.5973 191.422 82.4674C192.289 82.4175 193.09 82.571 193.657 83.1131C194.405 83.8291 195.332 84.0614 196.429 84.0317C197.121 84.0129 197.814 84.0436 198.507 84.04C199.117 84.0368 199.662 83.9508 200.196 83.6191C200.807 83.2393 201.558 83.049 202.373 83.0755C203.324 83.1065 204.278 83.0726 205.231 83.0853C206.11 83.097 206.967 83.0226 207.743 82.6607C208.152 82.4696 208.554 82.4374 208.986 82.5615C209.278 82.6454 209.576 82.6848 209.88 82.6278C212.056 82.22 214.263 82.8301 216.442 82.4986C216.604 82.474 216.785 82.5245 216.955 82.5486C218.223 82.7294 219.488 82.9269 220.759 83.0889C221.398 83.1703 221.989 83.4165 222.664 83.3809C224.654 83.2759 226.582 83.8055 228.585 83.767C229.308 83.7531 230.179 83.9544 230.917 84.2686C232.12 84.7804 233.465 84.8416 234.773 84.9671C235.625 85.049 236.498 84.9759 237.362 84.9854C237.888 84.9913 238.388 84.9608 238.853 84.7158C239.994 84.1143 241.403 84.4926 242.595 84.0534C242.662 84.0285 242.776 84.0466 242.847 84.0773C243.66 84.427 244.62 84.3371 245.442 84.6849C246.288 85.0429 247.211 85.1897 248.165 85.2832C249.184 85.3832 250.173 85.6737 251.192 85.7807C251.963 85.8619 252.68 86.3069 253.439 86.1448C254.007 86.0235 254.461 86.001 255.028 86.1453C255.896 86.3664 256.516 85.9864 256.658 85.2169C256.754 84.6939 256.784 84.1589 256.788 83.629C256.794 82.7697 256.912 81.9514 257.459 81.181C257.735 80.7925 257.832 80.3255 257.826 79.8493C257.805 78.1505 257.892 76.4485 257.787 74.7538C257.727 73.7989 257.919 72.8474 257.771 71.9042C257.523 70.325 257.289 68.7398 256.903 67.1811C256.416 65.2079 255.858 63.2417 255.003 61.3455C254.029 59.1863 253.134 57.0112 252.524 54.7567C252.029 52.9263 251.493 51.0957 250.808 49.3084C248.723 43.8715 246.885 38.3703 244.47 33.0192C243.555 30.9938 242.72 28.9445 241.83 26.9118C241.027 25.0784 240.175 23.2595 239.386 21.4225C238.304 18.905 236.899 16.5045 235.102 14.2953C233.762 12.647 233.179 10.8304 232.645 8.97296C232.24 7.56761 231.938 6.14276 231.55 4.73376C231.372 4.08836 230.965 3.50755 230.136 3.32549C228.761 3.0235 227.364 2.77295 225.838 2.7866V2.78806ZM259.196 97.3925C259.098 97.8049 259.11 98.2226 258.925 98.6314C258.641 99.26 258.68 99.2717 259.114 99.8725C259.602 99.0187 259.119 98.1966 259.196 97.3925Z" fill="#8DC0FF" stroke="#8DC0FF"/>
</svg>
