<svg width="1033" height="1464" viewBox="0 0 1033 1464" fill="none" xmlns="http://www.w3.org/2000/svg">
<path d="M159.6 221.616C145.326 226.182 131.239 222.384 116.581 223.617L14.4215 232.171C9.34213 232.596 4.6874 232.416 0 229.426C18.1943 184.772 33.2773 140.51 48.8094 95.3162C54.2726 79.4185 60.2992 64.9422 67.118 49.9023L87.5498 4.8233C88.4644 2.80545 87.3293 -0.486835 91.0613 0.060518C92.4577 0.264754 94.4094 1.08987 95.716 2.92799C97.3493 5.23177 93.8296 6.22845 93.0865 7.82149L65.7297 65.7837C53.1538 92.4242 46.0492 119.833 35.4576 147.339L4.19744 228.486C55.9058 226.983 107.696 217.637 159.6 221.608V221.616Z" fill="#8DC0FF"/>
<path d="M399.98 255.208C401.483 253.754 403.386 254.898 403.704 255.568C404.08 256.36 404.072 257.929 403.075 258.958L380.912 281.849C379.295 283.515 373.195 285.533 371.676 283.278C366.858 260.077 366.148 236.827 365.339 213.029L350.461 211.706C349.807 210.611 349.807 208.365 350.314 207.613C355.826 208.389 359.893 209.059 365.397 208.095C366.131 184.534 367.234 161.676 375.073 139.431C375.645 137.821 379.589 139.578 380.39 140.615C381.974 142.674 379.777 144.471 379.01 146.881C372.771 166.586 371.472 187.345 371.456 208.087L414.467 208.226C415.806 208.226 417.097 209.084 416.811 211.763C402.349 212.302 387.845 212.016 371.431 213.814C370.966 235.454 372.673 256.213 375.645 278.818L399.989 255.192L399.98 255.208Z" fill="#8DC0FF"/>
<path d="M301.365 162.077L300.14 186.226C297.919 187.206 294.881 186.831 294.048 185.728L294.914 162.053C292.268 160.509 290.023 160.01 288.626 157.29L295.837 154.398C300.606 138.263 301.823 127.708 315.338 130.412C323.904 132.128 329.375 136.523 331.499 145.542C334.724 159.275 335.541 173.539 337.133 188.048C337.427 190.703 336.921 192.198 334.553 192.435C329.294 192.949 332.348 180.434 328.436 168.466C319.78 164.561 310.544 163.883 301.374 162.085L301.365 162.077ZM328.265 162.747L324.737 142.781C324.051 138.917 320.923 136.392 318.449 135.641C315.468 134.734 310.961 134.334 309.172 136.972C304.836 143.394 302.762 150.844 301.896 158.442L328.257 162.755L328.265 162.747Z" fill="#8DC0FF"/>
<path d="M546.735 194.027L539.443 194.526C538.209 190.4 540.292 186.806 540.937 182.721C542.921 170.124 544.057 157.878 549.022 145.06C561.753 158.989 566.375 175.246 573.961 192.238C579.351 183.603 578.82 174.086 580.331 164.699C583.05 147.772 583.189 130.829 590.767 115.707L583.262 166.603C581.523 178.416 580.494 190.024 575.921 201.903C565.632 187.933 563.827 167.338 550.295 153.997C546.441 167.746 544.057 179.886 546.743 194.044L546.735 194.027Z" fill="#8DC0FF"/>
<path d="M189.758 184.257C186.328 186.463 181.91 186.136 180.62 183.261C178.48 178.473 176.235 175.998 172.258 172.273C165.888 166.309 162.524 152.078 167.505 144.456C181.445 141.082 197.124 145.118 208.883 153.148C209.349 160.215 209.128 169.945 204.416 174.846L189.758 184.257ZM200.75 153.834C191.938 147.544 181.739 147.748 173.034 149.063C170.224 160.623 174.593 171.987 186.083 176.586C190.036 178.171 196.838 173.18 199.19 169.904C201.648 166.473 204.261 156.351 200.741 153.834H200.75Z" fill="#8DC0FF"/>
<path d="M443.049 163.515C442.681 178.964 448.855 193.072 445.915 194.992C445.254 195.425 443.465 195.507 443.171 194.053C440.346 180.058 435.332 161.228 439.889 160.917C441.424 160.811 443.098 161.277 443.041 163.523L443.049 163.515Z" fill="#8DC0FF"/>
<path d="M590.212 116.287L593.593 92.5303C597.97 99.4988 595.83 109.114 590.212 116.287Z" fill="#8DC0FF"/>
<path d="M440.795 153.393C442.964 153.393 444.723 151.634 444.723 149.464C444.723 147.293 442.964 145.534 440.795 145.534C438.626 145.534 436.867 147.293 436.867 149.464C436.867 151.634 438.626 153.393 440.795 153.393Z" fill="#8DC0FF"/>
<path d="M1032.8 351.461V359.679L916.198 206.159L791.737 270.453L888.401 374.425C892.574 378.918 892.451 385.658 892.239 391.589L897 568.776L935.185 568.376L1000.24 566.963L1032.8 566.668V570.631L956.866 571.121L897.024 572.632L899.817 682.748L903.745 850.148L878.585 906.909L1012.86 900.08L1032.79 839.985V858.211C1032.48 857.656 1030.44 857.117 1030.25 857.729L1016.56 903.094L992.079 976.75L1008.12 981.554C1003.13 983.106 998.342 981.423 991.981 981.839L955.641 1142.01L876.731 1227.31C878.062 1229.41 881.811 1229.34 884.138 1228.6C885.714 1228.09 886.58 1226.01 888.368 1223.59L894.003 1222.85C896.55 1222.51 891.161 1216.66 895.611 1214.47C897.359 1213.61 898.51 1216.02 898.755 1217.69C901.965 1218.06 905.19 1216.42 908.694 1219.08C905.288 1222.96 900.576 1224.16 894.648 1223.28C900.658 1233.51 917.039 1220.66 930.71 1228.46C920.249 1229.59 909.665 1227.67 900.201 1231.46C895.546 1233.32 893.3 1236.47 887.355 1232.85C883.558 1230.53 877.099 1231.4 871.97 1232.53L751.061 1362.66L751.494 1367.03C751.584 1367.96 745.933 1367.8 745.394 1368.76L717.523 1462.96L711.913 1463L781.432 1229.05L597.3 1223.25C592.172 1223.08 590.049 1226.61 589.746 1231.33L571.552 1367.9C571.176 1370.75 570.589 1372.22 568.62 1373.36L574.182 1326.61L576.264 1308.25L577.285 1303.28L578.771 1290.86L579.065 1287.75C579.138 1286.94 578.722 1285.29 579.147 1284.6C581.523 1281.06 580.984 1276.54 580.576 1272.44C580.306 1271.85 580.576 1270.93 581.09 1270.6L586.382 1227.45C586.17 1222.81 578.706 1222.14 575.578 1222.07L564.888 1221.82L553.962 1220.99L536.87 1220.45C535.351 1219.64 533.685 1219.58 532.052 1219.55L524.36 1219.45L521.257 1219.32C519.223 1219.24 517.092 1218.87 515.067 1219.21C511.914 1219.75 508.852 1219.61 505.741 1218.95C503.724 1218.52 501.168 1219.46 499.355 1219.75C498.546 1219.04 497.264 1217.54 495.084 1217.45L467.139 1216.37L463.775 1216.23L431.232 1214.32L424.879 1214.15L391.692 1212.12C389.348 1218.84 390.965 1225.62 389.552 1231.81L388.833 1234.97L388.123 1248.96L383.926 1306.23L381.067 1351C380.994 1352.1 380.937 1353.48 380.463 1354.54C379.255 1357.27 379.083 1360.62 382.252 1361.79C382.186 1362.86 382.007 1364.28 382.39 1365.38C380.21 1365.5 379.189 1366.65 379.001 1369.13L375.22 1419.68L372.526 1453.71L372.15 1459.91L372.003 1463C369.545 1462.59 367.895 1462.77 366.254 1463L384.505 1229.78C384.938 1224.01 384.946 1218.7 383.117 1214.02C369.912 1208.97 352.649 1211.64 342.948 1210.85L321.487 1209.11L299.463 1208.46C294.685 1208.32 288.234 1205.23 283.539 1208.12C277.675 1211.74 280.476 1218.49 280.207 1224.15C280.06 1227.3 274.939 1231.01 279.521 1235.43C275.331 1239.61 274.335 1244.76 277.21 1250.79C271.542 1254.51 274.931 1261.28 273.568 1264.84C271.461 1270.33 271.51 1275.08 273.404 1279.59C267.582 1284 270.767 1290.56 270.562 1295.54C270.391 1299.75 262.372 1307.29 268.537 1311.46C280.795 1306.21 282.036 1314.34 288.577 1313.85C290.202 1309.44 291.386 1305.31 295.045 1303.98C299.667 1302.3 304.371 1304 306.363 1308.09C308.102 1311.66 307.359 1316.25 304.076 1319.22C297.266 1325.4 291.484 1313.67 279.341 1318.62L270.268 1315.15C268.872 1314.62 267.059 1314.75 266.341 1314.99C265.246 1315.36 264.609 1318.23 265.026 1319.42C265.393 1320.45 268.309 1320.9 270.015 1321.21C272.31 1325.97 272.204 1334.47 268.635 1339.65C264.209 1334.7 267.786 1329.91 267.239 1325.1C264.201 1325.63 263.393 1328.07 263.025 1330.83L244.863 1463H240.699L259.391 1332.42C255.994 1331.43 253.691 1331.31 250.024 1331.34C250.964 1333.97 249.33 1337.24 247.06 1337.08C244.635 1333.74 245.77 1328.48 246.366 1325.05C249.894 1324.16 251.788 1327.03 253.593 1327.53C258.199 1328.78 260.281 1323.92 260.935 1321.09C262.07 1316.2 259.955 1313.69 255.153 1309.7C261.522 1306.13 263.466 1301.26 260.396 1295.37C265.9 1285.56 265.165 1274.44 267.059 1263.94C268.031 1258.56 268.227 1254.21 268.594 1248.72C268.856 1244.86 272.882 1239.83 267.729 1235.2C269.631 1233.65 271.387 1231.99 271.918 1230.83C272.743 1229.05 271.371 1225.8 270.17 1223.51C278.867 1213.41 271.747 1205.56 277.977 1199.12L292.391 1096.71C290.3 1093.41 295.837 1092.4 295.339 1096.6L281.554 1197.75C281.285 1199.71 282.101 1201.84 282.926 1202.65C284.045 1203.75 286.421 1204.53 288.781 1204.2L302.353 1202.33C308.674 1205.78 315.085 1206.38 321.283 1202.05C327.62 1206.62 334.34 1206.39 341.347 1203.46C348.158 1207.51 355.099 1208.52 361.942 1203.84C367.699 1208.78 374.796 1207.71 382.039 1205.38C386.702 1202.41 381.263 1195.48 382.309 1192.24C383.795 1187.63 385.338 1184.38 385.771 1179.07L388.27 1148.29C388.67 1143.35 386.343 1141.69 389.715 1136.99C392.263 1133.45 390.426 1126.66 389.887 1122.28C392.892 1116.24 394.068 1110.65 390.932 1104.31C395.154 1097.56 396.306 1089.66 393.937 1081.92C397.204 1075.91 397.784 1069.97 395.938 1063.37C400.715 1057.99 397.735 1050.27 399.278 1044.87C401.499 1037.1 400.062 1031.12 400.364 1024.37C400.691 1016.98 400.307 1012.23 398.323 1004.63C396.714 998.481 400.634 988.342 395.84 982.322L309.695 997.672L221.108 997.843L210.459 1205.85L223.795 1207.84L210.173 1211.19L181.371 1456.48C181.02 1459.48 181.445 1461.18 181.232 1463C179.583 1462.48 178.17 1462.98 177.133 1463L185.724 1394.79C185.961 1392.85 185.511 1390.75 184.752 1389.81C184.082 1388.98 182.18 1388.22 180.212 1388.2L145.015 1387.87L126.315 1386.55C120.108 1386.1 116.254 1386.5 110.268 1386.5H79.5306C69.968 1386.5 61.1648 1386.21 51.4552 1384.25L139.127 1384.68L186.451 1385.78L206.768 1208.68L216.87 997.696L69.674 997.067L50.8264 1203.78L34.1184 1381.78L37.4747 1383.95C38.1525 1384.38 36.854 1386.24 34.4613 1386.09L16.8387 1454.76C16.0302 1457.91 15.3688 1460.42 15.4831 1463.01H10.5017L29.5045 1387.12C21.9262 1384.64 16.5202 1386.67 10.3466 1383.68C17.4022 1382.62 23.1675 1385.23 29.9128 1382.31L64.4068 997.459L9.71775 995.997L9.62793 993.113L156.913 994.494L291.762 995.254L323.439 992.337L397.073 978.049L395.023 957.347C394.762 954.684 392.598 951.024 396.003 946.874L400.568 977.167L432.866 976.93L446.422 975.247C455.176 976.979 462.003 975.745 470.373 975.345C476.865 975.034 483.276 975.402 490.274 975.304L510.493 975.026L530.533 974.634L553.399 974.078C561.932 973.874 568.653 972.829 576.329 971.807C581.205 971.415 587.525 974.364 594.981 972.445L614.204 972.191C618.001 972.142 621.872 973.417 625.318 970.958C630.643 967.151 633.64 958.026 633.395 949.75C638.115 944.922 638.866 937.659 641.112 931.385C643.733 924.065 645.905 917.587 648.02 910.079C650.144 902.547 656.44 895.603 652.904 886.665C657.844 885.072 658.489 881.944 659.461 878.406L663.381 864.036C666.843 857.844 667.627 852.86 669.253 845.949C670.665 839.92 676.569 834.789 674.683 826.016L388.613 841.48C385.028 841.676 384.35 846.325 384.669 848.931L394.411 929.408C394.934 933.689 395.807 937.128 393.08 940.674L391.634 932.61L381.41 846.521C381.067 843.604 378.324 841.897 375.269 841.064L380.128 836.415L349.252 587.484C345.193 586.291 342.221 586.88 339.738 584.347C342.327 582.525 344.728 582.828 348.182 581.978L339.452 508.42C339.183 506.117 335.255 505.365 334.373 504.924L337.876 498.045L248.105 373.772L14.5766 378.216L13.8008 375.365L244.961 370.716C248.595 370.528 251.429 371.386 253.511 374.286L342.825 498.233L618.647 355.693C611.73 347.482 603.964 344.076 601.767 335.49L623.465 353.381L783.547 270.657C785.131 268.639 779.17 264.571 779.259 263.345L779.659 257.896L775.021 254.13C773.641 253.011 772.833 252.463 773.11 250.748C773.225 250.021 773.176 249.122 774.474 249.62C779.594 251.565 783.138 247.366 791.174 251.165L785.523 242.799L792.529 243.436L795.477 240.356C798.907 241.083 801.921 243.804 803.603 247.562C797.935 248.085 794.922 252.684 790.888 255.347C788.724 256.777 784.298 255.837 781.489 260.698L789.777 267.634L913.871 203.659L897.424 180.695C896.681 179.657 899.662 177.754 901.026 179.527L917.799 201.347L966.837 176.904L968.544 178.416L920.29 204.713L1027.64 348.332C1029.52 350.848 1030.25 352.139 1032.83 351.485L1032.8 351.461ZM692.036 383.934C694.911 381.655 697.679 379.106 701.076 380.046C704.13 380.895 706.474 383.64 709.153 387.161L885.632 377.611L787.777 272.552L626.021 356.273L655.909 385.536C666.288 388.542 689.031 386.303 692.036 383.926V383.934ZM654.513 437.077C656.464 431.252 657.73 423.009 653.647 418.736C651.908 416.923 646.942 416.326 645.579 414.202C644.607 415.656 641.716 420.672 639.005 418.965C636.024 417.086 634.13 409.023 636.351 405.943C637.69 404.088 641.585 407.593 641.643 409.57C644.011 406.139 646.346 402.822 650.111 404.276C652.357 405.142 650.879 410.844 654.006 413.818C655.166 405.6 656.497 392.667 649.531 385.707L622.027 358.225L350.003 498.952C346.23 499.311 343.135 502.489 343.585 506.215L352.91 582.836L661.045 575.516C665.39 568.621 663.136 561.121 659.494 554.855C662.94 546.727 662.417 538.753 659.077 530.952C662.107 521.663 660.964 512.399 657.599 503.682C660.735 495.741 660.27 487.662 654.806 481.404C659.87 475.342 658.955 467.671 655.362 461.381C657.918 453.399 657.812 445.761 654.496 437.085L654.513 437.077ZM665.717 482.335C662.769 490.358 664.034 497.71 666.974 504.769C664.059 514.041 664.884 523.615 668.861 532.504C665.692 539.775 665.913 547.438 669.612 554.177C667.162 561.007 667.007 568.049 669.947 575.148L804.869 571.635L870.035 570.157L892.32 569.422L886.849 381.01L708.475 390.217C706.392 395.47 702.832 397.455 698.937 397.634C693.955 397.863 692.69 393.517 689.448 390.552C686.426 387.79 666.215 388.011 661.282 394.416C658.988 397.389 658.138 400.878 660.384 404.864C664.092 399.946 668.232 400.992 671.98 402.601C674.332 403.615 677.378 409.595 674.838 411.22C670.241 413.116 667.693 414.692 664.255 417.837C658.171 423.409 659.518 432.788 665.521 437.877C660.18 444.078 660.703 452.116 664.884 458.824C662.515 466.209 662.001 474.019 665.725 482.319L665.717 482.335ZM679.779 748.381C675.312 755.472 678.415 762.155 678.676 768.405L679.542 789.433C679.82 796.238 679.24 801.981 683.184 807.087C681.935 810.829 678.154 816.792 682.024 821.89L689.407 823.81L874.698 907.252L900.519 850.173L892.508 572.526L820.311 574.462L670.322 578.171C667.464 586.357 668.705 593.293 672.748 599.583C668.999 606.102 669.302 613.602 671.996 620.995C669.898 628.585 671.931 635.545 672.347 642.783C672.805 650.658 670.641 658.632 674.961 666.213C672.184 673.378 673.18 680.542 675.72 687.674C673.654 693.115 673.85 698.482 677.933 703C673.907 710.753 674.381 719.135 679.142 725.956C675.165 733.186 675.802 740.914 679.771 748.381H679.779ZM627.327 804.17L637.592 809.285C637.208 809.472 636.531 810.273 636.465 810.869L539.9 769.769L367.365 696.685L383.46 838.596L658.694 823.769C663.773 819.954 667.685 821.482 673.548 822.829C676.169 823.434 677.451 817.568 676.921 815.314C674.25 804.072 677.419 796.442 672.094 788.501C675.181 781.517 675.687 774.793 671.294 768.11C674.789 761.583 674.226 754.843 670.976 748.144C673.401 740.653 673.238 733.35 669.163 726.487C672.78 718.016 670.608 711.153 669.432 702.992C668.795 698.58 672.437 692.674 666.149 688.548C671 680.681 669.849 672.332 666.035 664.489C669.007 657.709 668.722 650.626 664.916 643.87C667.848 636.248 668.305 628.405 662.564 621.739C667.211 615.309 666.688 607.377 662.287 600.751C664.99 593.505 665.7 585.891 662.336 578.408L353.36 586.153L366.466 693.238L627.352 804.146L627.327 804.17ZM422.519 985.132C415.896 980.189 405.46 981.219 403.337 988.636L404.839 1007.02L406.652 1027.15L404.872 1046.62L402.83 1064.47C402.079 1071.04 401.385 1077.83 400.87 1084.41L399.392 1103.25C397.767 1124.01 394.55 1143.8 393.464 1164.51C393.243 1168.71 389.797 1172.57 396.706 1176.45C392.614 1178.05 390.728 1180.4 390.475 1183.77L388.58 1208.54L620.362 1220.92L782.452 1226.11L869.577 931.965L867.822 930.723L850.24 968.376C848.019 970.035 842.302 970.476 840.628 968.891C843.25 968.156 847.488 968.344 848.705 965.631L873.571 909.981L684.531 825.297C683.396 830.051 687.112 830.076 688.574 831.334C687.161 831.538 682.531 831.023 681.902 832.821L632.815 972.747L660.841 973.36C660.817 973.678 660.621 974.217 660 974.511L637.437 974.552C633.55 974.552 629.475 977.248 628.797 981.619L605.499 1132.09C600.779 1127.98 604.47 1123.13 605.148 1118.51L625.923 977.796C621.276 976.366 618.418 977.444 615.405 981.488C610.44 974.585 604.143 978.923 598.901 978.506C583.932 977.322 566.718 979.609 551.218 979.193C544.563 979.013 539.712 980.165 533.506 980.769C526.532 981.447 517.908 977.24 510.559 982.093C503.658 978.49 496.725 979.536 491.278 983.98C485.913 979.095 479.217 979.323 473.991 983.906C465.294 980.598 455.935 980.451 446.969 983.179C438.615 980.377 430.702 981.545 422.503 985.14L422.519 985.132ZM951.419 1140.26L988.469 979.152L866.981 972.175C866.425 971.293 866.327 970.386 866.376 969.781L987.971 976.341L1013.29 902.784L879.491 909.973L787.091 1225.71L835.941 1227.37L869.667 1228.34L951.419 1140.25V1140.26ZM865.617 1232.41L817.322 1230.4L786.282 1229.2L751.037 1348.54C750.637 1349.9 750.269 1351.36 750.278 1352.05C750.286 1352.73 752.376 1353.94 752.98 1353.63C753.585 1353.32 754.508 1352.24 755.479 1351.2L865.617 1232.41ZM749.91 1354.45L749.134 1355.22L749.91 1356L750.686 1355.22L749.91 1354.45Z" fill="#8DC0FF"/>
<path d="M1032.8 1092.37C1031.87 1092.05 1030.23 1092.44 1029.91 1094.08L1020.97 1141L969.083 1222.91L1032.8 1243.2V1245.89L967.123 1225.44C959.463 1240.07 949.868 1250.55 938.459 1261.79L822.197 1376.38C822.728 1378.4 824.206 1379.14 825.774 1380.45L817.69 1382.38L784.11 1433.59L787.548 1463L784.135 1462.98C784.747 1453.78 779.374 1442.09 782.207 1432.41L814.292 1379.72L934.58 1261.06C945.67 1250.12 955.461 1240.3 961.455 1225.93C950.554 1224.92 940.362 1230.84 931.69 1224.5C943.612 1223.84 954.081 1224.74 965.089 1221.74L1017.08 1139.73L1032.79 1060.27L1032.8 1092.38V1092.37Z" fill="#8DC0FF"/>
<path d="M248.448 210.546C255.488 214.263 266.831 195.653 271.583 205.424L258.044 214.574C251.96 218.683 245.484 216.199 240.935 211.126C226.195 194.697 221.859 190.335 229.74 166.333C233.112 156.056 242.716 152.331 252.678 156.293C259.244 158.907 267.402 162.011 271.82 168.04C266.773 174.723 261.833 161.121 248.35 160.059C234.247 158.94 228.662 184.061 234.443 194.493C237.449 199.926 242.177 207.229 248.457 210.546H248.448Z" fill="#8DC0FF"/>
<path d="M714.289 294.618C707.96 291.236 705.992 286.563 703.387 281.719C706.327 281.694 708.499 281.792 709.528 281.326C710.867 280.722 711.17 277.225 709.937 274.407C712.787 273.206 714.861 275.395 717.645 276.082C720.904 270.935 728.343 270.183 730.532 274.644L732.777 279.235C733.226 280.142 737.261 278.018 736.477 276.825C734.729 274.154 730.654 269.816 733.039 266.507C735.66 262.863 743.059 264.154 745.361 267.904L747.697 262.022C748.505 259.988 750.678 258.771 753.977 260.021C753.152 262.561 751.633 264.211 752.156 267.839C755.439 266.736 757.978 265.543 760.787 267.071C758.419 271 753.952 271.025 750.416 271.629C748.522 278.067 744.202 279.48 738.551 281.784C733.994 283.647 728.727 287.159 723.133 286.155C722.072 285.967 719.908 289.414 718.985 288.924C718.005 288.401 716.886 286.155 713.922 285.664C712.354 288.23 715.31 290.386 714.281 294.634L714.289 294.618Z" fill="#8DC0FF"/>
<path d="M469.124 228.682C462.705 221.999 466.127 211.126 467.964 204.141C469.989 196.413 469.908 190.106 473.893 182.892C483.913 179.11 498.146 185.31 499.02 197.556C499.657 206.428 500.735 218.25 495.917 226.027C491.434 233.273 474.252 234.017 469.124 228.674V228.682ZM494.039 223.249C496.064 208.046 497.95 192.034 488.314 187.533C485.578 186.258 478.417 183.848 476.743 187.688C470.741 201.445 466.666 225.913 476.228 228.167C482.475 229.646 488.657 226.542 494.039 223.249Z" fill="#8DC0FF"/>
<path d="M33.0649 422.356C35.2208 430.893 27.1608 438.94 24.1474 439.299C20.8075 439.699 17.3205 438.784 15.0748 435.615C10.4854 429.128 10.5915 419.488 16.4549 413.753C19.4927 410.78 24.1883 411.425 27.4466 413.149C30.7049 414.873 32.0115 418.238 33.0567 422.356H33.0649ZM27.1689 422.691C26.7443 418.532 24.7599 416.417 21.3873 417.242C19.2314 417.773 18.0718 419.374 17.3368 422.732C16.4712 426.694 18.5944 434.25 23.4288 433.458C28.2632 432.666 27.4711 425.681 27.1689 422.683V422.691Z" fill="#8DC0FF"/>
<path d="M110.587 438.686C104.854 440.369 99.5704 437.584 99.5214 431.293C107.108 434.708 112.293 434.512 111.632 429.79C111.06 425.697 103.825 425.166 99.0233 427.339C98.8355 423.083 97.9208 416.621 101.293 413.018C103.833 410.306 111.673 411.515 114.408 413.443C115.617 414.293 114.106 417.103 113.281 416.907C108.365 415.73 102.461 417.568 103.556 420.109C104.65 422.65 115.797 419.742 117.561 428.426C118.377 432.445 116.082 437.077 110.587 438.686Z" fill="#8DC0FF"/>
<path d="M81.9886 438.277C73.5203 438.539 71.5114 430.557 71.9687 424.144C72.426 417.731 74.4675 412.585 80.437 411.898C86.4719 411.196 90.4733 414.39 92.2698 420.68C94.4257 428.205 91.0368 438 81.9886 438.277ZM80.5922 434.274C84.9611 434.462 87.8111 429.07 87.8928 426.326C87.9989 422.821 85.745 420.125 82.1029 416.677C73.8796 422.535 77.1869 434.119 80.5922 434.266V434.274Z" fill="#8DC0FF"/>
<path d="M820.523 227.816C820.98 225.839 821.568 222.343 823.324 221.656C826.983 220.227 833.483 223.421 834.528 226.272C835.369 228.576 831.703 229.156 831.033 230.202C829.269 232.947 828.64 236.59 824.81 236.958C821.217 237.301 818.694 237.023 816.906 232.015C816.522 230.937 814.774 229.597 813.623 229.916C806.747 231.811 818.318 237.235 817.167 242.815C811.932 240.348 809.172 236.598 805.408 232.881C806.984 228.045 813.59 223.829 816.122 224.638C817.526 225.088 818.498 226.288 819.38 228.404L820.54 227.808L820.523 227.816ZM822.401 229.36L820.221 229.671C820.082 233.143 824.051 231.427 822.401 229.36Z" fill="#8DC0FF"/>
<path d="M37.687 438.572C39.1243 429.161 51.5124 427.388 49.7322 417.642C45.8369 417.609 42.7501 418.622 38.3077 421.016C37.2869 418.54 38.8874 415.411 40.5942 413.802C44.8488 409.807 55.1137 413.443 55.3015 418.009C55.5873 424.986 50.6713 428.417 45.4857 433.703C51.1857 434.65 54.8605 433.188 56.4447 437.869C50.2711 439.34 45.7144 438.735 37.687 438.564V438.572Z" fill="#8DC0FF"/>
<path d="M854.674 213.904L840.392 222.637C836.921 216.543 850.999 216.674 846.974 208.243L864.335 206.977C864.996 212.058 862.391 216.559 857.728 219.541L854.674 213.904Z" fill="#8DC0FF"/>
<path d="M773.731 262.307C772.89 265.869 768.039 265.085 765.254 266.833C761.678 263.827 759.277 260.624 756.925 256.09C763.686 253.125 763.262 246.018 766.781 247.888C769.378 249.269 765.083 255.388 767.206 258.451C768.015 259.628 770.456 260.567 773.739 262.307H773.731Z" fill="#8DC0FF"/>
<path d="M295.249 1081.47C294.506 1073.59 296.768 1065.8 298.54 1058.21C298.891 1058.23 299.52 1058.81 299.593 1059.08L298.025 1080.84C296.849 1082.22 295.412 1081.5 295.249 1081.48V1081.47Z" fill="#8DC0FF"/>
<path d="M299.381 1056.56C297.593 1056.99 296.629 1050.68 299.732 1050.44C301.455 1050.31 302.843 1055.72 299.381 1056.56Z" fill="#8DC0FF"/>
<path d="M562.888 1443.26C558.127 1453.67 562.022 1460.84 556.918 1461.44C556.918 1460.36 557.147 1459.16 556.714 1457.8C556.412 1456.84 554.975 1456.31 553.823 1456.79L554.003 1454.79C555.375 1454.65 557.449 1453.62 557.743 1451.45L559.564 1438.11C560.062 1434.47 558.723 1430.62 563.263 1428.5C562.863 1434.53 561.442 1438.39 562.888 1443.25V1443.26Z" fill="#8DC0FF"/>
<path d="M454.416 1261.77C455.461 1262.71 455.755 1264.5 454.718 1266.2L450.064 1273.83L448.953 1277.76C445.017 1280.36 442.42 1283.88 439.121 1287.78L423.189 1306.63L467.074 1295.95C467.621 1295.82 468.201 1295.64 468.789 1295.71C471.99 1296.06 474.979 1294.4 478.033 1294.42L484.002 1294.46L499.616 1291.69L505.757 1290.95C506.884 1290.81 508.011 1290.5 509.024 1290.03L511.963 1289.74L518.603 1288.75L539.941 1287.22L502.727 1296.74L501.037 1297.01L481.242 1300.24C464.812 1302.93 448.879 1305.06 433.454 1310.4C446.691 1314.83 457.34 1319.77 463.538 1331.12C457.152 1332 455.445 1326.65 451.272 1326.34C451.632 1321.05 445.711 1321.44 442.249 1320.36C440.942 1315.25 423.654 1311.82 413.61 1313.55C411.184 1310.76 406.317 1307.27 406.636 1303.33C407.028 1298.4 411.895 1293.64 415.545 1290.51L447.312 1263.24C448.945 1261.84 452.334 1262.1 454.416 1261.8V1261.77ZM436.026 1280.98C426.39 1286.83 419.498 1294.57 412.156 1303.24C413.283 1305.41 415.21 1305.14 416.28 1303.9C422.968 1296.09 430.718 1290.52 436.034 1280.98H436.026Z" fill="#8DC0FF"/>
<path d="M561.524 1427.52C560.609 1419.28 564.586 1412.18 562.692 1404.18C563.329 1404.04 564.791 1403.83 565.395 1404.12C565.95 1404.39 566.587 1405.83 566.44 1407.12L564.627 1422.73C564.488 1423.9 564.864 1425.47 564.546 1426.33C564.203 1427.23 562.896 1427.68 561.532 1427.51L561.524 1427.52Z" fill="#8DC0FF"/>
<path d="M564.668 1397.88L564.717 1393.24C567.935 1384.81 565.166 1375.7 569.543 1383.31L567.151 1403.22C563.419 1402.07 564.513 1399.31 564.676 1397.88H564.668Z" fill="#8DC0FF"/>
<path d="M827.987 1297.74C828.273 1298.96 829.138 1298.84 830.372 1298.68C829.277 1302.39 828.836 1308.23 824.696 1310.37C822.769 1311.36 819.927 1311.18 819.29 1312.29C818.776 1313.18 818.588 1315.31 818.514 1317.8L806.183 1314.31C808.886 1311.8 811.287 1312.99 814.047 1312.68C813.884 1309.88 814.284 1307.01 815.485 1306.81L821.462 1305.82C819.813 1303.94 818.09 1299.3 820.801 1297.42L827.979 1297.73L827.987 1297.74Z" fill="#8DC0FF"/>
<path d="M830.372 1298.68C830.894 1297.84 829.931 1296.31 827.987 1297.74C827.342 1294.99 826.778 1292.56 827.464 1290.89C828.551 1288.25 832.103 1286.49 833.899 1288.01C834.414 1288.57 833.099 1290.73 833.442 1291.43C833.916 1292.4 836.529 1293.18 837.672 1293.81C839.036 1295.02 838.252 1297.7 837.158 1297.84L830.372 1298.68Z" fill="#8DC0FF"/>
<path d="M849.227 1277.65C847.145 1277.12 845.136 1283.26 848.729 1285.61C844.965 1287.14 838.44 1284.86 837.174 1280.19C836.243 1276.76 839.02 1274.58 841.682 1274.49C843.748 1274.44 845.495 1274.97 848.811 1277.25C848.19 1271.14 849.578 1268.02 853.131 1264.37L857.271 1256.02L859.223 1263.55C859.892 1266.12 864.392 1265.72 866.458 1265.92C867.634 1267.7 866.311 1269.66 865.478 1270.11C863.935 1270.96 851.048 1268.83 856.814 1272.42L860.015 1274.41C858.48 1277.66 855.091 1279.1 849.236 1277.64L849.227 1277.65Z" fill="#8DC0FF"/>
<path d="M870.909 1262.48C868.165 1263.17 864.098 1259.7 862.546 1257.57C865.756 1256.55 867.071 1254.63 868.173 1251.8C871.889 1253.07 874.085 1253.89 877.188 1256.94C874.134 1257.95 872.967 1259.18 870.909 1262.48Z" fill="#8DC0FF"/>
<path d="M908.498 1214.29C906.864 1214.89 903.206 1212.5 901.442 1211.62C902.634 1208.35 903.386 1206.33 905.942 1203.2C907.616 1207.23 909.445 1208.82 913.544 1208.97C911.976 1210.78 910.988 1212.61 908.506 1214.29H908.498Z" fill="#8DC0FF"/>
<path d="M918.738 1204.93C916.419 1206.15 911.846 1203.72 910.139 1201.5C912.164 1200.96 913.92 1200.53 914.949 1199.87C915.978 1199.2 915.823 1196.14 916.28 1195.35C918.689 1195.11 921.065 1196.14 922.903 1197.79C920.984 1199.65 920.012 1201.48 918.73 1204.93H918.738Z" fill="#8DC0FF"/>
<path d="M888.213 1238.91C888.115 1239.81 884.767 1239.88 884.081 1240.5C883.215 1241.28 883.019 1242.67 882.407 1244.57C881.492 1247.41 878.83 1245.34 877.736 1243.74C876.102 1241.35 876.527 1240.3 879.5 1238.08C880.765 1237.14 881.745 1235.37 883.264 1235.28C884.644 1235.2 888.458 1236.53 888.205 1238.9L888.213 1238.91Z" fill="#8DC0FF"/>
<path d="M322.761 1333.26C324.99 1335.54 328.444 1335.4 329.302 1339.78C323.929 1336.87 320.352 1335.4 314.872 1338.97C313.86 1332.57 313.223 1327.43 314.521 1320.68C318.563 1323.29 317.518 1326.42 317.6 1330.12C322.94 1330.03 324.672 1327.91 328.608 1326.55C328.64 1330.15 327.048 1330.93 322.753 1333.27L322.761 1333.26Z" fill="#8DC0FF"/>
<path d="M309.278 1337.42L306.371 1332.27C304.191 1328.4 300.189 1341.69 298.156 1338.49C295.437 1334.23 295.192 1328.57 294.783 1324.04C297.192 1323.37 298.172 1324.49 298.417 1326.01C299.52 1332.63 307.588 1327.33 310.773 1331.54C311.704 1332.77 313.051 1337.12 309.278 1337.42Z" fill="#8DC0FF"/>
<path d="M349.236 1340.49L343.601 1337.38C341.919 1336.46 339.314 1339.37 336.333 1340.9C335.647 1336.25 339.387 1330.07 344.524 1329.71C349.701 1329.35 351.971 1337.49 349.236 1340.49Z" fill="#8DC0FF"/>
<path d="M287.916 1330.76C288.585 1332.58 291.688 1333.84 291.631 1335.32C291.566 1336.96 290.365 1338.31 287.042 1338.48L283.735 1338.64C283.163 1338.66 282.289 1337.69 282.493 1336.94C282.714 1336.12 285.784 1335.23 285.417 1334.58C284.184 1333.15 281.799 1331.48 281.677 1330.06C281.44 1327.32 283.841 1326.58 287.238 1326.55L290.88 1326.52C291.435 1326.52 291.403 1327.9 291.231 1328.51C291.011 1329.33 287.605 1329.93 287.916 1330.76Z" fill="#8DC0FF"/>
<path d="M647.604 295.663L628.609 262.381L597.782 196.151C614.106 217.547 623.056 240.928 635.322 263.361L648.772 286.979C651.564 282.282 648.731 275.95 650.903 270.877L657.714 254.955C658.228 253.762 659.339 253.386 660.017 253.354C661.307 253.288 662.475 254.587 661.691 256.442L655.378 271.343C652.569 282.854 654.3 294.814 657.91 305.99C656.154 308.963 654.913 312.925 652.25 314.813C646.036 319.216 614.686 297.689 601.244 288.164C598.525 286.236 595.928 282.127 598.607 279.619C614.915 282.935 630.545 289.969 644.942 297.322L647.612 295.68L647.604 295.663ZM622.795 293.752L622.019 294.528L622.795 295.304L623.571 294.528L622.795 293.752ZM650.364 308.547C642.459 300.835 633.901 297.779 623.897 295.345C631.59 301.709 640.573 308.105 650.364 308.547ZM648.461 297.003L646.33 297.902C647.04 298.76 648.461 298.457 648.461 297.003Z" fill="#8DC0FF"/>
<path d="M763.466 591.487C760.387 593.685 756.966 596.218 753.315 594.665C749.869 593.203 750.359 587.002 752.989 585.393C756.231 583.408 760.036 583.686 762.878 587.37C763.54 582.624 764.928 580.924 767.827 579.936C769.762 579.274 775.307 578.996 775.037 581.847C774.645 585.949 775.454 589.755 776.54 592.639C773.47 595.817 766.969 596.046 763.466 591.487Z" fill="#8DC0FF"/>
<path d="M712.542 595.261C712.06 596.397 708.72 595.474 708.459 594.109C707.993 591.65 707.454 589.829 706.294 587.386C705.388 591.626 704.71 593.758 702.285 594.984C699.859 596.209 696.519 596.062 695.531 593.342C694.494 590.482 694.372 587.337 697.173 585.376C698.953 584.135 702.375 583.62 705.168 587.133C706.49 583.8 707.715 581.21 711.186 580.981C714.052 580.793 719.344 584.143 717.302 587.263C715.824 589.526 713.268 591.389 712.542 595.261Z" fill="#8DC0FF"/>
<path d="M723.639 596.618C719.156 594.551 720.267 586.226 724.726 584.258C727.894 582.861 730.622 584.021 732.132 585.998C733.88 588.293 734.272 591.61 732.794 594.543C731.814 596.487 727.878 598.562 723.639 596.61V596.618Z" fill="#8DC0FF"/>
<path d="M791.631 591.708C788.177 591.185 784.943 591.904 781.113 594.6C779.047 590.531 779.798 583.644 783.416 580.916C785.98 578.98 789.475 581.545 790.357 583.481C791.345 585.646 792.154 587.901 792.039 590.474L793.126 591.463C797.699 590.057 794.808 583.939 796.392 581.831C798.728 578.718 804.999 581.627 805.849 584.968C806.551 587.721 808.682 591.814 805.652 594.207C803.57 592.083 802.223 590.531 800.941 590.147C799.111 589.6 796.596 596.863 793.575 594.698C793.052 594.322 793.052 593.137 793.289 592.451L791.631 591.708Z" fill="#8DC0FF"/>
<path d="M840.8 594.64C839.526 595.564 837.476 593.382 836.586 593.105C835.296 592.696 833.303 593.922 830.502 595.065C830.829 590.041 833.581 584.976 838.448 582.264C840.588 585.94 842.294 590.221 840.8 594.649V594.64Z" fill="#8DC0FF"/>
<path d="M746.815 585.434C746.464 588.669 746.537 592.068 745.215 593.35C743.638 594.878 739.09 595.246 736.885 594.559C738.306 590.818 737.359 589.347 735.178 585.107C739.792 585.982 743.002 586.284 746.815 585.434Z" fill="#8DC0FF"/>
<path d="M685.013 586.986C682.514 587.893 686.777 593.734 685.438 595.066C682.89 597.607 679.787 592.55 678.415 584.838C683.674 583.212 687.92 581.733 691.481 584.642L685.013 586.986Z" fill="#8DC0FF"/>
<path d="M826.689 593.122C826.452 593.898 823.839 593.988 823.259 593.661C824.598 588.261 822.459 585.761 819.306 582.55L830.094 581.979L826.697 593.122H826.689Z" fill="#8DC0FF"/>
<path d="M601.588 420.288L601.955 415.64C602.004 415.027 600.706 414.635 599.717 414.904C598.37 415.264 597.774 416.007 597.406 418.115C596.786 421.701 593.193 421.358 590.408 420.909C587.631 420.46 587.043 418.94 585.067 415.501C583.083 412.045 573.308 410.648 571.136 414.537C569.274 417.87 566.84 420.942 563.819 419.046C567.175 407.021 573.569 395.755 581.262 398.909C587.631 401.523 587.084 411.179 590.432 412.07C592.735 412.682 596.059 411.155 595.259 407.511C595.014 406.4 595.487 405.158 595.83 404.595C596.386 403.68 598.541 402.757 600.501 403.533C607.982 406.49 610.423 417.551 605.311 422.094C604.405 422.902 601.367 422.935 601.571 420.288H601.588ZM581.401 408.99C583.499 407.944 580.984 401.245 577.906 402.601C575.701 403.573 574.288 406.302 574.427 407.625C574.566 408.949 578.175 410.591 581.401 408.99Z" fill="#8DC0FF"/>
<path d="M629.058 420.804C626.462 421.931 624.943 419.774 625.351 417.748C626.094 414.096 624.469 411.768 621.072 411.997C619.161 412.128 614.898 411.523 616.115 415.714L616.923 418.492C617.25 419.611 613.371 420.885 612.53 419.17C610.75 415.526 609.313 408.182 611.395 404.211C613.535 402.145 618.402 405.862 618.981 408.386L627.817 405.829C630.937 409.84 631.794 416.204 629.058 420.795V420.804Z" fill="#8DC0FF"/>
<path d="M705.241 408.222C706.286 410.763 709.692 415.362 706.041 418.867C703.003 416.203 703.11 413.622 701.705 411.081C699.296 413.499 699.402 416.13 697.998 416.841C692.526 419.61 687.202 408.075 681.706 417.012C677.835 417.429 678.211 413.034 678.423 411.032C678.791 407.65 679.975 403.949 684.042 403.9C688.827 403.843 691.873 408.418 693.996 411.743L697.377 407.103C698.365 405.747 701.035 406.131 703.191 407.021C708.32 402.928 715.849 402.201 721.451 406.22C716.306 408.23 715.563 411.506 716.747 416.571C717.098 418.058 713.807 418.875 712.934 417.584C712.362 416.751 712.337 414.888 712.052 413.132L711.276 408.336C711.031 406.8 706.907 405.689 705.233 408.214L705.241 408.222Z" fill="#8DC0FF"/>
<path d="M732.14 414.21C734.566 413.442 736.959 412.617 738.992 414.496C736.387 418.156 732.255 417.617 729.258 416.71C727.069 416.048 724.187 412.217 725.215 409.554C727.273 404.219 732.696 400.412 737.489 403.067C739.302 404.064 738.992 406.988 737.759 408.606C736.648 410.077 734.419 409.938 732.132 414.21H732.14Z" fill="#8DC0FF"/>
<path d="M789.214 417.144C786.274 417.479 782.542 414.464 778.206 416.604C776.556 412.307 776.238 408.974 776.213 404.089C784.355 404.832 789.165 397.725 788.569 402.627C788.226 405.47 784.045 406.164 783.775 409.244C783.506 412.324 793.844 416.621 789.214 417.144Z" fill="#8DC0FF"/>
<path d="M800.059 413.492C799.299 413.337 795.796 419.08 793.934 417.013C791.729 414.562 793.534 404.497 799.626 404.359C804.142 404.252 806.845 408.247 806.739 413.141C806.714 414.309 806.869 415.706 806.379 416.67C805.971 417.462 804.068 417.609 803.219 417.07C802.5 416.605 802.843 414.08 800.059 413.508V413.492Z" fill="#8DC0FF"/>
<path d="M824.606 417.83C820.564 418.5 820.262 415.264 819.184 414.815C817.355 414.047 814.946 415.632 811.589 416.735C813.133 411.89 813.966 408.525 810.993 403.909C813.157 401.76 817.526 401.483 819.053 403.558C822.075 407.667 823.341 412.479 824.614 417.821L824.606 417.83Z" fill="#8DC0FF"/>
<path d="M766.471 413.018C768.186 412.291 771.208 407.667 772.931 410.6C774.441 413.173 770.824 416.269 769.044 416.825C766.52 417.617 762.968 416.187 761.033 413.663C758.746 410.689 758.868 407.528 760.404 404.93C761.939 402.332 768.97 402.03 769.395 405.134C768.464 406.368 765.263 406.923 764.283 407.838C762.609 409.399 764.773 413.737 766.471 413.018Z" fill="#8DC0FF"/>
<path d="M755.373 415.362C751.649 414.684 747.762 413.932 743.099 414.831C741.082 410.885 740.854 407.176 742.552 402.675C745.541 403.688 746.358 405.387 747.869 407.282C751.649 407.871 755.292 407.96 755.381 415.354L755.373 415.362Z" fill="#8DC0FF"/>
<path d="M499.289 850.712C501.2 849.005 503.275 849.985 506.018 850.067L518.145 850.418C527.398 850.688 536.56 850.524 546.212 848.539C548.932 847.984 551.635 849.503 553.015 850.598C554.958 852.134 555.326 855.393 555.187 858.122C554.795 865.818 563.966 861.251 568.294 864.225C569.805 865.262 569.6 870.973 571.405 871.128L597.545 873.35L601.506 931.541L574.288 934.531C574.002 936.443 574.541 941.124 573.071 941.589L566.13 943.803L565.55 966.416L487.253 968.001L489.049 944.955L478.098 943.534C478.09 939.923 477.812 936.9 476.318 935.021C472.341 930.021 459.144 936.206 447.491 932.17L440.917 877.353L485.962 875.98L487.236 864.396C490.568 864.919 495.941 864.592 496.848 861.782C498.089 857.95 497.493 853.416 499.289 850.712ZM561.034 963.23L560.062 940.878L569.127 938.689C568.433 936.761 567.804 933.681 568.8 931.957L596.59 928.33L592.939 875.629L571.046 875.049C566.914 874.943 564.84 870.442 564.292 866.455L551.21 865.573C550.802 861.112 551.153 857.387 549.397 852.983L503.168 853.882C501.715 857.844 502.107 861.349 501.805 865.213L492.095 868.187L490.241 878.603L445.605 880.269L452.072 932.268L481.822 931.222L483.259 939.849L494.578 942.267L492.495 964.692L561.026 963.238L561.034 963.23Z" fill="#8DC0FF"/>
<path d="M578.159 892.286C576.468 893.152 575.178 894.655 573.43 896.33L554.068 896.706C550.663 896.771 548.744 893.863 549.062 891.535C549.438 888.822 551.667 885.881 556.151 888.226C555.146 888.978 553.178 892.27 554.003 893.283C555.62 895.276 559.458 894.9 560.748 893.928C561.932 893.046 562.463 890.219 561.573 887.654C563.99 885.881 566.105 884.55 569.796 884.746C566.987 888.406 565.607 891.886 569.315 895.088C572.181 891.755 569.78 885.947 573.471 884.762C574.353 884.484 575.79 886.216 575.472 888.308C579.824 888.79 584.471 888.291 588.946 887.703C589.902 889.884 590.016 892.989 589.395 894.451C589.118 895.105 577.26 899.189 578.159 892.278V892.286Z" fill="#8DC0FF"/>
<path d="M521.934 892.589L520.089 896.069C520.187 895.881 513.099 894.411 511.204 892.319C510.404 891.429 510.445 888.308 511.62 887.981C515.753 886.846 519.648 888.21 520.685 891.846C523.314 889.632 523.339 887.892 524.441 886.217C526.107 883.693 529.782 883.913 531.121 886.258C532.101 887.965 532.003 891.102 528.671 892.965C529.766 894.484 531.056 895.024 533.784 896.126C528.794 898.136 524.825 897.254 521.934 892.581V892.589Z" fill="#8DC0FF"/>
<path d="M473.411 887.336C472.994 889.011 470.373 889.574 469.532 889.599C468.282 889.631 468.152 892.278 468.944 892.769C469.662 893.21 472.08 894.353 471.794 895.611C470.675 900.513 461.496 891.273 452.922 895.554C451.052 893.054 449.557 888.488 451.215 886.078C453.183 885.686 455.208 888.594 455.053 891.265C461.276 888.398 469.679 884.64 473.411 887.336Z" fill="#8DC0FF"/>
<path d="M494.226 893.994C493.696 895.522 487.465 897.401 486.566 896.739C485.717 896.11 485.121 894.501 484.631 892.254C483.104 894.729 478.556 898.169 475.199 896.273C473.141 895.113 475.183 887.973 477.535 887.491C480.638 886.854 482.532 890.097 483.676 890.963C485.317 890.4 486.469 888.749 487.032 888.014C488.085 886.625 491.523 888.365 492.838 888.382C496.431 887.05 502.515 885.833 505.537 888.357C504.157 891.127 504.883 893.643 507.545 894.836C501.543 897.286 497.264 894.084 495.794 888.97C492.936 891.012 494.512 893.185 494.226 893.994Z" fill="#8DC0FF"/>
<path d="M543.999 885.727L547.037 895.669C548.042 898.953 541.754 898.872 539.9 897.671C536.552 895.481 535.686 892.173 537.026 887.925C537.589 886.144 538.691 884.755 539.933 884.02C540.847 883.48 543.207 883.162 543.991 885.727H543.999Z" fill="#8DC0FF"/>
<path d="M529.21 910.521C526.197 911.101 525.038 911.542 523.6 913.642C519.909 908.184 511.947 907.964 514.617 902.286C519.901 904.974 524.18 904.165 528.484 902.678C529.341 905.979 526.597 906.281 526.532 907.188C526.45 908.307 528.255 909.892 529.21 910.529V910.521Z" fill="#8DC0FF"/>
<path d="M536.682 914.36C533.114 914.663 530.811 905.782 533.922 903.503C537.034 901.224 539.998 903.356 540.815 906.207C541.435 908.364 542.987 913.821 536.682 914.36Z" fill="#8DC0FF"/>
<path d="M550.875 906.942C550.459 910.668 548.254 913.78 545.853 916.231C542.848 913.159 542.48 907.686 544.163 904.344C545.306 902.073 551.243 903.65 550.875 906.95V906.942Z" fill="#8DC0FF"/>
<path d="M508.926 904.394C506.884 904.5 504.965 905.08 504.402 905.978C503.724 907.065 503.462 908.715 504.075 911.607C501.748 911.444 500.163 909.883 500 907.187C499.91 905.733 500.425 903.732 502.76 902.784C504.769 901.975 507.537 901.248 508.934 904.394H508.926Z" fill="#8DC0FF"/>
</svg>
