<svg width="778" height="734" viewBox="0 0 778 734" fill="none" xmlns="http://www.w3.org/2000/svg">
<g clip-path="url(#clip0_483_1945)">
<path d="M513.001 267.607C512.027 268.522 510.769 268.529 509.562 268.628C508.672 268.7 508.148 269.11 507.81 269.913C507.288 271.152 506.439 272.189 505.654 273.273C504.259 275.196 502.424 275.899 500.133 275.602C499.692 275.544 499.26 275.427 498.823 275.346C498.198 275.231 497.782 275.474 497.492 276.051C496.342 278.339 495.116 280.587 494.023 282.9C493.407 284.202 492.951 285.579 492.756 287.038C492.603 288.181 492.558 289.209 493.407 290.159C494.263 291.118 494.377 292.304 494.379 293.59C494.389 296.193 495.437 298.288 497.772 299.708C499.679 300.868 501.337 302.344 502.788 304.078C504.265 305.842 504.501 307.668 503.399 309.628C502.297 311.59 501.536 313.666 501.015 315.842C500.846 316.551 501.191 317.001 501.846 316.867C503.045 316.626 504.25 316.39 505.407 316.007C506.611 315.606 507.793 315.509 509.022 315.756C511.536 316.261 514.067 316.631 516.636 316.733C517.776 316.779 518.782 317.038 519.375 318.262C520.023 319.603 521.271 320.441 522.526 321.164C523.68 321.828 524.876 322.439 526.105 322.949C528.582 323.978 529.099 324.303 528.218 327.572C527.988 328.423 527.586 329.234 527.201 330.035C526.934 330.593 527.063 331.11 527.164 331.655C527.233 332.035 527.473 332.275 527.813 332.232C529.586 332 531.315 332.064 533.084 332.464C534.165 332.709 535.281 332.181 536.246 331.592C537.737 330.681 539.317 330.28 541.034 330.704C541.766 330.885 542.339 330.695 542.874 330.231C544.434 328.88 546.219 328.62 548.185 329.07C549.263 329.316 550.343 329.594 551.486 329.368C551.898 329.288 552.405 329.362 552.794 329.532C556.216 331.026 559.778 330.597 563.307 330.263C566.069 330.001 568.781 329.319 571.608 329.694C572.425 329.803 573.337 329.375 574.179 329.116C576.618 328.367 579.008 327.658 581.646 327.661C584.052 327.665 586.412 327.109 588.715 326.014C591.711 324.589 594.978 323.735 598.122 322.618C599.591 322.097 601.025 321.477 602.513 321.017C604.751 320.323 607.048 319.881 609.385 319.668C615.822 319.084 622.204 318.097 628.573 317.031C631.862 316.48 635.172 315.902 638.059 314.037C638.49 313.76 638.934 313.767 639.257 314.125C639.71 314.63 640.084 315.257 639.622 315.92C638.989 316.831 638.309 317.716 637.581 318.552C635.68 320.73 633.749 322.882 631.82 325.033C628.767 328.438 625.467 331.502 621.598 334.049C618.268 336.239 615.355 339.06 612.285 341.636C611.874 341.981 611.638 342.526 611.3 342.966C609.875 344.822 608.343 346.546 606.333 347.837C604.841 348.797 603.477 349.958 602.081 351.064C595.357 356.379 588.668 361.739 581.906 367.004C580.334 368.229 578.551 369.19 576.823 370.202C575.292 371.098 573.78 372.081 572.241 372.886C570.845 373.613 569.158 374.033 567.582 374.512C565.742 375.069 564.599 376.207 563.665 377.844C558.402 387.074 554.117 396.686 551.496 407.03C549.716 414.057 548.528 421.198 547.026 428.277C545.707 434.486 544.533 440.725 543.325 446.958C542.393 451.772 541.693 456.621 541.168 461.496C541.001 463.047 540.804 464.594 540.611 466.141C540.452 467.416 539.86 468.422 538.843 469.237C537.017 470.701 535.252 472.237 533.459 473.738C527.532 478.705 522.446 484.407 518.288 490.938C517.626 491.98 517.059 493.046 516.578 494.176C516.31 494.803 515.44 494.875 514.886 494.389C514.262 493.839 514.02 493.18 514.038 492.324C514.076 490.434 514.081 488.535 513.966 486.647C513.552 479.962 512.708 473.34 510.622 466.94C509.175 462.5 509.054 462.858 505.078 462.623C503.502 462.531 502.008 462.643 500.475 462.937C496.652 463.673 492.813 464.332 488.978 465.017C485.08 465.709 482.98 464.455 482.422 460.019C482.101 457.482 482.038 454.915 481.798 452.365C481.423 448.372 480.994 444.383 479.733 440.547C478.573 437.024 476.814 433.797 474.444 430.956C473.254 429.531 472.161 428.058 470.515 426.939C466.129 423.957 461.521 421.641 456.278 420.692C448.753 419.332 441.239 419.212 433.704 420.682C431.066 421.196 428.513 421.966 426.022 422.911C421.591 424.592 417.223 424.641 412.612 423.46C408.966 422.527 406.135 420.679 403.673 418C402.546 416.772 401.33 415.645 399.982 414.632C398.284 413.359 396.55 413.189 394.633 413.856C393.688 414.186 392.756 414.562 391.793 414.825C391.556 414.891 391.159 414.657 390.942 414.449C390.57 414.09 390.707 413.647 390.952 413.251C391.009 413.157 391.1 413.084 391.178 413.006C394.131 409.967 395.496 409.878 399.166 412.316C400.949 413.503 402.315 415.134 403.818 416.6C405.181 417.928 406.717 419.016 408.13 420.263C408.376 420.479 408.662 420.693 408.967 420.794C413.893 422.414 418.814 423.566 423.949 421.504C428.941 419.498 434.165 418.361 439.526 417.97C447.72 417.37 455.806 418.172 463.541 420.938C466.942 422.155 470.111 424.063 472.741 426.806C475.546 429.732 477.937 432.91 479.921 436.406C481.415 439.041 482.282 441.947 482.837 444.899C483.515 448.508 484.019 452.153 484.222 455.833C484.319 457.606 484.599 459.376 484.872 461.135C485.145 462.894 485.44 463.13 487.316 462.99C488.533 462.899 489.755 462.736 490.955 462.508C495.55 461.637 500.153 460.807 504.72 459.81C508.609 458.959 508.818 459.907 510.525 462.25C511.295 463.307 511.781 464.605 512.227 465.855C514.076 471.021 515.058 476.379 515.665 481.819C515.887 483.799 516.197 485.768 516.457 487.661C517.361 487.959 517.623 487.367 517.902 486.974C520.854 482.784 523.949 478.731 527.643 475.132C529.804 473.026 532.135 471.145 534.413 469.188C538.035 466.077 538.084 466.108 538.786 461.428C539.151 459.008 539.474 456.576 539.692 454.139C540.019 450.465 540.844 446.883 541.532 443.276C543.095 435.075 544.782 426.897 546.214 418.676C547.614 410.651 549.562 402.786 552.163 395.069C553.378 391.464 555.054 388.08 556.73 384.688C557.811 382.503 558.906 380.323 559.536 377.984C558.803 377.354 558.181 377.81 557.629 377.979C553.681 379.193 549.637 379.956 545.576 380.659C540.64 381.511 535.705 382.37 530.792 383.333C528.139 383.853 525.488 383.966 522.812 383.818C519.246 383.621 515.69 383.722 512.125 383.923C507.678 384.175 503.223 384.297 498.771 384.484C497.992 384.518 497.211 384.561 496.441 384.671C496.144 384.716 495.673 384.923 495.632 385.129C495.193 387.282 493.06 388.128 492.058 389.844C491.472 390.852 490.434 391.292 489.306 391.57C487.106 392.112 484.899 392.206 482.683 391.756C478.089 390.82 473.589 389.572 469.303 387.635C467.052 386.618 465.019 385.242 463.178 383.624C462.033 382.619 460.771 382.115 459.308 381.851C453.347 380.777 447.365 380.455 441.34 381.187C440.566 381.281 439.713 381.628 439.031 381.418C436.94 380.776 435.702 382.025 434.347 383.175C431.544 385.553 428.698 387.883 425.912 390.279C424.227 391.729 422.55 393.2 421.002 394.789C420.165 395.646 419.331 396.684 418.976 397.795C418.365 399.713 416.986 400.994 415.681 402.286C413.867 404.084 411.808 405.633 409.844 407.278C409.307 407.728 408.693 407.939 407.992 407.671C406.94 407.272 406.546 406.25 406.929 405.235C407.31 404.224 408.517 403.653 408.509 402.226C405.742 402.56 403.193 403.293 400.679 404.064C394.904 405.835 389.502 408.356 384.711 412.146C381.926 414.347 378.708 415.967 376.027 418.334C375.259 419.011 374.253 419.226 373.29 419.524C369.875 420.58 366.369 421.138 362.827 421.499C361.489 421.635 360.235 421.964 358.964 422.434C351.119 425.339 343.114 427.528 334.726 428.345C329.31 428.871 323.904 429.73 318.693 431.458C313.435 433.204 308.064 433.689 302.543 433.135C296.996 432.578 291.453 432.061 286.032 430.681C285.17 430.461 284.311 430.225 283.449 429.994C282.557 429.757 281.839 429.257 281.257 428.544C280.953 428.17 280.837 427.742 281.016 427.31C281.253 426.731 281.761 426.471 282.36 426.578C283.344 426.755 284.327 426.964 285.293 427.227C291.349 428.889 297.567 429.384 303.787 429.908C308.199 430.28 312.45 429.551 316.615 428.233C322.488 426.373 328.538 425.549 334.621 424.817C339.589 424.219 344.565 423.609 349.323 421.897C351.936 420.955 354.59 420.12 357.224 419.23C358.598 418.765 359.991 418.432 361.442 418.272C364.542 417.932 367.619 417.458 370.649 416.681C371.864 416.368 372.935 415.882 373.95 415.16C378.025 412.252 382.092 409.326 386.236 406.514C388.917 404.695 391.969 403.581 394.97 402.393C399.023 400.789 403.305 399.995 407.519 398.972C408.71 398.684 409.903 398.409 411.092 398.112C412.749 397.698 414.171 396.901 415.375 395.66C420.039 390.861 425.1 386.5 430.252 382.239C436.603 376.987 442.843 371.593 449.548 366.79C451.807 365.174 454.212 363.756 456.585 362.303C457.238 361.904 458 361.657 458.741 361.434C459.461 361.219 460.061 361.52 460.409 362.186C460.613 362.576 460.648 363.058 460.873 363.431C461.38 364.27 461.11 364.899 460.454 365.469C459.95 365.908 459.451 366.353 458.935 366.776C455.234 369.81 451.477 372.765 447.431 375.342C446.709 375.803 446.098 376.442 445.43 377.002C446.064 377.966 447.04 377.905 447.871 377.925C451.894 378.026 455.875 378.458 459.805 379.299C460.849 379.523 461.425 379.14 461.974 378.26C462.435 377.523 463.22 377.566 463.499 378.343C464.14 380.115 465.548 380.484 467.135 380.81C471.077 381.621 475.059 382.052 479.068 382.221C484.526 382.451 489.98 382.233 495.432 381.97C502.44 381.629 509.45 381.349 516.46 381.058C517.46 381.017 518.473 380.981 519.465 381.093C524.284 381.639 529.032 381.044 533.75 380.202C539.667 379.149 545.607 378.17 551.452 376.791C560.912 374.562 570.054 371.384 578.34 366.166C581.066 364.45 583.649 362.486 586.202 360.515C592.814 355.415 599.369 350.239 605.961 345.113C607.11 344.22 608.212 343.296 609.072 342.111C610.192 340.567 611.559 339.264 613.045 338.076C616.258 335.5 619.413 332.859 622.789 330.477C626.439 327.9 629.517 324.653 632.321 321.168C632.52 320.92 632.773 320.672 632.605 320.294C632.391 319.815 631.941 319.696 631.51 319.704C630.733 319.717 629.955 319.802 629.182 319.9C622.556 320.734 615.938 321.617 609.307 322.403C605.174 322.894 601.323 324.366 597.398 325.587C595.698 326.115 594.022 326.714 592.334 327.275C591.913 327.414 591.454 327.474 591.062 327.671C586.002 330.198 580.446 331.616 575.628 334.698C573.569 336.014 571.371 337.123 569.182 338.219C566.278 339.677 563.559 341.404 561.123 343.538C559.298 345.138 557.329 345.727 554.959 345.046C553.464 344.617 551.911 344.389 550.403 343.99C545.278 342.634 540.152 342.443 534.868 343.143C530.259 343.754 525.598 344.504 520.923 344.144C516.257 343.788 511.592 343.995 506.929 343.812C505.781 343.766 504.496 343.852 503.94 342.803C503.329 341.655 504.361 340.763 505.131 339.981C505.435 339.671 505.877 339.491 505.865 338.94C504.942 338.106 503.811 337.705 502.59 337.482C499.067 336.837 495.771 335.467 492.463 334.179C487.994 332.438 483.46 330.926 478.827 329.692C477.507 329.34 476.185 329.356 474.854 329.292C470.851 329.099 466.843 328.97 462.906 328.06C461.459 327.727 460.167 327.253 459.075 326.198C457.096 324.284 454.752 323.183 451.954 322.959C449.403 322.754 446.875 322.306 444.329 322.026C443.159 321.899 441.917 321.52 441.02 322.831C440.672 323.34 439.979 323.062 439.445 322.959C436.165 322.315 432.844 321.822 429.622 320.958C426.124 320.018 422.621 319.629 419.043 319.978C417.596 320.119 416.41 319.784 415.419 318.753C414.701 318.006 415.037 316.56 416 316.281C416.423 316.16 416.875 316.092 417.317 316.074C420.208 315.958 423.075 315.852 425.963 316.461C428.236 316.941 430.602 316.987 432.928 317.205C433.793 317.286 434.022 317.068 434.038 316.017C434.133 310.339 434.259 304.66 434.26 298.983C434.263 293.392 433.301 287.904 432.192 282.441C431.929 281.138 431.548 279.822 431.962 278.489C432.046 278.218 432.367 277.893 432.627 277.844C432.879 277.794 433.358 277.989 433.454 278.204C433.863 279.112 434.3 280.043 434.484 281.011C435.733 287.576 437.103 294.126 437.148 300.851C437.151 301.404 437.069 301.955 437.029 302.498C437.174 302.273 437.231 302.28 437.204 302.514L437.001 302.373C437.722 302.208 438.071 301.67 438.414 301.07C446.012 287.85 454.185 274.963 461.487 261.573C464.153 256.686 466.782 251.788 469.612 246.994C470.966 244.699 472.14 242.281 473.217 239.84C476.925 231.425 481.807 223.75 487.612 216.648C492.259 210.964 497.012 205.367 501.594 199.632C505.768 194.404 509.373 188.787 512.57 182.9C517.245 174.293 521.868 165.652 527.013 157.313C530.05 152.39 533.272 147.581 536.405 142.718C539.839 137.384 543.252 132.042 547.005 126.918C548.117 125.4 549.027 123.719 549.915 122.053C552.373 117.438 554.495 112.615 557.262 108.194C561.31 101.726 563.491 94.4167 567.096 87.7686C567.679 86.693 568.179 85.5697 568.784 84.5103C569.352 83.5181 570 83.3669 570.966 84.097C574.534 86.7888 578.465 88.9006 582.279 91.1943C585.141 92.916 587.991 94.6666 590.94 96.2267C599.624 100.824 607.764 106.251 615.525 112.256C623.623 118.522 631.761 124.74 639.739 131.156C644.767 135.201 650.04 138.944 654.84 143.281C655.904 144.244 657.147 145.037 658.392 145.764C665.623 149.981 672.221 155.106 678.878 160.133C680.549 161.394 681.9 163.082 683.376 164.598C683.918 165.155 684.369 165.808 685.145 166.081L686.866 168.131C686.488 169.226 685.831 170.127 684.815 170.675C681.148 172.655 678.266 175.645 675.028 178.18C670.986 181.345 667.463 185.05 663.827 188.643C662.088 190.361 660.271 191.997 658.482 193.663C657.248 194.815 656.309 196.18 655.477 197.641C649.027 208.954 641.944 219.876 634.918 230.829C628.975 240.096 622.76 249.188 616.694 258.378C615.04 260.885 613.404 263.412 611.928 266.023C609.652 270.047 606.497 273.318 603.3 276.574C601.433 278.475 599.598 280.41 597.775 282.356C597.217 282.95 597.399 283.619 598.188 283.922C600.781 284.922 603.344 286.022 606.172 286.244C606.696 286.284 607.197 286.596 607.712 286.784L607.671 287.114C606.442 287.551 605.26 287.022 604.064 286.919C601.632 286.712 599.209 286.39 596.78 286.146C595.102 285.977 593.799 286.564 592.754 287.954C591.537 289.571 590.499 291.266 589.943 293.203C589.3 295.442 588.756 297.711 588.22 299.981C587.927 301.219 588.354 301.802 589.519 301.58C592.013 301.102 594.505 300.656 597.048 300.52C597.581 300.491 598.101 300.191 598.623 300.009C600.298 299.424 601.993 298.887 603.641 298.231C605.031 297.678 606.433 297.41 607.855 297.896C608.674 298.176 609.389 298.121 610.082 297.718C611.053 297.152 612.102 296.83 613.176 296.529C613.588 296.414 614.107 296.237 614.313 295.919C615.408 294.225 617.223 294.009 618.917 293.548C619.988 293.255 621.082 293.048 622.155 292.774C622.762 292.617 623.081 292.217 622.989 291.558L622.979 291.686C623.525 291.374 624.065 291.589 624.579 291.745C627.074 292.509 629.581 292.624 632.136 292.079C632.876 291.922 633.666 291.661 634.411 292.071C634.692 292.224 634.931 292.497 634.736 292.875C634.36 293.609 633.75 294.098 632.96 294.255C631.442 294.555 629.915 294.86 628.377 295.013C626.392 295.209 624.388 295.188 622.405 295.386C619.291 295.693 616.305 296.534 613.476 297.876C611.666 298.737 609.852 299.549 607.853 299.871C607.43 299.939 606.943 300.053 606.641 300.323C604.667 302.086 602.255 302.738 599.758 303.309C598.042 303.701 596.352 304.055 594.585 304.26C591.484 304.621 588.614 305.91 585.983 307.641C585.119 308.211 584.607 309.058 584.077 309.909C582.376 312.627 580.622 315.318 580.362 318.647L580.447 318.614C579.359 317.611 579.453 316.468 580.09 315.288C581.146 313.331 582.18 311.361 583.313 309.45C583.888 308.478 584.209 307.618 584.157 306.381C584.083 304.682 584.229 302.781 585.962 301.652C586.689 301.178 586.887 300.44 587.062 299.675C587.433 298.046 587.847 296.427 588.172 294.789C588.677 292.228 589.749 289.927 591.286 287.839C592.066 286.779 593.155 285.901 593.099 284.394C593.094 284.233 593.344 283.917 593.469 283.919C595.712 283.976 596.192 281.845 597.419 280.692C599.606 278.639 601.624 276.404 603.724 274.259C607.252 270.66 609.982 266.485 612.599 262.21C615.677 257.181 618.815 252.187 622.033 247.248C629.503 235.788 637.159 224.449 644.126 212.664C646.389 208.835 648.871 205.14 651.241 201.374C651.716 200.622 652.167 199.851 652.564 199.057C654.326 195.532 656.76 192.572 659.577 189.803C665.931 183.556 672.416 177.469 679.369 171.891C680.495 170.988 681.44 169.858 682.573 168.969C684.642 167.339 684.086 166.811 682.58 165.275C679.848 162.491 676.754 160.109 673.575 157.859C668.403 154.194 663.378 150.311 657.826 147.195C655.681 145.991 653.955 144.209 652.043 142.683C646.562 138.314 641.057 133.975 635.504 129.695C627.396 123.447 619.297 117.18 611.077 111.081C604.821 106.437 598.226 102.306 591.363 98.5771C585.5 95.3912 579.821 91.8654 574.065 88.4861C573.299 88.0362 572.549 87.5561 571.78 87.1078C571.213 86.7759 570.742 86.8826 570.37 87.4477C569.942 88.096 569.587 88.7666 569.284 89.4946C567.37 94.0942 565.033 98.5139 563.422 103.246C562.88 104.833 562.049 106.285 560.986 107.583C560.271 108.458 559.819 109.457 559.31 110.449C556.83 115.278 554.277 120.07 551.756 124.877C550.411 127.442 548.805 129.812 546.972 132.07C545.442 133.957 544.207 136.096 542.951 138.188C539.518 143.914 535.683 149.376 532.101 154.996C528.279 160.993 524.91 167.277 521.351 173.442C517.627 179.892 514.395 186.613 510.323 192.871C506.919 198.101 503.181 203.065 499.155 207.824C496.138 211.391 493.206 215.029 490.212 218.615C485.338 224.45 481.187 230.768 477.957 237.639C474.877 244.191 471.339 250.481 467.871 256.826C462.16 267.272 456.227 277.586 450.245 287.873C447.056 293.355 443.863 298.833 440.677 304.319C440.034 305.423 440.047 305.428 438.606 305.074C438.29 304.995 437.971 304.935 437.686 304.873C437.031 305.429 437.251 306.143 437.235 306.762C437.167 309.655 437.117 312.551 437.127 315.445C437.134 317.532 437.2 317.583 439.433 317.792C443.758 318.194 448.089 318.546 452.361 319.383C453.125 319.533 453.893 319.668 454.654 319.833C455.452 320.007 456.052 320.398 456.407 321.207C457.718 324.207 460.201 325.393 463.313 325.574C464.313 325.634 465.315 325.704 466.312 325.795C469.083 326.049 471.818 326.388 474.541 327.084C479.282 328.295 484.097 329.208 488.881 330.247C489.411 330.36 489.947 330.601 490.458 330.198C490.456 330.2 490.447 330.301 490.447 330.301C489.861 329.827 489.276 329.354 488.677 328.867C488.748 328.153 489.351 328.373 489.678 328.423C490.664 328.569 491.668 328.735 492.6 329.072C496.153 330.359 499.718 331.637 503.068 333.408C504.182 333.998 505.288 334.42 506.553 334.312C507.681 334.215 508.759 334.507 509.852 334.709C511.583 335.03 513.325 335.337 515.212 334.908C515.065 333.374 513.946 332.503 513.301 331.387C513.016 330.896 512.783 330.356 513.283 329.878C513.71 329.471 514.288 329.433 514.838 329.514C515.177 329.563 515.501 329.878 515.286 330.202C514.834 330.876 514.932 331.387 515.451 331.964C516.263 332.865 517.023 333.817 517.786 334.727C519.051 334.697 519.809 333.989 520.671 333.548C521.562 333.092 522.572 332.774 523.313 332.142C525.149 330.576 526.062 328.422 526.623 326.124C526.728 325.693 526.484 325.259 526.075 324.995C525.889 324.875 525.688 324.778 525.489 324.679C520.407 322.174 515.27 319.803 509.966 317.789C508.425 317.204 506.987 317.09 505.416 317.459C503.794 317.84 502.148 318.122 500.502 318.387C499.667 318.523 499.309 318.104 499.331 317.226C499.358 316.1 499.58 315.012 500.016 313.978C500.578 312.647 501.16 311.325 501.76 310.007C502.844 307.625 502.461 305.098 500.604 303.322C499.483 302.249 498.264 301.267 497.039 300.31C494.829 298.58 493.434 296.449 493.262 293.56C493.178 292.123 492.914 290.664 492.025 289.454C491.349 288.533 491.449 287.54 491.716 286.58C492.19 284.869 492.688 283.167 493.509 281.566C494.922 278.811 496.792 276.268 497.465 273.161C497.53 272.856 497.826 272.605 497.997 272.319C498.351 271.717 498.846 271.704 499.41 271.963C499.612 272.057 499.805 272.167 500.001 272.269C500.921 272.752 501.521 274.363 502.775 273.574C504.504 272.486 506.61 271.627 507.067 269.236C507.15 268.806 507.126 268.352 507.235 267.93C507.39 267.33 507.815 266.983 508.454 267.037C509.977 267.16 511.571 266.838 512.982 267.717L512.993 267.614L513.001 267.607ZM518.733 341.402C519.521 341.341 520.231 341.148 520.56 340.316C520.719 340.602 520.875 341.132 521.039 341.134C523.477 341.165 525.892 341.652 528.343 341.424C532.534 341.034 536.737 340.735 540.93 340.35C543.377 340.126 545.807 339.816 547.96 341.457C548.21 341.647 548.591 341.657 548.904 341.771C551.558 342.739 554.331 342.741 557.099 342.965C559.067 343.123 560.556 342.581 561.929 341.308C564.062 339.334 566.455 337.738 569.046 336.423C570.234 335.819 571.382 335.138 572.545 334.489C573.22 334.115 573.96 333.818 574.293 333.033C573.426 331.992 572.698 333.138 571.901 333.188C570.793 333.258 569.689 333.399 568.581 333.473C566.587 333.605 564.607 333.807 562.622 334.032C559.319 334.407 555.979 334.469 552.653 334.6C551.907 334.629 551.081 334.68 550.46 334.053C548.493 332.061 546.357 332.3 544.135 333.558C542.301 334.597 540.463 335.633 538.613 336.65C538.445 336.743 538.138 336.757 537.979 336.663C537.583 336.435 537.825 336.147 538.004 335.897C538.264 335.535 538.619 335.127 538.42 334.697C538.055 333.914 537.517 334.618 537.049 334.628C535.275 334.661 533.896 335.467 532.644 336.645C531.672 337.557 530.666 338.418 529.184 338.448C528.674 338.458 528.186 338.884 527.665 339.032C525.336 339.695 523.04 340.548 520.544 340.401C519.982 340.743 519.42 341.082 518.881 341.424C518.884 341.405 518.886 341.384 518.889 341.365C518.839 341.378 518.788 341.392 518.736 341.406L518.733 341.402ZM490.847 387.636C491.438 386.976 492.067 386.347 492.596 385.64C492.768 385.409 492.616 384.968 492.217 384.907C491.784 384.839 491.336 384.839 490.896 384.855C485.459 385.047 480.027 385.11 474.605 384.555C474.385 384.532 474.161 384.509 473.941 384.525C473.606 384.546 473.263 384.64 473.232 385.028C473.22 385.191 473.389 385.435 473.543 385.53C473.92 385.759 474.322 385.983 474.742 386.097C477.628 386.883 480.505 387.719 483.422 388.375C485.148 388.763 486.942 388.85 488.713 388.496C489.474 388.344 490.255 388.244 490.846 387.638L490.847 387.636Z" fill="#8DC0FF"/>
<path d="M70.7638 470.026C75.2986 467.213 79.8334 464.4 84.3669 461.582C85.4051 460.938 86.4298 460.266 87.6504 459.998C88.4495 460.761 88.2687 461.662 87.9127 462.47C87.4664 463.483 86.8587 464.428 86.3124 465.396C82.2005 472.661 78.1408 479.953 73.955 487.176C70.7775 492.661 67.4305 498.048 64.1689 503.487C62.2235 506.731 60.3102 509.991 58.3648 513.235C57.5935 514.518 57.1385 515.834 57.6406 517.356C58.3794 517.8 58.8702 517.145 59.379 516.87C68.5805 511.896 77.7819 506.923 86.9437 501.878C95.0349 497.424 103.079 492.883 111.141 488.376C112.889 487.399 114.616 486.381 116.366 485.412C117.045 485.034 117.745 484.683 118.472 484.414C119.043 484.201 119.536 484.406 119.865 484.977C120.399 485.898 120.561 486.79 120.091 487.823C119.076 490.051 118.111 492.3 117.183 494.567C116.552 496.109 115.974 497.677 115.473 499.266C115.246 499.978 114.956 500.76 115.482 501.704C118.237 500.598 121.011 499.481 123.786 498.368C126.989 497.086 130.212 495.85 133.546 494.953C134.812 494.611 136.14 494.165 137.24 495.464C137.641 495.938 138.283 495.772 138.824 495.698C145.909 494.755 153.041 494.868 160.163 494.759C162.066 494.729 163.9 494.423 165.748 493.913C176.393 490.988 187.163 488.71 198.214 487.968C198.435 487.954 198.666 487.971 198.879 487.919C200.127 487.621 201.888 488.024 202.415 486.674C202.792 485.702 201.31 484.909 200.725 483.992C198.753 480.896 196.793 477.791 194.848 474.678C194.317 473.829 193.762 472.978 193.38 472.06C192.658 470.33 191.612 469.022 189.712 468.534C189.415 468.458 189.164 468.167 188.913 467.952C188.217 467.359 187.944 466.489 188.636 465.927C189.938 464.867 189.469 463.863 189.023 462.68C187.769 459.346 186.523 456.007 185.665 452.543C185.156 450.492 184.632 448.437 184.247 446.36C182.855 438.884 180.141 431.801 177.859 424.588C177.657 423.953 177.424 423.321 177.153 422.712C175.309 418.579 174.667 414.201 174.347 409.734C173.942 404.07 173.544 398.4 172.909 392.76C172.114 385.698 171.877 378.573 170.557 371.572C170.369 370.572 170.388 369.579 170.649 368.591C173.214 366.792 172.012 363.938 172.591 361.584C172.812 360.688 172.677 359.79 171.957 359.109C171.206 358.4 171.229 357.534 171.39 356.633C171.661 355.121 171.949 353.614 172.208 352.23C171.963 351.997 171.893 351.875 171.801 351.858C171.709 351.841 171.575 351.908 171.499 351.981C165.35 358.108 159.2 364.238 153.064 370.377C152.847 370.594 152.756 370.933 152.6 371.223C153.376 371.73 153.895 371.113 154.402 370.859C158.385 368.872 162.34 366.829 166.302 364.802C166.597 364.651 166.879 364.447 167.192 364.36C167.776 364.194 168.303 364.362 168.64 364.883C168.879 365.253 169.063 365.666 169.238 366.075C169.779 367.35 169.7 367.854 168.71 368.714C167.869 369.442 166.979 370.117 166.087 370.781C161.533 374.181 156.736 377.214 151.864 380.135C142.984 385.457 134.11 390.79 125.269 396.178C122.992 397.566 120.831 399.156 118.637 400.679C111.781 405.446 104.939 410.23 98.0844 414.999C97.2622 415.572 96.3806 416.059 95.5682 416.64C94.1729 417.639 92.7448 417.741 91.1599 417.092C84.7063 414.45 78.0782 415.105 71.4417 416.139C70.4783 416.289 70.1177 416.724 70.5279 417.723C70.8741 418.565 70.4838 419.239 69.7535 419.709C69.1932 420.069 68.6198 420.417 68.0349 420.736C64.0254 422.923 59.9261 424.907 55.5882 426.37C49.216 428.519 43.422 431.821 37.7175 435.31C36.1046 436.297 34.453 437.222 32.7944 438.127C28.683 440.371 24.8106 442.988 20.9659 445.649C19.2267 446.852 17.5469 448.142 15.8156 449.355C14.7358 450.112 14.1081 450.051 13.1311 449.246C12.5948 448.804 12.4191 447.988 12.8494 447.481C13.3469 446.892 13.9093 446.345 14.498 445.841C17.5506 443.225 20.9146 441.041 24.3332 438.957C29.7481 435.656 35.2154 432.44 40.661 429.191C41.6152 428.621 42.5925 428.089 43.5329 427.495C44.0739 427.154 44.2336 426.657 43.7971 426.102C43.2575 425.416 42.4889 424.848 42.6965 423.802C42.9076 422.736 43.654 422.061 44.4529 421.452C45.6957 420.503 47.0508 419.742 48.494 419.125C53.0028 417.197 57.5736 415.346 62.2997 414.141C67.6696 412.772 73.1247 411.496 78.775 411.825C81.9871 412.01 85.249 411.582 88.3815 412.68C88.905 412.864 89.5243 412.879 89.9693 413.174C91.5566 414.22 92.8947 413.655 94.2482 412.71C97.1709 410.673 100.12 408.675 103.04 406.634C109.335 402.23 115.598 397.78 121.914 393.408C124.201 391.826 126.596 390.396 128.96 388.925C129.786 388.411 130.309 387.917 129.851 386.799C129.478 385.892 129.974 385.061 130.663 384.422C131.232 383.892 131.836 383.395 132.441 382.906C140.329 376.525 147.777 369.662 154.943 362.487C158.797 358.628 162.638 354.752 166.55 350.951C169.848 347.749 172.584 344.114 175.121 340.311C175.545 339.676 175.855 338.842 176.78 338.838C177.984 338.833 178.027 339.977 178.368 340.72C179.269 342.685 179.478 344.67 178.9 346.858C176.934 354.301 175.606 361.863 175.276 369.578L175.286 369.478C175.461 369.678 175.634 369.881 175.81 370.083L175.686 370.074C175.535 372.282 175.459 374.497 175.216 376.696C174.921 379.373 175.125 382.03 175.337 384.69C175.448 386.066 175.74 386.302 176.988 386.043C178.62 385.701 180.242 385.313 181.861 384.905C193.181 382.042 204.5 379.178 215.641 375.67C216.825 375.297 217.992 374.914 219.224 375.32C220.179 375.635 221.006 375.307 221.763 374.857C224.043 373.495 226.424 372.338 228.365 370.394C229.835 368.92 231.683 367.785 233.473 366.673C236.353 364.882 238.743 362.666 240.563 359.773C245.127 352.518 250.282 345.682 255.68 339.038C260.305 333.346 265.013 327.719 269.826 322.185C275.075 316.149 280.418 310.196 285.967 304.428C288.274 302.028 290.391 299.447 292.592 296.945C293.033 296.446 293.428 295.9 293.9 295.432C295.025 294.319 295.641 294.435 296.366 295.886C296.605 296.364 296.625 296.983 297.271 297.154C295.369 298.361 294.129 300.135 293.03 302.033C290.14 304.87 289.393 305.915 288.36 308.933C290.178 306.48 291.605 304.568 293.002 302.637C293.093 302.513 292.962 302.23 292.942 302.02C293.883 301.797 294.403 301.053 294.932 300.366C295.731 299.325 296.456 298.231 297.213 297.158C299.926 293.5 302.649 289.849 305.349 286.179C308.511 281.884 311.679 277.594 314.79 273.262C315.709 271.981 316.761 270.871 317.965 269.868C323.176 265.524 328.356 261.142 333.578 256.812C334.771 255.824 336.055 254.931 337.356 254.083C338.364 253.425 339.481 253.351 340.462 254.169C342.986 256.268 346.047 256.79 349.149 257.223C350.691 257.438 352.226 257.7 353.766 257.942C354.106 257.997 354.494 258.015 354.605 257.656C354.687 257.387 354.608 257.018 354.487 256.743C354.135 255.929 353.682 255.158 353.354 254.334C352.747 252.819 352.951 252.155 354.341 251.264C355.179 250.726 356.07 250.254 356.977 249.84C361.627 247.706 366.37 245.802 371.351 244.591C373.579 244.047 375.444 242.982 377.176 241.519C382.947 236.644 388.529 231.568 393.999 226.355C396.81 223.675 399.878 221.25 402.93 218.838C404.53 217.573 406.568 217.108 408.561 217.049C412.229 216.935 415.846 217.364 419.467 218.167C424.457 219.273 427.701 222.366 430.065 226.575C430.894 228.049 431.966 229.3 432.888 230.677C434.303 232.788 436.017 233.718 438.537 232.758C439.122 232.536 439.894 232.42 440.126 233.38L440.131 233.298C439.154 233.473 438.147 233.556 437.203 233.848C436.228 234.151 435.392 234.024 434.782 233.278C432.888 230.959 430.702 228.894 429.165 226.266C427.449 223.333 425.144 221.058 421.764 219.908C417.598 218.493 413.387 217.686 408.992 218.049C406.493 218.255 404.277 219.06 402.349 220.799C398.713 224.076 394.757 227.023 391.297 230.471C386.406 235.344 380.896 239.536 376.184 244.586C375.54 245.276 374.795 245.558 373.905 245.807C369.187 247.126 364.555 248.71 360.114 250.805C359.41 251.136 358.687 251.448 358.036 251.867C356.966 252.558 356.348 253.657 355.957 254.806C355.699 255.564 356.302 256.275 356.675 256.951C357.155 257.817 357.887 258.762 357.154 259.682C356.537 260.456 355.462 260.006 354.624 259.885C351.323 259.412 347.972 259.213 344.754 258.248C343.16 257.769 341.508 257.404 340.166 256.334C339.444 255.759 338.688 255.794 338.001 256.25C336.706 257.113 335.405 257.984 334.219 258.986C329.284 263.153 324.402 267.383 319.476 271.561C318.273 272.58 317.273 273.76 316.366 275.027C313.388 279.186 310.401 283.337 307.475 287.534C302.383 294.84 296.961 301.9 291.631 309.03C289.357 312.069 286.638 314.704 284.053 317.461C282.611 318.999 281.318 320.684 279.607 321.967C278.943 322.466 278.35 322.856 277.514 322.37C276.798 321.953 276.816 321.318 276.884 320.635C276.915 320.327 276.909 320.014 276.919 319.71C276.139 319.314 275.87 319.971 275.558 320.321C272.291 323.961 269.014 327.596 265.82 331.3C263.935 333.489 262.278 335.875 260.372 338.042C256.542 342.394 253.25 347.155 249.754 351.762C249.021 352.728 248.497 353.858 247.925 354.938C247.788 355.196 247.71 355.673 247.854 355.857C248.254 356.368 248.636 355.889 248.949 355.652C253.644 352.092 258.329 348.514 263.021 344.95C263.37 344.687 263.75 344.448 264.147 344.265C264.309 344.191 264.591 344.233 264.753 344.33C265.666 344.881 265.983 346.51 265.302 347.198C264.832 347.669 264.309 348.093 263.797 348.522C256.459 354.677 249.12 360.831 241.772 366.974C240.678 367.889 239.675 368.98 238.025 368.899C237.663 368.881 237.053 369.231 236.95 369.541C236.466 371.005 235.163 371.453 234.026 372.102C229.485 374.696 224.915 377.234 220.407 379.878C219.054 380.672 217.854 381.167 216.418 380.15C215.382 379.417 214.304 379.868 213.218 380.173C206.358 382.092 199.493 383.998 192.622 385.865C188.758 386.915 184.868 387.873 180.992 388.887C179.7 389.225 178.404 389.557 177.144 389.992C176.49 390.216 176.07 390.74 176.133 391.537C176.216 392.587 176.753 393.671 175.651 394.618C175.377 394.855 175.557 395.676 175.601 396.223C176.07 402.106 176.553 407.99 177.033 413.873C177.241 416.443 177.8 418.925 178.738 421.333C181.371 428.083 183.358 435.043 185.388 441.987C186.012 444.117 186.391 446.322 186.794 448.511C187.732 453.572 189.513 458.373 191.273 463.182C191.426 463.599 191.658 463.985 191.845 464.389C192.102 464.942 192.538 465.234 193.143 465.279C193.253 465.287 193.365 465.3 193.476 465.297C198.054 465.267 202.586 465.901 207.141 466.222C212.71 466.612 218.268 466.603 223.832 466.102C226.604 465.852 229.385 465.678 232.166 465.55C234.329 465.451 235.1 466.072 235.774 468.199C235.991 468.883 235.586 469.547 234.837 469.644C234.175 469.729 233.504 469.737 232.837 469.784C230.059 469.981 227.283 470.18 224.506 470.382C224.507 470.388 224.369 470.539 224.369 470.539L224.59 470.386C224.893 471.507 225.952 471.387 226.735 471.613C232.83 473.384 238.939 475.108 245.045 476.845C245.365 476.937 245.691 477.02 246.008 477.127C246.79 477.392 247.498 477.408 248.183 476.807C249.145 475.964 250.384 475.771 251.592 475.577C254.451 475.121 257.302 474.536 260.18 474.304C264.243 473.976 268.028 472.743 271.75 471.248C275.055 469.921 278.341 468.545 281.592 467.092C287.388 464.503 293.232 462.042 299.244 459.997C300.841 459.455 302.297 458.694 303.623 457.636C308.297 453.912 313.572 451.351 319.283 449.63C320.304 449.322 321.201 449.101 321.985 450.097C322.504 450.758 323.178 450.426 323.82 450.263C326.732 449.519 329.611 448.511 332.569 448.131C335.809 447.715 338.392 446.2 341.043 444.534C344.997 442.046 349.059 439.724 353.261 437.67C354.26 437.183 355.262 436.582 356.329 436.381C359.214 435.841 361.329 434.099 363.449 432.281C365.984 430.105 368.567 427.987 371.144 425.863C371.743 425.37 372.369 424.9 373.033 424.505C373.26 424.37 373.715 424.383 373.941 424.525C375.163 425.293 375.36 426.95 374.379 427.936C374.066 428.251 373.715 428.529 373.373 428.816C369.876 431.75 366.38 434.687 362.882 437.619C362.115 438.262 361.383 438.997 360.364 439.203C356.578 439.977 353.41 442.135 350.056 443.84C344.99 446.414 340.27 449.554 335.937 453.252C335.428 453.685 334.913 454.111 334.387 454.523C332.332 456.134 331.679 456.137 329.972 454.076C329.379 453.361 328.888 453.023 328.042 453.282C324.229 454.451 320.174 454.996 316.894 457.535C316.017 458.213 315.139 458.028 314.433 457.504C313.356 456.699 312.499 456.818 311.42 457.509C309.562 458.702 307.411 459.531 306.659 461.907C305.115 463.138 303.694 464.647 301.408 464.156C300.364 463.932 299.447 464.387 298.503 464.719C294.615 466.09 290.846 467.744 287.057 469.363C281.122 471.898 275.301 474.707 269.151 476.724C267.24 477.351 265.31 477.787 263.303 478.018C259.986 478.398 256.69 478.948 253.388 479.452C252.52 479.584 251.422 479.551 251.007 480.412C250.322 481.833 249.293 481.552 248.198 481.29C247.439 481.109 246.692 480.886 245.941 480.676C236.936 478.142 227.94 475.583 218.926 473.085C216.258 472.347 213.469 472.021 211.021 470.572C210.654 470.355 210.179 470.241 209.747 470.22C205.077 469.997 200.445 469.183 195.756 469.258C195.429 469.263 195.086 469.321 194.791 469.449C194.633 469.516 194.452 469.798 194.473 469.959C194.518 470.278 194.661 470.596 194.817 470.886C197.542 475.995 200.419 481.009 203.934 485.63C204.795 486.76 205.869 487.811 205.94 489.565C203.868 490.009 201.777 490.152 199.689 490.275C189.766 490.862 180.048 492.663 170.455 495.195C168.629 495.677 166.828 496.27 164.986 496.674C163.801 496.935 162.563 497.059 161.348 497.06C155.452 497.065 149.555 497.115 143.669 497.529C141.674 497.669 139.69 497.959 137.698 498.135C135.609 498.318 133.513 498.452 131.42 498.599C129.624 498.727 127.871 499.138 126.249 499.85C122.179 501.637 117.921 502.991 113.998 505.116C113.802 505.222 113.6 505.317 113.39 505.392C112.105 505.864 110.801 504.918 111.006 503.543C111.166 502.455 111.517 501.375 111.923 500.347C112.66 498.487 113.499 496.667 114.295 494.831C114.739 493.81 115.211 492.8 115.627 491.77C116.309 490.076 115.816 489.419 114.096 489.679C112.981 489.845 111.961 490.26 110.976 490.805C103.873 494.737 96.7718 498.675 89.6558 502.58C80.5902 507.554 71.5136 512.51 62.4262 517.45C60.3775 518.562 58.2666 519.558 56.1965 520.634C55.3045 521.097 54.407 521.522 53.3948 521.626L52.5356 520.602C53.28 517.664 54.7722 515.069 56.307 512.51C60.9827 504.704 65.7151 496.935 70.416 489.143C74.8896 481.734 79.3514 474.318 83.8081 466.9C84.0309 466.528 84.1636 466.099 84.4127 465.527C82.3477 464.924 80.5402 464.868 78.7055 466.073C76.6745 467.408 74.5049 468.531 72.4099 469.77C71.8895 470.077 71.3751 470.113 70.8165 469.988L70.7817 470.043L70.7638 470.026ZM57.024 420.417C54.0938 420.517 51.6869 422.2 49.0357 423.205C48.9392 423.24 48.8661 423.675 48.9244 423.713C49.0943 423.827 49.3465 423.907 49.5435 423.872C52.3053 423.377 54.6928 422.039 57.0256 420.419L57.024 420.417Z" fill="#8DC0FF"/>
<path d="M592.418 263.919C593.432 262.478 593.915 261.022 594.372 259.549C595.429 256.135 596.684 252.808 598.589 249.76C599.777 247.861 601.233 246.331 603.099 244.97C610.578 239.512 616.66 232.825 620.416 224.198C622.104 220.323 624.024 216.549 625.873 212.746C626.108 212.26 626.547 211.876 626.881 211.44C627.149 211.091 627.523 210.768 627.648 210.371C629.169 205.517 631.386 200.88 631.318 195.573C631.263 191.343 631.972 187.138 633.19 183.058C634.131 179.903 635.719 177.225 638.303 175.028C641.274 172.502 644.395 170.567 648.377 170.298C648.65 170.28 648.908 170.011 649.279 169.8C648.229 168.321 646.732 167.491 645.337 166.702C641.42 164.495 638.06 161.576 634.651 158.715C630.39 155.135 626.207 151.46 621.932 147.896C617.478 144.183 612.741 140.856 607.715 137.957C605.691 136.788 603.643 135.662 601.631 134.473C600.263 133.665 600.2 133.281 600.98 131.773C601.082 131.574 601.169 131.368 601.285 131.179C601.73 130.465 602.267 130.317 602.957 130.733C606.383 132.808 609.826 134.856 613.224 136.974C618.911 140.521 623.971 144.89 629.104 149.169C633.292 152.661 637.069 156.637 641.535 159.795C644.169 161.659 646.824 163.502 649.578 165.174C651.355 166.252 652.534 167.854 653.918 169.291C654.322 169.711 654.474 170.232 654.559 170.796C654.742 172.011 654.318 172.819 653.16 173.057C651.526 173.394 649.877 173.785 648.22 173.855C644.18 174.027 641.063 176.056 638.107 178.514C636.943 179.48 636.338 180.779 635.836 182.148C634.558 185.63 634.074 189.273 633.713 192.937C633.604 194.043 633.619 195.163 633.538 196.272C633.284 199.836 632.877 203.356 631.201 206.617C630.649 207.694 630.363 208.914 630.024 210.09C629.28 212.676 628.3 215.12 626.598 217.269C624.859 219.464 623.717 222.025 622.611 224.581C620.285 229.945 617.121 234.751 613.2 239.079C611.926 240.485 610.608 241.831 609.147 243.041C607.429 244.46 605.82 246.027 604.006 247.306C601.045 249.392 599.284 252.28 597.997 255.537C597.097 257.813 596.148 260.086 595.466 262.432C594.532 265.639 592.187 266.653 589.229 266.91C588.676 266.959 588.115 266.904 587.561 266.931C586.838 266.966 586.481 267.367 586.714 267.992C587.184 269.255 587.516 270.54 587.605 271.886C587.639 272.386 588.008 272.576 588.389 272.836C589.559 273.643 589.83 274.414 589.469 275.56C589.404 275.764 589.305 276.041 589.142 276.117C587.838 276.731 586.225 277.539 585.077 276.797C583.537 275.799 581.926 275.847 580.329 275.507C579.132 275.252 577.908 275.102 576.729 274.787C575.566 274.475 574.678 274.286 574.02 275.731C573.617 276.618 572.46 276.592 571.706 276.002C571.531 275.867 571.361 275.718 571.219 275.548C569.141 273.072 567.048 270.609 565.007 268.104C564.34 267.285 564.152 266.363 564.698 265.317C565.563 263.671 566.021 263.455 567.863 264.04C569.136 264.445 570.416 264.83 571.7 265.19C572.466 265.403 572.974 265.078 573.251 264.333C573.64 263.283 574.005 262.238 573.798 261.084C573.615 260.058 573.789 259.103 574.363 258.21C574.814 257.508 575.331 257.336 576 257.813C576.453 258.136 576.846 258.539 577.302 258.858C578.063 259.39 578.869 259.671 579.791 259.189C580.963 258.578 582.156 258.794 583.365 259.126C586.688 260.038 589.901 261.159 592.42 263.918L592.418 263.919ZM570.627 269.211C571.735 270.833 571.791 270.907 572.903 270.081C573.534 269.612 574.114 269.457 574.696 269.861C577.269 271.645 580.291 271.792 583.221 272.256C583.705 272.334 584.317 272.595 584.731 271.807C584.309 270.535 583.921 269.161 583.395 267.842C582.961 266.753 582.833 265.774 583.421 264.683C584.22 263.201 583.766 262.818 582.161 262.516C581.398 262.372 580.636 262.256 579.888 262.62C578.96 263.071 577.999 263.158 576.982 262.954C576.483 262.854 576.172 263.205 576.023 263.658C575.85 264.182 575.683 264.709 575.551 265.244C574.991 267.563 573.656 268.93 571.148 268.92C570.975 268.919 570.8 269.108 570.627 269.211Z" fill="#8DC0FF"/>
<path d="M523.305 282.422C522.67 281.982 521.92 281.598 522.033 280.651C522.23 278.997 522.441 277.344 522.703 275.697C522.79 275.147 524.851 273.833 525.55 273.836C525.989 273.838 526.428 273.986 526.869 273.998C527.476 274.014 527.963 273.764 528.11 273.128C528.291 272.351 528.496 271.397 529.328 271.315C530.358 271.213 531.45 270.92 532.499 271.684C533.957 272.744 535.774 272.994 537.552 273.626C537.852 272.473 537.206 271.83 536.55 271.33C536.043 270.942 535.336 270.818 534.721 270.565C533.894 270.224 533.531 269.575 533.61 268.711C533.733 267.382 533.933 266.063 534.047 264.735C534.132 263.739 533.711 263.009 532.725 262.669C532.199 262.487 531.679 262.281 531.146 262.132C528.513 261.405 528.534 261.418 529.483 259.041C529.935 257.907 530.32 256.743 530.686 255.576C530.835 255.098 530.608 254.672 530.099 254.567C528.9 254.325 527.698 254.078 526.485 253.938C520.504 253.247 514.594 252.138 508.756 250.705C506.858 250.239 505.299 250.499 503.681 251.39C501.912 252.365 500.331 253.591 498.828 254.917C497.969 255.674 497.061 255.797 496.052 255.368C494.925 254.89 493.805 254.397 492.693 253.879C491.719 253.425 490.811 253.48 489.806 253.889C487.934 254.652 486.271 255.752 484.599 256.847C483.737 257.411 483.198 258.26 482.728 259.156C480.499 263.388 478.191 267.579 476.075 271.865C475.077 273.89 473.33 275.045 471.704 276.36C470.746 277.135 469.755 277.792 469.245 279.001C469.041 279.487 468.874 280.528 467.967 279.95C467.461 279.625 467.831 278.926 468.08 278.434C468.534 277.535 469.085 276.715 469.899 276.078C471.033 275.185 471.925 274.05 472.905 273.004C474.701 271.085 475.775 268.799 476.999 266.568C478.121 264.521 479.224 262.463 480.326 260.404C481.337 258.514 482.627 256.864 484.391 255.614C485.842 254.584 487.286 253.548 488.731 252.511C490.012 251.592 491.363 251.456 492.841 252.023C494.19 252.542 495.576 252.969 496.943 253.443C497.872 253.766 498.645 253.559 499.402 252.92C500.764 251.777 502.215 250.736 503.583 249.6C504.989 248.433 506.506 248.166 508.264 248.647C512.137 249.708 516.118 250.237 520.057 250.983C523.135 251.565 526.22 251.896 529.346 251.932C529.792 251.938 530.239 251.923 530.68 251.961C532.279 252.105 532.726 252.483 532.646 254.006C532.565 255.556 532.29 257.094 532.073 258.636C531.963 259.409 532.16 259.929 532.996 260.099C534.961 260.497 535.663 261.929 535.894 263.714C535.966 264.263 535.938 264.825 535.997 265.379C536.103 266.347 535.402 267.513 536.201 268.237C536.795 268.779 537.832 268.844 538.675 269.1C539.422 269.326 540.183 269.502 540.926 269.734C542.795 270.323 544.634 270.376 546.477 269.605C547.086 269.349 547.743 269.194 548.39 269.053C548.937 268.935 549.415 269.478 549.416 270.086C549.421 271.402 548.76 272.414 547.97 273.37C547.207 274.292 546.428 275.198 545.556 276.229C546.258 276.606 546.734 276.865 547.215 277.117C549.343 278.231 549.741 279.038 549.234 281.394C549 282.482 548.685 283.551 548.414 284.631C548.231 285.363 548.4 285.954 549.148 286.267C549.864 286.567 550.587 286.857 551.307 287.147C552.771 287.741 554.097 287.68 555.253 286.434C556.468 285.123 558.14 284.764 559.798 284.602C563.007 284.29 566.228 283.987 569.45 283.937C572.898 283.885 576.351 284.098 579.8 284.257C581.918 284.354 584.009 284.497 586.076 283.785C587.006 283.465 587.502 283.921 587.611 284.923C587.758 286.272 587.12 287.135 585.78 287.134C583.779 287.133 581.775 287.024 579.773 286.91C575.216 286.647 570.657 286.414 566.092 286.548C563.419 286.627 560.75 286.804 558.157 287.53C557.521 287.707 556.871 287.914 556.303 288.242C554.794 289.113 554.613 290.079 555.792 291.457C557.477 293.426 558.74 295.607 559.731 298.006C560.363 299.535 561.377 300.902 562.207 302.354C562.534 302.929 562.885 303.507 563.106 304.126C563.253 304.532 563.172 305.011 562.775 305.334C562.379 305.654 561.905 305.614 561.534 305.4C561.064 305.129 560.681 304.704 560.251 304.358C559.388 303.665 558.561 302.909 557.633 302.309C556.26 301.421 555.887 301.575 555.044 303.097C554.724 303.674 554.434 304.267 554.087 304.827C553.859 305.197 553.146 305.066 553.011 304.627C552.915 304.315 552.953 303.963 552.866 303.646C552.563 302.567 551.974 302.293 551.24 302.906C549.859 304.058 548.529 305.304 548.109 307.125C547.332 310.502 544.544 312.086 542.149 314.027C541.69 314.399 541.103 314.395 540.555 314.233C540.243 314.138 539.89 313.915 540.029 313.529C540.478 312.286 540.831 311.05 542.535 310.813C544.281 310.571 545.476 309.562 546.13 307.761C547.097 305.101 548.799 302.907 551.143 301.245C551.584 300.933 551.943 300.503 552.443 300.028C550.934 298.161 550.929 296.053 551.495 293.966C551.991 292.146 551.307 290.972 549.907 289.995C549.086 289.423 548.275 288.838 547.454 288.265C545.737 287.066 545.707 287.052 546.206 284.989C546.467 283.91 546.833 282.854 547.146 281.787C547.394 280.946 547.196 280.37 546.413 279.817C543.79 277.961 540.679 277.46 537.721 276.546C535.917 275.988 534.057 275.618 532.238 275.104C531.657 274.94 531.142 274.964 530.642 275.234C530.496 275.311 530.424 275.569 530.372 275.758C530.353 275.824 530.471 275.977 530.56 276.016C531.114 276.268 532.055 275.829 532.22 276.732C532.426 277.869 533.058 279.087 532.17 280.18C531.749 280.698 531.987 281.02 532.347 281.234C532.916 281.571 533.572 281.754 534.168 282.048C535.118 282.515 535.393 283.411 534.839 284.203C534.19 285.133 533.311 285.836 532.349 286.389C531.13 287.088 528.744 285.805 528.439 284.361C528.24 283.414 527.67 282.944 526.729 282.948C526.396 282.949 526.06 282.974 525.731 282.949C525.011 282.894 524.679 282.278 524.843 281.508C525.141 280.09 526.263 279.294 527.134 278.301C527.32 278.086 527.464 277.635 527.36 277.423C527.254 277.207 526.83 277.073 526.53 277.04C525.157 276.875 525.021 276.937 524.454 278.116C523.972 279.118 523.546 280.147 523.111 281.17C522.925 281.606 522.957 282.03 523.289 282.399L523.312 282.419L523.305 282.422ZM532.114 283.2C531.861 283.027 531.631 282.798 531.353 282.694C531.05 282.582 530.665 282.639 530.634 283.035C530.6 283.439 530.985 283.535 531.292 283.475C531.582 283.42 531.849 283.232 532.126 283.103C532.333 283.422 532.583 283.673 532.598 283.047C532.604 282.887 532.227 282.933 532.118 283.197L532.114 283.2ZM545.098 272.938C542.903 272.5 541.07 272.124 539.231 271.786C538.913 271.728 538.537 271.875 538.587 272.297C538.767 273.833 539.847 274.83 541.242 274.659C542.545 274.5 543.888 274.339 545.1 272.94L545.098 272.938ZM556.77 298.537C556.437 296.479 556.014 294.677 554.433 293.376C554.073 293.078 553.539 293.276 553.384 293.714C553.146 294.384 553.121 295.077 553.465 295.657C554.202 296.898 555.056 298.059 556.772 298.536L556.77 298.537Z" fill="#8DC0FF"/>
<path d="M552.63 210.456C552.596 209.867 552.35 209.373 551.879 209.032C551.342 208.643 550.737 208.343 550.215 207.934C549.409 207.301 549.502 205.909 550.381 205.404C550.758 205.189 551.2 205.016 551.628 204.974C552.982 204.834 553.939 204.378 554.055 202.805C554.091 202.304 554.517 201.814 554.816 201.352C555.218 200.73 555.812 200.51 556.548 200.661C558.186 200.999 559.792 201.433 561.132 202.497C561.531 202.814 561.851 203.114 562.054 202.376C562.206 201.833 562.35 201.167 561.758 200.886C560.461 200.271 559.126 199.721 557.762 199.276C556.889 198.993 556.14 198.564 555.433 198.019C554.513 197.309 554.424 196.871 554.828 195.718C555.164 194.751 555.713 193.915 556.371 193.161C556.93 192.521 557.384 191.637 558.4 191.666C558.928 191.681 558.819 192.953 558.148 194.382C557.959 194.783 557.722 195.165 557.574 195.58C557.537 195.683 557.761 195.903 557.9 196.027C557.954 196.075 558.152 196.052 558.217 195.991C559.218 195.047 559.535 193.698 560.202 192.554C560.318 192.356 560.19 191.809 559.998 191.669C558.396 190.502 559.035 189.155 559.617 187.804C559.749 187.498 559.906 187.198 560.09 186.923C561.215 185.224 562.362 184.917 563.914 186.258C564.946 187.147 565.774 187.253 566.885 186.645C567.464 186.328 568.114 186.133 568.736 185.896C569.046 185.779 569.431 185.728 569.556 186.081C569.653 186.359 569.592 186.742 569.48 187.03C569.366 187.33 569.138 187.612 568.899 187.836C567.895 188.772 567.311 189.869 567.049 191.256C566.78 192.682 566.434 192.784 564.899 192.557C563.915 192.413 562.936 192.239 561.784 192.051C561.831 193.471 561.694 194.757 561.387 195.939C562.14 196.462 562.573 196.021 562.991 195.731C563.63 195.287 564.205 194.755 564.835 194.301C565.177 194.056 565.598 193.703 566.015 193.992C566.647 194.425 566.209 194.942 566.012 195.445C565.765 196.077 564.653 196.63 565.549 197.38C566.137 197.873 566.847 197.232 567.347 196.874C570.748 194.429 574.647 193.755 578.696 193.562C580.468 193.476 582.237 193.328 584.008 193.276C584.249 193.269 584.621 193.605 584.719 193.864C584.894 194.323 584.63 194.739 584.189 194.928C583.787 195.102 583.349 195.23 582.915 195.28C581.257 195.471 579.588 195.808 577.938 195.742C576.07 195.668 574.478 196.2 572.873 197.027C571.849 197.556 570.96 198.448 569.528 198.105C568.92 197.96 568.09 198.57 567.411 198.931C566.516 199.41 566.362 200.068 566.974 200.833C567.737 201.788 568.502 202.758 569.392 203.591C572.245 206.257 574.815 209.157 577.187 212.266C578.461 213.935 579.998 215.427 581.557 216.848C582.898 218.067 584.213 217.904 585.285 216.485C586.086 215.427 586.751 214.257 587.375 213.081C588.063 211.787 588.942 210.657 589.977 209.645C590.808 208.835 591.559 208.837 592.283 209.631C595.044 212.659 595.671 216.272 595.129 220.197C593.779 221.992 593.286 224.189 592.317 226.164C592.071 226.662 591.828 227.165 591.538 227.638C590.763 228.901 591.081 229.968 592.088 230.917C592.655 231.449 593.228 231.978 593.825 232.476C594.286 232.86 594.521 233.345 594.522 233.921C594.521 234.48 594.441 235.073 593.908 235.38C593.234 235.771 592.95 235.146 592.594 234.764C592.52 234.684 592.472 234.577 592.402 234.49C591.665 233.549 591.402 231.726 590.172 231.804C588.62 231.903 588.412 233.833 587.753 235.037C586.912 236.577 586.567 238.368 585.426 239.812C584.572 239.506 584.929 238.896 585.082 238.479C585.767 236.6 586.385 234.678 587.288 232.907C587.988 231.539 588.009 230.421 587.14 229.192C586.43 228.191 586.042 227.057 585.642 225.885C585.034 224.102 583.771 222.628 582.446 221.261C581.919 220.718 581.223 220.78 580.572 220.758C577.985 220.669 575.565 219.871 573.089 219.211C568.125 217.888 565.279 214.347 562.928 210.186C562.496 209.419 562.221 208.558 561.929 207.719C560.934 204.85 559.717 203.944 556.837 204.019C556.513 204.028 556.165 204.122 556.046 204.511C555.736 205.524 555.025 206.484 556.31 207.471C556.895 207.921 556.869 208.89 556.509 209.659C555.852 211.067 555.241 212.501 554.489 213.858C554.123 214.515 553.552 215.109 552.95 215.574C551.961 216.343 551.597 217.226 551.841 218.471C551.964 219.1 551.863 219.795 551.757 220.442C551.68 220.925 551.213 221.126 550.777 221.232C550.321 221.342 549.896 221.225 549.596 220.828C549.461 220.653 549.31 220.481 549.22 220.281C548.36 218.352 547.517 216.416 546.657 214.488C546.09 213.216 545.924 211.921 546.415 210.594C547.012 208.988 547.652 208.827 548.93 209.295C550.175 209.752 551.575 209.713 552.732 210.454C552.601 210.243 552.734 210.17 552.755 210.296C552.826 210.732 552.93 210.126 552.626 210.452L552.63 210.456ZM577.337 217.726C577.615 216.376 576.202 215.551 576.236 214.339C576.265 213.215 575.73 212.415 575.079 211.686C572.125 208.385 569.126 205.124 566.141 201.849C566.067 201.769 565.978 201.697 565.9 201.62C565.402 201.127 564.981 201.243 564.502 201.7C562.768 203.353 563.145 205.356 563.652 207.301C565.287 213.552 570.535 217.516 577.339 217.724L577.337 217.726ZM586.34 223.707C586.846 224.365 587.776 225.472 588.979 226.315C589.677 226.803 590.291 226.762 590.671 226.102C591.734 224.263 592.571 222.321 592.993 220.239C593.141 219.504 593.205 218.607 592.906 217.976C592.706 217.557 591.771 217.52 591.206 217.233C590.613 216.932 590.071 216.534 589.504 216.182C588.857 215.782 588.259 215.803 587.721 216.391C587.121 217.047 586.578 217.772 585.903 218.335C583.321 220.488 583.54 220.548 585.728 222.978C585.804 223.06 585.872 223.149 586.34 223.707ZM551.388 213.106C550.511 212.528 549.602 212.306 548.553 212.852C548.626 213.673 549.036 214.324 549.548 214.907C549.876 215.283 550.359 215.41 550.625 214.901C550.92 214.336 551.449 213.85 551.388 213.106ZM562.647 189.51C562.882 189.466 562.99 189.301 562.877 189.055C562.697 188.658 562.393 188.354 561.926 188.474C561.625 188.552 561.413 188.859 561.573 189.166C561.792 189.585 562.21 189.631 562.643 189.51L562.647 189.51Z" fill="#8DC0FF"/>
<path d="M562.619 61.3901C561.597 62.2472 560.561 63.0908 559.556 63.967C558.628 64.7777 557.917 65.7608 557.276 66.8207C556.718 67.7432 556.544 68.6219 556.876 69.6666C557.515 71.6798 557.998 73.7428 558.681 75.7388C559.396 77.8344 559.372 79.8653 558.667 81.9457C557.488 85.4197 556.369 88.9148 555.208 92.3957C554.903 93.3105 554.41 93.5916 553.412 93.3488C552.441 93.1155 551.473 92.8383 550.544 92.4729C547.231 91.1753 543.935 89.8351 540.633 88.5086C538.976 87.8429 538.638 87.8802 537.443 89.2106C536.779 89.9493 536.219 90.7888 535.639 91.6C534.896 92.6421 533.498 92.5723 532.753 91.3978C532.601 91.1588 532.539 90.7178 532.658 90.4815C532.952 89.8972 533.31 89.315 533.755 88.8375C535.96 86.485 535.95 86.269 533.029 84.5263C531.982 83.9001 530.961 83.2128 530.008 82.4486C529.059 81.6882 528.133 80.8698 527.342 79.9506C526.333 78.7794 526.232 77.3265 526.564 75.8675C526.618 75.6342 527.011 75.4272 527.291 75.3195C527.426 75.2678 527.727 75.4336 527.839 75.5862C528.439 76.4024 528.835 77.3188 529.005 78.3211C529.124 79.0226 529.498 79.5914 530.059 79.9634C531.911 81.1892 533.761 82.4235 535.681 83.5336C536.857 84.2135 537.149 84.0593 538.281 82.9931C540.065 81.3108 541.586 79.399 543.165 77.5258C546.103 74.0457 548.908 70.4464 552.165 67.2465C553.129 66.2979 553.456 65.2387 553.163 63.9207C552.875 62.6188 552.676 61.2966 552.431 59.9844C551.892 57.1214 551.824 54.2502 552.089 51.3483C552.344 48.5426 553.492 46.2366 555.538 44.3445C555.782 44.1173 556.042 43.9056 556.293 43.6879C559.267 41.1119 559.344 41.0958 562.263 43.8945C564.272 45.8217 566.199 47.8246 567.82 50.1074C568.448 50.9912 568.824 51.026 569.769 50.4019C570.882 49.6656 571.943 48.8665 572.825 47.8403C573.327 47.2602 573.919 46.7443 574.531 46.2797C575.014 45.913 575.568 45.9123 575.984 46.4514C576.333 46.9016 576.644 47.4156 576.26 47.9584C575.75 48.6788 575.177 49.3603 574.589 50.0227C573.777 50.9371 572.842 51.7507 572.109 52.7231C570.483 54.869 569.135 57.0605 569.918 60.0401C570.362 61.733 570.271 63.5711 570.37 65.3465C570.411 66.0871 569.654 66.3627 568.937 65.9912C568.277 65.6494 567.92 65.0996 567.781 64.4474C567.599 63.5816 567.541 62.6896 567.447 61.8051C567.366 61.0328 567.35 60.252 567.235 59.4855C567.025 58.0689 566.61 57.8755 565.595 58.698C564.559 59.538 563.547 60.4101 562.524 61.2689C562.556 61.3069 562.588 61.345 562.62 61.3831L562.619 61.3901ZM553.008 90.0127C554.073 86.6768 555.198 83.2087 556.281 79.728C556.577 78.7754 556.872 77.7663 556.623 76.7782C556.032 74.436 555.396 72.1021 554.349 69.7339C553.598 70.3644 552.955 70.7964 552.441 71.3508C548.906 75.1804 545.679 79.2698 542.455 83.3631C542.186 83.7062 542.008 84.1243 541.8 84.5133C541.055 85.9008 541.095 86.227 542.484 86.7739C545.372 87.9089 548.294 88.9571 551.213 90.0138C551.722 90.1996 552.271 90.3782 553.006 90.0108L553.008 90.0127ZM555.421 62.6325C559.712 60.6606 562.683 57.6648 565.789 54.8537C566.521 54.1914 566.637 53.3183 566.289 52.4133C566.052 51.7982 565.842 51.1345 565.447 50.629C564.287 49.1467 563.075 47.702 561.817 46.3026C561.063 45.466 560.508 45.4349 559.435 45.9208C556.786 47.1217 555.368 49.2876 554.868 52.049C554.249 55.4681 554.608 58.8549 555.423 62.6309L555.421 62.6325Z" fill="#8DC0FF"/>
<path d="M481.08 116.268C478.733 117.921 478.478 118.374 479.157 121.22C479.724 123.595 480.376 125.968 481.227 128.253C482.215 130.898 481.911 133.197 480.273 135.483C478.518 137.932 476.782 140.355 474.43 142.296C472.815 143.629 471.162 144.007 469.169 143.312C467.781 142.829 466.482 142.235 465.362 141.294C463.575 139.79 461.782 138.291 460.049 136.725C459.285 136.033 458.56 135.95 457.62 136.279C455.925 136.87 454.332 137.633 452.848 138.635C452.389 138.946 451.951 139.304 451.454 139.539C451.178 139.67 450.78 139.582 450.644 139.207C450.577 139.023 450.558 138.753 450.649 138.599C450.813 138.319 451.074 138.097 451.295 137.85C452.332 136.687 453.397 135.55 454.397 134.358C455.709 132.793 455.687 132.611 454.223 131.017C453.545 130.279 452.877 129.522 452.125 128.865C449.937 126.952 448.099 124.716 446.144 122.584C445.245 121.6 444.285 120.67 443.357 119.713C442.889 119.233 442.404 118.748 442.362 118.034C442.352 117.851 442.508 117.643 442.628 117.477C442.668 117.421 442.843 117.436 442.949 117.458C444.023 117.672 444.597 118.533 445.233 119.287C447.246 121.672 449.428 123.893 451.686 126.039C453.459 127.724 455.215 129.422 456.998 131.095C457.793 131.842 458.287 131.943 459.045 131.278C463.718 127.178 469.185 123.992 473.115 119.037C473.525 118.521 474.054 118.09 474.566 117.664C475.633 116.772 476.225 115.698 476.453 114.277C476.975 111.017 478.644 108.524 481.675 106.979C483.256 106.175 484.714 105.127 486.258 104.247C488.087 103.205 488.653 103.323 489.981 104.856C490.053 104.941 490.121 105.03 490.191 105.114C491.535 106.72 493.119 107.036 494.945 106.062C495.337 105.853 495.713 105.602 496.128 105.459C496.469 105.34 496.804 105.546 496.926 105.862C497.036 106.143 497.133 106.645 496.99 106.768C496.326 107.348 495.577 107.831 494.857 108.348C493.439 109.362 493.358 109.606 494.161 111.023C495.424 113.25 496.718 115.456 497.984 117.68C498.367 118.354 498.751 119.034 499.05 119.75C499.201 120.112 499.499 120.602 498.958 120.927C498.522 121.188 498.1 120.933 497.707 120.773C496.835 120.421 496.328 119.74 495.928 118.896C495.022 116.99 494.021 115.125 493.085 113.233C492.504 112.057 491.662 111.768 490.361 111.98C488.464 112.288 486.675 112.764 485.049 113.82C483.747 114.667 482.403 115.454 481.077 116.268L481.08 116.268ZM463.075 130.167C462.086 130.997 461.662 131.353 461.238 131.709C461.068 131.851 460.896 131.993 460.733 132.142C459.75 133.061 459.685 133.381 460.508 134.339C462.396 136.539 464.694 138.277 467.061 139.923C467.417 140.17 467.88 140.254 468.282 140.44C470.109 141.28 471.743 141.003 473.135 139.559C475.293 137.317 477.196 134.88 478.613 132.091C479.3 130.743 479.404 129.375 478.855 127.918C478.347 126.574 477.991 125.173 477.561 123.799C476.724 121.124 476.426 120.962 473.895 122.077C473.096 122.43 472.324 122.912 471.642 123.459C468.623 125.884 465.783 128.537 463.075 130.167ZM487.497 110.012C488.164 109.381 488.583 109.019 488.959 108.617C489.178 108.384 489.402 108.079 489.204 107.739C489.025 107.429 488.694 107.389 488.362 107.466C485.72 108.068 483.521 109.566 481.36 111.077C480.365 111.773 479.747 112.875 479.347 114.045C479.286 114.226 479.339 114.502 479.447 114.662C479.514 114.761 479.839 114.8 479.96 114.724C482.582 113.105 485.342 111.7 487.497 110.012Z" fill="#8DC0FF"/>
<path d="M516.274 453.456C515.276 452.266 514.114 450.916 512.991 449.536C511.592 447.81 509.79 446.811 507.614 446.477C506.185 446.258 504.75 445.899 503.322 445.913C500.363 445.941 498.529 444.334 497.234 441.969C496.168 440.019 495.227 437.993 494.366 435.943C492.643 431.842 491.022 427.697 489.334 423.58C487.937 420.169 485.64 417.543 482.426 415.703C473.333 410.495 464.028 405.734 454.106 402.281C449.895 400.817 445.596 399.63 441.239 398.733C438.192 398.104 435.05 398.087 431.93 398.198C431.377 398.218 430.823 398.303 430.269 398.301C429.94 398.298 429.61 398.172 429.499 397.792C429.355 397.296 429.594 396.882 429.977 396.681C430.455 396.428 431.009 396.23 431.543 396.191C435.99 395.862 440.376 395.827 444.79 396.982C454.968 399.638 464.602 403.614 474.01 408.246C477.006 409.722 479.94 411.295 482.832 412.961C486.61 415.137 489.423 418.057 491.082 422.224C492.644 426.145 494.341 430.022 495.855 433.967C496.733 436.253 497.792 438.449 498.999 440.592C499.861 442.12 501.051 442.882 502.695 443.083C504.132 443.259 505.574 443.498 507.015 443.492C510.051 443.482 512.378 444.892 514.274 447.048C516.038 449.048 517.687 451.157 519.251 453.319C520.52 455.07 521.995 456.518 523.902 457.536C525.472 458.372 525.853 458.246 526.139 456.582C526.593 453.951 526.883 451.288 527.431 448.677C528.096 445.521 528.939 442.404 529.747 439.28C529.91 438.647 530.229 438.045 530.532 437.46C530.608 437.315 530.913 437.199 531.092 437.224C531.254 437.247 531.511 437.479 531.512 437.62C531.52 438.279 531.583 438.979 531.392 439.593C529.322 446.325 528.375 453.282 527.282 460.204C526.842 462.986 525.846 463.221 523.694 461.352C520.99 458.999 518.276 456.746 516.269 453.457L516.274 453.456Z" fill="#8DC0FF"/>
<path d="M582.758 142.612C583.714 142.446 584.366 142.314 585.022 142.224C585.608 142.144 586.111 141.91 586.42 141.417C587.591 139.559 588.915 137.783 589.773 135.496C585.37 134.069 581.679 131.571 577.821 129.392C577.046 128.955 576.228 128.594 575.424 128.212C575.123 128.069 574.804 127.956 574.487 127.853C573.882 127.657 573.468 128.001 573.456 128.706C573.452 128.929 573.466 129.151 573.471 129.373C573.602 134.547 571.392 138.841 568.408 142.84C568.217 143.095 567.915 143.273 567.645 143.461C567.332 143.679 566.636 143.325 566.594 142.942C566.458 141.749 566.957 140.775 567.661 139.88C569.059 138.107 569.981 136.097 570.738 133.986C571.439 132.039 571.423 130.061 571.175 128.05C570.985 126.51 569.958 125.461 569.067 124.325C568.527 123.639 568.471 122.924 568.951 122.167C569.37 121.508 569.991 121.269 570.648 121.6C570.943 121.748 571.205 121.963 571.493 122.133C575.997 124.796 580.494 127.467 585.008 130.111C586.741 131.125 588.511 132.053 590.519 132.441C591.414 132.615 591.985 132.414 592.416 131.572C593.177 130.088 594.031 128.648 594.833 127.186C595.265 126.399 595.736 125.643 596.502 125.137C596.662 125.032 596.947 124.965 597.103 125.035C597.267 125.111 597.408 125.36 597.456 125.556C597.616 126.23 597.499 126.898 597.213 127.511C596.092 129.934 595.055 132.407 593.769 134.741C592.921 136.284 591.69 137.615 590.648 139.054C589.093 141.202 587.197 143.166 586.858 145.983C586.833 146.186 586.698 146.461 586.534 146.547C584.934 147.4 584.429 149.03 583.649 150.476C583.443 150.86 583.118 151.204 582.778 151.483C582.212 151.951 581.35 152.237 581.075 152.821C580.88 153.231 581.544 153.987 581.664 154.62C581.813 155.413 580.939 156.143 580.14 155.895C579.404 155.667 578.705 155.309 578 154.986C577.191 154.617 576.416 154.161 575.584 153.861C574.77 153.567 574.36 154.083 574.141 154.903C575.228 155.395 576.355 155.831 577.312 156.611C577.962 157.143 578.353 157.736 578.467 158.552C578.593 159.448 578.23 160.035 577.319 160.267C576.998 160.348 576.657 160.355 576.325 160.384C575.559 160.453 575.092 160.78 575.109 161.635C575.121 162.303 575.092 162.986 574.608 163.522C574.301 163.864 573.904 164.051 573.431 164.039C572.913 164.029 572.583 163.748 572.493 163.269C572.137 161.408 571.768 159.554 570.931 157.83C570.675 157.305 570.679 156.75 570.87 156.205C571.458 154.53 572.043 152.855 572.649 151.186C573.317 149.34 575.295 148.534 576.158 146.83C576.211 146.724 576.587 146.697 576.773 146.755C577.416 146.965 577.766 146.749 578.082 146.16C578.711 144.99 579.592 143.965 579.934 142.63C580.097 141.994 580.421 141.388 580.73 140.798C581.189 139.923 581.621 139.009 582.642 138.622C583.801 139.528 583.04 140.595 582.895 141.608C582.866 141.824 582.834 142.042 582.756 142.598L582.758 142.612ZM577.789 150.288C577.573 150.038 577.328 149.735 577.009 149.911C576.651 150.111 576.753 150.525 576.98 150.746C577.178 150.94 577.589 151.14 577.792 151.057C578.222 150.882 577.925 150.543 577.789 150.288Z" fill="#8DC0FF"/>
<path d="M495.688 246.407C495.333 246.449 495.102 246.539 494.916 246.481C494.54 246.365 494.486 246.011 494.537 245.677C494.691 244.652 495.263 243.819 495.84 243C498.98 238.529 501.442 233.655 504.154 228.93C504.87 227.684 505.434 226.332 505.917 224.973C507.264 221.193 508.865 217.527 510.672 213.947C511.324 212.658 511.963 211.356 512.52 210.023C515.47 202.98 519.529 196.633 524.524 190.881C530.88 183.563 536.492 175.691 541.888 167.653C543.809 164.793 545.868 162.027 547.832 159.195C552.588 152.343 557.416 145.542 561.874 138.489C562.112 138.115 562.358 137.74 562.655 137.418C562.776 137.288 563.074 137.21 563.24 137.265C563.417 137.321 563.584 137.54 563.669 137.726C563.965 138.376 563.921 139.042 563.567 139.648C562.778 140.987 562.017 142.352 561.135 143.631C556.455 150.399 551.743 157.146 547.039 163.899C543.226 169.372 539.39 174.829 535.599 180.316C532.814 184.349 529.809 188.217 526.56 191.874C521.339 197.747 517.184 204.27 513.987 211.442C511.633 216.722 509.064 221.904 507.005 227.32C505.458 231.391 502.913 234.96 500.78 238.735C499.577 240.863 498.208 242.898 496.881 244.952C496.525 245.504 496.05 245.977 495.697 246.407L495.688 246.407Z" fill="#8DC0FF"/>
<path d="M516.325 424.056C517.584 427.724 517.625 431.385 517.47 435.063C517.439 435.849 517.396 436.64 516.947 437.302C516.615 437.788 516.073 437.98 515.485 437.797C515.014 437.649 514.75 437.238 514.76 436.786C514.773 436.126 514.94 435.471 514.994 434.809C515.093 433.594 515.169 432.375 515.235 431.159C515.466 426.923 513.378 424.017 509.964 421.803C508.177 420.643 506.225 419.854 504.323 418.947C503.305 418.461 503.153 418.063 503.502 417.131C504.051 415.668 504.466 415.363 505.619 415.705C506.466 415.958 507.313 416.252 508.111 416.628C515.406 420.045 523.1 422.175 530.967 423.751C531.402 423.836 531.846 423.882 532.287 423.937C532.947 424.016 533.338 423.671 533.51 423.076C534.005 421.367 534.432 419.64 534.975 417.945C535.415 416.574 535.902 415.199 536.91 414.109C537.034 413.976 537.33 413.887 537.495 413.937C537.665 413.989 537.821 414.218 537.907 414.405C538.199 415.039 538.146 415.702 538.014 416.368C537.402 419.467 537.392 422.553 538.241 425.62C538.329 425.938 538.374 426.273 538.393 426.605C538.459 427.688 538.009 428.179 536.867 428.29C536.757 428.302 536.644 428.267 536.535 428.277C535.117 428.384 535.112 428.385 535.014 429.787C534.929 431.007 534.898 432.229 534.778 433.446C534.678 434.458 534.337 435.412 533.58 436.125C533.39 436.304 532.96 436.305 532.655 436.266C532.252 436.215 532.093 435.77 532.183 435.503C532.996 433.099 532.535 430.68 532.346 428.26C532.295 427.605 531.917 427.278 531.347 427.097C531.03 426.997 530.707 426.872 530.38 426.848C526.908 426.605 523.643 425.469 520.324 424.553C519.16 424.232 517.994 423.793 516.319 424.06L516.325 424.056Z" fill="#8DC0FF"/>
<path d="M649.621 191.042C648.096 190.067 646.59 188.975 644.904 188.291C644.637 188.564 644.409 188.694 644.342 188.88C642.408 194.279 638.936 198.83 636.138 203.75C635.71 204.504 635.331 205.397 634.303 205.539C634.003 205.58 633.595 205.53 633.389 205.35C633.187 205.175 633.023 204.716 633.113 204.488C633.479 203.561 633.879 202.635 634.391 201.781C635.875 199.3 637.426 196.856 638.934 194.388C640.036 192.584 641.098 190.752 641.77 188.732C642.376 186.913 642.236 186.463 640.799 185.284C640.628 185.142 640.414 185.057 640.243 184.915C638.717 183.629 638.613 182.98 639.645 181.209C640.311 180.063 641.383 179.838 642.392 180.704C642.979 181.207 643.449 181.848 644.016 182.381C645.646 183.906 647.46 185.19 649.342 186.391C651.528 187.787 653.556 187.545 655.495 185.982C656.709 185.006 657.856 183.946 659.058 182.957C659.742 182.393 660.443 181.834 661.203 181.387C661.634 181.136 662.219 180.791 662.713 181.271C663.131 181.68 663.168 182.262 663.138 182.829C663.086 183.81 662.451 184.489 661.788 185.052C660.347 186.27 658.891 187.502 657.305 188.518C653.485 190.961 650.561 194.287 647.815 197.802C646.172 199.904 644.609 202.071 643.012 204.209C642.747 204.565 642.516 204.95 642.226 205.284C641.83 205.74 641.307 205.951 640.744 205.655C640.109 205.319 640.196 204.746 640.499 204.242C641.187 203.1 641.853 201.938 642.644 200.869C644.559 198.276 646.552 195.737 648.483 193.154C648.939 192.544 649.528 191.982 649.621 191.042Z" fill="#8DC0FF"/>
<path d="M678.92 254.318C679.885 253.018 680.087 251.47 680.331 249.939C680.56 248.511 680.712 247.07 680.977 245.651C681.159 244.674 681.369 243.673 681.754 242.764C682.659 240.625 684.474 239.505 686.79 239.738C690.441 240.102 693.775 241.259 696.004 244.41C696.723 245.425 697.467 245.57 698.549 245.229C699.789 244.837 701.011 244.172 702.417 244.666C702.136 245.807 701.596 246.717 700.628 247.355C698.921 248.481 697.859 249.904 698.483 252.093C698.511 252.196 698.49 252.314 698.493 252.425C698.51 253.021 698.364 253.539 697.742 253.756C697.24 253.93 696.557 253.251 696.617 252.461C696.776 250.395 695.915 248.545 695.505 246.6C695.313 245.687 694.853 244.915 694.103 244.4C691.875 242.866 689.464 241.766 686.716 241.62C684.829 241.519 683.75 242.188 683.125 243.946C682.377 246.049 682.058 248.256 681.812 250.467C681.756 250.968 682.047 251.353 682.577 251.317C684.34 251.193 686.103 251.018 687.864 250.861L687.738 250.811C686.784 252.549 685.205 253.591 683.52 254.457C681.796 255.343 680.744 256.514 680.848 258.597C680.942 260.471 680.21 262.074 678.749 263.297C675.686 265.867 672.652 268.474 669.532 270.972C668.241 272.007 666.053 271.767 664.623 270.48C662.978 268.999 661.424 267.406 659.91 265.79C658.695 264.493 657.592 263.09 656.447 261.729C655.964 261.154 655.381 261.03 654.663 261.218C652.181 261.864 649.744 262.591 647.733 264.309C647.102 264.847 646.523 264.594 646.006 264.032C645.299 263.263 645.397 262.619 646.388 262.3C647.757 261.862 649.158 261.523 650.541 261.119C651.813 260.745 653.075 260.345 654.272 259.979C654.533 258.992 654.17 258.336 653.678 257.714C652.298 255.973 650.934 254.217 649.539 252.488C649.039 251.869 649.054 251.299 649.513 250.696L649.445 250.708C650.794 253.261 652.824 255.317 654.513 257.624C655.04 258.345 655.768 258.316 656.559 258.394C660.396 258.775 663.976 257.571 667.618 256.73C669.766 256.235 671.892 255.651 674.043 255.173C674.663 255.036 675.31 254.752 675.975 255.027L675.985 254.912C675.442 255.539 674.688 255.734 673.93 255.936C670.601 256.832 667.284 257.793 663.938 258.618C662.058 259.083 660.433 260.012 658.802 260.966C658.254 261.286 658.115 261.831 658.506 262.382C660.382 265.027 662.496 267.454 665.202 269.293C667.018 270.526 668.43 270.451 670.048 269.06C671.906 267.466 673.739 265.84 675.571 264.215C676.488 263.4 677.304 262.502 678.003 261.48C679.566 259.202 679.956 256.812 678.91 254.225L678.916 254.321L678.92 254.318Z" fill="#8DC0FF"/>
<path d="M531.565 228.067C530.865 228.025 530.262 228.281 529.613 228.716C529.821 229.517 530.087 230.339 530.239 231.181C530.339 231.733 530.237 232.338 529.628 232.586C529.065 232.815 528.544 232.662 528.176 232.13C527.61 231.308 527.047 230.483 526.469 229.667C525.467 228.253 525.483 227.839 526.4 226.371C526.726 225.851 527.122 225.555 527.707 225.479C528.037 225.436 528.369 225.403 528.704 225.385C531.335 225.237 531.621 224.426 530.969 221.856C530.696 220.781 530.257 219.752 529.917 218.694C529.711 218.047 529.593 217.393 530.122 216.81C530.414 216.486 530.665 216.023 531.174 216.19C531.445 216.277 531.721 216.564 531.849 216.833C533.011 219.264 533.849 221.785 533.813 224.488C534.469 225.011 535.112 224.75 535.751 224.584C536.631 224.355 537.499 224.327 538.384 224.597C538.835 224.733 539.376 225.369 539.758 224.546C540.04 223.936 539.55 223.518 539.232 223.074C538.908 222.622 538.551 222.189 538.277 221.708C537.3 219.982 538.585 217.184 540.731 217.323C541.284 217.359 541.843 217.327 542.394 217.388C543.232 217.483 543.661 217.952 543.656 218.645C543.651 219.411 543.272 219.907 542.568 220.135C542.26 220.234 541.914 220.236 541.584 220.26C541.15 220.29 540.635 220.233 540.651 220.874C540.665 221.359 541.032 221.683 541.424 221.88C541.804 222.07 542.243 222.149 542.663 222.241C542.98 222.309 543.558 222.249 543.595 222.374C544.072 223.962 545.971 224.688 546.063 226.485C546.092 227.061 546.034 227.645 545.501 227.956C545.013 228.239 544.438 228.312 543.926 227.945C543.386 227.561 542.912 227.05 542.327 226.773C541.725 226.489 541.31 226.96 541.005 227.454C540.679 227.981 540.87 228.271 541.712 228.544C542.49 228.795 543.021 229.443 542.955 230.025C542.872 230.73 542.512 231.324 542 231.734C540.292 233.099 538.38 233.879 536.131 233.551C533.486 233.166 532.255 231.942 531.851 229.251C531.791 228.847 531.976 228.387 531.564 228.071L531.565 228.067ZM538.072 230.248C538.175 230.058 538.329 229.878 538.373 229.675C538.554 228.826 538.002 227.784 537.249 227.498C536.211 227.104 534.684 227.594 534.367 228.444C534.293 228.638 534.257 228.893 534.316 229.086C534.789 230.639 536.95 231.298 538.074 230.247L538.072 230.248Z" fill="#8DC0FF"/>
<path d="M567.111 179.594C567.34 178.893 567.544 178.148 567.824 177.43C568.48 175.751 569.363 174.212 570.946 173.243C571.971 172.617 572.475 171.74 572.823 170.621C573.218 169.356 573.794 168.142 574.358 166.936C575.043 165.469 576.175 164.717 577.848 165.039C578.743 165.209 579.589 165.339 580.309 164.544C580.527 164.302 580.959 164.388 581.203 164.64C581.818 165.272 582.424 165.918 582.986 166.599C583.386 167.083 583.013 168.126 582.348 168.145C580.607 168.199 579.826 169.215 579.31 170.695C578.768 172.25 577.71 173.627 577.779 175.398C577.788 175.676 577.485 175.979 577.296 176.248C577.095 176.53 576.246 176.496 576.11 176.183C575.673 175.171 575.285 174.137 574.848 173.126C574.663 172.697 573.509 172.663 573.438 173.099C573.151 174.847 571.824 175.657 570.564 176.558C570.389 176.682 570.264 176.884 570.13 177.061C569.511 177.876 569.408 178.955 569.895 179.523C570.407 180.122 571.501 180.213 572.342 179.643C572.983 179.209 573.534 178.649 574.163 178.193C574.409 178.015 574.807 177.817 575.025 178.209C575.167 178.463 575.24 178.862 575.145 179.124C574.272 181.526 572.396 183.088 570.433 184.55C570.229 184.701 569.747 184.675 569.502 184.537C567.86 183.611 566.241 182.648 564.634 181.66C564.232 181.414 564.033 180.89 564.184 180.494C564.321 180.132 564.726 179.718 565.085 179.637C565.694 179.496 566.356 179.599 567.107 179.601L567.111 179.594ZM577.061 170.062C577.21 169.807 577.397 169.546 577.519 169.259C577.632 168.996 577.906 168.619 577.435 168.483C577.196 168.414 576.806 168.544 576.61 168.724C576.285 169.02 576.242 169.468 576.345 169.904C576.368 170.004 576.437 170.18 576.478 170.178C576.662 170.169 576.845 170.11 577.059 170.063L577.061 170.062Z" fill="#8DC0FF"/>
<path d="M555.486 323.706C553.805 325.048 551.967 325.936 549.795 326.295C546.366 326.86 542.92 326.871 539.481 326.783C538.049 326.745 536.884 327.057 535.741 327.815C534.721 328.489 533.687 329.15 532.605 329.711C532.143 329.949 531.542 329.989 531.004 329.99C530.682 329.991 530.387 329.652 530.437 329.295C530.619 328.036 531.139 326.951 532.38 326.422C534.312 325.599 536.395 325.191 538.262 324.16C539.16 323.662 540.232 324.005 541.21 324.223C543.97 324.835 546.742 324.708 549.499 324.266C550.585 324.092 551.681 323.791 552.689 323.354C553.821 322.861 554.924 322.232 554.251 320.587C553.991 319.949 554.365 319.275 554.628 318.665C555.828 315.881 557.61 313.465 559.463 311.099C559.659 310.846 559.971 310.673 560.252 310.498C560.988 310.039 561.868 310.465 561.957 311.305C562.146 313.106 561.864 314.861 561.364 316.575C561.215 317.089 560.915 317.613 560.548 318.002C559.023 319.615 557.398 321.132 556.239 323.061C556.076 323.331 555.742 323.497 555.488 323.711L555.486 323.706Z" fill="#8DC0FF"/>
<path d="M512.023 297.448C511.79 298.542 511.689 299.646 511.897 300.756C511.929 300.933 512.113 301.175 512.265 301.209C512.425 301.246 512.757 301.108 512.8 300.978C513.033 300.24 513.222 299.488 513.391 298.73C513.993 296.022 515.504 293.882 517.503 292.03C518.489 291.115 519.493 291.339 520.586 291.794C521.589 292.214 521.829 293.002 521.782 293.946C521.756 294.494 521.707 295.073 521.504 295.574C521.281 296.135 521.194 296.989 520.283 296.869C519.636 296.782 519.569 296.154 519.352 295.635C518.876 294.497 517.784 294.262 517.108 295.183C515.932 296.783 514.954 298.495 514.854 301.015C516.92 298.814 519.222 299.649 521.368 299.63C521.978 299.623 522.246 300.352 522.195 300.901C522.018 302.727 521.557 304.421 519.627 305.236C519.117 305.45 518.652 305.785 518.132 305.965C517.699 306.114 517.234 306.018 517.012 305.542C516.827 305.143 516.729 304.703 516.568 304.29C516.377 303.804 516.01 303.626 515.524 303.823C514.808 304.112 514.104 304.437 513.19 304.838C513.637 306.058 513.629 307.447 513.532 308.812C514.615 309.353 515.212 308.279 516.06 308.239C516.387 308.224 516.836 308.113 517.026 308.278C517.765 308.926 517.756 309.832 517.597 310.712C517.487 311.316 517.044 311.707 516.436 311.712C515.891 311.715 515.346 311.556 514.8 311.466C511.029 310.839 510.954 311.044 511.887 307.388C512.056 306.72 512.151 306.053 511.549 305.54C509.992 304.219 510.007 302.452 510.117 300.65C510.184 299.537 510.225 298.419 510.975 297.494L510.873 297.453C511.24 297.489 511.611 297.525 511.978 297.561L512.03 297.452L512.023 297.448ZM519.504 302.397C519.612 302.219 519.854 301.967 519.803 301.88C519.626 301.564 519.277 301.504 518.979 301.693C518.837 301.783 518.685 302.072 518.733 302.207C518.868 302.603 519.191 302.549 519.506 302.398L519.504 302.397Z" fill="#8DC0FF"/>
<path d="M541.083 211.271C540.02 212.072 539.208 212.938 538.893 214.205C538.762 214.736 538.494 215.244 538.234 215.734C537.661 216.828 536.701 217.303 535.497 217.304C534.121 217.307 533.223 216.546 532.607 215.399C532.23 214.694 532.652 213.59 533.401 213.092C533.76 212.852 534.028 212.997 534.29 213.189C534.646 213.451 534.939 213.815 535.319 214.025C535.728 214.25 536.252 214.218 536.483 213.775C537.25 212.301 538.085 210.777 537.216 209.085C536.859 208.393 536.965 207.824 537.161 207.189C538.189 203.855 539.916 200.887 541.95 198.084C542.061 197.93 542.317 197.806 542.509 197.8C542.893 197.786 543.038 198.109 543.146 198.42C543.42 199.199 543.308 199.946 542.976 200.682C542.796 201.082 542.594 201.498 542.538 201.925C542.454 202.575 542.921 202.904 543.464 203.13C544.002 203.353 544.327 203.022 544.542 202.637C545.137 201.57 545.684 200.475 546.251 199.393C546.414 199.085 546.652 198.843 547.017 198.873C547.6 198.922 547.607 199.429 547.716 199.844C547.959 200.768 547.716 201.579 547.23 202.379C545.841 204.657 544.488 206.954 543.128 209.25C542.605 210.133 541.916 210.835 541.077 211.272L541.083 211.271ZM539.8 208.812C540.056 209.116 540.39 209.144 540.669 208.923C540.919 208.723 541.132 208.44 541.274 208.153C541.598 207.485 542.259 206.843 541.693 206.03C541.528 205.795 541.087 205.523 540.874 205.591C539.928 205.889 539.694 206.799 539.413 207.612C539.26 208.055 539.468 208.477 539.802 208.813L539.8 208.812Z" fill="#8DC0FF"/>
<path d="M540 295.422C538.521 294.211 537.17 293.077 535.786 291.984C534.849 291.246 533.695 291.3 532.585 291.252C529.52 291.115 526.715 290.047 523.948 288.84C523.846 288.795 523.753 288.731 523.655 288.68C521.94 287.745 521.789 287.213 522.76 285.535C523.337 284.538 523.654 284.464 524.554 285.142C525.353 285.747 526.206 286.3 526.919 286.992C528.719 288.735 530.964 289.355 533.329 289.411C535.373 289.46 536.963 290.114 538.324 291.632C539.733 293.203 541.703 294.175 543.015 295.87C543.354 296.309 543.732 296.717 544.038 297.178C544.43 297.773 544.094 298.496 543.397 298.767C542.16 299.247 540.568 298.656 539.601 299.733C538.722 300.714 538.089 301.917 537.092 302.828C536.684 303.199 536.363 303.673 535.934 304.017C535.58 304.301 535.107 304.344 534.678 304.111C534.176 303.838 534.235 303.428 534.451 302.991C534.743 302.399 534.894 301.718 535.517 301.34C537.74 299.991 538.46 297.558 539.998 295.42L540 295.422Z" fill="#8DC0FF"/>
<path d="M565.247 171.176C564.205 171.255 563.133 171.396 562.059 171.402C561.152 171.407 560.685 170.657 560.988 169.786C561.464 168.417 562.043 167.091 563.25 166.189C564.58 165.196 565.361 163.944 565.337 162.248C565.314 160.574 566.205 159.311 567.216 158.112C567.666 157.579 567.903 156.423 568.826 156.91C569.507 157.27 569.484 158.331 569.223 159.059C568.726 160.449 568.809 161.602 569.929 162.683C570.287 163.028 570.423 163.657 570.543 164.182C570.743 165.055 570.102 165.743 569.213 165.518C568.342 165.299 567.582 164.869 566.879 165.881C566.468 166.473 566.025 166.877 566.88 167.447C568.061 168.237 568.101 169.462 567.991 170.718C567.884 171.943 567.696 173.152 566.967 174.176C566.814 174.388 566.381 174.551 566.13 174.496C565.879 174.44 565.591 174.117 565.5 173.85C565.217 173.014 565.798 172.091 565.245 171.17L565.247 171.176Z" fill="#8DC0FF"/>
<path d="M557.869 185.501C557.614 185.715 557.371 185.942 557.103 186.141C556.491 186.593 555.861 186.57 555.274 186.106C554.12 185.193 553.277 184.035 552.699 182.685C552.306 181.765 552.599 180.962 553.148 180.203C553.527 179.677 554.191 179.607 554.507 180.123C554.794 180.589 554.994 181.105 555.257 181.589C556.176 183.27 556.638 183.366 557.955 182.111C558.351 181.733 558.845 181.345 559.016 180.864C559.325 179.992 560.49 179.342 559.798 178.181C558.812 178.187 558.309 179.018 557.587 179.475C557.22 179.709 556.844 179.945 556.446 180.111C556.272 180.183 555.981 180.145 555.823 180.037C555.676 179.94 555.528 179.655 555.568 179.502C556.166 177.232 557.652 175.622 559.579 174.427C560.408 173.913 562.078 174.941 562.461 176.096C562.708 176.839 562.78 177.605 562.57 178.385C561.907 180.848 560.048 183.693 557.866 185.501L557.869 185.501Z" fill="#8DC0FF"/>
<path d="M542.365 386.951C542.43 387.21 542.623 387.548 542.568 387.838C542.421 388.593 542.239 389.362 541.936 390.067C540.176 394.155 538.452 398.262 536.567 402.293C535.34 404.918 534.167 407.557 533.12 410.258C532.722 411.282 532.418 412.388 531.512 413.128C531.362 413.251 531.074 413.32 530.903 413.263C530.742 413.21 530.541 412.951 530.546 412.787C530.556 412.351 530.586 411.885 530.751 411.49C531.989 408.511 532.918 405.412 534.426 402.538C536.495 398.591 538.21 394.481 539.853 390.339C540.303 389.21 540.64 388.012 541.458 387.06C541.689 386.791 541.972 386.706 542.365 386.954L542.365 386.951Z" fill="#8DC0FF"/>
<path d="M550.16 190.689C551.198 190.352 551.964 190.586 552.458 191.391C552.572 191.577 552.624 191.813 552.764 191.971C554.134 193.527 554.305 193.97 553.55 195.087C553.064 195.806 552.405 196.431 551.74 196.998C551.439 197.258 550.852 197.493 550.539 197.371C549.417 196.93 548.157 196.537 547.333 195.733C546.532 194.953 545.877 193.809 546.598 192.435C547.676 190.382 548.643 188.27 550.095 186.439C550.208 186.299 550.549 186.168 550.665 186.237C550.918 186.388 551.249 186.655 551.27 186.896C551.317 187.431 551.276 188.008 551.115 188.515C550.889 189.224 550.52 189.884 550.157 190.685L550.16 190.689Z" fill="#8DC0FF"/>
<path d="M519.061 233.95C520.483 233.976 521.725 235.059 523.198 234.689C523.681 233.696 522.975 232.963 522.735 232.159C522.434 231.156 522.955 230.443 523.466 229.739C523.772 229.316 524.24 229.355 524.557 229.78C525.957 231.66 526.486 233.685 525.695 236C525.233 237.35 524.287 237.957 522.987 238.038C521.429 238.136 519.914 237.798 518.474 237.207C517.9 236.971 517.645 236.443 517.848 235.854C518.094 235.135 518.356 234.389 519.065 233.951L519.061 233.95Z" fill="#8DC0FF"/>
<path d="M649.517 250.697C648.712 250.587 648.055 250.194 647.578 249.564C646.058 247.556 644.567 245.531 643.205 243.398C645.747 245.43 647.431 248.191 649.426 250.708C649.451 250.71 649.517 250.697 649.517 250.697Z" fill="#8DC0FF"/>
<path d="M616.548 289.198C618.481 289.13 620.198 289.638 621.585 291.053L621.609 290.965C619.669 291.025 618.053 290.212 616.552 289.087L616.548 289.198Z" fill="#8DC0FF"/>
<path d="M574.158 375.475C573.524 376.149 572.665 376.28 571.81 376.378C571.706 376.39 571.452 376.094 571.462 375.956C571.53 374.959 573.123 374.293 574.025 374.892C574.142 374.969 574.114 375.265 574.159 375.477L574.158 375.475Z" fill="#8DC0FF"/>
<path d="M610.968 287.741C612.227 287.229 613.244 287.78 614.22 288.492L614.234 288.415C612.776 288.682 612.254 288.562 610.977 287.659L610.966 287.739L610.968 287.741Z" fill="#8DC0FF"/>
<path d="M607.735 286.778C608.945 286.659 610.072 286.809 610.969 287.743L610.98 287.662C609.757 288.237 608.742 287.568 607.692 287.109L607.733 286.78L607.735 286.778Z" fill="#8DC0FF"/>
<path d="M447.895 231.552C448.964 231.022 450.084 231.171 451.203 231.299L451.217 231.188C450.18 232.174 449.065 232.089 447.907 231.439C447.906 231.442 447.897 231.551 447.897 231.551L447.895 231.552Z" fill="#8DC0FF"/>
<path d="M63.7078 473.991C63.2304 474.229 62.8425 474.107 62.4576 473.911C62.218 473.788 62.0907 473.57 62.2413 473.36C62.4577 473.061 62.8165 473.072 63.0831 473.27C63.3283 473.45 63.4954 473.738 63.7078 473.991Z" fill="#8DC0FF"/>
<path d="M523.281 282.401C523.183 282.57 523.019 282.734 523 282.912C522.954 283.372 522.893 283.774 522.288 283.691C522.201 283.68 522.083 283.581 522.056 283.499C521.888 282.963 522.215 282.708 522.652 282.552C522.856 282.478 523.08 282.463 523.298 282.422C523.303 282.424 523.28 282.404 523.28 282.404L523.281 282.401Z" fill="#8DC0FF"/>
<path d="M70.7966 469.972C70.4163 470.33 70.0379 470.687 69.5632 471.137C69.7391 470.373 70.4036 470.416 70.7568 470.045C70.7637 470.026 70.7985 469.971 70.7985 469.971L70.7966 469.972Z" fill="#8DC0FF"/>
<path d="M443.961 232.852C443.678 232.785 443.393 232.654 443.112 232.663C442.458 232.683 441.978 232.463 441.7 231.869C441.698 231.886 441.699 231.944 441.699 231.944C442.012 231.97 442.341 232.064 442.637 232.004C443.435 231.843 443.834 232.18 443.976 232.917C443.976 232.904 443.963 232.854 443.963 232.854L443.961 232.852Z" fill="#8DC0FF"/>
<path d="M445.476 231.234C446.205 231.91 447.141 231.063 447.895 231.556C447.895 231.552 447.904 231.444 447.905 231.44C446.577 232.373 446.451 232.362 445.451 231.197L445.477 231.236L445.476 231.234Z" fill="#8DC0FF"/>
<path d="M614.224 288.492C615.189 288.101 615.896 288.561 616.549 289.2L616.554 289.09C615.653 289.314 614.82 289.299 614.239 288.418L614.225 288.494L614.224 288.492Z" fill="#8DC0FF"/>
<path d="M175.269 369.577C175.758 369.361 176.246 369.146 176.734 368.925C176.731 368.921 176.729 368.868 176.729 368.868C176.378 369.269 176.027 369.674 175.677 370.075L175.801 370.084C175.626 369.883 175.454 369.681 175.277 369.479L175.267 369.579L175.269 369.577Z" fill="#8DC0FF"/>
<path d="M677.45 254.675C677.888 254.347 678.301 253.912 678.92 254.317L678.916 254.224C678.469 254.534 678.052 254.971 677.44 254.57L677.452 254.677L677.45 254.675Z" fill="#8DC0FF"/>
<path d="M675.979 255.028C676.416 254.687 676.809 254.166 677.45 254.675L677.438 254.569C677.024 254.975 676.613 255.385 675.988 254.91L675.977 255.026L675.979 255.028Z" fill="#8DC0FF"/>
<path d="M621.585 291.052C622.299 290.717 622.591 291.331 623.001 291.681L623.01 291.553C622.402 291.697 621.96 291.442 621.61 290.966L621.587 291.054L621.585 291.052Z" fill="#8DC0FF"/>
<path d="M440.112 233.376C440.289 232.517 441.115 232.392 441.693 231.965C441.697 231.943 441.697 231.884 441.7 231.869C441.481 232.662 440.829 232.986 440.121 233.271C440.118 233.294 440.112 233.376 440.112 233.376Z" fill="#8DC0FF"/>
<path d="M445.449 231.194C445.481 232.218 444.503 232.312 443.964 232.832C443.963 232.853 443.976 232.904 443.976 232.916C444.091 232.026 444.874 231.726 445.479 231.25C445.479 231.234 445.451 231.196 445.451 231.196L445.449 231.194Z" fill="#8DC0FF"/>
<path d="M460.33 232.232C460.671 231.947 460.583 232.607 460.562 232.161C460.56 232.092 460.521 231.969 460.488 231.964C460.237 231.931 460.175 232.039 460.305 232.257L460.334 232.233L460.33 232.232Z" fill="#8DC0FF"/>
<path d="M580.541 320.67C580.606 320.654 580.716 320.608 580.731 320.628C580.876 320.841 580.83 320.944 580.623 320.884C580.58 320.871 580.568 320.745 580.541 320.67Z" fill="#8DC0FF"/>
<path d="M453.219 232.118C453.645 231.663 454.073 231.211 454.498 230.756L454.478 230.721C454.053 231.188 453.628 231.655 453.196 232.121C453.193 232.117 453.221 232.12 453.221 232.12L453.219 232.118Z" fill="#8DC0FF"/>
<path d="M458.189 231.172C457.818 230.78 457.594 230.899 457.472 231.375L457.457 231.504C457.731 231.387 458.006 231.271 458.277 231.16C458.273 231.163 458.189 231.172 458.189 231.172Z" fill="#8DC0FF"/>
<path d="M457.472 231.375C457.147 231.521 456.824 231.704 456.467 231.453L456.457 231.565C456.773 231.261 457.114 231.386 457.455 231.506C457.457 231.504 457.472 231.375 457.472 231.375Z" fill="#8DC0FF"/>
<path d="M510.415 296.362C510.859 296.378 510.323 296.805 510.63 296.483C510.802 296.303 510.768 296.192 510.53 296.136C510.094 296.034 510.773 296.094 510.412 296.355L510.417 296.36L510.415 296.362Z" fill="#8DC0FF"/>
<path d="M511.463 297.056C511.647 297.19 511.831 297.324 512.021 297.454C512.025 297.447 511.971 297.557 511.971 297.557C511.799 297.351 511.625 297.144 511.454 296.937L511.465 297.058L511.463 297.056Z" fill="#8DC0FF"/>
<path d="M455.555 231.177C455.92 231.152 456.235 231.245 456.454 231.564C456.454 231.564 456.463 231.452 456.465 231.454C456.026 231.631 455.748 231.469 455.589 231.051C455.586 231.06 455.555 231.177 455.555 231.177Z" fill="#8DC0FF"/>
<path d="M510.41 296.353C510.762 296.587 511.112 296.822 511.463 297.056L511.453 296.935C511.256 297.106 511.059 297.278 510.865 297.447L510.967 297.488C510.842 297.084 510.862 296.606 510.415 296.359L510.412 296.351L510.41 296.353Z" fill="#8DC0FF"/>
<path d="M454.496 230.758C454.849 230.903 455.199 231.047 455.552 231.186C455.555 231.177 455.586 231.06 455.589 231.051C455.073 231.484 454.774 231.131 454.479 230.73C454.475 230.721 454.496 230.758 454.496 230.758Z" fill="#8DC0FF"/>
<path d="M459.019 232.149C458.742 231.827 458.462 231.504 458.187 231.177C458.191 231.174 458.274 231.165 458.278 231.162C458.267 231.671 457.853 232.479 459 232.13L459.017 232.151L459.019 232.149Z" fill="#8DC0FF"/>
<path d="M452.162 231.866C452.608 231.547 452.876 231.975 453.216 232.117C453.218 232.119 453.191 232.119 453.196 232.121C452.955 231.717 452.548 231.769 452.165 231.757C452.164 231.745 452.166 231.866 452.166 231.866L452.162 231.866Z" fill="#8DC0FF"/>
<path d="M580.382 318.641L580.309 318.744C580.309 318.744 580.449 318.613 580.458 318.612C580.466 318.609 580.383 318.643 580.383 318.643L580.382 318.641Z" fill="#8DC0FF"/>
<path d="M451.203 231.299C451.674 231.215 451.985 231.412 452.163 231.856C452.162 231.866 452.164 231.745 452.163 231.755C451.765 231.717 451.338 231.711 451.216 231.194C451.217 231.187 451.203 231.299 451.203 231.299Z" fill="#8DC0FF"/>
<path d="M459 232.129C459.443 232.163 459.887 232.199 460.331 232.232C460.331 232.232 460.304 232.255 460.302 232.256C459.914 231.771 459.478 231.842 459.018 232.147L458.998 232.128L459 232.129Z" fill="#8DC0FF"/>
<path d="M463.445 231.644C463.357 231.66 463.267 231.677 463.179 231.692C463.152 231.497 463.234 231.513 463.426 231.742L463.445 231.644Z" fill="#8DC0FF"/>
<path d="M463.425 231.741C463.738 231.53 464.051 231.316 464.364 231.106L464.348 231.106C464.047 231.281 463.746 231.455 463.445 231.637C463.444 231.644 463.423 231.743 463.423 231.743L463.425 231.741Z" fill="#8DC0FF"/>
<path d="M464.364 231.106C464.679 231.481 464.995 231.858 465.31 232.233L465.409 232.243C465.058 231.863 464.705 231.485 464.352 231.107L464.366 231.108L464.364 231.106Z" fill="#8DC0FF"/>
<path d="M465.307 232.234C465.361 232.182 465.417 232.132 465.471 232.081C465.293 231.977 465.265 232.029 465.402 232.239C465.406 232.243 465.308 232.231 465.308 232.231L465.307 232.234Z" fill="#8DC0FF"/>
<path d="M512.99 267.711C513.369 267.668 513.648 267.823 513.842 268.147L513.889 268.056C513.593 267.908 513.298 267.761 513.004 267.612L512.992 267.713L512.99 267.711Z" fill="#8DC0FF"/>
<path d="M513.842 268.147C514.145 268.013 514.408 267.605 514.787 268.013L514.812 267.927C514.506 267.96 514.201 267.992 513.892 268.041C513.889 268.056 513.842 268.147 513.842 268.147Z" fill="#8DC0FF"/>
<path d="M514.787 268.013C515.08 268.062 515.376 268.109 515.674 268.155C515.677 268.151 515.726 268.082 515.726 268.082C515.423 268.03 515.12 267.977 514.815 267.928C514.813 267.929 514.788 268.015 514.788 268.015L514.787 268.013Z" fill="#8DC0FF"/>
<path d="M516.971 267.971C517.304 267.981 517.633 267.99 517.965 268L517.839 267.973C517.564 267.947 517.288 267.919 517.013 267.893L516.971 267.971Z" fill="#8DC0FF"/>
<path d="M176.469 366.653C176.509 366.353 176.493 366.269 176.36 366.628C176.363 366.632 176.469 366.653 176.469 366.653Z" fill="#8DC0FF"/>
<path d="M176.442 367.61C176.454 367.292 176.463 366.976 176.472 366.657C176.469 366.653 176.363 366.632 176.36 366.628C176.351 366.95 176.344 367.274 176.335 367.599L176.44 367.612L176.442 367.61Z" fill="#8DC0FF"/>
<path d="M176.337 367.598C176.461 368.013 176.584 368.429 176.718 368.855C176.727 368.866 176.731 368.918 176.733 368.923C176.638 368.49 176.541 368.053 176.443 367.613C176.442 367.611 176.335 367.596 176.335 367.596L176.337 367.598Z" fill="#8DC0FF"/>
<path d="M517.965 268C517.914 268.036 517.863 268.072 517.814 268.11C518.034 268.124 518.036 268.08 517.83 267.974C517.838 267.973 517.965 268 517.965 268Z" fill="#8DC0FF"/>
<path d="M176.495 377.742C176.45 377.298 176.84 377.797 176.466 377.561C176.301 377.456 176.233 377.584 176.402 377.716L176.495 377.742Z" fill="#8DC0FF"/>
<path d="M176.398 377.715C176.282 377.858 176.167 378.007 176.04 378.142C176.031 378.15 175.879 378.066 175.883 378.04C175.932 377.681 176.217 377.747 176.476 377.738C176.491 377.741 176.396 377.717 176.396 377.717L176.398 377.715Z" fill="#8DC0FF"/>
<path d="M687.866 250.863C687.799 250.899 687.733 250.932 687.666 250.969C687.844 251.115 687.864 251.065 687.734 250.814C687.74 250.809 687.866 250.859 687.866 250.859L687.866 250.863Z" fill="#8DC0FF"/>
<path d="M517.013 267.893C516.558 267.753 516.135 267.843 515.726 268.075C515.723 268.078 515.676 268.15 515.672 268.153C516.16 268.541 516.562 268.259 516.967 267.978C516.971 267.974 517.013 267.893 517.013 267.893Z" fill="#8DC0FF"/>
</g>
<defs>
<clipPath id="clip0_483_1945">
<rect width="359.865" height="712.51" fill="white" transform="translate(545.811) rotate(49.9995)"/>
</clipPath>
</defs>
</svg>
