<svg width="119" height="119" viewBox="0 0 119 119" fill="none" xmlns="http://www.w3.org/2000/svg">
<path d="M60.8194 20.3304C61.3918 20.6034 61.9488 20.9172 62.5399 21.1408C63.1319 21.3633 63.7743 21.4559 64.368 21.6741C66.3615 22.4086 66.4731 22.6371 67.4884 24.2794C68.6483 26.1588 67.9606 28.8225 66.5925 29.8491C66.2984 30.07 65.948 30.2397 65.789 30.5978C65.741 30.7068 65.7411 30.8563 65.7676 30.9746C65.9112 31.6096 66.2459 32.1456 66.6679 32.6327C68.066 34.2439 68.6124 36.1778 68.7786 38.2485C68.8307 38.8944 68.6976 39.5121 68.3682 40.0809C67.847 40.9763 67.0186 41.3282 66.1206 40.987C64.6948 40.4448 63.2891 39.8584 61.9671 39.0801C60.5411 38.2388 59.1393 37.3643 57.7751 36.4296C57.5216 36.2556 57.2979 36.2754 57.0936 36.4535C56.903 36.6201 56.7834 36.8295 56.7659 37.1042C56.7568 37.2306 56.7551 37.3596 56.7636 37.4856C57.1434 43.6277 56.5127 49.6862 55.2819 55.6973C55.1802 56.194 55.1472 56.7047 55.0992 57.2105C55.0883 57.3277 55.1276 57.4625 55.1784 57.5725C55.6004 58.5062 56.5137 59.0924 56.8914 60.0786C57.2065 60.9008 57.4819 61.7586 58.0435 62.4729C58.2108 62.6853 58.797 62.8377 59.0855 62.6868C59.5352 62.4496 60.024 62.2591 60.4211 61.9526C61.9302 60.7864 63.5655 59.7883 65 58.5245C65.1895 58.357 65.4157 58.23 65.6084 58.0632C66.0114 57.7158 66.218 57.256 66.2709 56.7353C66.3365 56.1046 66.3863 55.472 66.4235 54.8384C66.4385 54.5826 66.3115 54.3565 66.12 54.1658C66.1228 54.1625 66.149 54.1904 66.149 54.1904C66.921 54.4539 67.3072 55.1445 67.8324 55.6863C68.0166 55.8765 68.314 55.8921 68.545 55.7979C69.4993 55.4105 70.3182 54.7841 71.1137 54.1628C73.9261 51.965 76.831 49.8914 79.6772 47.7375C81.3103 46.5017 83.0404 45.4323 84.8373 44.4653C85.4187 44.1517 86.0417 44.1493 86.6811 44.3928C88.2496 44.9884 89.6172 45.926 90.9763 46.8736C91.273 47.0804 91.4634 47.456 91.66 47.7812C91.7889 47.9937 91.8705 48.2487 91.9203 48.4959C92.9198 53.3697 93.9551 58.2375 94.5637 63.1815C94.5953 63.4343 94.6207 63.6877 94.6431 63.9424C94.7126 64.7104 94.6741 65.4656 94.4533 66.2143C94.2018 67.0674 94.0245 67.9392 93.6273 68.7515C93.4021 69.2128 93.4385 69.7457 93.5877 70.2494C93.6237 70.37 93.6682 70.492 93.7304 70.6021C94.7011 72.3311 94.9458 74.2093 94.879 76.1521C94.8528 76.9177 94.8579 77.6848 94.7836 78.4462C94.7093 79.2076 94.5318 79.9412 94.0845 80.6019C92.8661 82.3991 91.5469 84.1207 90.1955 85.8169C89.8825 86.2098 89.4585 86.5164 89.0831 86.8584C88.8697 87.0519 88.641 87.0731 88.3916 87.0348C88.06 86.9826 87.7245 86.6358 87.6787 86.2501C87.5848 85.4769 87.5384 84.7132 88.278 84.1807L88.1719 84.1906C88.381 84.331 88.5892 84.4724 88.8002 84.6106C89.2705 84.9181 89.5378 84.9351 89.8201 84.6716C90.1908 84.3237 90.5917 84.0013 90.9189 83.6166C91.6631 82.743 92.3893 81.8522 93.0822 80.9372C93.3058 80.6432 93.5077 80.2638 93.5412 79.9069C93.6846 78.3835 93.7945 76.8568 93.8491 75.3275C93.8858 74.3023 93.6894 73.2967 93.2841 72.3408C92.8867 71.403 92.5401 70.4411 92.0998 69.5245C91.8094 68.9225 91.2323 68.5803 90.5798 68.4792C89.8105 68.3598 89.0502 68.4952 88.3488 68.8397C87.1926 69.4071 86.1719 70.1678 85.2945 71.1128C84.5132 71.9531 83.7509 72.8095 82.9661 73.6449C82.8994 73.717 82.7201 73.7092 82.6011 73.689C82.5569 73.6824 82.4905 73.5228 82.5099 73.4567C82.5834 73.2179 82.6558 72.9667 82.789 72.7592C83.7597 71.2414 85.0201 69.9704 86.3264 68.7516C87.4774 67.6756 88.8548 67.0325 90.4519 66.9527C91.086 66.9214 91.7224 66.9553 92.3592 66.9435C92.7751 66.9366 93.2891 66.4147 93.3661 65.945C93.4074 65.6943 93.4785 65.4402 93.4661 65.1919C93.4346 64.5558 93.4027 63.9155 93.3023 63.2882C92.7755 60.0138 92.2988 56.7299 91.5558 53.4913C91.2709 52.248 91.0819 50.9842 90.7898 49.7425C90.6117 48.9805 90.1788 48.3385 89.5018 47.9081C88.6405 47.3602 87.7692 46.8287 86.8935 46.3069C86.6781 46.1785 86.4275 46.1009 86.1844 46.0257C85.6864 45.8711 85.1641 45.8245 84.688 46.0431C83.0588 46.7914 81.5511 47.7518 80.1166 48.8162C76.635 51.3952 73.1688 53.9967 69.7025 56.5962C69.1934 56.9786 68.7218 57.4118 68.2188 57.805C67.6884 58.2192 67.407 58.7403 67.3247 59.4182C67.2574 59.9671 66.8686 60.2978 66.323 60.4173C66.2006 60.4441 66.0696 60.4676 65.945 60.4562C64.8612 60.3642 63.9912 60.7653 63.1546 61.4535C61.975 62.4248 60.7016 63.2804 59.4713 64.1916C59.1379 64.4388 58.9755 65.141 59.1402 65.5946C59.7533 67.2706 60.3885 68.9384 60.9672 70.6256C61.1788 71.2414 61.093 71.8916 60.766 72.4757C60.579 72.8102 60.353 73.1252 59.9699 73.2633C59.612 73.3919 59.2411 73.4905 58.8844 73.6222C58.5278 73.7539 58.1492 73.8594 57.8349 74.0633C57.0863 74.5498 56.3499 75.0582 55.6482 75.6093C54.737 76.3245 53.9828 77.2031 53.4004 78.1981C52.1049 80.4132 50.4702 82.3741 48.8744 84.3639C48.4756 84.8606 48.0189 85.3102 47.6113 85.8014C47.0917 86.4297 46.4108 86.7205 45.624 86.8145C45.4976 86.8303 45.3704 86.8492 45.2451 86.866C46.5888 85.8705 47.7617 84.7075 48.756 83.3612C49.6685 82.1276 50.6067 80.9158 51.4063 79.6002C52.1365 78.3986 52.9524 77.252 53.8678 76.1782C54.6168 75.299 55.4101 74.4784 56.3591 73.8048C57.1906 73.2157 57.9795 72.5659 58.7861 71.9405C58.9578 71.8077 59.1001 71.102 59.0044 70.8524C58.7311 70.1326 58.4427 69.4173 57.8472 68.8928C57.3683 68.4707 56.8781 68.062 56.3719 67.6745C55.9257 67.3317 55.4202 67.3855 54.9191 67.5542C54.7979 67.5955 54.6678 67.6293 54.5646 67.6992C51.921 69.4933 51.579 69.5532 50.8738 72.2806C50.7137 72.8986 50.5218 73.5088 50.3363 74.1205C49.5586 76.6889 48.736 79.2424 47.7937 81.756C47.2545 83.192 46.7037 84.6259 45.9421 85.9621C45.7565 86.2882 45.4826 86.5646 45.249 86.8636C45.4762 87.046 45.5308 87.2762 45.3965 87.544C45.2664 87.8021 45.2273 88.0661 45.4037 88.2248C45.6126 88.4129 45.8031 88.5912 45.7592 88.8359C45.6233 89.5816 45.5712 90.3733 45.2752 91.0545C44.5086 92.8139 44.2067 94.7016 43.624 96.511C43.5466 96.7522 43.4328 96.9819 43.3236 97.2154C43.3101 97.2155 43.4303 97.2117 43.4303 97.2117C43.0651 97.0315 42.8397 96.7336 42.8217 96.3331C42.7763 95.3076 42.8735 94.2992 43.2578 93.3321C43.4929 92.7412 43.6601 92.1216 43.9243 91.5437C44.2683 90.7899 44.2871 90.0966 43.83 89.3767C43.6291 89.0611 43.5302 88.6747 43.7034 88.2883C43.8076 88.0563 43.9174 87.829 44.0215 87.5969C45.064 85.2754 46.0912 82.9446 46.9242 80.5399C47.8391 77.8977 48.793 75.2636 49.3327 72.5074C49.3821 72.254 49.2726 72.0004 49.063 71.8289C48.9961 71.7743 48.82 71.8056 48.718 71.8516C48.2567 72.0616 47.8108 72.3057 47.3455 72.5047C47.1149 72.6029 46.8564 72.6547 46.6065 72.6715C46.5176 72.6769 46.3951 72.5292 46.3314 72.4255C46.281 72.3446 46.2511 72.1986 46.2917 72.1256C46.4115 71.9068 46.5287 71.657 46.7192 71.5133C47.7307 70.743 48.776 70.0166 49.7853 69.2444C50.1923 68.9329 50.4635 68.4875 50.6603 68.0098C51.1481 66.8274 51.4818 65.605 51.6336 64.3302C51.6841 63.9033 51.5321 63.5524 51.2823 63.2857C50.147 62.071 48.871 61.0116 47.4449 60.1568C46.245 59.4358 45.0078 58.777 43.7833 58.0965C43.6765 58.0369 43.5354 58.0383 43.421 57.9877C42.9552 57.7837 42.3383 58.1439 42.2987 58.651C42.2276 59.5377 42.1295 60.4247 42.095 61.3136C42.0164 63.3632 41.6414 65.3577 41.0674 67.3201C40.7805 68.2967 40.4893 69.2715 40.1766 70.2491C40.155 70.252 40.2553 70.2467 40.2553 70.2467C39.8191 69.9124 39.6001 69.4935 39.7171 68.9311C39.7689 68.6816 39.7655 68.4181 39.8408 68.177C40.6178 65.723 40.8495 63.1837 41.0504 60.6356C41.1506 59.3652 41.323 58.1002 41.467 56.8323C41.5688 55.9274 41.9045 55.0995 42.3568 54.3241C43.1342 52.9918 44.1072 51.8113 45.2706 50.7956C45.7545 50.3728 46.3156 50.0536 46.9424 49.8973C47.1754 49.8393 47.4573 49.8572 47.6888 49.9303C48.1776 50.0866 48.6105 50.3682 48.9858 50.72C49.9181 51.5943 50.8215 52.496 51.5305 53.5688C51.8849 54.1041 52.2968 54.5827 52.7715 55.0166C53.2237 55.4294 53.7759 55.3385 53.9298 54.7959C53.9996 54.5501 54.1107 54.3144 54.1574 54.0664C55.5581 46.4507 55.5775 38.8366 54.115 31.2272C53.9953 30.6047 53.7865 29.9969 53.5823 29.3949C53.4883 29.1161 53.2562 28.9985 53.0256 29.0355C52.7642 29.0771 52.5648 29.2382 52.4696 29.5027C52.0372 30.7013 51.6188 31.9059 51.1853 33.1035C50.7508 34.3022 50.3294 35.5081 49.8531 36.6905C49.5668 37.4011 49.1553 38.0557 48.6217 38.6166C48.4499 38.7972 48.2432 38.9714 48.0189 39.0712C47.6735 39.2258 47.3137 39.2955 46.9262 39.1077C45.7061 38.5172 45.4363 37.4305 45.4391 36.2368C45.441 35.602 45.6027 34.9663 45.907 34.3955C46.6247 33.0453 47.2292 31.6319 48.1374 30.3852C48.4391 29.9693 48.595 29.4743 48.6664 28.9636C48.6843 28.8426 48.6703 28.6869 48.6061 28.5905C48.4765 28.3947 48.2294 28.272 47.9685 28.3448C46.6187 28.7218 45.281 29.1455 43.9271 29.5114C43.4397 29.6436 42.9232 29.69 42.4167 29.72C41.3956 29.7807 40.3936 28.9797 40.1644 28.0038C39.8252 26.5594 40.1137 25.2182 40.8027 23.9452C41.059 23.4719 41.52 23.1964 42.0409 23.1538C42.6723 23.1029 43.3202 23.0871 43.9473 23.1706C45.3381 23.3573 46.7156 23.6324 48.1037 23.836C48.6022 23.9085 49.1149 23.8915 49.6212 23.8843C49.7042 23.8836 49.8196 23.7358 49.8576 23.6319C49.8914 23.5397 49.882 23.365 49.8195 23.3141C48.9353 22.5916 47.9288 22.034 47.0613 21.2872C46.4813 20.7873 45.859 20.3264 45.3379 19.7729C44.0186 18.3701 43.5166 16.7305 44.1081 14.8404C44.2596 14.3551 44.3947 13.8483 44.6437 13.4109C45.4713 11.958 46.7318 11.2084 48.4259 11.2835C49.8624 11.3459 51.1659 11.8287 52.3728 12.5959C53.2583 13.1605 53.973 13.8547 54.2538 14.9124C54.3189 15.1573 54.438 15.3883 54.5436 15.6194C54.7156 15.9986 55.1964 16.1214 55.4494 15.881C56.572 14.8116 57.3952 13.518 58.1709 12.2014C59.1467 10.546 60.2708 9.00076 61.4456 7.48865C61.6724 7.19544 62.0067 6.98357 62.2993 6.74404C62.5112 6.57048 62.7614 6.54432 63.0265 6.63428C63.266 6.716 63.526 6.75757 63.7447 6.87531C64.8861 7.49323 65.8153 8.36884 66.5567 9.41914C66.7525 9.69772 66.706 10.1472 66.7703 10.5178C65.8382 13.0285 64.8888 15.5324 63.7188 17.9436C63.3885 18.6246 62.9116 19.2431 62.4483 19.8501C62.0244 20.406 61.4232 20.5571 60.7411 20.3754C60.3691 20.8813 59.9346 21.1867 59.2894 20.8752C58.6507 21.2112 58.6169 21.2037 58.1806 20.67C58.4028 20.8425 58.3873 20.8812 58.1458 20.7882C58.1987 20.7505 58.2505 20.7119 58.3035 20.6743C58.6977 20.3462 59.0323 20.5581 59.3661 20.7867C59.5381 20.5084 59.5917 20.1934 59.9705 20.0287C60.4243 19.8296 60.5598 20.2068 60.8323 20.3356L60.8194 20.3304ZM48.082 25.5714C47.5825 25.7223 47.0874 25.6142 46.5906 25.5489C45.2214 25.3728 43.8536 25.1883 42.4821 25.0218C42.0203 24.9649 41.5534 25.4787 41.5596 25.9996C41.5754 27.3278 42.5547 28.0943 43.836 27.7418C44.8046 27.4757 45.7622 27.1659 46.7177 26.8542C47.3628 26.6444 47.7505 26.1767 47.9139 25.5367C47.9585 25.6108 48.0043 25.6859 48.048 25.7612C47.9925 25.743 47.9369 25.7248 47.8814 25.7066C47.9483 25.6615 48.014 25.6155 48.0809 25.5704L48.082 25.5714ZM59.8083 29.0612C59.2965 28.6688 58.1938 27.8057 57.0667 26.9736C56.7656 26.7517 56.4015 26.6087 56.0507 26.4636C55.9571 26.4247 55.7972 26.4869 55.6909 26.5447C55.4803 26.66 55.3452 26.8946 55.4245 27.159C55.8235 28.4987 56.6264 29.6893 56.8777 31.0881C57.1662 32.6967 58.155 33.8239 59.4391 34.7446C59.8535 35.0412 60.2585 35.3511 60.6513 35.6755C62.1486 36.9086 63.8877 37.681 65.6868 38.3394C65.8048 38.3835 65.9384 38.3795 66.0616 38.4108C66.4353 38.5082 66.8261 38.1639 66.8046 37.8084C66.7573 37.0209 66.4843 36.2918 66.0683 35.666C64.9417 33.9718 63.8025 32.2766 62.1415 31.024C61.5328 30.565 60.9697 30.043 59.8083 29.0612ZM63.8415 9.92612C63.4972 9.70985 63.1872 9.49379 62.8573 9.31267C62.3478 9.03338 61.4545 9.23082 61.1511 9.70081C59.9872 11.5039 58.8234 13.3069 57.5008 15.0007C56.9722 16.1543 56.2271 17.1786 55.5716 18.2556C55.4227 18.4997 55.3952 18.7409 55.5162 18.9333C55.6623 19.1641 55.9184 19.2829 56.1769 19.1698C57.4732 18.6 58.8262 18.3599 60.2343 18.3675C60.6115 18.3702 60.99 18.326 61.3654 18.2811C61.7541 18.2339 62.1087 18.0775 62.3204 17.7409C63.4715 15.9098 64.2786 13.9279 64.8084 11.8341C64.9035 11.4564 64.7942 11.0823 64.5573 10.7708C64.3296 10.471 64.0718 10.1956 63.8404 9.92518L63.8415 9.92612ZM44.4237 56.2573C45.1052 56.6801 45.9328 57.2838 46.8367 57.7336C48.2111 58.4182 49.468 59.2622 50.6623 60.2143C50.8605 60.3722 51.0682 60.521 51.2785 60.6623C51.382 60.7325 51.5124 60.7642 51.615 60.8356C51.8839 61.0208 52.3821 60.8554 52.5643 60.513C52.9438 59.7988 53.0038 59.0521 52.6378 58.3287C51.7666 56.609 50.2824 55.3467 49.188 53.789C48.8271 53.275 48.3609 52.8311 47.9199 52.3778C47.747 52.1991 47.5274 52.044 47.3007 51.9425C47.0775 51.8439 46.7874 51.729 46.5787 51.7922C45.1766 52.215 44.0755 53.0188 43.5844 54.4591C43.4661 54.8076 43.496 55.2144 43.7721 55.534C43.9366 55.7248 44.1087 55.9067 44.4258 56.2572L44.4237 56.2573ZM48.1115 19.4303C48.6921 19.8387 49.3103 20.2864 49.9411 20.7124C50.256 20.9249 50.5959 21.1011 50.9282 21.2861C51.2713 21.4765 51.6495 21.4895 52.0312 21.4959C52.338 21.5004 52.7959 21.1514 52.8799 20.8525C53.3458 19.2108 53.1957 17.5812 52.7379 15.9732C52.5624 15.3533 52.1825 14.8367 51.5725 14.5357C50.8889 14.1994 50.2208 13.8243 49.5175 13.5384C49.054 13.3498 48.5416 13.2712 48.0452 13.1736C47.3969 13.0472 46.7924 13.209 46.209 13.4979C45.9657 13.618 45.7996 13.7804 45.6817 14.0219C45.1243 15.1551 45.2521 16.2329 45.9217 17.2705C46.4815 18.1366 47.2071 18.8382 48.1115 19.4303ZM58.2059 24.5172C60.2532 25.8071 62.4995 26.9296 64.9011 27.7255C65.1319 27.8017 65.3996 27.7616 65.6504 27.78C65.9921 27.8044 66.2952 27.43 66.2503 27.0297C66.094 25.6614 65.3668 24.6805 64.1294 24.1309C62.7387 23.5131 61.2736 23.1466 59.7473 23.0544C59.1126 23.0162 58.4777 23.0258 57.8904 23.2806C57.6188 23.3979 57.5349 23.674 57.6528 23.8656C57.7814 24.074 57.9713 24.2461 58.2091 24.518L58.2059 24.5172ZM49.2433 30.2946C49.2689 30.2529 49.0807 30.5845 48.8614 30.8937C48.1198 31.9343 47.6452 33.1125 47.1388 34.2715C46.9331 34.7416 46.9082 35.2495 46.9947 35.7616C47.0635 36.1609 47.2774 36.4452 47.6129 36.656C47.9846 36.8897 48.4417 36.8161 48.5946 36.4969C49.8066 33.9793 50.5112 31.282 51.3882 28.6461C51.4248 28.5371 51.3981 28.3804 51.3447 28.2758C51.2913 28.1712 51.1775 28.0655 51.0675 28.03C50.9683 27.9978 50.8203 28.03 50.7231 28.0838C50.0041 28.49 49.8487 29.2882 49.2433 30.2946ZM54.8716 63.8511C55.0613 63.9713 55.3674 64.1783 55.6879 64.3592C55.7643 64.4026 55.9173 64.3939 55.9879 64.3444C56.0831 64.2772 56.1976 64.144 56.1923 64.0437C56.1261 62.7707 55.6704 61.6455 54.8335 60.6832C54.7772 60.6183 54.6083 60.6231 54.4998 60.6426C54.3925 60.663 54.2727 60.7209 54.1994 60.8008C53.9308 61.0912 53.9184 61.4756 53.8607 61.8408C53.7793 62.3566 53.8787 62.824 54.2499 63.2125C54.4218 63.3923 54.5954 63.5678 54.8716 63.8511ZM53.7624 66.4307C53.8229 66.3228 53.911 66.2209 53.9386 66.1043C53.9653 65.9888 53.9665 65.8423 53.9172 65.7374C53.8017 65.4864 53.5818 65.3791 53.3183 65.4324C53.207 65.4552 53.0874 65.5151 53.0034 65.5917C52.6897 65.8766 52.6443 66.2138 52.8518 66.5714C53.0278 66.8735 53.445 66.8084 53.7624 66.4307Z" fill="#8DC0FF"/>
<path d="M88.278 84.1798C88.0181 84.0656 87.8736 83.8783 87.8221 83.624C87.7483 83.251 87.7055 82.864 87.5732 82.5126C87.4728 82.2437 87.2072 82.1611 86.9687 82.2527C86.1215 82.5793 85.7384 83.5472 84.8397 83.8053C84.7282 83.8375 84.599 83.8089 84.4793 83.8054C84.1669 83.7963 84.0146 83.6273 84.0424 83.3019C84.0741 82.9243 84.0813 82.5394 84.1638 82.1721C84.3579 81.303 84.6029 80.4464 84.8024 79.58C84.8867 79.2104 84.9063 78.8245 84.9599 78.4481C85.0086 78.1117 84.5901 77.6544 84.2955 77.7082C83.2725 77.8957 82.3637 78.2928 81.6028 79.0297C80.9669 79.6459 80.4917 80.4211 79.7087 80.8939C79.4309 81.0616 79.2448 81.0595 79.0375 80.8037C78.8821 80.6111 78.7263 80.3873 78.7912 80.1337C78.8843 79.7696 79.0319 79.4114 79.2141 79.0824C79.583 78.4148 79.9692 77.7561 80.3863 77.1176C80.7343 76.5857 81.0934 76.4715 81.3658 77.2059C81.3875 77.2664 81.5935 77.3197 81.6802 77.2875C82.744 76.8816 83.7549 76.3274 84.8822 76.0958C85.1253 76.0463 85.3826 76.0549 85.6347 76.0514C85.9096 76.0481 86.3548 76.5758 86.3406 76.8398C86.3068 77.4783 86.1872 78.096 86.0028 78.7087C85.894 79.0709 85.8587 79.4551 85.802 79.8328C85.7601 80.1136 85.8093 80.366 85.9878 80.4882C86.2137 80.6427 86.4621 80.5824 86.715 80.4646C87.413 80.1423 87.7876 79.3818 88.55 79.1465C88.8608 79.0508 89.0372 79.1233 89.107 79.4602C89.1328 79.5816 89.1902 79.7088 89.174 79.8254C88.9925 81.0808 88.8174 82.3377 88.595 83.5872C88.5563 83.8075 88.3151 83.9908 88.1688 84.1911L88.275 84.1811L88.278 84.1798Z" fill="#8DC0FF"/>
<path d="M42.3543 98.9084C42.5138 99.0893 42.7543 99.2447 42.8166 99.4545C42.9658 99.9582 42.8397 100.461 42.6378 100.94C42.5271 101.205 41.8633 101.403 41.6432 101.23C41.3472 100.995 41.0075 100.796 40.7668 100.514C40.2706 99.9358 39.8099 99.3221 39.3643 98.702C38.164 97.0337 36.7693 95.5749 35.0884 94.3686C33.6385 93.3289 32.2613 92.1896 30.8674 91.0745C30.5746 90.8405 30.3477 90.524 30.0972 90.2375C29.9364 90.0537 29.9225 89.3672 30.0632 89.1508C30.6892 88.1926 31.2875 87.2129 32.1411 86.4298C32.2318 86.3474 32.3512 86.2605 32.4656 86.2499C32.6718 86.2306 32.7147 86.4202 32.5801 86.7358C32.2289 87.564 31.4186 88.0962 31.1479 88.9809C31.0566 89.2794 31.1053 89.8477 31.313 90.0577C31.4911 90.237 31.6442 90.4527 31.8463 90.5968C32.5712 91.1156 33.2953 91.6376 34.0516 92.1102C35.1357 92.789 36.1946 93.4886 37.0612 94.4474C37.3143 94.7284 37.6204 94.9718 37.9326 95.1897C38.6781 95.7068 39.2591 96.3686 39.7691 97.1121C40.0565 97.5295 40.4292 97.8867 40.7657 98.2709C41.2173 98.7887 41.7802 99.0116 42.4653 98.9064L42.35 98.9067L42.3543 98.9084Z" fill="#8DC0FF"/>
<path d="M38.0183 72.597C38.5432 72.9737 38.913 73.4205 38.7326 74.1305C38.7029 74.2472 38.7337 74.3787 38.704 74.4954C38.5269 75.2082 38.3743 75.9284 38.1472 76.6257C37.878 77.4542 37.4212 78.176 36.695 78.6949L36.8 78.6954C36.5884 78.5127 36.4368 78.2907 36.4823 78.0531C36.697 76.9217 37.1576 75.8735 37.5868 74.8103C37.867 74.1137 38.1883 73.3981 38.0925 72.6022L38.0183 72.597Z" fill="#8DC0FF"/>
<path d="M36.6958 78.6931C36.7154 78.9397 36.8268 79.2274 36.7384 79.4249C36.274 80.4641 35.7632 81.4833 35.2576 82.503C35.0551 82.9126 34.474 83.3031 34.3748 83.1234C34.2708 82.9358 34.2941 82.7178 34.3867 82.4472C34.7546 81.359 35.2398 80.3316 35.9199 79.4C36.151 79.0836 36.4518 78.8683 36.7955 78.693C36.7996 78.6927 36.6946 78.6922 36.6946 78.6922L36.6958 78.6931Z" fill="#8DC0FF"/>
<path d="M38.0919 72.6023C38.418 72.094 38.7431 71.5848 39.0714 71.0785C39.3456 70.6567 39.7288 70.3825 40.229 70.2419C40.2476 70.2404 40.1473 70.2457 40.1689 70.2428C40.0337 70.5751 39.8864 70.9125 39.7188 71.2424C39.3685 71.9334 38.8373 72.4121 38.0425 72.595C38.0166 72.5961 38.0908 72.6013 38.0908 72.6013L38.0919 72.6023Z" fill="#8DC0FF"/>
<path d="M60.3699 48.3616C59.9412 48.0548 59.8615 47.8475 60.0925 47.5674C60.2727 47.3498 60.4755 47.3161 60.5971 47.4784C60.6534 47.5547 60.6701 47.7163 60.6273 47.8009C60.5248 48.0038 60.3777 48.1823 60.2482 48.3718L60.3699 48.3616Z" fill="#8DC0FF"/>
<path d="M42.4677 98.9068C42.3004 98.0754 42.5806 97.4899 43.4181 97.2089C43.4295 97.209 43.3103 97.2117 43.3227 97.2107C43.3094 97.9451 43.1617 98.6118 42.3597 98.9076C42.3535 98.9081 42.4677 98.9068 42.4677 98.9068Z" fill="#8DC0FF"/>
<path d="M66.7035 52.5539C66.5196 53.098 66.3347 53.6432 66.1488 54.1896C66.1469 54.1918 66.1228 54.1637 66.1198 54.165C66.5672 53.7785 66.6932 53.2486 66.7608 52.6924L66.7045 52.5527L66.7035 52.5539Z" fill="#8DC0FF"/>
<path d="M60.2476 48.3732C60.4264 48.7353 60.4332 49.0764 60.1198 49.3769L60.2164 49.3896C59.9504 49.0037 60.0249 48.6661 60.3642 48.3645C60.3683 48.3641 60.2466 48.3743 60.2466 48.3743L60.2476 48.3732Z" fill="#8DC0FF"/>
<path d="M60.1193 49.3756C60.2992 49.8249 60.4803 50.275 60.6612 50.7231L60.7017 50.5618C60.8075 50.0648 60.5536 49.7121 60.2232 49.3887C60.2168 49.3872 60.1204 49.3766 60.1204 49.3766L60.1193 49.3756Z" fill="#8DC0FF"/>
<path d="M60.6623 50.7229C60.6188 50.6632 60.5743 50.6025 60.5299 50.5439C60.4614 50.7678 60.5165 50.7684 60.6979 50.5537C60.7027 50.5616 60.6623 50.7229 60.6623 50.7229Z" fill="#8DC0FF"/>
<path d="M66.7586 52.6924C66.6986 52.655 66.6375 52.6167 66.5775 52.5793C66.5686 52.8065 66.6129 52.8038 66.7054 52.5634C66.7016 52.5544 66.7586 52.6924 66.7586 52.6924Z" fill="#8DC0FF"/>
<path d="M39.9697 68.6361C39.4793 70.4066 38.8164 72.1271 38.003 73.7741L38.8339 74.0337C38.9529 73.4462 39.0731 72.8597 39.1921 72.2722C39.2929 71.7766 38.5778 71.5727 38.3613 72.0126C36.449 75.8913 36.06 80.3965 33.7149 84.0799C33.087 85.0653 32.3152 85.9692 31.3873 86.6837C31.2 86.8282 31.1337 87.0903 31.2734 87.2946C31.4023 87.4822 31.6951 87.5553 31.8843 87.4086C35.5179 84.6112 36.4783 79.947 37.8091 75.822C38.1875 74.6488 38.6147 73.4881 39.1608 72.3818L38.3299 72.1222C38.2109 72.7097 38.0908 73.2962 37.9717 73.8837C37.871 74.3793 38.586 74.5832 38.8026 74.1433C39.6497 72.4271 40.326 70.6316 40.8372 68.7867C40.9001 68.5581 40.698 68.3164 40.4809 68.2785C40.2289 68.2342 40.0356 68.4062 39.9727 68.6348L39.9697 68.6361Z" fill="#8DC0FF"/>
<path d="M45.7581 86.8034C44.9098 87.265 44.3118 88.1856 44.2293 89.147C44.209 89.3752 44.3367 89.6231 44.5856 89.6552C44.8344 89.6873 45.022 89.5335 45.0938 89.2989C45.1102 89.2477 45.1116 89.2393 45.1009 89.2724C45.1108 89.2425 45.1208 89.2125 45.1296 89.1817C45.1446 89.1368 45.1595 89.0919 45.1744 89.047C45.2104 88.9433 45.2464 88.8395 45.2855 88.7365C45.3593 88.5382 45.4405 88.3423 45.5281 88.148C45.7048 87.7531 45.9054 87.3707 46.1267 87C46.2452 86.8031 46.116 86.5002 45.9127 86.4165C45.6738 86.3181 45.4559 86.4195 45.3292 86.6306C44.8555 87.4223 44.496 88.2646 44.2271 89.1451L45.0925 89.2959C45.1022 89.1892 45.1163 89.0841 45.1376 88.9795C45.1488 88.9277 45.1621 88.8757 45.1754 88.8237C45.2014 88.7249 45.1562 88.8668 45.1894 88.7799C45.2278 88.6801 45.2652 88.5814 45.3122 88.485C45.3352 88.4374 45.3603 88.3896 45.3876 88.3436C45.4013 88.3207 45.4149 88.2977 45.4286 88.2748C45.4047 88.3121 45.4009 88.3166 45.4195 88.2901C45.5354 88.1235 45.6622 87.9758 45.806 87.8329C45.8301 87.8111 45.8252 87.8146 45.7924 87.8444C45.8128 87.8271 45.8331 87.8098 45.8535 87.7925C45.8954 87.7589 45.9363 87.7264 45.9803 87.6946C46.0676 87.6323 46.1585 87.5769 46.2518 87.5255C46.4544 87.415 46.4989 87.0903 46.3657 86.9145C46.2103 86.7084 45.9713 86.6827 45.7548 86.8006L45.7581 86.8034Z" fill="#8DC0FF"/>
<path d="M42.9856 96.1856C42.6464 97.4801 42.2347 98.7517 41.7547 100.002L42.5856 100.262C42.6677 99.965 42.7489 99.6694 42.831 99.3727C42.8939 99.1442 42.6919 98.9025 42.4747 98.8646C42.2228 98.8203 42.0295 98.9922 41.9666 99.2208C41.8844 99.5175 41.8033 99.8131 41.7211 100.11C41.5898 100.587 42.3739 100.834 42.552 100.369C43.0595 99.0503 43.4929 97.7032 43.851 96.3364C43.9107 96.107 43.7139 95.8659 43.4947 95.8282C43.2448 95.7837 43.0462 95.9551 42.9865 96.1845L42.9856 96.1856Z" fill="#8DC0FF"/>
<path d="M88.1443 83.2717C87.8246 83.9311 87.6158 84.6497 87.5387 85.378C87.5142 85.6065 87.6493 85.8549 87.895 85.8862C88.1176 85.9153 88.3778 85.773 88.4032 85.5299C88.4389 85.1883 88.5031 84.8516 88.596 84.5219C88.6064 84.4846 88.6155 84.4444 88.629 84.4079C88.5884 84.5173 88.6399 84.3769 88.6465 84.3556C88.6731 84.2765 88.7017 84.1972 88.7325 84.1178C88.7947 83.9557 88.8644 83.7961 88.9405 83.6381C89.0406 83.4313 88.9427 83.1435 88.7265 83.0547C88.5103 82.9658 88.2512 83.0478 88.143 83.2687L88.1443 83.2717Z" fill="#8DC0FF"/>
<path d="M83.0015 72.3935C81.5866 74.3235 80.2656 76.3216 79.0397 78.3749C78.9175 78.5784 79.0559 78.8659 79.2537 78.9584C79.4881 79.0665 79.715 78.9478 79.8371 78.7444C81.0229 76.7567 82.304 74.8285 83.6723 72.9605C83.8131 72.769 83.8104 72.5023 83.6204 72.3416C83.4482 72.1961 83.1423 72.202 83.0015 72.3935Z" fill="#8DC0FF"/>
<path d="M67.4111 55.1947C67.0566 54.7321 66.9693 54.1619 66.8788 53.5774C66.7742 52.9121 66.6605 52.2371 66.2912 51.6604C65.4043 50.2744 63.6274 50.0909 62.3315 49.2658C61.5811 48.7885 60.9891 48.108 60.5834 47.3204C60.4744 47.1093 60.1513 47.0834 59.9725 47.2064C59.7574 47.3543 59.7483 47.6054 59.8586 47.8174C60.2356 48.5482 60.7805 49.2005 61.4333 49.7025C62.0861 50.2045 62.835 50.5136 63.5894 50.8274C64.2287 51.0938 64.9548 51.3798 65.4054 51.9351C65.7945 52.4135 65.9014 52.9946 65.9958 53.6016C66.1099 54.3305 66.2254 55.0895 66.6873 55.6926C66.8309 55.8811 67.0939 55.9463 67.2983 55.8066C67.4859 55.6777 67.5569 55.385 67.4122 55.1956L67.4111 55.1947Z" fill="#8DC0FF"/>
<path d="M60.2755 48.3719C59.7926 49.6734 60.2883 51.0278 61.0134 52.1314C61.4267 52.7626 61.8945 53.3746 62.4141 53.9231C62.9337 54.4716 63.5834 54.9116 64.2864 55.2567C65.1032 55.6577 65.928 56.0425 66.7491 56.4338C67.0045 56.5558 67.1881 56.1571 66.9328 56.0352C66.2598 55.7135 65.5868 55.3918 64.9137 55.0701C64.2407 54.7485 63.5971 54.4306 63.0438 53.9264C62.4905 53.4223 62.0735 52.8704 61.6572 52.2904C61.2622 51.7418 60.8999 51.1614 60.6919 50.5141C60.4839 49.8668 60.4402 49.1839 60.674 48.5536C60.7715 48.2909 60.3736 48.104 60.2754 48.3699L60.2755 48.3719Z" fill="#8DC0FF"/>
</svg>
