<svg width="62" height="141" viewBox="0 0 62 141" fill="none" xmlns="http://www.w3.org/2000/svg">
<path d="M26.0114 91.3145C26.1029 92.1784 26.6038 92.9118 27.1265 93.6513C26.6818 93.9962 26.3414 93.8785 25.9364 93.6085C24.9608 92.9568 24.2281 92.1252 23.3905 91.3723C23.134 91.142 22.9323 90.9133 22.4996 90.8451C22.0249 90.7708 21.6529 90.4956 21.2832 90.2249C20.2048 89.4345 19.4144 88.4858 18.7725 87.4329C18.5363 87.0452 18.3203 86.6178 17.6049 86.5893C17.2472 86.575 16.9112 86.2976 16.7357 86.0209C15.9655 84.8075 14.8137 83.8041 13.9813 82.6275C13.8365 82.4235 13.6528 82.2848 13.3926 82.1715C12.6749 81.8596 12.1605 81.3909 11.7675 80.7947C11.3326 80.1355 11.0596 79.3789 10.1867 78.9462C9.95348 78.8307 9.82749 78.53 9.71575 78.2945C8.75511 76.2682 7.86796 74.2187 7.1083 72.1377C6.89907 71.5632 6.55711 70.9888 6.6141 70.3416C6.6486 69.9427 6.68984 69.603 7.22903 69.4725C7.54475 69.396 7.70598 69.1305 7.99545 69.0435C8.36141 68.934 8.46564 68.7308 8.42815 68.4503C8.36366 67.9629 8.69137 67.6314 9.11132 67.3652C10.0037 66.7998 10.4184 66.0124 10.8166 65.1815C11.1751 64.433 11.5838 63.7146 12.3517 63.1132C13.1894 62.457 13.871 61.6111 14.2077 60.6902C14.5887 59.6493 15.5681 59.1619 16.5392 58.6249C16.8797 58.4367 17.2172 58.2612 17.5321 58.0303C18.726 57.1544 20.1381 56.8514 21.7339 57.0666C22.5491 57.1761 23.35 57.1814 23.8966 56.4944C24.1854 56.1315 24.7756 56.1405 25.215 56.0685C26.2971 55.8908 27.314 55.4633 28.4486 55.4911C28.7036 55.4971 28.9136 55.3876 29.1101 55.2661C29.284 55.1588 29.4865 55.0681 29.6875 55.1566C30.4989 55.5143 31.2383 55.1633 31.992 55.0096C32.2222 54.9624 32.4352 54.8356 32.6842 54.8536C33.8293 54.9369 34.3685 54.3279 34.8072 53.6103C34.9302 53.4093 34.9564 53.1513 35.1274 52.9908C35.6096 52.5386 35.8068 52.1464 35.0869 51.7152C34.8882 51.596 34.9414 51.3373 35.0756 51.161C35.3209 50.8378 35.2864 50.5124 35.1394 50.1802C35.0801 50.0467 34.9984 49.9222 35.0531 49.773C35.3786 48.8836 35.1686 47.9777 35.2129 47.0793C35.2564 46.2004 35.1926 45.3259 35.2174 44.4493C35.2504 43.2907 35.4004 42.1246 35.0621 40.9727C35.0074 40.7867 35.0374 40.576 35.0696 40.3818C35.2219 39.4474 35.1521 38.5182 34.9999 37.5898C34.9399 37.2246 34.8942 36.8617 34.9444 36.4874C34.9939 36.1237 34.9677 35.7593 34.8184 35.3948C34.5942 34.8451 34.6684 34.2632 34.7449 33.7015C34.9721 32.0479 35.1514 30.3854 35.6808 28.7723C35.8203 28.3479 35.8166 27.9294 35.8218 27.5065C35.8368 26.2264 35.8271 24.9463 35.8308 23.6669C35.8323 23.1262 35.8555 22.5863 36.0153 22.0583C36.0918 21.8049 36.1488 21.5341 36.04 21.3002C35.6486 20.458 35.8675 19.6166 35.9755 18.7722C36.0153 18.4617 36.097 18.1535 36.1075 17.8431C36.163 16.224 36.1413 14.6019 36.2605 12.9866C36.451 10.4046 36.5072 7.82193 36.4465 5.23847C36.421 4.13235 36.5305 3.01797 36.2665 1.92085C36.1863 1.58713 36.0408 1.26317 35.9725 0.927959C35.8338 0.247036 36.4367 -0.161668 37.2241 0.0610573C38.0286 0.289032 38.4305 0.759728 38.43 1.47315C38.4225 4.65804 38.4683 7.84368 38.346 11.0278C38.3318 11.3983 38.2148 11.7462 38.124 12.1047C37.8376 13.2408 37.6928 14.3979 37.9913 15.5543C38.0715 15.8655 38.0678 16.1752 38.0603 16.488C38.0131 18.5352 37.9306 20.5825 37.9313 22.6298C37.9313 23.4014 37.6838 24.1386 37.6478 24.9013C37.5811 26.2953 37.8998 27.6692 37.9441 29.049C37.9658 29.7322 37.8488 30.4461 37.8466 31.1473C37.8413 32.5976 37.8406 34.048 37.8503 35.4983C37.8571 36.5114 38.3588 37.4226 38.7727 38.3495C38.8867 38.6037 39.2347 38.6817 39.4701 38.8444C39.8301 39.0934 39.9553 39.3476 39.7776 39.7383C39.1597 41.0957 38.751 42.516 38.6625 43.9476C38.6092 44.8055 38.3475 45.6462 38.4173 46.5146C38.4855 47.3642 38.286 48.2446 38.4818 49.0665C38.6662 49.8419 38.7172 50.6301 38.8462 51.4025C38.9407 51.968 38.832 52.6324 38.6295 53.2106C38.3505 54.0047 38.3805 54.7794 38.5537 55.5608C38.6602 56.0407 38.718 56.5162 38.7165 57.0006C38.7165 57.2849 38.6272 57.5143 38.4285 57.7783C38.0468 58.2845 37.6538 58.8319 38.0498 59.4986C38.2125 59.7716 38.1848 60.112 38.0393 60.415C37.6531 61.2242 38.0071 61.9726 38.4255 62.6662C38.8125 63.3074 38.745 63.9816 38.79 64.6333C38.8087 64.9002 38.6745 65.24 38.7127 65.5377C38.853 66.6115 38.676 67.6847 38.7292 68.7541C38.7735 69.6435 38.8147 70.5396 38.9355 71.4193C39.0262 72.0792 38.8042 72.6994 38.8192 73.3465C38.8372 74.1377 38.799 74.9739 38.6505 75.7583C38.4083 77.0369 38.7202 78.2832 38.7712 79.5341C38.8275 80.9289 39.0022 82.3523 39.5144 83.7156C39.9553 84.8892 40.0873 86.1094 40.1428 87.3242C40.2096 88.7731 40.1113 90.2264 40.1758 91.6752C40.2328 92.9448 40.4293 94.2099 40.4473 95.4825C40.4518 95.8343 40.6528 96.144 40.841 96.4454C41.0037 96.7072 41.1215 96.9719 41.096 97.2598C41.0622 97.6303 40.8447 97.9565 40.3595 97.9625C39.3344 97.9745 38.208 98.2107 37.3314 97.6671C36.508 97.1564 35.6786 96.9329 34.6714 96.9629C34.4015 96.9711 34.0603 96.7964 33.8578 96.6224C33.3006 96.1455 32.5769 95.9955 31.8533 95.8178C31.3538 95.6948 30.9226 95.49 30.5387 95.1788C29.1048 94.018 27.8262 92.7446 26.4764 91.5222C26.3609 91.4173 26.2731 91.2883 26.0114 91.3115V91.3145ZM36.7674 93.3288C36.8522 92.9733 36.9609 92.6726 36.9909 92.3666C37.2444 89.8214 37.6193 87.289 38.0843 84.7648C38.142 84.4535 38.205 84.1311 38.0408 83.8401C37.8248 83.4584 37.8166 83.0594 37.8668 82.6687C37.9553 81.9773 37.4596 81.2964 37.8368 80.6005C37.8803 80.5202 37.8023 80.377 37.7408 80.2795C37.5729 80.0148 37.5699 79.7328 37.5684 79.4479C37.5624 78.2802 37.6224 77.1006 36.6115 76.125C36.4757 75.9945 36.3985 75.8348 36.4097 75.6533C36.4412 75.1171 36.3385 74.5779 36.556 74.0462C36.7689 73.525 36.8237 72.9513 36.6107 72.4504C36.418 71.9982 36.4037 71.564 36.4142 71.117C36.451 69.5782 36.3032 68.0304 35.9373 66.5456C35.5638 65.0307 35.2706 63.5339 35.2459 61.9936C35.2331 61.1927 35.1289 60.3813 34.7352 59.6576C34.4757 59.1806 34.1667 58.7989 34.2147 58.211C34.2627 57.6193 34.1322 57.0066 34.247 56.4044C34.3295 55.9717 34.103 55.7543 33.5781 55.8383C33.2398 55.8923 32.9159 56.0437 32.5657 56.0085C31.851 55.938 31.2233 56.2335 30.5439 56.3145C30.1359 56.3632 29.5293 56.6167 29.4783 56.9076C29.3643 57.5653 28.8176 57.5766 28.2709 57.7333C27.614 57.9215 26.9316 57.9913 26.2634 58.1218C24.7583 58.4157 23.242 58.6759 21.7076 58.8514C21.5344 58.8709 21.3004 58.8747 21.2405 58.9992C21.0057 59.4844 20.534 59.5413 19.9858 59.5818C19.6401 59.6073 19.3049 59.7213 19.6094 60.1533C19.8726 60.526 19.5269 60.8237 19.1512 60.9894C18.0428 61.4791 17.3701 62.4113 16.2393 62.8762C16.0758 62.9437 15.9918 63.1402 15.8703 63.2767C15.2794 63.9388 14.8197 64.6753 14.0675 65.2505C13.7968 65.4582 13.6176 65.8534 13.6168 66.1631C13.6153 66.5771 13.3993 66.8575 13.1444 67.165C12.5302 67.9044 12.0532 68.7233 12.024 69.609C12 70.3431 11.9647 71.0938 11.7195 71.7657C11.2456 73.0623 11.646 74.2322 12.2145 75.3781C12.5249 76.005 12.8317 76.6244 13.0971 77.2671C13.4016 78.005 13.7585 78.7437 14.6899 79.1846C15.3199 79.4831 15.7076 80.0095 16.105 80.5172C17.1752 81.8843 17.9438 83.4412 19.6709 84.4078C19.8111 84.4865 19.9401 84.5968 20.0286 84.7153C20.678 85.5829 21.4092 86.4116 21.9551 87.3295C22.1703 87.6909 22.3991 87.9976 23.0335 88.0081C22.9218 87.5994 22.5491 87.2942 22.831 86.8675C23.2645 87.064 23.6882 87.1585 23.6064 87.6722C23.5742 87.8762 23.7692 88.1056 24.1254 88.0869C24.2649 87.9766 24.1891 87.8761 24.1186 87.7802C23.9596 87.5642 23.8944 87.3272 24.1771 87.175C24.4103 87.0497 24.7231 87.0685 24.9765 87.172C25.1198 87.2305 25.2128 87.3707 25.3305 87.4727C25.7902 87.8709 26.2904 88.2031 26.9038 88.4596C27.3118 88.6298 27.5832 88.2046 27.8465 88.4123C28.1142 88.6231 28.2792 88.9013 28.6571 89.043C29.1873 89.2418 29.6777 89.4952 30.1569 89.7877C31.3141 90.4949 32.2612 91.3475 33.0884 92.2984C33.4131 92.6719 33.839 92.9358 34.3572 92.9748C35.1536 93.0341 35.8863 93.3325 36.7697 93.3288H36.7674Z" fill="#8DC0FF"/>
<path d="M0.000871986 115.486C0.520563 115.172 0.99001 115.254 1.40321 115.484C3.7317 116.775 6.39015 117.611 8.64065 119.009C9.24133 119.382 9.98525 119.448 10.6722 119.631C11.1821 119.767 11.6583 119.945 11.9943 120.274C12.6129 120.879 13.4011 121.274 14.2305 121.643C15.7506 122.317 17.2362 122.989 19.0127 123.21C20.3048 123.37 21.4829 123.963 22.5231 124.638C23.7357 125.424 25.105 125.976 26.4991 126.478C28.3717 127.152 30.3192 127.687 32.0448 128.621C32.4445 128.837 32.9229 128.959 33.3714 129.111C35.4224 129.809 37.2822 130.819 39.3347 131.524C42.1161 132.48 44.8481 133.531 47.6295 134.49C50.0285 135.317 52.3945 136.207 54.7687 137.081C55.5591 137.372 56.3758 137.587 57.2907 137.774C57.4931 137.016 58.0218 136.348 57.8936 135.514C57.8358 135.137 58.258 134.788 58.2348 134.372C58.1471 132.813 58.8812 131.308 58.6923 129.742C58.6795 129.634 58.7455 129.52 58.7717 129.409C59.0132 128.383 58.9397 127.349 58.9105 126.312C58.8775 125.131 59.083 123.964 59.3567 122.806C59.4939 122.226 59.5419 121.652 59.4932 121.049C59.4122 120.035 59.3177 119.013 59.5899 117.993C59.7136 117.53 59.7061 117.02 59.6184 116.548C59.4662 115.729 59.5029 114.904 59.4084 114.086C59.2704 112.896 59.3964 111.712 59.4812 110.531C59.6131 108.691 59.7241 106.862 59.3799 105.024C59.0642 103.344 58.7702 101.657 58.8257 99.9438C58.8535 99.0919 59.044 98.2572 59.1594 97.4151C59.2374 96.8466 59.1639 96.3269 59.0147 95.7577C58.6833 94.4994 58.1246 93.2343 58.5685 91.9062C58.7515 91.3587 58.612 90.7761 58.3683 90.3194C57.8486 89.3437 57.9108 88.3328 58.0826 87.3834C58.2783 86.3051 58.1328 85.2664 57.8673 84.269C57.4391 82.665 57.1887 81.0399 56.8482 79.4276C56.7005 78.7287 56.4485 78.0687 56.1995 77.4043C55.6971 76.062 55.5666 74.6919 55.5996 73.3008C55.6363 71.7612 55.1669 70.2756 54.8759 68.7713C54.6757 67.7349 54.3697 66.7218 53.97 65.7266C53.9168 65.5939 53.859 65.4552 53.8545 65.3179C53.7886 62.9677 53.8358 60.6092 53.6798 58.268C53.5576 56.4292 53.7631 54.5746 53.3611 52.7456C53.2441 52.2117 53.5456 52.0024 54.1913 52.1247C54.423 52.1689 54.6397 52.2642 54.8894 52.2672C55.3986 52.2739 55.5794 52.4839 55.6371 52.9068C55.8201 54.2597 56.2768 55.5923 56.2528 56.9586C56.2153 59.0929 56.9135 61.1447 57.1737 63.2429C57.3027 64.2838 57.4579 65.3247 57.4316 66.3813C57.3829 68.3408 57.3687 70.2981 57.9753 72.2276C58.1778 72.8718 58.0991 73.5775 58.1741 74.2554C58.4358 76.6304 58.8872 78.9859 59.1909 81.3556C59.4399 83.2957 59.7781 85.2229 60.1546 87.1487C60.3676 88.2376 60.3953 89.3557 60.4336 90.4626C60.4733 91.6242 60.6263 92.7731 60.8318 93.9197C60.8468 94.0037 60.8528 94.0899 60.8483 94.1754C60.7658 95.994 61.0237 97.8043 61.056 99.6221C61.0995 102.063 61.275 104.503 61.254 106.946C61.2502 107.348 61.4639 107.709 61.4804 108.116C61.5592 110.094 61.5509 112.078 61.4137 114.046C61.2217 116.798 61.11 119.548 61.0162 122.302C60.948 124.309 60.7785 126.321 60.5963 128.325C60.4456 129.983 60.0878 131.628 59.8981 133.284C59.8284 133.892 59.8029 134.522 59.7271 135.12C59.6679 135.592 59.4489 136.084 59.4047 136.591C59.3244 137.515 59.0365 138.424 59.134 139.362C59.1542 139.555 59.092 139.758 59.0372 139.949C58.93 140.324 58.675 140.488 58.1576 140.508C57.2434 140.544 56.4882 140.324 55.7293 139.917C54.099 139.042 52.7439 137.877 51.0911 137.032C50.9149 136.942 50.7671 136.792 50.5782 136.745C49.0191 136.354 47.6475 135.605 46.0727 135.224C44.6846 134.888 43.343 134.438 41.9159 134.18C41.1915 134.048 40.4221 133.975 39.7539 133.608C38.4318 132.882 37.0579 132.221 35.9301 131.282C35.6114 131.017 35.2371 130.822 34.8052 130.689C33.2799 130.216 31.8145 129.624 30.3282 129.081C29.2648 128.693 28.3049 128.095 27.1966 127.756C24.4856 126.927 22.0056 125.723 19.4702 124.607C18.5575 124.206 17.6434 123.843 16.5838 123.709C15.5174 123.574 14.574 123.129 13.6763 122.624C12.307 121.854 10.9054 121.121 9.5128 120.378C9.34107 120.287 9.14609 120.176 8.95411 120.164C7.91998 120.106 7.17306 119.604 6.3669 119.151C5.48725 118.655 4.60085 118.166 3.65521 117.739C2.33836 117.143 1.17674 116.329 0.00012207 115.485L0.000871986 115.486Z" fill="#8DC0FF"/>
<path d="M52.2687 43.611C52.0452 42.816 51.824 42.0181 51.5945 41.2225C51.5397 41.032 51.3988 40.8265 51.6297 40.6713C51.8585 40.5176 52.0849 40.702 52.3144 40.7313C52.7718 40.7898 53.0246 41.077 53.3028 41.32C54.0325 41.9559 54.7749 42.5858 55.4363 43.2675C55.7468 43.5877 56.0085 43.6447 56.3909 43.4505C57.0816 43.0988 57.737 43.35 58.3647 43.554C58.8754 43.7197 58.8694 43.9964 58.3977 44.2124C58.0055 44.3916 57.5908 44.5379 57.1948 44.7118C56.8146 44.8791 56.7104 45.0935 57.0546 45.3778C57.4446 45.6995 57.8375 46.0182 57.7753 46.5394C57.7565 46.6969 57.974 46.7471 58.1247 46.8168C58.3572 46.9248 58.6557 46.9803 58.7022 47.2675C57.9598 47.761 57.1536 47.5038 56.3639 47.3868C56.094 47.347 55.83 47.2698 55.569 47.1948C55.2773 47.1108 55.0936 47.1611 54.8514 47.3553C53.7602 48.2267 52.0797 47.8292 51.7647 46.6181C51.6027 45.9964 51.3035 45.4033 51.3305 44.7366C51.365 43.8869 51.308 43.8847 52.2694 43.6125L52.2687 43.611Z" fill="#8DC0FF"/>
</svg>
