<svg width="424" height="126" viewBox="0 0 424 126" fill="none" xmlns="http://www.w3.org/2000/svg">
<path d="M181.136 50.3861C180.901 51.0876 180.915 51.8149 180.914 52.541C180.914 53.5857 180.865 54.6198 180.7 55.6621C180.45 57.2373 180.67 58.7458 181.779 60.0247C182.195 60.5037 182.51 61.0705 182.888 61.5835C183.394 62.2686 183.99 62.771 184.933 62.7254C185.706 62.6891 186.307 63.1657 186.907 63.5791C187.621 64.0734 188.334 64.5606 189.207 64.7327C189.473 64.7854 189.741 64.8627 190.008 64.8627C191.329 64.8651 192.651 64.8955 193.968 64.7116C194.779 64.5992 195.599 64.5442 196.416 64.4856C196.825 64.4564 197.234 64.4716 197.623 64.2947C197.784 64.221 197.974 64.1776 198.152 64.1753C200.704 64.1413 203.19 63.4222 205.746 63.4386C206.536 63.4433 207.157 63.14 207.671 62.5696C209.211 60.8598 209.092 60.9722 208.588 58.7856C208.477 58.3008 208.346 57.8229 208.283 57.3275C208.237 56.9656 208.23 56.5909 208.123 56.2466C207.684 54.8318 207.683 53.3737 207.624 51.9168C207.597 51.2352 207.488 50.5583 207.428 49.8778C207.375 49.2876 207.303 48.6962 207.302 48.1059C207.299 46.3726 206.849 44.8149 205.822 43.3803C204.891 42.0791 204.332 40.5637 203.85 39.0447C203.614 38.3045 203.264 37.8477 202.47 37.7494C202.209 37.7177 201.963 37.555 201.714 37.4437C200.26 36.7937 198.741 36.3416 197.201 35.9598C196.45 35.7736 195.725 35.5265 195.036 35.1681C193.661 34.4537 192.227 33.9595 190.664 33.7756C189.64 33.655 188.646 33.279 187.642 33.0026C186.989 32.8223 186.352 32.5248 185.689 32.4522C185.146 32.3925 185.088 31.9885 184.831 31.7074C184.568 31.4193 184.361 31.1557 184.618 30.7576C184.658 30.6955 184.644 30.5772 184.618 30.4964C184.551 30.2879 184.383 30.0958 184.571 29.8675C184.763 29.6344 185.018 29.5806 185.303 29.5806C186.095 29.5806 186.816 29.8593 187.552 30.104C189.832 30.8618 192.096 31.6804 194.407 32.3292C196.981 33.0518 199.529 33.8201 201.969 34.9245C202.424 35.1306 202.867 35.3684 203.324 35.5746C203.774 35.7783 204.202 36.0617 204.75 35.8826C204.901 35.8334 205.125 35.8825 205.271 35.9645C206.137 36.4564 207.053 36.8698 207.827 37.5081C208.394 37.9742 208.572 38.6699 208.639 39.3316C208.752 40.4781 209.106 41.5509 209.43 42.6377C209.469 42.7677 209.571 42.8978 209.563 43.0219C209.486 44.0771 210.049 44.9379 210.427 45.8491C210.551 46.1477 210.667 46.4381 210.696 46.7555C210.767 47.5226 210.863 48.2757 211.255 48.9666C211.358 49.1482 211.331 49.407 211.353 49.6319C211.38 49.9036 211.323 50.2069 211.427 50.4423C211.863 51.4249 211.675 52.4134 211.508 53.3995C211.378 54.1678 211.277 54.9325 211.378 55.7102C211.432 56.1224 211.393 56.523 211.319 56.9317C211.208 57.5501 211.063 58.1637 211.265 58.8079C211.395 59.2236 211.092 59.5937 210.946 59.9685C210.87 60.1652 210.648 60.1125 210.469 60.1172C210.409 60.1184 210.353 60.2191 210.295 60.273C210.353 60.3339 210.407 60.4416 210.473 60.4486C210.844 60.492 211.202 60.4568 211.493 60.1804C211.725 59.9603 211.962 59.7472 212.184 59.5176C214.864 56.749 217.89 54.4301 221.248 52.5434C222.452 51.8664 223.753 51.4776 225.117 51.3031C225.702 51.2282 226.242 50.9916 226.852 50.9717C227.693 50.9436 228.512 51.1239 229.264 51.3523C230.941 51.8606 232.621 52.3431 234.009 53.608C235.706 55.1539 237.176 56.879 238.58 58.6673C239.618 59.9896 240.575 61.3809 241.481 62.7968C242.314 64.0968 242.945 65.5069 243.498 66.9579C244.197 68.7943 244.536 70.7185 245.018 72.6076C245.095 72.9109 245.046 73.2459 245.104 73.5574C245.367 74.9909 245.343 76.4583 245.546 77.886C245.701 78.9751 245.789 80.0502 245.795 81.1394C245.804 82.827 245.802 84.5135 245.795 86.2012C245.79 87.3348 245.714 88.4498 245.501 89.5823C245.299 90.6504 245.107 91.7103 244.771 92.7421C244.42 93.8172 243.736 94.603 242.774 95.2178C241.796 95.8432 240.734 96.2204 239.641 96.5272C238.241 96.9207 236.859 97.395 235.417 97.6375C235.24 97.6667 235.06 97.7288 234.905 97.8167C234.74 97.9104 234.644 98.0673 234.754 98.2699C234.883 98.5088 235.035 98.7384 235.136 98.9878C235.18 99.0991 235.152 99.2818 234.977 99.3076C234.395 99.3954 233.793 99.4317 233.421 99.9938C232.661 100.092 231.947 100.398 231.14 100.301C229.817 100.141 228.554 99.7608 227.285 99.3989C226.321 99.1237 225.365 98.818 224.405 98.531C221.67 97.7136 219.475 96.04 217.405 94.1568C213.936 91.0017 211.925 87.0667 211.014 82.5015C210.487 79.8594 210.188 77.1985 209.925 74.5189C209.677 72.0115 209.722 69.5122 209.709 67.0071C209.704 66.1896 209.695 65.3687 209.977 64.5735C210.064 64.3275 210.021 64.0324 210.018 63.7595C210.016 63.5253 209.724 63.4011 209.513 63.5346C209.106 63.7911 208.788 64.098 208.915 64.6438C208.996 64.9892 208.831 65.1391 208.504 65.193C208.284 65.2293 208.012 65.2504 207.866 65.3886C206.95 66.2541 205.787 66.2272 204.671 66.2564C202.529 66.3115 200.385 66.2798 198.242 66.2903C197.879 66.2927 197.496 66.2587 197.157 66.3559C196.207 66.6288 195.27 66.5785 194.314 66.4157C193.778 66.3243 193.227 66.3068 192.682 66.2693C192.091 66.2295 191.5 66.2517 190.914 66.1124C189.931 65.8782 189.024 66.1463 188.148 66.5878C187.981 66.6721 187.848 66.76 187.741 66.9205C187.376 67.4592 187.252 67.5599 186.787 67.7918C187.251 68.4582 187.703 69.1257 188.176 69.7781C188.319 69.9748 188.388 70.1704 188.385 70.407C188.382 70.6401 188.152 70.8532 187.934 70.7853C187.63 70.6916 187.322 70.5955 187.038 70.4562C185.854 69.8788 184.614 69.415 183.506 68.6854C183.201 68.4851 182.9 68.2673 182.568 68.1279C181.926 67.8574 181.423 67.4194 180.935 66.9427C180.786 66.7975 180.623 66.5598 180.359 66.6593C180.059 66.7729 180.02 67.0669 180.01 67.3374C179.989 67.8387 179.992 68.3399 179.993 68.8423C179.996 69.6176 179.951 70.3789 179.788 71.1483C179.649 71.8065 179.747 72.5104 179.684 73.1896C179.508 75.0881 179.487 76.9982 179.257 78.892C179.213 79.2539 179.175 79.6169 179.162 79.98C179.143 80.4789 179.204 80.9848 178.981 81.4591C178.944 81.5388 178.928 81.6371 178.931 81.725C178.98 83.0051 178.63 84.2488 178.586 85.516C178.535 86.9296 178.17 88.2905 178.019 89.6806C177.916 90.6305 177.594 91.5322 177.564 92.4996C177.546 93.1145 177.269 93.7293 177.057 94.3266C176.918 94.7189 176.533 94.8665 176.161 94.7236C175.908 94.6253 175.659 94.5058 175.432 94.3571C174.777 93.9273 174.617 93.4857 174.934 92.7421C175.365 91.7325 175.613 90.6679 175.955 89.6326C176.153 89.033 176.419 88.4533 176.679 87.8747C177.205 86.7024 177.382 85.4434 177.651 84.2044C177.912 83.0028 177.854 81.759 178.208 80.5714C178.31 80.2318 178.255 79.8465 178.274 79.4822C178.294 79.1203 178.248 78.7503 178.418 78.4083C178.652 77.9387 178.618 77.4315 178.615 76.9326C178.609 75.9746 178.636 75.0272 178.889 74.0867C179.015 73.6136 178.943 73.0901 178.991 72.5923C179.12 71.2795 179.272 69.969 179.4 68.6573C179.439 68.2509 179.434 67.8398 179.45 67.4311C179.485 66.5984 179.238 65.9168 178.485 65.4565C177.845 65.0654 177.551 64.3533 177.085 63.8016C176.774 63.4339 176.819 62.8495 177.041 62.3635C177.153 62.1164 177.238 61.8072 177.436 61.6573C178.041 61.197 177.777 60.7239 177.55 60.2203C177.261 59.5785 176.743 59.1206 176.271 58.6322C175.861 58.2083 175.767 57.7913 176.104 57.2912C176.179 57.18 176.222 57.0464 176.276 56.9211C176.458 56.5042 176.762 56.2934 177.228 56.2829C178.096 56.2641 178.959 56.2114 179.706 56.8017C179.915 56.9657 180.184 56.8193 180.21 56.571C180.238 56.2993 180.252 56.0264 180.252 55.7535C180.252 55.1117 180.319 54.4875 180.539 53.875C180.855 52.9954 180.746 52.0725 180.732 51.1626C180.728 50.8159 180.791 50.5325 181.14 50.3838H181.139L181.136 50.3861ZM241.453 83.0589H241.441C241.441 81.9651 241.447 80.8713 241.438 79.7786C241.434 79.4155 241.454 79.0361 241.359 78.6929C241.15 77.934 241.133 77.1645 241.117 76.3904C241.11 76.0718 241.109 75.7486 241.053 75.4371C240.742 73.7389 240.446 72.0372 240.085 70.3496C239.558 67.8843 238.701 65.5303 237.354 63.3906C235.993 61.2298 234.423 59.2178 232.73 57.3053C232.188 56.6928 231.607 56.1107 231.005 55.5556C229.465 54.1338 227.671 53.8656 225.675 54.3645C224.265 54.7171 223.096 55.5146 221.946 56.3086C220.227 57.4962 218.59 58.8102 217.076 60.2566C215.99 61.2931 214.953 62.3939 214.627 63.9492C214.45 64.7901 214.452 65.665 214.149 66.4824C214.154 68.7603 214.158 71.0382 214.163 73.3161C214.163 73.3618 214.165 73.4087 214.178 73.452C214.666 75.0822 214.417 76.7933 214.751 78.4551C214.956 79.474 215.096 80.5093 215.374 81.5165C215.47 81.8667 215.573 82.2181 215.63 82.5753C216.039 85.1319 217.005 87.4625 218.407 89.6326C219.49 91.3097 221.001 92.5453 222.52 93.7809C223.845 94.8572 225.337 95.6067 226.962 96.1032C227.34 96.2192 227.662 96.2005 227.896 95.8023C228.292 95.1324 228.875 95.0211 229.637 95.1007C230.674 95.2085 231.744 95.2881 232.771 95.0726C234.537 94.7014 236.279 94.213 238.009 93.6931C239.316 93.2995 240.261 92.5336 240.616 91.1598C240.65 91.0275 240.712 90.9033 240.741 90.7698C241.136 88.9943 241.498 87.2154 241.458 85.3813C241.441 84.6072 241.455 83.8319 241.455 83.0578L241.453 83.0589Z" fill="#8DC0FF"/>
<path d="M159.354 49.7712C159.354 50.5921 159.357 51.412 159.352 52.2329C159.348 52.822 159.354 53.3982 159.131 53.9779C158.901 54.5776 159.003 55.2452 159.035 55.8776C159.103 57.1729 158.801 58.3885 158.431 59.6135C157.908 61.3469 157.439 63.0977 157.01 64.8568C156.907 65.2796 156.762 65.6239 156.474 65.9249C155.467 66.9778 154.495 68.0611 153.544 69.1678C152.923 69.8904 152.119 70.4561 151.258 70.8754C149.831 71.5699 148.412 72.2761 146.881 72.7492C146.114 72.987 145.383 73.343 144.592 73.5561C144.096 73.6896 143.605 73.6768 143.122 73.7775C142.931 73.8173 142.78 73.9496 142.814 74.1558C142.872 74.5141 142.964 74.869 143.056 75.2215C143.217 75.8329 143.487 76.402 143.47 77.0743C143.459 77.4479 143.71 77.8508 143.906 78.2056C144.878 79.9635 146.041 81.6067 147.278 83.1748C148.202 84.346 149.432 85.263 150.696 86.0875C150.843 86.1835 151.029 86.2292 151.203 86.2772C151.987 86.4974 152.769 86.7304 153.561 86.9143C153.865 86.9846 154.206 86.9881 154.512 86.9307C155.448 86.7539 156.382 86.5536 157.304 86.3217C158.059 86.132 158.744 85.8169 159.341 85.2665C159.904 84.7477 160.686 84.5029 161.224 83.9255C161.658 83.4606 162.093 82.998 162.531 82.5365C163.215 81.8163 163.972 81.1511 164.569 80.3652C165.227 79.4997 165.753 78.5312 166.312 77.5931C166.777 76.8108 167.235 76.0343 167.804 75.3128C168.333 74.6418 168.722 73.8548 169.14 73.0994C170.065 71.4293 170.98 69.7534 171.876 68.067C172.217 67.4263 172.572 66.774 172.775 66.0842C172.947 65.5021 173.286 65.0184 173.491 64.4691C173.711 63.8789 174.132 63.7536 174.68 63.8051C174.77 63.8133 174.881 63.7934 174.948 63.8379C175.321 64.0885 175.888 63.9855 176.144 64.3977C176.394 64.8029 176.035 65.1836 175.921 65.5595C175.537 66.8279 174.882 67.9803 174.283 69.1526C173.475 70.7313 172.648 72.303 171.758 73.8372C170.801 75.485 169.714 77.0591 168.777 78.7174C168.126 79.871 167.294 80.8922 166.528 81.9533C165.787 82.9792 164.823 83.8459 163.952 84.7769C163.578 85.1763 163.154 85.5347 162.817 85.961C161.814 87.2235 160.403 87.7903 158.99 88.4345C157.696 89.0235 156.366 89.0974 155.012 89.2086C154.046 89.2883 153.113 89.0927 152.175 88.9217C151.953 88.8807 151.74 88.7507 151.521 88.7471C150.848 88.7378 150.301 88.4356 149.764 88.082C148.399 87.1802 147.126 86.1683 145.892 85.0885C144.919 84.2382 144.139 83.2662 143.378 82.2461C142.456 81.0105 141.573 79.7445 140.563 78.5734C139.848 77.7442 139.333 76.7733 138.824 75.8013C137.75 73.7517 138.092 74.1581 136.17 74.1288C134.392 74.1007 132.613 74.1242 130.835 74.1206C130.198 74.1206 129.559 74.1487 128.959 73.8501C128.803 73.7728 128.599 73.7353 128.427 73.7564C127.362 73.8899 126.388 73.2891 125.331 73.3804C124.491 72.9776 123.538 73.1439 122.671 72.8487C122.341 72.7363 121.95 72.8195 121.597 72.7574C120.752 72.6087 119.895 72.4775 119.073 72.2398C118.538 72.084 118.019 72.002 117.468 72.0114C117.003 72.0196 116.711 71.7537 116.57 71.3122C116.414 70.8215 116.435 70.3179 116.5 69.8225C116.545 69.4817 116.798 69.2404 117.126 69.1737C117.432 69.1116 117.772 69.0811 118.073 69.1444C119.309 69.4044 120.545 69.6679 121.762 70.0028C123.204 70.3987 124.641 70.7782 126.131 70.9656C127.025 71.078 127.904 71.3216 128.789 71.5078C128.878 71.5265 128.964 71.5687 129.054 71.5734C131.689 71.7397 134.311 72.1542 136.963 71.9751C137.421 71.9446 137.596 71.7643 137.395 71.2338C137.203 70.7278 136.915 70.2617 136.684 69.771C135.851 67.992 135.399 66.0889 134.75 64.2513C134.373 63.1832 134.018 62.107 133.652 61.0353C133.168 59.6206 132.895 58.1625 132.621 56.6938C132.43 55.6714 132.345 54.6315 132.118 53.6102C131.923 52.7354 131.914 51.8055 131.674 50.9329C131.218 49.2781 131.345 47.594 131.335 45.9157C131.326 44.2293 131.328 42.5417 131.335 40.8552C131.339 39.903 131.288 38.9556 131.609 38.0163C131.764 37.5631 131.636 37.0208 131.684 36.5231C131.943 33.8013 133.086 31.6687 135.704 30.5198C136.593 30.1298 137.508 29.9049 138.484 29.9178C139.122 29.9271 139.763 29.9494 140.399 29.9014C141.648 29.8065 142.85 30.0923 144.039 30.3781C145.76 30.7915 147.42 31.3852 148.992 32.2378C149.665 32.6032 150.375 32.9147 151.06 33.2708C151.673 33.5905 152.222 33.9688 152.715 34.4548C153.779 35.5042 154.982 36.4165 155.864 37.6486C155.993 37.8289 156.177 37.9776 156.356 38.1112C156.665 38.3407 156.835 38.6581 156.945 39.0071C157.635 41.2053 158.545 43.3286 159.121 45.5679C159.259 46.1066 159.359 46.6231 159.356 47.1689C159.354 48.0356 159.356 48.901 159.356 49.7677L159.354 49.7712ZM133.987 43.8311C134.063 46.0657 133.974 47.5495 134.32 49.0474C134.613 50.3122 134.769 51.6251 134.958 52.9192C135.082 53.7695 135.277 54.6139 135.336 55.4665C135.412 56.5662 135.704 57.6132 135.917 58.6801C136.256 60.3795 136.878 61.9922 137.402 63.6341C138.133 65.9296 138.812 68.2461 139.873 70.4221C140.012 70.7079 140.126 71.0101 140.286 71.2829C140.375 71.434 140.532 71.4891 140.748 71.4785C142.577 71.3848 144.342 71.0311 146.006 70.2418C146.047 70.223 146.096 70.2219 146.137 70.2043C147.514 69.6246 148.959 69.1842 150.095 68.136C151.029 67.2729 151.996 66.4437 152.93 65.5806C153.228 65.3054 153.467 64.9856 153.585 64.5628C153.985 63.1211 154.426 61.6912 154.85 60.2565C155.106 59.3887 155.411 58.5326 155.604 57.6507C156.015 55.7862 155.858 53.8468 156.312 51.9835C156.228 49.8625 156.675 47.6959 155.754 45.6487C155.735 45.6077 155.73 45.5609 155.725 45.5152C155.52 43.9189 154.84 42.4644 154.368 40.9477C154.188 40.3703 153.862 39.8878 153.447 39.4498C152.764 38.7331 152.046 38.0385 151.447 37.255C150.66 36.2256 149.704 35.4351 148.585 34.8132C147.072 33.9723 145.506 33.2649 143.828 32.8117C142.502 32.4533 141.145 32.3362 139.789 32.2203C138.519 32.1125 137.581 32.9124 136.561 33.4746C136.487 33.5156 136.429 33.6034 136.388 33.683C135.693 35.0064 134.87 36.2584 134.623 37.7914C134.26 40.04 133.875 42.2805 133.988 43.8299L133.987 43.8311Z" fill="#8DC0FF"/>
<path d="M47.9313 47.0377C47.9126 47.8868 47.9266 48.4337 47.7369 48.9619C47.6772 49.1271 47.6374 49.332 47.6784 49.496C47.9969 50.7362 47.6784 51.9051 47.3376 53.0809C47.1701 53.6583 47.1689 54.2521 47.354 54.8306C47.4254 55.0531 47.4992 55.2756 47.4113 55.4958C46.9101 56.756 46.8902 58.1613 46.2215 59.3723C46.0481 59.6874 45.9767 60.0574 45.8279 60.3877C45.493 61.1302 45.1487 61.8704 44.6345 62.5133C44.4647 62.7265 44.2363 62.928 44.2773 63.2243C44.4261 64.2935 43.8124 65.248 43.8288 66.3032C43.8335 66.589 43.6121 66.8982 43.44 67.1628C42.5991 68.4605 41.7523 69.7558 40.8822 71.0347C40.4734 71.6343 39.9827 72.1777 39.5728 72.775C38.8209 73.87 37.7329 74.3338 36.4751 74.4685C36.0921 74.5095 35.7935 74.6219 35.4995 74.8749C34.4174 75.8083 33.19 76.4559 31.7495 76.6421C30.8067 77.2266 30.0759 76.8213 29.303 76.2194C28.6787 75.7333 28.2595 75.2005 28.2911 74.4041C28.3075 73.9977 28.1517 73.7927 27.7746 73.76C27.1059 73.7014 26.4863 73.4472 25.779 73.4508C24.9439 73.4543 24.1019 73.1217 23.2727 72.9003C22.4845 72.6895 21.749 72.2995 20.9784 72.0712C19.7873 71.7198 18.738 71.1014 17.6312 70.5908C16.7283 70.1739 15.878 69.6808 14.8814 69.4278C14.0698 69.2217 13.3214 68.7006 12.6 68.2333C12.0987 67.9077 11.5939 67.5985 11.033 67.4299C9.91686 67.0949 9.75992 66.1217 9.46713 65.2281C9.44137 65.1496 9.45191 65.0267 9.49875 64.9634C10.0949 64.1589 9.50929 63.6026 8.97291 63.2629C8.19057 62.7663 7.77013 62.0554 7.31924 61.3164C6.84609 60.5411 6.35538 59.7693 5.7944 59.0573C5.07179 58.1379 4.67243 57.1003 4.43351 55.9795C4.3773 55.7137 4.37379 55.422 4.25901 55.1843C3.70506 54.0366 3.22254 52.8373 2.52453 51.7809C1.53257 50.2807 0.870865 48.6656 0.293487 46.9803C-0.153894 45.6745 0.0440308 44.3698 0.0416885 43.0617C0.0416885 42.7654 0.274748 42.6236 0.585104 42.5616C1.28194 42.4246 1.32879 42.3801 1.33464 41.873C1.33933 41.4209 1.39788 40.9208 1.23275 40.5249C0.991494 39.9464 0.990323 39.3749 0.987981 38.787C0.980954 36.2795 0.979783 33.7721 0.982125 31.2646C0.982125 30.7681 0.923567 30.2668 1.20699 29.8019C1.41662 29.4587 1.24212 29.0875 1.18708 28.7338C1.0887 28.1014 1.0196 27.4889 1.23275 26.8494C1.45176 26.1936 1.36743 25.4885 1.32644 24.8104C1.23861 23.3512 1.77382 22.1578 2.733 21.1061C3.03164 20.7782 3.44389 20.4982 3.37831 19.9595C4.17937 18.6947 4.97107 17.4216 6.23475 16.5456C6.29331 16.5057 6.45493 16.5105 6.48303 16.5514C6.5533 16.6545 6.64582 16.8594 6.60366 16.9039C6.09187 17.4497 6.01691 18.2449 5.53674 18.7918C4.95936 19.4489 4.77315 20.2593 4.74621 21.0557C4.70874 22.2058 4.39955 23.2996 4.24613 24.4228C4.21568 24.6476 4.10793 24.869 4.11145 25.0915C4.13253 26.6023 3.61956 28.0381 3.51533 29.5301C3.50245 29.7082 3.46731 29.8956 3.50128 30.0654C3.81397 31.6043 3.70271 33.1385 3.51299 34.6797C3.40758 35.537 3.37011 36.4037 3.33263 37.268C3.30686 37.8653 3.18624 38.4368 3.02813 39.0083C2.91453 39.417 2.29499 39.4979 2.3676 39.9769C2.42733 40.3715 2.70723 40.7135 2.68264 41.148C2.66039 41.545 2.93444 41.9069 2.77165 42.3519C2.70021 42.5452 2.90165 42.8591 3.01993 43.098C3.40407 43.878 3.72262 44.672 3.78704 45.5527C3.821 46.013 3.92523 46.5014 4.27307 46.7988C5.07648 47.4863 5.32008 48.4829 5.80376 49.3449C5.91385 49.5405 5.94782 49.797 6.09655 49.9481C6.9105 50.7737 7.37428 51.8195 7.93878 52.8021C8.16481 53.1956 8.39084 53.6032 8.52904 54.0318C8.96588 55.3845 9.68028 56.6061 10.2729 57.8861C10.698 58.8031 11.3058 59.603 11.8575 60.4381C12.1069 60.814 12.4184 61.1454 12.8682 61.327C14.1494 61.8434 15.1894 62.757 16.3512 63.4726C17.0047 63.8743 17.5621 64.427 18.3375 64.6402C18.5822 64.7081 18.7813 64.9482 18.9968 65.1157C19.9595 65.8699 20.9995 66.5222 21.9095 67.3467C22.2116 67.6207 22.5454 67.8655 22.8886 68.088C23.5889 68.5424 24.3384 68.8165 25.2039 68.7755C25.9722 68.738 26.758 68.6795 27.4818 69.0554C28.6741 69.0086 29.7773 69.5942 30.9742 69.538C31.623 69.5075 32.1863 69.853 32.7836 70.0474C33.4406 70.2629 33.6538 70.1856 34.0297 69.6117C34.675 68.6256 35.2887 67.6161 35.9797 66.6627C36.4775 65.9753 36.967 65.2773 37.9484 65.1016C38.5094 65.0009 38.9509 64.55 39.225 63.9621C39.5318 63.305 39.9429 62.6961 40.3247 62.0754C40.5648 61.6842 40.7545 61.279 40.8447 60.8257C41.2909 58.5947 41.832 56.3871 42.3941 54.1818C42.6283 53.2613 42.7349 52.3044 42.838 51.357C42.8883 50.8979 42.9867 50.4774 43.146 50.0441C43.4435 49.2348 43.6847 48.4009 43.8944 47.5636C44.1017 46.7367 44.5186 46.0633 45.1522 45.5059C45.3817 45.3044 45.589 45.2494 45.8842 45.4016C46.2015 45.5656 46.5623 45.6417 46.8949 45.7788C47.9395 46.2051 47.9384 46.2097 47.9266 47.0377H47.9313Z" fill="#8DC0FF"/>
<path d="M372.926 43.9847C372.94 44.9216 372.305 45.5775 371.873 46.3024C370.548 48.5276 369.176 50.7247 367.8 52.9194C366.784 54.5391 365.719 56.1261 364.704 57.747C363.883 59.0598 363.027 60.3481 362.178 61.6434C361.669 62.421 361.237 63.2584 360.952 64.1824C360.717 64.9495 360.198 65.63 359.803 66.3491C359.65 66.629 359.462 66.8937 359.344 67.1876C358.938 68.196 358.745 68.1374 359.657 69.0708C360.386 69.818 361.051 70.6331 361.703 71.4529C362.362 72.2821 363.168 72.9544 363.972 73.6196C365.798 75.1292 367.727 76.5206 369.491 78.0981C371.39 79.7986 373.515 81.2309 375.327 83.0216C376.56 84.2408 377.983 85.2058 379.316 86.2903C380.125 86.9496 380.878 87.6758 381.667 88.3586C382.149 88.7755 382.643 89.1796 383.149 89.5649C384.012 90.2242 384.628 91.1506 385.546 91.7549C385.845 91.9517 386.107 92.2058 386.405 92.4178C386.879 92.7563 387.39 93.0654 387.706 93.6018C387.836 93.822 388.096 93.9754 388.317 94.13C388.843 94.4966 389.281 94.951 389.735 95.4007C390.409 96.0694 391.151 96.6773 391.914 97.2453C392.283 97.5205 392.591 97.8484 392.939 98.133C394.2 99.1683 395.36 100.317 396.589 101.389C397.882 102.517 399.267 103.547 400.444 104.811C400.751 105.14 401.13 105.405 401.491 105.68C401.856 105.956 402.173 106.257 402.458 106.627C402.96 107.281 403.678 107.714 404.364 108.153C405.293 108.747 406.098 109.47 406.847 110.269C407.064 110.499 407.317 110.695 407.556 110.903C407.727 111.052 407.974 111.163 408.062 111.349C408.504 112.288 409.414 112.673 410.194 113.206C410.684 113.54 411.223 113.804 411.532 114.343C411.677 114.596 411.943 114.691 412.156 114.857C412.729 115.304 413.223 115.833 413.69 116.39C413.953 116.703 414.214 117.054 414.552 117.257C416.044 118.149 417.187 119.457 418.533 120.521C419.852 121.562 421.142 122.642 422.468 123.675C423.017 124.102 423.463 124.605 423.849 125.171C423.945 125.313 424.061 125.518 423.863 125.643C423.725 125.731 423.497 125.785 423.353 125.734C422.972 125.595 422.511 125.479 422.267 125.196C421.751 124.599 421.019 124.308 420.476 123.752C419.978 123.243 419.384 122.79 418.796 122.408C418.026 121.905 417.458 121.2 416.725 120.67C415.99 120.138 415.293 119.538 414.656 118.893C413.245 117.462 411.574 116.339 410.112 114.971C409.946 114.815 409.75 114.69 409.592 114.527C408.159 113.056 406.546 111.793 404.963 110.495C404.294 109.946 403.673 109.341 403.044 108.746C402.018 107.775 400.915 106.901 399.82 106.011C398.516 104.95 397.28 103.806 396.008 102.705C394.563 101.454 393.115 100.208 391.661 98.968C390.553 98.0241 389.393 97.1364 388.326 96.1491C386.459 94.4216 384.477 92.8301 382.466 91.283C381.382 90.4491 380.454 89.4595 379.412 88.5916C377.421 86.9345 375.472 85.2222 373.406 83.6646C372.133 82.7042 371 81.5998 369.784 80.5845C369.084 80.0024 368.358 79.4601 367.654 78.8921C366.703 78.1238 365.715 77.4071 364.768 76.6388C364.333 76.2875 363.844 76.058 363.383 75.7851C362.048 74.9969 360.815 74.0599 359.504 73.239C359.166 73.027 358.756 72.5761 358.435 72.7951C358.004 73.089 358.416 73.6138 358.447 74.0448C358.551 75.5028 359.301 76.8344 359.241 78.3171C359.611 79.165 359.518 80.1066 359.798 80.9803C360.017 81.6666 360.064 82.4044 360.2 83.1165C360.42 84.2724 360.577 85.4412 360.851 86.589C360.924 86.8946 360.918 87.2226 360.92 87.54C360.925 88.0892 360.961 88.6279 361.118 89.162C361.219 89.5063 361.262 89.8764 361.272 90.236C361.289 90.9211 361.418 91.5863 361.513 92.2597C361.657 93.2891 361.636 94.3525 361.581 95.396C361.559 95.82 361.335 96.2873 361.068 96.6281C360.759 97.0239 360.187 97.0356 359.732 97.2183C359.695 97.2336 359.641 97.2184 359.599 97.2043C359.188 97.0685 358.514 96.0273 358.556 95.5565C358.589 95.1946 358.647 94.8315 358.73 94.4778C358.837 94.0281 358.87 93.5854 358.804 93.124C358.76 92.8136 358.755 92.4834 358.81 92.1765C358.901 91.6683 358.904 91.1869 358.712 90.6997C358.63 90.4924 358.585 90.2547 358.59 90.0321C358.631 88.0974 358.003 86.2727 357.67 84.4012C357.544 83.688 357.421 82.9724 357.277 82.2604C356.846 80.1324 356.568 77.9728 356.151 75.8401C355.821 74.1513 355.479 72.4672 355.204 70.7679C355.117 70.2338 354.902 69.7091 354.545 69.2816C354.186 68.8518 354.063 68.4068 354.343 67.9008C354.538 67.5507 354.546 67.2087 354.365 66.8585C354.148 66.4334 354.411 65.9848 354.261 65.5234C354.082 64.9765 354.194 64.3452 353.821 63.8311C353.747 63.7292 353.741 63.5723 353.721 63.4388C353.439 61.5204 352.938 59.6443 352.602 57.7388C352.264 55.8228 351.722 53.9536 351.433 52.0247C351.206 50.5128 350.724 49.0383 350.354 47.5474C349.941 45.8797 349.53 44.2119 349.109 42.5466C348.69 40.8812 348.238 39.224 347.843 37.5527C347.511 36.1462 347.191 34.7373 346.854 33.3331C346.526 31.964 346.151 30.6125 345.752 29.2645C345.092 27.0463 344.455 24.8211 343.786 22.6053C343.116 20.386 342.418 18.1737 341.734 15.9579C341.695 15.8279 341.661 15.6943 341.641 15.5596C341.58 15.1544 341.928 14.8476 342.324 14.9694C342.999 15.1755 343.586 15.4812 343.806 16.2401C344.502 18.6421 345.438 20.9681 346.071 23.3924C346.439 24.7977 346.892 26.1832 347.381 27.5523C347.96 29.1779 348.35 30.8503 348.766 32.518C349.171 34.1459 349.536 35.7796 350.064 37.3794C350.533 38.8012 350.809 40.2874 351.153 41.749C351.539 43.3898 351.89 45.0388 352.291 46.6749C352.563 47.7793 353.058 48.8169 353.269 49.9436C353.537 51.37 353.868 52.7848 354.128 54.2124C354.225 54.75 354.417 55.2559 354.515 55.7958C354.813 57.4413 355.216 59.0668 355.585 60.6994C355.644 60.9653 355.737 61.2241 355.833 61.4794C356.058 62.0756 356.199 62.6845 356.265 63.3228C356.309 63.755 356.715 63.865 357.067 63.5816C357.421 63.297 357.782 63.016 358.104 62.6974C359.008 61.8027 359.883 60.8774 360.794 59.9897C361.126 59.6665 361.408 59.3245 361.616 58.9122C361.696 58.7541 361.8 58.5984 361.926 58.4766C362.75 57.6849 363.309 56.7081 363.927 55.7618C364.67 54.6211 365.325 53.4348 365.974 52.2425C366.08 52.047 366.25 51.8853 366.401 51.7167C366.552 51.5468 366.782 51.4157 366.864 51.2201C367.236 50.33 367.876 49.6098 368.351 48.7911C368.94 47.7781 369.406 46.6959 370.222 45.8246C370.333 45.7051 370.352 45.4955 370.401 45.3246C370.607 44.6031 371.292 44.3267 371.77 43.8606C371.954 43.6814 372.18 43.7364 372.919 43.9824L372.926 43.9847Z" fill="#8DC0FF"/>
<path d="M64.1293 55.5147C64.1082 56.735 64.2277 58.1509 63.8412 59.5411C63.7463 59.8819 63.8061 60.266 63.8049 60.6314C63.8037 63.1845 63.8025 65.7388 63.8061 68.2919C63.8061 69.0227 63.7756 69.7453 63.5952 70.4621C63.3353 71.4927 63.4805 72.5503 63.4734 73.5961C63.4688 74.3796 63.3142 75.1256 63.1584 75.888C62.9745 76.7805 62.3117 76.9924 61.6172 77.2231C61.5387 77.2489 61.4333 77.2372 61.3537 77.2079C60.9426 77.0615 60.3547 76.175 60.5081 75.7733C60.9086 74.7286 60.7294 73.6101 61.0152 72.5456C61.1991 71.8616 61.0843 71.0969 61.0972 70.3684C61.1147 69.4151 61.0527 68.4629 61.349 67.5225C61.4813 67.1032 61.4204 66.6184 61.4204 66.164C61.4263 63.5195 61.4228 60.8739 61.4239 58.2294C61.4239 57.5466 61.4427 56.8744 61.6336 56.1998C61.7671 55.7278 61.7542 55.2066 61.7554 54.7077C61.7636 50.9694 61.7612 47.2299 61.7589 43.4904C61.7589 43.1719 61.8209 42.8217 61.712 42.5394C61.3056 41.4784 61.4403 40.3821 61.4263 39.2953C61.4099 37.9274 61.4274 36.5596 61.4204 35.1916C61.4157 34.421 61.4064 33.6679 61.1862 32.8973C61.0047 32.2614 61.1159 31.5412 61.0995 30.8584C61.082 30.1334 61.0855 29.4225 60.8735 28.6987C60.7002 28.1061 60.7892 27.4351 60.7728 26.7979C60.7552 26.1175 60.8009 25.4418 60.5221 24.78C60.3875 24.4627 60.4331 24.0645 60.4179 23.7014C60.3652 22.4342 60.5702 21.1483 60.1017 19.9127C60.0408 19.7511 60.0771 19.5509 60.0736 19.3694C60.0572 18.5074 60.0958 17.6548 59.8019 16.8057C59.6461 16.3548 59.7468 15.8126 59.748 15.3113C59.7515 13.8462 59.611 13.804 61.2916 13.8966C62.5541 13.9657 63.7791 14.3462 64.9924 14.7081C66.755 15.234 68.2939 16.2236 69.7825 17.2496C70.4898 17.7379 71.2605 18.1303 71.9362 18.6748C72.7127 19.3014 73.5618 19.839 74.1684 20.6553C74.1954 20.6916 74.227 20.7267 74.2633 20.7536C76.6817 22.5174 77.8716 25.156 79.1692 27.7056C79.619 28.5898 80.0324 29.5069 80.0137 30.5562C80.0078 30.904 80.2116 31.2495 80.2818 31.6044C80.7772 34.1141 80.9096 36.6521 80.7749 39.2005C80.7316 40.0133 80.625 40.846 80.3849 41.6189C80.0874 42.5734 79.5604 43.4178 78.7254 44.0526C77.703 44.829 76.6138 45.4662 75.3852 45.8304C74.6474 46.0494 73.8428 45.9674 73.1167 46.2719C71.6973 46.1724 70.3411 46.8294 68.924 46.6455C67.9332 46.5167 67.3066 47.0941 66.6496 47.6504C66.4634 47.8085 66.3931 48.0392 66.4868 48.2699C66.6063 48.5639 66.7457 48.852 66.9073 49.1237C67.152 49.5371 67.5842 49.8568 67.2551 50.4635C67.1286 50.6965 67.5397 50.72 67.7212 50.8148C67.9039 50.9109 68.0398 51.0514 67.8758 51.2365C67.5619 51.5901 67.6533 51.9028 67.9262 52.2038C68.5984 52.9463 69.225 53.7239 69.9324 54.4395C71.2101 55.7336 72.4738 57.0453 73.5922 58.4894C74.1743 59.2413 74.8746 59.8983 75.4942 60.622C77.0869 62.4818 78.5708 64.426 80.0265 66.3982C81.2691 68.0823 82.5387 69.7453 83.7438 71.4576C85.3635 73.7589 86.9375 76.0906 88.3733 78.5114C88.7434 79.1356 89.0151 79.8196 89.3231 80.4801C89.5234 80.9076 89.5058 81.369 89.5 81.8246C89.4754 83.7371 89.4508 85.6496 89.4168 87.5621C89.4063 88.1512 88.9039 88.7672 88.3066 88.9686C88.0431 89.0576 87.5102 88.7414 87.4704 88.4241C87.4071 87.9298 87.3872 87.4415 87.6074 86.9531C88.4342 85.1179 88.1614 83.1949 87.9412 81.2999C87.8756 80.7389 87.5383 80.1885 87.2444 79.6791C85.5801 76.7945 83.7332 74.0306 81.7153 71.3814C81.248 70.7678 80.7503 70.1682 80.3615 69.5064C79.5042 68.0425 78.415 66.7636 77.2837 65.5198C76.5751 64.741 75.9802 63.886 75.3817 63.0299C75.0152 62.5064 74.6263 62.0192 74.1509 61.5789C73.4528 60.9336 72.8403 60.1969 72.195 59.4942C70.8763 58.0596 69.6267 56.5687 68.0573 55.3717C67.0115 54.5754 66.1074 53.5951 65.1353 52.7015C64.9362 52.5188 64.7278 52.342 64.5052 52.1897C64.3717 52.0984 64.2288 52.1921 64.1914 52.3244C64.1434 52.4966 64.1375 52.684 64.1363 52.8643C64.1316 53.6853 64.134 54.5063 64.134 55.5158L64.1293 55.5147ZM78.9889 37.4145C78.9655 36.3464 79.0463 35.5664 78.7207 34.8262C78.6516 34.6681 78.6516 34.4667 78.6621 34.2875C78.7207 33.3213 78.5251 32.389 78.2991 31.4603C78.0848 30.5784 77.9993 29.6345 77.621 28.8288C76.9675 27.4363 76.3702 26.0109 75.4391 24.7437C74.8137 23.8946 74.0829 23.1568 73.4189 22.3522C72.236 20.9176 70.7077 19.8999 69.0786 19.1117C67.7013 18.4453 66.4458 17.4896 64.9034 17.1769C64.2862 16.7202 63.5589 16.6546 62.8305 16.5949C62.2894 16.5516 62.17 16.6441 62.1559 17.1535C62.1489 17.3807 62.1266 17.6184 62.1805 17.8339C62.6208 19.6164 62.4054 21.4622 62.7263 23.2587C62.8609 24.0141 62.7825 24.8046 62.8527 25.5753C63.0905 28.1565 63.4032 30.7331 63.5894 33.3178C63.7299 35.2689 63.7194 37.2306 63.7791 39.1864C63.7943 39.6865 63.7288 40.2112 63.8564 40.682C64.1375 41.7138 64.0824 42.7573 64.1082 43.8008C64.1188 44.2107 64.1211 44.6206 64.1363 45.0293C64.148 45.3456 64.3167 45.5317 64.6341 45.5622C65.0451 45.6008 65.4504 45.588 65.8497 45.4568C66.1074 45.3725 66.3756 45.2717 66.6402 45.2671C67.6428 45.2507 68.623 45.116 69.615 44.952C70.9524 44.7307 72.2957 44.5562 73.5922 44.151C74.8781 43.7493 76.1805 43.3897 77.1549 42.3357C77.4629 42.0031 77.792 41.7067 78.0274 41.3074C78.7945 40.0086 78.9034 38.5669 78.9901 37.4122L78.9889 37.4145Z" fill="#8DC0FF"/>
<path d="M247.151 85.5985C247.151 85.0059 247.168 84.4133 247.149 83.8207C247.062 81.1984 247.632 78.677 248.351 76.1848C249.222 73.1667 250.312 70.22 251.557 67.3414C252.258 65.7216 253.069 64.1359 254.09 62.6755C254.935 61.4669 256.076 60.8754 257.556 60.9117C258.195 60.9281 258.827 60.9445 259.457 61.0839C259.944 61.1916 260.453 61.2982 260.945 61.2713C262.483 61.1869 263.919 61.6542 265.339 62.0934C266.898 62.5748 268.398 63.2446 269.924 63.8337C270.364 64.0035 270.707 64.2881 270.948 64.6969C271.11 64.9698 270.989 65.2801 270.655 65.2719C270.086 65.2555 269.683 65.4347 269.449 65.9676C269.417 66.039 269.292 66.1386 269.243 66.1222C268.691 65.9406 268.123 66.3658 267.546 65.9734C266.179 65.047 264.515 64.8234 263.026 64.1758C261.804 64.1266 260.636 63.7084 259.389 63.719C258.612 63.726 258.092 63.9509 257.63 64.5177C257.145 65.1103 256.523 65.6151 256.14 66.2627C255.517 67.3156 254.908 68.3942 254.502 69.5595C253.711 71.8304 252.67 74.0087 252.068 76.3487C251.74 77.6218 251.211 78.8549 250.996 80.142C250.796 81.3401 250.469 82.5312 250.504 83.7715C250.542 85.0925 250.543 86.4159 250.503 87.737C250.47 88.8215 250.815 89.776 251.262 90.7398C252.45 93.2976 254.689 94.4184 257.214 95.0895C259.138 95.6001 261.12 95.8824 263.108 96.0159C264.521 96.1107 265.92 95.955 267.255 95.4245C267.975 95.1387 268.681 94.8178 269.414 94.5765C269.907 94.4149 270.282 94.0917 270.706 93.834C271.913 93.0997 273.05 92.2834 274.038 91.2563C274.57 90.7024 275.093 90.1156 275.765 89.7127C275.913 89.6237 276.119 89.509 276.258 89.5488C276.951 89.7444 277.64 89.9645 278.312 90.2233C278.698 90.3709 278.762 90.7281 278.55 91.1322C278.508 91.2118 278.49 91.3125 278.432 91.3746C277.121 92.7542 275.873 94.2006 274.281 95.2792C274.022 95.4549 273.718 95.5638 273.432 95.6997C272.201 96.2817 270.967 96.8567 269.737 97.4435C268.407 98.0783 267.018 98.4074 265.533 98.3535C264.44 98.3137 263.345 98.35 262.251 98.3465C261.571 98.3442 260.884 98.4015 260.234 98.0982C260.077 98.0256 259.878 98.0303 259.697 98.0268C257.488 97.9834 255.412 97.3405 253.38 96.5628C250.859 95.599 248.998 93.8294 247.68 91.5128C247.334 90.9062 247.13 90.1835 247.148 89.4293C247.178 88.1539 247.156 86.8774 247.156 85.6008H247.153L247.151 85.5985Z" fill="#8DC0FF"/>
<path d="M269.396 23.807C269.435 23.3093 269.452 22.808 269.52 22.3138C269.561 22.0151 269.876 21.8688 270.143 21.9718C271.407 22.4602 271.446 22.5082 271.461 23.8445C271.467 24.3926 271.474 24.9302 271.68 25.4572C271.947 26.14 271.816 26.8848 272.005 27.6051C272.281 28.6462 272.387 29.7471 272.432 30.8281C272.46 31.5284 272.723 32.155 272.823 32.8296C273.066 34.4809 273.493 36.1076 273.707 37.7625C273.818 38.6198 274.016 39.4571 274.172 40.298C274.568 42.4307 274.951 44.5622 275.241 46.7136C275.416 48.0089 275.652 49.303 275.894 50.5866C276.087 51.6126 276.124 52.6572 276.373 53.6761C276.565 54.4643 276.621 55.2888 276.744 56.0969C277.067 58.2027 277.562 60.2721 278.004 62.352C278.874 66.4522 280.235 70.4107 281.616 74.361C281.885 75.1328 282.2 75.8906 282.522 76.6436C282.769 77.2199 283.076 77.2925 283.579 76.9025C283.938 76.6237 284.253 76.2911 284.605 76.0007C285.969 74.8752 287.344 73.7626 288.704 72.6324C288.884 72.4825 289.078 72.397 289.286 72.3033C290.244 71.8653 291.254 71.952 292.246 72.027C292.783 72.068 293.278 72.3654 293.656 72.7835C294.569 73.7942 295.567 74.7253 296.322 75.8788C296.841 76.6705 297.545 77.3217 298.075 78.1286C298.567 78.8758 298.963 79.657 299.093 80.4862C299.347 82.0965 299.892 83.6647 299.854 85.3196C300.375 86.6102 299.925 88.0507 300.471 89.3413C300.538 89.4994 300.518 89.7032 300.508 89.8835C300.435 91.2608 300.755 92.5795 301.072 93.9029C301.22 94.5201 301.297 95.1561 301.403 95.7803C301.54 96.5884 301.801 97.3402 302.057 98.1062C302.171 98.4458 302.202 98.8147 302.253 99.1719C302.259 99.2164 302.158 99.2855 302.095 99.3242C302.069 99.3394 301.993 99.3195 301.974 99.2914C301.849 99.1052 301.693 98.9272 301.621 98.721C301.118 97.2665 300.714 95.7768 300.282 94.3023C300.009 93.3712 299.728 92.3828 299.802 91.3615C299.845 90.7701 299.795 90.1822 299.585 89.6095C299.494 89.3612 299.492 89.0719 299.489 88.8014C299.479 88.0718 299.509 87.3433 299.222 86.6453C299.155 86.4837 299.149 86.2857 299.159 86.1065C299.218 84.9506 298.808 83.8684 298.646 82.7477C298.587 82.3436 298.476 81.9478 298.4 81.5449C298.149 80.225 297.602 79.0433 296.758 77.9986C296.644 77.8581 296.488 77.7305 296.434 77.5688C296.108 76.5874 295.246 76.0768 294.508 75.5146C294.037 75.1551 293.333 75.0626 292.885 74.6187C292.55 74.2885 292.132 74.1139 291.772 73.8387C291.482 73.6174 291.171 73.3785 290.777 73.5202C290.272 73.7005 289.662 73.7064 289.336 74.2229C288.658 75.2992 287.789 76.208 286.891 77.0957C286.589 77.3943 286.432 77.7504 286.344 78.1685C286.05 79.5774 286.07 80.9652 286.495 82.3471C286.949 83.8239 287.374 85.309 287.841 86.7823C287.954 87.1395 287.996 87.4897 287.996 87.8551C287.996 90.6366 287.997 93.4181 287.999 96.1996C287.999 96.3366 287.999 96.4736 287.992 96.6095C287.978 96.8905 287.941 97.1645 287.6 97.2383C287.172 97.332 286.819 97.2103 286.645 96.9222C286.428 96.5638 286.3 96.1878 286.32 95.7568C286.347 95.1631 286.325 94.574 286.077 94.0118C286.005 93.8514 285.994 93.6546 285.995 93.4743C286.005 92.2329 285.628 91.0582 285.389 89.8601C285.141 88.6163 284.854 87.3761 284.691 86.1194C284.607 85.4659 284.356 84.8933 284.113 84.3194C283.261 82.3132 282.437 80.2953 281.595 78.2867C280.581 75.8671 279.474 73.4698 278.837 70.898C278.62 70.0243 278.17 69.2115 277.888 68.3507C277.308 66.5776 276.941 64.7494 276.526 62.9341C276.354 62.1811 276.171 61.435 275.925 60.6983C275.637 59.8387 275.436 58.9463 275.261 58.0551C274.859 56.0044 274.443 53.9584 274.165 51.8831C273.883 49.7715 273.547 47.6646 273.13 45.5752C272.856 44.2003 272.747 42.7926 272.404 41.4434C272.103 40.2582 271.839 39.0671 271.615 37.8702C271.424 36.8501 271.131 35.85 271.078 34.7959C271.039 34.0347 270.823 33.2793 270.68 32.5275C270.57 31.9454 270.507 31.3692 270.438 30.7847C270.318 29.753 270.101 28.7329 269.951 27.7046C269.763 26.4082 269.377 25.1375 269.395 23.8059L269.396 23.807Z" fill="#8DC0FF"/>
<path d="M316.802 87.5222C316.541 87.8208 316.199 87.8864 315.823 87.8888C314.957 87.8946 314.091 87.9192 313.225 87.9215C312.847 87.9215 312.647 88.0879 312.555 88.4556C312.412 89.0295 312.189 89.5858 312.442 90.1901C312.509 90.3482 312.566 90.5707 312.505 90.7112C312.177 91.4725 312.39 92.2572 312.445 93.0079C312.513 93.9413 312.66 94.6159 313.886 94.8431C314.509 94.9578 315.114 95.1581 315.757 95.1803C316.211 95.1956 316.651 95.2705 317.096 95.4064C318.281 95.7671 319.528 95.6606 320.748 95.7671C321.035 95.7917 321.368 95.6172 321.638 95.4614C322.818 94.7763 324.049 94.1708 325.098 93.2772C325.586 92.8626 326.114 92.5066 326.696 92.2349C326.902 92.1389 327.144 92.0311 327.345 92.1834C327.844 92.5617 328.428 92.6261 329.012 92.7209C329.186 92.749 329.358 92.831 329.513 92.92C329.797 93.0828 329.928 93.4564 329.795 93.7504C329.702 93.9553 329.576 94.1498 329.438 94.3278C328.929 94.9766 328.362 95.5727 327.684 96.0446C326.863 96.6173 326.15 97.3376 325.238 97.7838C325.079 97.8611 324.927 97.99 324.82 98.1317C323.852 99.4 322.395 99.8416 321.006 100.391C320.568 100.564 320.139 100.535 319.697 100.297C319.246 100.055 318.777 99.8216 318.567 99.352C318.34 98.8414 317.968 98.6856 317.48 98.709C316.968 98.7336 316.622 98.4584 316.296 98.1293C316.134 97.9665 315.982 97.7827 316.064 97.5297C316.209 97.08 315.968 96.9547 315.59 96.9465C315.134 96.9371 314.675 96.9032 314.222 96.943C313.346 97.0191 312.514 96.7778 311.673 96.6267C310.682 96.4475 310.149 95.6348 309.704 94.8595C309.141 93.8781 308.761 92.8146 308.538 91.6751C308.35 90.7112 307.912 89.7895 307.53 88.8713C307.368 88.4848 307.213 88.1206 307.235 87.6978C307.288 86.6625 306.854 85.8474 306.067 85.2162C305.834 85.0288 305.68 84.8332 305.694 84.5369C305.699 84.4128 305.746 84.1891 305.792 84.1856C306.636 84.1012 306.525 83.3482 306.686 82.8458C306.934 82.0728 307.04 81.2553 307.238 80.4636C307.413 79.7656 307.589 79.0676 308.202 78.5722C308.401 78.4118 308.452 78.0756 308.639 77.8894C309.198 77.3343 309.609 76.5379 310.583 76.6094C312.34 75.8634 314.067 76.3693 315.792 76.7487C316.366 76.8752 316.924 77.0778 317.486 77.2523C318.313 77.5076 319.133 77.7829 320.023 77.6974C320.722 77.6306 321.314 77.9421 321.68 78.482C322.372 79.5033 322.967 80.6042 322.736 81.9089C322.564 82.8821 322.349 83.8541 322.052 84.7957C321.908 85.2525 321.54 85.6402 321.262 86.0512C321.217 86.1168 321.105 86.1742 321.026 86.1706C320.504 86.1484 320.068 86.4026 319.605 86.5771C319.304 86.6895 319.035 86.4482 319.113 86.1625C319.16 85.9868 319.217 85.8111 319.293 85.6472C319.506 85.1928 319.376 84.8098 318.966 84.599C318.48 84.3495 318.353 83.99 318.399 83.4923C318.425 83.2217 318.406 82.9453 318.402 82.6725C318.383 81.2999 318.353 81.2038 317.18 80.4742C316.57 80.0936 315.955 79.6848 315.172 79.7059C314.961 79.7118 314.741 79.5829 314.537 79.4892C314.374 79.4143 314.243 79.262 314.076 79.2046C313.468 78.995 313.045 79.1461 312.887 79.7188C312.681 80.4636 312.49 81.2132 312.263 81.9522C311.969 82.9079 311.661 83.86 311.328 84.8039C311.197 85.1775 311.189 85.4961 311.408 85.8369C311.526 86.022 311.581 86.2515 311.643 86.467C311.798 87.0057 312.101 87.3137 312.704 87.3383C313.155 87.357 313.601 87.4847 314.049 87.5679C314.586 87.6686 315.14 87.8372 315.657 87.5679C316.057 87.3582 316.447 87.9063 316.814 87.5245H316.798L316.802 87.5222Z" fill="#8DC0FF"/>
<path d="M323.802 71.7643C323.802 70.4877 323.811 69.2124 323.798 67.9358C323.788 66.8478 324.104 65.9753 324.913 65.1461C325.62 64.4224 326.308 64.085 327.278 64.1178C328.37 64.1553 329.466 64.1588 330.559 64.1202C333.927 64.0019 336.769 65.2222 339.224 67.4603C339.694 67.8878 340.18 68.2965 340.657 68.7169C340.828 68.8669 341.028 68.9992 341.155 69.1807C342.463 71.0663 344.334 72.3873 345.942 73.9731C346.137 74.1651 346.353 74.335 346.534 74.5388C347.089 75.1641 347.016 75.3902 346.208 75.5577C345.939 75.6139 345.62 75.6174 345.501 75.8926C345.258 76.4466 344.854 76.3248 344.475 76.1585C343.54 75.7486 342.806 75.0693 342.149 74.3069C341.354 73.3828 340.529 72.4822 339.849 71.4645C339.726 71.2806 339.529 71.1412 339.352 70.9984C338.014 69.9221 336.831 68.6619 335.415 67.6758C335.111 67.465 334.809 67.2636 334.472 67.1382C333.061 66.6147 331.619 66.2001 330.111 66.0701C329.001 65.9741 327.808 66.6663 327.404 67.7063C326.876 69.0636 326.432 70.4468 326.491 71.9388C326.515 72.5759 326.537 73.2189 326.482 73.8525C326.372 75.1466 326.673 76.395 326.958 77.6201C327.534 80.1053 328.588 82.4241 329.636 84.7477C330.102 85.7806 330.813 86.3815 331.746 86.9214C332.923 87.603 334.047 88.3888 335.131 89.2121C336.232 90.0472 337.472 90.6082 338.713 91.1445C340.929 92.1014 343.32 92.4703 345.662 92.9868C346.442 93.1589 347.193 92.9926 347.863 92.4972C348.92 91.7137 350.071 91.0508 350.887 89.971C351.102 89.6853 351.408 89.4616 351.694 89.2367C352.501 88.5984 353.304 88.575 354.209 89.1395C354.4 89.2578 354.397 89.4159 354.338 89.6056C354.202 90.0401 354.048 90.4453 353.721 90.799C352.516 92.1014 351.337 93.4271 349.891 94.4776C349.332 94.8852 348.748 95.1897 348.012 95.144C346.884 95.0726 345.73 95.3021 344.643 94.8161C343.724 94.8782 342.847 94.6334 341.961 94.4472C340.325 94.1041 338.661 93.8476 337.243 92.8544C337.133 92.7783 337.006 92.7092 336.877 92.6799C335.975 92.4738 335.206 91.9842 334.44 91.5041C332.631 90.3716 330.763 89.3387 328.998 88.13C328.09 87.5081 327.417 86.7188 326.977 85.7865C326.202 84.1469 325.515 82.4593 324.919 80.7459C324.566 79.7328 324.322 78.6706 324.087 77.6095C323.708 75.8868 323.862 74.171 323.804 72.4518C323.796 72.2246 323.804 71.9962 323.804 71.7678L323.802 71.7643Z" fill="#8DC0FF"/>
<path d="M99.4557 74.2111C99.2496 74.115 98.9638 74.074 98.8526 73.9124C98.26 73.0574 97.3793 72.4836 96.7504 71.6521C95.9891 70.6437 95.0709 69.7548 94.2312 68.805C93.2369 67.6807 92.2297 66.5669 91.2752 65.4087C90.6018 64.5912 90.2879 63.5688 89.8769 62.6084C89.4072 61.5122 89.0816 61.2698 87.948 61.3178C87.7664 61.326 87.5849 61.3553 87.4034 61.3635C86.8038 61.3904 86.4665 61.2417 86.3739 60.9185C86.1901 60.2755 86.3493 59.5822 86.7452 59.2789C86.9829 59.0962 87.2523 59.0821 87.524 59.1465C88.2712 59.3245 89.0149 59.5142 89.7597 59.7016C89.8909 59.7344 90.0162 59.7942 90.1486 59.8187C90.5175 59.8867 90.8021 59.6934 90.795 59.3257C90.7822 58.5961 90.9531 57.9004 91.0691 57.1883C91.2448 56.105 91.5727 55.0697 91.9123 54.0426C92.4265 52.4909 93.0284 50.9648 93.6527 49.4517C93.9454 48.742 94.3753 48.0884 94.7453 47.4104C95.7279 45.6115 96.7351 43.8266 97.6849 42.0102C98.0702 41.2747 98.6418 40.6856 99.0763 39.9911C99.6302 39.1057 100.264 38.2695 100.869 37.4181C101.8 36.1099 102.982 35.0348 104.174 33.9819C104.94 33.3062 105.909 33.004 106.914 32.8459C107.191 32.8026 107.437 32.8916 107.704 32.9607C109.215 33.3518 109.484 34.5804 109.724 35.8452C110.109 37.8678 110.147 39.9138 110.157 41.9621C110.159 42.5547 110.185 43.1474 110.187 43.74C110.192 44.6488 110.25 45.5576 110.066 46.4606C109.994 46.8154 109.953 47.1902 109.981 47.5486C110.09 48.9692 109.675 50.3453 109.647 51.7542C109.639 52.1489 109.433 52.5365 109.374 52.9347C109.213 54.0333 108.857 55.0943 108.773 56.2104C108.751 56.5079 108.524 56.7866 108.401 57.0794C108.033 57.9578 107.712 58.8596 107.297 59.7145C106.559 61.2311 105.283 62.1786 103.725 62.6928C101.928 63.2854 100.069 63.3603 98.2014 63.0371C97.6627 62.9434 97.1333 62.838 96.5759 62.9118C96.2702 62.9516 95.9341 62.9118 95.6354 62.8251C94.9034 62.6131 94.709 62.8755 94.6997 63.5173C94.6798 64.8044 94.9538 66.0516 95.263 67.2802C95.4246 67.9255 95.8415 68.5052 96.1355 69.12C96.2667 69.3941 96.5313 69.626 96.3732 69.9973C96.2983 70.1718 96.433 70.331 96.5536 70.4774C97.3055 71.3874 98.0281 72.322 98.8057 73.2097C99.0821 73.5259 99.3433 73.8199 99.4264 74.2391L99.4581 74.2087L99.4557 74.2111ZM102.326 36.8583C102.398 36.8899 102.469 36.9262 102.543 36.9508C102.556 36.9555 102.585 36.9122 102.606 36.8923C102.503 36.8923 102.4 36.8911 102.302 36.8887C102.313 36.9086 102.326 36.9274 102.338 36.9473C102.334 36.918 102.33 36.8887 102.326 36.8594V36.8583ZM109.038 42.2163C108.973 41.263 109.224 40.0192 108.755 38.8329C108.846 37.9088 108.573 37.0293 108.406 36.1392C108.269 35.4119 107.895 35.2456 107.222 35.6005C106.123 36.179 105.144 36.9239 104.357 37.8842C103.407 39.0436 102.2 39.9407 101.217 41.0639C101.16 41.1295 101.071 41.1704 100.989 41.2079C100.954 41.2232 100.883 41.2138 100.859 41.188C100.801 41.1283 100.717 41.0451 100.726 40.9831C100.745 40.8554 100.815 40.7336 100.869 40.6118C101.218 39.8213 101.572 39.0319 101.915 38.2379C101.967 38.1184 101.958 37.9638 101.8 37.9217C101.735 37.9041 101.635 37.9674 101.566 38.0154C101.492 38.0657 101.421 38.1325 101.375 38.2075C100.698 39.3353 99.8129 40.3308 99.2707 41.5476C99.1067 41.9142 98.8233 42.2292 98.5856 42.5606C98.4263 42.782 98.1862 42.9659 98.0925 43.2095C97.6978 44.2366 97.0537 45.1243 96.5407 46.0835C95.646 47.7606 94.6247 49.3767 94.052 51.2155C93.8506 51.8608 93.4688 52.4487 93.2486 53.0893C92.6291 54.8882 92.2309 56.7573 91.5434 58.5363C91.4649 58.7401 91.4813 58.9849 91.4731 59.2121C91.4427 60.1431 91.5212 60.2462 92.4194 60.58C92.6724 60.6749 92.9183 60.7908 93.1608 60.9114C94.353 61.5052 95.6132 61.8648 96.9401 61.9432C97.7154 61.9889 98.479 62.0556 99.2344 62.2571C99.5775 62.3484 99.9652 62.3637 100.317 62.3121C100.944 62.2184 101.594 62.1283 102.173 61.8882C103.008 61.5403 103.796 61.0719 104.587 60.6257C104.773 60.5203 104.916 60.3118 105.036 60.1233C105.501 59.3948 105.983 58.6745 106.394 57.9156C106.87 57.0384 107.238 56.1167 107.397 55.1119C107.503 54.4432 107.719 53.792 107.894 53.135C108.127 52.2566 108.437 51.3946 108.389 50.4624C108.373 50.1415 108.415 49.8253 108.557 49.5301C108.721 49.1893 108.704 48.8216 108.711 48.4574C108.732 47.3694 108.624 46.2732 109.003 45.2121C109.091 44.9673 109.035 44.6699 109.037 44.397C109.04 43.7587 109.037 43.1204 109.037 42.2175L109.038 42.2163Z" fill="#8DC0FF"/>
<path d="M8.80955 14.2584C8.94892 13.907 9.19954 13.6459 9.49702 13.4281C10.8064 12.4642 12.1497 11.5413 13.4192 10.5271C14.2062 9.89936 15.0623 9.38637 15.9161 8.88629C18.0289 7.64721 20.1943 6.49479 22.3422 5.31427C24.7712 3.97915 27.2857 2.81619 29.8095 1.67431C31.2524 1.02198 32.7151 0.420011 34.2728 0.0956011C34.582 0.0311877 34.904 0.0148235 35.2214 0.0113101C36.3141 -0.000401462 37.4079 -0.00278037 38.5006 0.0030754C38.7712 0.00424655 39.0604 -0.00158405 39.3076 0.0874236C40.0103 0.342735 40.8558 0.453981 40.953 1.44946C42.0036 2.56908 42.342 4.09396 43.1607 5.34944C43.5307 5.91628 43.7263 6.5815 43.9395 7.23266C44.3482 8.47877 44.8202 9.70496 45.2523 10.944C45.4175 11.416 45.5685 11.8962 45.5592 12.4068C45.5545 12.6363 45.3343 12.8155 45.0907 12.7886C44.2287 12.6937 43.3199 11.9243 43.1349 11.1162C43.074 10.8515 43.0471 10.5786 43.0143 10.3069C42.8456 8.89336 42.2858 7.59684 41.8045 6.27813C41.4496 5.3049 41.0573 4.35277 40.898 3.31279C40.7973 2.65225 40.4084 2.10765 39.7093 1.95189C38.3484 1.64856 37.0191 1.18243 35.5657 1.64972C34.849 1.88044 34.0936 2.10885 33.3031 2.11939C33.0021 2.1229 32.6952 2.29035 32.4036 2.41332C31.4479 2.81737 30.5391 3.30576 29.4593 3.40531C28.8983 3.45684 28.3666 3.82576 27.8232 4.05413C27.069 4.37035 26.3148 4.68657 25.5617 5.00747C24.4374 5.4853 23.3096 5.93381 22.2345 6.54164C21.1758 7.14009 20.0105 7.55821 18.9424 8.16369C17.5241 8.96828 16.0473 9.67803 14.6641 10.5365C13.4766 11.2731 12.3863 12.1667 11.2491 12.9853C10.7689 13.3308 10.284 13.6693 9.79215 13.9984C9.48648 14.2021 9.16089 14.3626 8.77441 14.2268L8.80604 14.2596L8.80955 14.2584Z" fill="#8DC0FF"/>
<path d="M181.138 50.3874V47.8354C181.138 47.8354 181.138 47.8354 181.137 47.8354C181.137 48.6857 181.137 49.5348 181.137 50.3851L181.138 50.3874Z" fill="#8DC0FF"/>
<path d="M7.97856 15.0901C7.95748 15.3536 7.99964 15.6498 7.7455 15.8185C7.66586 15.8712 7.49722 15.8173 7.38244 15.7763C7.35082 15.7658 7.33091 15.6054 7.36488 15.5468C7.50659 15.302 7.71739 15.1451 8.01135 15.1217L7.97856 15.0889V15.0901Z" fill="#8DC0FF"/>
<path d="M316.817 87.5227C317.385 87.525 317.906 87.2955 318.643 87.0449C318.015 87.839 317.378 87.5005 316.808 87.5239C316.802 87.5227 316.817 87.5216 316.817 87.5216V87.5227Z" fill="#8DC0FF"/>
<path d="M8.77607 14.2256C8.72923 14.8322 8.63319 14.9364 7.97852 15.091L8.01131 15.1239C8.08275 14.6554 8.44815 14.4598 8.81003 14.2607C8.80886 14.2595 8.77607 14.2267 8.77607 14.2267V14.2256Z" fill="#8DC0FF"/>
<path d="M101.175 75.7979C101.286 75.8669 101.409 75.9243 101.505 76.011C101.562 76.0613 101.626 76.1984 101.603 76.2289C101.487 76.3741 101.38 76.2663 101.285 76.1785C101.177 76.0789 101.15 75.9595 101.203 75.8224L101.175 75.7979Z" fill="#8DC0FF"/>
<path d="M103.955 77.9155C104.042 77.9975 104.139 78.0713 104.21 78.165C104.245 78.2118 104.234 78.2938 104.244 78.3605C104.171 78.3383 104.09 78.3266 104.024 78.2903C103.871 78.2037 103.983 78.0678 103.975 77.9542L103.956 77.9167L103.955 77.9155Z" fill="#8DC0FF"/>
<path d="M99.4241 74.2417C99.7965 74.2101 99.8644 74.5017 99.9687 74.7546L100.004 74.7184C99.4721 74.6844 99.4744 74.6774 99.4557 74.2124L99.4241 74.2429V74.2417Z" fill="#8DC0FF"/>
<path d="M99.9686 74.7544C100.101 74.8551 100.243 74.9453 100.362 75.0589C100.436 75.128 100.393 75.2088 100.277 75.231C100.241 75.2381 100.174 75.2135 100.163 75.1877C100.102 75.0343 100.055 74.8762 100.003 74.7192L99.9686 74.7544Z" fill="#8DC0FF"/>
<path d="M103.973 77.9531C103.908 77.9531 103.843 77.9508 103.778 77.9497C103.867 78.1382 103.903 77.9789 103.955 77.9192C103.955 77.9157 103.973 77.9531 103.973 77.9531Z" fill="#8DC0FF"/>
<path d="M101.202 75.8225L101.1 75.833C101.1 75.833 101.173 75.8028 101.173 75.8004C101.173 75.7981 101.201 75.8225 101.201 75.8225H101.202Z" fill="#8DC0FF"/>
</svg>
