<svg width="384" height="125" viewBox="0 0 384 125" fill="none" xmlns="http://www.w3.org/2000/svg">
<path d="M45.1185 64.2385C44.8915 65.7163 44.6795 67.1304 44.2231 68.4922C43.5148 70.606 42.8139 72.7223 42.0806 74.8274C41.7664 75.729 41.3636 76.5957 40.8984 77.4337C40.3572 78.4077 39.7848 79.3692 39.3284 80.3818C38.9418 81.2385 38.3132 81.8969 37.7745 82.6315C37.6835 82.7549 37.5451 82.8497 37.4141 82.9383C36.4589 83.5843 35.4936 84.2152 34.5471 84.8737C34.2004 85.1144 33.8363 85.173 33.4297 85.2117C31.8846 85.3613 30.4468 84.8825 28.9839 84.5233C28.2769 84.35 27.6483 84.0257 27.0423 83.6479C25.8625 82.9108 24.6803 82.1738 23.5231 81.4019C23.0005 81.0539 22.4356 80.7372 22.1076 80.1486C22.0178 79.9877 21.8108 79.8917 21.6587 79.7645C21.0776 79.2781 20.5301 78.7618 20.0899 78.1358C19.8854 77.8452 19.6409 77.5784 19.3928 77.3215C18.7854 76.6905 18.1507 76.0856 17.6818 75.3361C17.5982 75.2014 17.5084 75.058 17.3862 74.962C16.3325 74.1364 15.6665 72.9879 14.8385 71.9728C13.7535 70.6422 12.8581 69.1906 11.9104 67.7677C10.9414 66.3136 9.98116 64.8533 8.88499 63.4816C8.27019 62.7121 7.81126 61.8068 7.35484 60.9251C5.8384 57.992 4.19976 55.1212 2.76564 52.1432C2.38528 51.3538 2.02488 50.5644 1.80041 49.7164C1.26168 47.6862 0.711717 45.6584 0.176725 43.627C0.10689 43.3613 0.0607454 43.0808 0.0570042 42.8065C0.0382982 41.6916 -0.0639563 40.563 0.0619973 39.4631C0.225363 38.0364 0.292704 36.6122 0.30268 35.1806C0.305174 34.8539 0.427381 34.5608 0.530888 34.2591C0.934937 33.0943 1.32527 31.9258 1.72558 30.7598C2.06478 29.7721 2.60726 28.8917 3.22455 28.0624C3.81566 27.2668 4.43047 26.4935 4.9455 25.6405C5.29344 25.0644 5.74488 24.5332 6.31977 24.1653C7.24011 23.5754 7.98585 22.801 8.64306 21.9568C9.43744 20.9342 10.4189 20.1398 11.4864 19.4551C12.822 18.5959 14.2087 17.8165 15.5718 17.0009C15.9808 16.7565 16.3898 16.5133 16.7889 16.2539C18.0422 15.4395 19.4601 15.0692 20.888 14.7238C22.0802 14.4357 23.2836 14.1838 24.4583 13.8334C24.9672 13.6812 25.4585 13.6114 25.9773 13.6126C27.253 13.6151 28.53 13.6563 29.802 13.6001C30.9306 13.5503 32.0418 13.6849 33.1167 13.9331C35.5123 14.488 37.2557 15.8748 38.0776 18.2642C38.3619 19.091 38.645 19.9178 39.0528 20.6934C39.165 20.9067 39.2348 21.125 39.2934 21.3594C39.7561 23.2038 40.2001 25.0557 40.7263 26.8827C41.1753 28.4378 41.6491 29.9853 42.0058 31.5654C42.249 32.6404 42.4036 33.7352 42.6655 34.804C42.9661 36.0298 43.0384 37.2932 43.3788 38.5153C43.5447 39.1101 43.5846 39.7586 43.6769 40.3822C43.844 41.517 44.268 42.5907 44.3752 43.7393C44.4476 44.5187 44.6184 45.2943 44.8067 46.0575C45.015 46.9018 45.0586 47.7685 45.2507 48.6177C45.3966 49.265 45.4714 49.9371 45.5911 50.5968C45.8929 52.2642 46.1423 53.9402 46.4304 55.6101C46.4903 55.9592 46.5327 56.387 46.7521 56.6177C47.4505 57.3547 47.251 58.2726 47.2871 59.1019C47.3283 60.0584 47.4954 60.9787 47.6662 61.9065C47.7872 62.5662 47.8758 63.2321 47.9867 63.8918C48.1439 64.8258 48.3908 65.7474 48.4943 66.679C48.5816 67.4659 48.7986 68.2266 48.8485 69.021C48.8983 69.7992 49.1116 70.5686 49.2687 71.3393C49.3959 71.9578 49.3972 72.5863 49.5481 73.2136C49.7401 74.0155 49.8561 74.8373 50.0993 75.6355C50.2714 76.1991 50.1267 76.8326 50.4223 77.3814C50.3275 78.1895 50.628 78.9527 50.7602 79.7246C50.8924 80.4978 50.8762 81.3021 51.158 82.0541C51.3526 82.5729 51.2453 83.1415 51.4037 83.6927C51.6307 84.4809 51.6481 85.3276 51.7616 86.1482C51.8651 86.8915 51.9437 87.641 52.0933 88.3742C52.2991 89.3806 52.4724 90.387 52.6084 91.4084C52.7218 92.2626 52.7505 93.1542 53.0897 93.9673C53.4165 94.7492 53.4152 95.5948 53.6023 96.4041C54.02 98.2173 54.4141 100.044 54.6598 101.886C54.8319 103.182 55.1474 104.449 55.3232 105.745C55.428 106.514 55.5589 107.305 55.7086 108.078C55.8507 108.806 56.0328 109.546 56.0577 110.299C56.0665 110.579 56.1363 110.843 56.2037 111.114C56.569 112.579 56.806 114.056 56.9282 115.569C57.0342 116.871 57.1227 118.18 57.2849 119.48C57.3422 119.945 57.4856 120.386 57.6926 120.832C58.058 121.619 58.2027 122.494 58.3274 123.357C58.3748 123.687 58.2214 123.884 57.8797 123.927C57.5966 123.962 57.331 123.978 57.1302 124.216C56.781 124.629 56.2984 124.525 55.9131 124.388C55.4941 124.24 55.014 124.047 54.9703 123.447C54.9541 123.218 54.7496 122.993 54.767 122.777C54.8755 121.375 54.5176 120.012 54.464 118.622C54.3967 116.882 54.2832 115.139 53.9826 113.413C53.6484 111.497 53.4102 109.566 53.0972 107.646C52.8927 106.394 52.6158 105.153 52.3951 103.904C52.1669 102.617 51.9786 101.324 51.7516 100.037C51.5795 99.0641 51.3763 98.0964 51.1855 97.1274C51.0333 96.353 50.8749 95.5798 50.7253 94.8041C50.5607 93.9524 50.3624 93.1031 50.2514 92.2438C50.1554 91.4969 50.0519 90.7561 49.9259 90.0129C49.7676 89.0788 49.6029 88.1472 49.4371 87.2144C49.3061 86.4774 49.2525 85.7267 49.1216 84.9835C48.9582 84.0519 48.7761 83.1203 48.6539 82.1863C48.5554 81.4405 48.3546 80.7135 48.3085 79.9615C48.2661 79.2881 48.1139 78.6222 47.9743 77.9749C47.6064 76.2739 47.4829 74.528 46.9878 72.8545C47.0627 72.0875 46.701 71.383 46.6761 70.6235C46.6561 69.995 46.4678 69.3802 46.378 68.7529C46.1885 67.4248 45.8742 66.1141 45.5936 64.7997C45.5475 64.5802 45.4814 64.3295 45.1235 64.2347L45.1185 64.2385ZM28.3816 15.1914C27.4762 15.1016 26.2965 15.2537 25.1243 15.4869C24.6965 15.5717 24.2688 15.6603 23.8498 15.7763C22.589 16.1255 21.332 16.436 20.1073 16.9547C17.6681 17.9886 15.4919 19.4452 13.2609 20.8244C13.0614 20.9479 12.9043 21.1374 12.7235 21.2896C11.9403 21.948 11.1609 22.6127 10.369 23.2612C9.3227 24.1192 8.27018 24.9858 7.52818 26.1257C6.87472 27.1283 6.12647 28.0524 5.41066 29.0039C4.76717 29.8619 4.21971 30.766 3.84061 31.7961C3.41536 32.9484 3.16095 34.1668 2.55737 35.2542C2.48379 35.3864 2.47382 35.5597 2.4601 35.7156C2.36034 36.9028 2.13337 38.08 2.18699 39.2822C2.20445 39.6725 2.11841 40.0716 2.04732 40.4619C1.92511 41.1341 1.9089 41.7814 2.10469 42.461C2.6958 44.5187 3.29439 46.5776 3.76827 48.6627C4.1611 50.3923 4.89188 51.9699 5.68003 53.5237C6.70387 55.539 7.82623 57.5056 8.89621 59.4972C9.30899 60.2666 9.61203 61.1108 10.1146 61.8129C11.111 63.2022 11.9839 64.67 12.9616 66.0692C13.5977 66.9783 14.2636 67.8675 14.8821 68.7878C15.8336 70.202 16.6929 71.6735 17.8477 72.9505C18.6171 73.7998 19.3105 74.7114 20.1298 75.5245C20.9691 76.3575 21.7173 77.2853 22.4855 78.1845C23.22 79.0449 24.058 79.7582 24.9459 80.4217C25.8027 81.0627 26.7205 81.6251 27.6147 82.2175C27.7469 82.3047 27.889 82.3871 28.0374 82.437C29.2059 82.8223 30.3769 83.2026 31.5504 83.5755C31.8198 83.6616 32.1054 83.684 32.3635 83.5369C33.3699 82.9632 34.466 82.5916 35.5123 82.1114C35.8278 81.9668 36.1359 81.7311 36.3529 81.4605C36.7981 80.9043 37.2208 80.3219 37.5787 79.7071C38.2584 78.5399 38.8906 77.3439 39.5304 76.1542C39.7748 75.7003 40.0629 75.2514 40.2026 74.7625C40.7226 72.9393 41.4671 71.1946 42.0133 69.3814C42.6406 67.2975 43.0434 65.1663 43.4886 63.0426C43.8215 61.4513 43.8876 59.8214 44.2405 58.2314C44.349 57.7426 44.2992 57.1926 44.2119 56.6888C43.9026 54.8992 43.506 53.1234 43.2329 51.3289C43.1494 50.7789 42.9536 50.2601 42.9112 49.7002C42.8538 48.9532 42.7653 48.2 42.5832 47.4755C42.2664 46.2084 42.118 44.9152 41.8699 43.6382C41.6579 42.552 41.4783 41.4608 41.2638 40.3759C41.0269 39.175 40.6777 37.989 40.5418 36.7781C40.3697 35.2367 39.9457 33.7552 39.6301 32.2513C39.1114 29.7771 38.4492 27.3316 37.8244 24.8811C37.2956 22.8072 36.7183 20.7483 35.9139 18.7568C35.5922 17.9611 35.0821 17.3164 34.5696 16.6604C34.3962 16.4385 34.1555 16.2926 33.8887 16.1928C33.002 15.8598 32.1502 15.4695 31.1725 15.361C30.3383 15.2687 29.5077 15.2475 28.3816 15.1901V15.1914Z" fill="#8DC0FF"/>
<path d="M260.875 68.7868C259.441 68.7868 258.002 68.8579 256.574 68.7669C255.068 68.6709 253.564 68.4651 252.072 68.2244C250.227 67.9264 248.372 67.657 246.559 67.1844C243.981 66.5122 241.401 65.8463 238.831 65.1479C237.826 64.8748 236.912 64.3835 236.07 63.7649C234.404 62.5403 232.72 61.3394 231.174 59.9589C230.671 59.51 230.128 59.1034 229.58 58.7093C228.73 58.0983 227.996 57.3724 227.414 56.5057C226.928 55.7824 226.334 55.1365 225.947 54.3371C225.763 53.9555 225.406 53.6549 225.113 53.3307C224.9 53.095 224.674 52.8668 224.433 52.6586C224.124 52.3929 224.119 52.0188 224.077 51.6758C224.034 51.3316 224.392 51.2306 224.609 51.101C224.971 50.8852 225.101 50.672 224.945 50.2455C224.728 49.6531 224.597 49.0296 224.404 48.4272C223.893 46.8435 223.41 45.246 223.127 43.6098C222.822 41.8552 222.401 40.1305 222.032 38.3921C221.894 37.7436 221.833 37.0665 221.751 36.4043C221.676 35.8069 221.52 35.2445 221.373 34.6734C221.343 34.5586 221.246 34.4526 221.245 34.3416C221.222 33.2168 220.853 32.158 220.637 31.0693C220.484 30.2962 220.253 29.5305 220.181 28.7498C220.096 27.8432 219.884 26.9603 219.802 26.0524C219.695 24.8702 219.656 23.6792 219.506 22.5082C219.316 21.0105 219.04 19.5265 219.039 18.0113C219.039 17.9315 219.051 17.8442 219.022 17.7744C218.64 16.8141 218.794 15.809 218.777 14.8213C218.756 13.6665 218.767 12.5105 218.773 11.3545C218.778 10.4379 218.754 9.52877 218.598 8.61966C218.499 8.03603 218.506 7.4312 218.492 6.8351C218.459 5.285 218.575 3.72991 218.262 2.18978C218.168 1.72836 218.214 1.23699 218.221 0.759367C218.224 0.496236 218.111 0.152082 218.44 0.017399C218.733 -0.102319 219.48 0.422698 219.535 0.768135C219.579 1.04124 219.566 1.32432 219.567 1.60242C219.57 3.67379 219.565 5.7464 219.571 7.81777C219.572 8.29041 219.536 8.75682 219.75 9.22322C219.873 9.49258 219.826 9.84804 219.827 10.1648C219.834 11.2809 219.822 12.3958 219.833 13.5119C219.839 14.1816 219.756 14.8562 220.045 15.5097C220.15 15.7466 220.086 16.0597 220.091 16.3378C220.1 16.8541 220.11 17.3566 220.268 17.8679C220.472 18.5189 220.336 19.2135 220.356 19.8881C220.371 20.4019 220.309 20.922 220.61 21.3934C220.74 21.5979 220.712 21.8386 220.679 22.0855C220.604 22.6354 220.657 23.1617 220.819 23.7204C221.015 24.3925 221.074 25.1258 221.141 25.8254C221.328 27.7621 221.76 29.6514 222.057 31.5657C222.292 33.0883 222.64 34.5723 223.018 36.0563C223.115 36.4379 223.138 36.8383 223.193 37.2311C223.304 38.018 223.411 38.8024 223.719 39.5481C223.93 40.0582 224.155 40.577 224.077 41.1569C224.522 42.1944 224.35 43.3467 224.683 44.408C224.856 44.9604 224.724 45.5653 225.068 46.109C225.386 46.6128 225.401 47.2426 225.531 47.8237C225.608 48.1654 225.848 48.4684 225.956 48.8064C226.183 49.5209 226.563 50.1893 226.622 50.9588C226.627 51.0211 226.803 51.0822 226.908 51.1147C226.93 51.1221 227.04 50.9925 227.029 50.9451C226.812 50.011 226.893 49.0421 226.718 48.113C226.598 47.4795 226.544 46.856 226.539 46.2212C226.532 45.3445 226.572 44.4666 226.527 43.5924C226.489 42.8454 226.669 42.1707 227.021 41.536C227.445 40.7715 227.89 40.017 228.347 39.2713C229.197 37.8808 230.053 36.4953 230.998 35.1647C231.425 34.5649 231.946 34.1159 232.591 33.7655C233.644 33.1931 234.755 32.7603 235.909 32.486C236.826 32.2678 237.787 32.168 238.731 32.1455C240.842 32.0957 242.955 32.1293 245.066 32.1256C245.706 32.1243 246.339 32.1742 246.969 32.2802C247.282 32.3326 247.601 32.3625 247.918 32.38C250.476 32.5172 252.946 33.0235 255.343 33.9538C257.564 34.8168 259.475 36.1586 261.325 37.604C262.139 38.2387 262.953 38.8722 263.763 39.5107C264.823 40.3463 265.807 41.2778 266.697 42.2979C267.536 43.2594 268.41 44.1847 269.409 44.9816C269.939 45.4044 270.327 45.9605 270.832 46.417C272.756 48.1591 274.45 50.1045 275.689 52.4104C276.2 53.3619 276.48 54.3645 276.669 55.442C277.073 57.7441 276.807 60.0461 276.861 62.3457C276.876 62.9643 276.701 63.6065 276.515 64.2076C276.232 65.1205 275.561 65.7552 274.76 66.2316C273.244 67.1332 271.595 67.7555 269.897 68.1733C268.986 68.3977 268.038 68.6098 267.072 68.5637C266.835 68.5524 266.587 68.5549 266.359 68.6097C265.496 68.8168 264.62 68.8105 263.744 68.8143C262.787 68.8193 261.832 68.8143 260.875 68.8143C260.875 68.8031 260.875 68.7931 260.875 68.7819V68.7868ZM273.454 59.1757C273.454 58.4187 273.493 57.6593 273.446 56.9061C273.366 55.6366 273.166 54.3945 272.685 53.1911C272.136 51.8193 271.155 50.7717 270.222 49.7005C268.843 48.1167 267.386 46.5965 265.905 45.1075C264.812 44.0089 263.625 43.005 262.488 41.95C261.993 41.4898 261.551 40.9648 261.027 40.5421C259.946 39.6691 258.843 38.8199 257.716 38.008C256.848 37.382 255.985 36.7036 255.02 36.2671C253.624 35.6361 252.196 35.0475 250.653 34.7831C249.87 34.6496 249.076 34.6173 248.306 34.4514C247.792 34.3417 247.287 34.2855 246.771 34.2805C246.212 34.2743 245.664 34.2394 245.111 34.1272C244.647 34.0324 244.162 34.0212 243.686 34.0099C242.889 33.9912 242.092 34.0049 241.295 34.0012C239.653 33.9924 238.056 34.2182 236.493 34.7569C235.107 35.2333 234.073 36.0863 233.323 37.3209C233.096 37.695 232.885 38.0816 232.628 38.4332C231.69 39.724 230.933 41.1244 230.136 42.5012C229.891 42.9264 229.762 43.3767 229.765 43.8668C229.771 45.2547 229.554 46.6527 229.982 48.0195C230.017 48.1304 230.017 48.2564 230.013 48.3749C229.977 49.5384 230.262 50.6557 230.48 51.7843C230.601 52.4054 230.705 53.0314 230.796 53.6587C230.86 54.0977 230.779 54.1974 230.288 54.4207C229.979 54.5616 229.939 54.6564 230.103 54.9557C230.426 55.5517 230.789 56.1117 231.276 56.6005C231.76 57.0844 232.326 57.4535 232.849 57.8813C234.264 59.0385 235.698 60.1746 237.11 61.3369C238.389 62.3894 239.799 63.1489 241.43 63.5155C242.974 63.8622 244.501 64.2899 246.034 64.6878C248.755 65.3948 251.5 65.9572 254.309 66.173C254.468 66.1854 254.64 66.1855 254.777 66.2503C255.155 66.4286 255.552 66.4074 255.948 66.4199C256.978 66.4511 258.019 66.3326 259.028 66.6619C259.173 66.7093 259.345 66.6793 259.505 66.6806C260.421 66.6831 261.337 66.6905 262.253 66.6806C262.53 66.6781 262.822 66.6768 263.079 66.5895C263.508 66.4449 263.939 66.4362 264.376 66.4436C266.297 66.4798 268.167 66.1805 270.001 65.6168C270.808 65.3686 271.563 65.0157 272.252 64.5344C272.681 64.2351 273.087 63.8859 273.17 63.3322C273.276 62.6263 273.497 61.9392 273.461 61.2097C273.428 60.5338 273.453 59.8554 273.454 59.1782V59.1757Z" fill="#8DC0FF"/>
<path d="M123.403 40.5375C123.861 41.1149 124.013 41.8294 124.23 42.5028C124.521 43.4044 124.768 44.3135 125.11 45.2052C125.547 46.3463 125.755 47.5759 126.043 48.773C126.173 49.3118 126.229 49.8693 126.37 50.4055C126.481 50.8307 126.618 51.2435 126.587 51.6912C126.567 51.978 126.676 52.2337 126.789 52.493C126.993 52.9619 127.068 52.9744 127.455 52.6751C127.933 52.3035 128.261 51.8022 128.662 51.3632C128.808 51.2023 128.976 51.1387 129.188 51.256C129.432 51.3907 129.688 51.5029 129.932 51.6364C130.565 51.9805 130.738 52.3035 130.56 52.9932C130.441 53.4483 130.257 53.8922 130.055 54.32C129.715 55.0383 129.335 55.7379 128.981 56.45C128.876 56.662 128.745 56.884 128.724 57.111C128.669 57.6921 128.443 58.1834 128.069 58.6162C127.723 59.0177 127.644 59.4954 127.812 59.9605C128.104 60.7686 128.119 61.5954 128.122 62.4309C128.122 62.9459 128.097 63.4536 128.351 63.9461C128.468 64.1744 128.433 64.4898 128.438 64.7667C128.45 65.4039 128.442 66.0424 128.445 66.6797C128.445 66.9191 128.396 67.1772 128.47 67.393C128.786 68.3233 128.643 69.286 128.725 70.2326C128.825 71.3749 129.018 72.5097 129.164 73.6495C129.275 74.5162 129.387 75.3855 129.477 76.2509C129.658 77.9918 130.068 79.699 130.169 81.4512C130.213 82.2006 130.404 82.9426 130.522 83.6884C130.783 85.337 131.029 86.9869 131.303 88.6331C131.537 90.0422 131.823 91.4427 132.054 92.8519C132.393 94.9245 132.948 96.951 133.29 99.0249C133.72 101.644 134.3 104.238 134.796 106.845C135.018 108.015 135.175 109.197 135.393 110.368C135.689 111.964 135.996 113.561 136.332 115.148C136.703 116.895 137.113 118.634 137.506 120.376C137.523 120.453 137.54 120.532 137.547 120.612C137.572 120.851 137.614 121.128 137.394 121.274C137.154 121.432 136.835 121.441 136.599 121.275C136.178 120.979 135.782 120.644 135.4 120.301C135.178 120.103 135.183 119.792 135.151 119.52C134.983 118.026 134.838 116.53 134.66 115.038C134.58 114.37 134.458 113.704 134.32 113.044C133.985 111.454 133.73 109.853 133.492 108.247C133.317 107.075 133.021 105.921 132.809 104.754C132.582 103.506 132.408 102.248 132.178 101.001C131.985 99.9489 131.728 98.9076 131.529 97.8551C131.287 96.5731 131.059 95.2886 130.858 94.0004C130.773 93.453 130.63 92.9204 130.563 92.3655C130.394 90.9526 130.098 89.5559 129.864 88.1504C129.733 87.3685 129.608 86.5854 129.51 85.7985C129.373 84.6986 129.28 83.5936 129.028 82.5099C128.992 82.3566 128.981 82.1944 128.975 82.036C128.927 80.8451 128.717 79.6779 128.497 78.5106C128.453 78.2774 128.453 78.0355 128.448 77.7973C128.441 77.3995 128.425 77.0116 128.306 76.6188C128.205 76.2833 128.204 75.9142 128.188 75.5588C128.172 75.2009 128.153 74.8517 128.046 74.5C127.953 74.202 127.933 73.8753 127.92 73.5598C127.897 73.0036 127.952 72.4411 127.71 71.9136C127.678 71.8438 127.66 71.7565 127.667 71.6804C127.791 70.1615 127.351 68.6825 127.359 67.171C127.365 65.9377 127.386 64.7068 127.214 63.476C127.12 62.8113 127.191 62.1254 127.188 61.4482C127.184 60.806 127.107 60.18 126.806 59.5963C126.686 59.3644 126.509 59.2285 126.249 59.211C126.05 59.1985 125.85 59.2085 125.651 59.186C125.255 59.1399 125.002 59.2509 124.79 59.64C124.467 60.2286 124.004 60.7399 123.666 61.3223C123.322 61.9159 122.919 62.4534 122.42 62.9135C121.948 63.3488 121.557 63.8414 121.219 64.3838C120.838 64.9936 120.372 65.5336 119.86 66.0412C119.523 66.3742 119.244 66.767 118.951 67.1436C118.767 67.3793 118.549 67.5015 118.242 67.514C117.55 67.5439 117.378 67.3544 117.603 66.6947C117.737 66.3006 117.822 65.9314 117.594 65.5536C117.616 65.5673 117.639 65.5773 117.663 65.5885C117.646 65.5923 117.63 65.596 117.614 65.5997C117.623 65.5773 117.631 65.5548 117.64 65.5324C117.562 65.6209 117.497 65.7631 117.401 65.7893C116.144 66.1372 114.936 66.6747 113.592 66.7009C112.967 66.7134 112.329 66.8418 111.727 67.0177C110.311 67.4317 108.876 67.1523 107.452 67.2234C107.155 67.2384 106.928 67.0463 106.682 66.9241C106.034 66.6011 105.365 66.3729 104.625 66.4128C104.267 66.4315 103.907 66.4216 103.568 66.2694C103.461 66.222 103.336 66.1721 103.224 66.1821C101.865 66.2968 100.549 65.813 99.1923 65.8953C98.8344 65.9165 98.4727 65.9264 98.1173 65.894C96.3627 65.7319 94.734 66.1896 93.1328 66.8406C92.624 67.0476 92.1065 67.287 91.5241 67.2409C91.4081 67.2309 91.2759 67.2384 91.1712 67.2833C90.8008 67.4404 90.408 67.6524 90.0338 67.4304C89.5637 67.1511 89.0773 66.8829 88.7681 66.3741C88.2069 65.4513 87.6844 64.5173 87.395 63.4685C87.289 63.0844 87.2055 62.6916 87.0608 62.3237C86.9137 61.9483 86.7004 61.6353 86.2153 61.5904C85.6866 61.5418 85.4222 61.0916 85.1466 60.71C84.7937 60.2236 84.5892 59.6413 84.4856 59.0726C84.3348 58.2421 84.0267 57.4788 83.7312 56.7044C83.675 56.556 83.6164 56.4076 83.5491 56.2642C83.0228 55.1506 83.261 54.1205 83.9606 53.1877C84.1489 52.937 84.2138 52.71 84.215 52.4332C84.2188 51.3969 84.215 50.3606 84.2188 49.3243C84.22 48.8878 84.2188 48.46 84.3821 48.0323C84.4906 47.748 84.4744 47.4063 84.4769 47.0908C84.4869 45.8948 84.5093 44.6989 84.4719 43.5042C84.4382 42.4217 84.649 41.3879 84.9109 40.3516C84.9782 40.086 84.9982 39.8029 85.0032 39.5286C85.0156 38.8514 84.9944 38.173 85.0119 37.4959C85.0281 36.8212 84.8435 36.1042 85.1104 35.4844C85.3885 34.8409 85.1067 34.1288 85.4958 33.5115C85.6255 33.3057 85.5569 32.9678 85.5581 32.6897C85.5631 31.7332 85.5469 30.7766 85.5643 29.8201C85.5768 29.1068 85.3935 28.3524 85.6679 27.6889C85.9347 27.0429 85.6379 26.3159 86.0644 25.7261C86.133 24.787 86.4136 23.8667 86.1829 22.9027C86.0445 22.3253 86.0295 21.7205 86.2652 21.1368C86.3375 20.9585 86.365 20.7465 86.3562 20.5532C86.3238 19.7925 86.4722 19.0592 86.5969 18.3147C86.6767 17.8359 86.8962 17.5216 87.2042 17.2024C87.5235 16.8706 87.8739 16.7796 88.2767 16.9991C88.4688 17.1039 88.6259 17.1612 88.7992 16.9741C89.2382 16.5015 89.8605 16.4416 90.4304 16.3506C91.4605 16.186 92.4407 15.9117 93.3822 15.459C94.5295 14.9065 95.7554 14.5561 96.99 14.2867C97.9539 14.076 98.9528 14.0236 99.9393 13.9225C100.214 13.8939 100.508 13.8939 100.772 13.96C102.307 14.3466 103.865 14.1508 105.414 14.1508C106.014 14.1508 106.59 14.1532 107.164 14.3827C107.603 14.5585 108.094 14.5997 108.542 14.7606C109.322 15.0399 110.138 15.2906 110.499 16.1673C110.597 16.4042 110.83 16.4977 111.041 16.6112C112.233 17.2497 113.428 17.8845 114.616 18.5317C115.07 18.7786 115.541 19.0118 115.944 19.3286C116.377 19.669 116.8 20.0668 116.434 20.7315C116.315 20.9485 116.372 21.2029 116.522 21.4112C117.03 22.117 117.215 23.0137 117.877 23.6385C118.129 23.8754 118.291 24.2245 118.443 24.5463C118.765 25.2284 119.108 25.8944 119.542 26.5154C119.854 26.9619 119.926 27.4146 119.693 27.972C119.486 28.4646 119.337 29.0482 119.764 29.5558C120.107 30.9176 120.876 32.0998 121.388 33.393C122.056 35.084 122.882 36.7164 123.331 38.4897C123.504 39.1744 123.69 39.8715 123.444 40.5848C123.409 40.5661 123.355 40.5562 123.342 40.5275C122.807 39.4301 122.266 38.3364 121.75 37.229C121.602 36.9097 121.464 36.573 121.482 36.1989C121.492 35.9994 121.45 35.8011 121.313 35.6415C120.831 35.084 120.651 34.3832 120.39 33.7197C119.854 32.3567 119.443 30.9388 118.659 29.6805C118.575 29.5471 118.532 29.3887 118.464 29.2453C118.311 28.9185 118.129 28.6093 117.85 28.3736C117.257 27.871 116.893 27.2113 116.549 26.5342C116.369 26.18 116.217 25.8034 115.992 25.4804C115.148 24.2782 114.579 22.9114 113.712 21.7242C113.62 21.5982 113.531 21.4424 113.515 21.2927C113.466 20.845 113.167 20.6081 112.839 20.3699C111.461 19.366 109.998 18.4781 108.684 17.3844C108.505 17.236 108.273 17.1487 108.06 17.0477C106.155 16.1486 104.123 15.8168 102.042 15.7358C101.367 15.7096 100.679 15.6884 100.017 15.7956C98.8007 15.9914 97.6035 16.302 96.3926 16.5315C95.1119 16.7746 93.8748 17.2435 92.5442 17.2497C92.0977 17.2522 91.7274 17.5515 91.4368 17.8945C90.9754 18.4394 90.5152 18.9856 90.075 19.5468C89.4402 20.3549 88.8603 21.2104 88.1832 21.9824C87.7255 22.5036 87.5522 23.071 87.5522 23.7245C87.5522 24.0412 87.6569 24.3805 87.5759 24.6723C87.3576 25.4604 87.4936 26.2598 87.405 27.0454C87.3352 27.6677 87.7642 28.2077 87.6307 28.8038C87.4998 29.3899 87.4038 29.971 87.405 30.5734C87.405 31.2904 87.3377 32.0025 87.2042 32.7109C87.1381 33.0575 87.1494 33.4217 87.1444 33.7784C87.1257 35.0915 87.2217 36.4184 87.0721 37.7166C86.9162 39.0697 86.8551 40.4152 86.9 41.7658C86.9511 43.3284 86.6219 44.8535 86.5383 46.4024C86.5046 47.0259 86.365 47.6631 86.0632 48.2405C85.9933 48.374 85.8986 48.5748 85.9497 48.6795C86.2253 49.2507 85.926 49.7682 85.8599 50.3095C85.7788 50.9766 85.8487 51.6762 85.6741 52.3135C85.376 53.4034 85.6791 54.3474 86.1018 55.3114C86.582 56.4039 87.0696 57.4951 87.4686 58.6174C87.6781 59.2085 87.9787 59.6849 88.4476 60.0765C89.1946 60.7012 89.6996 61.4994 90.1137 62.3673C90.4254 63.022 90.4753 63.7416 90.6424 64.4325C90.7534 64.8914 90.8369 64.9949 91.2372 65.0348C91.5141 65.0623 91.7959 65.0934 92.0715 65.0747C93.1752 64.9999 94.2789 64.9575 95.3813 65.0784C95.6818 65.1109 95.9275 64.9887 96.1382 64.7916C96.7855 64.1843 97.5736 64.0073 98.4316 64.0135C99.6662 64.0222 100.901 64.0159 102.137 64.0159C103.331 64.0159 104.527 64.0259 105.722 64.0122C106.183 64.0072 106.619 64.1082 106.907 64.4524C107.337 64.9674 107.904 65.061 108.5 65.1022C109.696 65.1857 110.885 65.0722 112.067 64.9088C112.416 64.8602 112.759 64.7679 113.082 64.5846C114.05 64.0371 115.075 63.5795 116.008 62.9784C117.838 61.7987 119.751 60.7412 121.476 59.4006C121.538 59.3519 121.608 59.2921 121.682 59.2833C122.332 59.1961 122.678 58.5002 123.358 58.4578C123.483 58.4503 123.611 58.277 123.712 58.1585C124.331 57.4315 124.95 56.7057 125.552 55.9649C126.22 55.1406 126.459 54.2103 126.178 53.1677C126.136 53.0143 126.09 52.8622 126.062 52.7063C125.742 50.9579 125.51 49.1871 125.089 47.4636C124.526 45.159 124.147 42.8071 123.408 40.5462L123.403 40.5375Z" fill="#8DC0FF"/>
<path d="M166.752 55.145C166.752 58.5782 166.726 61.328 166.767 64.0765C166.78 64.9644 166.473 65.7887 166.438 66.6666C166.413 67.2839 164.931 67.8102 164.444 67.4198C164.076 67.1255 163.743 66.7963 163.565 66.3175C162.774 64.1987 161.885 62.1198 161.084 60.0036C160.13 57.4808 159.201 54.9517 158.361 52.3902C158.026 51.3738 157.609 50.3862 157.264 49.3736C157.009 48.6241 156.843 47.8434 156.579 47.0964C155.984 45.4166 155.345 43.7531 154.742 42.077C154.365 41.032 154.033 39.9707 153.655 38.9269C152.846 36.6909 152.239 34.3901 151.362 32.1728C150.841 30.8534 150.588 29.4305 150.14 28.0799C149.69 26.7243 149.293 25.3576 148.964 23.9696C148.653 22.6614 148.355 21.3507 148.06 20.0388C148.025 19.8867 148.036 19.7221 148.04 19.5637C148.049 19.2145 148.202 19.0225 148.529 19.0188C149.086 19.0113 149.646 19.0088 150.2 19.0586C150.909 19.1235 151.366 19.6136 151.38 20.3207C151.391 20.8769 151.357 21.4355 151.307 21.9905C151.279 22.3135 151.322 22.6103 151.388 22.927C151.966 25.6868 152.708 28.3992 153.556 31.0903C154.094 32.7988 154.713 34.4786 155.245 36.1871C156.475 40.1366 157.969 43.9937 159.26 47.9207C160.363 51.2803 161.578 54.6 162.72 57.9446C162.926 58.5457 163.168 59.1356 163.402 59.7267C163.427 59.7891 163.512 59.8539 163.58 59.8677C163.727 59.8976 163.794 59.7816 163.812 59.6643C163.971 58.643 164.213 57.6416 164.467 56.639C164.622 56.0329 164.602 55.3744 164.606 54.7384C164.62 52.0697 164.612 49.3998 164.612 46.7298C164.612 46.2123 164.602 45.6972 164.767 45.1922C164.839 44.9689 164.888 44.717 164.864 44.4863C164.748 43.3216 165.041 42.193 165.178 41.0557C165.272 40.2775 165.443 39.4594 165.801 38.776C166.215 37.9841 166.79 37.2583 167.611 36.7745C169.045 35.9302 170.623 35.6085 172.234 35.2992C174.178 34.9263 176.125 35.0672 178.065 35.0946C179.545 35.1146 180.954 35.5573 182.12 36.5637C182.48 36.8742 182.863 37.1573 183.227 37.4641C183.928 38.0527 184.525 38.7374 185.047 39.4868C185.906 40.7202 186.806 41.9199 187.613 43.1969C188.911 45.2508 190.046 47.3957 191.294 49.4759C191.58 49.951 191.776 50.481 192.021 50.9798C192.109 51.1569 192.216 51.3252 192.333 51.4836C192.372 51.536 192.472 51.5746 192.536 51.5659C192.598 51.5572 192.686 51.4874 192.7 51.43C192.834 50.89 192.871 50.3076 193.098 49.8113C193.563 48.7912 193.57 47.7312 193.559 46.6562C193.553 46.0576 193.569 45.4653 193.721 44.8779C193.873 44.293 193.821 43.6894 193.827 43.0933C193.836 42.1792 193.776 41.2601 194.059 40.3685C194.107 40.2201 194.1 40.053 194.103 39.8934C194.159 37.2172 194.728 34.6121 195.206 31.9957C195.321 31.3722 195.548 30.7748 196.096 30.3533C196.324 30.1775 196.531 30.0204 196.835 30.0316C197.787 30.0678 198.734 30.0565 199.69 30.1675C200.72 30.2885 201.71 30.5067 202.699 30.7836C202.926 30.8472 203.148 30.9344 203.362 31.0317C205.228 31.8772 206.749 33.2078 208.277 34.5285C209.52 35.6022 210.401 36.9915 211.481 38.2061C213.261 40.2089 214.521 42.5696 215.964 44.8043C216.35 45.4029 216.646 46.0614 216.975 46.6974C218.866 50.345 220.305 54.1772 221.603 58.0644C222.016 59.3014 222.311 60.5784 222.647 61.8417C222.749 62.2258 222.811 62.6249 222.692 63.0202C222.633 63.2135 222.525 63.3856 222.298 63.4118C222.098 63.4355 222.046 63.2684 221.961 63.1349C221.697 62.7222 221.637 62.2395 221.496 61.7869C220.824 59.6294 220.322 57.4196 219.433 55.3283C218.876 54.0176 218.417 52.6658 217.908 51.334C217.823 51.112 217.707 50.9025 217.602 50.688C216.89 49.2264 216.258 47.72 215.438 46.322C214.921 45.4428 214.614 44.4202 213.816 43.7044C213.617 43.5248 213.502 43.248 213.365 43.0048C212.401 41.3001 211.093 39.8435 209.954 38.2635C208.753 37.2808 207.874 35.9776 206.638 35.0136C205.858 34.4038 205.011 33.8788 204.283 33.2041C204.1 33.0358 203.888 32.9497 203.666 32.8587C203.079 32.6168 202.506 32.3399 201.919 32.0955C201.628 31.9745 201.323 31.8336 201.015 31.8074C199.749 31.6989 198.481 31.7014 197.215 31.8299C196.941 31.8573 196.78 32.0282 196.704 32.2663C196.548 32.7577 196.329 33.2515 196.291 33.7553C196.182 35.2244 195.682 36.6361 195.693 38.1176C195.238 39.5031 195.645 40.9746 195.258 42.3751C195.144 42.7829 195.228 43.2468 195.228 43.6845C195.228 44.7196 195.245 45.7533 195.093 46.7834C195.042 47.1326 195.102 47.4968 195.107 47.8547C195.123 49.0893 195.135 50.3251 195.153 51.5597C195.167 52.5125 195.118 53.4664 195.37 54.408C195.47 54.7833 195.418 55.1998 195.421 55.5989C195.427 56.4756 195.458 57.3436 195.619 58.214C195.8 59.1955 195.69 60.2006 195.687 61.1958C195.685 61.6098 195.395 61.8367 195.088 62.0263C194.775 62.2196 194.28 62.0812 194.19 61.7245C193.997 60.9613 193.433 60.3066 193.535 59.4611C193.086 58.0644 192.712 56.6452 192.111 55.2996C190.86 52.4987 189.371 49.8225 187.872 47.1513C187.386 46.2846 186.947 45.3805 186.371 44.5748C185.15 42.8689 184.051 41.0793 182.589 39.5367C181.613 38.5079 180.55 37.6549 179.336 36.9665C178.563 36.5276 177.694 36.3691 176.815 36.3704C175.581 36.3716 174.374 36.4964 173.165 36.8443C172.061 37.1611 170.963 37.4965 169.872 37.8507C168.633 38.2535 167.869 39.1264 167.621 40.4022C167.478 41.1392 167.361 41.8887 167.227 42.6232C167.048 43.6159 167.146 44.6123 166.995 45.5825C166.464 48.992 166.952 52.4177 166.753 55.145H166.752Z" fill="#8DC0FF"/>
<path d="M352.634 30.8797C353.084 31.6391 353.714 32.0818 354.255 32.5919C354.632 32.9473 354.984 33.3227 355.345 33.6905C356.065 34.4213 356.69 35.2506 357.579 35.8018C357.646 35.8429 357.71 35.8941 357.766 35.949C359.13 37.2983 360.769 38.291 362.28 39.4507C363.322 40.2501 364.423 41.0021 365.22 42.0609C365.958 43.0398 366.62 44.0798 367.276 45.1174C368.486 47.0329 369.687 48.9546 370.992 50.8077C371.455 51.4649 372.06 51.9925 372.539 52.621C373.574 53.9778 375.043 54.7884 376.342 55.8123C376.584 56.0031 376.845 56.0392 377.128 55.9345C378.133 55.5641 379.175 55.2672 380.129 54.7934C380.714 54.5028 381.18 53.9554 381.666 53.4877C381.96 53.2059 382.283 52.9864 382.645 52.8193C382.832 52.7333 383.03 52.7594 383.225 52.8367C383.416 52.9128 383.538 53.1348 383.44 53.2969C383.033 53.9765 382.645 54.6724 381.976 55.1488C381.783 55.2872 381.595 55.4369 381.423 55.6002C380.348 56.6191 379.008 57.1142 377.623 57.507C377.11 57.6529 376.605 57.5681 376.128 57.295C375.051 56.6814 374.051 55.9656 373.172 55.0939C372.183 54.1137 371.245 53.0874 370.18 52.1795C369.712 51.7792 369.401 51.1794 369.064 50.6419C368.199 49.2601 367.378 47.8485 366.357 46.569C366.185 46.3533 366.046 46.1038 365.929 45.8532C365.453 44.8331 364.705 43.9988 364.064 43.0922C363.384 42.1307 362.41 41.4947 361.5 40.7913C360.463 39.9895 359.428 39.1851 358.389 38.3882C357.917 38.0253 357.44 37.665 356.952 37.3245C355.973 36.6424 354.964 36.0013 354.005 35.2943C352.789 34.3976 351.569 33.4998 350.426 32.5158C349.281 31.5294 348.291 30.3771 347.329 29.2098C347.237 29.0976 347.199 28.9255 347.177 28.7746C347.152 28.6025 347.252 28.4404 347.413 28.408C347.643 28.3606 347.888 28.3818 348.126 28.3655C348.481 28.3419 348.871 28.3955 349.184 28.2658C349.64 28.0775 350.01 28.1386 350.434 28.3307C350.938 28.5601 351.481 28.7035 351.996 28.9105C353.081 29.3445 354.116 29.11 355.103 28.6362C355.632 28.3817 356.155 28.0937 356.627 27.7221C356.914 27.4964 357.176 27.2756 357.361 26.9589C357.48 26.7531 357.601 26.5349 357.77 26.3727C358.363 25.7991 358.67 25.0671 358.926 24.3139C359.194 23.5232 359.424 22.7201 359.646 21.9145C359.719 21.6501 359.726 21.3645 359.735 21.0877C359.75 20.5702 359.761 20.0651 359.916 19.555C360.103 18.9352 359.951 18.2905 359.887 17.6583C359.836 17.1445 359.795 16.6282 359.74 16.1144C359.59 14.7364 359.522 13.3546 359.277 11.9816C359.116 11.08 358.883 10.1983 358.711 9.30163C358.437 7.87125 357.706 6.62421 357.018 5.37216C356.71 4.81347 356.183 4.39945 355.645 4.06274C354.803 3.53648 353.313 3.71228 352.502 4.40939C352.142 4.71991 351.85 5.10654 351.511 5.442C350.153 6.77885 348.803 8.12071 347.559 9.5673C346.959 10.2644 346.465 11.0301 345.919 11.7622C345.467 12.367 345.073 12.9967 344.754 13.6901C343.98 15.3737 343.779 17.1195 344.063 18.924C344.347 20.7273 344.678 22.5231 345.007 24.3201C345.114 24.9062 345.24 25.496 345.434 26.0585C345.964 27.5998 346.329 29.1811 346.699 30.7637C347.026 32.1554 347.428 33.5234 347.931 34.8653C348.223 35.6409 348.427 36.4528 348.629 37.2584C349.16 39.3784 350.048 41.3787 350.702 43.4588C351.271 45.2708 352.113 46.9955 352.788 48.7763C353.183 49.8213 353.718 50.7965 354.168 51.8129C354.556 52.6883 355.193 53.3954 355.776 54.1387C356.222 54.7061 356.511 55.3633 356.827 56.0018C356.988 56.3286 356.794 56.5792 356.459 56.4482C356.06 56.2923 355.809 56.4221 355.696 56.7513C355.561 57.1416 355.347 57.2251 354.974 57.1603C354.833 57.1353 354.663 57.2089 354.52 57.2713C354.263 57.3823 354.075 57.3237 353.889 57.1192C353.51 56.6989 353.217 56.2362 353.041 55.6938C352.759 54.8246 352.49 53.9491 352.167 53.0949C351.647 51.7206 351.113 50.3501 350.54 48.9958C349.613 46.7997 348.913 44.5225 348.087 42.2915C346.86 38.9731 345.917 35.5674 344.914 32.1804C344.261 29.9805 343.725 27.7457 343.191 25.5135C342.925 24.3999 342.785 23.2576 342.579 22.129C342.429 21.3147 342.257 20.504 342.113 19.6885C342.064 19.4166 342.06 19.1348 342.052 18.8579C342.035 18.3429 342.075 17.8291 341.863 17.3303C341.722 16.9973 341.711 16.597 341.842 16.274C342.1 15.6367 342.106 14.9533 342.251 14.2999C342.386 13.6901 342.618 13.1788 342.948 12.6812C343.366 12.0514 343.788 11.4217 344.204 10.7907C344.578 10.2245 345.002 9.70823 345.492 9.23185C346.26 8.48361 346.987 7.69792 347.69 6.87984C348.853 5.52428 350.125 4.25354 351.473 3.07008C351.903 2.69222 352.437 2.46276 352.983 2.39168C354.207 2.23081 355.439 2.19959 356.629 2.63233C356.812 2.69842 357.019 2.76203 357.152 2.89173C357.751 3.47411 358.436 4.00912 358.888 4.69376C359.655 5.85104 360.244 7.12551 360.547 8.49603C360.839 9.81169 361.082 11.1386 361.323 12.4655C361.386 12.8146 361.37 13.18 361.376 13.5379C361.387 14.2513 361.318 14.9646 361.581 15.6629C361.674 15.9111 361.628 16.2154 361.628 16.4935C361.631 17.6895 361.624 18.8841 361.624 20.08C361.624 20.5589 361.617 21.0365 361.466 21.4992C361.429 21.6127 361.386 21.7337 361.391 21.8484C361.471 23.4185 360.686 24.7628 360.211 26.177C360.007 26.788 359.502 27.3168 359.067 27.8268C358.603 28.3693 358.09 28.8819 357.543 29.3408C356.663 30.0791 355.592 30.407 354.471 30.4968C353.87 30.5455 353.29 30.6041 352.635 30.8821L352.634 30.8797Z" fill="#8DC0FF"/>
<path d="M318.063 16.3166C318.9 16.3166 319.738 16.3479 320.572 16.3067C321.275 16.273 321.889 16.5299 322.525 16.7432C322.937 16.8816 323.047 17.1746 323.033 17.5737C323.022 17.8967 322.988 18.206 322.842 18.5003C322.524 19.14 322.236 19.7972 321.891 20.4232C321.257 21.5693 320.551 22.6755 319.951 23.8365C319.344 25.0112 318.429 25.959 317.73 27.0676C316.755 28.6153 315.441 29.8885 314.209 31.2278C313.538 31.9574 312.891 32.7069 312.142 33.3628C310.858 34.4877 309.674 35.7322 308.274 36.7149C307.551 37.2225 306.977 37.8834 306.29 38.4271C304.699 39.6879 303.065 40.8914 301.404 42.0536C300.661 42.5749 299.808 42.939 298.999 43.368C298.79 43.479 298.558 43.5501 298.35 43.6635C297.605 44.0701 297.348 44.6114 297.569 45.4469C297.741 46.1004 297.843 46.7563 297.917 47.4285C298.009 48.2765 298.491 48.9823 299.018 49.6271C299.521 50.2406 300.081 50.8068 300.624 51.3866C300.924 51.7059 301.25 52.0002 301.547 52.3232C302.305 53.1463 303.145 53.8746 304.04 54.5405C304.516 54.8959 304.947 55.3374 305.466 55.608C306.8 56.3001 308.103 57.0658 309.568 57.4836C310.726 57.8128 311.91 57.9637 313.1 58.036C313.805 58.0796 314.532 58.2243 315.228 57.9288C315.296 57.9001 315.386 57.8988 315.462 57.9126C316.99 58.1807 318.45 57.6594 319.939 57.501C320.558 57.4349 321.175 57.178 321.75 56.9161C323.058 56.3213 324.425 55.8936 325.776 55.4259C327.435 54.851 329.013 54.1028 330.575 53.3121C332.881 52.1461 335.161 50.9265 337.555 49.94C338.398 49.5921 339.19 49.1207 340.007 48.708C340.146 48.6381 340.287 48.5645 340.437 48.5246C340.642 48.4697 340.91 48.7903 340.839 48.9885C340.756 49.218 340.64 49.4226 340.418 49.5485C340.038 49.7642 339.665 49.9924 339.277 50.1944C338.359 50.6708 337.44 51.1472 336.51 51.6012C335.761 51.9666 334.986 52.2783 334.24 52.6512C332.574 53.4867 330.913 54.3335 329.263 55.2002C328.802 55.4421 328.33 55.6354 327.84 55.8C326.375 56.2914 324.943 56.8725 323.501 57.4249C322.286 57.8913 321.04 58.3116 319.716 58.4164C319.166 58.46 318.617 58.5835 318.081 58.7207C316.697 59.0723 315.275 59.3716 313.871 59.2855C312.473 59.1995 311.009 59.4302 309.669 58.7842C309.598 58.7506 309.521 58.7119 309.445 58.7082C307.963 58.6184 306.738 57.824 305.484 57.1755C304.579 56.7079 303.76 56.027 302.998 55.3361C301.643 54.1102 300.141 53.0527 298.885 51.7184C297.877 50.6472 296.916 49.5323 295.892 48.4785C295.301 47.8712 294.811 47.2103 294.433 46.457C294.325 46.2438 294.209 46.0355 294.092 45.8285C293.955 45.5891 293.731 45.5179 293.48 45.5728C293.131 45.6489 292.773 45.715 292.446 45.8522C291.411 46.2874 290.332 46.5056 289.22 46.6004C289.027 46.6166 288.836 46.6977 288.653 46.7688C287.859 47.0768 287.036 47.1553 286.193 47.1242C285.752 47.1079 285.319 47.1242 284.976 46.7675C284.763 46.5468 284.457 46.6004 284.187 46.5531C283.97 46.5156 283.845 46.3709 283.748 46.1889C283.591 45.8958 283.717 45.6127 284.032 45.5653C284.111 45.5541 284.191 45.5404 284.269 45.5416C287.081 45.5903 289.8 45.0803 292.466 44.2123C292.955 44.0527 293.462 43.9579 293.93 43.7234C294.212 43.5825 294.363 43.4067 294.357 43.0837C294.347 42.5661 294.353 42.0474 294.357 41.5298C294.363 40.8552 294.291 40.173 294.575 39.527C294.606 39.4572 294.619 39.3687 294.611 39.2926C294.476 38.0518 294.889 36.8496 294.875 35.6225C294.869 35.0862 295.08 34.6149 295.162 34.1073C295.732 30.5818 296.539 27.1137 297.761 23.7492C298.118 22.7665 298.644 21.8798 299.198 21.0094C299.69 20.2337 300.526 19.8596 301.334 19.5516C303.225 18.832 305.148 18.171 307.123 17.7396C308.705 17.3941 310.303 17.0911 311.904 16.8142C312.802 16.6596 313.724 16.6696 314.607 16.4102C314.942 16.3116 315.316 16.3304 315.674 16.3254C316.471 16.3142 317.268 16.3216 318.065 16.3216V16.3154L318.063 16.3166ZM295.68 41.7979C295.68 42.1334 295.674 42.2532 295.68 42.3729C295.703 42.747 296.008 42.9415 296.347 42.7557C296.732 42.5437 297.146 42.4115 297.542 42.2357C298.373 41.8653 299.21 41.4999 299.966 40.9699C303.059 38.7988 306.119 36.584 308.912 34.0287C309.323 33.6534 309.768 33.3254 310.157 32.9164C311.057 31.9686 312.056 31.1118 312.932 30.1429C313.443 29.5767 314.114 29.1951 314.57 28.5878C315.168 27.7934 315.758 26.9916 316.341 26.1872C317.557 24.5087 318.521 22.6692 319.683 20.9582C320.187 20.2175 320.432 19.3857 320.747 18.5738C320.839 18.3369 320.715 18.1885 320.485 18.1498C319.146 17.9266 317.799 17.7994 316.442 17.9204C316.164 17.9453 315.9 17.9952 315.62 17.9291C315.027 17.7882 314.431 17.8543 313.838 17.9466C310.888 18.4068 307.958 18.9729 305.094 19.8284C304.485 20.0105 303.903 20.2661 303.316 20.5143C302.324 20.9333 301.744 21.8274 300.914 22.4235C300.639 22.6206 300.567 22.9523 300.371 23.2005C299.301 24.5635 298.583 26.0875 298.228 27.7872C297.84 29.6416 297.292 31.456 296.942 33.3254C296.614 35.075 296.235 36.8197 295.99 38.583C295.833 39.7179 296.007 40.8901 295.676 41.7992L295.68 41.7979Z" fill="#8DC0FF"/>
<path d="M65.0636 64.7511C65.0799 64.7511 65.1297 64.7361 65.1584 64.7536C65.6809 65.0753 66.2733 65.1277 66.8607 65.2225C67.3695 65.3048 67.6675 65.6951 67.9269 66.1092C68.619 67.2153 69.3548 68.294 69.9135 69.48C70.3026 70.3043 70.8438 71.0376 71.4349 71.7309C72.5149 72.998 73.5998 74.26 74.6611 75.5445C74.9105 75.8463 75.0863 76.2129 75.2597 76.5683C75.4355 76.9287 75.2235 77.1531 74.7995 77.1444C74.4566 77.1369 74.1722 76.9848 73.9315 76.7953C73.5612 76.5034 73.2182 76.1667 72.9077 75.8113C71.9163 74.6777 70.9373 73.5329 69.9696 72.3807C69.1253 71.3755 68.1489 70.5038 67.2223 69.581C66.4354 68.7978 65.7121 67.9498 64.9551 67.1355C64.7244 66.8861 64.6222 66.6017 64.6446 66.2663C64.6721 65.8709 64.6845 65.4744 64.7332 65.0828C64.7519 64.9307 64.8703 64.8022 65.0636 64.7524V64.7511Z" fill="#8DC0FF"/>
<path d="M139.304 59.8203C139.373 59.8415 139.485 59.8739 139.597 59.9113C139.86 59.9986 140.123 60.1645 140.387 60.1645C141.27 60.167 141.846 60.6584 142.422 61.2432C143.062 61.893 143.665 62.5689 144.26 63.2585C144.905 64.0055 145.606 64.7101 146.339 65.3698C146.674 65.6715 146.931 66.0045 147.158 66.3749C147.279 66.5707 147.212 66.8949 147.047 67.0146C146.853 67.158 146.654 67.082 146.494 66.9747C145.865 66.557 145.22 66.1579 144.635 65.684C143.861 65.0555 142.942 64.664 142.156 64.0454C141.286 63.3595 140.312 62.8058 139.393 62.181C138.926 61.8643 138.545 61.4652 138.41 60.8928C138.3 60.4264 138.77 59.839 139.302 59.8203H139.304Z" fill="#8DC0FF"/>
</svg>
