<svg width="283" height="164" viewBox="0 0 283 164" fill="none" xmlns="http://www.w3.org/2000/svg">
<path d="M13.5579 101.408C13.7495 101.705 13.9376 102.026 14.1507 102.322C14.645 103.01 15.1926 103.644 15.5799 104.438C15.6537 104.589 15.7591 104.729 15.8945 104.808C16.8282 105.352 17.4155 106.271 17.9501 107.242C18.0826 107.484 18.2594 107.655 18.4668 107.795C19.2117 108.299 19.7489 109.045 20.3837 109.676C20.9714 110.261 21.5595 110.85 22.2105 111.354C23.1952 112.117 24.0615 113.005 24.7943 114.055C25.0494 114.42 25.333 114.772 25.6827 115.025C26.6502 115.724 27.51 116.554 28.3943 117.353C29.7743 118.6 31.1115 119.9 32.4623 121.183C33.0627 121.753 33.6592 122.327 34.2461 122.912C34.9771 123.642 35.7462 124.326 36.4288 125.113C36.8208 125.566 37.3244 125.899 37.7742 126.282C38.1769 126.625 38.5224 127.03 38.8826 127.41C40.3226 128.931 41.7243 130.497 43.1074 132.082C44.2164 133.352 45.2738 134.677 46.4491 135.878C47.6539 137.109 48.7462 138.469 49.9325 139.721C50.7887 140.625 51.7184 141.445 52.6155 142.303C54.4628 144.07 56.2505 145.906 57.9912 147.796C59.1042 149.006 60.2345 150.196 61.3118 151.444C62.3238 152.617 63.2883 153.841 64.2462 155.071C64.4803 155.371 64.7796 155.577 65.0511 155.824C65.4031 156.142 65.3164 156.522 64.7362 157.231C64.261 157.812 63.8107 157.985 63.5081 157.649C62.842 156.912 62.1987 156.15 61.5511 155.393C60.6344 154.321 59.7237 153.242 58.8062 152.17C58.0081 151.239 57.2171 150.299 56.3994 149.39C55.7971 148.719 55.1501 148.098 54.536 147.44C53.8282 146.682 53.0776 145.972 52.4263 145.149C52.0797 144.712 51.6283 144.39 51.2376 144.002C50.7336 143.501 50.248 142.973 49.724 142.491C48.8987 141.732 48.1588 140.868 47.3859 140.045C46.7389 139.357 46.0885 138.673 45.4545 137.97C44.4633 136.871 43.4832 135.76 42.5021 134.65C41.5214 133.541 40.5457 132.426 39.5662 131.316C38.6958 130.329 37.8195 129.349 36.9511 128.36C36.646 128.012 36.3314 127.661 35.9877 127.373C35.3352 126.827 34.7723 126.179 34.1388 125.613C32.9946 124.59 31.9345 123.465 30.8318 122.391C30.2715 121.845 29.6717 121.345 29.0877 120.83C27.8807 119.765 26.7335 118.631 25.5517 117.538C24.1687 116.26 22.8416 114.913 21.4947 113.592C20.1454 112.269 18.9239 110.803 17.5427 109.516C15.8439 107.932 14.1476 106.349 12.3868 104.84C11.3109 103.917 10.2074 103.019 9.23371 101.967C9.15531 101.883 9.08357 101.759 8.97031 101.751C8.28158 101.698 8.45525 101.03 8.57166 100.429C8.64538 100.047 9.51388 99.2624 10.0034 99.0987C10.7961 98.8331 11.5355 98.7874 12.2251 98.8805C12.9857 98.9838 13.7875 98.9461 14.5923 98.9272C15.9588 98.8958 17.3646 98.8281 18.5122 99.3497C18.8908 99.522 19.3174 99.5947 19.7985 99.5811C20.5489 99.5597 21.2719 99.6025 21.8899 99.9216C22.3329 100.15 22.8978 100.22 23.4531 100.241C24.7019 100.29 25.8757 100.519 27.1045 100.602C28.034 100.665 28.8876 100.911 29.8667 100.852C30.502 100.814 31.0844 100.95 31.6186 101.105C32.7811 101.441 34.1735 101.154 35.3616 101.401C36.5256 101.642 37.7165 101.83 38.916 101.996C40.4073 102.203 41.938 102.323 43.4151 102.561C44.2577 102.697 45.0248 102.999 45.8303 103.218C47.0305 103.543 48.2333 103.863 49.4391 104.178C49.6672 104.237 49.9499 104.198 50.0123 104.511C50.0297 104.598 50.1371 104.645 50.2251 104.67C51.5398 105.034 52.8428 105.424 54.3343 105.407C54.6685 105.403 55.0154 105.347 55.3841 105.158C55.4646 104.802 55.4041 104.543 55.3233 104.309C54.5332 102.017 53.8973 99.616 53.1552 97.2921C52.6292 95.6452 51.908 94.1357 51.4774 92.4187C51.2452 91.4927 50.7406 90.856 50.2016 90.2342C50.0593 90.0699 49.884 89.8912 49.9612 89.6268C50.1548 88.9634 49.9207 88.5565 49.8332 88.0522C49.7298 87.4564 49.8331 86.7638 50.251 86.0798C50.6566 85.4167 50.6673 84.8453 50.4846 84.4401C50.093 83.5706 49.9403 82.5215 49.4564 81.7237C49.3073 81.4777 49.071 81.3145 48.9685 81.0406C48.8036 80.5998 48.6548 80.1484 48.6604 79.5846C48.6753 78.1178 48.6277 76.6761 48.931 75.1048C48.9839 74.8297 48.9956 74.5168 49.145 74.2759C49.8421 73.1519 49.4523 72.4774 49.2083 71.7661C48.98 71.0994 48.8199 70.3737 48.4388 69.8249C48.3728 69.7297 48.3266 69.589 48.4833 69.4265C48.6467 69.2569 48.7373 69.3708 48.8242 69.4337C49.1216 69.65 49.4187 69.8677 49.7025 70.1018C50.2884 70.5848 50.9212 70.9875 51.7008 71.1839C52.1712 71.3023 52.4976 71.6649 52.8021 72.0023C53.9324 73.2549 55.1715 74.3813 56.1906 75.7655C57.0581 76.9437 58.0817 77.9798 59.4633 78.5409C59.571 78.585 59.6632 78.6562 59.7571 78.7222C62.3099 80.5202 64.8896 82.2812 67.2923 84.2793C67.6621 84.5871 68.091 84.8145 68.3548 85.2543C68.4364 85.3902 68.5985 85.4823 68.7627 85.5045C69.4809 85.6028 69.8647 86.1415 70.3565 86.554C70.8599 86.9769 71.385 87.3854 71.9462 87.7297C72.4768 88.0556 72.9692 88.4304 73.4966 88.7576C74.236 89.2164 74.9607 89.6972 75.76 90.0719C76.1363 90.2482 76.4479 90.531 76.7753 90.7826C76.9841 90.9429 77.202 91.048 77.5542 90.8732C77.817 90.7427 78.0348 90.8073 78.269 90.7993C78.5479 90.7894 78.6858 90.8752 78.4991 91.2812C78.3233 91.6643 78.4333 91.8624 78.7557 91.8561C79.4433 91.8423 79.8156 92.3252 80.277 92.6489C81.4038 93.4405 82.3512 94.4603 83.3932 95.361C84.4124 96.2423 85.4106 97.1673 86.1871 98.3322C86.2654 98.4498 86.3371 98.5847 86.4506 98.6562C87.7843 99.4991 88.6709 100.848 89.6817 102.057C89.8298 102.234 90.0008 102.408 90.2164 102.488C91.1703 102.84 91.8169 103.624 92.6966 104.071C94.2236 104.847 95.4055 106.1 96.9986 106.792C98.2589 107.34 99.3312 108.184 100.356 109.073C100.658 109.334 100.996 109.613 100.805 110.276C100.759 110.436 100.851 110.436 100.96 110.449C101.386 110.501 101.435 110.601 101.122 111.058C100.689 111.692 100.231 112.325 99.7297 112.903C98.6583 114.138 97.5467 115.328 96.655 116.722C96.3368 117.219 95.9469 117.681 95.5825 118.153C95.3217 118.492 95.0404 118.796 94.6013 118.839C94.8615 118.107 95.284 117.443 95.6729 116.774C95.9511 116.296 96.2539 115.828 96.5476 115.357C96.645 115.201 96.7316 115.031 96.6246 114.944C96.5292 114.867 96.3706 114.942 96.2345 115.056C95.8963 115.342 95.563 115.637 95.2826 116.007C94.9724 116.416 94.6294 116.669 94.0362 116.758C94.9773 115.575 95.7057 114.492 96.2358 113.332C96.1352 113.136 95.9147 113.25 95.7347 113.268C95.3872 113.304 95.0256 113.378 94.6966 113.366C94.4148 113.355 93.995 113.511 93.9877 113.058C93.9839 112.825 94.6273 112.102 94.9479 111.938C95.2761 111.77 95.6143 111.775 95.9387 111.463C95.9883 111.111 95.8142 110.957 95.6172 110.842C95.1195 110.554 94.6598 110.182 94.0858 110.039C93.3438 109.854 92.7673 109.457 92.2181 109.006C91.8817 108.73 91.3961 108.676 91.1221 108.304C90.976 108.105 90.8276 107.931 90.943 107.583C91.0924 107.13 90.9258 106.937 90.6732 106.783C90.0263 106.389 89.5472 105.762 88.7945 105.513C88.601 105.448 88.5243 105.233 88.5015 105.038C88.3805 104.002 87.98 103.263 87.1064 102.96C86.828 102.863 86.8023 102.525 87.0082 102.148C87.236 101.732 87.1496 101.535 86.9686 101.314C86.5098 100.754 86.0251 100.241 85.3391 99.9608C84.8595 99.7648 84.6666 99.2067 84.2524 98.9061C82.8412 97.8813 81.4833 96.7847 80.0804 95.7489C78.9359 94.9041 77.6775 94.2176 76.4802 93.4465C75.0882 92.5496 73.6912 91.6592 72.3573 90.6776C71.0961 89.7493 70.0946 88.5114 68.8151 87.6088C68.2906 87.2391 67.6824 87.0026 67.1558 86.6327C66.4377 86.1281 65.9189 85.3997 65.2286 84.8672C64.6564 84.4257 64.2421 83.7757 63.7754 83.199C63.1356 82.4078 62.2694 81.9336 61.361 81.5052C59.8942 80.8139 58.3638 80.2077 57.3084 78.9315C57.2493 78.8596 57.1952 78.767 57.1077 78.7435C56.0488 78.4592 55.58 77.4413 54.819 76.787C54.7847 76.7572 54.7729 76.6961 54.733 76.6765C53.4118 76.028 52.5865 74.768 51.4894 73.8432C51.4575 73.8159 51.3976 73.8236 51.3489 73.8145C51.104 73.932 51.1441 74.1337 51.0974 74.3015C50.8462 75.1981 50.589 76.0958 50.36 76.9898C50.2151 77.5554 50.1775 78.0846 50.4083 78.4862C50.4671 78.5888 50.5077 78.718 50.5146 78.8554C50.5916 80.3607 51.2296 81.4811 51.5734 82.8034C51.6949 83.2708 52.0294 83.5235 52.2738 83.8669C52.4002 84.0443 52.5283 84.2093 52.4856 84.4993C52.3468 85.4377 52.2528 86.3771 51.8325 87.3523C51.5652 87.9724 51.5463 88.4524 51.7679 88.8606C51.9525 89.2008 52.1189 89.5546 52.2208 89.9616C52.246 90.0609 52.2785 90.1789 52.3537 90.2176C53.2155 90.6588 53.2103 91.8681 53.6742 92.66C54.1446 93.4633 54.264 94.5513 54.814 95.2891C54.9183 95.4294 54.8852 95.6503 54.9049 95.84C54.9834 96.6044 55.0623 97.3684 55.1327 98.1368C55.1544 98.375 55.3157 98.5408 55.1571 98.8758C55.0167 99.172 55.1618 99.3695 55.2933 99.4534C56.3097 100.105 56.3655 101.587 56.9331 102.624C56.9948 102.737 56.9809 102.92 56.858 103.051C56.4941 103.438 56.5966 103.666 56.7318 103.915C57.1661 104.715 57.2857 105.728 57.4545 106.709C57.4941 106.937 57.3645 107.097 57.1961 107.144C56.8955 107.228 56.5926 107.273 56.3138 107.269C55.9953 107.265 55.6767 107.29 55.3372 107.52C54.4949 108.091 53.8057 108.034 53.1545 107.849C52.4247 107.642 51.7822 107.263 50.8498 107.484C50.5956 107.544 50.3784 107.388 50.1438 107.333C48.9973 107.06 47.8447 106.8 46.7075 106.509C46.3652 106.421 46.0231 106.32 45.8546 105.959C45.7612 105.76 45.5145 105.733 45.2933 105.7C43.5615 105.445 42.0041 104.86 40.4163 104.332C39.651 104.077 38.7321 104.167 37.9191 104.005C36.3714 103.697 34.7857 103.473 33.271 103.091C32.6993 102.947 32.036 102.962 31.4652 102.793C29.8123 102.305 27.9928 102.232 26.1345 102.218C24.9165 102.209 23.6772 102.21 22.5953 101.828C22.0752 101.644 21.4026 101.718 20.7809 101.728C19.8677 101.744 18.9875 101.707 18.2052 101.41C17.6112 101.185 16.908 101.177 16.2102 101.176C15.4621 101.175 14.7117 101.181 13.9613 101.187C13.8582 101.188 13.7492 101.196 13.5603 101.411L13.5579 101.408Z" fill="#8DC0FF" stroke="#8DC0FF" stroke-width="0.63851"/>
<path d="M85.3877 47.7431C85.7418 47.2363 86.2522 47.2627 86.6612 46.9464C86.6992 46.277 86.2298 45.8509 86.1926 45.2166C86.1833 45.0551 86.0101 44.923 86.1971 44.7334C86.4079 44.5195 86.669 44.4371 86.9007 44.509C87.0286 44.5487 87.1628 44.6223 87.223 44.7298C87.5072 45.2394 88.114 45.3882 88.519 45.7621C88.7178 45.9455 89.0363 45.9483 89.1902 45.5535C89.4783 44.8151 90.0429 44.6439 90.6644 44.4719C90.67 45.1057 90.3647 45.7078 90.1178 46.3241C90.9574 46.6991 92.0436 46.2771 92.9571 46.4505C92.4135 47.4371 91.7574 48.0717 90.7008 48.1341C89.9847 48.1765 89.8707 48.2449 89.6731 48.9359C89.5043 49.5237 89.1003 49.9181 88.6675 50.3141C88.278 50.6702 88.035 50.6477 87.9001 50.2494C87.8142 49.9947 87.7974 49.6989 87.7818 49.4113C87.7287 48.3977 87.2401 47.9456 86.1935 47.9799C85.8899 47.9899 85.5731 48.0364 85.3877 47.7431Z" fill="#8DC0FF" stroke="#8DC0FF" stroke-width="0.63851"/>
<path d="M134.539 99.6815C133.77 98.848 133.074 97.9378 132.216 97.1984C130.81 95.9863 129.703 94.4969 128.359 93.2345C124.469 89.5823 121.091 85.4527 117.408 81.6091C116.204 80.3524 115.043 79.0548 113.865 77.7732C113.58 77.4638 113.286 77.1686 113.117 76.7558C113.018 76.5144 112.809 76.3192 112.595 76.1693C111.244 75.2289 110.386 73.8616 109.498 72.5154C109.223 72.0972 108.841 71.7602 108.521 71.3751C107.882 70.606 107.069 69.9922 106.552 69.1129C106.5 69.0247 106.393 68.9741 106.302 68.9177C105.278 68.2767 104.788 67.2141 104.305 66.1356C104.087 65.6486 103.778 65.2132 103.465 64.7913C102.616 63.6485 101.686 62.5843 100.603 61.6475C99.8932 61.0334 99.2203 60.3612 98.6854 59.5765C98.3429 59.0739 97.7492 58.8904 97.2265 58.6171C96.868 58.4297 96.4772 58.2868 96.1041 58.1199C95.7752 57.9731 95.5939 57.7392 95.794 57.2887C95.9806 56.8684 95.8541 56.6551 95.5608 56.4224C94.8757 55.8792 95.3676 54.366 96.3476 53.8314C96.6057 53.6909 96.7817 53.7361 96.9023 53.8957C97.205 54.2976 97.5229 54.6356 98.2322 54.1314C98.3496 54.0481 98.4874 54.063 98.5567 54.1559C98.9088 54.6316 99.5086 54.9267 99.4266 55.7177C99.3886 56.0835 99.4788 56.4224 99.7846 56.589C100.857 57.1727 101.264 58.279 101.675 59.3668C102.016 60.2691 102.545 60.998 103.238 61.6194C103.565 61.9131 103.795 62.3064 104.07 62.6545C104.503 63.2037 104.778 63.8882 105.418 64.2645C105.646 64.3979 105.746 64.6637 105.878 64.8976C106.384 65.792 106.764 66.79 107.642 67.3918C107.745 67.4625 107.779 67.6141 107.849 67.7249C108.537 68.8113 109.404 69.752 110.167 70.7773C111.071 71.9935 111.964 73.231 113.054 74.298C114.148 75.3672 115.144 76.5323 116.177 77.6603C116.872 78.4194 117.708 79.0309 118.49 79.7002C119.498 80.5634 120.343 81.564 120.841 82.8429C121.055 83.393 121.451 83.7804 121.938 84.0595C122.86 84.5876 123.593 85.2809 124.152 86.1721C124.386 86.5449 124.827 86.7592 125.131 87.0849C125.831 87.8332 126.285 88.7933 127.069 89.4724C127.765 90.0758 128.525 90.6261 129.122 91.3192C129.904 92.2268 130.984 92.8108 131.688 93.826C132.633 95.1903 133.884 96.3146 135.01 97.536C136.135 98.7583 137.273 99.9697 138.396 101.194C138.806 101.642 138.787 101.706 138.256 102.227C137.712 102.76 137.328 102.866 136.964 102.502C136.441 101.981 135.97 101.411 135.473 100.864C135.137 100.493 134.795 100.127 134.455 99.7593C134.483 99.7333 134.511 99.7076 134.539 99.682L134.539 99.6815Z" fill="#8DC0FF" stroke="#8DC0FF" stroke-width="0.63851"/>
<path d="M122.671 24.0146C123.301 24.1929 123.524 24.5912 123.778 24.9331C124.359 25.7149 125.167 26.3535 125.708 27.1628C126.291 28.0348 127.049 28.8122 127.699 29.6492C128.525 30.7123 129.307 31.8001 130.203 32.823C130.568 33.2396 130.876 33.6971 131.195 34.1431C131.851 35.0574 132.915 35.7055 133.605 36.5957C134.27 37.4542 134.967 38.2949 135.616 39.162C136.463 40.2948 137.35 41.4091 138.088 42.5998C138.876 43.871 139.864 45.0276 140.717 46.2599C141.167 46.909 141.57 47.5911 142.196 48.141C142.264 48.2012 142.312 48.2784 142.346 48.3581C143.018 49.9513 144.159 51.3224 144.698 52.9755C145.311 54.8531 146.219 56.6062 146.729 58.5249C147.252 60.4882 147.479 62.5495 147.561 64.6572C147.569 64.8762 147.513 65.1294 147.724 65.3536C148.745 64.5442 149.889 63.8319 150.195 62.7858C150.209 62.7373 150.247 62.6826 150.244 62.6393C150.146 61.4553 151.262 60.369 152.268 59.2967C152.877 58.6468 153.428 57.988 153.966 57.322C154.21 57.0192 154.199 56.8759 153.758 56.8574C153.023 56.8272 153.034 56.7852 153.416 56.1941C153.594 55.9183 153.824 55.6662 154.122 55.4359C154.745 54.9534 155.069 54.4313 155.207 53.8724C155.291 53.5322 155.435 53.1842 155.515 52.8445C155.688 52.118 156.172 51.4427 156.813 50.7532C158.589 48.8401 160.076 46.8777 160.809 44.8149C160.879 44.6157 160.983 44.4231 160.743 44.3191C160.368 44.1574 160.508 43.8589 160.833 43.5712C161.765 42.7461 162.086 41.9124 162.133 41.063C162.185 40.1339 162.694 39.159 163.027 38.2042C163.219 37.6544 163.434 37.1609 163.019 36.7613C162.736 36.4876 162.841 36.0337 163.013 35.6081C163.179 35.1972 164.302 34.5247 165.03 34.4186C165.396 34.3656 165.722 34.3726 166.038 34.0746C166.13 33.9889 166.28 33.9575 166.405 33.9868C167.826 34.317 169.354 33.9786 171.003 33.2604C172.255 32.715 173.567 32.4683 174.852 32.0806C175.248 31.9609 175.649 31.8709 176.042 31.7325C176.888 31.4339 177.675 31.3077 178.382 31.4809C178.381 31.667 177.988 31.7578 178.007 31.9738C178.175 32.1556 178.538 31.8956 178.786 31.9187C178.903 31.9294 179.039 31.9169 179.048 32.0306C179.056 32.1379 178.949 32.232 178.833 32.2959C178.342 32.5663 177.835 32.8226 177.305 32.9879C175.724 33.4811 174.142 34.0397 172.567 34.4617C171.41 34.7716 170.274 35.2028 169.12 35.4914C168.262 35.7058 167.511 36.2081 166.827 36.6919C166.363 37.0198 166.276 37.4988 166.097 37.9193C165.669 38.9242 165.472 39.9356 164.573 40.9313C164.452 41.064 164.387 41.2287 164.352 41.3715C164.028 42.6716 163.22 43.9817 162.66 45.2866C162.312 46.0987 162.006 46.9084 161.531 47.726C161.216 48.2694 160.803 48.7314 160.184 49.1478C159.285 49.7518 159.022 50.447 159.011 51.1033C159.005 51.3936 158.994 51.6489 158.797 51.9474C158.251 52.7782 157.771 53.614 157.397 54.4539C157.204 54.8865 156.938 55.2906 156.429 55.6304C155.676 56.1342 155.388 56.7308 155.176 57.3198C154.541 59.0814 153.351 60.7564 151.738 62.3722C151.44 62.6708 151.229 62.9096 151.266 63.2666C151.315 63.7314 150.673 64.2194 150.334 64.6977C150.203 64.8821 149.949 65.0478 149.927 65.2242C150.041 65.3256 150.187 65.2877 150.306 65.2503C152.333 64.619 154.321 64.3179 156.327 63.9628C157.971 63.6719 159.633 63.3195 161.257 63.1099C163.462 62.8257 165.739 62.3052 167.849 62.3734C168.211 62.385 168.609 62.3393 168.807 62.5573C168.602 62.9134 168.153 62.6237 167.918 63.0076C169.189 62.8463 170.252 63.1809 171.611 62.7492C171.878 62.6641 172.126 62.6816 172.374 62.69C173.969 62.7434 175.489 62.9045 176.838 63.3234C177.446 63.512 178.033 63.7219 178.935 63.4416C179.433 63.2868 179.789 63.4652 179.938 63.7605C180.087 64.0564 180.419 64.2566 180.558 64.5253C180.796 64.9831 181.198 65.3661 181.313 65.8741C181.628 67.2677 182.338 68.4857 182.979 69.7285C183.228 70.2111 183.847 70.5209 184.191 70.9869C184.927 71.9847 185.597 73.0191 186.198 74.0848C186.533 74.677 187.005 75.1937 187.274 75.8183C187.496 76.3339 187.798 76.812 187.949 77.3609C188.063 77.7729 188.256 78.1324 188.915 78.1774C189.544 78.2204 189.659 78.7107 189.688 79.0361C189.74 79.6123 190.227 79.8417 190.684 80.0786C191.405 80.4511 192.165 80.8095 193.324 80.6695C193.783 80.6142 194.221 80.5544 194.692 80.4169C195.311 80.2362 195.945 80.0677 196.52 80.2588C195.884 80.8338 195.17 81.2126 194.368 81.4653C192.425 82.0763 190.469 82.6227 188.542 83.3076C187.218 83.7784 185.926 84.0962 184.616 84.3492C183.837 84.4995 183.58 84.3407 184.015 83.8017C184.814 82.8129 184.47 82.0336 184.579 81.1718C184.726 80.0062 184.214 79.0913 183.77 78.1443C183.502 77.573 183.451 76.9022 183.245 76.3002C182.984 75.5368 182.839 74.7241 182.351 74.055C182.074 73.6748 182.134 73.1535 182.114 72.6743C182.085 71.9618 181.922 71.3078 181.614 70.699C181.168 69.8194 180.747 68.9265 180.377 68.0119C180.125 67.3874 179.985 66.7141 179.76 66.0754C179.649 65.7588 179.519 65.4634 179.268 65.2422C178.921 64.9366 178.628 64.5981 178.31 64.2757C178.147 64.1098 177.936 64.0016 177.587 64.0178C176.504 64.0675 175.529 63.9135 174.494 63.8699C173.884 63.8442 173.286 63.8091 172.631 63.8877C171.289 64.0486 170.096 63.8688 168.79 63.9518C166.939 64.0702 165.131 64.0979 163.387 63.9854C162.212 63.9095 160.961 64.2065 159.7 64.552C158.592 64.8554 157.569 64.9192 156.523 64.9264C155.282 64.9349 153.944 65.2009 152.61 65.5573C151.552 65.8402 150.489 66.1559 149.436 66.378C148.205 66.6379 147.813 67.2909 148.102 67.9088C148.723 69.2393 149.302 70.5891 149.955 71.904C150.668 73.3362 151.111 74.8851 151.775 76.3391C152.319 77.5278 152.744 78.7762 153.198 80.0063C153.789 81.6055 154.392 83.2005 154.948 84.8133C155.35 85.9777 155.988 87.0354 156.318 88.2207C156.74 89.737 157.452 91.1199 158.161 92.4991C158.71 93.5681 159.299 94.6189 159.795 95.7141C160.016 96.201 159.957 96.2774 159.264 96.6262C158.602 96.9591 158.303 96.9348 158.06 96.5275C158.049 96.5085 158.04 96.488 158.031 96.4685C157.031 94.2297 155.632 92.1767 154.825 89.8503C154.401 88.625 153.798 87.48 153.38 86.256C152.82 84.6166 152.135 83.0313 151.581 81.3913C150.815 79.1267 149.953 76.901 149.251 74.6121C148.63 72.5832 147.636 70.7291 146.806 68.7983C146.197 67.3824 145.995 65.8375 145.953 64.2247C145.911 62.6001 145.723 61.0187 145.348 59.4958C144.894 57.6509 144.251 55.8874 143.558 54.1397C143.253 53.3714 143.087 52.5293 142.648 51.8258C141.779 50.4327 141.135 48.9284 140.123 47.6027C139.16 46.3405 138.164 45.0939 137.265 43.7966C136.74 43.039 136.236 42.2655 135.742 41.4892C135.248 40.7148 134.671 39.9845 134.131 39.2337C133.488 38.3386 132.853 37.4385 132.2 36.5483C131.495 35.5859 130.781 34.6284 130.057 33.6764C129.281 32.6557 128.487 31.6442 127.7 30.6288C127.117 29.8766 126.521 29.1319 125.954 28.3699C124.953 27.0231 123.908 25.7015 122.743 24.4509C122.653 24.3537 122.572 24.2418 122.671 24.0131L122.671 24.0146Z" fill="#8DC0FF" stroke="#8DC0FF" stroke-width="0.63851"/>
<path d="M241.135 37.0149C242.335 35.8185 243.685 35.0138 245.25 34.6302C245.5 34.5689 245.844 34.4085 245.959 34.694C246.059 34.9419 245.795 35.1691 245.586 35.35C245.432 35.4825 245.247 35.5823 244.968 35.7694C245.802 36.0803 246.526 36.4222 247.311 36.6269C248.751 37.0044 250.232 37.3428 251.534 37.9432C253.334 38.7725 255.218 39.5745 256.24 41.338C256.565 41.8988 256.869 42.4944 257.431 42.8886C257.589 43 257.639 43.176 257.669 43.3577C257.878 44.6111 258.295 45.7866 258.306 47.121C258.321 48.869 257.892 50.5242 256.953 52.1215C256.292 53.2433 255.65 54.4097 254.509 55.26C254.255 55.4488 254.013 55.6407 253.731 55.785C253.452 55.9277 253.154 56.0523 252.907 56.2386C252.184 56.7855 251.474 57.3404 250.655 57.7473C250.229 57.9587 250.029 58.1974 250.32 58.6452C250.579 59.044 250.837 59.4468 251.148 59.8004C252.25 61.054 253.297 62.3451 254.196 63.7482C254.459 64.1575 254.827 64.4668 255.278 64.6833C255.721 64.8972 256.004 65.2371 256.107 65.6936C256.3 66.5386 256.757 67.2307 257.226 67.9215C257.895 68.9069 258.454 69.9819 259.243 70.8668C260.157 71.8916 260.795 73.1084 261.733 74.1079C261.814 74.1944 261.883 74.2937 261.942 74.3972C263.16 76.5539 264.797 78.4194 266.233 80.4248C267.2 81.7755 268.338 83.0076 269.263 84.3946C269.466 84.7001 269.873 84.9618 269.303 85.4155C268.703 85.8935 268.367 85.8888 267.844 85.5017C267.051 84.9129 266.612 84.045 266.049 83.2949C265.346 82.3579 264.456 81.6162 263.628 80.8118C262.212 79.4367 260.562 78.2971 259.007 77.0614C258.725 76.8374 258.407 76.6463 258.085 76.4706C257.169 75.9711 256.238 75.4938 255.323 74.9947C254.537 74.567 253.742 74.1579 252.778 74.0729C251.754 73.9827 250.836 73.6573 249.991 73.2263C249.473 72.9624 248.854 72.7168 248.767 72.0229C248.735 71.7675 248.47 71.7491 248.279 71.6625C246.981 71.0689 245.617 70.601 244.185 70.2674C243.471 70.101 242.75 69.9557 242.039 69.7835C241.786 69.7218 241.532 69.6994 241.262 69.7246C240.087 69.834 238.959 69.674 237.803 69.6762C234.821 69.6823 231.829 69.764 228.81 70.5664C228.02 70.7763 227.249 71.121 226.474 71.4222C225.726 71.7128 225.649 71.8777 225.961 72.4785C226.511 73.5352 227.093 74.5748 227.623 75.6418C229.095 78.6067 230.574 81.5664 232.128 84.4869C233.419 86.9133 234.89 89.218 236.444 91.4741C237.525 93.043 238.584 94.6284 239.708 96.1672C240.212 96.8569 240.633 97.6625 241.457 98.0539C242.504 98.5509 243.606 99.0617 244.967 98.4201C245.524 98.1574 245.983 98.2387 246.53 98.3386C246.036 99.0663 245.42 99.5847 244.623 99.7308C243.516 99.9346 242.561 100.514 241.559 100.994C240.778 101.369 240.018 101.81 239.171 102.001C238.972 102.046 238.74 102.181 238.625 101.999C238.521 101.834 238.384 101.576 238.594 101.397C239.096 100.97 238.817 100.673 238.66 100.321C238.494 99.9476 238.263 99.6068 238.372 99.1124C238.467 98.6859 238.238 98.3311 237.934 98.0706C237.562 97.7526 237.306 97.3524 237.041 96.9585C235.23 94.2646 233.399 91.5848 231.629 88.864C230.625 87.32 229.867 85.6264 228.984 84.008C227.402 81.1061 226.167 78.0175 224.577 75.1207C224.205 74.4432 223.853 73.7519 223.541 73.0419C223.387 72.6901 223.199 72.5544 222.744 72.6241C219.963 73.0493 217.189 73.5678 214.425 74.2534C214.057 74.3443 213.691 74.4638 213.333 74.3784C213.097 74.3222 213.027 74.193 213.236 73.9768C213.26 73.952 213.287 73.9268 213.317 73.9106C214.632 73.2059 215.75 72.165 217.128 71.5731C217.863 71.2574 218.61 71.0039 219.398 70.9576C220.104 70.9161 220.794 70.6215 221.491 70.4455C221.933 70.3342 222.113 70.0755 221.867 69.7523C220.848 68.4141 220.393 66.7801 219.735 65.2559C219.083 63.7467 218.56 62.1752 217.937 60.6513C216.776 57.81 216.255 54.7455 215.658 51.7071C215.571 51.2651 215.621 50.7816 215.599 50.3193C215.563 49.5542 215.576 48.799 215.329 48.0597C215.051 47.2269 215.345 46.2451 215.678 45.3595C216.111 44.2093 216.232 43.0542 216.51 41.9031C216.714 41.0579 216.883 40.2081 216.952 39.3586C216.983 38.9786 217.061 38.5912 217.331 38.2584C217.669 37.8417 217.849 37.3934 217.93 36.9136C218.015 36.407 218.371 36.121 218.849 35.8989C220.186 35.2781 221.521 35.06 222.887 35.2229C223.445 35.2895 223.843 35.5422 224.173 35.8858C225.331 37.0893 226.669 38.1259 227.782 39.3716C228.486 40.1606 229.386 40.7249 230.393 41.1511C230.726 41.2923 230.957 41.4745 231.082 41.8093C231.444 42.7806 232.106 43.5471 232.905 44.1926C233.746 44.8725 234.547 45.5913 235.327 46.3293C236.682 47.61 238.288 48.5959 239.901 49.5784C240.804 50.1277 241.753 50.6339 242.128 51.6955C242.257 52.0583 242.673 52.2353 242.943 52.5106C243.46 53.0406 244.096 53.4653 244.669 53.9478C244.9 54.1415 245.155 54.1581 245.481 54.0944C245.907 54.0105 246.096 54.1507 246.149 54.6035C246.258 55.53 247.112 55.8971 247.815 56.3464C247.985 56.4552 248.265 56.2723 248.491 56.1797C249.401 55.8088 250.312 55.5707 251.27 55.547C252.477 55.5171 253.469 54.9886 254.254 53.9606C254.885 53.1342 255.501 52.3273 255.759 51.355C255.849 51.0131 255.98 50.6601 256.169 50.3448C256.874 49.1695 256.826 48.0097 256.733 46.8371C256.625 45.4751 256.288 44.2109 255.744 42.9948C255.294 41.9887 254.474 41.34 253.597 40.7735C251.705 39.5503 249.609 38.6159 247.413 37.8477C245.973 37.3439 244.472 37.0358 242.813 37.348C242.155 37.4721 241.783 36.9343 241.133 37.0139L241.135 37.0149ZM240.534 62.3776C241.461 61.5895 242.522 60.7394 243.516 59.8246C244.133 59.2567 244.868 58.8328 245.445 58.2217C245.645 58.0102 245.773 57.8383 245.557 57.6686C244.579 56.9031 243.919 55.859 242.966 55.0657C241.233 53.6239 239.323 52.3739 237.661 50.8574C237.263 50.4938 236.812 50.1892 236.365 49.8755C235.201 49.0584 233.976 48.285 232.985 47.3051C231.944 46.2759 230.868 45.279 229.826 44.2522C228.125 42.5759 226.21 41.1068 224.55 39.3917C224.141 38.969 223.702 38.5198 223.008 38.4603C222.41 38.4087 221.891 38.2045 221.364 38.0074C220.347 37.6274 220.115 37.7408 219.746 38.8223C219.662 39.0688 219.607 39.3274 219.588 39.5762C219.446 41.4395 218.848 43.2848 218.393 45.1292C218.049 46.523 217.811 47.8955 217.87 49.2565C217.93 50.6499 218.159 52.0015 219.156 53.0047C219.438 53.2876 219.329 53.6137 219.251 53.9604C218.999 55.0809 219.032 56.1281 219.474 57.1297C219.795 57.8549 220.18 58.5655 220.29 59.3891C220.349 59.8267 220.635 60.137 220.856 60.4895C221.355 61.2821 221.993 61.9945 221.988 63.0673C221.984 63.847 222.292 64.5757 222.773 65.1317C223.192 65.6165 223.31 66.1834 223.398 66.7743C223.513 67.5433 223.816 68.2098 224.158 68.8777C224.34 69.2332 224.569 69.2713 224.93 69.1393C226.492 68.5679 228.073 68.048 229.609 67.3998C231.941 66.4156 234.249 65.357 236.555 64.2969C237.847 63.703 239.164 63.1635 240.534 62.3784L240.534 62.3776ZM226.338 70.1592C227.184 70.048 228.009 69.8758 228.821 69.5848C230.938 68.8267 233.086 68.4173 235.205 68.523C237.14 68.6197 239.109 68.4587 241.051 68.5461C243.52 68.6566 245.798 69.1592 247.965 69.9425C250.195 70.7482 252.317 71.7519 254.486 72.67C255.228 72.9845 255.95 73.3235 256.651 73.7096C257.292 74.0635 257.877 74.6438 258.843 74.4111C258.885 74.0841 258.78 73.8521 258.554 73.6196C258.139 73.1931 257.684 72.8028 257.328 72.3176C256.735 71.5101 256.371 70.5632 255.743 69.7789C255.337 69.2723 254.955 68.7373 254.805 68.081C254.701 67.627 254.463 67.2563 254.214 66.8847C253.618 65.9958 252.948 65.1781 251.971 64.6269C251.652 64.4474 251.335 64.2111 251.242 63.8541C250.856 62.365 249.676 61.4273 248.786 60.2889C248.527 59.9566 248.162 59.7336 247.74 59.5813C247.423 59.4674 247.14 59.4942 246.794 59.6949C244.891 60.8002 242.939 61.8213 241.149 63.1194C240.403 63.661 239.637 64.1017 238.718 64.2488C238.19 64.3335 237.672 64.5892 237.207 64.9282C236.867 65.1757 236.489 65.354 236.114 65.5458C234.715 66.2599 233.239 66.7438 231.816 67.3709C229.953 68.1912 228.191 69.2645 226.337 70.1594L226.338 70.1592ZM250.663 56.5395C250.208 56.6253 249.752 56.701 249.299 56.8013C249.104 56.8446 248.858 56.9209 248.891 57.1671C248.926 57.418 249.134 57.4855 249.408 57.4059C249.878 57.2695 250.304 57.0429 250.662 56.5398L250.663 56.5395ZM246.26 58.5694C246.176 58.6431 246.11 58.7288 246.196 58.8067C246.221 58.8297 246.328 58.8062 246.372 58.772C246.458 58.7049 246.511 58.6058 246.441 58.5238C246.424 58.5039 246.323 58.5524 246.261 58.569L246.26 58.5694Z" fill="#8DC0FF" stroke="#8DC0FF" stroke-width="0.63851"/>
</svg>
