<svg width="369" height="232" viewBox="0 0 369 232" fill="none" xmlns="http://www.w3.org/2000/svg">
<path d="M15.3529 99.5598C15.1258 99.5637 14.9134 99.5889 14.7918 99.3045C14.5601 98.763 14.5362 98.1735 14.3877 97.6131C14.1268 97.6164 14.15 97.8218 14.1088 97.9533C14.0514 98.1387 14.029 98.3359 13.9944 98.5277C13.3647 102.025 12.7349 105.521 12.1051 109.018C12.0067 109.565 11.9088 110.108 11.9719 110.669C12.0165 111.065 11.884 111.443 11.835 111.83C11.7473 112.536 11.4943 113.218 11.6031 113.956C11.6599 114.339 11.3629 114.664 11.0569 114.802C10.7212 114.954 10.316 115.03 9.92371 114.955C9.71646 114.915 9.53285 114.678 9.53353 114.449C9.5334 114.256 9.56214 114.06 9.59561 113.868C9.69641 113.29 9.80887 112.714 9.91178 112.136C9.99821 111.656 10.0833 111.184 10.0205 110.683C9.98152 110.371 10.0733 110.037 10.1307 109.718C10.4962 107.664 10.8365 105.605 11.2548 103.562C11.4266 102.723 11.3693 101.887 11.4388 101.052C11.4478 100.941 11.3724 100.741 11.2957 100.717C10.919 100.604 10.9984 100.328 10.9428 100.041C10.7734 99.166 10.8531 98.3163 10.9376 97.4402C11.0239 96.5359 11.1266 95.6499 11.3103 94.7577C11.4253 94.1977 11.5341 93.5938 11.5113 93.0221C11.4709 92.0075 11.7916 91.0284 11.7127 90.0212C11.6884 89.7127 11.8263 89.451 11.93 89.1788C12.0816 88.7806 12.2085 88.3857 12.0976 87.9446C12.0059 87.5792 12.1411 87.2295 12.2841 86.9031C12.5369 86.3252 12.6896 85.7446 12.5995 85.1028C12.569 84.8895 12.6315 84.6459 12.7094 84.438C13.0176 83.6076 13.2007 82.7787 13.1469 81.8689C13.1115 81.2763 13.2274 80.6508 13.5986 80.1019C13.7641 79.8572 13.8532 79.6053 14.1732 79.5043C14.5432 79.3872 14.7149 78.95 15.1297 78.8694C15.2702 78.8422 15.2729 78.6633 15.2938 78.5413C15.4698 77.5154 15.6898 76.5007 15.7291 75.4502C15.767 74.4136 15.8547 73.3805 15.7937 72.3404C15.7747 72.0209 15.8546 71.6929 15.9092 71.3714C16.0578 70.5035 16.1927 69.6332 16.3793 68.7732C16.5894 67.807 16.5381 66.8288 16.5886 65.8557C16.594 65.7593 16.5623 65.6618 16.5579 65.5647C16.5481 65.3092 16.4352 65.1347 16.1852 65.0536C15.968 64.9838 15.7529 64.909 15.5364 64.8361C14.4281 64.4615 13.3187 64.0933 12.2128 63.7115C11.7782 63.5621 11.4009 63.3006 11.0357 63.027C10.6291 62.7219 10.5758 62.5198 10.7192 62.0152C10.7674 61.8445 10.8604 61.7169 11.0516 61.724C11.3394 61.7353 11.4544 61.5767 11.5012 61.3226C11.5647 60.9699 11.6357 60.6184 11.7077 60.2672C11.7602 60.012 11.925 59.905 12.1781 59.8477C12.6761 59.7362 13.1564 59.8019 13.6216 59.9579C14.0587 60.1055 14.5019 60.1831 14.9597 60.2163C15.3149 60.242 15.6711 60.2745 15.989 60.4827C16.1192 60.5673 16.2923 60.5963 16.4501 60.6248C16.9989 60.7236 17.1292 60.6377 17.2421 60.0652C17.374 59.3934 17.5017 58.7208 17.6051 58.0438C17.6674 57.6307 17.8402 57.2725 18.1931 57.0866C18.4311 56.9611 18.5283 56.8222 18.5681 56.5833C18.6541 56.0694 18.7498 55.5562 18.8455 55.043C19.0344 54.0183 19.2597 53.01 19.5673 52.0067C19.9953 50.6138 20.466 49.221 20.6283 47.7552C20.6813 47.2725 20.7609 46.7881 21.0381 46.3601C21.1228 46.2299 21.1468 46.0538 21.1765 45.8951C21.2776 45.3522 21.3372 44.7964 21.66 44.3219C21.7092 43.3322 22.3775 42.512 22.4328 41.5245C22.8596 40.8555 22.7913 40.0141 23.1921 39.3371C23.3463 39.0762 23.3888 38.7852 23.4331 38.4968C23.6344 37.1725 23.9529 35.8835 24.5339 34.6681C24.6163 34.4959 24.6417 34.2938 24.6796 34.1015C24.7879 33.561 24.8615 33.0187 25.1459 32.5209C25.2848 32.2779 25.2858 31.9566 25.343 31.6694C25.4718 31.0331 25.5706 30.399 25.8506 29.7921C26.0498 29.3599 26.0684 28.8438 26.1614 28.364C26.2601 27.8524 26.3357 27.341 26.5935 26.869C26.7143 26.648 26.7441 26.3734 26.7943 26.1188C26.9146 25.5116 27.0171 24.9001 27.1373 24.2929C27.1808 24.0699 27.2054 23.8239 27.3216 23.6403C27.5574 23.2661 27.642 22.857 27.6988 22.4385C27.7668 21.9334 27.9751 21.5115 28.3461 21.1639C28.4621 21.0546 28.6305 20.9329 28.6478 20.8004C28.7222 20.2418 29.0135 19.766 29.1755 19.2428C29.2428 19.0275 29.2817 18.7928 29.2762 18.5687C29.2301 16.7536 29.7182 15.027 30.1488 13.2923C30.2657 12.819 30.4491 12.3653 30.3814 11.861C30.3606 11.703 30.3962 11.5355 30.4198 11.3746C30.5847 10.2461 30.5286 9.1062 30.5979 7.97467C30.6544 7.05957 30.5171 6.16425 30.4938 5.26104C30.4811 4.76659 30.5054 4.29192 30.5842 3.81176C30.6514 3.39622 30.774 2.98849 30.654 2.55564C30.5925 2.33239 30.668 2.11959 30.8189 1.91928C31.0336 1.63202 31.0411 1.61477 31.3245 1.94799C31.4373 2.08095 31.5252 2.08475 31.6209 1.94778C31.677 1.86711 31.7268 1.78529 31.8844 1.80274C32.1051 2.48997 32.3336 3.19499 32.5587 3.9005C32.588 3.99326 32.5752 4.13096 32.6358 4.17688C33.323 4.69109 33.4552 5.56033 33.9431 6.20379C34.1393 6.46225 34.388 6.63609 34.673 6.63272C35.2516 6.62646 35.7058 7.01341 36.2602 7.05638C36.8319 7.10029 37.2969 7.42136 37.7886 7.67288C37.8758 7.71702 37.9635 7.77656 38.0566 7.78787C38.9611 7.89717 39.6796 8.43232 40.4611 8.82353C43.0816 10.1354 45.5187 11.761 48.0302 13.2589C48.1981 13.3591 48.364 13.4645 48.541 13.5445C48.6249 13.5825 48.7333 13.5638 48.7863 13.4574C48.8443 13.3421 48.8795 13.2073 48.9617 13.1149C49.0438 13.0236 49.1706 12.9207 49.2822 12.9145C49.7958 12.8867 50.3102 12.8788 50.8239 12.8925C50.9775 12.8961 51.1513 12.9635 51.2782 13.0542C51.8565 13.4689 52.4632 13.8407 53.0158 14.2946C54.2523 15.3113 55.316 16.5047 56.4746 17.6014C56.9867 18.0863 56.9931 18.1115 57.6694 17.9818C58.0705 17.9042 58.4208 17.8721 58.7806 18.1272C58.9551 18.2516 59.2069 18.2685 59.4223 18.3357C60.1655 18.5691 60.4777 18.9731 60.4454 19.7723C60.4305 20.1403 60.508 20.384 60.8439 20.5714C61.604 20.997 61.6274 21.7898 61.7333 22.5197C61.7793 22.8353 61.7109 23.1664 61.7061 23.4904C61.6856 24.8615 61.3999 26.199 61.1829 27.5435C61.0643 28.2812 60.9462 29.0156 60.9877 29.769C61 29.9922 60.9305 30.2203 60.9061 30.4467C60.875 30.7287 60.7526 30.9527 60.478 31.0444C60.0872 31.1741 59.9162 31.4857 59.8203 31.8359C59.3826 33.4348 58.7832 34.9772 58.2381 36.5404C57.9077 37.4882 57.6535 38.4628 57.3486 39.4207C57.0239 40.4406 56.6751 41.454 56.3431 42.4715C55.9202 43.769 55.4729 45.0567 55.2693 46.4178C55.0992 47.5508 54.5883 48.0068 53.4297 48.1667C53.2918 48.1856 53.1853 48.2123 53.0996 48.3238C52.9408 48.5314 52.7456 48.7161 52.6218 48.9421C52.0436 49.9907 51.2559 50.9152 50.8022 52.0377C50.7327 52.2111 50.5779 52.3538 50.4479 52.4988C50.2385 52.7324 50.1948 52.9935 50.191 53.3057C50.1838 53.9048 50.0487 54.4667 49.3424 54.6414C49.1776 54.6817 49.0495 54.7735 48.9375 54.8976C48.8734 54.9681 48.7837 55.0898 48.7242 55.0801C48.0839 54.9736 47.9271 55.5163 47.622 55.8682C47.2824 56.2598 46.8841 56.607 46.5875 57.0271C46.1514 57.6453 45.6602 58.1802 45.0248 58.605C44.5312 58.935 44.206 59.4408 44.0916 60.0337C44.0267 60.3698 43.8578 60.6456 43.6843 60.9108C43.3425 61.43 42.9363 61.8577 42.2659 62.0093C41.2135 62.2474 40.2844 62.8271 39.2767 63.2001C38.576 63.4589 37.879 63.6856 37.1282 63.7855C36.1925 63.9101 35.2763 64.1695 34.3913 64.499C33.3513 64.887 32.2585 65.0883 31.2105 65.442C31.016 65.5076 30.8249 65.4633 30.6333 65.4769C30.1823 65.5095 29.7319 65.5629 29.3162 65.7757C29.1187 65.8768 28.8005 65.9004 28.8415 66.1769C28.8728 66.3859 29.134 66.5084 29.3505 66.5934C30.9659 67.231 32.3815 68.1706 33.6986 69.3046C34.6426 70.1177 35.4235 71.071 36.2941 71.9452C36.6599 72.313 37.009 72.7007 37.4914 72.9308C37.6355 72.9994 37.785 73.092 37.8847 73.2128C38.4592 73.9156 39.1559 74.5168 39.5691 75.3557C39.8405 75.9077 40.2066 76.4133 40.5187 76.9453C40.6894 77.2363 40.9406 77.4511 41.2073 77.6281C41.521 77.8356 41.7391 78.1122 41.9128 78.4235C42.1803 78.9058 42.4655 79.387 42.6527 79.902C42.8555 80.458 43.1429 80.9636 43.4102 81.4832C43.9927 82.6096 44.4583 83.7773 44.8284 84.9956C45.2825 86.4883 45.8961 87.9331 46.333 89.4303C46.649 90.512 47.0965 91.5737 47.1337 92.7277C47.1401 92.929 47.2431 93.0919 47.3305 93.2684C47.6155 93.848 47.9011 94.4299 48.1306 95.0323C48.4074 95.7602 48.6346 96.5088 48.8716 97.2514C49.1671 98.1796 49.4542 99.1117 49.5885 100.079C49.6646 100.622 49.7661 101.157 49.8639 101.696C49.9659 102.259 49.9537 102.831 49.786 103.422C49.6404 103.932 49.7347 104.514 49.7375 105.063C49.7389 105.323 49.7595 105.585 49.7942 105.841C49.9335 106.878 49.6667 107.904 49.7201 108.937C49.7301 109.13 49.6971 109.332 49.7428 109.516C50.022 110.65 50.1195 111.827 50.5494 112.926C50.7435 113.421 50.7848 113.902 50.5906 114.434C50.438 114.85 50.4691 115.315 50.5338 115.782C50.6264 116.451 50.7653 117.119 50.7353 117.808C50.7186 118.181 50.8952 118.506 51.3321 118.588C51.7458 118.665 52.0171 118.944 52.2453 119.268C52.5438 119.694 52.8495 120.11 53.0157 120.62C53.1462 121.019 53.3746 121.384 53.5456 121.771C53.6233 121.947 53.7382 122.147 53.7149 122.319C53.6553 122.765 53.8043 123.146 53.9536 123.544C54.2821 124.422 54.5301 125.329 54.8668 126.204C54.9472 126.413 55.003 126.644 55.0087 126.867C55.021 127.431 54.7952 127.676 54.2274 127.786C54.0688 127.817 53.9129 127.863 53.7531 127.888C53.5798 127.915 53.4249 127.852 53.3187 127.719C53.1768 127.541 53.0218 127.364 52.9304 127.16C52.5932 126.409 52.1048 125.757 51.6222 125.102C51.405 124.808 51.2444 124.504 51.1533 124.147C51.0898 123.899 50.9894 123.649 50.8522 123.433C50.3281 122.608 49.9826 121.702 49.6243 120.801C49.6002 120.741 49.5569 120.684 49.5472 120.622C49.3086 119.159 48.3461 117.963 48.0366 116.524C47.9828 116.276 47.8279 116.049 47.7174 115.813C47.6211 115.606 47.4934 115.41 47.4264 115.194C46.9372 113.61 46.3957 112.044 45.9864 110.436C45.8327 109.832 45.834 109.217 45.7499 108.609C45.7372 108.516 45.7353 108.399 45.7807 108.323C46.0657 107.846 45.8963 107.384 45.7609 106.915C45.5147 106.071 45.2696 105.228 45.0349 104.381C44.948 104.068 44.8502 103.749 44.8314 103.428C44.7714 102.383 44.513 101.376 44.2936 100.36C44.2188 100.016 44.1036 99.6716 44.1557 99.3037C44.2431 98.6905 44.3298 98.1002 44.8727 97.6665C45.1206 97.4683 45.3316 97.2198 45.6025 97.0334C45.9782 96.7751 46.1519 96.4543 45.9609 95.954C45.7884 95.5029 45.7278 95.0075 45.6371 94.5274C45.5203 93.9125 45.2812 93.3456 45.0137 92.7844C44.8938 92.5332 44.7591 92.3339 44.4628 92.2969C44.2136 92.2652 44.0731 92.0922 43.9331 91.9041C43.2454 90.9796 42.788 89.9424 42.4268 88.857C42.3658 88.6732 42.3098 88.4859 42.2336 88.3081C41.0808 85.6178 40.2145 82.8249 39.2897 80.0531C39.0603 79.3655 38.7746 78.7409 38.3566 78.1472C37.7966 77.3519 37.3535 76.4901 37.0798 75.5385C36.837 74.6941 36.3728 73.9314 35.9023 73.1981C35.63 72.7728 35.2131 72.4035 34.7883 72.1203C33.6774 71.3777 32.6875 70.4733 31.5857 69.7291C30.6154 69.0742 29.7663 68.2683 28.7785 67.6442C28.6419 67.5584 28.5153 67.4174 28.3678 67.392C27.6937 67.2727 27.07 67.0073 26.423 66.8044C25.9996 66.6713 25.5492 66.5365 25.0797 66.7024C24.9394 66.7526 24.7548 66.715 24.5991 66.6804C23.7779 66.4975 22.9417 66.4279 22.1461 66.0724C21.567 65.8139 20.8784 65.7993 20.2372 65.686C20.0539 65.653 19.9458 65.7735 19.8466 65.9175C19.5794 66.3079 19.4204 66.7233 19.4957 67.2039C19.5631 67.6371 19.5586 68.0508 19.2229 68.3907C19.058 69.1484 18.6355 69.8183 18.542 70.6108C18.377 72.0007 17.9808 73.3566 17.8673 74.758C17.8541 74.9164 17.7772 75.0698 17.741 75.2285C17.6842 75.4829 17.5943 75.7391 17.5942 75.995C17.5944 76.9411 17.5042 77.8731 17.3342 78.8049C17.2675 79.1757 17.3155 79.589 17.405 79.9606C17.5286 80.4706 17.4372 80.9354 17.2424 81.3859C17.0948 81.7257 17.038 82.0589 17.0495 82.4263C17.0763 83.2492 16.8312 84.0395 16.6863 84.8381C16.4875 85.9354 16.4259 87.0245 16.4756 88.1392C16.5105 88.9111 16.3503 89.6916 16.2729 90.4673C16.257 90.6285 16.1873 90.7909 16.2006 90.9475C16.339 92.6086 16.0039 94.2381 15.9023 95.8833C15.8834 96.1828 15.7333 96.427 15.7097 96.7279C15.6346 97.6856 15.4895 98.6372 15.3723 99.5917L15.3584 99.5531L15.3529 99.5598ZM50.1268 48.8099C50.4488 48.3582 50.6924 48.0138 50.9389 47.6711C51.101 47.4454 51.1093 47.448 51.3508 47.6796C51.5149 47.8372 51.7405 47.8417 51.8193 47.6776C51.9161 47.4741 51.9536 47.2293 52.0889 47.0612C52.4537 46.6085 52.5927 46.0856 52.6773 45.531C52.9468 43.7552 53.4674 42.0422 53.9769 40.3249C54.2723 39.3282 54.7171 38.3704 54.8515 37.3326C54.9587 36.5065 55.4189 35.8161 55.6421 35.0382C55.6626 34.9665 55.7522 34.8699 55.8578 34.9272C55.8977 34.9486 55.9091 35.0371 55.9202 35.0971C55.9318 35.1604 55.9158 35.2308 55.9347 35.29C55.952 35.3456 55.9898 35.4213 56.0361 35.4373C56.1348 35.4726 56.2372 35.4199 56.2732 35.3291C56.6538 34.3641 57.0249 33.3963 57.4012 32.4305C57.4481 32.3099 57.496 32.1894 57.5608 32.0786C57.5735 32.0568 57.7071 32.0678 57.7145 32.0877C57.7457 32.1753 57.7444 32.2735 57.7673 32.3652C57.7886 32.4532 57.8247 32.5385 57.854 32.6247C57.9427 32.5936 58.0608 32.5875 58.1158 32.5253C58.2214 32.4065 58.2834 32.2503 58.377 32.1195C58.5026 31.9442 58.5688 32.0687 58.6548 32.1739C58.7444 32.2841 58.8247 32.2023 58.8808 32.1217C59.1549 31.7292 59.2128 31.2802 59.1933 30.8174C59.1917 30.7657 59.1355 30.6954 59.0869 30.6735C59.0424 30.6535 58.9523 30.6679 58.9186 30.7034C58.8538 30.7715 58.82 30.8683 58.7623 30.9454C58.7278 30.9916 58.6714 31.0559 58.6268 31.0544C58.4882 31.0524 58.4888 30.9158 58.5198 30.847C58.7446 30.3516 58.7336 29.8476 58.6371 29.3271C58.6079 29.1731 58.6645 29.005 58.6664 28.8424C58.6737 28.1645 58.6701 27.4858 58.6818 26.8076C58.6935 26.1294 58.6914 25.4488 58.7442 24.7725C58.81 23.94 58.4501 23.266 57.6447 23.0805C57.1323 22.962 56.806 22.6845 56.6347 22.2632C56.3734 21.619 55.8742 21.2206 55.3627 20.8179C55.1078 20.6178 54.8155 20.4558 54.5936 20.2244C53.7691 19.3672 52.7697 18.7826 51.6903 18.3268C50.9178 18.0006 50.0831 17.7956 49.3601 17.3887C48.231 16.7533 47.0831 16.1616 45.9345 15.5676C45.4754 15.3296 45.0799 14.9445 44.6014 14.7774C44.0696 14.5908 43.589 14.338 43.1289 14.0386C42.3652 13.5423 41.4872 13.2738 40.7153 12.799C39.2218 11.8792 37.6927 11.0231 36.1435 10.2005C36.0696 10.161 35.9532 10.1641 35.8707 10.1908C35.7685 10.2238 35.7593 10.3359 35.7711 10.4342C35.7833 10.5305 35.802 10.6268 35.8231 10.7225C35.9828 11.4326 35.6917 12.0528 35.2259 12.4896C34.864 12.829 34.6455 13.1922 34.5474 13.6273C34.4385 14.1108 34.2428 14.5535 34.0558 15.0032C34.0216 15.0835 33.9843 15.1752 33.922 15.2296C33.5074 15.5924 33.2682 15.9387 33.2045 16.2684C33.1611 16.4914 33.1181 16.7177 33.0413 16.9314C32.5497 18.3073 32.0446 19.6786 31.5548 21.056C31.4757 21.2769 31.4127 21.5291 31.1891 21.6048C30.8396 21.7234 30.784 21.9901 30.7309 22.2846C30.5169 23.4666 30.5138 24.6746 30.2568 25.8521C30.146 26.3583 30.0604 26.882 30.0549 27.3984C30.048 28.0927 29.8645 28.7596 29.688 29.3994C29.327 30.7113 28.7984 31.9767 28.3375 33.2608C28.2936 33.3831 28.2505 33.5066 28.1896 33.6203C27.7726 34.3873 27.068 36.3745 26.8831 37.1582C26.6134 38.2974 26.338 39.4378 25.9893 40.554C25.8145 41.112 25.5873 41.6508 25.4859 42.2318C25.4573 42.3908 25.3927 42.5432 25.3388 42.6964C25.082 43.43 24.7686 44.1501 24.5861 44.9025C24.4761 45.3552 24.1575 45.7035 24.1029 46.1706C24.0333 46.7574 23.7505 47.2828 23.5523 47.8312C23.2778 48.59 23.0123 49.3537 22.7072 50.1004C22.4493 50.731 22.2831 51.3923 22.0383 52.023C21.8834 52.4216 21.7609 52.8163 21.684 53.2312C21.6126 53.6153 21.5527 54.0026 21.4739 54.3855C21.3569 54.9561 21.3124 55.5376 20.9955 56.0645C20.8563 56.2965 20.7979 56.6513 20.861 56.9142C20.9573 57.3209 20.864 57.6869 20.8136 58.0704C20.7792 58.3278 20.6867 58.5988 20.7338 58.8413C20.8317 59.3424 20.7227 59.8138 20.6407 60.2934C20.5698 60.7116 20.4948 61.1279 20.4207 61.5455C20.3751 61.7986 20.4428 61.9694 20.7043 62.0843C21.5079 62.4379 22.3014 62.8171 23.101 63.1809C23.1869 63.2204 23.2881 63.2474 23.3821 63.2479C24.3465 63.2488 25.229 63.5532 26.0897 63.9543C26.3571 64.079 26.6419 64.1981 26.9379 64.1454C27.93 63.9686 28.9512 63.983 29.9249 63.7077C30.6152 63.5127 31.3534 63.5734 32.0227 63.2882C32.5623 63.3952 33.0436 63.1702 33.5424 63.0304C33.7912 62.9603 34.0537 62.9059 34.3106 62.9062C34.8868 62.9072 35.3904 62.7102 35.8807 62.4354C36.2493 62.2284 36.6217 62.0133 37.0172 61.8756C37.8761 61.5764 38.7639 61.359 39.6154 61.0398C40.2818 60.7891 40.9383 60.472 41.444 59.9473C41.9874 59.3835 42.5383 58.7718 42.7647 58.0372C43.002 57.2662 43.5672 56.8058 44.0187 56.2298C44.138 56.0774 44.2985 55.9576 44.4247 55.8097C44.5498 55.6616 44.654 55.5021 44.6897 55.2974C44.8904 54.1349 45.3962 53.0688 45.7553 51.9556C45.8962 51.5194 45.9372 51.5104 46.3887 51.56C47.5463 51.6853 47.7671 51.607 48.1298 50.5283C48.5203 49.3682 49.1786 48.3668 49.7834 47.3284C49.8467 47.2195 49.902 47.095 50.0633 47.1164C50.3795 47.6316 49.8034 48.1764 50.1323 48.8098L50.1268 48.8099ZM16.5451 62.7997C15.613 62.1758 14.5525 61.9126 13.5457 61.5213C13.3872 61.4599 13.2268 61.5306 13.1765 61.725C13.1295 61.9068 13.1927 62.0538 13.375 62.0987C13.8451 62.215 14.2854 62.4179 14.7418 62.5679C15.3159 62.7566 15.9216 62.8613 16.5462 62.7999L16.5451 62.7997Z" fill="#8DC0FF"/>
<path d="M182.134 109.816C182.154 109.964 182.075 110.12 182.254 110.245C182.785 110.619 183.291 111.029 183.823 111.4C184.307 111.738 184.734 112.136 185.161 112.537C185.709 113.052 185.605 113.764 184.928 114.102C184.814 114.159 184.677 114.167 184.556 114.213C184.426 114.263 184.339 114.369 184.336 114.508C184.321 115.09 184.072 115.651 184.213 116.252C184.262 116.462 184.196 116.704 184.163 116.928C184.078 117.505 183.93 118.07 184.047 118.671C184.095 118.913 183.999 119.186 183.952 119.441C183.646 121.108 183.339 122.775 183.021 124.439C182.863 125.266 182.802 126.116 182.385 126.883C182.251 127.129 182.263 127.453 182.202 127.739C182.107 128.182 182.043 128.627 181.805 129.037C181.614 129.366 181.587 129.76 181.587 130.146C181.804 130.152 181.846 130.009 181.855 129.89C181.917 129.095 182.355 128.423 182.571 127.678C182.786 126.935 183.117 126.227 183.344 125.483C183.532 124.867 183.795 124.274 184.035 123.675C184.228 123.194 184.379 122.697 184.554 122.212C184.995 120.995 185.519 119.808 185.914 118.58C186.45 116.912 187.148 115.308 187.802 113.691C188.25 112.585 188.713 111.479 189.18 110.378C189.684 109.185 190.126 107.965 190.609 106.763C191.213 105.261 191.833 103.766 192.445 102.267C193.059 100.765 193.673 99.2633 194.287 97.7607C194.939 96.1655 195.636 94.5869 196.232 92.9717C196.657 91.8221 197.175 90.7134 197.589 89.5588C198.081 88.1873 198.577 86.8166 199.2 85.4916C199.695 84.4367 200.064 83.3231 200.515 82.2471C200.952 81.2059 201.39 81.0847 202.404 81.6762C202.994 82.0198 203.128 82.4936 202.76 83.0287C202.52 83.377 202.284 83.724 202.067 84.0884C201.68 84.733 201.456 85.4385 201.185 86.128C201.068 86.4284 200.932 86.7211 200.808 87.0193C200.251 88.3603 199.738 89.7215 199.124 91.0372C198.659 92.0362 198.142 93.0106 197.736 94.0377C197.355 95.0026 196.962 95.9632 196.566 96.9222C196.096 98.0625 195.558 99.1751 195.174 100.352C194.356 101.539 194.068 102.966 193.422 104.234C193.028 105.007 192.782 105.855 192.472 106.671C192.127 107.579 191.823 108.503 191.435 109.393C190.803 110.842 190.177 112.293 189.541 113.741C188.863 115.285 188.241 116.851 187.63 118.422C187.323 119.21 187.044 120.008 186.748 120.8C186.691 120.952 186.634 121.106 186.554 121.245C186.019 122.18 185.746 123.218 185.361 124.212C185.128 124.814 185.025 125.465 184.694 126.031C184.613 126.168 184.575 126.333 184.541 126.49C184.457 126.873 184.525 127.039 184.883 127.187C186.234 127.749 187.48 128.516 188.791 129.155C188.878 129.197 188.953 129.268 189.043 129.299C189.216 129.36 189.371 129.319 189.439 129.135C189.719 128.372 189.992 127.607 190.265 126.841C190.471 126.259 190.664 125.672 190.876 125.093C191.32 123.877 191.763 122.66 192.228 121.451C192.436 120.909 192.728 120.398 192.924 119.853C193.662 117.806 194.63 115.861 195.616 113.932C196.413 112.373 197.38 110.897 198.311 109.408C199.984 106.732 201.725 104.101 203.502 101.493C205.424 98.6695 207.334 95.8363 209.232 92.9953C209.626 92.4057 209.993 91.7927 210.115 91.0611C210.185 90.6406 210.79 90.2453 211.228 90.2652C211.318 90.2694 211.424 90.3113 211.491 90.3716C211.686 90.5444 211.873 90.7268 212.048 90.9192C212.272 91.1651 212.278 91.2625 212.087 91.5147C211.833 91.8527 211.565 92.1807 211.305 92.5145C211.185 92.669 211.062 92.8219 210.952 92.9826C210.199 94.0772 209.423 95.1548 208.614 96.2099C208.359 96.5425 208.186 96.9369 207.953 97.2863C207.542 97.9046 207.078 98.4906 206.698 99.1275C206.013 100.272 205.172 101.304 204.406 102.388C204.294 102.548 204.2 102.72 204.1 102.887C203.286 104.251 202.312 105.509 201.489 106.872C200.989 107.702 200.492 108.547 199.932 109.335C199.344 110.16 198.944 111.098 198.348 111.892C197.439 113.101 196.868 114.482 196.107 115.762C195.439 116.882 194.869 118.043 194.35 119.234C193.948 120.157 193.557 121.085 193.174 122.017C192.964 122.528 192.619 122.96 192.388 123.465C192.091 124.117 191.947 124.816 191.63 125.462C191.275 126.183 191.015 126.954 190.765 127.72C190.614 128.181 190.487 128.644 190.278 129.088C190.084 129.501 190.178 129.709 190.584 129.987C190.986 130.262 191.405 130.511 191.819 130.768C192.012 130.888 192.217 130.991 192.407 131.114C193.029 131.515 193.584 132.266 193.359 132.327C192.835 132.469 192.348 132.285 191.876 132.058C191.32 131.792 191.244 131.787 190.867 132.19C190.514 132.569 190.158 132.946 189.891 133.402C189.632 133.847 189.349 134.295 188.851 134.517C188.644 134.609 188.559 134.763 188.525 134.964C188.438 135.479 188.277 135.96 188.057 136.441C187.873 136.844 187.862 137.327 187.769 137.773C187.65 138.344 187.614 138.932 187.28 139.448C187.163 139.629 187.16 139.884 187.116 140.107C186.99 140.746 186.877 141.388 186.746 142.026C186.642 142.533 186.521 143.025 186.306 143.512C186.048 144.099 185.964 144.765 185.826 145.401C185.626 146.324 185.45 147.254 185.253 148.178C185.098 148.905 185.021 149.647 184.668 150.334C184.481 150.696 184.486 151.156 184.395 151.57C184.367 151.695 184.311 151.814 184.262 151.933C184.254 151.95 184.203 151.962 184.178 151.954C184.121 151.937 184.043 151.922 184.02 151.88C183.974 151.799 183.925 151.693 183.94 151.609C184.089 150.782 184.091 149.924 184.52 149.155C184.658 148.908 184.687 148.596 184.74 148.309C185.015 146.803 185.28 145.294 185.55 143.786C185.625 143.37 185.696 142.958 185.91 142.576C186.032 142.356 186.078 142.085 186.125 141.833C186.267 141.097 186.391 140.357 186.526 139.62C186.601 139.204 186.653 138.782 186.885 138.41C186.952 138.303 187.004 138.173 187.018 138.047C187.192 136.563 187.762 135.143 187.747 133.628C187.992 132.947 187.899 132.216 188.057 131.521C188.121 131.237 188.124 130.939 188.173 130.652C188.24 130.26 188.035 130.017 187.721 129.878C187.158 129.629 186.586 129.4 186.005 129.199C185.608 129.062 185.184 129.001 184.779 128.882C184.519 128.806 184.266 128.814 184.006 128.847C183.833 128.868 183.673 128.935 183.634 129.11C183.492 129.745 183.061 130.281 183.023 130.955C183.011 131.173 182.917 131.401 182.81 131.597C182.666 131.861 182.592 132.137 182.533 132.425C182.486 132.646 182.447 132.883 182.337 133.074C182.152 133.396 182.074 133.737 182.013 134.091C181.963 134.38 181.915 134.67 181.747 134.923C181.579 135.174 181.541 135.468 181.488 135.756C181.429 136.076 181.366 136.39 181.21 136.687C181.091 136.913 181.025 137.172 180.971 137.425C180.888 137.808 180.793 138.176 180.622 138.537C180.472 138.853 180.424 139.222 180.351 139.571C180.192 140.333 180.135 141.118 179.744 141.823C179.623 142.042 179.614 142.324 179.566 142.581C179.326 143.895 179.093 145.211 178.854 146.525C178.808 146.782 178.761 147.039 178.699 147.291C178.648 147.5 178.523 147.603 178.283 147.608C177.38 147.628 177.308 147.568 177.459 146.702C177.787 144.84 178.126 142.98 178.464 141.12C178.499 140.928 178.517 140.716 178.614 140.556C178.948 140.007 178.999 139.386 179.117 138.782C179.236 138.177 179.292 137.559 179.627 137.009C179.739 136.825 179.739 136.571 179.786 136.349C179.848 136.064 179.869 135.767 180.039 135.511C180.257 135.127 180.366 134.729 180.271 134.182C180.061 134.693 179.991 135.143 180.06 135.534C179.931 135.487 179.788 135.468 179.714 135.599C179.603 135.794 179.516 136.005 179.433 136.215C179.004 137.302 178.671 138.437 178.13 139.463C177.629 140.412 177.332 141.431 176.868 142.387C176.428 143.293 175.905 144.149 175.388 145.012C175.177 145.364 174.864 145.583 174.519 145.772C173.73 146.206 172.898 146.413 171.995 146.248C171.131 146.091 170.265 145.944 169.402 145.779C169.181 145.737 168.957 145.667 168.755 145.567C167.881 145.134 166.962 144.812 166.061 144.446C165.345 144.154 164.65 143.785 163.998 143.369C162.518 142.425 161.059 141.45 159.614 140.455C157.977 139.327 156.51 137.982 155 136.697C153.838 135.708 152.746 134.636 151.622 133.598C149.785 131.9 147.945 130.203 146.111 128.502C145.757 128.173 145.376 127.887 145.05 127.509C144.341 126.685 144.021 125.72 143.763 124.71C143.731 124.584 143.693 124.458 143.677 124.33C143.544 123.264 143.271 122.229 143.021 121.188C142.909 120.722 142.907 120.227 142.88 119.743C142.868 119.545 143.137 119.334 143.344 119.314C143.839 119.264 144.192 119.612 144.614 119.762C144.904 119.865 144.934 120.164 145.004 120.401C145.222 121.14 145.459 121.87 145.548 122.652C145.651 123.55 145.813 124.47 146.139 125.306C146.601 126.493 147.3 127.574 148.34 128.362C150.27 129.823 151.895 131.611 153.651 133.258C155.671 135.149 157.745 136.975 159.925 138.681C161.927 140.248 164.097 141.561 166.261 142.881C167.158 143.429 168.171 143.707 169.131 144.108C169.461 144.246 169.791 144.391 170.131 144.499C170.654 144.666 171.174 144.877 171.75 144.718C171.899 144.676 172.081 144.689 172.233 144.728C172.757 144.867 173.115 144.635 173.402 144.238C173.592 143.974 173.792 143.714 173.942 143.428C174.623 142.134 175.26 140.821 175.777 139.45C176.11 138.57 176.48 137.705 176.803 136.821C177.07 136.092 177.402 135.385 177.56 134.617C177.665 134.106 177.948 133.661 178.081 133.15C178.242 132.527 178.545 131.941 178.774 131.335C178.855 131.123 178.917 130.902 178.962 130.68C179.054 130.233 179.123 129.787 179.362 129.379C179.472 129.19 179.5 128.947 179.545 128.725C179.656 128.184 179.716 127.633 180.011 127.141C180.106 126.981 180.117 126.768 180.156 126.577C180.265 126.035 180.309 125.478 180.622 124.994C180.689 124.889 180.706 124.748 180.729 124.62C180.941 123.466 181.142 122.309 181.359 121.156C181.417 120.847 181.369 120.594 181.169 120.339C180.933 120.038 180.794 119.683 180.534 119.378C180.204 118.991 180.135 118.435 180.122 117.908C180.103 117.166 180.102 116.422 180.071 115.68C180.057 115.324 180.025 114.961 179.937 114.617C179.853 114.291 179.875 113.982 179.895 113.658C179.914 113.359 179.601 113.118 179.386 113.265C178.744 113.703 178.093 113.439 177.513 113.231C176.913 113.016 176.372 112.601 176.042 112.001C175.791 111.545 175.544 111.087 175.304 110.624C175.226 110.472 175.135 110.347 174.966 110.298C174.003 110.021 173.076 109.61 172.114 109.365C171.078 109.101 170.101 108.634 169.019 108.516C167.984 108.404 166.96 108.184 165.933 108.01C165.644 107.961 165.352 107.926 165.07 107.85C164.562 107.711 164.048 107.642 163.524 107.662C163.061 107.681 162.614 107.657 162.212 107.381C162.108 107.31 161.973 107.267 161.847 107.25C161.018 107.14 160.316 106.714 159.605 106.33C158.605 105.791 157.973 104.941 157.756 103.821C157.595 102.99 157.268 102.202 157.19 101.35C157.124 100.637 157.034 99.9282 157.052 99.2106C157.072 98.4267 156.98 97.6544 156.792 96.891C156.667 96.3873 156.574 95.8752 156.473 95.366C156.454 95.2717 156.445 95.1683 156.461 95.075C156.663 93.987 156.501 92.862 156.811 91.7837C156.891 91.507 156.943 91.2178 156.848 90.9175C156.803 90.7727 156.808 90.5855 156.86 90.4406C157.002 90.0331 156.999 89.606 157.072 89.1904C157.166 88.6474 157.244 88.1069 157.498 87.5949C157.667 87.2557 157.689 86.8419 157.774 86.4612C157.944 85.7021 158.055 84.9412 158.343 84.1979C158.619 83.4821 158.656 82.6717 158.781 81.9014C158.8 81.7835 158.747 81.647 158.704 81.5277C158.609 81.2568 158.388 81.2027 158.193 81.4094C157.902 81.7169 157.631 82.042 157.342 82.352C157.233 82.4691 157.108 82.579 156.972 82.6583C156.89 82.7059 156.785 82.653 156.735 82.5533C156.721 82.5256 156.713 82.4924 156.711 82.4604C156.646 81.5136 156.847 80.5873 156.925 79.6509C157.388 78.796 157.684 77.8605 158.235 77.0455C158.87 76.1055 159.459 75.1353 160.073 74.1818C160.214 73.9633 160.37 73.753 160.536 73.5532C161.202 72.7533 161.867 71.9521 162.546 71.1644C163.017 70.6183 163.375 70.02 163.687 69.3641C164.48 67.6925 165.135 65.9566 166.05 64.3387C166.525 63.4968 166.965 62.6026 167.22 61.6762C167.477 60.7382 167.902 59.8545 168.043 58.8759C168.148 58.1499 168.953 55.8451 169.378 55.2379C169.931 54.4474 170.565 53.7532 171.519 53.4898C172.138 53.3191 172.546 52.9551 172.829 52.4176C173.03 52.0339 173.299 51.7257 173.651 51.4719C174.257 51.0342 174.908 50.9153 175.578 51.2502C175.998 51.4604 176.429 51.5752 176.881 51.6292C177.608 51.7154 178.241 52.0579 178.898 52.336C181.224 53.3181 183.275 54.7539 185.284 56.2509C185.994 56.779 186.483 57.4828 186.928 58.2707C187.47 59.2279 187.839 60.2843 188.54 61.1563C188.779 61.4543 188.904 61.8397 189.043 62.2082C189.411 63.1823 189.819 64.1417 190.215 65.1055C190.252 65.1975 190.33 65.2674 190.438 65.2332C190.489 65.2172 190.543 65.1579 190.563 65.1058C190.761 64.6198 190.856 64.1108 190.885 63.5879C190.891 63.4991 190.863 63.4002 191.02 63.3387C191.174 63.9231 191.467 64.4506 191.49 65.0857C191.504 65.4963 191.673 65.9073 191.814 66.3034C191.89 66.5183 192.001 66.7134 191.974 66.9546C191.964 67.0479 191.96 67.1785 192.014 67.2363C192.451 67.7108 192.383 68.3297 192.459 68.8892C192.574 69.7324 192.726 70.5647 192.994 71.3676C193.441 72.708 193.634 74.0902 193.74 75.4873C193.788 76.1337 193.925 76.7719 193.889 77.4282C193.875 77.6795 193.966 77.9408 194.031 78.1921C194.242 79.0066 194.38 79.8286 194.446 80.6719C194.509 81.4772 194.711 82.2714 194.813 83.0752C194.894 83.7176 194.92 84.3663 194.968 85.0127C194.985 85.2366 195.064 85.4838 194.996 85.6783C194.903 85.9394 194.569 85.7349 194.389 85.8621C194.017 86.1243 193.575 86.0481 193.176 86.1544C192.824 86.2475 192.651 86.1573 192.464 85.8556C192.123 85.3075 191.976 84.7166 191.971 84.0913C191.965 83.1736 191.792 82.2785 191.621 81.3868C191.11 78.7378 190.535 76.1023 189.916 73.4754C189.326 70.9706 188.685 68.4818 187.9 66.0327C187.384 64.4218 186.803 62.833 185.979 61.3459C185.33 60.1724 184.527 59.1244 183.606 58.1428C182.946 57.4376 182.093 57.0357 181.364 56.4495C181.045 56.1929 180.588 56.1511 180.201 55.9797C179.582 55.7042 178.899 55.5757 178.247 55.3762C177.885 55.2651 177.547 55.3037 177.202 55.4516C176.247 55.8593 175.297 56.2766 174.524 56.9949C174.17 57.3248 173.822 57.6701 173.512 58.042C173.219 58.3939 172.913 58.7236 172.565 59.0198C172.491 59.0831 172.406 59.1432 172.356 59.2227C171.786 60.1253 171.029 60.8988 170.539 61.855C170.48 61.9691 170.435 62.0945 170.405 62.2192C169.915 64.2473 169.175 66.1985 168.569 68.1916C168.29 69.1135 167.792 69.9689 167.39 70.8524C167.35 70.9404 167.255 71.014 167.242 71.1025C167.145 71.7673 166.759 72.2929 166.415 72.8379C166.167 73.2286 165.997 73.6442 165.968 74.1048C165.932 74.654 165.504 74.8504 165.113 75.0741C165.05 75.1097 164.921 75.0734 164.843 75.032C164.674 74.9415 164.52 74.8262 164.31 74.6888C163.927 75.5823 163.475 76.3977 163.107 77.2667C162.631 78.3948 162.375 79.5365 162.241 80.7385C162.164 81.4431 161.915 82.1277 161.778 82.8271C161.671 83.368 161.601 83.9174 161.551 84.4674C161.507 84.9559 161.429 85.4318 161.284 85.9012C161.201 86.1695 161.217 86.4295 161.527 86.5542C161.74 86.6395 161.789 86.7851 161.813 87.0038C161.965 88.3785 161.818 89.6984 161.412 91.0351C160.986 92.4359 160.662 93.8639 159.967 95.1705C159.876 95.3411 159.853 95.5481 159.762 95.7187C159.354 96.483 159.323 97.2539 159.643 98.0574C159.737 98.2942 159.76 98.5619 159.805 98.8172C159.949 99.6471 160.359 100.331 160.95 100.917C161.644 101.604 162.358 102.273 163.024 102.986C163.374 103.362 163.763 103.623 164.253 103.731C165.302 103.963 166.307 104.347 167.36 104.581C168.309 104.794 169.228 105.147 170.198 105.298C171.033 105.428 171.863 105.59 172.697 105.727C173.047 105.785 173.232 105.632 173.152 105.305C172.954 104.5 173.283 103.761 173.407 103C173.472 102.606 173.953 102.37 174.401 102.399C175.094 102.442 175.659 102.801 176.119 103.247C177.218 104.311 178.413 105.277 179.417 106.436C179.79 106.868 180.262 107.171 180.76 107.39C181.833 107.862 182.29 108.857 182.886 109.738C182.958 109.846 182.861 110.035 182.735 110.035C182.516 110.035 182.269 110.096 182.137 109.831C182.015 109.8 181.896 109.759 181.776 109.736C181.727 109.727 181.633 109.741 181.625 109.766C181.579 109.913 181.718 109.912 181.787 109.907C181.907 109.899 182.025 109.849 182.143 109.817L182.134 109.816ZM174.921 53.6015C175.298 53.793 175.774 53.5921 176.249 53.5739C176.329 53.5707 176.449 53.4884 176.469 53.4198C176.488 53.3544 176.423 53.218 176.357 53.181C175.912 52.929 175.467 52.6696 175.001 52.462C174.563 52.2673 174.255 52.4294 174.089 52.8699C173.975 53.1763 174.114 53.4355 174.442 53.5142C174.567 53.5444 174.694 53.5607 174.921 53.6015ZM180.711 133.377C180.693 133.322 180.677 133.269 180.66 133.215C180.625 133.26 180.574 133.301 180.559 133.352C180.544 133.407 180.549 133.516 180.57 133.523C180.693 133.56 180.68 133.443 180.711 133.377ZM181.205 131.443C181.163 131.486 181.103 131.522 181.083 131.573C181.049 131.662 181.03 131.765 181.121 131.837C181.127 131.842 181.221 131.764 181.244 131.713C181.282 131.622 181.283 131.523 181.205 131.443Z" fill="#8DC0FF"/>
<path d="M112.935 109.243C112.687 109.347 112.288 109.047 112.176 109.456C112.098 109.745 112.441 109.861 112.604 110.048C113.28 110.824 114.102 111.489 114.399 112.547C114.534 113.023 114.846 113.413 115.201 113.756C115.415 113.961 115.58 114.191 115.718 114.457C116.15 115.293 116.593 116.122 117.108 116.916C117.638 117.731 118.068 118.612 118.547 119.46C118.852 120 119.153 120.533 119.741 120.841C120.031 120.994 120.19 121.311 120.35 121.594C120.826 122.441 121.43 123.208 121.878 124.073C122.37 125.022 122.89 125.957 123.338 126.93C123.555 127.401 123.786 127.864 123.975 128.35C124.253 129.069 124.816 129.604 125.348 130.107C125.964 130.692 126.381 131.367 126.652 132.133C127.046 133.243 127.685 134.229 128.145 135.304C128.234 135.513 128.342 135.714 128.424 135.925C128.496 136.11 128.537 136.304 128.382 136.476C128.17 136.71 128.237 136.954 128.35 137.202C128.512 137.558 128.688 137.907 128.829 138.271C128.945 138.572 129.055 138.884 129.002 139.22C128.975 139.393 128.901 139.524 128.709 139.555C128.549 139.581 128.351 139.557 128.239 139.644C127.882 139.921 127.512 139.837 127.12 139.787C126.649 139.728 126.389 139.516 126.208 139.053C125.734 137.842 125.203 136.652 124.672 135.463C124.328 134.691 123.886 133.957 123.596 133.167C123.348 132.491 123.061 131.84 122.735 131.204C122.469 130.684 122.175 130.177 121.881 129.67C121.567 129.126 121.389 128.54 121.375 127.916C121.369 127.64 121.285 127.412 121.142 127.188C120.793 126.638 120.451 126.083 120.106 125.531C120.002 125.364 119.886 125.218 119.695 125.13C119.234 124.917 118.936 124.512 118.657 124.118C118.016 123.212 117.32 122.352 116.596 121.516C115.614 120.383 114.852 119.076 113.795 118.004C113.487 117.363 113.049 116.789 112.854 116.092C112.61 115.214 112.292 114.367 111.906 113.536C111.399 112.446 110.977 111.315 110.532 110.196C110.264 109.521 109.847 108.942 109.418 108.368C109.371 108.305 109.253 108.295 109.167 108.261C109.132 108.351 109.061 108.443 109.067 108.53C109.176 110.048 109.069 111.575 109.282 113.092C109.395 113.89 109.357 114.708 109.386 115.517C109.454 117.395 109.483 119.276 109.607 121.15C109.663 121.989 109.718 122.827 109.754 123.667C109.81 124.93 109.846 126.194 109.918 127.456C110.027 129.372 110.149 131.285 110.293 133.198C110.33 133.676 110.21 134.098 110.038 134.522C109.987 134.647 109.881 134.714 109.729 134.692C109.569 134.669 109.407 134.649 109.248 134.649C108.693 134.651 108.58 134.595 108.517 134.12C108.462 133.702 108.406 133.267 108.463 132.856C108.623 131.687 108.471 130.524 108.425 129.362C108.345 127.385 108.192 125.413 108.165 123.434C108.15 122.398 108.047 121.363 108.002 120.327C107.929 118.676 107.875 117.022 107.8 115.37C107.752 114.301 107.674 113.232 107.627 112.163C107.571 110.869 107.538 109.572 107.484 108.277C107.446 107.375 107.343 106.473 107.358 105.572C107.372 104.728 107.312 103.89 107.297 103.05C107.292 102.749 107.254 102.48 107.157 102.198C107.04 101.858 106.984 101.476 107.104 101.144C107.256 100.725 107.228 100.326 107.211 99.8998C107.148 98.3124 107.17 96.7217 107.077 95.1366C107.015 94.0733 107.074 92.9958 106.794 91.9457C106.687 91.5436 106.703 91.1101 106.653 90.6932C106.53 89.6637 106.41 88.6336 106.274 87.6052C106.142 86.6026 106.112 85.6007 106.248 84.5973C106.301 84.2097 106.317 83.8255 106.289 83.43C106.242 82.7489 106.201 82.059 106.259 81.3825C106.367 80.105 106.146 78.8555 106.043 77.5955C105.955 76.5287 105.885 75.4585 105.739 74.3997C105.482 72.5367 105.443 70.6442 104.985 68.8085C104.922 68.5577 104.872 68.3004 104.776 68.0622C104.398 67.1301 104.001 66.2066 103.619 65.277C103.533 65.0679 103.473 64.8461 103.41 64.6279C103.193 63.8769 102.981 63.1246 102.764 62.3746C102.719 62.2188 102.697 62.0366 102.6 61.9196C101.915 61.0864 101.784 60.0205 101.402 59.0636C100.896 57.7957 100.526 56.4746 100.007 55.2142C99.5237 54.0422 99.0755 52.8568 98.6189 51.6754C98.2334 50.6763 97.8493 49.6753 97.4651 48.6754C97.4421 48.6144 97.4217 48.5516 97.3915 48.4948C96.8686 47.5235 96.5394 46.4667 96.0518 45.4821C95.8978 45.1711 95.8045 44.918 95.9739 44.5723C96.1141 44.2858 96.1445 43.9654 95.9705 43.6322C95.842 43.3859 95.8269 43.0814 95.7628 42.8117C95.9417 42.6744 96.0133 42.8174 96.086 42.9115C96.5852 43.5526 97.0803 44.1985 97.5883 44.8576C97.68 44.7975 97.779 44.764 97.8288 44.6942C98.0981 44.3161 98.4379 44.0755 98.8809 43.8928C99.8227 43.5035 99.851 43.4495 100.305 44.3417C100.701 45.1219 101.01 45.9463 101.338 46.7601C101.666 47.5726 101.918 48.4196 102.3 49.2049C102.616 49.8523 102.747 50.5476 102.991 51.2105C103.237 51.8782 103.393 52.579 103.595 53.2638C103.696 53.6079 103.806 53.9483 103.918 54.2888C104.325 55.5313 104.647 56.7858 104.532 58.1148C104.513 58.3345 104.553 58.5768 104.631 58.7845C105.077 59.9705 105.272 61.2317 105.734 62.4141C105.861 62.7376 105.852 63.1155 105.904 63.4684C106.052 64.464 106.144 65.4725 106.367 66.4511C106.518 67.1149 106.657 67.782 106.808 68.4456C107.139 69.9031 107.272 71.3859 107.414 72.8683C107.46 73.3534 107.569 73.8335 107.589 74.3184C107.611 74.8276 107.567 75.3402 107.542 75.8498C107.516 76.3811 107.849 76.8261 107.858 77.3624C107.869 78.1037 107.982 78.8426 108.06 79.5818C108.115 80.1014 108.155 80.6162 108.018 81.1317C107.967 81.3195 107.947 81.5171 108.024 81.7082C108.175 82.0809 108.114 82.4714 108.126 82.8563C108.133 83.1146 108.137 83.3788 108.192 83.6305C108.291 84.0802 108.336 84.5238 108.223 84.9769C108.2 85.0711 108.162 85.177 108.183 85.2651C108.392 86.124 108.273 87.006 108.37 87.8722C108.46 88.6791 108.582 89.482 108.636 90.2913C108.68 90.9313 108.599 91.5751 108.474 92.2056C108.405 92.5606 108.387 92.8996 108.432 93.2655C108.582 94.4551 108.605 95.6535 108.606 96.8525C108.608 97.5002 108.661 98.1474 108.69 98.7957C108.723 99.5399 108.751 100.285 108.79 101.03C108.813 101.451 108.952 101.594 109.366 101.681C109.697 101.752 110.015 101.742 110.311 101.562C111.612 100.771 113.058 100.189 114.04 98.9456C114.686 98.5084 115.197 97.9148 115.819 97.4404C116.484 96.9315 117.041 96.277 117.632 95.6747C118.133 95.1634 118.65 94.6694 119.162 94.1686C120.279 93.0761 121.556 92.1675 122.661 91.0661C123.007 90.7215 123.32 90.3447 123.654 89.9893C124.545 89.0429 125.424 88.0835 126.165 87.0149C126.589 86.4023 126.928 85.7284 127.279 85.0686C127.634 84.3998 128.136 83.9369 128.887 83.7582C129.069 83.7144 129.217 83.728 129.295 83.9049C129.418 84.1863 129.652 84.375 129.87 84.5598C130.456 85.0557 130.831 85.6876 131.192 86.3518C131.848 87.5627 132.21 88.8682 132.559 90.1877C132.775 91.0052 133.056 91.8051 133.323 92.6078C133.703 93.7491 134.115 94.8798 134.481 96.0254C134.836 97.1348 135.176 98.2503 135.476 99.3751C135.676 100.124 135.778 100.899 135.956 101.655C136.132 102.412 136.342 103.161 136.548 103.91C136.634 104.223 136.747 104.53 136.85 104.838C136.915 105.032 136.966 105.264 136.797 105.382C136.564 105.546 136.46 105.261 136.361 105.135C135.191 103.654 134.438 102.358 133.712 100.522C133.162 99.1312 132.658 97.7224 132.117 96.3269C131.659 95.144 131.211 93.9576 130.91 92.7223C130.888 92.6286 130.861 92.5286 130.81 92.4494C130.154 91.4289 129.912 90.2282 129.367 89.161C128.982 88.406 128.667 87.6241 128.403 86.8197C128.364 86.7022 128.266 86.6004 128.183 86.5002C128.093 86.3898 127.816 86.4243 127.76 86.5563C127.697 86.7057 127.669 86.8703 127.603 87.0168C127.096 88.1145 126.421 89.1074 125.694 90.0668C125.459 90.3767 125.196 90.6674 124.978 90.9878C123.897 92.5716 122.648 94.0134 121.321 95.3921C120.285 96.4687 119.248 97.5418 118.228 98.6333C117.252 99.6761 116.183 100.599 115.009 101.417C114.567 101.725 114.241 102.203 113.867 102.607C113.766 102.714 113.77 102.857 113.852 102.965C114.092 103.279 113.882 103.523 113.729 103.761C113.524 104.078 113.152 104.314 113.293 104.786C113.315 104.861 113.253 104.978 113.202 105.057C113.027 105.332 112.869 105.625 112.65 105.86C112.388 106.141 112.646 106.497 112.448 106.777C112.112 107.253 112.313 107.708 112.547 108.145C112.654 108.345 112.806 108.519 112.919 108.716C113.021 108.894 113.043 109.085 112.91 109.267L112.935 109.245L112.935 109.243Z" fill="#8DC0FF"/>
<path d="M89.4532 131.392C88.9405 131.3 88.4289 131.189 87.9133 131.119C86.8734 130.978 85.8839 130.703 84.957 130.189C84.5364 129.956 84.0677 129.802 83.6114 129.639C82.962 129.407 82.3885 129.063 81.8663 128.61C81.401 128.206 80.8897 127.857 80.4136 127.464C79.213 126.472 78.0525 125.434 77.076 124.213C76.7128 123.758 76.3957 123.266 76.0605 122.788C75.9848 122.681 75.9114 122.566 75.7611 122.599C75.6232 122.63 75.5535 122.75 75.503 122.872C75.3422 123.261 75.1885 123.653 75.0255 124.041C74.4982 125.299 73.8213 126.483 73.1776 127.683C73.041 127.937 72.8265 128.15 72.6452 128.38C72.4058 128.683 72.0641 128.819 71.7039 128.827C71.3799 128.835 71.061 128.863 70.7394 128.881C70.4199 128.9 70.036 128.712 69.7898 128.834C69.5378 128.958 69.2887 129.048 69.0295 129.151C68.179 129.489 67.4098 129.369 66.6157 128.969C64.7464 128.028 63.0535 126.819 61.3952 125.563C60.9148 125.2 60.4652 124.745 60.1763 124.181C60.1173 124.066 60.0507 123.95 59.964 123.854C58.6867 122.451 58.2008 120.703 57.8522 118.91C57.5482 117.349 57.4727 115.764 57.4728 114.173C57.4729 113.528 57.3679 112.878 57.2642 112.24C57.0459 110.889 57.0542 109.531 57.127 108.174C57.1757 107.259 57.4145 106.371 57.7163 105.508C57.9027 104.978 58.2774 104.567 58.7314 104.227C60.2692 103.072 61.9338 102.125 63.628 101.226C64.6028 100.708 65.5393 100.123 66.5394 99.6471C68.4835 98.7208 70.4828 97.9555 72.5841 97.4743C73.7112 97.2157 74.8437 97.237 75.9676 97.5127C76.1541 97.5583 76.3544 97.6119 76.5066 97.7202C76.7873 97.9228 77.1205 97.9249 77.4244 98.0288C77.6952 98.1224 77.8391 98.028 77.964 97.7837C78.3937 96.9467 78.8798 96.1363 79.2721 95.2817C79.722 94.3018 80.5354 93.7385 81.4071 93.2163C81.5799 93.1129 81.7674 93.0559 81.9682 93.1008C82.8626 93.3024 83.7826 93.2832 84.685 93.4042C85.233 93.4766 85.7854 93.5367 86.28 93.827C86.3879 93.8902 86.5282 93.9002 86.6533 93.9347C88.8535 94.5256 90.9811 95.2949 92.951 96.4601C95.2777 97.8361 97.4511 99.4262 99.5494 101.13C101.216 102.483 102.874 103.844 104.461 105.29C104.581 105.399 104.706 105.505 104.817 105.623C104.854 105.663 104.862 105.738 104.866 105.799C104.871 105.878 104.821 105.918 104.738 105.908C104.406 105.874 104.091 105.855 103.866 106.189C103.79 106.301 103.636 106.254 103.506 106.21C103.285 106.137 103.083 106.035 102.931 105.857C102.351 105.188 101.61 104.7 100.946 104.128C99.1452 102.578 97.2885 101.094 95.3708 99.6936C93.717 98.4858 91.9761 97.4034 90.1241 96.5186C89.4212 96.1831 88.692 95.902 87.9693 95.6089C86.9777 95.2061 85.9618 94.8711 84.9342 94.5712C84.4458 94.4285 83.9964 94.3979 83.5101 94.5958C82.8422 94.8671 82.2394 95.208 81.7711 95.7679C81.5633 96.017 81.3592 96.2821 81.1045 96.4757C80.4556 96.9692 80.1667 97.7111 79.755 98.3632C79.5129 98.7483 79.4956 99.233 79.4523 99.6857C79.4409 99.8039 79.4963 99.9397 79.5516 100.051C80.1904 101.32 80.4438 102.683 80.5712 104.083C80.6543 104.993 80.7229 105.9 80.4942 106.8C80.5924 108.386 80.0664 109.886 79.8456 111.427C79.7946 111.784 79.7009 112.128 79.5272 112.448C79.4503 112.59 79.3914 112.747 79.3522 112.904C78.9084 114.67 78.2619 116.365 77.5589 118.039C77.3903 118.441 77.3447 118.858 77.4563 119.283C77.5226 119.534 77.6084 119.781 77.6862 120.029C77.9091 120.74 78.1889 121.434 78.3176 122.177C78.4715 123.065 78.9606 123.805 79.5096 124.491C79.732 124.769 79.9831 125.026 80.1747 125.329C80.6892 126.14 81.4217 126.724 82.1854 127.275C82.9211 127.806 83.6293 128.361 84.4969 128.7C85.1559 128.958 85.8086 129.25 86.4397 129.59C87.1553 129.977 87.9726 130.121 88.7596 130.324C89.327 130.471 89.9069 130.573 90.4669 130.743C91.1836 130.96 91.8902 130.778 92.5996 130.743C93.1833 130.715 93.764 130.624 94.3465 130.554C94.5398 130.531 94.7383 130.51 94.9212 130.447C96.3478 129.959 97.6719 129.305 98.8445 128.321C99.6303 127.662 100.25 126.882 100.87 126.09C101.008 125.913 101.128 125.711 101.208 125.502C101.362 125.099 101.642 124.777 101.857 124.415C101.956 124.246 102.124 124.233 102.283 124.3C102.4 124.348 102.501 124.438 102.607 124.511C102.764 124.619 103.017 124.614 103.076 124.827C103.155 125.107 103.201 125.411 103.093 125.687C102.977 125.987 102.823 126.276 102.651 126.549C101.809 127.891 100.711 129.005 99.4051 129.872C97.6249 131.055 95.6875 131.822 93.5004 131.905C92.8397 131.931 92.2106 131.883 91.5725 131.77C90.8664 131.646 90.1615 131.516 89.4559 131.389L89.4532 131.392ZM76.4587 101.248C76.4989 101.024 76.5392 100.8 76.5794 100.577C76.6347 100.264 76.8213 99.9326 76.5727 99.6428C76.3384 99.371 76.036 99.1612 75.6861 99.0577C75.4701 98.9937 75.2351 98.9502 75.0124 98.9604C74.1388 99.0011 73.2502 98.992 72.4088 99.255C71.0461 99.68 69.6791 100.104 68.3955 100.746C67.815 101.036 67.2365 101.333 66.6544 101.62C66.1888 101.849 65.7322 102.083 65.2976 102.376C64.6264 102.83 63.9236 103.247 63.1987 103.609C62.1372 104.141 61.285 104.95 60.3509 105.649C59.8111 106.053 59.5399 106.63 59.4361 107.315C59.2344 108.648 59.3357 109.968 59.4788 111.293C59.5893 112.319 59.6865 113.346 59.7846 114.375C59.8861 115.438 59.9612 116.503 60.0082 117.572C60.0573 118.678 60.447 119.721 60.8066 120.754C61.202 121.893 61.7404 122.972 62.4904 123.928C63.3453 125.017 64.4303 125.842 65.6155 126.537C65.9785 126.75 66.3716 126.911 66.7552 127.089C66.8046 127.112 66.8968 127.104 66.9354 127.072C67.0179 127.002 67.0009 126.897 66.9512 126.814C66.8668 126.676 66.7651 126.548 66.6747 126.412C66.1175 125.577 65.5576 124.745 65.009 123.904C64.8238 123.62 64.8391 123.438 65.0063 123.293C65.2059 123.121 65.4275 123.105 65.6325 123.248C65.8228 123.381 66.0362 123.447 66.2399 123.543C66.8279 123.818 67.3668 124.16 67.8549 124.608C68.6726 125.357 69.4143 126.176 70.1849 126.968C70.7175 127.515 70.9755 127.51 71.4258 126.928C71.6038 126.699 71.75 126.439 71.8801 126.179C72.2136 125.511 72.5617 124.848 72.8464 124.16C73.4896 122.604 74.4129 121.164 74.7657 119.484C74.8119 119.264 74.8702 119.068 74.8435 118.84C74.6984 117.617 74.5444 116.395 74.4328 115.169C74.3249 113.97 74.3194 112.774 74.5479 111.578C74.8948 109.755 75.1953 107.922 75.5223 106.095C75.6429 105.425 75.7149 104.746 76.0469 104.123C76.1788 103.877 76.1923 103.559 76.226 103.268C76.3026 102.594 76.2185 101.901 76.4578 101.246L76.4587 101.248ZM76.6346 110.018L76.6314 110.017C76.516 110.658 76.4371 111.309 76.2765 111.94C76.0128 112.973 76.1368 114.002 76.2234 115.034C76.2275 115.084 76.2905 115.153 76.34 115.17C76.3812 115.184 76.4541 115.143 76.4925 115.106C76.5375 115.063 76.5675 115 76.5934 114.941C77.0435 113.936 77.4422 112.912 77.6899 111.834C77.7261 111.676 77.7433 111.502 77.8252 111.369C78.1265 110.879 78.15 110.318 78.2835 109.783C78.5396 108.762 78.463 107.711 78.5855 106.679C78.5947 106.598 78.5434 106.488 78.4841 106.422C78.1593 106.058 77.6595 106.1 77.4124 106.501C77.2193 106.814 77.1552 107.17 77.0869 107.518C76.9241 108.35 76.7824 109.185 76.6323 110.019L76.6346 110.018Z" fill="#8DC0FF"/>
<path d="M228.464 125.736C229.184 125.524 229.899 125.652 230.584 125.853C231.185 126.029 231.695 126.419 232.014 126.966C232.329 127.507 232.471 128.12 232.201 128.726C232.081 128.997 232.175 129.24 232.174 129.49C232.169 130.199 232.201 130.909 232.249 131.618C232.275 132.007 232.376 132.39 232.276 132.781C232.261 132.844 232.245 132.914 232.258 132.975C232.448 133.846 232.32 134.712 232.219 135.577C232.2 135.747 232.256 135.884 232.336 136.034C232.928 137.145 233.084 138.116 232.663 139.298C232.255 140.446 232.081 141.633 231.848 142.813C231.798 143.068 231.787 143.359 231.651 143.562C231.382 143.963 231.331 144.411 231.25 144.857C230.928 146.62 230.612 148.385 230.297 150.149C230.222 150.567 230.069 150.959 229.945 151.362C229.602 152.474 229.06 153.53 228.955 154.713C228.939 154.903 228.879 155.101 228.788 155.267C228.627 155.561 228.56 155.876 228.507 156.198C228.443 156.585 228.341 156.96 228.167 157.315C228.083 157.489 228.016 157.681 227.991 157.872C227.879 158.685 227.585 159.447 227.343 160.224C227.208 160.659 227.098 161.107 226.709 161.407C226.532 161.542 226.559 161.753 226.509 161.937C226.449 162.162 226.269 162.232 226.06 162.169C225.794 162.091 225.613 161.911 225.452 161.702C225.323 161.533 225.266 161.322 225.392 161.158C225.711 160.743 225.722 160.247 225.811 159.772C226.008 158.715 226.192 157.654 226.385 156.596C226.478 156.086 226.597 155.591 226.807 155.102C227.022 154.603 227.068 154.031 227.178 153.489C227.255 153.107 227.301 152.721 227.513 152.373C227.612 152.213 227.666 152.008 227.685 151.818C227.782 150.837 228.076 149.898 228.454 149.009C228.74 148.338 228.877 147.654 229.02 146.959C229.034 146.894 229.031 146.819 229.065 146.77C229.605 145.985 229.57 145.035 229.783 144.162C229.998 143.278 230.104 142.368 230.226 141.464C230.29 140.985 230.178 140.501 230.24 140.008C230.369 138.976 230.429 137.934 230.525 136.897C230.543 136.706 230.575 136.507 230.65 136.333C230.812 135.954 230.803 135.58 230.719 135.188C230.569 134.493 230.404 133.798 230.318 133.095C230.19 132.038 229.937 130.978 230.256 129.909C230.303 129.754 230.293 129.568 230.376 129.439C230.759 128.843 230.641 128.194 230.602 127.555C230.589 127.336 230.459 127.196 230.219 127.21C229.251 127.264 228.283 127.329 227.314 127.373C226.636 127.403 225.959 127.416 225.278 127.402C224.564 127.387 223.858 127.391 223.153 127.255C222.811 127.189 222.51 127.309 222.281 127.583C221.843 128.107 221.337 128.566 220.92 129.113C220.267 129.964 219.547 130.764 218.958 131.664C218.829 131.862 218.685 132.063 218.473 132.129C217.951 132.294 217.658 132.856 217.039 132.877C216.757 132.887 216.584 133.224 216.411 133.46C215.869 134.204 215.706 135.073 215.73 135.957C215.75 136.714 215.676 137.448 215.555 138.19C215.32 139.637 215.113 141.089 214.896 142.538C214.882 142.635 214.848 142.735 214.862 142.828C214.994 143.721 214.745 144.575 214.611 145.44C214.58 145.632 214.545 145.829 214.549 146.023C214.582 147.239 214.308 148.417 214.1 149.602C213.982 150.277 213.861 150.947 213.887 151.639C213.897 151.928 213.848 152.224 213.798 152.513C213.522 154.086 213.243 155.659 212.955 157.229C212.864 157.73 212.696 157.924 212.483 157.819C212.179 157.669 212.228 157.4 212.271 157.14C212.331 156.786 212.39 156.433 212.462 156.082C212.546 155.663 212.611 155.253 212.404 154.841C212.249 154.531 212.35 154.201 212.408 153.881C212.593 152.855 212.779 151.828 212.962 150.802C213.026 150.45 213.105 150.103 213.028 149.737C212.947 149.345 213.09 148.963 213.14 148.576C213.24 147.809 213.544 147.06 213.343 146.266C213.328 146.207 213.351 146.136 213.368 146.073C213.609 145.181 213.52 144.279 213.453 143.375C213.437 143.151 213.475 142.921 213.505 142.695C213.596 141.991 213.842 141.298 213.662 140.574C213.894 139.814 213.683 139.024 213.823 138.249C213.919 137.718 213.877 137.146 213.839 136.61C213.793 135.961 213.922 135.324 213.85 134.671C213.801 134.238 213.843 133.771 213.848 133.32C213.854 132.64 213.756 131.966 213.772 131.294C213.786 130.679 213.762 130.056 213.845 129.45C213.933 128.801 213.859 128.156 213.884 127.512C213.921 126.544 213.762 125.57 213.707 124.596C213.641 123.397 213.594 122.197 213.552 120.996C213.544 120.773 213.54 120.491 213.742 120.364C214.009 120.196 214.321 120.089 214.627 120C214.72 119.973 214.872 120.071 214.967 120.15C215.064 120.229 215.154 120.345 215.188 120.462C215.289 120.819 215.785 120.925 215.765 121.323C215.749 121.64 215.549 121.963 215.582 122.266C215.671 123.095 215.124 123.827 215.271 124.653C215.281 124.711 215.251 124.78 215.232 124.841C215.144 125.12 214.956 125.407 214.982 125.674C215.074 126.591 214.784 127.488 214.897 128.4C214.901 128.432 214.893 128.465 214.897 128.497C214.921 128.729 215.102 128.858 215.303 128.754C215.823 128.487 216.332 128.202 216.844 127.919C217.213 127.716 217.578 127.505 217.945 127.297C218.107 127.205 218.235 127.227 218.369 127.374C218.584 127.607 218.832 127.567 219.071 127.4C219.337 127.212 219.616 127.04 219.858 126.826C220.328 126.412 220.887 126.148 221.427 125.862C221.945 125.588 222.453 125.33 222.875 124.899C223.113 124.655 223.503 124.568 223.791 124.362C224.376 123.944 225.004 123.608 225.635 123.27C225.834 123.162 226.057 123.089 226.243 122.962C226.886 122.528 227.553 122.705 228.215 122.871C228.543 122.953 228.677 123.185 228.641 123.538C228.608 123.87 228.524 124.172 228.226 124.385C227.99 124.554 227.774 124.753 227.558 124.948C227.524 124.979 227.518 125.074 227.537 125.125C227.556 125.175 227.618 125.226 227.672 125.243C227.729 125.261 227.798 125.236 227.863 125.237C228.166 125.241 228.371 125.412 228.477 125.752C228.429 125.72 228.386 125.679 228.334 125.66C228.262 125.634 228.22 125.668 228.231 125.737C228.233 125.751 228.277 125.771 228.3 125.767C228.355 125.761 228.41 125.742 228.465 125.729L228.464 125.736ZM215.945 132.674C215.921 132.688 215.876 132.703 215.876 132.717C215.876 132.767 215.892 132.818 215.901 132.869C215.925 132.855 215.971 132.841 215.971 132.827C215.97 132.776 215.954 132.725 215.944 132.672L215.945 132.674Z" fill="#8DC0FF"/>
<path d="M198.039 149.617C198.141 148.997 198.323 148.206 198.594 147.434C198.712 147.098 198.777 146.741 198.841 146.391C199.179 144.565 199.506 142.736 199.841 140.91C199.918 140.494 200.006 140.084 200.187 139.694C200.309 139.433 200.358 139.137 200.422 138.852C200.53 138.381 200.557 137.897 200.852 137.469C200.988 137.27 200.999 136.972 201.029 136.715C201.113 135.979 201.429 135.354 201.922 134.818C202.265 134.444 202.505 134.021 202.533 133.519C202.561 133.011 202.859 132.609 202.99 132.142C203.23 131.282 203.221 130.407 203.228 129.527C203.235 128.527 203.214 127.522 203.531 126.551C203.56 126.461 203.583 126.352 203.56 126.265C203.415 125.734 203.593 125.23 203.671 124.719C203.763 124.11 203.821 123.508 203.829 122.884C203.841 122.02 203.956 121.134 204.361 120.327C204.476 120.098 204.534 119.838 204.592 119.586C204.658 119.3 204.724 119.022 204.87 118.758C204.978 118.563 205.038 118.337 205.087 118.117C205.18 117.705 205.216 117.279 205.472 116.919C205.527 116.842 205.555 116.74 205.572 116.645C205.856 115.087 206.653 113.738 207.357 112.357C207.519 112.039 207.635 111.704 207.791 111.386C208.363 110.214 209.307 109.372 210.223 108.498C210.963 107.792 211.787 108.128 212.413 108.624C212.563 108.743 212.54 108.93 212.426 109.062C212.17 109.356 211.897 109.636 211.625 109.914C211.42 110.123 211.183 110.304 210.998 110.529C210.442 111.206 209.961 111.889 209.817 112.822C209.673 113.751 209.598 114.689 209.427 115.614C208.912 118.402 208.418 121.193 207.914 123.983C207.839 124.399 207.738 124.811 207.839 125.24C207.867 125.363 207.848 125.501 207.826 125.627C207.627 126.75 207.477 127.886 207.2 128.989C206.98 129.862 206.627 130.706 206.284 131.542C206.14 131.892 205.914 132.228 205.463 132.301C205.312 132.325 205.172 132.439 205.036 132.525C204.924 132.597 204.829 132.706 204.855 132.846C204.912 133.153 204.825 133.418 204.681 133.685C204.624 133.789 204.576 133.971 204.627 134.05C204.854 134.401 204.763 134.814 204.886 135.174C205.251 136.238 204.819 137.222 204.631 138.23C204.317 138.638 204.303 139.139 204.199 139.614C204.027 140.402 204.019 141.232 203.573 141.952C203.476 142.107 203.481 142.329 203.445 142.52C203.344 143.064 203.259 143.606 202.988 144.107C202.852 144.356 202.82 144.665 202.765 144.952C202.608 145.784 202.468 146.62 202.311 147.452C202.172 148.185 202.037 148.91 201.741 149.615C201.493 150.204 201.428 150.874 201.201 151.487C200.92 152.247 200.66 153.016 200.382 153.775C200.083 154.592 199.619 155.349 199.22 156.13C199.202 156.166 199.105 156.192 199.064 156.176C199.022 156.159 198.974 156.078 198.982 156.033C199.102 155.364 198.985 154.661 199.27 154.016C199.283 153.986 199.287 153.952 199.288 153.92C199.264 152.511 199.664 151.155 199.802 149.765C199.815 149.639 199.801 149.507 199.776 149.382C199.767 149.338 199.689 149.282 199.64 149.279C199.594 149.276 199.515 149.323 199.497 149.367C199.45 149.486 199.419 149.615 199.394 149.742C199.326 150.094 199.278 150.45 199.2 150.8C199.038 151.522 199.05 152.287 198.61 152.941C198.492 153.117 198.517 153.384 198.454 153.602C198.419 153.722 198.345 153.836 198.269 153.937C198.239 153.977 198.149 153.996 198.094 153.985C198.044 153.976 197.969 153.913 197.969 153.872C197.967 153.744 197.994 153.614 198.012 153.485C198.039 153.287 198.059 153.097 197.793 153.033C197.753 153.024 197.696 152.921 197.708 152.881C197.896 152.307 197.65 151.721 197.764 151.146C197.852 150.698 197.927 150.248 198.041 149.615L198.039 149.617Z" fill="#8DC0FF"/>
<path d="M241.4 146.567C242.099 145.81 242.675 145.101 243.339 144.487C244.227 143.665 244.987 142.737 245.752 141.808C246.151 141.323 246.622 140.932 247.164 140.623C247.422 140.475 247.692 140.389 248.002 140.421C248.682 140.49 249.366 140.524 250.045 140.596C250.463 140.641 250.893 140.666 251.257 140.923C251.31 140.959 251.375 141.014 251.43 141.01C252.418 140.919 253.137 141.763 254.093 141.777C254.74 142.077 255.381 142.387 256.034 142.675C257.029 143.115 257.838 143.829 258.681 144.482C259.447 145.075 259.816 145.889 259.579 146.896C259.474 147.337 259.397 147.777 259.197 148.201C258.936 148.755 258.835 149.371 258.605 149.95C257.926 151.657 256.865 153.068 255.43 154.18C254.902 154.588 254.322 154.968 253.643 155.148C252.975 155.325 252.298 155.367 251.626 155.289C250.85 155.201 250.064 155.098 249.32 154.874C247.515 154.329 245.768 153.648 244.36 152.314C243.937 151.914 243.478 151.55 243.021 151.188C242.786 151 242.584 151.07 242.508 151.362C242.434 151.643 242.382 151.935 242.358 152.225C242.337 152.479 242.417 152.749 242.13 152.916C242.085 152.943 242.037 153.034 242.049 153.081C242.191 153.65 242.063 154.253 242.284 154.813C242.811 156.149 243.448 157.432 244.287 158.597C244.942 159.507 245.834 160.174 246.812 160.707C248.075 161.395 249.422 161.901 250.816 162.221C252.236 162.548 253.681 162.713 255.121 162.22C255.641 162.042 256.206 161.996 256.73 161.826C258.47 161.256 260.137 160.544 261.554 159.339C261.872 159.068 262.245 158.862 262.591 158.623C262.67 158.569 262.754 158.515 262.819 158.444C263.641 157.525 264.467 156.609 265.277 155.68C265.533 155.387 265.738 155.052 265.98 154.746C266.121 154.569 266.272 154.394 266.493 154.305C266.646 154.243 266.804 154.182 266.947 154.308C267.102 154.444 267.186 154.619 267.132 154.83C267.108 154.923 267.07 155.02 267.013 155.098C266.612 155.648 266.22 156.204 265.797 156.736C265.03 157.703 264.201 158.61 263.278 159.438C262.764 159.9 262.217 160.294 261.623 160.632C261.312 160.809 260.972 160.949 260.692 161.167C259.957 161.738 259.122 162.071 258.244 162.346C257.252 162.656 256.282 163.052 255.246 163.192C253.835 163.383 252.419 163.592 250.998 163.232C250.684 163.153 250.36 163.087 250.037 163.062C249.081 162.984 248.204 162.621 247.343 162.258C246.924 162.082 246.471 162.007 246.073 161.781C244.81 161.065 243.707 160.17 242.957 158.907C242.511 158.155 242.117 157.373 241.695 156.608C241.24 155.782 240.823 154.945 240.529 154.041C240.237 153.145 240.017 152.251 239.894 151.309C239.755 150.23 239.808 149.171 239.899 148.104C239.919 147.856 239.868 147.653 239.716 147.471C239.441 147.141 239.264 146.757 239.106 146.363C238.972 146.025 239.061 145.814 239.39 145.651C239.834 145.429 240.581 145.597 240.966 146.014C241.095 146.155 241.201 146.315 241.399 146.57L241.4 146.567ZM250.224 141.733C249.871 141.614 249.464 141.692 249.023 141.911C248.317 142.263 247.742 142.786 247.106 143.227C246.773 143.457 246.542 143.866 246.04 143.839C245.848 143.829 245.707 144.015 245.573 144.165C244.56 145.31 243.523 146.433 242.584 147.642C242.424 147.847 242.456 148.021 242.536 148.265C242.738 148.881 243.183 149.292 243.604 149.739C245.137 151.372 246.923 152.627 249.006 153.477C249.653 153.741 250.286 153.862 250.975 153.932C251.704 154.005 252.375 153.953 253.076 153.757C253.963 153.508 254.694 153.008 255.25 152.343C256.037 151.402 256.777 150.416 257.244 149.24C257.554 148.459 257.778 147.649 258.125 146.884C258.212 146.692 258.19 146.511 258.075 146.331C257.825 145.942 257.522 145.603 257.147 145.338C256.88 145.149 256.618 144.968 256.441 144.678C256.361 144.548 256.217 144.444 256.081 144.361C255.583 144.054 255.082 143.751 254.57 143.467C253.543 142.898 252.42 142.551 251.349 142.081C251.017 141.935 250.677 141.841 250.225 141.731L250.224 141.733Z" fill="#8DC0FF"/>
<path d="M216.886 101.25C216.84 101.402 216.836 101.475 216.801 101.525C216.657 101.73 216.611 101.931 216.766 102.152C216.922 102.377 217.112 102.524 217.4 102.553C217.624 102.576 217.848 102.634 218.063 102.702C218.419 102.816 218.695 103.032 218.831 103.396C218.881 103.531 218.854 103.647 218.739 103.74C218.529 103.91 218.278 103.979 218.02 104.021C217.764 104.064 217.507 104.113 217.25 104.12C216.965 104.126 216.741 104.206 216.602 104.467C216.464 104.725 216.256 104.836 215.959 104.803C215.833 104.789 215.673 104.771 215.578 104.831C215.251 105.042 214.941 105.14 214.606 104.862C214.585 104.845 214.544 104.844 214.514 104.848C214.263 104.883 214.005 105.027 213.773 104.808C213.527 104.576 213.396 104.282 213.347 103.949C213.337 103.885 213.316 103.822 213.298 103.76C213.246 103.588 213.151 103.485 212.947 103.508C212.789 103.525 212.625 103.516 212.466 103.504C211.884 103.457 211.387 103.298 211.184 102.656C211.069 102.289 210.72 102.134 210.42 101.938C210.179 101.781 209.964 101.61 209.88 101.29C209.719 100.685 209.849 100.513 210.483 100.613C210.966 100.689 211.446 100.78 211.928 100.867C212.23 100.921 212.512 100.915 212.74 100.667C212.784 100.62 212.838 100.557 212.893 100.549C213.889 100.422 214.045 99.5394 214.396 98.8524C214.587 98.4788 214.663 98.0496 214.816 97.655C214.949 97.3093 215.488 97.0258 215.854 97.095C215.941 97.1106 216.043 97.1771 216.089 97.2499C216.415 97.7657 216.792 98.2525 216.77 98.9233C216.758 99.2755 216.794 99.6342 216.908 99.9829C217.055 100.434 216.715 100.879 216.887 101.247L216.886 101.25Z" fill="#8DC0FF"/>
<path d="M15.3641 99.5965C15.3468 99.5913 15.3295 99.586 15.3134 99.5799C15.3309 99.6314 15.342 99.6237 15.3497 99.5574C15.3517 99.5578 15.3651 99.5967 15.3651 99.5967L15.3641 99.5965Z" fill="#8DC0FF"/>
<path d="M112.909 109.264L112.946 109.263L112.934 109.242L112.909 109.264Z" fill="#8DC0FF"/>
<path d="M282.704 202.646C282.581 201.624 282.338 200.921 282.534 200.175C282.588 199.971 282.51 199.72 282.452 199.501C282.208 198.573 281.938 197.651 281.701 196.721C281.575 196.226 281.358 195.804 281.018 195.414C280.15 194.418 279.542 193.271 279.303 191.966C279.22 191.505 278.894 191.124 278.899 190.673C278.905 190.249 278.928 189.833 278.855 189.413C278.662 188.315 278.497 187.213 278.285 186.12C278.188 185.616 278.197 185.143 278.356 184.654C278.576 183.968 278.438 183.209 278.749 182.535C278.764 182.503 278.76 182.457 278.751 182.421C278.46 181.26 278.537 180.071 278.471 178.892C278.447 178.48 278.308 178.059 278.149 177.672C277.574 176.264 277.514 174.752 277.221 173.288C277.396 172.693 277.078 172.18 276.959 171.632C276.824 171.003 276.665 170.389 276.786 169.706C276.892 169.113 276.744 168.472 276.466 167.917C276.308 167.604 276.208 167.28 276.101 166.954C275.946 166.486 276.061 166.116 276.475 165.933C276.789 165.794 277.132 165.724 277.459 165.617C277.619 165.564 277.707 165.445 277.708 165.274C277.71 165.159 277.683 165.042 277.696 164.929C277.755 164.436 277.95 164.202 278.41 164.202C279.433 164.199 280.462 164.186 281.48 164.28C282.164 164.343 282.828 164.62 283.41 164.992C284.223 165.513 285.071 165.901 286.028 166.077C287.14 166.282 288.121 166.804 289.03 167.464C289.371 167.711 289.707 167.967 290.039 168.226C290.191 168.343 290.359 168.453 290.468 168.605C291.136 169.536 291.802 170.468 292.44 171.419C292.583 171.632 292.634 171.917 292.688 172.175C292.789 172.664 292.865 173.157 292.941 173.65C292.995 173.994 292.99 174.333 292.902 174.678C292.723 175.383 292.571 176.095 292.405 176.804C292.351 177.028 292.329 177.275 292.217 177.466C291.485 178.717 291.392 180.155 291.011 181.507C290.97 181.653 291.005 181.844 290.923 181.952C290.384 182.672 290.171 183.527 289.865 184.349C289.607 185.043 289.073 185.552 288.567 186.075C288.361 186.288 288.095 186.344 287.832 186.359C286.93 186.412 286.176 186.957 285.302 187.098C285.057 187.137 284.924 187.353 284.798 187.544C284.497 188 284.183 188.419 283.577 188.497C283.412 188.519 283.331 188.738 283.425 188.862C283.814 189.368 283.791 190.024 284.101 190.564C284.33 190.965 284.351 191.433 284.228 191.907C284.134 192.276 284.116 192.664 284.073 193.046C283.955 194.096 284.076 195.094 284.634 196.028C285.1 196.81 285.506 197.63 285.941 198.43C286.207 198.919 286.296 199.446 286.228 199.99C286.139 200.69 286.27 201.359 286.38 202.044C286.606 203.452 286.961 204.821 287.389 206.178C287.559 206.716 287.708 207.263 287.617 207.869C287.553 208.292 287.632 208.734 287.925 209.153C288.319 209.719 288.408 210.427 288.508 211.112C288.606 211.792 288.71 212.448 289.221 213.012C289.565 213.392 289.8 213.935 289.913 214.444C290.092 215.245 290.53 215.92 290.847 216.649C291.048 217.113 291.205 217.576 291.305 218.062C291.412 218.587 291.443 219.126 291.745 219.601C291.838 219.749 291.833 219.967 291.847 220.156C291.867 220.424 291.823 220.701 291.879 220.96C291.962 221.338 292.097 221.704 291.885 222.076C291.697 222.408 292.108 222.856 291.674 223.141C291.651 223.156 291.649 223.211 291.646 223.249C291.631 223.509 291.723 223.868 291.399 223.942C291.02 224.028 290.773 223.733 290.62 223.412C290.338 222.825 290.017 222.248 289.816 221.633C289.208 219.778 288.455 217.979 287.714 216.178C287.308 215.19 286.79 214.247 286.381 213.254C286.175 212.751 286.023 212.244 285.917 211.716C285.766 210.964 285.623 210.209 285.465 209.459C285.426 209.275 285.353 209.096 285.273 208.926C284.722 207.748 284.138 206.586 283.621 205.395C283.194 204.417 282.737 203.439 282.704 202.647L282.704 202.646ZM287.316 184.308C286.786 184.602 286.491 185.038 286.4 185.665C286.303 185.628 286.21 185.595 286.262 185.765C286.3 185.725 286.339 185.685 286.377 185.644C287.277 185.272 287.38 185.115 287.28 184.286L287.31 184.271L287.317 184.31L287.316 184.308ZM288.816 174.677C288.678 173.779 288.481 173.231 288.112 172.926C287.824 172.686 287.566 172.283 287.185 172.307C286.738 172.335 286.695 172.823 286.563 173.177C286.524 173.285 286.417 173.379 286.294 173.34C286.194 173.31 286.071 173.237 286.032 173.149C285.84 172.727 285.796 172.283 285.786 171.815C285.773 171.232 285.571 170.664 285.051 170.345C284.137 169.786 283.189 169.279 282.244 168.771C281.942 168.61 281.609 168.499 281.282 168.397C280.893 168.275 280.743 168.321 280.538 168.717C280.372 169.039 280.204 169.316 279.839 169.423C279.373 169.56 279.278 169.909 279.347 170.327C279.481 171.119 279.502 171.917 279.552 172.715C279.627 173.889 279.854 175.044 279.907 176.233C279.969 177.638 280.336 179.033 280.616 180.424C280.781 181.243 281.216 182.006 281.11 182.883C281.097 182.991 281.124 183.125 281.181 183.217C281.531 183.778 281.626 184.434 281.875 185.031C281.992 185.309 282.167 185.571 282.347 185.816C282.686 186.277 282.968 186.322 283.408 185.995C283.747 185.744 284.051 185.444 284.406 185.221C284.903 184.909 285.304 184.514 285.65 184.047C285.969 183.617 286.315 183.204 286.63 182.769C286.836 182.484 287.211 182.405 287.39 182.084C287.924 181.126 288.706 180.292 288.708 179.085C288.709 178.719 288.893 178.349 289.016 177.99C289.092 177.769 289.176 177.557 289.12 177.322C288.907 176.423 288.824 175.51 288.815 174.676L288.816 174.677Z" fill="#8DC0FF"/>
<path d="M326.627 182.023C326.832 181.766 326.723 181.581 326.693 181.403C326.478 180.153 326.286 178.9 326.029 177.659C325.907 177.069 326.102 176.521 326.095 175.951C326.509 175.454 326.293 174.98 326.103 174.458C325.922 173.959 325.875 173.41 325.781 172.88C325.595 171.821 325.416 170.759 325.24 169.699C325.196 169.438 325.145 169.184 325.274 168.914C325.614 168.197 326.083 167.946 326.841 168.163C327.282 168.291 327.745 168.435 327.897 168.947C328.017 169.345 328.3 169.477 328.669 169.519C328.992 169.556 329.232 169.734 329.454 169.961C329.721 170.235 329.809 170.525 329.687 170.903C329.499 171.487 329.331 172.078 329.181 172.673C329.039 173.234 328.998 173.805 329.055 174.386C329.157 175.456 329.173 176.532 329.411 177.589C329.468 177.843 329.428 178.123 329.417 178.39C329.4 178.773 329.355 179.155 329.344 179.538C329.302 180.973 329.427 181.297 330.436 182.394C330.698 182.679 330.89 182.995 331.047 183.352C331.355 184.053 331.721 184.73 332.051 185.422C332.163 185.654 332.319 185.761 332.579 185.785C333.792 185.9 334.996 186.078 336.222 185.829C336.774 185.718 337.364 185.763 337.936 185.771C338.7 185.783 339.462 185.843 340.227 185.856C340.924 185.867 341.48 186.171 341.967 186.633C342.1 186.759 342.056 186.912 341.935 187.036C341.882 187.09 341.82 187.165 341.756 187.173C340.8 187.291 339.964 187.809 339.003 187.946C337.14 188.213 335.29 188.568 333.435 188.889C333.207 188.927 332.981 188.968 332.755 189.018C332.493 189.076 332.351 189.248 332.396 189.513C332.493 190.08 332.542 190.669 332.741 191.201C332.999 191.891 333.159 192.592 333.291 193.309C333.374 193.758 333.382 194.229 333.633 194.639C333.69 194.732 333.752 194.863 333.728 194.957C333.547 195.703 333.87 196.396 333.934 197.115C333.981 197.643 334.212 198.155 334.008 198.703C333.966 198.817 334.058 198.998 334.122 199.131C334.191 199.271 334.271 199.399 334.205 199.558C333.892 200.318 334.089 201.088 334.252 201.821C334.369 202.353 334.433 202.871 334.461 203.407C334.49 203.972 334.431 204.566 334.929 205.009C335.073 205.137 335.1 205.377 335.034 205.554C334.79 206.225 335.18 206.758 335.454 207.272C335.739 207.808 336.159 208.264 336.229 208.911C336.247 209.075 336.421 209.234 336.546 209.374C336.903 209.77 337.25 210.181 337.644 210.539C337.939 210.806 338.184 211.064 338.264 211.471C338.307 211.689 338.408 211.912 338.537 212.095C339.137 212.949 339.459 213.943 339.949 214.851C340.103 215.135 340.109 215.434 340.156 215.735C340.171 215.829 340.274 215.93 340.363 215.99C340.524 216.097 340.675 215.993 340.759 215.873C341.132 215.348 341.491 214.812 341.848 214.275C342.251 213.669 342.615 213.033 343.059 212.459C343.489 211.906 343.746 211.905 344.329 212.297C344.489 212.404 344.644 212.518 344.794 212.638C345 212.802 345.075 213.041 344.954 213.255C344.422 214.191 344.25 215.27 343.699 216.208C343.217 217.028 342.812 217.918 342.549 218.828C342.358 219.489 341.952 219.985 341.626 220.535C341.388 220.935 340.83 220.938 340.395 221.002C340.054 221.051 339.72 220.882 339.518 220.553C339.398 220.358 339.273 220.165 339.157 219.966C338.305 218.512 337.409 217.081 336.616 215.596C335.753 213.979 334.836 212.381 334.168 210.669C333.862 209.886 333.709 209.038 333.79 208.186C333.831 207.748 333.794 207.35 333.589 206.962C333.314 206.441 333.244 205.863 333.197 205.29C333.158 204.816 332.976 204.402 332.763 203.992C332.669 203.811 332.544 203.658 332.335 203.656C331.915 203.652 331.745 203.396 331.606 203.047C331.238 202.126 330.835 201.221 330.597 200.25C330.223 198.722 329.814 197.202 329.399 195.684C328.935 193.982 328.622 192.238 327.967 190.589C327.712 189.947 327.278 189.613 326.672 189.806C325.346 190.228 323.95 190.153 322.61 190.455C322.312 190.522 322.009 190.572 321.697 190.503C321.551 190.471 321.381 190.456 321.243 190.5C320.203 190.825 319.133 190.782 318.066 190.784C317.876 190.784 317.671 190.777 317.496 190.84C316.824 191.084 316.402 190.674 315.974 190.286C315.741 190.076 315.589 189.423 315.735 189.228C315.965 188.922 316.209 188.629 316.666 188.65C317.808 188.705 318.955 188.703 320.094 188.696C321.812 188.686 323.532 188.722 325.25 188.68C325.366 188.677 325.488 188.709 325.595 188.679C327.126 188.257 327.179 188.614 326.78 186.956C326.522 185.88 326.1 184.848 325.972 183.735C325.934 183.407 325.704 183.104 325.597 182.778C325.49 182.451 325.407 182.114 325.448 181.76C325.477 181.513 325.753 181.361 325.958 181.501C326.178 181.652 326.377 181.832 326.62 182.029L326.627 182.023Z" fill="#8DC0FF"/>
<path d="M302.394 173.719C302.469 174.36 302.592 175.197 302.659 176.039C302.724 176.853 302.943 177.648 303.247 178.371C303.569 179.134 303.681 179.915 303.85 180.697C304.002 181.402 303.956 182.165 304.458 182.766C304.693 183.966 305.29 185.073 305.367 186.316C305.401 186.858 305.548 187.381 305.876 187.825C306.209 188.275 306.327 188.786 306.403 189.322C306.483 189.891 306.551 190.462 306.856 190.978C306.97 191.169 307.008 191.411 307.053 191.636C307.195 192.348 307.249 193.078 307.639 193.729C307.769 193.948 307.764 194.247 307.813 194.512C307.918 195.076 307.978 195.647 308.293 196.16C308.426 196.378 308.448 196.67 308.5 196.933C308.605 197.459 308.674 197.984 308.958 198.467C309.105 198.717 309.135 199.054 309.156 199.356C309.193 199.866 309.309 200.359 309.579 200.776C310.285 201.859 310.636 203.052 310.842 204.31C311.015 205.367 311.108 206.445 311.588 207.434C311.717 207.702 311.726 208.03 311.783 208.332C311.91 209.008 312.026 209.674 312.316 210.321C312.562 210.866 312.582 211.514 312.696 212.118C312.803 212.683 312.872 213.25 313.178 213.766C313.328 214.018 313.351 214.349 313.412 214.649C313.482 214.989 313.53 215.335 313.723 215.631C313.874 215.865 313.941 216.121 313.983 216.388C314.044 216.769 314.123 217.143 314.337 217.477C314.398 217.572 314.457 217.682 314.473 217.792C314.715 219.465 315.461 221.023 315.589 222.722C315.606 222.95 315.631 223.177 315.629 223.404C315.626 223.576 315.323 223.696 315.173 223.588C315.084 223.525 314.957 223.446 314.941 223.357C314.85 222.859 314.522 222.446 314.409 221.98C314.192 221.082 313.813 220.255 313.48 219.407C313.369 219.123 313.318 218.815 313.257 218.515C313.188 218.177 313.139 217.836 312.948 217.532C312.868 217.404 312.788 217.254 312.778 217.109C312.709 216.136 312.266 215.262 311.978 214.36C311.713 213.529 311.58 212.643 311.152 211.863C311.097 211.763 311.046 211.649 311.037 211.539C310.959 210.527 310.348 209.669 310.219 208.672C310.214 208.635 310.208 208.593 310.19 208.561C309.349 207.087 309.011 205.41 308.292 203.887C308.276 203.852 308.259 203.818 308.239 203.785C308.126 203.606 307.984 203.506 307.766 203.609C307.286 203.838 306.807 204.068 306.326 204.294C304.836 204.996 303.343 205.692 301.855 206.398C301.279 206.671 301.213 206.774 301.377 207.361C301.634 208.282 301.933 209.192 302.218 210.105C302.311 210.399 302.463 210.679 302.507 210.978C302.688 212.204 303.164 213.336 303.586 214.486C303.652 214.666 303.723 214.852 303.74 215.04C303.827 215.934 304.263 216.717 304.545 217.548C304.681 217.947 304.841 218.332 304.909 218.75C304.965 219.091 305.008 219.432 305.232 219.723C305.321 219.84 305.378 219.995 305.408 220.142C305.698 221.575 306.353 222.876 306.862 224.231C307.079 224.811 307.171 225.418 307.2 226.032C307.204 226.118 307.106 226.251 307.02 226.293C306.444 226.579 305.851 226.474 305.457 226.005C305.286 225.801 305.136 225.569 305.025 225.328C304.678 224.563 304.357 223.786 304.019 223.017C303.296 221.374 302.727 219.671 302.063 218.007C301.61 216.867 301.327 215.685 300.961 214.524C300.718 213.758 300.47 212.996 300.24 212.225C299.867 210.971 299.573 209.701 299.294 208.428C299.162 207.828 299.144 207.19 298.479 206.878C298.223 206.251 297.707 205.705 297.785 204.972C297.843 204.416 297.701 203.907 297.573 203.387C297.453 202.902 297.351 202.414 297.231 201.929C297.121 201.482 297.038 201.023 296.871 200.597C296.684 200.119 296.589 199.634 296.611 199.134C296.645 198.35 296.506 197.601 296.219 196.88C296.004 196.341 295.863 195.787 295.778 195.214C295.709 194.757 295.625 194.303 295.375 193.9C295.335 193.836 295.291 193.762 295.283 193.69C295.109 192.198 294.382 190.837 294.248 189.335C294.228 189.108 294.179 188.869 294.225 188.652C294.273 188.429 294.454 188.195 294.71 188.264C295.219 188.397 295.7 188.287 296.19 188.2C296.424 188.159 296.641 188.187 296.865 188.271C297.305 188.437 297.44 188.583 297.353 189.043C297.175 189.992 297.201 190.954 297.133 191.91C297.108 192.262 297.138 192.596 297.221 192.936C297.332 193.383 297.424 193.835 297.51 194.286C297.72 195.386 298.053 196.431 298.77 197.322C299.085 197.713 299.299 198.15 299.348 198.671C299.397 199.168 299.508 199.657 299.592 200.15C299.624 200.339 299.613 200.554 299.701 200.714C300.192 201.614 300.244 202.623 300.447 203.594C300.546 204.067 300.727 204.187 301.176 204.026C302.402 203.587 303.694 203.352 304.882 202.781C305.355 202.554 305.92 202.521 306.437 202.379C306.878 202.259 307.011 202.091 306.969 201.629C306.803 199.792 306.56 197.965 306.192 196.155C305.562 195.027 305.681 193.677 305.113 192.526C304.981 192.258 304.963 191.932 304.909 191.629C304.822 191.137 304.749 190.643 304.51 190.192C304.44 190.058 304.41 189.901 304.373 189.753C304.046 188.453 303.722 187.151 303.399 185.85C303.371 185.737 303.372 185.614 303.322 185.514C302.759 184.392 302.679 183.151 302.441 181.949C302.383 181.647 302.342 181.333 302.225 181.055C301.835 180.12 301.689 179.133 301.521 178.148C301.13 175.837 300.738 173.524 300.343 171.213C300.272 170.795 300.193 170.386 300.399 169.975C300.546 169.679 300.738 169.553 301.133 169.56C301.442 169.566 301.643 169.72 301.729 170.005C301.795 170.224 301.834 170.453 301.874 170.681C302.037 171.628 302.196 172.576 302.39 173.721L302.394 173.719Z" fill="#8DC0FF"/>
<path d="M364.368 214.839C364.718 215.039 364.94 214.78 365.2 214.64C365.329 214.569 365.547 214.73 365.505 214.862C365.215 215.774 364.974 216.706 364.435 217.52C364.078 218.058 363.533 218.331 362.98 218.595C362.887 218.639 362.76 218.636 362.654 218.622C361.723 218.496 360.825 218.301 360.327 217.374C360.158 217.058 359.941 217.004 359.58 217.037C359.308 217.061 358.978 216.888 358.739 216.713C358.121 216.257 357.381 215.999 356.812 215.465C356.584 215.25 356.357 215.285 356.285 215.577C356.09 216.368 355.328 216.186 354.847 216.476C354.786 216.513 354.629 216.431 354.538 216.371C353.945 215.987 353.488 215.473 353.183 214.836C353.017 214.492 352.87 214.139 352.748 213.777C352.382 212.695 352.029 211.607 351.68 210.519C351.586 210.224 351.573 209.92 351.661 209.611C351.748 209.305 351.716 208.991 351.591 208.707C351.216 207.854 351.151 206.922 350.894 206.038C350.821 205.785 350.76 205.496 350.809 205.245C351.052 203.973 350.972 202.645 351.464 201.418C351.59 201.104 351.504 200.859 351.38 200.554C351.073 199.8 351.189 199.057 351.703 198.409C352.132 197.869 352.679 197.432 353.047 196.837C353.171 196.635 353.423 196.475 353.626 196.516C354.106 196.611 354.306 196.323 354.569 196.028C355.267 195.247 356.158 194.669 357.063 194.208C357.935 193.763 358.945 193.637 359.974 193.932C360.59 194.109 361.191 194.382 361.859 194.388C362.352 194.393 362.658 194.81 363.052 195.035C363.424 195.247 363.9 195.002 364.27 195.29C364.48 195.455 364.714 195.585 364.84 195.842C365.157 196.489 365.43 197.12 365.473 197.88C365.542 199.102 365.522 200.336 365.769 201.545C365.861 201.999 365.873 202.445 365.773 202.911C365.621 203.622 365.529 204.346 365.43 205.066C365.327 205.817 365.199 206.572 365.17 207.327C365.151 207.853 365.194 208.414 365.696 208.784C365.858 208.903 365.911 209.093 365.967 209.279C366.503 211.088 366.024 212.671 364.884 214.102C364.697 214.339 364.447 214.529 364.369 214.84L364.368 214.839ZM358.824 210.627C359.172 210.462 359.354 210.257 359.487 210.027C360.24 208.72 361.604 208.202 362.784 207.447C363.637 207.319 363.61 206.968 363.602 206.329C363.594 205.634 363.581 204.945 363.128 204.356C362.951 204.127 362.959 203.879 362.999 203.595C363.094 202.935 363.046 202.296 362.497 201.803C362.414 201.728 362.312 201.623 362.303 201.526C362.234 200.711 361.689 200.054 361.584 199.243C361.49 198.507 361.165 197.879 360.386 197.6C360.217 197.54 360.071 197.391 359.939 197.259C359.823 197.142 359.718 197.059 359.545 197.107C359.139 197.221 358.689 197.253 358.339 197.46C357.941 197.693 357.637 197.659 357.278 197.448C356.924 197.242 356.637 197.377 356.347 197.633C355.716 198.194 355.055 198.721 354.416 199.272C354.039 199.598 353.661 199.926 353.318 200.287C353.026 200.594 352.723 200.971 352.827 201.407C352.956 201.954 352.861 202.477 352.819 203.006C352.69 204.671 352.828 206.285 353.558 207.818C353.705 208.127 353.914 208.398 353.997 208.749C354.245 209.79 354.905 210.584 355.629 211.33C355.859 211.566 356.049 211.557 356.323 211.305C356.719 210.943 357.096 210.56 357.505 210.212C358.049 209.75 358.191 209.788 358.658 210.44C358.701 210.499 358.755 210.551 358.822 210.628L358.824 210.627ZM360.092 213.839C361.249 213.847 362.045 213.016 362.844 212.257C363.332 211.793 363.269 211.061 363.416 210.437C363.425 210.4 363.431 210.363 363.435 210.323C363.448 210.122 363.235 209.967 363.048 210.056C362.245 210.438 361.541 210.968 360.873 211.544C360.429 211.926 359.944 212.216 359.377 212.364C359.193 212.412 358.991 212.436 358.833 212.529C358.718 212.599 358.607 212.757 358.586 212.891C358.474 213.577 358.878 213.995 359.559 213.927C359.711 213.911 359.861 213.877 360.093 213.837L360.092 213.839Z" fill="#8DC0FF"/>
<path d="M324.497 217.364C324.181 217.478 323.998 217.534 323.824 217.61C323.292 217.839 322.795 217.778 322.316 217.458C321.58 216.963 320.982 216.376 320.475 215.614C319.715 214.469 318.917 213.348 318.202 212.173C317.886 211.654 317.566 211.144 317.521 210.486C317.494 210.089 317.281 209.679 317.067 209.326C316.695 208.713 316.609 208.033 316.486 207.357C316.418 206.978 316.366 206.605 316.16 206.263C315.893 205.822 315.874 205.308 315.815 204.816C315.724 204.052 315.598 203.297 315.418 202.55C315.346 202.253 315.257 201.974 315.127 201.689C314.547 200.432 314.59 199.222 315.654 198.221C316.043 197.855 316.123 197.444 316.097 196.978C316.048 196.121 316.334 195.399 316.893 194.763C317.346 194.247 317.855 193.905 318.594 194.035C318.85 194.08 319.129 194.037 319.393 194C320.148 193.892 320.888 193.784 321.669 193.841C322.195 193.879 322.55 194.039 322.845 194.407C323.487 195.211 324.131 196.021 324.456 197.017C324.65 197.612 324.947 198.134 325.384 198.578C325.856 199.058 326.109 199.656 326.3 200.284C326.455 200.797 326.492 201.338 326.726 201.835C326.86 202.12 326.732 202.439 326.69 202.739C326.672 202.869 326.53 202.922 326.424 202.854C326.172 202.693 326.018 202.689 325.965 203.035C325.937 203.224 325.884 203.397 325.942 203.596C326.108 204.174 326.02 204.775 325.75 205.26C325.369 205.944 325.343 206.662 325.384 207.372C325.425 208.077 325.287 208.746 325.182 209.423C325.083 210.052 324.647 210.53 324.237 210.974C323.874 211.368 323.662 211.761 323.686 212.301C323.7 212.643 323.635 212.988 323.606 213.332C323.578 213.674 323.483 214.024 323.737 214.329C323.762 215.37 324.193 216.317 324.5 217.365L324.497 217.364ZM315.875 201.942C315.895 202.011 315.939 202.158 315.978 202.306C316.155 202.972 316.377 203.631 316.492 204.308C316.665 205.324 317.151 206.171 317.784 206.946C317.929 207.125 318.081 207.287 318.18 207.498C318.427 208.017 318.666 208.541 318.944 209.043C319.277 209.647 319.624 210.245 320.01 210.817C320.289 211.232 320.528 211.219 320.809 210.824C321.207 210.264 321.567 209.678 321.979 209.129C322.191 208.846 322.358 208.555 322.455 208.22C322.963 206.488 323.285 204.722 323.433 202.923C323.455 202.647 323.418 202.422 323.281 202.164C322.919 201.488 322.562 200.817 321.977 200.299C321.506 199.881 321.26 199.318 321.035 198.753C320.719 197.961 320.543 197.833 319.781 197.969C319.519 198.015 319.241 198.03 319.025 198.215C318.775 198.429 318.465 198.484 318.164 198.499C317.312 198.541 316.844 199.197 316.264 199.663C316.101 199.793 316.004 200.047 315.948 200.262C315.814 200.785 315.765 201.321 315.874 201.941L315.875 201.942Z" fill="#8DC0FF"/>
</svg>
