<svg width="167" height="32" viewBox="0 0 167 32" fill="none" xmlns="http://www.w3.org/2000/svg">
<path d="M2.23894 7.19267H5.24179V10.0375H2.23894V7.19267ZM2.23894 12.3818H5.24179V27.159C5.24179 28.5112 4.94326 29.556 4.3462 30.2936C3.74914 31.0311 2.74819 31.3999 1.34335 31.3999C1.04482 31.3999 0.790194 31.3911 0.579468 31.3735C0.386302 31.356 0.193136 31.3296 -2.99417e-05 31.2945V28.9238C0.193136 28.959 0.377522 28.9853 0.553127 29.0029C0.728732 29.0204 0.886777 29.0292 1.02726 29.0292C1.57164 29.0292 1.90529 28.8624 2.02821 28.5287C2.1687 28.1951 2.23894 27.6946 2.23894 27.0273V12.3818ZM20.4723 26H17.5222V24.1035H17.4695C17.1007 24.7883 16.5476 25.3415 15.81 25.7629C15.09 26.1668 14.3525 26.3688 13.5974 26.3688C11.8062 26.3688 10.5067 25.9298 9.69894 25.0517C8.90872 24.1561 8.51361 22.8128 8.51361 21.0216V12.3818H11.5165V20.7318C11.5165 21.926 11.7447 22.7689 12.2013 23.2606C12.6579 23.7523 13.2989 23.9981 14.1242 23.9981C14.7564 23.9981 15.2832 23.9015 15.7046 23.7083C16.1261 23.5152 16.4685 23.2606 16.7319 22.9445C16.9953 22.6108 17.1797 22.2157 17.2851 21.7591C17.408 21.3026 17.4695 20.8109 17.4695 20.284V12.3818H20.4723V26ZM36.467 26H33.6222V24.1561H33.5695C33.1656 24.9464 32.5773 25.5171 31.8046 25.8683C31.032 26.2019 30.2154 26.3688 29.3549 26.3688C28.2838 26.3688 27.3443 26.1844 26.5365 25.8156C25.7463 25.4293 25.0877 24.9112 24.5609 24.2615C24.0341 23.6118 23.639 22.8479 23.3756 21.9699C23.1122 21.0743 22.9805 20.1172 22.9805 19.0987C22.9805 17.8695 23.1473 16.8071 23.4809 15.9115C23.8146 15.0159 24.2536 14.2783 24.798 13.6988C25.3599 13.1193 25.9921 12.6979 26.6945 12.4345C27.4145 12.1535 28.1433 12.013 28.8808 12.013C29.3023 12.013 29.7325 12.0569 30.1715 12.1447C30.6105 12.215 31.032 12.3379 31.4359 12.5135C31.8398 12.6891 32.2085 12.9174 32.5422 13.1984C32.8934 13.4618 33.1831 13.7779 33.4114 14.1466H33.4641V7.19267H36.467V26ZM25.9833 19.3358C25.9833 19.9153 26.0536 20.486 26.194 21.0479C26.3521 21.6099 26.5804 22.1103 26.8789 22.5494C27.195 22.9884 27.5901 23.3396 28.0642 23.603C28.5384 23.8664 29.1003 23.9981 29.7501 23.9981C30.4174 23.9981 30.9881 23.8576 31.4622 23.5766C31.9539 23.2957 32.349 22.9269 32.6475 22.4703C32.9636 22.0138 33.1919 21.5045 33.3324 20.9426C33.4904 20.3631 33.5695 19.7748 33.5695 19.1777C33.5695 17.6675 33.227 16.491 32.5422 15.6481C31.8749 14.8052 30.9617 14.3837 29.8027 14.3837C29.1003 14.3837 28.5033 14.533 28.0116 14.8315C27.5374 15.1125 27.1423 15.49 26.8262 15.9642C26.5277 16.4207 26.3082 16.9475 26.1677 17.5446C26.0448 18.1241 25.9833 18.7212 25.9833 19.3358ZM52.3328 25.2888C52.3328 27.3434 51.7533 28.8711 50.5943 29.8721C49.4528 30.8906 47.8021 31.3999 45.6422 31.3999C44.9573 31.3999 44.2637 31.3296 43.5613 31.1891C42.8764 31.0487 42.2442 30.8116 41.6647 30.4779C41.1028 30.1443 40.6287 29.7053 40.2423 29.1609C39.856 28.6165 39.6277 27.9492 39.5575 27.159H42.5603C42.6481 27.5804 42.7974 27.9229 43.0081 28.1863C43.2188 28.4497 43.4647 28.6516 43.7457 28.7921C44.0442 28.9502 44.3691 29.0468 44.7203 29.0819C45.0715 29.1346 45.4403 29.1609 45.8266 29.1609C47.0383 29.1609 47.9251 28.8624 48.487 28.2653C49.0489 27.6683 49.3299 26.8078 49.3299 25.6839V23.603H49.2772C48.8558 24.3581 48.2763 24.9464 47.5387 25.3678C46.8188 25.7893 46.0373 26 45.1944 26C44.1057 26 43.1749 25.8156 42.4023 25.4468C41.6472 25.0605 41.015 24.5425 40.5057 23.8927C40.0141 23.2254 39.6541 22.4616 39.4258 21.6011C39.1975 20.7406 39.0833 19.8187 39.0833 18.8353C39.0833 17.9222 39.2238 17.0529 39.5048 16.2276C39.7858 15.4022 40.1897 14.6822 40.7165 14.0676C41.2433 13.4354 41.8842 12.935 42.6394 12.5662C43.412 12.1974 44.2813 12.013 45.2471 12.013C46.1076 12.013 46.8978 12.1974 47.6178 12.5662C48.3377 12.9174 48.8909 13.4793 49.2772 14.252H49.3299V12.3818H52.3328V25.2888ZM45.6685 23.6293C46.3358 23.6293 46.8978 23.4976 47.3544 23.2342C47.8285 22.9532 48.206 22.5933 48.487 22.1542C48.7855 21.6977 48.9963 21.1884 49.1192 20.6265C49.2597 20.047 49.3299 19.4675 49.3299 18.888C49.3299 18.3085 49.2597 17.7465 49.1192 17.2022C48.9787 16.6578 48.7592 16.1749 48.4607 15.7534C48.1797 15.332 47.8021 14.9983 47.328 14.7525C46.8714 14.5066 46.3183 14.3837 45.6685 14.3837C45.0012 14.3837 44.4393 14.5242 43.9827 14.8052C43.5262 15.0861 43.1574 15.4549 42.8764 15.9115C42.5955 16.3505 42.3935 16.8597 42.2706 17.4392C42.1477 18.0012 42.0862 18.5631 42.0862 19.1251C42.0862 19.687 42.1564 20.2401 42.2969 20.7845C42.4374 21.3113 42.6481 21.7855 42.9291 22.2069C43.2276 22.6284 43.5964 22.9708 44.0354 23.2342C44.492 23.4976 45.0364 23.6293 45.6685 23.6293ZM64.707 17.9924C64.6719 17.5183 64.5665 17.0617 64.3909 16.6227C64.2328 16.1837 64.0046 15.8061 63.706 15.49C63.4251 15.1564 63.0738 14.893 62.6524 14.6998C62.2485 14.4891 61.7919 14.3837 61.2827 14.3837C60.7559 14.3837 60.2729 14.4803 59.8339 14.6735C59.4125 14.8491 59.0437 15.1037 58.7276 15.4373C58.4291 15.7534 58.1832 16.131 57.9901 16.57C57.8145 17.009 57.7179 17.4831 57.7003 17.9924H64.707ZM57.7003 19.968C57.7003 20.4948 57.7706 21.004 57.911 21.4957C58.0691 21.9874 58.2974 22.4177 58.5959 22.7864C58.8944 23.1552 59.272 23.4537 59.7286 23.682C60.1851 23.8927 60.7295 23.9981 61.3617 23.9981C62.2397 23.9981 62.9421 23.8137 63.469 23.4449C64.0133 23.0586 64.4172 22.4879 64.6806 21.7328H67.5254C67.3674 22.4703 67.0952 23.1289 66.7089 23.7083C66.3225 24.2878 65.8572 24.7795 65.3128 25.1834C64.7684 25.5698 64.1538 25.8595 63.469 26.0527C62.8017 26.2634 62.0992 26.3688 61.3617 26.3688C60.2905 26.3688 59.3422 26.1932 58.5169 25.842C57.6915 25.4907 56.9891 24.999 56.4096 24.3669C55.8477 23.7347 55.4175 22.9796 55.1189 22.1016C54.838 21.2235 54.6975 20.2577 54.6975 19.2041C54.6975 18.2382 54.8467 17.3251 55.1453 16.4646C55.4614 15.5866 55.9004 14.8227 56.4623 14.173C57.0418 13.5057 57.7354 12.9789 58.5432 12.5925C59.351 12.2062 60.2642 12.013 61.2827 12.013C62.3539 12.013 63.3109 12.2413 64.1538 12.6979C65.0143 13.1369 65.7255 13.7252 66.2874 14.4627C66.8494 15.2003 67.2533 16.052 67.4991 17.0178C67.7625 17.9661 67.8328 18.9494 67.7098 19.968H57.7003ZM77.3238 5.29613H80.0106V31.6369H77.3238V5.29613ZM90.5732 7.19267H93.5761V17.887L99.0023 12.3818H102.69L97.4745 17.3866L103.19 26H99.5291L95.3673 19.3885L93.5761 21.127V26H90.5732V7.19267ZM104.642 12.3818H107.461V15.0159H107.513C107.601 14.6471 107.768 14.2871 108.014 13.9359C108.277 13.5847 108.584 13.2686 108.936 12.9876C109.304 12.6891 109.708 12.452 110.147 12.2764C110.586 12.1008 111.034 12.013 111.491 12.013C111.842 12.013 112.079 12.0218 112.202 12.0394C112.342 12.0569 112.483 12.0745 112.623 12.0921V14.9895C112.413 14.9544 112.193 14.9281 111.965 14.9105C111.754 14.8754 111.543 14.8578 111.333 14.8578C110.823 14.8578 110.34 14.9632 109.884 15.1739C109.445 15.3671 109.059 15.6656 108.725 16.0695C108.391 16.4558 108.128 16.9388 107.935 17.5183C107.742 18.0978 107.645 18.7651 107.645 19.5202V26H104.642V12.3818ZM125.861 26H122.911V24.1035H122.858C122.49 24.7883 121.936 25.3415 121.199 25.7629C120.479 26.1668 119.741 26.3688 118.986 26.3688C117.195 26.3688 115.896 25.9298 115.088 25.0517C114.298 24.1561 113.903 22.8128 113.903 21.0216V12.3818H116.905V20.7318C116.905 21.926 117.134 22.7689 117.59 23.2606C118.047 23.7523 118.688 23.9981 119.513 23.9981C120.145 23.9981 120.672 23.9015 121.094 23.7083C121.515 23.5152 121.857 23.2606 122.121 22.9445C122.384 22.6108 122.569 22.2157 122.674 21.7591C122.797 21.3026 122.858 20.8109 122.858 20.284V12.3818H125.861V26ZM129.028 12.3818H131.873V14.2783H131.952C132.18 13.9447 132.426 13.6374 132.689 13.3564C132.953 13.0754 133.242 12.8384 133.559 12.6452C133.892 12.452 134.27 12.3028 134.691 12.1974C135.113 12.0745 135.596 12.013 136.14 12.013C136.965 12.013 137.729 12.1974 138.432 12.5662C139.152 12.935 139.661 13.5057 139.959 14.2783C140.469 13.5759 141.057 13.0228 141.724 12.6189C142.391 12.215 143.226 12.013 144.227 12.013C145.667 12.013 146.782 12.3642 147.572 13.0667C148.38 13.7691 148.784 14.9456 148.784 16.5963V26H145.781V18.0451C145.781 17.5007 145.763 17.009 145.728 16.57C145.693 16.1134 145.588 15.7271 145.412 15.411C145.254 15.0773 145.008 14.8227 144.674 14.6471C144.341 14.4715 143.884 14.3837 143.305 14.3837C142.286 14.3837 141.549 14.6998 141.092 15.332C140.635 15.9642 140.407 16.8597 140.407 18.0187V26H137.404V17.2549C137.404 16.3066 137.229 15.5954 136.877 15.1212C136.544 14.6296 135.92 14.3837 135.007 14.3837C134.621 14.3837 134.243 14.4627 133.875 14.6208C133.523 14.7788 133.207 15.0071 132.926 15.3056C132.663 15.6042 132.443 15.9729 132.268 16.4119C132.11 16.851 132.031 17.3514 132.031 17.9134V26H129.028V12.3818ZM152.027 12.3818H154.871V14.2257H154.924C155.345 13.4354 155.934 12.8735 156.689 12.5398C157.444 12.1886 158.261 12.013 159.139 12.013C160.21 12.013 161.14 12.2062 161.931 12.5925C162.738 12.9613 163.406 13.4793 163.933 14.1466C164.459 14.7964 164.855 15.5603 165.118 16.4383C165.381 17.3163 165.513 18.2558 165.513 19.2568C165.513 20.1699 165.39 21.0567 165.144 21.9172C164.916 22.7776 164.556 23.5415 164.064 24.2088C163.59 24.8586 162.984 25.3854 162.247 25.7893C161.509 26.1756 160.64 26.3688 159.639 26.3688C159.2 26.3688 158.761 26.3249 158.322 26.2371C157.883 26.1668 157.462 26.0439 157.058 25.8683C156.654 25.6927 156.276 25.4732 155.925 25.2098C155.591 24.9288 155.31 24.6039 155.082 24.2352H155.029V31.0311H152.027V12.3818ZM162.51 19.2041C162.51 18.5895 162.431 17.9924 162.273 17.4129C162.115 16.8334 161.878 16.3241 161.562 15.8851C161.246 15.4286 160.851 15.0686 160.377 14.8052C159.902 14.5242 159.358 14.3837 158.743 14.3837C157.479 14.3837 156.522 14.8227 155.872 15.7007C155.24 16.5788 154.924 17.7465 154.924 19.2041C154.924 19.8889 155.003 20.5299 155.161 21.127C155.337 21.7064 155.591 22.2069 155.925 22.6284C156.259 23.0498 156.654 23.3835 157.11 23.6293C157.584 23.8752 158.129 23.9981 158.743 23.9981C159.428 23.9981 160.008 23.8576 160.482 23.5766C160.956 23.2957 161.342 22.9357 161.641 22.4967C161.957 22.0401 162.177 21.5308 162.299 20.9689C162.44 20.3894 162.51 19.8011 162.51 19.2041Z" fill="#8DC0FF"/>
</svg>
