<svg width="272" height="403" viewBox="0 0 272 403" fill="none" xmlns="http://www.w3.org/2000/svg">
<path d="M223.269 272.037C226.281 274.022 226.968 277.226 228.171 280.083C228.973 281.979 229.603 283.927 230.892 285.586C232.152 287.207 232.624 289.164 232.985 291.13C233.419 293.489 233.875 295.855 234.103 298.239C234.23 299.588 234.008 300.994 233.777 302.346C233.441 304.303 233.014 306.247 232.51 308.166C232.285 309.031 231.772 309.816 231.405 310.645C229.967 313.91 228.574 317.194 227.079 320.43C226.604 321.459 225.822 322.342 225.271 323.343C224.966 323.897 224.732 324.543 224.672 325.167C224.495 327.032 224.251 328.91 224.336 330.772C224.498 334.369 223.738 337.953 224.552 341.572C225.128 344.14 225.131 346.838 225.461 349.467C225.758 351.857 226.17 354.232 226.49 356.62C226.699 358.174 226.867 359.735 226.993 361.297C227.164 363.402 227.25 365.517 227.43 367.623C227.652 370.207 227.947 372.788 228.181 375.372C228.355 377.297 228.444 379.228 228.64 381.15C228.982 384.507 229.444 387.854 229.717 391.217C229.872 393.132 229.745 395.07 229.745 397.147C228.684 396.27 228.602 395.083 228.292 394.038C228.038 393.183 227.947 392.271 227.864 391.375C227.563 388.142 227.316 384.903 227.012 381.67C226.794 379.333 226.493 377.005 226.268 374.672C226.094 372.873 225.983 371.068 225.841 369.267C225.571 365.844 225.366 362.414 225.014 359.001C224.754 356.493 224.27 354.007 223.94 351.506C223.605 348.938 223.336 346.36 223.044 343.786C222.655 340.312 222.167 336.845 221.923 333.362C221.736 330.708 222.005 328.023 221.809 325.37C221.584 322.33 222.664 319.841 224.387 317.476C225.017 316.608 225.537 315.623 225.923 314.623C227.674 310.107 228.922 305.446 229.752 300.674C229.916 299.731 229.847 298.949 228.9 298.325C227.902 297.669 227.076 296.76 226.126 296.023C224.02 294.386 221.587 294.037 219.086 294.645C216.21 295.345 213.373 296.213 210.557 297.121C209.664 297.41 208.847 298.008 208.062 298.559C206.282 299.807 204.543 301.114 202.786 302.394C201.858 303.071 200.857 303.663 200.011 304.433C196.933 307.223 193.491 309.645 191.258 313.289C190.286 314.876 189.694 316.5 189.611 318.381C189.447 322.102 189.909 325.737 190.891 329.309C191.112 330.119 191.505 330.882 191.796 331.677C193.88 337.386 196.588 342.804 199.885 347.893C202.247 351.541 204.904 354.998 207.492 358.494C208.271 359.549 209.319 360.4 210.142 361.426C210.579 361.974 211 362.674 211.073 363.342C211.314 365.552 211.495 367.778 211.51 370.001C211.561 377.696 211.533 385.393 211.526 393.091C211.526 393.677 211.476 394.266 211.428 395.225C210.836 394.766 210.32 394.573 210.19 394.231C209.746 393.066 209.056 391.999 209.094 390.643C209.173 387.857 209.075 385.067 209.126 382.281C209.227 376.885 208.746 371.518 208.309 366.151C208.264 365.609 207.919 365.02 207.552 364.59C201.468 357.471 196.483 349.644 192.37 341.24C189.814 336.018 188.037 330.544 186.938 324.844C186.837 324.315 186.862 323.758 186.862 323.213C186.856 320.367 186.967 317.51 186.824 314.67C186.714 312.507 187.407 310.611 188.395 308.825C189.146 307.466 190.156 306.222 191.207 305.069C193 303.109 194.865 301.209 196.803 299.395C197.893 298.375 199.21 297.606 200.385 296.672C202.263 295.177 204.094 293.626 205.965 292.125C206.709 291.529 207.507 291.004 208.217 290.234C207.653 290.434 207.077 290.605 206.523 290.833C202.165 292.625 197.709 294.12 193.117 295.161C191.771 295.469 190.365 295.532 188.984 295.643C186.878 295.814 184.756 295.826 182.663 296.086C176.744 296.821 170.806 296.27 164.881 296.453C162.088 296.539 159.374 295.988 156.66 295.443C156.375 295.386 156.083 295.351 155.529 295.266C155.358 297.064 155.14 298.781 155.042 300.5C154.893 303.036 154.643 305.585 154.801 308.109C154.896 309.613 154.411 310.959 154.364 312.371C154.294 314.531 154.503 316.709 154.696 318.869C154.842 320.487 155.127 322.095 155.396 323.701C155.83 326.259 156.204 328.834 156.78 331.361C159.402 342.852 163.022 354.061 166.389 365.343C166.712 366.426 166.886 367.582 166.93 368.712C167.168 374.691 167.475 380.65 168.764 386.527C169.305 388.991 169.441 391.543 169.764 394.054C169.828 394.532 169.888 395.013 169.986 395.485C170.461 397.838 170.711 400.19 169.91 402.689C168.954 401.194 168.843 399.573 168.596 398.012C167.956 393.981 167.351 389.947 166.759 385.91C166.525 384.31 166.328 382.702 166.176 381.09C165.932 378.51 165.742 375.922 165.53 373.339C165.511 373.098 165.429 372.851 165.454 372.617C165.856 368.744 164.131 365.324 163.127 361.756C162.05 357.934 160.834 354.15 159.773 350.325C158.215 344.71 156.666 339.09 155.266 333.438C154.605 330.772 154.266 328.023 153.835 325.303C152.866 319.147 152.806 312.935 152.603 306.722C152.476 302.869 151.894 299.028 151.514 295.158C151.137 295.054 150.921 294.959 150.697 294.937C147.998 294.667 145.307 294.348 142.602 294.173C140.316 294.025 138.001 293.838 135.733 294.047C133.307 294.268 130.904 294.892 129.079 296.865C129.529 297.935 130.083 298.958 130.387 300.047C130.986 302.185 131.477 304.357 131.952 306.526C132.452 308.815 132.921 311.111 133.329 313.416C133.602 314.952 133.792 316.507 133.934 318.061C134.118 320.101 134.419 322.162 134.317 324.195C134.058 329.41 130.131 335.366 123.879 335.8C121.048 335.996 118.207 336.056 115.373 336.17C114.768 336.196 114.157 336.139 113.555 336.205C112.346 336.341 111.829 336.82 111.687 338.048C111.5 339.669 111.389 341.297 111.281 342.925C111.025 346.838 110.711 350.752 110.566 354.672C110.439 358.06 110.455 361.458 110.518 364.849C110.572 367.677 110.597 370.53 110.99 373.323C111.348 375.878 112.061 378.402 112.836 380.872C113.704 383.627 113.745 386.435 113.951 389.31C113.115 388.975 111.763 387.572 111.405 386.476C110.661 384.203 109.955 381.907 109.35 379.592C108.153 375.02 107.598 370.375 107.665 365.635C107.754 359.397 107.636 353.159 107.706 346.921C107.75 342.925 107.921 338.928 108.143 334.936C108.213 333.691 108.618 332.463 108.903 331.237C109.334 329.385 110.68 328.736 112.412 328.698C114.471 328.653 116.535 328.603 118.594 328.675C120.507 328.745 122.312 328.289 124.107 327.77C128.256 326.57 130.251 323.413 131.075 319.496C131.353 318.169 130.866 316.64 130.562 315.24C129.909 312.245 128.988 309.3 128.471 306.285C127.993 303.486 126.939 300.966 125.612 298.515C125.333 297.999 124.991 297.517 124.491 296.726C124.364 297.625 124.291 298.17 124.18 298.964C123.11 298.154 122.115 297.574 121.333 296.783C118.09 293.502 115.17 290.003 113.391 285.643C112.526 283.525 111.288 281.555 111.047 279.221C110.936 278.145 110.832 277.046 110.924 275.976C111.038 274.674 111.747 273.781 113.15 273.531C115.471 273.116 117.777 272.626 120.092 272.195C124.836 271.311 129.58 270.431 134.327 269.576C137.769 268.956 141.228 268.436 144.657 267.762C146.716 267.357 148.746 266.787 150.757 266.182C151.27 266.027 151.64 265.438 152.112 265.096C152.59 264.75 153.078 264.333 153.626 264.177C154.874 263.826 156.163 263.62 157.737 263.291C157.284 263.006 157.091 262.794 156.869 262.756C152.761 262.068 148.654 261.369 144.537 260.745C142.931 260.501 141.297 260.431 139.676 260.302C139.318 260.273 138.862 260.188 138.602 260.359C136.49 261.745 134.39 260.507 132.31 260.33C130.644 260.188 129.01 259.687 127.36 259.361C125.143 258.924 122.967 258.845 120.782 259.687C119.572 260.153 118.182 260.165 116.985 260.656C115.889 261.106 114.847 261.812 113.958 262.607C112.162 264.206 110.328 265.811 108.811 267.66C107.526 269.228 106.642 271.131 105.625 272.911C103.874 275.973 103.488 279.494 102.364 282.771C101.8 284.421 101.417 286.134 101.014 287.837C100.669 289.303 100.473 290.804 100.112 292.267C99.5703 294.462 99.1776 296.722 97.781 298.692C97.4042 298.382 97.1382 298.163 96.8436 297.923C96.0171 299.028 95.9664 300.579 94.6015 301.621C94.3956 301.057 94.231 300.649 94.0948 300.228C93.1891 297.457 92.6222 294.674 93.2999 291.735C93.4931 290.893 93.1954 289.943 93.3252 289.072C93.8478 285.624 94.497 282.198 95.0037 278.746C95.3457 276.428 95.6212 274.098 95.8492 271.758C96.1564 268.607 95.9981 265.476 96.1786 262.341C96.2514 261.087 96.6061 259.852 96.774 258.601C96.8753 257.857 96.8595 257.097 96.9038 256.248C91.7513 256.157 87.4 258.272 82.8523 259.611C87.0485 257.395 91.4314 255.742 96.1216 255.169C96.1311 253.674 95.1462 253.158 94.2563 252.55C93.1194 251.774 92.0711 250.831 90.855 250.22C89.4743 249.523 87.9859 248.937 86.4753 248.611C83.2989 247.921 80.075 247.449 76.8764 246.85C76.2272 246.73 75.5843 246.515 74.9763 246.252C72.7088 245.277 70.4603 244.26 68.1991 243.269C67.9299 243.152 67.6417 243.076 67.4011 242.994C66.1185 244.108 64.8961 245.159 63.6926 246.233C63.4266 246.47 63.1638 246.759 63.0149 247.078C61.8083 249.624 60.3769 252.062 60.2946 255.039C60.2471 256.701 59.7087 258.351 59.4237 260.01C59.3002 260.72 59.1925 261.445 59.1893 262.16C59.1672 266.34 59.088 270.526 59.2083 274.703C59.3002 277.838 59.6707 280.963 59.9145 284.095C59.9272 284.275 59.943 284.456 59.9494 284.639C60.0824 288.148 60.0887 291.666 60.3927 295.158C60.6429 298.027 61.2636 300.864 61.688 303.72C61.9382 305.386 62.1567 307.058 62.3404 308.733C62.5842 310.953 62.7679 313.179 62.9991 315.398C63.1479 316.836 63.5026 318.277 63.4741 319.708C63.4298 321.931 64.2373 323.878 65.2318 325.724C67.9489 330.765 69.6401 336.132 70.9068 341.693C71.3818 343.786 72.4301 345.746 73.168 347.782C74.0737 350.274 75.0934 352.741 75.7553 355.299C76.2019 357.025 76.1924 358.884 76.2589 360.689C76.338 362.747 76.2145 364.811 76.3 366.87C76.3539 368.203 75.9358 369.241 75.2201 370.372C73.5068 373.079 71.1443 374.669 68.1104 375.543C66.2103 376.09 64.3355 376.841 62.5747 377.743C60.4782 378.82 58.2234 379.127 55.9813 379.523C52.5515 380.124 49.0996 380.596 45.6667 381.166C44.9985 381.277 44.3619 381.6 43.7507 382.002C47.3293 382.654 50.8667 383.066 54.4548 382.493C55.8799 382.265 57.3304 382.202 58.7713 382.069C60.5131 381.91 62.2517 381.711 63.9967 381.613C69.374 381.302 74.5899 382.233 79.7519 383.652C81.8326 384.222 83.9734 384.573 86.4404 385.102C86.1364 383.899 85.9685 383.041 85.7025 382.214C84.9298 379.801 84.0146 377.433 83.3464 374.992C82.3393 371.331 81.6552 367.626 81.7787 363.77C81.8769 360.765 81.7249 357.728 81.3829 354.739C81.0567 351.883 80.3188 349.074 79.7963 346.24C79.2516 343.282 78.824 340.3 78.2128 337.358C77.4433 333.65 76.5819 329.958 75.6857 326.278C74.7483 322.422 73.6525 318.606 72.7721 314.737C72.4143 313.166 72.3383 311.51 72.3161 309.889C72.2559 305.709 72.3066 301.526 72.2939 297.346C72.2812 294.018 72.8354 290.757 73.3548 287.489C73.6747 285.472 73.8552 283.433 74.2257 281.428C74.4506 280.219 74.5677 278.949 75.7015 278.04C76.11 277.711 76.2494 276.862 76.2589 276.248C76.3095 273.097 76.2304 269.944 76.3 266.796C76.3285 265.485 76.5882 264.174 76.7846 262.87C76.8194 262.635 77.0759 262.433 77.2406 262.201C77.1773 263.585 77.1076 264.883 77.0569 266.182C76.9271 269.69 76.8036 273.199 76.68 276.704C76.6484 277.613 76.604 278.528 77.2184 279.31C77.3229 279.443 77.3799 279.639 77.3989 279.813C77.5985 281.489 77.9658 283.17 77.9247 284.842C77.8803 286.59 78.2888 288.186 78.862 289.769C79.2991 290.978 79.1534 292.115 78.7132 293.562C78.1147 293.17 77.6555 292.869 76.9936 292.435C76.8257 293.236 76.623 294.006 76.509 294.788C76.2684 296.456 76.0118 298.128 75.8788 299.81C75.7047 302.042 75.597 304.284 75.5526 306.523C75.4671 310.832 76.1322 315.056 77.2691 319.201C78.7987 324.777 80.132 330.392 81.0852 336.101C81.8579 340.727 82.9188 345.306 83.6979 349.929C84.4263 354.257 85.2497 358.583 85.0248 363.019C84.876 365.932 85.3605 368.763 86.0002 371.622C86.5734 374.178 87.4728 376.584 88.2835 379.041C88.8124 380.641 89.2779 382.262 89.7878 383.87C90.0982 384.846 90.4814 385.799 90.7474 386.787C90.9627 387.578 91.0799 388.402 91.1907 389.219C91.3522 390.412 91.5518 391.606 91.5898 392.806C91.6341 394.19 91.3649 394.374 89.9842 393.987C86.8521 393.11 83.7549 392.097 80.6038 391.305C77.5224 390.529 74.4537 389.744 71.2552 389.393C69.013 389.146 66.7994 389.171 64.573 389.133C63.5026 389.114 62.4291 389.374 61.3555 389.5C59.3255 389.735 57.2955 389.969 55.2655 390.184C54.7873 390.235 54.2996 390.232 53.8151 390.222C50.9681 390.172 48.121 390.073 45.274 390.067C43.7096 390.067 42.142 390.289 40.5775 390.27C39.2601 390.254 37.9458 390.032 36.6316 389.902C34.2279 389.665 31.9414 390.105 29.7341 391.055C29.1799 391.293 28.6067 391.498 28.0303 391.676C25.614 392.417 23.9672 391.612 23.0551 389.282C22.8176 388.671 22.5516 388.069 22.3457 387.578C22.5579 384.979 24.2427 383.342 26.0352 381.91C29.3034 379.301 32.7458 376.882 36.8691 375.821C40.8974 374.786 44.9067 373.668 49.0679 373.18C54.477 372.547 59.7879 371.445 64.744 369.042C66.4193 368.228 68.1864 367.576 69.7921 366.645C71.5212 365.644 72.4364 364.093 72.7911 362.006C73.3612 358.681 72.6993 355.72 71.3692 352.687C69.8206 349.159 68.443 345.543 67.7748 341.699C67.2237 338.517 65.862 335.597 64.5762 332.659C63.6071 330.442 62.6191 328.235 61.6817 326.003C60.8076 323.929 60.3642 321.779 60.2977 319.502C60.2186 316.861 59.8449 314.23 59.6105 311.592C59.5662 311.111 59.6168 310.62 59.5598 310.142C59.2527 307.514 59.0215 304.873 58.5749 302.267C58.1886 300.012 57.7515 297.78 57.4602 295.5C57.058 292.35 57.3367 289.218 57.134 286.086C56.963 283.449 56.6463 280.817 56.4056 278.183C56.3613 277.701 56.3645 277.214 56.3645 276.729C56.3645 269.82 56.3518 262.914 56.393 256.005C56.3993 254.811 56.5925 253.608 56.8047 252.427C57.2417 250.004 57.7737 247.598 58.2171 245.178C58.4071 244.14 57.7262 243.342 57.0707 242.731C56.2473 241.964 55.2085 241.429 54.2616 240.793C54.0653 240.66 53.7454 240.574 53.6821 240.397C53.0899 238.678 51.4209 237.953 50.2524 236.8C49.7203 236.277 48.6784 236.046 47.9057 235.613C44.2131 233.532 40.188 232.253 36.2579 230.752C34.5034 230.081 32.9485 229.102 31.3777 228.064C28.4483 226.129 26.0288 223.631 23.375 221.395C22.4724 220.635 21.6839 219.736 20.6673 219.027C21.4305 221.059 22.3901 222.966 23.5586 224.748C25.2149 227.282 26.9757 229.745 28.6668 232.253C29.7531 233.861 30.7 235.473 30.5733 237.588C30.4846 239.051 30.852 240.54 31.0167 242.028C29.3667 242.617 28.3216 242.142 27.1531 241.274C24.0147 238.937 22.7226 235.47 21.1961 232.133C19.8661 229.223 18.6056 226.278 17.3104 223.352C17.19 223.083 17.0317 222.829 16.7847 222.373C16.3476 223.171 16.6263 223.764 16.8448 224.321C17.7284 226.572 18.6278 228.817 19.5462 231.056C19.9832 232.12 20.5279 233.143 20.9111 234.226C21.1676 234.948 21.2342 235.739 21.3608 236.502C21.4717 237.151 21.5413 237.81 21.6395 238.462C21.7789 239.412 21.8549 240.353 21.5318 241.429C19.847 240.891 18.6531 239.837 17.5986 238.773C16.3413 237.503 15.2962 235.989 14.3113 234.485C11.8887 230.784 10.2039 226.718 8.60776 222.611C8.19923 221.557 7.68936 220.54 7.14149 219.318C6.81213 219.885 6.59046 220.271 6.26743 220.825C5.20019 219.729 4.00627 218.827 3.23355 217.649C0.497354 213.472 -0.601551 208.884 0.320014 203.907C0.415021 203.39 0.601869 202.827 0.924891 202.428C2.60334 200.354 3.92393 198.071 5.10835 195.693C6.56195 192.77 8.05355 189.866 9.48815 186.934C9.80168 186.291 10.0075 185.579 10.1437 184.873C11.1286 179.74 12.0153 174.591 13.0794 169.474C13.4309 167.783 14.0073 166.064 14.8624 164.576C15.5591 163.36 16.791 162.438 17.8424 161.444C19.2042 160.158 20.6198 158.924 22.0164 157.676C23.3528 156.485 24.9679 155.811 26.6527 155.333C31.175 154.047 35.7385 152.895 40.2387 151.533C41.8918 151.033 43.4657 150.2 44.9827 149.348C47.7125 147.812 50.2682 145.941 53.0867 144.608C55.1832 143.617 57.5584 143.183 59.8417 142.626C62.6476 141.942 65.4756 141.353 68.31 140.792C70.7073 140.32 72.6929 139.073 74.4759 137.528C76.8384 135.482 79.0204 133.228 81.4019 131.204C82.4343 130.327 83.6884 129.57 84.971 129.165C87.704 128.3 89.9747 126.752 91.973 124.814C94.0156 122.832 96.1818 121.068 98.6551 119.659C101.059 118.288 103.396 116.8 105.803 115.435C107.003 114.754 108.263 114.153 109.552 113.655C113.055 112.303 115.886 109.925 118.86 107.756C119.389 107.37 119.962 107.009 120.567 106.762C124.665 105.074 128.449 102.829 132.161 100.439C133.225 99.7515 134.416 99.2195 135.366 98.4089C136.962 97.0441 138.444 95.5369 139.923 94.0391C141.87 92.0664 143.745 90.0272 145.693 88.0545C146.44 87.2977 146.516 86.4871 146.19 85.5593C145.009 82.2092 144.189 78.7292 142.482 75.5722C141.015 72.8585 139.574 70.129 138.178 67.3805C137.731 66.5034 137.136 65.9778 136.173 65.7181C135.499 65.5376 134.919 65.0183 134.248 64.7967C133.114 64.4199 131.942 63.8879 130.79 63.8911C126.745 63.9069 122.894 63.1754 119.196 61.5415C118.04 61.0317 116.811 60.6897 115.626 60.2433C115.177 60.0723 114.73 59.8665 114.331 59.6036C111.101 57.4473 108.206 54.9552 105.686 51.9502C104.27 50.2593 102.56 48.7933 101.271 46.9662C100.498 45.8706 99.7065 44.7908 98.785 43.5147C97.9489 43.7111 96.9165 44.1385 95.8746 44.1639C91.8875 44.262 87.8972 44.3285 83.9132 44.2082C81.4874 44.1354 79.7646 42.6788 79.3846 39.753C78.919 36.1812 78.9951 32.622 79.1249 29.0756C79.2516 25.5323 79.8691 21.9763 81.1865 18.6547C82.3235 15.7922 84.0621 13.2748 86.4594 11.242C88.9137 9.16158 91.5074 7.28702 94.326 5.74178C95.2729 5.22247 96.3021 4.84566 97.3218 4.47202C101.113 3.08193 104.907 1.69818 108.719 0.368257C109.385 0.137104 110.145 0.121272 110.863 0.105439C113.406 0.0516091 115.956 -0.0560513 118.492 0.0357767C122.727 0.190934 126.939 0.656407 130.989 1.96416C132.18 2.34731 133.288 3.0471 134.365 3.7184C138.007 5.99193 141.589 8.35412 145.24 10.6087C147.739 12.1507 149.566 14.3451 151.485 16.6756C152.41 16.0075 154.101 16.7421 154.294 15.2032C155.273 14.8612 156.023 14.4908 156.812 14.3483C158.433 14.057 160.071 13.7783 161.733 14.0221C162.981 14.2058 164.251 14.3103 165.473 14.6079C167.915 15.2032 169.008 16.3242 167.424 18.6642C167.244 18.9333 167.035 19.3292 167.104 19.5983C167.415 20.8079 166.743 21.571 165.929 22.1916C164.59 23.2144 163.149 24.1042 161.784 25.0985C159.928 26.4474 158.107 27.8407 156.267 29.2086C155.612 29.6962 155.368 30.301 155.586 31.1085C156.159 33.2205 155.415 35.0602 154.24 36.729C153.224 38.1729 152.996 39.5915 153.569 41.2919C154.491 44.0277 155.33 46.7984 156.014 49.6007C156.495 51.5703 157.002 53.5968 156.34 55.6677C156.216 56.0477 156.254 56.5226 156.346 56.9216C157.296 61.0159 158.303 65.1006 159.228 69.2012C159.561 70.6737 159.668 72.2157 160.707 73.419C161.493 74.3309 162.344 75.1859 163.256 76.158C167.218 74.9674 171.044 73.6818 174.939 72.6812C178.857 71.6743 182.457 69.9359 186.112 67.9473C186.375 68.8308 186.524 69.3216 186.596 69.5686C189.447 70.0689 192.107 70.5597 194.777 70.9871C195.666 71.1296 196.582 71.1676 197.484 71.1581C200.987 71.1233 204.274 71.9213 207.406 73.495C210.316 74.9547 213.255 76.367 216.226 77.7001C218.823 78.8653 221.306 80.1826 223.31 82.244C224.463 83.4282 225.79 84.3054 227.272 85.0527C228.491 85.6669 229.517 86.6612 230.638 87.4718C232.491 88.8113 234.363 90.1253 236.212 91.4679C237.53 92.4242 238.847 93.3773 240.12 94.3906C240.681 94.8371 241.178 95.3849 241.608 95.9612C243.252 98.1555 245.235 99.9858 247.391 101.664C249.152 103.032 250.796 104.552 252.525 105.961C254.257 107.37 256.107 108.64 257.772 110.122C259.932 112.044 262.152 113.909 263.669 116.474C265.047 118.807 266.659 120.999 268.131 123.278C269.917 126.04 270.348 129.19 270.804 132.369C271.263 135.564 271.285 138.772 271.067 141.942C270.858 144.985 270.497 148.066 269.192 150.931C267.808 153.974 265.465 156.083 262.738 157.841C261.265 158.791 259.786 159.75 258.225 160.542C256.129 161.606 253.956 162.524 251.809 163.49C248.272 165.079 244.538 166.035 240.81 167.077C236.937 168.16 233.197 169.721 229.372 170.988C226.17 172.049 222.927 172.973 219.713 173.986C218.503 174.366 217.306 174.797 216.128 175.263C215.231 175.617 214.633 176.212 214.677 177.302C214.69 177.596 214.43 177.929 214.234 178.201C213.319 179.461 213.094 180.646 213.857 182.188C215.523 185.55 216.679 189.122 217.645 192.754C219.276 198.891 220.932 205.021 222.594 211.148C222.848 212.079 223.193 212.985 223.481 213.865C224.64 214.568 226.122 213.662 227.231 214.837C226.743 216.43 227.345 217.795 228.042 219.337C228.84 221.101 229.505 223.143 228.862 225.239C228.783 225.496 228.9 225.828 228.969 226.116C229.821 229.688 230.676 233.26 231.544 236.828C231.766 237.737 231.848 238.576 231.246 239.422C230.952 239.84 230.851 240.438 230.784 240.967C230.55 242.94 230.382 244.922 230.154 246.895C230.071 247.598 229.872 248.285 229.752 248.985C229.619 249.757 229.425 250.536 229.413 251.312C229.365 253.851 229.384 256.391 229.387 258.934C229.387 262.176 228.441 265.219 227.433 268.249C227.345 268.522 227.196 268.93 226.996 268.984C225.347 269.431 224.599 270.954 223.241 272.037H223.269ZM18.9762 201.893C19.6095 201.405 19.9516 201.199 20.2271 200.921C20.9935 200.148 21.6775 199.28 22.5009 198.577C23.0298 198.128 23.7265 197.84 24.3915 197.596C25.2878 197.266 26.2347 197.08 27.1436 196.776C28.2298 196.408 29.2749 195.899 30.377 195.588C33.7719 194.638 37.2776 194.337 40.7675 194.296C50.0117 194.185 59.2653 194.059 68.481 195.066C68.7818 195.097 69.0858 195.11 69.3772 195.18C71.2995 195.652 73.2155 196.152 75.1409 196.617C78.9412 197.539 82.732 198.46 86.4341 199.777C88.6256 200.556 91.0071 200.807 93.2967 201.32C95.7574 201.871 98.1864 202.608 100.669 202.991C106.721 203.926 112.282 206.183 117.618 209.052C120.434 210.569 123.065 212.415 126.118 213.495C127.939 214.137 129.735 214.875 131.489 215.68C135.423 217.484 139.587 218.463 143.799 219.286C147.748 220.059 151.719 220.733 155.659 221.553C158.661 222.177 161.613 223.038 164.615 223.662C168.672 224.508 172.751 225.242 176.83 225.986C177.606 226.129 178.429 226.246 179.351 225.869C177.302 225.065 175.481 224.27 173.606 223.627C170.062 222.415 166.49 221.297 162.93 220.128C160.783 219.422 158.769 218.479 157.198 216.781C156.134 215.632 155.016 214.524 154.022 213.314C151.77 210.578 150.348 207.523 150.643 203.862C150.788 202.06 151.004 200.262 151.039 198.457C151.099 195.528 152.337 193.096 154.047 190.851C154.633 190.085 155.422 189.471 155.985 188.688C158.756 184.844 162.728 182.653 166.94 180.905C169.726 179.746 172.301 178.458 174.037 175.788C173.856 175.326 173.663 174.819 173.467 174.316C172.64 172.175 171.627 170.089 171.015 167.888C169.065 160.861 166.015 154.323 162.667 147.885C160.495 143.705 157.768 139.833 155.871 135.504C155.798 135.34 155.697 135.184 155.586 135.045C154.234 133.364 153.151 131.53 152.22 129.577C150.709 126.413 149.015 123.342 147.425 120.216C146.542 118.481 145.322 117.804 143.356 118.047C138.966 118.586 134.697 119.659 130.552 121.17C128.817 121.803 127.075 122.49 125.599 123.722C122.432 126.359 118.749 128.228 115.326 130.482C112.618 132.262 110.018 134.203 107.383 136.093C105.131 137.708 102.737 139.073 100.258 140.305C97.23 141.809 94.174 143.275 91.2351 144.94C89.1481 146.125 87.2733 147.676 85.237 148.952C80.1225 152.154 75.35 155.82 70.5743 159.487C67.2966 162.004 63.8066 164.091 59.7815 165.19C58.5654 165.522 57.4 166.083 56.1713 166.298C53.3338 166.792 50.4709 167.137 47.6207 167.549C45.5369 167.85 43.4372 168.094 41.3692 168.489C38.9117 168.958 36.3085 168.847 34.1107 170.44C33.4773 170.899 32.5209 170.94 31.6944 171.092C30.3485 171.342 28.9867 171.529 27.5679 171.751C27.2449 172.995 26.7762 174.199 26.6432 175.437C26.3487 178.163 25.6235 180.763 24.5879 183.277C23.8753 185.006 23.2673 186.849 22.1906 188.34C21.1645 189.765 20.8003 191.231 20.6039 192.862C20.3538 194.955 20.0751 197.045 19.7457 199.128C19.619 199.933 19.3118 200.708 18.973 201.893H18.9762ZM209.23 169.069C209.091 171.013 209.309 171.444 210.627 171.285C212.476 171.064 214.313 170.712 216.134 170.329C217.369 170.07 218.573 169.652 219.792 169.316C221.705 168.784 223.64 168.318 225.53 167.72C228.409 166.808 231.234 165.719 234.125 164.857C238.511 163.553 242.996 162.549 247.334 161.112C251.917 159.595 256.445 157.856 260.521 155.181C262.184 154.088 263.973 153.081 265.351 151.685C268.28 148.718 269.518 144.95 269.566 140.811C269.588 139.06 269.487 137.303 269.426 135.552C269.3 131.736 268.261 128.202 266.133 125.007C265.43 123.953 264.638 122.927 264.131 121.781C263.197 119.662 262.07 117.693 260.493 116.002C259.549 114.989 258.336 114.175 257.589 113.041C256.778 111.806 255.78 110.818 254.719 109.853C251.689 107.101 248.376 104.65 245.741 101.474C245.295 100.936 244.791 100.337 243.889 100.777C243.702 100.869 243.3 100.714 243.094 100.549C240.567 98.507 238.036 96.4678 235.553 94.3748C234.16 93.1968 232.871 91.9018 230.819 92.0696C230.493 92.0949 230.141 91.8448 229.805 91.7149C226.056 90.2805 222.658 88.1875 219.253 86.1103C216.729 84.5713 214.278 82.9089 211.78 81.3257C210.921 80.7811 210.073 80.0971 209.123 79.8406C207.099 79.296 205.034 78.8685 202.893 78.9698C202.19 79.0047 201.44 78.8843 200.771 78.6627C197.339 77.5291 193.94 76.2878 190.498 75.1891C189.158 74.7616 187.743 74.1251 186.321 75.1036C186.09 75.2619 185.738 75.2397 185.447 75.322C181.203 76.5031 176.956 77.6842 172.716 78.8685C169.929 79.6475 167.139 80.4169 164.362 81.2275C163.098 81.5948 162.009 81.218 161.242 80.3061C160.368 79.2643 159.646 78.0706 159 76.8641C158.373 75.6989 157.917 74.4418 157.398 73.2163C157.258 72.887 157.125 72.5482 157.053 72.2031C156.701 70.5533 156.391 68.8941 156.03 67.2475C155.301 63.9449 154.494 60.6549 153.825 57.3396C153.483 55.6329 153.148 53.8881 153.753 52.1371C153.863 51.8173 153.832 51.4056 153.746 51.0636C153.018 48.2043 152.426 45.2943 151.469 42.5141C150.31 39.1482 148.654 35.9817 146.763 32.9545C145.902 31.5739 144.828 31.0071 143.631 31.4029C142.599 31.7449 141.557 32.1186 140.616 32.6442C139.749 33.1318 138.675 33.6701 138.688 34.8449C138.7 35.8392 138.168 36.3807 137.592 37.0108C135.714 39.0658 133.041 39.088 130.625 39.7466C130.273 39.8416 129.706 39.6738 129.431 39.4205C128.281 38.3565 127.227 38.784 126.144 39.487C124.725 40.4053 123.37 41.4439 121.875 42.207C119.515 43.4102 117.064 44.433 114.651 45.5255C113.394 46.0954 112.767 45.8421 112.266 44.5438C112.057 43.9992 111.921 43.4261 111.715 42.7453C110.848 42.8719 110.072 42.9384 109.315 43.1063C108.802 43.2203 108.175 43.3374 107.852 43.6889C106.962 44.6547 106.205 45.7408 105.454 46.7066C105.92 48.4323 107.405 49.0972 108.491 50.1042C111.468 52.8622 114.657 55.2624 118.562 56.681C123.968 58.6442 129.425 59.9709 135.211 59.1698C136.525 58.9893 137.269 59.6131 137.842 60.6391C138.818 62.3806 139.771 64.1349 140.762 65.8669C141.481 67.124 142.361 68.3051 142.96 69.6129C144.065 72.0226 145.129 74.4639 146.01 76.9623C147.226 80.4138 149.398 83.5264 149.709 87.3009C149.867 89.2102 150.244 91.1418 148.955 93.1968C148.762 92.725 148.629 92.4052 148.407 91.8637C146.599 93.903 144.923 95.5305 143.562 97.3893C142.127 99.3461 140.164 100.765 138.685 102.649C138.507 102.877 138.203 103.01 137.95 103.171C136.066 104.365 134.2 105.594 132.284 106.734C130.321 107.905 128.319 109.017 126.312 110.109C124.405 111.144 122.423 112.05 120.554 113.152C119.427 113.817 118.508 114.833 117.397 115.533C115.408 116.784 113.353 117.927 111.31 119.086C108.162 120.875 105.014 122.661 101.847 124.415C99.3043 125.824 96.8848 127.373 94.8865 129.542C92.904 131.698 90.5004 133.278 87.8275 134.519C85.9242 135.403 84.0336 136.426 82.3836 137.705C80.6387 139.06 79.1692 140.776 77.608 142.363C75.122 144.886 72.0469 146.384 68.709 147.322C66.6917 147.888 64.592 148.18 62.5209 148.531C57.7927 149.329 53.5396 151.257 49.4986 153.768C47.2026 155.193 45.1252 157.027 42.4365 157.765C40.9385 158.176 39.4311 158.559 37.9427 159.015C34.2564 160.139 30.567 161.267 26.9029 162.464C26.0067 162.758 25.0788 163.182 24.3694 163.784C22.4851 165.377 20.7116 167.096 18.897 168.768C18.7196 168.933 18.4885 169.082 18.3998 169.287C17.7537 170.757 17.0254 172.201 16.5472 173.727C16.0056 175.446 15.7079 177.242 15.2899 179.002C14.4507 182.517 13.5259 186.01 13.3708 189.661C13.3264 190.712 12.9242 191.795 12.4809 192.773C11.0146 196.019 9.51349 199.252 7.92055 202.437C6.53662 205.208 6.05525 207.896 7.41701 210.879C9.19997 214.777 10.7359 218.789 12.3954 222.744C12.598 223.225 12.9179 223.653 13.1839 224.106C12.2972 220.755 11.1983 217.519 10.2007 214.251C9.39948 211.63 8.90228 208.976 10.2545 206.345C10.7739 205.335 11.7588 205.084 12.5854 205.86C12.9559 206.209 13.2536 206.633 13.8458 207.333C13.8458 205.851 13.8205 204.774 13.8553 203.698C13.8775 202.979 13.8743 202.228 14.077 201.548C14.7262 199.35 15.4514 197.178 16.1766 195.002C16.848 192.992 17.3389 190.968 17.4497 188.828C17.5922 186.041 18.2129 183.416 19.809 180.978C21.7757 177.973 22.7226 174.515 23.4035 170.991C23.7328 169.284 24.2965 167.625 24.7146 165.937C25.0661 164.516 26.032 164.348 27.3209 164.319C29.5472 164.272 31.7894 164.085 33.6832 162.647C34.7409 161.843 36.0362 161.808 37.2871 161.593C40.3812 161.061 43.4657 160.472 46.5503 159.892C48.7956 159.471 51.0187 158.803 53.2799 158.635C56.8807 158.373 60.0919 157.008 63.1638 155.383C65.6023 154.095 67.8128 152.347 70.0454 150.7C72.7658 148.696 75.3468 146.495 78.102 144.538C80.5627 142.79 83.2387 141.35 85.7089 139.617C89.7371 136.79 94.0979 134.583 98.4714 132.379C100.191 131.511 101.888 130.555 103.45 129.437C106.838 127.009 110.116 124.447 113.726 122.322C117.109 120.33 120.31 118.035 123.594 115.882C124.554 115.251 125.456 114.472 126.502 114.058C128.969 113.086 131.483 112.221 134.02 111.448C137.434 110.41 140.927 109.805 144.505 109.587C146.263 109.479 147.226 110.195 147.897 111.635C148.049 111.965 148.16 112.31 148.312 112.639C149.183 114.498 150.019 116.372 150.95 118.199C152.185 120.619 153.521 122.987 154.757 125.406C155.19 126.255 155.33 127.145 155.276 128.18C155.194 129.767 155.422 131.375 156.809 132.604C157.695 133.389 158.449 134.393 159.051 135.425C160.324 137.61 161.546 139.836 162.623 142.125C163.861 144.75 164.922 147.458 166.053 150.13C166.499 151.188 166.93 152.252 167.377 153.309C168.799 156.697 170.699 159.861 171.699 163.458C172.653 166.887 174.008 170.206 175.237 173.556C175.5 174.271 175.968 174.911 176.453 175.788C177.685 174.867 178.758 174.015 179.883 173.233C182.109 171.688 184.281 170.032 186.631 168.698C189.006 167.35 191.815 167.217 194.419 166.498C196.278 165.988 198.194 165.693 200.059 165.196C201.322 164.857 202.304 164.066 202.846 162.869C202.127 161.555 201.373 160.323 200.762 159.025C199.413 156.172 198.586 153.18 198.393 150.007C198.279 148.145 198.035 146.292 197.782 144.443C197.491 142.296 196.962 140.165 196.838 138.012C196.702 135.571 196.246 133.247 195.388 130.976C195.198 130.473 194.963 129.884 195.062 129.396C195.296 128.228 195.008 127.142 194.872 126.011C194.52 123.088 194.311 120.147 194.026 117.215C193.893 115.837 193.744 114.46 193.548 113.089C193.193 110.593 192.788 108.105 192.427 105.609C192.116 103.469 191.85 101.325 191.543 99.1847C191.195 96.7496 190.802 94.3209 190.466 91.8859C190.261 90.3977 190.286 88.8588 189.915 87.4148C189.481 85.7239 189.719 84.2389 190.349 82.662C190.732 81.7025 191.087 81.4967 192.072 81.7848C194.967 82.6366 197.886 83.4187 200.816 84.147C206.152 85.4738 211.384 87.076 216.463 89.2166C220.457 90.9011 224.111 93.1082 227.598 95.6192C232.07 98.8363 236.548 102.053 240.909 105.416C244.399 108.111 248.031 110.707 250.799 114.191C254.396 118.716 257.794 123.399 261.316 127.984C262.352 129.33 263.077 130.713 262.861 132.474C262.82 132.81 263.026 133.167 263.067 133.522C263.292 135.564 263.549 137.616 262.744 139.595C260.993 143.902 259.125 148.157 256.813 152.195C256.404 152.907 255.796 153.582 255.125 154.047C254.039 154.804 252.86 155.463 251.651 156.007C246.574 158.287 241.374 160.25 236.054 161.884C234.439 162.381 232.827 162.973 231.167 163.239C226.996 163.908 222.927 164.968 218.886 166.156C215.707 167.087 212.543 168.071 209.23 169.075V169.069ZM88.0144 231.67C88.0587 231.518 88.103 231.369 88.1474 231.217C87.5235 230.872 86.9154 230.489 86.2694 230.192C80.512 227.516 74.3397 225.99 68.3891 223.849C63.3379 222.031 58.1221 220.667 53.0551 218.887C50.3885 217.95 47.8677 216.582 45.3025 215.36C43.7951 214.644 43.4816 213.137 43.301 211.718C43.1459 210.48 44.3049 209.559 46.0151 209.423C48.4821 209.226 50.9586 208.976 53.4287 209.005C57.2924 209.046 61.1591 208.688 65.0227 209.337C67.2712 209.714 69.5894 209.641 71.8727 209.818C73.1933 209.92 74.5076 210.091 75.8187 210.278C78.254 210.623 80.683 211.012 83.1183 211.367C85.3763 211.696 87.6533 211.924 89.8923 212.342C92.733 212.874 95.5421 213.558 98.3669 214.163C103.361 215.233 108.042 217.196 112.665 219.292C116.551 221.056 120.323 223.076 124.237 224.771C133.564 228.808 143.118 232.196 153.046 234.469C156.182 235.185 159.184 236.281 162.078 237.68C163.013 238.133 163.728 238.627 163.44 239.887C163.329 240.372 163.614 240.945 163.697 241.48C163.808 242.227 163.896 242.978 163.985 243.643C161.86 244.65 160.067 243.801 158.303 243.345C153.11 241.999 147.954 240.514 142.773 239.127C141.085 238.675 139.362 238.073 137.649 238.048C134.07 237.991 130.539 237.611 126.989 237.272C125.463 237.126 123.889 237.493 122.442 238.196C120.516 239.13 118.556 239.995 116.409 240.98C117.473 242.063 118.53 243.25 119.712 244.305C120.37 244.893 121.219 245.27 121.995 245.72C124.709 247.287 127.442 248.829 130.147 250.409C132.123 251.565 134.086 252.746 136.024 253.969C136.322 254.155 136.585 254.599 136.626 254.95C136.775 256.163 136.816 257.385 136.908 258.712C139.546 258.972 141.994 259.212 144.442 259.45C147.501 259.747 150.573 259.956 153.62 260.368C156.486 260.758 159.32 261.378 162.173 261.866C167.677 262.806 173.178 263.775 178.698 264.64C182.628 265.254 186.574 265.802 190.527 266.217C193.225 266.502 195.951 266.508 198.665 266.644C201.139 266.768 203.612 266.875 206.079 267.037C209.509 267.265 212.935 267.537 216.365 267.787C217.103 267.841 217.689 267.771 218.268 267.091C219.947 265.115 221.765 263.259 223.526 261.356C223.766 261.096 224.105 260.859 224.206 260.549C224.776 258.772 225.467 257.008 225.78 255.181C226.521 250.875 226.42 246.442 227.744 242.215C227.896 241.733 227.725 241.144 227.668 240.612C227.608 240.014 227.503 239.422 227.424 238.827C227.243 237.455 227.136 236.072 226.879 234.716C226.3 231.654 225.676 228.599 225.017 225.553C224.729 224.226 224.618 222.785 223.301 222.044C223.646 219.546 223.465 218.691 222.385 217.168C216.144 217.826 210.006 218.476 203.9 219.121C205.699 219.964 207.504 220.781 209.284 221.652C209.984 221.993 210.668 222.377 210.734 223.342C210.795 224.235 211.023 225.119 211.095 226.012C211.159 226.762 211.108 227.525 211.108 228.482C210.345 228.482 209.753 228.482 209.161 228.482C206.009 228.482 202.849 228.345 199.711 228.539C197.421 228.681 195.1 228.431 192.823 229.444C191.568 230.002 190.178 230.188 189.187 231.287C189.01 231.483 188.69 231.642 188.424 231.658C187.36 231.727 186.334 231.943 185.222 231.825C182.841 231.575 180.427 231.977 178.021 231.743C177.045 231.648 176.057 231.727 175.072 231.727L175.082 231.373C178.382 231.037 181.729 231.502 185.042 230.951C184.627 230.679 184.202 230.606 183.775 230.587C181.482 230.483 179.17 230.54 176.899 230.264C173.793 229.888 170.705 229.333 167.633 228.729C164.511 228.114 161.426 227.316 158.313 226.661C154.076 225.771 149.826 224.935 145.582 224.083C142.757 223.517 139.856 223.187 137.117 222.342C133.602 221.259 130.153 219.894 126.783 218.412C123.411 216.927 120.139 215.205 116.881 213.479C111.75 210.756 106.297 209.043 100.603 208.055C95.0765 207.098 89.563 206.101 84.2299 204.296C79.2421 202.608 74.1497 201.323 68.937 200.56C67.6259 200.37 66.2895 200.351 64.9784 200.17C61.916 199.746 58.8441 199.432 55.7564 199.613C50.2619 199.936 44.7578 199.73 39.2506 200.081C34.2184 200.401 29.7784 202.352 25.1294 203.789C24.439 204.002 24.0115 204.439 24.173 205.297C24.2395 205.654 24.1034 206.12 23.9038 206.446C23.1565 207.681 22.5009 209.03 21.5192 210.056C20.3379 211.291 20.0719 212.637 20.2081 214.204C20.3696 216.066 20.8573 217.643 22.5136 218.884C25.2624 220.945 27.9353 223.143 30.434 225.502C32.6951 227.639 35.3046 229.036 38.177 230.024C40.7644 230.913 43.4436 231.556 45.9739 232.576C48.1337 233.447 50.0497 234.897 52.3805 235.416C53.6378 235.695 54.7905 236.781 56.2029 235.86C56.3676 235.752 56.6748 235.85 56.9155 235.872C59.1925 236.084 61.479 236.23 63.7401 236.556C64.668 236.689 65.4281 236.572 66.0963 235.999C67.0527 235.179 68.1991 234.846 69.3772 234.552C71.0208 234.143 72.6613 233.719 74.2986 233.298C78.2192 232.288 82.1968 231.692 86.2504 231.677C86.8363 231.677 87.4221 231.677 88.008 231.677L88.0144 231.67ZM193.64 91.3286C193.64 91.6738 193.579 92.2184 193.649 92.7472C193.912 94.7136 194.2 96.6768 194.507 98.64C194.989 101.724 195.559 104.799 195.97 107.892C196.449 111.467 196.762 115.065 197.206 118.643C197.69 122.525 198.27 126.394 198.757 130.276C198.973 132.002 199.026 133.75 199.217 135.479C199.369 136.85 199.65 138.208 199.815 139.579C200.135 142.261 200.781 144.886 200.835 147.619C200.873 149.513 201.443 151.403 201.864 153.274C202.003 153.886 202.425 154.433 202.722 155.029C203.248 154.87 203.622 154.76 204.065 154.623C204.8 157.524 205.094 160.478 206.703 163.059C208.419 162.552 209.981 162.099 211.536 161.634C215.459 160.459 219.364 159.208 223.313 158.129C225.518 157.524 227.848 157.362 230.033 156.707C234.249 155.44 238.419 154.025 242.568 152.553C244.839 151.745 247.056 150.773 249.234 149.738C252.059 148.395 254.571 146.676 255.831 143.591C256.952 140.852 258.067 138.101 259.397 135.46C260.192 133.88 259.805 132.803 258.805 131.556C256.312 128.452 253.82 125.34 251.511 122.104C249.022 118.614 245.995 115.72 242.568 113.212C237.837 109.751 233.083 106.319 228.327 102.893C223.598 99.4855 218.547 96.6926 213.018 94.7706C208.473 93.1905 203.84 91.9524 199.178 90.784C197.275 90.309 195.499 89.7802 193.64 91.335V91.3286ZM147.951 20.3139C147.846 19.1645 147.137 18.9555 146.488 18.6104C145.224 17.9327 143.805 17.3691 142.824 16.3875C141.788 15.352 141.057 13.943 140.436 12.5845C140.056 11.7486 139.555 11.1818 138.84 10.7068C137.491 9.81071 136.145 8.90193 134.808 7.98681C132.598 6.47323 130.2 5.48213 127.559 4.89633C124.18 4.14904 120.757 3.90838 117.337 3.59807C113.954 3.29092 110.597 3.50941 107.332 4.49102C104.356 5.38396 101.375 6.28958 98.4683 7.37885C96.1723 8.23696 93.7433 8.8481 91.7861 10.4947C90.5922 11.4984 89.3413 12.4611 88.0144 13.2812C86.6874 14.1013 85.7025 15.1716 84.8855 16.4635C82.5388 20.1746 81.4177 24.2657 81.0409 28.5943C80.8508 30.7602 80.8857 32.9704 80.4645 35.0887C79.9958 37.4668 81.3164 38.7049 82.8777 39.9239C83.2545 40.2184 83.72 40.3989 84.1476 40.6269C84.6131 40.8771 85.104 41.0164 85.2592 41.694C85.3257 41.9885 85.9685 42.3115 86.3707 42.34C88.8979 42.5236 91.4346 42.7611 93.9618 42.701C95.3489 42.6693 96.7265 42.0867 98.1642 41.7383C97.8539 40.0791 97.401 38.5972 98.0977 36.8715C99.26 38.5877 100.733 38.7017 102.402 38.4325C103.462 38.2615 104.565 38.385 105.648 38.3217C106.598 38.2647 107.576 38.2584 108.485 38.0146C113.359 36.7131 118.252 35.4687 123.062 33.9678C127.233 32.6664 131.534 31.7101 135.435 29.5822C136.544 28.9774 137.009 28.2681 136.971 27.1599C136.955 26.6659 136.629 26.1877 136.468 25.6969C136.344 25.3233 136.094 24.9022 136.176 24.5697C136.534 23.0878 136.99 21.6312 137.459 19.9941C138.298 20.3678 138.985 20.7192 139.704 20.9852C140.832 21.4064 141.953 21.9225 143.125 22.122C145.041 22.4513 146.656 21.7103 147.954 20.3139H147.951ZM154.022 289.918C155.219 290.092 156.343 290.253 157.467 290.415C159.551 290.716 161.629 291.219 163.719 291.282C168.257 291.419 172.801 291.333 177.343 291.33C177.824 291.33 178.309 291.301 178.79 291.254C181.067 291.029 183.344 290.788 185.624 290.564C187.366 290.393 189.139 290.396 190.843 290.048C195.096 289.174 199.315 288.125 203.387 286.571C205.81 285.646 208.169 284.414 210.677 283.889C213.391 283.319 215.805 282.15 218.268 281.058C219.611 280.463 220.827 279.589 222.164 278.807C221.321 277.603 220.235 277.226 219.13 276.948C217.907 276.641 216.663 276.413 215.418 276.188C212.802 275.713 210.187 274.589 207.558 276.14C204.835 276.14 202.092 276.33 199.388 276.09C196.05 275.789 192.75 275.114 189.428 274.62C184.725 273.921 180.003 273.344 175.322 272.521C171.563 271.859 167.871 272.322 164.159 272.695C162.31 272.882 160.476 273.195 158.633 273.42C157.201 273.594 155.757 273.674 154.329 273.87C151.837 274.212 149.351 274.611 146.862 274.991C143.245 275.542 139.612 276.026 136.012 276.672C132.113 277.369 128.247 278.243 124.358 278.984C123.553 279.136 123.097 279.465 123.205 280.273C123.363 281.447 122.882 282.242 121.948 282.875C121.685 283.056 121.526 283.392 121.276 283.715C123.49 285.437 125.58 287.109 128.278 287.593C130.533 287.999 132.813 288.293 135.093 288.486C137.795 288.718 140.512 288.787 143.22 288.93C143.46 288.942 143.698 288.996 143.938 289.025C145.968 289.265 147.995 289.522 150.028 289.734C150.678 289.801 151.339 289.744 152.005 289.744C152.416 288.885 152.318 287.777 153.452 287.625C153.544 287.704 153.616 287.739 153.626 287.783C153.749 288.426 153.867 289.069 154.022 289.921V289.918ZM210.193 178.043C209.876 178.087 209.74 178.071 209.648 178.125C204.512 181.073 198.754 182.39 193.231 184.312C190.441 185.284 187.591 186.041 184.893 187.321C182.08 188.654 181.973 191.826 182.809 193.793C183.819 196.168 184.788 198.555 185.805 200.927C186.495 202.535 187.312 204.011 189.174 204.616C190.023 204.891 190.774 205.458 191.568 205.895C192.452 206.38 192.804 207.136 192.823 208.137C192.835 208.786 193.025 209.432 193.136 210.078C193.503 212.26 194.032 214.47 191.952 216.183C191.901 216.224 191.961 216.395 191.98 216.645C194.875 218.111 198.016 218.159 201.075 217.399C203.983 216.677 206.77 215.464 209.61 214.46C209.895 214.359 210.237 214.299 210.437 214.099C211.276 213.264 212.413 213.289 213.433 212.998C214.471 212.703 215.539 212.513 216.593 212.279C217.299 212.12 218.006 211.953 218.715 211.816C218.867 211.788 219.044 211.889 219.222 211.934C219.25 212.247 219.276 212.529 219.32 213.013C220.039 212.858 220.691 212.716 221.426 212.557C220.875 210.623 220.368 208.903 219.899 207.171C218.699 202.763 217.518 198.353 216.324 193.945C215.852 192.206 215.523 190.408 214.851 188.752C213.385 185.129 211.742 181.577 210.193 178.043ZM57.21 214.397C58.2393 215.122 58.9011 215.768 59.6929 216.11C61.7387 216.997 63.8288 217.782 65.9221 218.545C68.5221 219.492 71.0937 220.591 73.7697 221.243C80.6513 222.924 86.9186 225.964 93.0149 229.444C94.7187 230.416 96.2958 231.753 98.4999 231.316C98.8229 231.252 99.203 231.452 99.5545 231.54C104.295 232.715 109.046 233.83 113.913 234.333C115.503 234.498 117.042 234.273 118.505 233.608C119.766 233.035 121.02 232.452 122.195 231.911C122.727 230.578 122.207 229.755 121.108 229.153C120.579 228.862 120.123 228.437 119.582 228.178C117.033 226.943 114.452 225.771 111.905 224.53C106.788 222.041 101.499 220.04 95.9031 218.951C90.7537 217.947 85.598 216.956 80.4201 216.113C76.49 215.477 72.5219 215.075 68.5665 214.587C66.3528 214.315 64.1392 214.011 61.9192 213.852C60.5099 213.751 59.0436 213.536 57.2068 214.4L57.21 214.397ZM124.291 252.078C123.962 250.992 123.192 250.625 122.435 250.27C121.726 249.938 120.96 249.716 120.275 249.339C117.001 247.531 113.752 245.676 110.48 243.868C109.324 243.228 108.165 242.55 106.933 242.094C102.918 240.609 98.8894 239.156 94.8168 237.839C93.6546 237.465 92.3182 237.446 91.0799 237.541C88.8061 237.715 86.5513 238.225 84.2774 238.355C80.702 238.557 77.2659 239.365 73.8457 240.315C72.7531 240.619 71.6795 241.002 70.5996 241.347C72.2686 242.319 73.8552 243.054 75.5146 243.532C76.9809 243.953 78.5295 244.089 80.0401 244.352C82.2316 244.735 84.4231 245.115 86.6114 245.508C90.399 246.185 94.2215 246.724 97.8729 248.016C99.3233 248.529 100.302 249.434 100.508 251.093C100.653 252.268 101.021 253.414 101.296 254.602C101.831 254.627 102.246 254.656 102.664 254.662C106.952 254.697 111.243 254.276 115.519 255.048C116.9 255.299 118.331 255.349 119.686 254.485C121.14 253.56 122.749 252.876 124.294 252.085L124.291 252.078ZM187.081 221.205C185.403 219.077 183.781 217.611 181.995 216.246C180.488 215.094 179.005 213.723 178.005 212.136C176.922 210.423 176.168 208.549 174.208 207.592C173.679 207.336 173.182 206.991 172.722 206.627C172.592 206.525 172.637 206.202 172.605 206.006C172.032 205.943 171.43 205.943 170.867 205.797C169.353 205.407 167.874 204.888 166.351 204.549C164.501 204.138 163.196 202.938 162.192 201.525C161.534 200.601 161.274 199.328 161.065 198.169C160.878 197.14 161.477 196.437 162.414 195.842C163.617 195.078 164.786 194.16 165.723 193.096C167.864 190.667 170.265 188.581 173.023 186.906C173.777 186.447 174.6 186.111 175.626 185.601C174.968 185.072 174.489 184.689 174.011 184.306C172.162 185.139 170.363 185.994 168.526 186.763C164.232 188.562 160.286 190.864 157.344 194.575C156.159 196.069 154.668 197.393 154.32 199.426C154.054 200.965 153.673 202.485 153.496 204.033C153.426 204.638 153.626 205.382 153.955 205.901C155.086 207.684 156.292 209.423 157.55 211.117C158.069 211.816 158.693 212.589 159.45 212.941C161.584 213.928 163.751 214.97 166.015 215.518C169.394 216.335 172.526 217.741 175.699 219.042C178.8 220.312 182.017 221.018 185.276 221.604C185.729 221.686 186.245 221.401 187.075 221.208L187.081 221.205ZM178.328 181.871C181.821 182.359 183.205 182.194 185.688 181.437C189.706 180.215 193.747 179.075 197.788 177.932C201.436 176.9 205.015 175.703 208.28 173.746C207.53 171.314 205.715 170.358 203.257 170.937C199.337 171.865 195.41 172.777 191.464 173.594C189.957 173.907 188.636 174.515 187.3 175.24C184.411 176.805 181.909 178.901 179.262 180.794C178.929 181.032 178.711 181.425 178.331 181.871H178.328ZM100.533 255.498C100.112 256.518 99.716 257.208 99.5513 257.955C99.3867 258.699 99.1238 259.757 99.488 260.213C100.188 261.093 99.8237 261.822 99.7793 262.683C99.5798 266.476 99.4722 270.276 99.3455 274.076C99.336 274.364 99.45 274.655 99.564 275.251C99.8363 274.741 99.963 274.541 100.052 274.326C101.632 270.482 103.165 266.616 104.805 262.797C105.439 261.318 106.161 259.751 108.248 259.95C108.409 259.966 108.561 260.099 108.694 260.169C108.795 260.704 108.887 261.195 109.03 261.942C111.088 260.27 111.899 258.098 113.128 256.081C108.818 255.102 104.66 255.634 100.539 255.501L100.533 255.498ZM168.96 200.205C170.771 200.37 172.257 200.522 173.745 200.639C175.484 200.778 177.235 200.816 178.964 201.031C180.155 201.18 181.305 201.611 182.492 201.814C183.664 202.013 184.031 201.563 183.708 200.395C183.483 199.587 183.186 198.796 182.872 198.014C181.713 195.126 180.532 192.244 179.281 189.167C176.288 191.044 173.064 192.178 170.623 194.61C171.313 196.687 169.932 198.172 168.96 200.202V200.205ZM141.585 30.9976C141.554 30.8805 141.522 30.7633 141.49 30.643C140.838 30.358 140.157 30.1269 139.543 29.7817C138.089 28.9616 136.86 29.2656 135.543 30.206C134.327 31.0736 132.978 31.8241 131.588 32.3719C129.07 33.3567 126.492 34.1958 123.914 35.0159C119.785 36.33 115.63 37.5554 111.5 38.8695C110.268 39.2622 109.093 39.829 107.76 40.3704C108.039 40.8011 108.137 41.1557 108.349 41.2475C109.787 41.8587 111.164 41.9283 112.612 41.0639C114.993 39.6421 117.694 38.7808 120.396 39.1102C122.635 39.3825 124.513 39.069 126.381 38.0019C126.59 37.8847 126.837 37.8309 127.03 37.6947C127.214 37.5649 127.496 37.3496 127.48 37.2008C127.328 35.7917 128.43 35.3009 129.33 34.7847C131.708 33.4232 134.324 32.5334 137.022 32.3244C138.735 32.1914 140.046 31.3586 141.589 30.9976H141.585ZM152.936 29.5379C151.501 30.0667 150.389 30.6177 149.591 31.7481C151.251 32.4384 152.543 31.6436 152.936 29.5379ZM17.7126 208.637C16.7277 210.35 16.8575 212.127 17.7126 213.039V208.637ZM219.792 286.311C219.7 286.162 219.611 286.013 219.519 285.868C218.49 286.419 217.461 286.967 216.432 287.517L216.603 287.878C217.664 287.356 219.079 287.609 219.789 286.314L219.792 286.311ZM220.352 270.57C221.404 271.153 221.777 270.928 221.91 270.181C221.923 270.115 221.781 270.02 221.635 269.849C221.321 270.026 220.989 270.213 220.349 270.57H220.352ZM212.397 289.221C212.369 289.069 212.34 288.92 212.312 288.768C211.78 288.968 211.248 289.167 210.715 289.367C210.741 289.455 210.769 289.544 210.795 289.633C211.327 289.497 211.862 289.357 212.394 289.221H212.397Z" fill="#8DC0FF"/>
<path d="M79.5621 260.793C79.8978 260.631 80.2367 260.47 80.5724 260.308C80.6167 260.378 80.6579 260.447 80.7022 260.52C80.4014 260.729 80.0973 260.935 79.7965 261.144C79.7173 261.027 79.6413 260.913 79.5621 260.796V260.793Z" fill="#8DC0FF"/>
<path d="M158.618 120.92C159.384 120.737 160.017 120.585 160.746 120.411C161.328 121.319 162.108 122.231 161.43 123.305C161.167 123.72 160.112 124.074 159.701 123.872C158.618 123.343 158.45 122.225 158.618 120.917V120.92Z" fill="#8DC0FF"/>
<path d="M183.259 114.366C182.753 115.253 182.027 115.607 181.128 115.588C180.431 115.576 179.994 115.151 179.899 114.48C179.792 113.726 180.362 113.682 180.922 113.53C181.856 113.28 182.569 113.489 183.259 114.366Z" fill="#8DC0FF"/>
<path d="M195.691 193.448C195.663 194.645 195.09 195.174 194.288 195.345C193.927 195.421 193.278 195.199 193.12 194.914C192.854 194.433 193.012 193.762 193.646 193.6C194.285 193.439 194.982 193.493 195.691 193.448Z" fill="#8DC0FF"/>
</svg>
