<svg width="309" height="655" viewBox="0 0 309 655" fill="none" xmlns="http://www.w3.org/2000/svg">
<path d="M202.479 598.167C200.533 599.891 198.011 598.556 195.838 599.215C195.551 600.093 196.313 600.46 196.785 600.831C199.486 602.957 201.228 606.1 204.313 607.829C205.449 608.466 206.495 608.694 207.852 608.743C210.933 608.854 213.971 609.261 216.342 611.908C220.795 616.882 225.567 621.56 230.615 625.949C231.599 626.806 233.244 627.62 232.214 629.522C232.128 629.677 232.379 630.077 232.553 630.302C234.053 632.248 234.248 634.54 234.713 636.856C234.996 638.266 233.221 639.089 234.311 640.38C235.103 641.318 235.255 642.455 235.176 643.704C235.11 644.752 235.127 645.666 233.929 646.06C233.196 646.301 233.105 647.035 232.738 647.588C231.361 649.666 228.919 651.056 228.769 653.945C228.758 654.149 227.94 654.37 227.474 654.481C225.461 654.962 223.466 655.255 221.379 654.694C219.789 654.265 218.067 654.046 216.467 654.49C213.571 655.291 210.84 654.984 208.154 653.792C205.37 652.557 202.585 651.322 199.819 650.047C198.553 649.464 197.292 649.02 195.858 649.143C194.315 649.275 192.821 648.843 191.82 647.709C190.005 645.651 187.606 644.819 185.112 644.287C183.179 643.874 181.7 642.888 180.281 641.645C176.364 638.217 172.375 634.869 168.529 631.362C166.795 629.78 165.316 627.914 163.757 626.145C160.172 622.078 155.828 618.988 150.813 617.093C148.111 616.073 147.36 613.479 145.387 611.961C145.211 611.826 145.145 611.39 145.2 611.131C145.739 608.64 146.341 606.131 148.199 604.258C148.738 603.714 149.064 603.266 149.063 602.541C149.06 599.687 149.105 596.833 149.041 593.98C149.003 592.37 148.741 590.892 146.677 590.475C145.889 590.316 145.224 589.516 144.518 588.988C142.677 587.614 142.654 587.596 143.761 585.66C144.067 585.125 144.235 584.595 144.289 584.001C144.771 578.818 145.283 573.637 145.722 568.449C145.863 566.782 144.985 565.205 145.163 563.495C145.526 559.98 145.99 556.47 145.899 552.923C145.884 552.316 145.935 551.592 146.453 551.315C148.014 550.483 147.865 548.873 148.44 547.566C149.375 545.437 148.87 543.487 148.037 541.596C146.662 538.481 147.066 535.298 147.311 532.083C147.643 527.713 148.939 523.352 148.237 518.988C147.498 514.387 147.66 509.811 147.732 505.219C147.792 501.41 147.616 497.591 147.587 493.794C147.553 489.357 147.336 484.744 145.216 480.47C144.221 478.468 144.297 475.933 143.901 473.637C143.786 472.966 143.928 472.263 143.583 471.618C141.569 467.849 140.835 463.653 139.619 459.621C138.963 457.446 137.508 455.675 136.701 453.567C136.172 452.185 135.573 450.907 135.685 449.352C135.838 447.254 135.214 445.358 134.131 443.496C133.008 441.565 132.115 439.444 132.669 437.068C131.651 436.991 132.016 437.643 131.899 437.974C131.769 438.34 131.755 438.749 131.606 439.104C131.45 439.473 131.137 439.75 130.716 439.793C130.244 439.842 129.992 439.487 129.883 439.122C129.35 437.339 128.813 435.554 128.367 433.749C128.085 432.606 127.797 431.424 127.797 430.259C127.797 426.902 125.637 424.453 124.37 421.628C124.129 421.09 123.741 420.766 123.25 421.115C122.075 421.951 121.258 420.592 120.211 420.702C119.509 421.341 119.808 422.18 119.803 422.92C119.771 429.022 119.789 435.125 119.769 441.228C119.762 443.677 119.756 443.848 117.511 444.082C114.374 444.407 112.413 446.027 110.945 448.721C109.919 450.607 108.521 452.277 107.965 454.426C107.712 455.404 107.063 456.105 106.023 456.477C102.738 457.653 101.7 460.507 100.921 463.521C100.608 464.732 100.821 465.734 102.22 465.983C104.542 466.397 104.626 467.996 104.602 469.888C104.526 475.794 104.551 481.7 104.58 487.606C104.587 489.101 104.213 490.587 106.061 491.705C106.991 492.268 107.226 494.113 107.14 495.507C106.883 499.635 107.39 503.747 107.543 507.855C107.683 511.66 107.771 515.499 108.18 519.303C108.577 522.999 107.431 524.038 103.889 523.265C102.797 523.026 101.671 522.944 100.667 522.26C99.857 524.216 99.5236 526.013 99.5776 527.89C99.7023 532.208 99.2369 536.539 100.029 540.843C100.276 542.19 100.019 543.564 99.6651 544.926C98.9695 547.608 98.6265 550.318 99.5248 553.062C100.237 555.237 100.153 557.528 100.147 559.773C100.134 565.362 100.52 570.888 101.413 576.427C101.753 578.538 101.545 580.922 101.295 583.157C101.185 584.149 102.109 585.112 101.44 585.965C100.869 586.692 99.7431 586.278 98.9515 586.698C98.5185 586.928 98.0184 587.064 97.6382 587.358C95.2562 589.196 93.9668 596.074 95.5056 598.739C96.0454 599.673 96.6738 600.556 97.2639 601.461C97.3179 601.542 97.3695 601.641 97.4486 601.69C99.1926 602.783 98.3038 605.122 99.586 606.341C100.871 607.564 102.162 608.728 102.931 610.364C103.103 610.73 103.276 611.062 102.834 611.645C100.304 610.918 97.7065 610.161 96.037 607.77C95.0427 606.347 94.1239 605.627 92.2145 606.437C90.9515 606.973 89.3863 607.19 87.9051 606.778C87.6256 606.7 87.3186 606.676 87.0271 606.69C80.229 607.055 73.486 605.828 66.6866 606.02C62.0654 606.149 57.5425 606.978 52.992 607.595C48.7245 608.174 44.4919 609.034 40.3192 610.137C38.8787 610.519 37.4179 609.679 35.8862 610.231C37.6086 609.191 38.4769 607.282 40.6922 606.445C39.2265 605.895 38.1351 606.023 37.0053 606.326C31.3142 607.851 25.5331 608.931 19.7424 610.014C15.8912 610.735 12.1239 611.959 8.37218 613.129C6.71942 613.645 5.08945 613.723 3.42589 613.654C1.49847 613.575 0.598921 612.485 1.4265 610.736C2.4196 608.636 2.4088 606.712 1.94344 604.52C1.48887 602.382 2.24449 600.191 2.91375 598.195C3.78451 595.596 4.12513 592.85 5.22618 590.338C5.62797 589.422 5.1794 588.943 4.66606 588.28C3.34073 586.573 3.37791 585.63 4.60009 583.772C6.41957 581.01 9.34729 579.787 12.1419 578.39C12.5725 578.174 13.147 578.211 13.5368 577.952C17.2885 575.454 21.4923 575.5 25.7538 575.595C30.4782 575.699 35.2086 575.525 39.9306 575.664C41.816 575.719 43.3621 575.049 44.9536 574.3C45.1959 574.186 45.6757 574.131 45.455 573.765C44.1261 571.562 46.3833 571.439 47.2973 570.569C47.9317 569.965 48.6922 569.514 49.1983 568.749C49.5989 568.145 50.0055 567.678 49.3686 566.957C48.4679 565.936 48.8145 564.815 49.1467 563.635C51.6415 554.776 54.2693 545.963 57.2534 537.253C58.2657 534.3 58.899 531.218 60.1979 528.355C60.4822 527.729 60.5601 526.788 61.0363 526.51C63.2036 525.243 62.5607 523.199 62.8126 521.32C63.7289 514.472 63.1184 507.586 63.5106 500.738C63.6726 497.906 63.6774 494.843 65.4129 492.283C65.8854 491.586 66.0941 490.787 65.8782 490.034C65.3097 488.05 65.3109 485.981 64.7424 483.982C62.5523 476.277 60.1571 468.619 58.5176 460.774C57.8627 457.64 57.75 454.391 57.2174 451.206C57.0039 449.931 57.4525 448.366 57.666 446.968C57.8171 445.984 58.7946 444.842 60.2963 445.202C61.2834 445.438 61.5508 444.921 61.4909 444.094C61.3122 441.653 61.7607 439.186 61.0231 436.761C60.5625 435.244 60.8588 433.63 60.8288 432.058C60.8144 431.3 61.0363 430.781 61.8915 430.554C63.1496 430.222 63.519 429.221 63.4051 428.025C62.9853 423.594 64.1283 419.252 64.1463 414.827C64.1583 412.146 64.86 409.436 64.6525 406.791C65.1358 406.658 65.3289 406.536 65.486 406.572C69.5664 407.513 69.7007 407.419 69.6971 403.373C69.6935 398.664 70.298 394.015 70.9169 389.358C71.4698 385.195 71.7745 380.999 72.3082 376.832C72.9882 371.515 74.1133 366.269 74.996 360.984C76.0935 354.415 77.8158 347.966 78.6794 341.352C78.918 339.517 79.3486 337.669 79.9855 335.935C81.324 332.288 81.5615 328.512 81.9081 324.702C82.1108 322.478 82.3423 320.242 82.4574 318.012C82.5306 316.595 82.635 314.988 80.8587 314.251C80.3933 314.058 80.0994 313.63 79.9879 313.121C79.4182 310.528 78.8677 307.888 79.0236 305.255C79.1099 303.796 79.2371 302.327 79.2275 300.864C79.1627 291.347 80.2314 281.862 80.0263 272.342C79.9903 270.674 79.7348 268.979 79.9459 267.343C80.8191 260.589 79.8931 253.742 80.7099 247.061C81.372 241.642 81.1549 236.317 81.1741 230.946C81.1789 229.486 80.993 228.011 82.1132 226.749C82.6529 226.14 82.5366 225.234 82.2919 224.478C82.0365 223.688 81.5735 223.179 80.5504 223.287C79.5777 223.39 79.5837 223.95 79.4518 224.668C78.5426 229.595 77.0254 234.359 75.4866 239.116C75.3954 239.397 75.351 239.747 75.1579 239.931C73.1154 241.886 73.5987 244.411 73.5771 246.814C73.5508 249.767 73.4296 252.727 73.5831 255.672C73.8542 260.869 72.8911 265.832 70.9997 270.625C69.3385 274.835 68.2638 279.201 67.3451 283.607C67.068 284.935 67.3439 286.369 67.14 287.72C66.2285 293.771 67.8153 299.8 67.2168 305.854C67.0093 307.946 68.3154 309.781 68.8803 311.746C69.1922 312.83 69.5652 313.783 68.3598 314.614C67.9136 314.922 67.4818 315.548 67.4219 316.072C67.1196 318.711 65.3589 320.686 64.3922 323.017C63.6402 324.83 63.1304 326.685 62.6639 328.596C61.8327 331.998 60.3131 335.196 60.6741 338.887C60.8288 340.474 59.0477 341.371 57.4717 340.642C55.2936 339.636 52.9116 339.492 50.67 338.77C49.1011 338.266 48.4379 338.829 48.9596 340.266C49.5689 341.943 49.3254 343.593 49.2223 345.221C49.052 347.883 49.1191 350.496 49.5593 353.129C50.538 358.992 49.8484 364.909 50.0211 370.799C50.1182 374.137 50.2742 377.466 51.3272 380.662C51.9173 382.451 50.7623 384.1 51.1017 385.881C51.2253 386.528 50.3257 386.64 49.7428 386.684C48.0421 386.812 46.2574 385.596 45.7165 383.837C44.1309 378.673 42.6292 373.495 43.0466 367.982C43.2565 365.207 42.6124 362.502 42.1459 359.789C41.7273 357.356 41.7921 354.978 42.189 352.497C42.7192 349.182 43.0766 345.714 40.8613 342.271C39.9378 344.712 39.1726 346.924 38.6748 349.232C37.8293 353.159 37.5462 357.193 36.3792 361.062C36.1297 361.888 36.1165 362.821 36.1693 363.695C36.4775 368.775 36.9309 373.824 38.0871 378.812C38.9027 382.331 39.3345 385.942 39.8598 389.523C40.0002 390.48 39.945 391.492 38.6904 391.881C36.6934 392.498 35.9774 392.366 35.2338 390.9C34.7936 390.033 34.4302 389.081 34.2635 388.128C33.1816 381.964 31.9702 375.814 31.1786 369.613C30.3714 363.294 30.3331 356.909 30.3702 350.533C30.3798 348.928 30.8104 347.221 29.8617 345.61C27.0227 347.014 25.2009 349.138 23.9475 351.876C23.3406 353.204 23.337 354.542 23.3358 355.908C23.325 366.143 23.3358 376.379 23.331 386.614C23.331 388.869 23.253 391.124 23.289 393.378C23.307 394.533 22.9016 395.248 21.7514 395.524C20.3601 395.856 19.5865 395.432 19.692 393.982C19.9571 390.322 19.5505 386.659 18.8573 383.162C18.0645 379.168 19.048 375.084 17.743 371.198C17.713 371.107 17.7107 371.004 17.7119 370.905C17.8174 365.212 16.6732 359.572 17.0198 353.861C17.1182 352.236 17.6783 350.827 18.2636 349.368C19.3142 346.749 20.2654 344.09 21.2381 341.501C20.3613 340.759 19.427 340.81 18.8753 341.187C15.8084 343.277 11.9848 343.919 9.1254 346.41C8.20787 347.208 7.41507 347.784 7.44745 349.236C7.48823 351.049 6.43636 352.819 7.06365 354.711C7.11522 354.866 7.05165 355.201 6.9533 355.242C4.82438 356.123 6.06335 357.611 6.22527 358.947C6.78659 363.606 7.30113 368.27 7.79767 372.935C7.86004 373.521 7.68853 374.211 7.08164 374.432C6.22767 374.744 5.92302 374.085 5.61478 373.408C5.09185 372.258 4.36261 371.242 4.3974 369.848C4.48735 366.216 3.70175 362.669 3.0145 359.133C2.6235 357.117 2.04539 355.15 1.8187 353.085C1.68317 351.849 1.11466 350.633 0.597722 349.471C-0.367789 347.302 -0.24665 346.159 1.57523 344.609C3.81089 342.705 5.92542 340.677 8.56049 339.224C10.1329 338.357 11.5458 336.942 12.6096 335.469C14.1844 333.288 16.3409 332.038 18.6054 330.878C19.8792 330.226 20.9226 329.53 21.2309 327.982C21.5919 326.174 22.9868 324.968 24.0926 323.606C24.6192 322.957 25.3424 322.807 26.128 322.59C31.0179 321.235 36.0877 320.787 41.0028 319.554C44.9716 318.559 44.9453 318.645 44.7989 314.506C44.7066 311.898 44.7821 309.283 44.7821 305.969C46.8835 307.902 48.234 309.77 50.0607 310.662C52.2496 311.73 51.8969 314.477 54.033 315.618C54.3209 313.741 53.738 312.196 53.3374 310.66C52.3239 306.771 51.6954 302.905 51.9137 298.82C52.2028 293.423 51.9701 287.997 51.9329 282.583C51.9269 281.737 52.1944 280.7 51.2157 280.204C50.1698 279.676 49.6373 280.658 48.9836 281.191C48.4583 281.621 47.9617 282.087 47.2613 282.708C46.6748 281.725 46.291 280.961 46.5644 279.652C47.0358 277.397 47.8274 275.259 48.4151 273.074C50.0151 267.117 53.2199 261.607 53.7584 255.412C54.1146 251.312 54.9002 247.283 55.2612 243.186C55.6714 238.525 56.5866 233.908 57.2918 229.274C57.6732 226.768 58.045 224.264 58.3413 221.744C58.9338 216.708 59.6162 211.678 60.4666 206.679C61.1538 202.639 61.6576 198.56 62.7742 194.596C66.3664 181.837 70.3892 169.234 76.3453 157.342C78.0605 153.917 79.9111 150.558 81.7354 147.188C82.4466 145.874 82.876 144.637 82.5654 143.032C82.13 140.779 82.5606 140.436 84.933 140.101C86.8844 139.825 87.9495 137.857 86.7908 136.315C85.0913 134.054 83.6856 131.546 81.4104 129.732C80.169 128.742 79.2767 127.4 78.5498 126.006C77.8686 124.697 78.5798 123.824 80.0755 124.04C83.0811 124.476 86.112 124.23 89.1525 124.718C93.4163 125.402 97.5998 126.426 101.837 127.2C103.1 127.43 104.307 127.329 105.624 127.584C105.254 125.002 102.258 124.91 101.746 122.363C105.1 122.547 108.223 122.91 111.103 124.324C113.578 125.54 116.034 126.703 118.803 127.111C122.524 127.659 125.259 130.245 128.442 131.909C129.107 132.255 129.578 133.036 130.503 132.84C131.276 131.904 130.503 130.708 131.095 129.736C131.646 128.834 131.099 128.292 130.29 127.899C127.919 126.742 126.26 124.829 124.761 122.726C124.254 122.014 123.651 121.312 122.944 120.811C121.013 119.438 120.162 117.394 119.917 115.268C119.651 112.951 118.992 110.913 117.525 109.011C116.598 110.006 115.142 110.016 113.938 110.663C111.931 111.743 110.063 111.944 107.972 110.244C106.644 109.163 104.724 108.603 103.069 107.918C101.566 107.295 99.5776 107.33 97.9848 108.49C97.5086 108.836 96.9881 109.123 96.4795 109.421C95.5404 109.973 94.4034 110.806 93.4943 110.147C92.7218 109.587 93.4427 108.161 93.282 107.35C92.6979 104.41 94.9275 102.862 95.9722 100.727C95.6136 99.9318 94.8196 99.7496 94.1287 99.3875C91.1518 97.8263 88.4892 95.9749 86.6553 92.9748C85.5243 91.1247 85.3168 89.2625 85.6358 87.338C86.1492 84.2384 87.1675 81.2552 88.5348 78.417C89.5626 76.2838 91.4145 74.9648 93.4991 74.0703C98.822 71.7861 104.495 70.629 110.055 69.1086C110.243 69.057 110.457 69.099 110.641 69.0403C113.017 68.2788 115.256 66.8484 118.204 67.9527C117.151 64.7908 117.441 61.9825 117.496 59.1707C117.541 56.9225 117.546 54.6143 117.09 52.432C116.575 49.9739 116.7 47.5446 116.64 45.0961C116.535 40.7627 118.474 37.6163 122.154 35.4304C124.178 34.2277 126.359 33.2949 128.213 31.79C128.714 31.3835 129.466 31.1221 130.118 31.0886C135.384 30.8164 140.614 29.7912 145.938 30.9663C150.041 31.8716 154.257 32.2685 158.425 32.8716C162.615 33.4783 166.574 34.9472 170.588 36.1906C172.538 36.7949 174.595 36.982 176.46 37.9856C178.938 39.319 180.653 41.1751 181.473 43.8562C181.704 44.6081 181.9 45.3683 182.127 46.1213C182.811 48.3911 182.823 50.4403 181.176 52.4835C179.302 54.8073 178.626 57.5004 178.693 60.6612C178.809 66.1265 178.553 71.6518 176.388 76.8498C176.214 77.2683 176.285 77.7899 176.216 78.5393C179.421 77.6448 182.294 76.5392 184.908 74.8809C188.967 72.3065 192.929 69.581 196.981 66.997C201.197 64.3087 205.366 61.5341 209.484 58.7175C219.615 51.7845 230.023 45.2843 240.245 38.494C245.072 35.2865 250.015 32.2505 254.928 29.1725C263.833 23.592 272.856 18.2046 282.042 13.1002C288.31 9.61688 294.677 6.30985 300.99 2.9069C302.025 2.34933 303.04 1.7438 304.015 1.08671C305.484 0.0962836 307.046 -0.252645 308.905 0.187413C308.736 1.38888 307.7 1.62989 306.901 2.02558C300.217 5.33861 293.622 8.85307 287.292 12.7632C282.277 15.8616 277.086 18.6554 272.127 21.845C266.589 25.4062 260.808 28.5969 255.361 32.2852C246.495 38.2902 237.221 43.6596 228.462 49.8312C223.169 53.5603 217.652 56.9704 212.264 60.5676C205.912 64.8087 199.594 69.1026 193.255 73.3641C190.817 75.0032 188.297 76.5284 185.929 78.2611C183.236 80.2312 180.931 82.6425 178.633 85.1317C179.846 86.3884 180.96 87.5515 182.083 88.7062C185.344 92.0659 187.325 96.3394 190.148 100.015C190.727 100.768 191.338 101.63 191.423 102.644C191.493 103.483 191.849 104.561 190.895 105.036C190.036 105.463 188.986 105.59 188.154 104.739C187.192 103.754 186.214 102.786 185.266 101.789C182.77 99.168 179.636 97.6188 175.972 96.0948C176.495 98.475 175.573 100.509 176.778 102.68C177.431 103.86 175.918 105.636 176.26 107.276C176.278 107.364 175.834 107.633 175.582 107.673C174.796 107.794 174.075 108.061 173.231 108.527C174.18 109.66 174.925 110.86 175.472 112.233C176.106 113.824 176.603 115.544 178.204 116.671C179.197 117.37 180.047 118.487 179.164 119.926C178.452 121.087 176.728 121.661 175.33 120.792C173.519 119.665 171.445 118.903 170.026 117.158C168.356 115.101 166.2 113.49 164.657 111.21C162.005 112.692 159.841 114.372 158.914 117.286C158.654 118.102 158.287 118.859 157.386 119.347C156.512 119.821 155.546 120.603 157.413 121.281C157.994 121.492 157.615 122.07 157.425 122.533C156.763 124.149 155.455 124.972 153.88 125.369C152.521 125.712 151.259 126.245 150.1 126.984C148.941 127.721 148.76 128.646 149.603 129.706C150.088 130.315 150.518 131.046 151.077 131.504C152.841 132.954 154.506 134.38 154.862 136.826C154.937 137.336 155.523 137.477 156.04 137.535C158.03 137.756 159.788 136.627 160.461 134.674C161.208 132.507 161.208 132.519 163.588 132.458C167.115 132.368 170.589 131.705 174.089 131.417C177.507 131.135 180.928 130.829 184.351 130.593C185.477 130.515 186.495 130.942 187.447 131.431C187.933 131.681 188.66 132.4 188.57 132.681C188.009 134.437 189.052 136.152 188.528 137.898C187.673 140.744 188.015 143.737 187.63 146.647C187.555 147.211 187.551 148.001 187.874 148.362C189.582 150.264 189.094 152.814 189.936 154.971C190.295 155.889 191.114 157.582 188.793 157.69C188.316 157.712 188.382 158.208 188.465 158.612C189.049 161.458 189.615 164.31 190.184 167.159C190.223 167.352 190.175 167.595 190.277 167.735C192.394 170.644 191.599 174.073 191.891 177.276C192.118 179.754 192.367 182.096 193.897 184.189C195.687 186.641 195.763 189.694 196.554 192.497C197.993 197.591 199.126 202.733 199.414 208.036C199.45 208.702 199.384 209.381 199.816 210.018C200.532 211.075 200.373 212.23 200.082 213.427C199.517 215.75 199.492 218.068 200.239 220.394C201.174 223.305 200.876 226.388 201.317 229.38C201.784 232.549 201.666 235.804 202.114 238.978C202.591 242.373 203.212 245.732 203.434 249.171C203.622 252.08 204.371 254.95 204.646 257.857C204.867 260.199 204.75 262.572 204.788 264.931C204.819 266.849 204.51 268.861 206.893 269.858C207.417 270.077 207.562 271.01 207.471 271.741C207.126 274.542 207.032 277.364 206.108 280.094C205.228 282.689 204.791 285.47 204.881 288.166C205.019 292.316 204.476 296.422 204.016 300.472C203.479 305.199 203.756 309.884 203.566 314.582C203.531 315.44 203.369 316.346 203.877 317.214C204.83 317.474 205.412 316.69 205.762 316.155C206.613 314.857 207.699 316.185 208.612 315.726C208.891 315.585 209.138 316.214 209.165 316.596C209.184 316.877 209.119 317.185 209.016 317.451C207.752 320.726 208.12 324.338 206.81 327.634C206.103 329.414 206.381 330.973 208.234 332.489C211.341 335.029 214.717 337.257 217.568 340.117C217.967 340.518 218.548 340.787 219.092 340.983C222.893 342.346 225.295 345.319 227.535 348.417C228.059 349.142 228.518 349.853 229.261 350.355C234.059 353.596 238.079 357.902 243.346 360.52C245.299 361.492 246.143 363.719 247.89 365.059C249.908 366.607 251.782 368.317 253.953 369.705C256.049 371.047 255.916 372.456 253.577 373.169C249.914 374.287 246.408 376.039 242.697 376.708C240.79 377.052 238.014 377.464 236.355 375.015C235.915 374.365 234.868 374.124 233.969 373.621C235.252 370.334 237.805 368.577 241.113 367.522C240.956 366.663 240.236 366.478 239.713 366.148C236.888 364.36 234.053 362.585 231.213 360.82C229.592 359.813 228.417 360.195 227.871 362.028C227.625 362.853 227.506 363.818 227.677 364.648C228.889 370.53 228.741 376.541 229.376 382.478C229.718 385.672 230.326 388.895 230.148 392.14C230.008 394.717 230.807 397.199 230.753 399.766C230.706 401.979 230.549 404.097 228.296 405.319C228.655 405.905 228.907 406.321 229.162 406.736C230.566 409.021 230.158 409.941 227.489 409.802C225.459 409.696 223.452 409.164 221.956 407.461C219.751 404.951 217.43 402.54 215.177 400.07C214.653 399.496 214.263 398.787 213.455 398.513C212.876 398.717 212.974 399.296 212.835 399.701C211.62 403.277 210.755 403.879 206.954 403.821C206.039 403.807 205.357 403.684 204.659 402.886C203.847 401.957 202.683 401.302 201.6 400.647C199.657 399.473 198.727 397.459 197.42 395.761C197.082 395.322 197.026 394.618 197.458 394.11C197.882 393.611 198.356 394.151 198.797 394.142C201.699 394.088 204.039 395.453 206.362 397.448C207.498 391.517 209.228 386.136 209.827 380.539C210.109 377.91 209.895 375.229 209.89 372.572C209.89 371.956 209.719 371.377 209.047 371.18C208.376 370.982 207.991 371.432 207.566 371.88C204.642 374.967 202.47 378.571 200.434 382.259C198.494 385.776 196.256 389.138 194.855 392.94C194.192 394.739 192.484 395.232 190.921 395.661C187.489 396.604 185.91 395.8 183.687 392.702C181.377 389.483 179.769 385.899 177.987 382.399C177.663 381.763 177.356 381.128 177.866 380.484C178.472 379.717 179.1 380.388 179.722 380.523C183.1 381.259 185.248 383.64 187.307 386.153C187.986 386.981 188.72 387.764 189.31 388.433C190.05 388.586 190.238 388.16 190.354 387.838C192.173 382.774 194.924 378.082 196.167 372.777C196.63 370.804 197.611 368.937 198.471 367.073C199.113 365.684 199.192 364.215 199.242 362.765C199.313 360.716 198.65 358.994 196.799 357.741C195.513 356.87 194.428 355.681 193.333 354.555C191.83 353.009 190.536 351.271 188.75 349.99C187.986 349.442 187.07 348.693 188.655 347.817C189.997 347.076 189.173 346.235 188.586 345.41C186.37 342.297 184.134 339.196 182.012 336.02C180.502 333.758 180.689 333.427 183.319 332.755C183.866 332.614 184.617 332.695 184.643 331.902C184.668 331.174 184.062 330.938 183.438 330.9C181.604 330.786 181.277 329.646 181.268 328.062C181.254 325.203 181.853 322.409 182.114 319.585C182.436 316.085 182.757 312.574 183.164 309.078C183.663 304.797 184.197 300.521 184.691 296.241C185.129 292.446 185.435 288.633 185.982 284.854C186.548 280.944 186.518 277.023 186.583 273.096C186.668 267.981 185.965 262.977 184.93 257.973C184.18 254.347 183.552 250.679 183.307 246.949C183.083 243.526 182.216 240.177 181.373 236.851C180.7 234.196 180.695 231.407 180.066 228.82C179.13 224.963 179.992 221.003 178.837 217.22C178.618 216.5 178.733 215.648 178.818 214.871C179.011 213.107 178.482 211.631 177.23 210.396C176.236 211.864 176.006 213.46 176.477 215.15C177.043 217.185 176.477 219.244 176.657 221.305C177.051 225.824 178.601 230.106 179.04 234.637C179.312 237.449 178.95 240.13 178.603 242.79C178.35 244.736 178.163 246.654 178.145 248.604C178.133 249.778 178.156 250.924 177.786 252.096C177.104 254.26 178.113 256.355 178.445 258.453C178.771 260.519 178.986 262.528 178.561 264.578C177.965 267.456 178.236 270.402 177.648 273.317C176.98 276.629 176.116 279.93 175.938 283.352C175.877 284.529 175.777 285.64 175.981 286.829C176.773 291.449 177.558 296.075 178.11 300.728C178.409 303.246 178.429 305.879 176.064 307.713C175.92 307.825 175.744 308.038 175.757 308.188C176.022 311.282 174.584 314.481 175.867 317.425C176.52 318.921 176.541 319.979 175.65 321.105C173.927 323.283 174.541 325.976 173.935 328.397C173.774 329.038 174.216 329.492 174.903 329.63C175.476 329.745 176.101 329.782 176.6 330.047C177.724 330.646 178.057 331.749 177.25 332.715C175.167 335.208 174.8 338.207 174.391 341.241C173.488 347.94 173.122 354.69 172.372 361.403C172.036 364.403 171.392 367.368 170.899 370.351C170.769 371.144 170.424 371.831 170.044 372.53C168.654 375.087 168.068 377.768 169.218 380.813C168.441 380.204 167.623 378.914 166.765 376.942C165.918 377.118 165.778 377.822 165.762 378.468C165.686 381.714 165.62 384.961 165.653 388.207C165.66 388.956 165.872 389.903 166.359 390.394C166.872 390.913 167.878 390.567 168.705 390.805C169.807 391.123 170.553 389.724 170.544 388.381C170.534 386.51 170.526 384.64 170.572 382.77C170.59 382.023 170.329 381.223 171.147 380.108C171.147 382.277 171.19 384.03 171.138 385.78C171.011 390.123 172.138 394.254 172.89 398.479C173.651 402.753 175.006 406.915 175.257 411.326C175.449 414.697 176.556 418.018 177.287 421.354C177.904 424.168 178.731 426.864 178.318 429.908C178.044 431.925 178.921 434.119 178.808 436.293C178.636 439.619 178.261 442.999 180.455 445.93C180.216 448.544 181.533 450.852 181.912 453.331C183.138 461.348 183.822 469.399 184.047 477.533C184.199 483.005 184.03 488.546 184.715 493.954C185.17 497.545 184.648 501.196 185.69 504.75C186.143 506.293 184.983 507.929 185.095 509.646C185.187 511.026 185.145 512.373 185.773 513.662C186.068 514.267 186.332 514.961 186.342 515.62C186.412 520.102 187.422 524.542 187.022 529.032C186.842 531.046 187.99 532.907 187.626 534.844C187.127 537.503 187.727 540.106 187.665 542.731C187.619 544.607 188.596 546.341 188.303 548.255C187.659 552.449 188.467 556.653 188.309 560.861C188.209 563.502 189.076 566.088 189.799 568.608C191.018 572.856 192.041 577.15 192.858 581.476C193.396 584.326 193.539 587.262 193.957 590.153C194.162 591.578 194.622 592.497 195.811 593.226C197.651 594.355 199.435 595.575 201.23 596.777C201.702 597.094 202.321 597.288 202.479 598.171V598.167ZM185.449 590.608C185.38 589.688 185.002 589.16 184.557 588.643C183.186 587.051 182.767 585.36 184.268 583.632C184.858 582.952 184.634 582.399 184.312 581.763C183.256 579.671 183.173 577.428 183.259 575.149C183.3 574.078 183.319 573.024 182.934 571.952C181.972 569.27 181.155 566.536 180.257 563.831C179.91 562.789 179.779 561.769 179.937 560.655C180.372 557.589 179.48 554.389 180.858 551.411C180.058 548.799 180.757 546.303 181.22 543.728C181.46 542.396 182.121 541.12 181.984 539.719C181.503 534.828 181.386 529.866 180.433 525.068C179.566 520.7 178.482 516.338 177.236 512.028C176.351 508.965 175.943 505.712 175.755 502.518C175.635 500.498 175.997 498.459 175.233 496.487C174.885 495.592 175.009 494.666 175.635 493.985C177.35 492.117 176.917 490.07 176.459 487.9C176.116 486.276 175.962 484.534 177.551 483.298C178.326 482.695 178.15 482.003 177.906 481.188C177.154 478.664 176.146 476.152 175.853 473.566C175.057 466.523 173.06 459.533 174.554 452.345C174.592 452.163 174.492 451.956 174.492 451.761C174.498 448.985 173.481 446.185 174.715 443.427C174.845 443.136 174.606 442.678 174.534 442.299C174.441 441.811 174.308 441.232 174.705 440.903C176.328 439.565 175.679 437.839 175.469 436.263C175.329 435.201 175.242 434.094 174.971 433.08C174.306 430.579 174.865 427.927 174.098 425.516C172.047 419.068 169.809 412.68 167.582 406.291C166.089 402.008 164.825 397.694 164.825 393.105C164.825 388.979 164.741 384.852 164.822 380.728C164.894 377.109 164.418 373.462 165.428 369.877C165.684 368.963 165.538 367.926 165.292 366.952C165.126 366.29 164.846 365.543 165.003 364.933C165.935 361.291 165.671 357.533 166.183 353.855C166.344 352.695 166.967 351.61 166.708 350.383C166.066 347.346 166.838 344.332 167.003 341.324C167.266 336.492 166.795 331.714 166.554 326.918C166.482 325.49 165.74 325.07 164.27 325.811C161.744 327.086 159.53 326.498 157.316 325.177C156.894 324.925 156.494 324.633 156.058 324.408C151.861 322.244 147.467 320.819 142.747 320.181C139.486 319.74 136.101 319.657 133.031 318.184C131.701 317.545 130.373 316.895 129.013 316.328C127.039 315.504 125.171 314.539 122.935 314.252C119.568 313.82 116.13 313.362 112.946 312.125C108.514 310.402 103.833 309.872 99.2477 308.894C97.7641 308.578 96.2169 308.784 95.0619 309.873C95.2262 310.459 95.4541 310.6 95.7455 310.697C98.3998 311.579 98.4453 311.697 97.7893 314.408C97.2376 316.69 96.5143 318.959 96.2648 321.278C95.5608 327.822 93.9764 334.208 93.0061 340.703C91.9362 347.865 90.6637 355 89.354 362.124C88.8238 365.004 88.0082 367.835 87.2178 370.658C87.0223 371.355 86.7441 372.194 85.8205 372.426C83.411 373.028 82.6278 372.403 81.6826 369.873C80.885 367.74 81.0182 365.076 78.4635 363.655C77.6647 365.986 76.3381 367.976 75.796 370.445C75.3534 372.461 75.0632 374.469 74.7789 376.497C74.184 380.745 73.5004 384.983 72.9822 389.239C72.6284 392.149 72.5181 395.109 72.1667 398C71.5802 402.823 71.4194 407.571 72.2002 412.357C72.3286 413.14 72.3454 413.939 72.0647 414.692C71.5694 416.024 71.5742 417.409 71.6605 418.778C72.0635 425.17 70.9193 431.503 70.9529 437.879C70.9553 438.265 70.9589 438.696 70.803 439.033C69.6947 441.424 69.8542 444.021 69.4692 446.534C69.095 448.977 69.1682 451.546 68.0623 453.809C66.4791 453.646 67.4626 451.687 65.9454 451.466C65.9454 452.516 65.6851 453.588 66.0006 454.45C66.6351 456.187 66.4288 457.933 66.5391 459.684C66.8174 464.077 66.2237 468.481 66.8186 472.873C67.1496 475.32 67.5178 477.727 66.839 480.277C66.3124 482.254 67.0081 484.527 68.4581 485.978C69.6443 487.165 69.7211 488.315 69.6215 489.681C69.5436 490.757 69.2581 491.823 69.2317 492.896C68.9739 503.115 67.7769 513.236 66.1421 523.313C66.0006 524.186 65.5748 525.231 66.2141 525.876C67.5658 527.239 66.9565 528.631 66.4767 529.956C65.8183 531.772 66.1133 533.64 65.8723 535.473C65.5544 537.892 66.1865 540.366 65.3433 542.771C64.9739 543.824 65.4489 544.608 66.6626 544.937C67.85 545.258 68.9835 545.776 70.1361 546.207C69.8638 547.646 69.4584 548.829 68.7064 549.893C65.54 554.372 62.3304 558.823 59.2552 563.365C57.5557 565.876 56.0288 568.512 54.544 571.158C53.804 572.477 54.1962 573.169 55.6091 573.536C56.0792 573.658 56.5866 573.627 57.0711 573.703C61.7128 574.433 66.388 574.918 70.8377 576.659C74.4863 578.087 78.2644 579.183 81.9813 580.436C82.5906 580.641 83.1783 580.791 83.8523 580.46C83.3786 579.833 82.8293 579.633 82.2955 579.393C78.6158 577.748 74.9337 576.109 71.2695 574.432C70.3832 574.026 69.5304 573.525 68.7184 572.985C68.355 572.743 67.8824 572.351 68.3154 571.794C68.5565 571.482 68.8923 571.26 69.3349 571.337C72.9787 571.971 76.6536 572.409 80.0467 574.108C83.4721 575.822 86.9947 577.343 90.485 578.924C91.682 579.466 92.8418 580.158 94.4322 580.336C93.8769 577.127 93.9068 574.057 91.8775 571.523C91.0691 570.513 90.5797 569.356 90.6745 567.982C91.1818 560.612 89.7713 553.299 90.0412 545.926C90.2211 541.011 90.0376 536.084 90.0664 531.163C90.0784 529.199 90.1408 529.2 92.2121 529.293C94.2115 529.381 94.3602 529.254 94.4406 527.214C94.4874 526.035 94.2918 524.807 94.5545 523.682C95.5632 519.35 95.0607 515.1 94.1779 510.835C93.9116 509.548 93.7029 508.335 92.1665 507.94C91.5069 507.769 91.3138 507.175 91.3138 506.544C91.3138 504.576 91.0511 502.559 91.3881 500.649C92.3848 494.995 93.6658 489.391 94.7428 483.75C95.3461 480.587 96.2709 477.421 95.3401 474.15C95.0966 473.296 94.9359 472.504 93.8445 472.206C92.35 471.799 92.3057 470.566 92.6451 469.336C92.9581 468.201 93.3899 467.098 93.7797 465.986C96.735 457.548 98.8639 448.9 100.207 440.068C101.311 432.812 102.496 425.583 104.884 418.609C105.198 417.689 105.321 416.703 105.66 415.793C106.1 414.607 106.68 413.667 108.274 414.463C109.124 414.887 110.138 415.016 111.094 415.181C112.674 415.456 113.409 415.012 113.469 413.408C113.574 410.584 113.777 407.692 112.034 405.174C111.673 404.652 111.589 404.075 111.689 403.485C112.375 399.432 112.41 395.263 113.603 391.312C114.135 389.553 114.196 387.843 114.091 386.087C113.951 383.744 114.025 383.388 116.379 382.966C117.6 382.746 118.091 382.261 118.243 381.183C118.54 379.056 119.15 376.997 119.26 374.817C119.39 372.192 119.955 369.622 119.412 366.944C119.123 365.522 120.437 364.571 121.88 364.925C122.918 365.179 123.863 365.874 124.903 366.047C127.096 366.41 127.447 367.746 127.347 369.658C127.266 371.215 127.382 372.808 127.629 374.349C128.075 377.136 128.578 379.925 128.627 382.739C128.663 384.818 128.752 386.872 129.388 388.835C129.98 390.655 130.04 392.49 129.953 394.347C129.831 396.964 129.578 399.645 129.681 402.183C129.807 405.3 130.619 408.489 131.631 411.589C133.505 417.326 136.206 422.788 137.219 428.834C137.59 431.051 137.43 433.27 137.953 435.509C138.752 438.931 140.178 442.152 140.823 445.641C141.128 447.288 141.218 449.121 141.96 450.705C143.957 454.961 144.322 459.766 146.566 463.976C147.257 465.271 147.852 466.82 148.16 468.361C148.33 469.211 148.846 470.005 148.531 470.941C148.091 472.251 148.593 473.432 149.025 474.654C150.158 477.862 151.65 481.031 150.327 484.587C150.134 485.107 150.229 485.765 150.295 486.347C150.712 490.039 150.061 493.758 150.808 497.474C151.127 499.062 151.557 500.736 151.514 502.381C151.377 507.591 151.812 512.768 152.166 517.954C152.424 521.734 152.362 525.553 152.901 529.288C153.313 532.134 153.391 534.952 153.424 537.796C153.451 540.058 153.175 542.385 153.615 544.565C154.212 547.519 153.9 550.442 154.029 553.376C154.072 554.374 153.661 555.197 152.599 555.27C151.088 555.374 150.848 556.292 150.934 557.489C151.015 558.609 150.78 559.629 150.164 560.57C149.715 561.259 149.709 562.043 149.649 562.837C149.453 565.463 149.316 568.06 149.581 570.714C149.862 573.539 149.795 576.429 149.575 579.266C149.262 583.293 151.02 586.401 154.672 587.64C155.227 587.829 155.936 587.842 156.198 588.415C156.648 589.393 157.443 589.444 158.351 589.617C162.393 590.384 166.453 590.842 170.574 590.825C172.126 590.819 173.708 590.543 175.235 591.222C176.208 591.654 176.805 591.362 177.074 590.16C177.334 588.994 178.316 588.834 179.431 589.132C181.38 589.655 183.349 590.099 185.452 590.609L185.449 590.608ZM170.976 207.841C170.738 207.863 170.499 207.886 170.26 207.909C170.651 204.024 168.164 200.948 167.859 197.129C167.663 194.682 167.404 192.123 166.88 189.636C166.186 186.346 167.707 183.058 167.485 179.711C167.462 179.372 167.685 178.814 167.948 178.694C169.289 178.083 169.104 176.865 169.411 175.744C170.191 172.906 171.006 170.092 171.221 167.138C171.241 166.861 171.432 166.357 171.518 166.361C173.612 166.487 173.621 164.223 174.805 163.504C177.864 161.644 177.337 158.43 178.163 155.732C178.463 154.752 177.852 154.161 177.006 153.63C175.312 152.568 174.775 151.003 175.314 149.037C175.519 148.293 175.624 147.481 175.569 146.715C175.497 145.718 175.174 144.722 174.073 144.378C170.382 143.225 166.64 142.255 162.945 144.227C161.123 145.199 159.145 145.698 157.262 145.354C154.846 144.911 152.832 145.673 150.715 146.433C146.306 148.016 142.07 148.213 138.3 144.811C138.066 144.598 137.803 144.089 137.364 144.596C137.364 145.651 138.654 146.264 138.486 147.333C137.358 147.879 137.158 145.988 136.111 146.699C135.98 147.926 137.265 148.715 137.055 150.03C134.775 150.586 133.391 148.767 131.995 147.703C128.194 144.808 124.346 141.93 120.995 138.481C120.607 138.081 120.004 137.731 119.465 137.664C115.775 137.208 112.515 135.357 108.834 134.65C104.129 133.744 100.324 135.087 96.4867 137.145C94.7632 138.069 94.846 138.205 95.8691 140.117C96.1929 140.723 96.4891 141.345 96.7602 141.976C97.9152 144.653 97.1716 147.76 98.7944 150.399C99.3641 151.325 98.1851 152.244 97.0553 151.79C95.6004 151.208 94.0556 150.688 92.8094 149.784C91.538 148.861 91.2166 149.336 90.6913 150.44C89.673 152.578 89.8973 155 89.0133 157.177C88.7327 157.867 89.0877 158.765 90.0448 159.028C91.7072 159.486 92.1581 160.78 92.6103 162.273C93.9284 166.631 92.8214 170.864 91.7791 174.977C91.1866 177.316 90.2331 179.609 89.8097 182.021C88.9534 186.905 89.5686 191.836 89.4355 196.743C89.4223 197.24 89.5554 197.727 89.9093 198.104C91.0091 199.278 90.7668 200.7 90.473 202.02C90.0616 203.872 90.04 205.722 90.04 207.592C90.04 211.524 90.112 215.458 89.968 219.385C89.8217 223.365 90.768 227.326 90.0616 231.314C89.9297 232.059 90.1228 232.88 90.2583 233.649C90.3459 234.149 90.4514 234.657 90.1851 235.08C89.2892 236.509 89.4991 238.099 89.3755 239.66C89.1932 241.959 89.4511 244.26 88.7878 246.565C87.7084 250.318 87.1986 254.141 87.1339 258.12C87.0427 263.691 86.3963 269.264 86.1696 274.848C86.1096 276.313 86.431 277.733 86.3159 279.236C85.9213 284.382 85.5195 289.548 85.9993 294.716C86.0916 295.707 86.088 296.669 85.9477 297.65C85.6478 299.742 85.6586 299.804 87.6964 299.954C91.0067 300.198 94.2787 300.916 97.649 299.936C100.045 299.24 102.509 300.284 104.935 300.548C108.826 300.971 112.549 302.258 116.335 303.204C117.435 303.478 118.491 304.539 117.732 305.633C116.659 307.18 117.693 307.128 118.629 307.436C122.349 308.661 126.052 309.93 129.874 310.839C133.903 311.797 137.508 313.919 141.411 315.241C145.874 316.753 150.305 318.352 154.551 320.421C155.34 320.806 156.178 321.109 157.02 321.358C157.574 321.521 158.445 321.68 158.638 321.107C159.162 319.554 160.765 319.461 162.129 318.552C160.855 318.085 159.918 317.802 159.036 317.397C158.451 317.129 157.523 317.04 157.526 316.216C157.53 315.36 158.314 314.91 159.016 314.54C160.742 313.626 162.626 313.777 164.487 313.754C166.862 313.724 166.848 313.704 167.238 311.374C167.577 309.345 167.455 307.239 168.286 305.29C169.067 303.462 168.164 300.954 170.519 299.744C170.62 299.693 170.643 299.361 170.601 299.183C170.141 297.244 170.616 295.262 170.423 293.363C170.111 290.289 170.519 287.197 169.968 284.142C169.814 283.293 170.044 282.402 170.276 281.529C170.674 280.023 171.154 278.473 171.154 276.942C171.154 272.744 172.154 268.854 173.999 265.107C174.564 263.958 174.547 262.575 173.991 261.368C172.07 257.193 172.286 252.884 172.792 248.458C173.304 243.987 173.443 239.472 173.704 234.974C173.783 233.598 173.004 232.358 173.05 230.93C173.159 227.49 173.093 224.045 173.067 220.602C173.061 219.824 173.092 218.986 172.826 218.281C172.238 216.722 172.29 215.163 172.713 213.648C173.309 211.509 172.919 209.335 173.155 207.19C173.259 206.26 172.757 205.596 171.842 205.614C171.037 205.631 171.232 206.452 171.15 207.003C171.108 207.284 171.036 207.561 170.979 207.841H170.976ZM174.522 68.3232C174.735 67.3568 174.006 65.6733 173.694 63.9634C172.853 59.3506 172.456 54.6179 170.535 50.2545C169.99 49.017 169.551 47.7568 168.481 46.7592C164.35 42.9066 159.653 39.8849 154.746 37.1559C152.468 35.8896 150.067 35.2697 147.406 35.4292C144.462 35.6055 141.523 35.3884 138.591 34.8812C135.612 34.3644 132.62 33.8117 129.576 34.8321C126.636 35.8165 123.802 37.1427 121.823 39.4245C119.267 42.3706 118.535 46.0565 119.447 49.9511C119.558 50.4283 119.733 50.8984 119.778 51.3816C120.214 56.1323 121.105 60.6971 124.341 64.5006C124.987 65.2584 126.194 66.4011 124.321 67.328C124.213 67.3819 124.2 67.629 124.142 67.786C125.499 68.1422 125.706 69.9168 126.775 70.2573C128.381 70.7681 129.829 71.5835 131.395 72.1327C132.686 72.5847 133.866 73.5428 135.274 73.4396C138.937 73.1698 142.511 74.008 146.136 74.2106C150.623 74.4612 155.099 75.1867 159.382 76.7059C161.085 77.3102 161.206 77.7227 160.191 79.1904C159.971 79.5093 159.626 79.7431 159.401 80.0609C158.422 81.4374 158.541 81.8475 160.085 82.3415C160.923 82.6101 161.776 82.8487 162.638 83.0238C166.402 83.7912 170.283 82.3091 172.026 79.0573C173.654 76.0164 174.633 72.7058 174.522 68.3268V68.3232ZM156.465 600.252C156.376 602.244 156.431 603.734 156.21 605.184C156.002 606.555 156.353 607.22 157.778 607.357C158.929 607.467 159.792 607.882 159.786 609.36C159.779 611.366 161.587 612.253 162.696 613.569C163.581 614.621 164.511 613.625 165.415 613.694C165.996 613.738 166.573 613.828 167.153 613.898C170.59 614.305 173.29 616.166 176.041 618.105C181.446 621.913 186.127 626.924 192.887 628.554C199.536 632.866 206.819 636.302 212.129 642.474C212.764 643.212 213.535 643.841 214.275 644.485C215.428 645.49 216.804 645.953 218.316 646.058C220.768 646.227 223.285 643.989 223.264 641.547C223.253 640.227 223.277 639.018 224.438 638.095C225.282 637.425 225.237 636.516 224.614 635.741C223.861 634.803 223.474 633.689 222.899 632.668C222.085 631.221 221.814 629.549 220.783 628.173C218.116 624.605 215.072 621.37 211.435 618.862C205.234 614.585 199.452 609.635 192.459 606.57C191.836 606.298 191.259 605.895 190.71 605.487C190.145 605.068 189.683 604.551 189.912 603.743C190.444 601.861 189.157 601.421 187.782 600.924C186.03 600.289 184.172 600.159 182.409 599.5C174.974 596.722 167.385 594.455 159.539 593.133C157.464 592.784 156.661 593.311 156.491 595.467C156.352 597.225 156.462 599.003 156.462 600.253L156.465 600.252ZM151.664 83.2288C151.172 82.8103 151.042 82.6113 150.874 82.5693C141.337 80.2072 132.169 76.7934 123.1 73.0439C118.818 71.2729 114.374 70.2885 109.728 72.1099C107.917 72.8197 105.925 73.0631 104.026 73.5607C101.354 74.2622 98.7308 75.225 96.344 76.5404C92.2373 78.8043 91.7983 83.1952 90.5701 87.2025C89.3564 91.1583 91.1614 94.0132 93.8337 95.8814C99.472 99.8239 105.566 103.043 112.838 102.766C114.798 102.692 116.837 102.468 118.711 102.886C122.708 103.778 126.259 102.953 129.666 100.935C130.353 100.529 131.083 100.247 131.884 100.199C133.235 100.12 134.226 99.4222 135.243 98.5673C140.931 93.7866 145.441 87.7769 151.664 83.2276V83.2288ZM55.6114 580.559C57.4453 580.735 59.0309 580.621 60.4966 581.285C60.9499 581.49 61.57 581.583 61.6432 582.07C61.7499 582.781 61.1011 582.992 60.5254 583.173C59.8729 583.378 59.2324 583.624 58.5787 583.829C55.0153 584.947 51.3032 585.266 47.6595 585.944C39.3729 587.486 31.2446 589.637 23.734 593.774C20.1106 595.769 16.4861 597.601 13.544 600.607C12.684 601.485 12.0495 602.233 11.7437 603.465C11.3539 605.034 11.2963 606.828 9.78867 607.947C9.46363 608.188 9.24414 608.552 9.38087 608.969C9.59556 609.625 10.1209 609.43 10.5911 609.339C15.8564 608.32 21.1649 607.478 26.3775 606.233C32.1705 604.851 37.924 603.312 43.7591 602.095C48.8349 601.036 53.9503 600.277 59.0741 599.505C64.5877 598.676 70.0593 597.657 75.6701 597.788C79.0692 597.867 82.3735 596.942 86.076 597.107C85.2232 595.081 83.9651 594.009 82.8005 592.877C78.0017 588.212 72.4641 584.439 67.3751 580.122C64.8156 577.951 61.8999 577.29 58.5644 578.041C57.1671 578.355 56.2351 578.868 55.6126 580.56L55.6114 580.559ZM154.367 112.511C153.934 113.203 153.659 113.722 153.31 114.186C149.499 119.25 142.853 121.071 137.072 118.553C134.906 117.61 132.73 117.9 130.629 117.897C130.04 118.918 131.118 119.526 130.817 120.321C130.473 121.228 131.012 121.794 131.601 122.358C134.158 124.811 138.811 125.461 141.972 123.802C143.093 123.213 144.131 122.502 145.46 122.318C149.37 121.776 151.052 120.688 153.767 117.228C153.929 117.022 154.285 116.968 154.552 116.846C155.216 116.541 155.598 116.005 155.882 115.346C156.97 112.822 158.403 110.482 159.841 108.15C160.228 107.522 160.471 106.973 159.966 106.275C158.474 104.211 157.244 101.967 155.48 100.087C154.15 98.668 152.934 98.0745 151.052 99.2939C149.337 100.405 146.955 99.9954 145.289 101.317C143.703 102.573 141.955 102.765 140.037 102.733C137.801 102.694 135.559 102.497 133.352 103.316C130.875 104.235 128.29 104.745 125.603 104.602C124.44 104.541 123.225 104.517 122.259 105.444C122.344 106.704 123.689 107.239 123.919 108.484C124.225 110.133 125.456 110.767 127.11 110.99C129.806 111.352 132.603 111.584 135.118 112.518C138.62 113.819 141.755 113.528 145.032 111.987C148.119 110.535 151.259 110.433 154.366 112.511H154.367ZM83.5753 155.194C79.2887 162.619 75.8392 170.244 73.444 178.223C71.0692 186.132 67.561 193.786 66.707 202.65C71.7229 198.695 74.2536 194.049 74.8569 188.339C74.9109 187.827 75.0308 187.293 75.5394 187.129C77.4056 186.524 77.3972 184.802 77.8974 183.363C78.8701 180.567 78.5258 177.207 81.378 175.204C81.5171 175.107 81.6251 174.863 81.6251 174.688C81.6203 171.568 83.5501 169.198 84.8754 166.638C86.942 162.644 86.7549 159.021 83.5765 155.196L83.5753 155.194ZM224.124 399.054C224.474 398.161 224.507 397.572 224.34 397.003C223.639 394.635 223.655 392.187 223.506 389.76C223.223 385.178 221.84 380.75 221.665 376.147C221.621 374.969 220.696 374.558 219.505 374.912C218.603 375.18 217.862 375.624 217.574 376.547C217.083 378.12 216.364 379.578 216.051 381.262C215.5 384.226 215.558 387.304 214.47 390.174C214.109 391.127 214.609 391.732 215.311 392.437C217.869 395.004 221.07 396.666 224.122 399.054H224.124ZM44.9584 578.56C44.3204 577.905 43.4796 578.09 42.73 578.037C37.1408 577.65 31.5492 577.308 25.9589 576.935C24.7475 576.855 23.6201 577.135 22.507 577.559C19.8468 578.568 17.2201 579.692 14.5083 580.538C12.3002 581.228 10.4207 582.411 8.60486 583.742C8.11311 584.103 7.41387 584.538 7.83486 585.475C8.87833 585.615 9.93019 585.642 11.0013 585.432C15.7221 584.503 20.3505 583.229 24.859 581.561C27.1439 580.716 29.3879 580.252 31.6644 581.384C32.5639 581.831 33.2716 581.832 34.0932 581.236C36.835 579.246 39.9318 578.549 43.2853 578.813C43.8322 578.856 44.4343 578.97 44.9584 578.562V578.56ZM196.106 327.027C194.819 324.654 195.062 324.623 194.655 321.376C194.285 318.429 194.806 315.555 194.71 312.645C194.597 309.206 194.491 305.748 194.746 302.325C194.911 300.095 194.589 297.965 194.554 295.596C193.239 296.064 192.965 296.919 192.809 297.939C192.201 301.905 191.513 305.858 190.922 309.827C190.218 314.559 190.776 319.418 189.484 324.099C189.242 324.974 189.59 325.841 189.983 326.656C190.228 327.162 190.613 327.469 191.136 327.342C192.739 326.951 194.411 327.292 196.105 327.028L196.106 327.027ZM55.3692 602.644C55.7506 602.805 55.9053 602.93 56.054 602.924C63.9196 602.607 71.6929 603.642 79.4865 604.451C81.023 604.611 82.6254 604.353 84.1714 604.118C85.5495 603.908 86.0772 602.959 85.9393 601.225C85.8649 600.294 86.0364 599.087 84.5492 599.089C81.7006 599.094 78.8461 598.857 76.0035 599.251C73.3888 599.614 70.7754 600.002 68.1523 600.299C63.9028 600.78 59.6954 601.457 55.368 602.643L55.3692 602.644ZM89.4739 314.669C88.6091 315.663 88.4244 316.733 88.1162 317.76C87.5177 319.754 87.6664 321.853 87.2622 323.852C86.6193 327.027 86.5498 330.256 86.2775 333.445C86.0112 336.558 85.6406 339.627 85.1165 342.701C84.8262 344.402 84.4077 346.238 85.8661 348.405C86.2187 344.358 87.8691 341.195 88.025 337.634C88.0994 335.929 89.2184 334.28 89.3576 332.565C89.7366 327.883 91.1123 323.371 91.4961 318.688C91.6952 316.266 91.9206 316.286 89.4727 314.669H89.4739ZM190.689 200.215C189.943 200.635 190.184 201.186 190.184 201.621C190.192 204.752 190.196 207.862 190.755 210.987C191.29 213.976 192.014 216.91 193.08 219.71C193.963 222.029 194.638 224.318 194.731 226.784C194.761 227.568 194.695 228.375 195.083 229.094C195.339 229.571 195.447 230.357 196.246 230.122C196.83 229.95 196.696 229.351 196.667 228.865C196.534 226.649 195.629 224.584 195.501 222.339C195.416 220.834 193.772 219.307 195.871 217.972C196.017 217.879 195.902 217.407 195.943 217.115C196.854 210.642 193.798 205.45 190.689 200.213V200.215ZM181.46 134.212C180.417 134.026 179.571 133.725 178.699 133.945C176.866 134.405 174.964 134.484 173.157 134.266C170.287 133.919 168.413 135.524 166.457 137.068C165.971 137.452 165.096 137.81 165.355 138.632C165.597 139.4 166.329 139.824 167.109 140.054C167.389 140.135 167.689 140.201 167.975 140.191C170.463 140.097 172.982 141.382 175.452 139.995C175.738 139.834 176.216 139.975 176.597 140.03C179.076 140.392 179.065 140.392 180.149 138.133C180.702 136.982 181.163 135.806 181.46 134.212ZM89.7294 595.84C90.3339 594.594 90.0616 593.4 89.9117 592.288C89.6766 590.543 89.0253 588.843 88.9042 587.1C88.7998 585.612 88.0406 585.007 86.8376 584.652C84.7699 584.043 82.6877 583.481 80.6152 582.89C80.0862 582.739 79.5381 582.287 78.9996 583.24C80.3237 584.705 81.4835 586.361 81.5723 588.536C81.5891 588.945 82.0377 589.378 82.3675 589.724C83.9279 591.361 85.5051 592.981 87.0991 594.585C87.7995 595.291 88.6535 595.71 89.7306 595.841L89.7294 595.84ZM176.128 50.0111C176.803 49.0266 176.767 47.764 176.361 46.758C175.256 44.0133 173.754 41.4461 171.097 39.8969C167.354 37.7146 163.117 37.1307 158.871 36.145C159.083 37.2818 159.794 37.6367 160.446 38.0707C163.302 39.9761 166.081 41.9761 168.635 44.2927C169.292 44.8886 170.104 46.7016 171.253 44.6368C171.28 44.5889 171.74 44.6944 171.741 44.7328C171.771 46.9594 174.524 47.234 174.934 49.1981C175.029 49.6513 175.334 50.1022 176.128 50.0099V50.0111ZM201.658 336.67C200.84 335.234 200.19 334.537 199.435 333.947C198.605 333.298 198.601 332.202 197.989 331.449C197.492 330.839 196.778 330.788 196.108 330.919C194.966 331.143 193.846 331.484 192.719 331.778C192.318 331.882 191.933 332.114 191.912 332.519C191.828 334.045 191.023 335.029 189.741 335.748C188.839 336.252 189.221 336.954 189.706 337.441C190.933 338.677 194.682 338.967 195.97 337.731C197.503 336.258 199.059 335.453 201.66 336.67H201.658ZM35.0982 326.758C34.8392 325.812 34.6101 324.855 34.309 323.924C34.1843 323.536 33.8341 323.294 33.3867 323.373C30.4422 323.897 27.7232 324.943 25.5451 327.059C24.8051 327.779 25.2081 328.618 26.2803 328.998C29.2032 330.034 31.7711 328.643 34.4254 327.846C34.9531 327.687 35.253 327.355 35.0982 326.758ZM67.7553 248.424C65.0758 251.481 65.5316 255.176 65.1874 258.672C64.842 262.178 64.848 265.691 64.8959 269.209C68.0887 262.583 68.1967 255.596 67.7553 248.424ZM112.736 424.155C111.232 425.497 111.438 426.999 111.061 428.239C110.179 431.127 109.5 434.082 108.828 437.03C108.495 438.494 108.993 439.166 110.261 439.336C111.899 439.557 112.845 439.112 112.854 437.83C112.886 433.4 112.788 428.969 112.736 424.156V424.155ZM186.095 635.814C186.119 636.761 186.58 636.978 186.98 637.234C189.857 639.079 192.728 640.933 195.623 642.752C197.793 644.117 197.807 644.095 200.201 642.211C196.811 640.155 193.504 638.089 190.132 636.137C188.935 635.444 187.552 635.531 186.096 635.814H186.095ZM165.467 91.8021C165.304 91.8681 165.088 91.8993 164.953 92.0192C164.302 92.6031 163.676 93.2158 163.033 93.8082C159.815 96.7735 159.851 97.6344 163.305 100.084C164.547 100.965 165.112 100.843 165.843 99.5026C166.17 98.9018 166.458 98.2759 166.36 97.5601C166.188 96.3106 166.031 95.1463 166.77 93.9101C167.299 93.0252 166.342 91.7326 165.467 91.8021ZM197.231 325.461C198.974 317.539 198.289 309.534 198.397 301.235C196.975 302.279 197.19 303.41 197.183 304.453C197.163 307.199 197.193 309.945 197.159 312.69C197.146 313.764 197.316 314.979 196.885 315.884C195.337 319.144 196.493 322.267 197.231 325.461ZM150.342 140.37C149.415 139.21 148.097 139.177 147.062 138.902C145.827 138.573 143.785 136.162 143.151 139.667C143.123 139.827 142.446 139.854 142.084 139.977C141.492 140.18 140.726 139.78 140.092 140.667C141.477 141.619 142.82 142.544 144.167 143.465C144.798 143.897 145.392 143.927 146.048 143.438C147.444 142.397 148.88 141.409 150.342 140.369V140.37ZM194.87 287.008C197.133 283.63 197.54 281.888 196.77 278.437C196.277 276.226 195.85 274.028 195.927 271.749C195.949 271.108 196.103 270.331 195.144 270.015C193.238 275.481 194.825 280.983 194.869 287.008H194.87ZM140.101 100.602C141.278 100.449 142.318 99.8899 143.321 99.3515C145.604 98.126 147.231 96.114 148.96 94.2626C149.661 93.5132 149.303 92.5612 148.558 91.9149C147.757 91.2194 147.31 92.0408 146.871 92.4724C144.777 94.5324 142.71 96.62 140.658 98.7208C140.202 99.1872 139.688 99.6956 140.101 100.603V100.602ZM99.9842 303.476C97.4726 302.354 95.2382 302.789 93.0301 303.059C91.0835 303.297 89.1572 303.679 87.1795 303.62C86.166 303.589 85.0613 303.705 84.9774 304.984C84.8946 306.254 86.0592 306.552 86.9923 306.698C87.9998 306.855 89.2844 307.168 89.721 305.737C90.0112 304.787 90.6937 304.917 91.3437 304.905C92.8166 304.876 94.2907 304.885 95.7647 304.893C97.2579 304.902 98.6313 304.591 99.9854 303.477L99.9842 303.476ZM138.876 139.442C137.399 136.507 136.395 133.466 135.45 130.404C135.336 130.033 135.328 129.629 135.202 129.263C134.851 128.247 134.06 127.869 133.137 128.299C132.232 128.721 132.782 129.406 133.074 130.026C133.406 130.73 133.631 131.483 133.922 132.207C134.767 134.303 134.819 136.304 133.119 138.307C135.465 137.036 136.833 139.089 138.874 139.442H138.876ZM140.633 76.0848C144.488 78.134 148.536 79.6892 152.845 80.5297C153.322 80.6232 153.801 80.7408 154.259 80.4434C154.678 80.1712 155.099 79.8534 155.135 79.339C155.181 78.6808 154.607 78.6832 154.142 78.5537C149.735 77.3222 145.301 76.2371 140.633 76.0836V76.0848ZM17.7298 587.149C14.1856 587.656 11.024 588.461 7.73411 588.561C8.32541 588.975 8.9251 589.405 9.54759 589.444C11.0108 589.533 12.2366 589.679 12.5581 591.505C12.6828 592.213 13.508 591.976 14.0813 591.858C16.4081 591.379 16.985 589.482 17.7298 587.149ZM179.915 95.5552C178.742 92.9473 177.037 91.0707 175.567 89.0479C175.206 88.5503 174.749 87.7685 173.92 88.4172C173.175 88.9999 172.567 91.452 173.091 91.7746C175.21 93.0756 177.063 94.8766 179.915 95.5552ZM92.7027 127.997C94.1167 130.82 95.6016 132.349 98.5977 131.267C99.6351 130.893 100.921 131.206 102.093 131.205C103.116 131.205 104.139 131.205 105.163 131.205C101.206 129.691 97.1932 128.757 92.7027 127.997ZM56.986 305.229C57.8159 300.222 59.2696 295.231 57.2978 290.218C56.9907 295.225 56.2771 300.219 56.986 305.229ZM49.0544 333.682C49.9359 331.306 53.6576 331.21 53.8112 327.799C52.9008 328.136 52.3599 328.328 51.825 328.536C49.5765 329.414 48.653 331.129 49.0544 333.682ZM199.704 282.407C200.744 279.947 200.649 272.6 199.527 270.829C199.217 274.694 200.017 278.543 199.704 282.407ZM158.213 85.7193C156.14 84.1509 154.698 85.0094 153.35 86.0322C152.584 86.6126 151.95 87.3716 151.277 88.0695C150.886 88.4759 150.315 88.8992 151.009 89.4999C151.594 90.0071 152.466 90.1894 152.814 89.5299C153.909 87.4603 155.985 86.8092 158.213 85.7193ZM79.2899 211.606C79.2119 211.269 79.375 210.515 78.6662 210.354C77.9369 210.188 77.7714 210.913 77.5831 211.452C77.2641 212.362 76.9067 213.265 76.6716 214.198C76.5408 214.719 76.3405 215.422 77.1453 215.653C77.9717 215.889 78.4815 215.359 78.6842 214.679C78.9588 213.754 79.068 212.782 79.2911 211.606H79.2899ZM179.666 183.696C179.769 180.717 179.728 177.699 179.211 174.43C178.027 177.729 177.812 180.719 179.666 183.696ZM125.327 409.461C125.668 414.098 126.266 416.856 127.123 417.735C127.593 414.647 126.371 412.051 125.327 409.461ZM109.542 104.663C110.652 105.137 111.805 105.572 112.868 106.214C113.717 106.726 114.56 106.529 115.417 106.306C115.91 106.178 116.368 105.981 116.246 105.346C116.16 104.903 115.771 104.684 115.386 104.678C113.438 104.647 111.49 104.663 109.542 104.663ZM169.878 96.6931C169.215 97.9594 168.808 99.1668 168.713 100.473C168.684 100.861 168.884 101.223 169.308 101.376C169.748 101.534 169.969 101.278 170.271 100.988C171.777 99.5457 171.794 99.5625 169.876 96.6931H169.878ZM36.8314 584.13C38.9027 584.459 40.6826 584.317 42.5429 583.513C39.7339 581.657 39.2997 581.697 36.8314 584.13ZM62.7922 541.231C61.9778 542.612 61.3961 544.066 62.7586 545.801C63.543 544.124 63.3403 542.722 62.7922 541.231ZM199.146 289.293C199.349 289.283 199.553 289.272 199.756 289.262C199.681 288.037 200.087 286.786 199.146 285.597V289.295V289.293ZM151.222 136.259C150.6 135.505 150.525 134.195 149.181 134.347C148.78 134.393 148.37 135.108 148.522 135.512C149.017 136.816 150.176 136.286 151.221 136.259H151.222ZM195.187 288.43C195.073 288.402 194.959 288.375 194.845 288.348V294.06C194.959 294.063 195.073 294.067 195.187 294.069V288.431V288.43ZM198.646 299.439C199.077 298.377 199.261 297.309 198.566 296.218C198.688 297.294 197.937 298.346 198.646 299.439ZM65.1094 429.836C65.4093 428.957 65.3385 428.061 64.9943 427.172C64.7604 428.046 64.5745 428.919 65.1094 429.836ZM65.6276 445.778C65.4273 446.455 65.1766 447.092 65.6672 447.888C66.0294 447.039 65.8459 446.43 65.6276 445.778ZM179.515 162.825C179.51 163.16 179.702 163.438 179.993 163.434C180.715 163.426 180.63 162.84 180.586 162.38C180.561 162.12 180.432 161.793 180.018 161.919C179.558 162.058 179.483 162.414 179.515 162.825Z" fill="#8DC0FF"/>
</svg>
