<svg width="731" height="665" viewBox="0 0 731 665" fill="none" xmlns="http://www.w3.org/2000/svg">
<path d="M97.7182 207.355C96.5345 206.602 96.6215 206.499 97.5197 205.45C99.3183 203.348 101.291 201.362 102.851 199.093C106.514 193.762 111.62 190.521 117.532 188.313C121.145 186.963 124.56 185.204 127.65 182.906C128.873 181.997 130.122 181.265 131.541 180.773C134.424 179.774 137.475 179.381 140.329 178.247C142.437 177.409 144.662 176.871 146.798 176.098C148.791 175.377 150.967 174.991 152.66 173.646C154.545 172.15 156.272 170.456 158.073 168.854C159.384 167.688 160.295 166.251 160.756 164.58C160.998 163.699 161.482 163.099 162.117 162.5C164.24 160.497 166.072 158.235 167.825 155.909C168.474 155.048 168.975 154.089 169.175 153.04C169.365 152.044 169.789 151.158 170.145 150.232C171.541 146.593 173.306 143.105 174.362 139.323C175.075 136.769 176.286 134.512 178.832 133.141C181.452 131.73 183.905 130.01 186.483 128.515C190.258 126.327 194.433 125.141 198.554 123.813C201.498 122.864 204.495 122.51 207.568 122.412C211.434 122.289 215.186 121.303 218.792 120.062C222.138 118.911 225.038 116.718 228.152 115.016C229.873 114.075 228.31 112.346 229.333 111.323C229.524 111.132 229.626 110.792 229.465 110.536C229.323 110.312 229.091 110.104 228.851 109.988C227.438 109.306 226.229 108.233 224.816 107.617C221.213 106.045 219.629 102.905 218.28 99.588C217.609 97.9375 218.039 97.2446 219.78 96.7943C222.191 96.1711 224.566 95.4459 226.925 94.6548C228.809 94.0235 230.678 93.2283 232.62 92.925C234.477 92.6353 236.22 92.1857 237.887 91.3621C238.465 91.0765 239.077 90.9315 239.719 90.8338C244.451 90.1136 249.219 90.4739 253.97 90.3668C254.591 90.3527 255.229 90.5593 255.839 90.7347C256.294 90.8659 256.878 91.0039 256.766 91.6732C256.672 92.2344 256.193 92.4603 255.681 92.5469C255.334 92.6057 254.972 92.6257 254.622 92.6007C251.923 92.4067 249.215 92.8739 246.536 92.6323C242.605 92.2775 239.125 93.5973 235.656 95.1008C234.339 95.6716 233.893 96.6156 234.253 98.0102C234.492 98.9354 235.007 99.6947 235.761 100.276C236.436 100.796 237.085 101.381 237.833 101.77C240.111 102.954 241.551 104.798 242.295 107.206C242.578 108.119 243.126 108.671 244.036 108.877C246.306 109.391 248.488 110.371 250.901 110.131C251.843 110.038 252.716 110.449 253.601 110.674C254.539 110.914 254.664 111.444 254.182 112.261C253.989 112.588 253.355 112.628 253.548 113.198C253.88 113.538 254.315 113.579 254.716 113.714C256.602 114.348 256.765 114.585 256.666 116.579C256.636 117.166 256.756 117.711 256.991 118.233C257.526 119.425 258.238 119.601 259.08 118.667C261.197 116.318 262.825 113.673 263.695 110.608C263.789 110.279 263.853 109.866 263.737 109.567C262.884 107.349 262.745 104.87 261.245 102.878C260.876 102.388 260.706 101.72 260.545 101.107C258.961 95.0564 259.05 89.0304 261.004 83.0812C261.715 80.9161 262.264 78.8009 261.386 76.5181C260.688 76.8293 260.303 77.4465 259.934 78.0361C258.92 79.6551 257.996 81.3323 256.954 82.9329C255.791 84.7202 254.482 86.4029 252.821 87.7695C252.451 88.0741 252.023 88.4662 251.513 87.9979C251.103 87.6217 251.4 87.2363 251.542 86.8393C252.288 84.7599 253.232 82.7766 254.379 80.8902C254.6 80.526 254.966 80.0399 254.504 79.7776C252.899 78.8685 254.134 78.1825 254.753 77.818C257.815 76.0131 260.231 73.2949 263.453 71.7267C263.708 71.6025 264.176 71.5137 263.886 70.9291C261.873 71.3152 260.016 71.8517 258.345 73.2925C256.099 75.2287 253.795 77.1328 251.253 78.7146C250.589 79.1279 249.715 79.5232 249.645 80.6001C249.893 80.608 250.091 80.6273 250.288 80.6173C250.497 80.6071 250.699 80.5797 250.797 81.0789C248.075 83.0329 245.377 85.1775 242.022 86.2722C242.918 84.2245 244.241 82.59 246.008 81.354C248.194 79.8257 250.003 77.9825 251.179 75.5642C251.683 74.5266 252.444 73.739 253.304 72.9637C254.085 72.2593 255.141 71.7714 255.807 70.5339C253.594 70.7328 252.764 72.9222 250.883 73.1434C250.813 72.424 251.401 72.1684 251.777 71.7718C252.017 71.5192 252.496 71.1287 252.279 70.9292C251.435 70.1532 252.363 69.3975 252.281 68.5021C250.623 68.9002 249.58 69.8516 248.698 71.0915C248.133 71.8847 247.641 72.7708 246.716 73.2445C245.01 74.1176 243.358 75.1261 241.586 75.8317C239.627 76.6119 237.972 77.6794 236.607 79.2968C236.018 79.9943 235.418 80.8541 234.091 81.0308C235.156 79.0191 235.543 77.0434 235.977 75.0484C236.284 73.6348 236.249 72.0494 237.126 70.7812C237.576 70.1311 237.571 69.708 236.889 69.2063C235.955 68.5184 236.367 67.8867 237.143 67.3748C237.676 67.0226 238.184 66.5913 238.768 66.3625C241.166 65.423 242.917 63.695 244.54 61.7925C244.632 61.6846 244.723 61.5753 244.814 61.4667C245.247 60.9531 245.738 60.6254 246.472 60.7289C248.156 60.966 249.518 60.5237 250.223 58.8113C250.455 58.2495 251.027 58.0272 251.436 57.6409C252.149 56.9669 252.813 56.3232 253.237 55.3487C253.867 53.9011 254.94 52.9169 256.703 52.5775C259.556 52.0282 262.274 50.8875 265.079 50.1421C268.543 49.2211 272.077 47.306 275.683 49.89C276.053 50.1552 276.751 50.2036 276.852 49.4811C277.011 48.3507 277.827 48.4884 278.442 48.7223C280.145 49.3702 281.951 49.8189 283.33 51.1691C284.6 52.4129 285.903 53.6149 286.939 55.0744C287.348 55.65 287.705 56.3539 288.365 56.6264C290.13 57.3561 291.109 58.9341 292.338 60.2461C293.821 59.1316 295.151 57.989 296.839 57.3449C299.33 56.3944 301.923 56.1255 304.544 55.9439C305.544 55.8747 306.495 56.0173 307.477 56.2761C309.967 56.932 312.255 58.0639 314.619 59.0263C316.403 59.7528 317.875 61.1627 319.725 61.591C324.16 62.6175 328.465 64.0572 332.789 65.4311C335.513 66.2969 338.277 67.1281 340.769 68.7084C335.517 68.1792 330.223 68.1204 324.723 66.4032C326.766 68.9519 328.776 70.9328 330.718 72.9752C332.667 75.0238 334.849 76.8855 336.322 79.3274C336.217 79.4417 336.112 79.5558 336.007 79.6701C332.425 77.4994 328.843 75.3287 325.255 73.1547C325.048 73.6215 325.318 73.8826 325.501 74.1821C326.311 75.5168 327.149 76.8369 327.904 78.2026C328.92 80.0394 330.284 81.8193 329.043 84.121C328.724 84.7142 329.252 85.1886 329.544 85.6595C331.112 88.1919 332.426 90.8846 334.327 93.2087C334.527 93.4526 334.806 93.7374 334.535 94.2362C331.527 93.7494 330.155 90.9457 327.565 89.0327C328.642 91.3753 329.204 93.3525 329.605 95.4299C328.13 95.4547 327.627 94.151 326.608 93.7101C325.373 95.4303 325.385 95.431 325.303 96.6107C325.276 97.0073 325.425 97.5136 324.893 97.7078C324.29 97.9275 323.987 97.4448 323.653 97.0943C323.348 96.7731 323.271 96.3558 323.217 95.9224C322.397 89.4131 319.328 83.8362 315.931 78.3962C315.735 78.0825 315.514 77.8194 315.091 77.8822C315.069 78.0217 314.983 78.1957 315.037 78.2862C316.797 81.2488 317.066 84.6107 317.486 87.8954C318.215 93.6004 318.736 99.3319 319.403 105.046C319.612 106.836 319.104 108.581 319.237 110.357C319.259 110.647 319.084 110.897 318.762 110.978C318.455 111.055 318.194 110.983 318.046 110.693C317.725 110.063 317.31 109.454 317.129 108.784C316.237 105.473 314.665 102.313 315.232 98.6864C315.447 97.3162 315.107 95.8597 315.024 94.4424C314.959 93.337 314.562 92.5463 313.152 92.5787C312.905 94.2977 312.255 95.9632 312.301 97.7685C312.318 98.3941 312.369 99.0728 311.752 99.5143C310.982 100.065 310.633 99.0119 310.003 98.8944C310.437 100.849 308.645 101.757 308.301 103.248C308.282 103.334 308.031 103.454 307.936 103.421C306.434 102.904 306.259 104.122 305.952 105.136C305.248 104.446 305.696 103.523 305.162 102.946C303.774 103.353 303.487 103.264 303.142 102.054C302.855 101.045 302.743 99.9815 301.845 99.2256C300.905 100.06 300.082 100.947 299.445 101.957C297.973 104.293 295.711 105.084 293.152 105.377C289.55 105.788 286.011 106.382 282.649 107.895C280.95 108.66 279.652 110.028 277.893 110.669C277.33 110.874 276.731 110.934 276.182 111.386C272.799 114.181 271.17 118.018 269.72 121.966C269.576 122.358 269.37 122.901 269.819 123.449C271.279 122.873 271.966 121.212 273.507 120.755C273.764 120.679 273.547 120.28 273.49 120.008C273.208 118.65 273.331 118.611 274.642 118.729C279.095 119.128 282.078 124.034 282.475 127.683C282.649 129.28 283.299 130.033 284.605 130.684C286.88 131.818 289.397 132.485 291.479 133.949C292.77 134.856 294.036 135.034 295.483 134.812C296.396 134.672 297.327 134.622 298.225 134.423C304.765 132.975 309.812 129.585 312.579 123.273C313.288 121.656 313.266 121.68 311.687 120.658C308.097 118.334 304.02 116.966 300.34 114.81C297.284 113.019 294.131 111.396 291.022 109.696C290.524 109.424 290.007 109.178 289.539 108.861C288.899 108.428 288.221 107.987 288.361 106.96C290.152 106.916 291.642 107.704 293.128 108.526C296.229 110.242 299.306 112.003 302.45 113.637C306.733 115.863 311.073 117.978 315.378 120.164C316.674 120.822 316.921 121.397 316.428 122.753C313.922 129.639 309.107 134.138 302.129 136.266C300.055 136.898 297.882 137.204 295.757 137.658C295.802 138.372 296.121 138.861 296.488 139.277C297.523 140.446 298.006 141.815 298.173 143.34C298.234 143.901 298.397 144.455 298.558 144.999C300.392 151.206 302.052 157.454 302.998 163.87C303.383 166.479 304.544 168.695 306.273 170.685C310.003 174.975 313.609 179.373 317.493 183.529C321.806 188.143 325.746 193.134 330.916 196.886C332.639 198.137 334.407 199.327 336.105 200.61C338.653 202.536 341.448 204.177 343.662 206.495C347.545 210.563 351.765 214.256 355.913 218.037C359.809 221.588 364.201 224.219 369.086 226.135C372.062 227.302 374.981 228.622 377.896 229.94C379.859 230.827 379.938 231.099 379.366 233.317C381.208 232.999 382.758 232.312 383.994 230.941C384.946 229.886 386.002 228.954 387.327 228.362C388.112 228.012 388.696 227.376 389.348 226.827C391.558 224.971 393.644 222.825 396.879 222.93C397.241 222.942 397.674 222.953 397.664 222.464C397.649 221.671 397.653 221.047 398.772 221.29C399.19 221.381 399.25 220.846 399.358 220.533C400.607 216.927 401.006 213.394 398.409 210.137C398.234 209.917 398.057 209.696 398.169 209.366C398.756 208.898 399.246 209.381 399.712 209.609C402.964 211.2 405.973 213.218 409.125 214.987C409.868 215.403 410.623 215.797 411.378 216.191C412.065 216.549 412.601 216.454 412.904 215.666C413.093 215.177 413.425 214.724 413.396 214.09C412.823 214.118 412.308 214.303 412.011 214.126C411.257 213.674 409.829 214.446 409.694 213.173C409.586 212.154 410.747 211.81 411.558 211.418C414.239 210.121 416.925 208.836 419.526 207.378C420.507 206.828 421.525 206.282 422.684 206.186C423.117 206.15 423.56 206.278 423.771 206.707C424.02 207.211 423.638 207.502 423.289 207.739C422.702 208.136 422.084 208.49 421.483 208.868C420.401 209.549 419.336 210.258 418.236 210.909C417.524 211.33 417.623 211.947 417.697 212.589C417.779 213.296 418.306 213.207 418.804 213.267C419.927 213.401 420.471 214.101 420.776 215.177C421.095 216.304 421.039 217.433 421.053 218.56C421.066 219.58 421.468 220.187 422.485 220.291C423.72 220.418 424.688 221.069 425.258 222.064C426.039 223.427 427.274 224.183 428.45 225.139C428.785 224.317 429.237 223.669 430.054 223.977C430.95 224.315 432.1 224.132 432.701 225.13C432.806 225.304 432.937 225.567 432.879 225.72C432.405 226.952 433.359 227.493 434.007 228.21C437.042 231.566 440.338 234.652 443.706 237.665C444.181 238.09 444.633 238.545 445.077 239.003C445.382 239.317 445.703 239.758 445.406 240.133C444.641 241.098 445.413 241.662 445.834 242.364C446.852 244.063 448.212 245.329 450.099 246.01C450.928 246.31 451.4 246.736 451.478 247.83C451.55 248.856 452.038 250.073 453.637 249.933C454.07 249.895 454.578 250.231 454.988 250.495C455.951 251.115 456.003 251.989 455.12 252.73C454.3 253.419 453.36 253.926 452.365 254.327C449.072 255.651 448.777 256.901 451.039 259.643C452.396 261.288 454.115 262.577 455.397 264.303C456.504 265.792 456.514 267.22 454.999 268.168C452.925 269.467 451.31 271.504 448.704 271.981C447.83 272.141 447.12 272.955 445.962 273.061C446.259 272.567 446.434 272.266 446.619 271.972C447.238 270.992 448.337 270.171 447.559 268.76C446.954 267.664 446.766 266.341 445.474 265.651C444.414 265.085 443.45 264.334 442.471 263.627C441.215 262.722 439.848 262.588 438.415 263.015C437.739 263.217 437.108 263.565 436.442 263.807C433.35 264.93 432.201 264.331 430.739 262.275C429.59 260.661 428.314 259.167 426.948 257.71C425.025 255.66 422.235 254.807 420.477 252.59C419.972 251.953 417.703 252.116 417.652 252.714C417.56 253.778 416.956 253.452 416.414 253.558C415.652 253.707 414.955 253.039 414.175 253.315C414.446 255.216 415.929 256.526 416.296 258.317C414.774 258.807 413.503 258.552 412.232 257.952C409.342 256.59 406.431 255.274 403.444 253.9C402.861 255.275 401.986 256.292 400.883 257.045C400.336 257.417 400.047 257.61 400.381 258.308C400.724 259.024 400.262 259.447 399.578 259.379C398.472 259.269 397.295 259.593 396.268 258.863C395.933 258.625 395.449 258.356 395.071 258.547C393.472 259.353 391.873 258.828 390.271 258.65C389.995 258.62 389.637 258.462 389.491 258.761C388.728 260.318 387.088 261.161 386.342 262.748C385.528 264.477 384.579 266.142 383.699 267.84C383.358 268.5 382.954 269.106 382.109 269.012C381.289 268.92 380.997 268.331 380.795 267.564C380.081 264.853 378.871 262.397 376.824 260.415C376.673 260.268 376.523 260.098 376.436 259.91C375.519 257.917 373.881 256.925 371.79 256.628C371.071 256.525 370.572 256.285 370.421 255.547C370.276 254.834 370.826 254.578 371.278 254.23C372.344 253.411 373.563 252.782 374.409 251.688C375.521 250.249 376.646 248.821 377.846 247.284C376.984 246.876 376.111 246.989 375.303 246.882C374.3 246.75 373.36 246.511 372.465 246.046C369.846 244.687 368.052 245.057 366.238 247.289C365.881 247.727 365.503 248.162 365.069 248.518C364.749 248.78 364.195 249.086 363.9 248.789C362.93 247.812 361.58 247.94 360.461 247.436C358.711 246.648 356.966 245.851 355.226 245.043C353.257 244.128 351.472 242.889 350.405 240.998C349.312 239.06 347.663 238.043 345.727 237.229C341.139 235.298 336.552 233.261 332.358 230.632C326.232 226.791 320.446 222.411 314.861 217.789C312.127 215.526 309.471 213.143 306.58 211.098C300.153 206.55 294.607 201.112 289.515 195.148C286.672 191.818 284.376 188.19 282.724 184.144C282.51 183.62 282.254 183.103 281.947 182.628C281.437 181.841 280.746 181.513 279.79 181.928C281.003 183.976 281.047 184.002 279.763 186.153C278.008 189.091 276.456 192.137 275.203 195.309C273.702 199.109 272.794 203.027 273.59 207.18C274.38 211.295 273.687 215.232 271.936 219.01C271.518 219.912 271.149 220.838 270.767 221.756C268.249 227.798 266.426 234.093 264.049 240.189C263.096 242.633 262.134 245.122 261.624 247.68C260.619 252.716 258.928 257.546 257.569 262.475C257.154 263.98 256.616 265.452 256.114 266.933C255.499 268.752 254.279 269.65 252.297 269.725C249.593 269.828 246.894 269.823 244.202 269.622C242.96 269.529 242.805 270.296 242.636 271.164C242.467 272.041 242.581 272.796 243.667 272.843C244.905 272.897 245.421 273.659 245.655 274.706C246.149 276.926 246.684 279.141 247.053 281.383C247.412 283.567 246.784 283.994 244.596 283.268C244.475 283.228 244.32 283.291 244.181 283.307C244.141 283.365 244.078 283.417 244.064 283.48C243.99 283.824 243.921 284.17 243.864 284.517C243.491 286.787 243.171 286.954 240.978 286.043C240.88 286.002 240.728 286.091 240.486 286.145C240.298 289.424 240.765 292.608 242.042 295.68C242.286 296.266 242.633 296.582 243.207 296.797C243.786 297.014 244.187 297.445 243.827 298.122C243.164 299.373 243.607 300.528 243.899 301.792C244.872 305.999 245.327 310.228 242.902 314.167C242.454 314.896 242.426 315.605 242.443 316.397C242.482 318.243 242.587 320.135 242.079 321.905C241.388 324.308 240.987 326.75 240.618 329.206C240.543 329.706 240.517 330.209 240.09 330.548C238.947 331.456 238.688 332.732 238.433 334.081C238.091 335.886 237.508 337.644 237.038 339.42C235.627 344.766 234.854 350.26 233.355 355.593C232.916 357.154 232.841 358.826 231.498 360.009C231.253 360.224 231.089 360.62 231.041 360.953C230.588 364.11 229.453 367.128 229.321 370.364C229.221 372.816 229.042 375.25 228.415 377.708C227.702 380.504 226.494 383.208 226.389 386.163C226.329 387.857 226.294 389.546 225.989 391.237C225.373 394.661 224.632 398.045 223.461 401.324C222.863 402.999 222.359 404.84 221.177 406.097C219.903 407.452 219.423 408.954 219.072 410.621C217.952 415.955 216.438 421.207 215.78 426.638C215.482 429.102 214.959 431.529 214.514 433.968C213.894 437.358 213.756 440.821 214.041 444.302C214.211 446.382 214.501 448.641 213.183 450.484C211.55 452.765 210.83 455.26 210.556 458.01C210.311 460.466 210.272 462.989 209.134 465.289C208.08 467.419 207.338 467.746 205.104 467.046C202.053 466.09 198.993 465.161 195.938 464.217C195.423 464.058 194.96 463.998 194.728 464.646C194.502 465.276 194.563 465.787 195.303 465.964C196.409 466.23 196.586 466.945 196.303 467.909C196.199 468.261 196.1 468.635 196.599 468.744C197.675 468.979 197.937 469.623 197.689 470.639C197.526 471.304 198.142 471.441 198.57 471.646C199.725 472.197 200.864 472.796 202.059 473.246C204.753 474.258 206.724 476.171 208.54 478.287C209.233 479.096 209.914 479.902 210.701 480.634C214.808 484.459 218.782 488.406 222.322 492.783C223.333 494.032 223.21 495.773 224.415 496.872C224.482 496.933 224.468 497.191 224.396 497.278C223.704 498.115 223.944 499.427 223.442 500.08C222.057 501.879 222.994 503.084 224.026 504.365C224.301 504.706 224.691 505.018 224.604 505.437C224.233 507.212 224.563 509.135 223.43 510.756C222.852 511.583 222.412 512.517 223.176 513.474C223.727 514.166 223.3 514.511 222.774 514.8C222.408 515.001 221.991 515.16 221.58 515.217C216.843 515.882 212.443 514.824 208.296 512.548C207.799 512.275 207.357 511.896 207.334 511.229C208.179 510.355 209.375 511.134 210.521 510.53C208.288 509.458 206.246 508.391 204.036 507.689C203.768 507.603 203.484 507.512 203.207 507.515C200.135 507.545 197.191 506.973 194.275 505.977C188.797 504.107 183.759 501.403 178.792 498.483C177.596 497.78 177.221 496.458 176.157 495.86C173.581 494.414 171.199 492.631 168.122 492.095C165.561 491.649 162.985 490.991 160.635 489.74C159.907 489.353 159.102 489.068 159.129 487.977C160.619 487.713 161.894 488.645 163.496 488.493C162.628 487.172 162.03 485.953 160.511 485.448C159.307 485.047 159.086 484.266 159.442 483.078C159.727 482.13 159.974 481.175 160.164 480.195C160.733 477.257 161.623 474.473 163.725 472.156C164.557 471.24 165.36 470.198 165.866 468.996C166.179 468.249 166.101 467.823 165.259 467.572C163.766 467.128 162.3 466.593 160.809 466.138C159.92 465.867 159.015 465.821 158.073 465.964C155.404 466.37 152.73 466.745 150.049 467.054C148.79 467.2 147.758 467.677 146.813 468.504C145.355 469.781 144.276 471.357 143.115 472.88C142.15 474.145 141.438 474.234 140.455 473.423C139.359 472.52 139.247 471.733 140.04 470.557C140.277 470.205 140.439 469.781 140.736 469.493C141.655 468.607 141.742 467.703 140.945 466.705C140.574 466.24 140.405 465.779 140.672 465.147C141.361 463.512 141.896 461.809 142.63 460.196C145.087 454.795 148.577 450.037 152.054 445.277C155.149 441.04 158.338 436.869 161.342 432.57C163.869 428.953 165.77 424.974 167.685 420.998C170.548 415.059 173.995 409.411 176.651 403.362C176.907 402.779 177.244 402.283 177.739 401.826C178.786 400.862 179.547 399.662 180.158 398.361C183.175 391.934 185.965 385.41 188.552 378.798C188.831 378.084 188.753 377.418 188.718 376.714C188.419 370.746 187.195 364.877 186.813 358.92C186.464 353.467 185.577 348.045 185.945 342.55C186.158 339.361 186.279 336.166 186.41 332.972C186.451 331.996 186.593 331.003 186.29 329.897C184.944 330.79 184.39 332.1 183.805 333.357C181.554 338.191 179.342 343.044 177.107 347.885C176.727 348.707 176.473 349.611 175.399 349.913C175.058 350.009 174.818 350.498 174.554 350.825C170.419 355.941 167.385 361.712 164.566 367.612C164.28 368.21 164.201 368.513 164.964 368.834C165.326 368.986 165.972 369.579 165.611 370.217C164.605 371.996 164.276 374.106 162.843 375.681C161.986 376.622 161.208 377.641 160.464 378.675C157.694 382.527 154.877 386.333 152.494 390.466C150.443 394.021 147.913 397.296 145.635 400.723C142.532 405.393 139.479 410.097 136.376 414.767C135.682 415.811 135.048 416.988 133.467 416.915C132.865 416.887 132.736 417.504 132.507 417.931C131.331 420.122 130.123 422.297 128.995 424.513C128.356 425.767 127.006 426.854 127.87 428.554C127.938 428.69 127.81 428.988 127.69 429.148C125.978 431.409 125.417 434.335 123.392 436.432C122.006 437.866 120.986 439.596 119.99 441.322C119.67 441.874 119.439 442.539 118.816 442.794C117.615 443.287 116.99 444.344 116.234 445.27C115.425 446.261 114.717 447.344 113.724 448.164C111.85 449.71 111.064 450.254 109.075 448.125C108.304 447.299 107.894 447.657 107.441 448.336C106.766 449.351 106.024 450.311 104.889 450.828C103.956 451.252 103.814 451.798 104.323 452.658C104.518 452.989 104.792 453.453 104.389 453.825C103.994 454.19 103.597 453.829 103.211 453.708C100.234 452.771 97.2573 451.834 94.2816 450.893C92.1178 450.21 89.7644 449.853 87.8422 448.749C85.468 447.384 82.89 446.693 80.4269 445.651C79.0554 445.07 77.67 444.483 76.1656 444.361C74.0059 444.186 72.0342 443.496 70.1137 442.511C68.0557 441.454 65.9153 440.533 63.8008 439.618C59.4403 437.733 54.8312 436.504 50.204 435.395C49.5625 435.241 48.9833 435.239 48.332 435.403C46.2738 435.924 45.0559 434.889 45.4227 432.879C45.7362 431.159 45.9824 429.477 46.0348 427.703C46.0842 426.015 47.1225 424.359 47.7029 422.682C47.9114 422.079 47.9989 421.431 48.2367 420.842C48.6467 419.829 48.2402 419.122 47.5792 418.383C45.8925 416.496 45.9171 416.478 48.1186 415.535C48.3065 415.454 48.461 415.294 48.693 415.126C48.5732 414.662 47.9449 414.436 48.0307 413.818C49.9649 414.396 51.9854 413.869 53.5111 413.08C55.7924 411.899 57.8512 412.077 60.0678 412.645C60.6979 412.806 61.2616 412.999 61.9215 412.761C63.873 412.059 65.9077 411.75 67.963 411.528C69.1956 411.395 70.155 410.834 71.0253 409.861C76.0465 404.246 81.1822 398.733 86.2052 393.12C93.1213 385.391 99.8276 377.491 105.328 368.652C105.83 367.845 106.467 367.407 107.456 367.69C108.388 367.956 108.955 367.478 109.31 366.691C109.923 365.332 110.585 363.987 111.08 362.584C111.859 360.38 112.545 358.141 113.214 355.9C113.538 354.813 114.141 354.437 115.269 354.623C116.599 354.843 117.903 355.115 119.213 355.776C119.701 354.91 119.643 354.18 119.664 353.484C119.813 348.565 120.417 343.72 121.747 338.966C122.604 335.901 123.205 335.54 126.136 336.74C126.398 336.847 126.639 337.005 126.891 337.137C128.481 337.973 128.485 337.978 129.805 336.836C131.692 335.202 133.123 333.134 134.883 331.396C140.398 325.952 144.58 319.563 148.366 312.878C149.065 311.644 149.527 310.237 151.342 310.259C151.629 310.263 151.963 309.927 152.203 309.679C154.514 307.279 156.62 304.723 157.849 301.577C159.629 297.02 161.125 292.335 163.16 287.896C166.824 279.905 169.969 271.694 173.649 263.719C176.018 258.584 178.279 253.353 181.769 248.814C181.995 248.521 182.241 248.241 182.022 247.877C181.817 247.537 181.441 247.498 181.076 247.543C180.724 247.587 180.369 247.634 180.027 247.723C178.654 248.084 177.39 247.876 176.131 247.204C174.564 246.368 172.93 245.763 171.104 245.577C169.398 245.404 168.453 243.513 169.176 242.004C170.25 239.761 171.226 237.444 172.559 235.359C176.572 229.083 180.597 222.818 184.303 216.352C188.821 208.466 194.069 201.038 198.85 193.316C200.194 191.146 201.783 189.129 202.827 186.766C205.064 181.701 206.656 176.371 209.16 171.416C209.21 171.317 209.144 171.158 209.131 171.027C208.729 170.462 208.021 171.194 207.583 170.639C207.554 169.841 208.056 169.202 208.371 168.512C211.299 162.111 214.257 155.724 217.187 149.323C218.09 147.349 217.943 146.893 215.947 146.096C214.04 145.335 212.071 144.728 210.134 144.041C209.673 143.877 209.304 143.978 208.987 144.327C208.606 144.748 208.195 145.147 207.857 145.6C206.061 148.01 203.837 149.949 201.487 151.811C199.719 153.212 197.752 154.523 196.496 156.409C195.345 158.139 194.062 159.708 192.648 161.202C191.728 162.173 190.849 163.125 191.268 164.694C191.523 165.646 190.93 166.547 190.376 167.236C189.266 168.616 187.985 170.114 186.351 170.606C183.94 171.331 182.274 173.755 179.491 173.462C177.646 174.642 175.574 175.455 174.036 177.126C170.907 180.525 168.033 184.119 165.484 187.966C164.5 189.451 163.208 190.518 161.602 191.159C158.499 192.396 155.488 193.826 152.451 195.21C145.846 198.218 139.604 201.874 133.42 205.639C132.265 206.343 131.26 207.238 130.292 208.191C127.495 210.943 125.803 214.361 124.263 217.89C123.365 219.948 123.144 220.006 121.105 219.036C120.661 218.825 120.273 218.499 119.848 218.244C116.865 216.459 113.968 214.506 110.62 213.422C110.091 213.251 109.517 212.823 108.989 213.143C107.016 214.337 104.984 215.462 102.927 217.313C106.118 218.287 108.275 220.42 110.902 221.777C112.784 222.749 114.363 224.068 115.406 225.881C116.756 228.228 117.493 230.747 116.174 233.377C115.377 234.968 114.242 236.283 112.853 237.467C111.088 238.971 109.431 239.615 107.358 238.194C106.271 237.448 104.756 237.352 103.923 237.959C102.783 238.787 101.175 239.121 100.644 240.895C99.8674 243.488 98.2896 245.748 96.7974 247.993C95.242 250.334 93.0465 251.925 90.3623 253.038C89.8611 251.288 89.9612 249.722 89.9451 248.169C89.9388 247.583 90.0124 247.024 89.2648 246.818C88.1172 246.5 87.9028 245.519 87.6792 244.541C87.5495 243.973 87.763 243.322 87.3461 242.706C84.842 247.244 82.6168 249.233 80.089 249.219C80.5093 247.935 80.9088 246.658 81.345 245.393C83.0099 240.567 84.6947 235.756 86.6333 231.022C88.684 226.015 90.9732 221.148 93.6434 216.453C95.0439 213.991 96.4932 211.556 97.9051 209.099C98.2494 208.5 98.6939 207.975 97.7204 207.355L97.7182 207.355ZM407.989 217.293C406.828 216.445 405.91 215.265 404.437 214.688C404.363 215.705 405.142 216.468 404.982 217.53C403.553 217.288 403.119 215.766 401.568 215.284C402.199 219.001 402.81 222.549 402.599 226.182C404.983 225.777 409.611 222.387 411.783 219.549C410.649 218.567 409.163 218.151 407.989 217.293L407.989 217.293ZM396.412 228.69C399.164 229.1 399.375 228.882 398.938 225.941C398.034 226.925 397.253 227.774 396.412 228.69ZM443.909 261.929C443.8 260.948 443.1 260.602 442.132 260.285C442.384 261.345 443.385 261.378 443.909 261.929ZM412.679 242.745C414.347 241.567 416.319 241.666 417.955 243.097C418.59 243.653 419.135 244.326 419.652 244.999C422.206 248.321 425.075 251.303 428.278 254.038C429.932 255.45 431.439 257.211 432.275 259.428C433.106 261.631 433.254 261.575 435.232 260.452C435.417 260.347 435.615 260.263 435.796 260.152C438.78 258.315 441.888 258.213 445.108 259.508C445.235 258.884 445.407 258.406 444.938 257.734C444.116 256.557 444.584 255.281 445.922 254.618C446.83 254.168 447.646 253.675 448.253 252.831C449.601 250.955 449.619 250.968 451.649 250.339C451.873 249.742 451.43 249.451 451.089 249.109C450.036 248.048 448.991 246.903 447.599 246.352C444.339 245.061 442.676 242.013 440.197 239.873C439.871 239.591 439.494 239.073 439.726 238.77C440.531 237.718 439.577 237.541 439.05 237.068C438 236.124 436.383 235.524 436.873 233.564C436.925 233.358 436.349 232.951 436.016 232.701C434.541 231.594 433.019 230.547 431.573 229.403C430.723 228.73 429.922 228.555 428.832 228.811C427.071 229.225 425.097 229.346 423.933 227.725C422.868 226.239 421.42 225.204 420.228 223.887C419.374 222.944 418.174 222.021 416.874 221.869C415.888 221.754 414.843 222.494 414.231 223.355C413.509 224.37 412.526 225.028 411.605 225.793C411.098 226.215 410.582 226.486 409.933 226.631C408.528 226.947 407.265 227.609 406.194 228.572C404.79 229.835 403.132 230.694 401.371 231.199C398.784 231.94 397.136 233.644 395.784 235.78C396.129 236.472 396.786 236.626 397.366 236.824C399.71 237.623 401.888 238.776 404.093 239.874C404.532 240.093 405.005 240.315 405.483 240.376C407.051 240.577 408.176 241.446 409.231 242.546C410.365 243.729 411.283 243.731 412.679 242.745L412.679 242.745ZM379.196 256.82C379.529 256.933 379.895 256.964 380.214 257.103C380.986 257.438 381.98 257.719 381.954 258.724C381.929 259.696 380.902 259.682 380.198 259.931C380.077 259.974 379.984 260.095 379.757 260.279C380.253 261.213 380.763 262.174 381.405 263.382C383.401 261.235 384.636 258.703 387.089 257.182C386.407 256.387 385.629 256.228 384.973 255.873C383.139 254.877 381.605 253.638 380.84 251.56C380.394 250.347 379.815 250.291 379.056 251.312C378.009 252.722 376.95 254.106 375.389 255.259C376.694 256.031 377.957 256.398 379.196 256.82L379.196 256.82ZM376.244 241.49C378.085 240.983 379.696 242.121 381.437 241.733C381.714 241.671 381.88 242.015 382.08 242.215C385.101 245.229 388.611 247.64 391.993 250.209C392.215 250.377 392.482 250.501 392.747 250.594C393.394 250.819 394.196 251.374 394.694 250.704C395.157 250.08 394.316 249.627 393.939 249.156C393.762 248.934 393.517 248.752 393.391 248.507C393.04 247.829 392.355 247.036 392.828 246.37C393.393 245.576 394.219 246.332 394.929 246.531C395.891 246.802 396.784 247.223 397.686 247.645C398.495 248.023 399.286 248.543 400.619 248.481C399.848 247.056 398.717 246.354 398.002 245.318C397.331 244.346 397.616 243.648 398.798 243.663C400.212 243.68 401.693 243.763 402.759 244.889C403.986 246.185 405.593 246.226 407.218 246.379C405.148 245.086 403.19 243.669 401.297 242.166C399.367 240.634 397.001 239.724 395.267 237.912C394.976 237.608 394.588 237.352 394.135 237.405C391.894 237.662 390.557 236.044 389.005 234.913C388.266 234.375 388.655 233.609 388.991 233.005C389.364 232.335 389.866 231.737 390.544 230.778C388.727 231.608 387.482 232.601 386.152 233.449C384.297 234.632 382.467 235.855 380.591 237.002C379.558 237.634 378.359 238.082 377.194 238.117C374.838 238.188 373.586 239.744 372.104 241.31C373.521 242.318 375.043 241.821 376.245 241.49L376.244 241.49ZM373.633 233.007C374.316 233.116 374.702 232.692 374.921 232.127C375.188 231.438 374.597 231.279 374.167 231.085C372.612 230.383 371.082 229.6 369.476 229.042C362.707 226.692 356.899 222.865 351.728 217.944C348.696 215.058 345.445 212.406 342.62 209.294C339.492 205.848 335.603 203.308 331.835 200.664C326.978 197.255 322.622 193.341 318.71 188.895C315.145 184.844 311.524 180.842 307.915 176.83C307.606 176.486 307.416 175.926 306.706 176.008C307.015 177.72 307.874 179.206 308.633 180.699C312.261 187.837 316.815 194.265 322.746 199.746C326.18 202.92 329.631 206.077 333.056 209.262C335.124 211.186 337.515 212.547 339.944 213.822C342.166 214.989 344.206 216.38 346.171 217.891C347.87 219.197 349.676 220.34 351.575 221.267C354.543 222.715 357.149 224.652 359.666 226.725C362.835 229.335 366.37 231.233 370.288 232.404C371.367 232.727 372.513 232.83 373.633 233.007L373.633 233.007ZM282.963 180.304C284.018 180.614 284.555 181.395 284.998 182.33C286 184.447 287.114 186.514 288.054 188.657C288.665 190.05 289.541 191.216 290.486 192.373C293.5 196.061 296.642 199.634 300.158 202.85C302.407 204.906 304.73 206.882 307.238 208.634C309.449 210.179 311.544 211.877 313.598 213.63C320.189 219.254 327.189 224.357 334.428 229.089C337.792 231.287 341.545 232.926 345.524 234.624C346.822 235.221 348.356 235.967 349.922 236.634C351.159 237.161 352.074 237.97 352.642 239.194C353.658 241.382 355.48 242.689 357.611 243.624C358.972 244.222 360.467 244.48 361.768 245.236C362.421 245.615 362.874 245.284 363.184 244.763C363.569 244.117 363.123 243.631 362.626 243.392C361.735 242.964 360.792 242.624 359.843 242.343C357.998 241.797 356.446 240.869 355.573 239.1C355.287 238.519 354.859 238.271 354.332 238.04C352.251 237.126 350.184 236.177 348.095 235.284C347.499 235.029 346.99 234.652 346.433 234.348C344.542 233.314 344.081 231.441 343.723 229.587C343.63 229.105 343.558 228.855 343.168 228.662C343.041 228.599 342.915 228.532 342.782 228.482C338.299 226.811 334.468 223.931 330.263 221.761C327.436 220.302 324.959 218.293 322.031 216.996C320.684 216.399 319.527 215.393 318.709 213.89C317.516 211.698 315.32 210.508 312.912 209.834C311.191 209.353 309.622 208.505 307.98 207.834C306.819 207.36 306.089 206.554 305.95 205.357C305.841 204.406 305.317 203.95 304.641 203.361C303.22 202.124 301.983 200.626 301.383 198.818C301.06 197.845 300.574 197.067 300.003 196.261C298.569 194.236 297.234 192.141 295.802 190.116C295.195 189.257 294.517 188.42 293.746 187.709C290.511 184.722 286.808 182.337 283.298 179.702C283.045 179.512 282.672 179.163 282.419 179.621C282.158 180.094 282.655 180.212 282.962 180.302L282.963 180.304ZM289.648 170.969C291.715 174.102 293.841 177.196 295.947 180.304C296.263 180.77 296.751 181.181 296.683 181.794C296.521 183.232 297.368 184.124 298.224 185.108C300.63 187.875 302.066 191.229 303.553 194.52C304.23 196.02 305.21 197.158 306.496 198.059C308.878 199.729 311.27 201.392 313.73 202.941C316.033 204.39 317.751 206.52 319.954 208.074C320.171 208.227 320.381 208.484 320.453 208.734C321.635 212.821 324.562 215.362 328.054 217.433C329.822 218.481 331.557 219.587 333.286 220.7C336.058 222.484 339.238 223.377 342.172 224.809C344.334 225.864 346.669 226.666 348.572 228.113C350.087 229.264 351.436 230.649 353.206 231.41C356.537 232.843 359.429 235.094 362.812 236.444C364.45 237.098 366.127 237.674 367.69 238.55C368.91 239.234 369.089 239.055 370.763 237.108C369.616 236.722 368.683 236.412 367.753 236.095C367.418 235.981 366.988 235.946 366.773 235.715C365.346 234.179 363.343 233.794 361.556 232.957C359.333 231.917 357.088 230.831 355.714 228.615C355.64 228.496 355.566 228.356 355.454 228.282C352.208 226.133 349.481 223.242 345.735 221.788C342.434 220.507 339.465 218.591 336.671 216.401C335.792 215.711 335.078 215.042 334.991 213.844C334.938 213.113 334.433 212.628 333.86 212.141C331.386 210.041 328.528 208.483 326.038 206.395C322.035 203.039 318.01 199.719 314.535 195.8C310.125 190.826 306.761 185.2 304.151 179.101C302.672 175.647 300.71 172.446 298.832 169.203C298.406 168.467 298.012 167.713 297.627 166.955C296.33 164.399 296.404 164.248 294.148 163.174C293.073 162.662 291.671 162.825 290.414 162.726C290.27 162.714 290.079 162.964 289.95 163.125C287.973 165.607 287.842 168.233 289.647 170.969L289.648 170.969ZM106.737 229.911C107.044 230.683 107.707 230.647 108.293 230.203C108.781 229.832 109.227 229.483 108.643 228.706C107.732 227.492 106.955 226.19 105.223 225.769C105.395 227.333 106.207 228.577 106.737 229.911L106.737 229.911ZM252.629 116.255C252.893 115.198 251.839 115.294 251.213 115.178C250.467 115.039 250.52 115.612 250.493 116.124C250.423 117.456 250.343 118.789 250.211 120.116C250.109 121.135 250.464 121.552 251.513 121.375C252.13 121.271 252.778 121.347 253.576 120.964C252.907 119.401 252.2 117.973 252.629 116.255L252.629 116.255ZM250.91 128.453C250.054 128.588 249.637 128.948 249.568 129.766C249.449 131.192 249.01 132.526 248.438 133.826C248.354 134.018 248.247 134.235 248.264 134.431C248.375 135.656 249.444 135.942 250.309 136.296C251.203 136.661 252.219 137.831 253.154 136.729C255.421 134.057 257.147 131.115 256.561 127.313C254.627 127.713 252.78 128.158 250.91 128.453L250.91 128.453ZM264.596 81.0202C265.475 80.7516 265.677 80.2158 265.202 79.4125C264.512 79.7611 264.856 80.4969 264.596 81.0202ZM249.322 64.7458C248.941 64.9288 248.49 65.052 248.206 65.3368C246.049 67.4976 243.489 69.19 241.304 71.3133C240.82 71.7837 240.251 72.2447 240.177 73.0026C240.534 73.1477 240.762 72.995 241.001 72.8279C243.493 71.0798 245.977 69.3189 248.489 67.5993C250.32 66.345 252.303 65.417 254.537 65.1455C255.615 65.0144 256.612 64.687 257.516 64.085C257.764 63.9202 257.936 63.706 257.854 63.3815C257.763 63.0216 257.44 62.9555 257.186 63.0307C254.605 63.7928 251.806 63.5516 249.322 64.7454L249.322 64.7458ZM259.951 55.1741C258.921 55.6597 258.01 56.2463 257.166 57.0564C256.151 58.0324 254.815 58.635 253.511 59.1951C252.763 59.5161 252.21 59.9507 251.783 60.8958C253.482 60.7977 254.797 60.0025 256.246 59.8218C256.465 59.7946 256.633 59.6811 256.673 59.2926C256.803 58.0436 257.522 57.3576 258.691 57.2519C259.249 57.2011 259.841 57.2207 260.383 57.3502C263.185 58.0196 265.35 57.0093 267.076 54.8584C267.605 54.1997 268.444 53.8422 268.936 52.769C265.763 53.4778 262.737 53.8623 259.951 55.1745L259.951 55.1741ZM258.902 68.0846C260.777 67.3001 262.18 66.7127 263.945 65.9739C261.706 65.5955 260.299 66.2227 258.902 68.0846ZM266.25 61.3726C268.29 61.486 270.063 60.756 271.807 60.1264C273.699 59.4434 275.583 60.7706 277.412 59.929C274.374 56.6709 269.604 57.239 266.25 61.3728L266.25 61.3726ZM274.408 56.0369C275.871 56.7944 277.414 57.0708 279.236 57.7273C277.499 54.2518 276.359 54.5602 274.408 56.0369ZM281.461 55.2209C282.075 56.1479 282.436 56.7395 283.379 56.8039C283.224 55.7651 282.46 55.6705 281.461 55.2209ZM278.953 63.4313C276.007 62.4791 273.089 63.2669 270.215 64.0332C269.787 64.1474 269.475 64.5514 269.516 64.9935C269.548 65.3471 269.972 65.4825 270.284 65.6463C270.67 65.8495 271.068 65.919 271.506 65.9077C274.964 65.8204 278.423 65.7614 281.881 65.6568C282.349 65.6428 282.867 65.6092 283.509 65.0467C281.832 64.5277 280.407 63.9013 278.953 63.4307L278.953 63.4313ZM271.798 72.2753C272.158 72.7986 272.479 73.3761 272.938 73.797C273.772 74.5603 274.69 75.2331 275.583 75.9303C276.782 76.8662 277.89 76.6809 279.141 75.5145C277.127 74.1604 275.306 72.9338 273.48 71.7137C273.246 71.5567 272.999 71.409 272.741 71.2963C272.387 71.1413 272.024 71.1843 271.776 71.4856C271.582 71.7205 271.632 72.0343 271.798 72.2759L271.798 72.2753ZM288.579 59.2469C288.316 59.0092 288.023 58.7499 287.711 59.147C287.499 59.4185 287.688 59.7039 287.887 59.877C288.837 60.7076 289.475 61.8087 290.313 62.7868C290.993 62.3397 291.24 61.7011 291.73 61.0361C290.469 60.6316 289.46 60.0425 288.579 59.2465L288.579 59.2469ZM285.079 69.2527C286.118 69.5722 286.808 69.8735 287.627 69.7775C287.145 68.7821 286.296 68.6072 285.079 69.2527ZM289.468 72.7264C286.862 71.7939 284.256 70.8524 281.623 69.9977C280.071 69.4936 278.565 69.9472 276.714 70.5648C278.765 72.1725 280.675 73.2466 282.538 74.3919C283.255 74.8333 284.093 75.1141 284.565 75.8992C284.903 76.4614 285.508 76.4681 286.066 76.5572C289.498 77.1053 292.883 77.9429 296.351 78.2728C297.479 78.3802 298.613 78.4118 299.745 78.478C300.151 78.5017 300.455 78.3606 300.463 77.9149C300.469 77.5593 300.408 77.1628 299.964 77.0988C298.053 76.8221 297.151 75.4057 296.233 73.9426C295.785 73.2279 295.148 72.6313 294.59 71.9867C293.961 71.2598 293.192 70.8465 291.983 70.8677C292.526 71.991 293.8 72.717 293.248 74.1896C291.946 73.6833 290.718 73.1738 289.468 72.7264ZM286.97 79.2585C286.676 79.8985 286.944 80.2707 287.038 80.6714C287.306 81.8102 287.927 82.2939 289.162 82.1157C291.301 81.8073 293.457 81.6218 295.606 81.385C295.61 81.2315 295.614 81.0779 295.618 80.9248C292.718 80.3663 289.818 79.8075 286.97 79.2592L286.97 79.2585ZM294.628 67.2429C294.391 67.3387 294.176 67.5626 294.026 67.7808C293.845 68.046 293.947 68.341 294.227 68.4732C295.82 69.2227 297.423 69.9512 299.023 70.6866C298.2 69.4552 297.155 68.4708 295.973 67.6357C295.581 67.3595 295.149 67.0323 294.628 67.2434L294.628 67.2429ZM299.701 59.1094C300.081 59.6474 300.593 59.3471 301.004 59.2612C305.964 58.2279 307.44 58.1969 312.149 59.1536C307.831 56.2437 303.779 57.6688 299.701 59.1091L299.701 59.1094ZM303.09 66.2849C304.133 66.8916 304.884 67.3284 305.749 67.8313C305.38 65.7628 305.159 65.623 303.09 66.2849ZM307.904 75.7442C307.461 71.9164 303.028 66.3864 298.421 66.816C301.509 70.1865 304.854 73.1058 307.127 76.8327C307.872 76.6012 307.948 76.1289 307.904 75.7442ZM304.324 77.1771C304.717 78.4874 304.859 79.6978 306.342 80.4058C305.934 79.0484 305.261 77.9722 304.324 77.1771ZM327.67 72.0915C326.483 70.3295 325.242 68.625 323.286 67.6707C324.616 69.3092 326.211 70.6284 327.67 72.0915ZM316.388 73.7708C316.634 74.2106 317.065 74.4467 317.465 74.7452C319.305 76.1172 321.29 77.38 321.954 79.815C322.061 80.2089 322.284 80.6281 322.577 80.9048C323.89 82.1469 325.248 83.3415 326.648 84.6058C327.816 82.5162 327.849 80.791 326.64 78.8575C325.287 76.6942 323.995 74.4844 322.551 72.3819C321.863 71.3793 321.297 70.1103 319.808 69.9146C319.437 69.8656 319.286 69.4635 319.092 69.1701C317.673 67.0212 315.403 66.8777 312.952 66.3457C313.93 69.165 315.113 71.4894 316.388 73.7708ZM306.844 86.7833C307.162 86.9657 307.391 86.823 307.573 86.5913C307.908 86.1634 308.019 85.6706 307.653 85.2395C307.421 84.9671 307.168 85.1698 307.005 85.4432C306.747 85.8734 306.443 86.2909 306.844 86.7833ZM307.144 84.2252C307.225 83.6292 307.302 83.0644 306.461 83.0913C306.291 83.0966 305.978 83.3025 305.985 83.3948C306.043 84.0783 306.608 84.1113 307.144 84.225L307.144 84.2252ZM278.78 102.958C278.989 102.78 279.274 102.599 279.533 102.584C282.88 102.391 285.682 100.476 288.838 99.6555C291.193 99.0427 293.572 98.7486 295.962 98.4259C299.174 97.9923 300.514 95.3189 302.219 93.0978C302.323 92.962 302.312 92.6765 302.257 92.49C301.756 90.7896 301.281 89.0834 300.522 87.4655C300.059 86.4776 299.278 86.8882 298.689 87.0235C296.39 87.5504 294.051 87.6795 291.717 87.8456C290.169 87.9561 288.61 88.08 287.059 87.7589C283.756 87.0753 281.905 85.0091 281.263 81.7629C281.209 81.4892 281.133 81.2195 281.017 80.7423C279.379 81.6843 277.696 80.8215 276.047 81.108C275.602 81.1853 275.215 80.9906 274.823 80.8221C273.801 80.3823 272.877 79.7799 271.636 79.8629C270.766 79.9209 270.185 79.0857 269.62 78.4288C268.625 77.2703 268.2 75.8166 267.506 74.5018C267.356 74.2174 267.3 73.772 266.822 73.8261C266.423 73.8714 266.204 74.1673 266.112 74.527C265.909 75.3245 265.457 76.2025 266.663 76.6388C267.236 79.121 269.594 80.0551 271.092 81.7347C272.575 83.398 273.519 85.4025 274.595 87.3134C275.275 88.521 276.161 89.2777 277.486 89.6069C282.238 90.7879 287.057 91.6418 291.875 92.4885C293.55 92.7825 295.219 93.1658 296.941 93.113C297.507 93.0956 298.056 93.2059 298.336 93.7784C298.31 93.8845 298.306 94.0066 298.273 94.0148C293.936 95.0701 290.313 98.0706 285.778 98.5966C281.778 99.0606 277.788 99.7805 273.751 98.9238C272.977 98.7596 272.229 98.5233 271.567 98.1012C269.915 97.0464 268.502 95.599 266.402 95.3091C265.906 95.2407 265.333 94.5764 266.447 94.2787C266.883 94.1622 267.028 93.8985 266.874 93.4966C265.535 90.0158 265.734 86.2187 264.637 82.6901C264.605 82.5862 264.453 82.5193 264.284 82.3707C263.657 83.7524 263.931 85.1901 263.896 86.5745C263.819 89.6323 263.974 92.6668 265.031 95.5989C265.434 96.7185 266.074 97.6067 267.001 98.2975C269.21 99.9455 269.935 101.628 269.049 104.125C268.368 106.044 268.134 108.074 267.279 109.957C266.726 111.176 266.297 112.465 265.607 113.624C263.902 116.489 262.867 119.715 260.855 122.417C260.184 123.319 260.872 123.947 261.514 124.337C262.501 124.935 263.655 125.06 264.807 124.903C265.797 124.769 265.96 123.881 266.144 123.169C266.769 120.744 267.724 118.467 268.972 116.305C270.566 113.544 271.884 110.635 273.586 107.929C274.913 105.821 276.953 104.513 278.779 102.958L278.78 102.958ZM271.428 93.1415C271.094 93.8178 271.924 95.3638 272.825 95.7452C273.649 96.0989 274.197 95.7664 274.526 95.0136C274.903 94.1526 274.434 92.7272 273.701 92.3966C273.132 92.1408 271.688 92.6141 271.428 93.1415ZM275.846 96.2124C277.847 97.2858 278.649 97.3157 279.445 96.4337C279.726 96.1218 280.005 95.7289 279.729 95.3165C279.526 95.0133 279.114 95.0221 278.76 95.08C277.797 95.2376 276.881 95.5214 275.845 96.2123L275.846 96.2124ZM281.346 93.4828C281.908 94.5006 282.532 94.801 283.834 94.3897C282.96 93.6663 282.283 93.5254 281.346 93.4828ZM285.565 94.891C285.583 95.2112 285.758 95.4213 286.062 95.4253C286.58 95.4324 287.231 95.6189 287.463 94.9662C287.554 94.7078 287.098 94.6161 286.83 94.5867C286.377 94.5376 285.858 94.2711 285.565 94.891ZM264.589 128.791C264.669 127.992 264.444 127.572 263.685 127.421C263.351 127.298 263.008 127.2 262.691 127.049C261.75 126.601 261.196 126.931 260.974 127.894C260.307 130.787 259.602 133.671 259.015 136.58C258.709 138.096 259.607 139.205 261.186 139.535C262.085 139.722 262.983 139.956 263.893 140.042C265.103 140.156 265.414 139.873 265.523 138.663C265.659 137.165 265.222 135.723 264.985 134.266C264.69 132.449 264.403 130.629 264.589 128.791ZM274.173 129.313C273.507 127.957 273.392 126.464 273.133 124.757C272.626 124.97 272.356 125.047 272.124 125.186C268.856 127.154 268.839 127.204 270.376 130.746C270.599 131.261 270.872 131.754 271.179 132.373C272.303 131.913 272.929 130.805 273.936 130.22C274.301 130.008 274.351 129.676 274.173 129.313ZM245.461 266.971C246.935 267.14 248.424 267.037 249.908 267.086C251.298 267.133 251.997 266.481 252.366 265.24C253.195 262.446 254.112 259.678 254.885 256.87C257.126 248.728 259.314 240.582 262.321 232.666C264.415 227.154 266.37 221.593 268.624 216.137C269.76 213.386 270.273 210.377 269.647 207.36C268.62 202.411 269.678 197.773 271.564 193.235C271.701 192.907 271.84 192.579 272 192.262C272.358 191.551 272.193 190.986 271.463 190.705C270.203 190.219 270.45 189.461 270.894 188.511C272.469 185.146 274.581 182.111 276.687 179.082C278.645 176.264 280.162 173.218 281.661 170.159C282.88 167.67 283.996 165.13 285.149 162.609C285.976 160.8 286.846 159.028 287.99 157.376C288.753 156.276 289.84 155.099 288.763 153.535C288.481 153.126 288.814 152.724 289.087 152.393C289.403 152.01 289.757 151.657 290.065 151.268C291.223 149.808 291.387 148.66 290.275 147.223C289.157 145.777 288.128 144.259 286.756 142.989C285.137 141.49 283.053 140.932 281.211 139.905C279.423 138.907 277.449 138.239 275.543 137.458C273.655 136.685 271.69 136.732 270.325 138.743C269.054 140.613 267.656 142.441 266.14 144.098C264.943 145.405 264.082 147.382 261.855 147.463C260.688 149.187 259.008 148.438 257.534 148.243C256.128 148.057 255.361 148.49 254.684 149.727C253.763 151.41 252.827 153.081 252.032 154.829C251.35 156.329 250.414 157.603 249.099 158.669C247.832 159.696 246.913 161.099 246.241 162.596C244.724 165.974 242.907 169.175 240.79 172.21C240.545 172.561 240.127 172.972 240.301 173.337C240.937 174.677 240.188 175.841 239.921 177.042C238.522 183.34 238.668 189.45 241.93 195.224C242.447 196.139 242.548 197.069 242.227 198.09C241.95 198.971 241.694 199.852 241.301 200.693C240.066 203.333 238.908 206.01 237.63 208.628C235.972 212.026 234.572 215.498 233.928 219.247C233.667 220.766 232.734 221.963 231.848 223.16C231.369 223.807 230.879 224.358 231.559 225.193C232.011 225.747 231.627 226.248 231.218 226.688C230.091 227.9 228.735 228.816 227.3 229.596C226.491 230.035 225.901 230.614 225.672 231.46C225.24 233.05 224.12 234.438 224.656 236.331C224.893 237.169 224.439 238.288 223.92 239.158C222.492 241.549 221.431 244.102 220.586 246.742C219.447 250.298 217.812 253.574 215.386 256.435C215.163 256.698 214.898 256.961 215.008 257.632C217.604 258.651 220.124 260.205 223.21 260.479C229.798 261.063 236.328 262.046 242.665 264.038C242.936 264.123 243.21 264.197 243.48 264.288C245.354 264.923 245.396 264.98 245.461 266.972L245.461 266.971ZM196.257 461.415C197.286 462.507 198.767 462.4 199.981 462.929C201.207 463.464 202.55 463.731 203.844 464.107C204.65 464.34 205.196 464.093 205.533 463.282C205.811 462.613 205.942 461.93 206.029 461.221C206.357 458.542 206.64 455.854 207.067 453.19C207.274 451.897 206.145 450.831 206.646 449.514C206.77 449.189 206.275 448.94 205.94 448.838C203.173 447.991 200.417 447.101 197.625 446.35C195.818 445.865 195.793 445.96 194.724 447.522C194.563 447.757 194.349 447.972 194.252 448.23C194.016 448.861 192.912 449.362 193.463 450.005C194.067 450.711 195.09 451.225 196.13 450.996C196.826 450.843 197.441 450.604 198.188 450.839C199.92 451.382 200.198 451.877 199.63 453.626C198.755 456.321 197.43 458.823 196.256 461.416L196.257 461.415ZM185.912 447.354C185.964 447.497 186.263 447.575 186.461 447.639C187.533 447.983 188.602 448.335 189.684 448.641C190.488 448.868 191.154 448.731 191.712 447.976C192.332 447.136 193.099 446.405 193.875 445.545C192.052 444.389 190.143 443.921 188.247 443.434C187.23 443.173 187.115 444.112 186.874 444.691C186.51 445.563 185.507 446.227 185.912 447.354L185.912 447.354ZM183.344 451.738C181.835 454.65 181.853 454.602 185.112 454.884C186.329 454.989 186.901 454.422 187.492 453.571C189.493 450.69 189.568 451.129 186.506 449.797C186.249 449.685 185.981 449.582 185.753 449.425C184.926 448.851 184.472 449.236 184.136 450.009C183.883 450.59 183.609 451.162 183.344 451.738L183.344 451.738ZM190.701 462.492C189.823 462.21 188.922 461.981 188.075 461.626C185.608 460.593 186.313 460.692 184.819 462.731C184.25 463.507 183.784 464.411 183.588 465.475C184.033 465.65 184.416 465.8 184.8 465.951C187.506 467.016 189.644 466.34 191.212 463.925C191.691 463.191 191.498 462.749 190.701 462.492ZM192.3 459.334C192.366 458.908 192.441 458.352 191.91 458.283C190.425 458.087 188.922 457.695 187.07 458.237C188.482 459.425 189.945 459.688 191.304 460.136C191.89 460.329 192.212 459.905 192.3 459.334ZM186.432 473.969C187.306 471.46 187.065 470.837 184.595 469.807C183.253 469.247 181.973 468.508 180.449 468.378C179.411 468.29 179.484 467.342 179.498 466.319C177.848 467.602 176.822 469.167 175.169 470.292C176.021 470.936 176.832 471.399 177.245 472.346C177.611 473.186 178.517 473.658 179.315 474.087C180.684 474.826 182.117 475.445 183.513 476.136C184.454 476.601 185.141 476.366 185.63 475.46C185.899 474.963 186.248 474.495 186.431 473.969L186.432 473.969ZM180.815 458.18C180.966 457.98 180.692 457.84 180.526 457.752C180.163 457.56 179.849 457.62 179.624 457.998C179.537 458.192 179.477 458.464 179.7 458.542C180.129 458.691 180.55 458.53 180.815 458.18ZM189.27 454.958C190.23 455.532 191.154 455.371 192.023 455.438C192.204 455.452 192.562 455.296 192.561 455.219C192.557 453.611 193.971 453.783 195.036 453.452C194.508 452.281 193.525 452.012 192.641 451.651C192.117 451.437 191.661 451.722 191.344 452.137C190.665 453.025 190.018 453.936 189.271 454.957L189.27 454.958ZM206.469 483.345C206.496 482.818 206.141 482.419 205.837 482.036C203.316 478.857 200.025 476.704 196.406 474.987C195.702 474.653 195.208 474.802 194.802 475.462C194.209 476.427 193.547 477.349 192.977 478.327C192.292 479.503 192.319 479.523 193.619 480.18C193.997 480.372 194.39 480.537 194.775 480.715C197.077 481.613 199.422 482.395 201.647 483.499C202.824 484.082 204.249 483.749 205.498 484.343C206.204 484.679 206.438 483.941 206.469 483.345ZM161.728 484.276C164.392 485.451 166.112 487.856 168.477 489.426C169.262 489.947 170.029 490.356 170.951 490.572C174.332 491.366 177.769 491.908 181.112 492.879C182.008 493.139 182.856 493.478 183.685 493.882C184.053 494.061 184.573 494.241 184.358 494.774C184.181 495.213 183.695 495.235 183.248 495.172C182.547 495.072 181.846 494.951 181.141 494.899C180.747 494.87 180.336 494.611 179.806 495.007C180.568 496.06 181.621 496.834 182.728 497.295C186.163 498.722 189.102 500.994 192.364 502.7C193.195 503.135 194.049 503.888 194.953 502.682C195.292 502.23 195.881 502.52 196.336 502.725C197.373 503.19 198.426 503.628 199.434 504.15C202.913 505.952 206.716 506.893 210.334 508.316C212.376 509.119 214.448 509.852 216.403 510.899C219.066 512.327 219.056 511.726 219.343 509.091C219.789 504.991 217.42 501.996 215.285 498.926C214.679 498.054 213.953 497.264 213.26 496.456C212.235 495.258 211.045 494.299 209.573 493.654C205.282 491.772 201.202 489.486 197.151 487.134C195.38 486.106 193.439 485.368 191.661 484.324C191.249 484.082 190.741 483.804 190.261 484.144C189.459 484.712 188.711 485.037 187.74 484.424C187.284 484.136 186.809 484.565 186.432 484.906C186.011 485.287 185.589 485.667 185.159 486.037C184.363 486.722 183.558 486.513 182.848 485.942C182.159 485.386 181.728 484.679 182.081 483.714C182.393 482.859 183.186 481.878 182.711 481.137C182.295 480.487 181.161 480.302 180.35 479.9C177.926 478.701 175.363 477.854 172.83 476.934C171.169 476.331 170.048 476.722 169.02 478.159C167.701 480.003 166.373 481.84 165.048 483.679C165.375 481.908 164.905 480.081 165.329 478.211C164.057 479.875 162.776 481.535 161.517 483.21C161.218 483.608 161.242 484.063 161.728 484.277L161.728 484.276ZM169.147 465.364C169.022 465.841 169.224 466.189 169.681 466.372C170.138 466.555 170.601 466.725 171.063 466.898C172.088 467.283 172.795 467.069 173.182 465.939C173.473 465.09 173.918 464.295 174.404 463.239C172.857 462.954 171.782 463.402 170.678 463.558C169.651 463.702 169.367 464.524 169.147 465.364L169.147 465.364ZM171.7 459.086C171.539 459.459 171.422 459.851 171.204 460.457C175.819 459.997 176.152 459.766 176.828 456.737C174.377 456.069 172.667 456.852 171.7 459.086ZM174.851 449.543C174.854 449.614 174.849 449.685 174.859 449.755C174.964 450.441 174.586 451.399 175.178 451.762C175.989 452.259 177.03 452.388 177.98 452.646C178.387 452.756 178.652 452.484 178.824 452.163C179.058 451.727 179.253 451.271 179.458 450.82C180.223 449.142 179.781 447.959 178.131 447.272C175.858 446.327 174.765 447.083 174.851 449.542L174.851 449.543ZM166.717 465.562C167.015 465.663 167.265 465.501 167.308 465.163C167.357 464.764 167.19 464.446 166.771 464.433C166.095 464.413 165.378 464.301 164.8 464.864C165.307 465.511 166.083 465.349 166.717 465.562ZM148.566 463.236C151.856 462.541 154.881 463.055 157.893 462.973C161.081 462.886 164.175 461.896 167.315 461.327C167.86 461.228 168.213 460.873 168.24 460.309C168.301 459.091 168.606 457.928 168.968 456.774C169.232 455.934 168.998 455.397 168.064 455.26C166.112 454.973 164.25 454.194 162.194 454.424C161.239 454.531 160.188 454.346 159.261 454.044C156.857 453.262 154.812 454.298 152.716 455.14C152.474 455.237 152.248 455.479 152.11 455.711C150.744 458.015 149.656 460.447 148.566 463.236L148.566 463.236ZM158.835 443.196C158.489 443.069 158.205 442.927 157.922 443.31C155.957 445.975 153.975 448.628 152.427 451.623C154.581 450.804 156.606 451.199 158.655 451.431C162.011 451.809 165.397 451.917 168.652 452.802C168.948 451.915 168.807 451.316 168.526 450.716C167.761 449.082 167.769 449.078 169.272 447.795C169.196 448.2 169.101 448.529 169.08 448.863C169.062 449.176 169.242 449.387 169.576 449.425C169.907 449.463 170.167 449.324 170.157 448.993C170.129 448.107 170.544 447.156 169.691 446.385C169.083 445.836 169.09 445.003 168.686 444.127C171.964 443.947 174.955 444.29 177.918 444.965C179.023 445.217 180.187 445.917 181.219 445.572C182.288 445.215 182.352 443.698 183.118 442.862C183.304 442.659 183.489 442.432 183.422 441.966C181.789 441.161 179.935 440.754 178.124 440.242C174.642 439.259 171.136 438.357 167.651 437.38C166.473 437.049 165.667 437.257 165.03 438.408C164.241 439.833 163.304 441.182 162.204 442.399C160.904 443.837 160.709 443.887 158.835 443.195L158.835 443.196ZM191.064 312.768C192.698 312.617 192.681 313.719 192.72 314.822C192.725 314.945 192.847 315.064 193.131 315.578C195.193 311.387 197.131 307.544 196.61 302.473C194.438 305.241 191.756 306.895 190.595 309.855C190.328 310.534 190.135 311.181 190.312 311.906C190.416 312.331 190.543 312.817 191.063 312.769L191.064 312.768ZM110.723 435.188C111.665 433.909 112.294 432.633 113.031 431.431C113.909 429.998 114.56 428.431 114.793 426.678C115.083 424.502 115.726 422.382 116.653 420.369C117.099 419.401 117.567 418.441 117.971 417.455C118.265 416.74 118.683 415.839 117.734 415.395C116.65 414.888 116.526 415.972 116.188 416.63C114.391 420.127 113.509 423.953 112.237 427.639C111.612 429.45 111.088 431.296 110.47 433.111C110.236 433.801 109.975 434.435 110.723 435.188ZM119.452 401.218C119.077 400.559 118.601 400.573 118.224 400.423C115.396 399.3 115.307 399.281 114.486 402.104C113.651 404.976 112.115 407.563 111.286 410.427C110.91 411.725 110.939 411.782 112.307 412.074C114.05 412.445 114.137 412.431 114.866 410.761C115.574 409.137 116.183 407.47 116.886 405.844C117.585 404.224 118.223 402.566 119.452 401.218ZM112.998 415.211C113.005 414.298 111.719 414.327 110.952 414.04C110.365 413.821 109.748 413.765 109.484 414.418C108.362 417.199 106.024 418.982 104.089 421.094C103.619 421.607 103.482 422.609 102.366 422.31C102.055 422.226 101.899 422.71 102.07 422.925C104.445 425.914 105.96 429.515 108.834 432.646C110.298 427.856 111.622 423.526 112.944 419.195C113.346 417.88 112.988 416.531 112.998 415.211ZM106.951 438.914C107.46 436.178 106.521 434.087 104.105 432.658C101.566 431.155 99.5396 429.05 97.6356 426.872C96.5017 425.575 95.3322 425.01 93.7597 425.525C91.6237 426.226 89.4739 426.016 87.3111 425.864C87.0381 425.845 86.7573 425.855 86.5275 426.261C87.3616 427.52 89.1881 427.321 90.1378 428.554C89.6323 429.345 88.7013 428.876 87.9032 429.309C88.9424 431.742 91.2006 432.82 92.9805 434.357C94.419 435.598 96.0118 436.672 97.5926 437.736C98.6376 438.439 99.7057 439.098 101.082 439.129C102.291 439.157 103.362 439.81 104.47 440.28C106.096 440.97 106.63 440.639 106.951 438.914L106.951 438.914ZM102.414 411.672C99.3762 411.615 96.7659 410.632 93.8818 410.761C93.7887 412.516 95.0904 413.734 94.6653 415.31C94.5563 415.714 98.8626 419.365 99.3262 419.387C99.6621 419.403 99.8691 419.217 99.9197 418.916C100.331 416.481 101.222 414.195 102.413 411.672L102.414 411.672ZM87.7589 446.744C87.2545 446.074 86.6747 445.492 85.8977 445.188C84.893 444.796 84.0157 444.211 83.3226 443.417C82.6025 442.591 81.7927 442.609 80.8223 443.051C83.1236 444.351 85.189 446.004 87.7587 446.745L87.7589 446.744ZM70.5848 422.992C68.8398 420.446 65.8154 420.466 63.3557 419.364C62.866 419.144 62.3522 419.372 61.9253 419.604C60.901 420.16 59.9241 420.003 59.2028 419.221C58.2597 418.2 56.9554 418.13 55.8085 417.676C54.7814 417.27 53.8808 417.553 53.3255 418.657C52.8825 419.538 52.3315 420.327 52.4006 421.412C52.5356 423.533 51.6981 425.414 50.783 427.269C50.0715 428.712 49.4305 430.189 48.5804 432.038C49.9829 431.835 51 431.688 52.0164 431.541C52.507 431.469 52.9955 431.356 53.4875 431.338C53.8528 431.325 54.1882 431.527 54.331 431.882C54.4581 432.198 54.1927 432.384 53.9815 432.569C53.7689 432.755 53.5438 432.933 53.3579 433.144C52.9483 433.609 53.1589 434.039 53.6687 434.014C58.0001 433.808 61.4261 436.503 65.3465 437.599C67.4482 438.187 69.5302 438.845 71.8515 439.54C71.143 436.669 71.4215 436.371 74.0342 436.641C76.1188 436.857 78.0044 437.724 79.8656 438.549C81.9278 439.464 84.0465 440.45 85.7777 441.852C87.2298 443.028 88.6282 444.338 90.0133 445.627C92.2389 447.698 94.8695 449.035 97.6262 450.197C98.2522 450.462 98.9462 450.635 99.4759 450.304C100.98 449.366 102.419 448.291 103.28 446.688C103.852 445.624 103.566 444.852 102.533 443.914C99.0109 440.716 95.1657 437.923 91.3972 435.035C88.4197 432.755 85.4901 430.412 82.3511 428.342C80.5534 427.156 78.6812 426.177 76.6278 425.575C74.7766 425.033 73.0759 424.153 71.3226 423.389C71.0647 423.276 70.7251 423.197 70.5843 422.992L70.5848 422.992ZM89.6071 395.021C89.4082 395.212 89.2307 395.451 89.3681 395.781C89.8188 395.566 90.1981 395.278 90.4359 394.779C90.0264 394.436 89.8199 394.816 89.6069 395.021L89.6071 395.021ZM87.5686 402.934C86.2328 403.874 85.3767 404.689 84.5053 405.6C86.5373 405.624 86.6926 405.497 87.5686 402.934ZM84.8284 412.278C83.5577 412.272 82.2881 412.134 81.0171 412.065C80.3775 412.029 79.7598 411.927 79.1569 411.691C77.5193 411.052 77.5158 411.062 75.9911 412.722C80.2617 414.005 84.2776 415.921 88.6449 416.741C89.1004 416.336 88.8139 415.961 88.5798 415.626C88.0531 414.873 87.4638 414.163 86.9554 413.398C86.4382 412.62 85.772 412.283 84.8283 412.278L84.8284 412.278ZM87.1514 408.606C88.3123 410.093 89.4602 411.564 90.7255 413.186C91.3643 412.203 91.5551 411.325 91.4733 410.331C91.3352 408.657 91.3613 408.651 92.9359 408.505C93.3538 408.466 93.775 408.459 94.4156 408.426C93.0699 406.884 91.8497 406.427 90.331 407.528C89.449 408.168 88.2279 407.855 87.1517 408.606L87.1514 408.606ZM126.039 339.772C125.599 339.559 125.462 339.985 125.345 340.285C125.231 340.58 125.045 340.897 125.309 341.222C125.706 341.292 125.959 341.049 126.177 340.789C126.492 340.414 126.51 340.001 126.039 339.772L126.039 339.772ZM147.534 322.954C146.624 324.479 145.703 325.982 144.6 327.384C141.908 330.808 140.127 334.789 137.921 338.51C135.133 343.208 132.336 347.901 129.536 352.592C129.355 352.895 129.102 353.154 128.889 353.438C127.885 354.768 127.432 354.98 126.519 354.546C125.167 353.904 124.662 352.928 124.946 351.512C125.03 351.095 125.1 350.674 125.203 350.262C125.304 349.859 125.581 349.499 125.499 349.05C123.636 349.693 123.62 349.692 123.531 351.444C123.451 353.002 123.283 354.572 123.383 356.121C123.536 358.481 122.244 360.037 119.672 358.633C119.485 358.531 119.282 358.46 119.087 358.375C116.79 357.366 116.758 357.357 116.032 359.851C114.335 365.684 111.833 371.168 108.868 376.449C108.037 377.928 107.178 379.465 105.139 379.575C105.196 379.652 105.24 379.78 105.314 379.8C107.657 380.446 107.797 380.722 106.577 382.778C104.109 386.936 100.978 390.634 98.2932 394.644C96.4042 397.464 94.3102 400.149 92.4962 403.199C93.8283 403.679 94.9048 404.144 93.8079 405.738C93.4887 406.203 94.3591 406.444 94.7739 406.597C96.7004 407.303 98.6157 408.081 100.6 408.573C101.521 408.801 102.438 409.738 103.388 409.16C104.172 408.683 104.268 407.581 104.708 406.777C106.141 404.156 107.371 401.444 108.108 398.544C108.525 396.903 108.394 396.701 106.818 396.259C105.585 395.913 104.437 395.434 103.389 394.829C103.341 394.154 103.776 393.933 104.16 393.848C106.903 393.241 109.148 391.476 111.794 390.624C113.286 390.145 114.622 390.012 116.115 390.632C118.205 391.5 120.374 392.18 122.514 392.926C125.819 394.077 129.213 394.721 132.72 394.861C134.541 394.934 134.518 395.037 134.001 396.77C133.446 398.631 132.046 400.065 131.449 401.909C131.254 402.513 130.681 402.382 130.174 402.326C128.481 402.14 126.782 402.006 125.092 401.801C124.039 401.673 123.378 402.043 122.897 403.006C121.596 405.612 120.184 408.164 118.895 410.776C117.989 412.613 118.094 412.809 120.098 413.291C121.074 413.526 121.475 413.937 121.087 414.917C120.988 415.167 120.711 415.424 120.932 415.689C122.198 417.205 121.236 418.682 120.711 420.029C118.735 425.105 116.665 430.145 114.248 435.035C113.493 436.564 112.866 438.157 112.089 439.675C111.369 441.084 111.227 442.489 111.736 444.106C112.508 443.85 112.753 443.304 113.1 442.867C116.735 438.306 120.112 433.558 123.254 428.645C123.76 427.854 124.199 427.053 125.313 427.028C126.149 427.01 126.547 426.38 126.831 425.715C128.025 422.907 129.42 420.195 130.527 417.339C131.475 414.893 133.322 412.929 135.356 411.256C135.837 410.86 136.408 410.566 136.762 410.028C137.113 409.496 137.352 408.938 138.225 409.146C138.732 409.267 139.159 408.74 139.362 408.309C140.187 406.555 141.628 405.249 142.648 403.637C145.55 399.05 148.161 394.297 150.822 389.571C152.768 386.114 154.4 382.482 156.718 379.227C158.282 377.031 159.709 374.73 160.672 372.185C162.136 368.315 164.472 364.911 166.478 361.332C168.867 357.069 171.256 352.805 173.693 348.57C174.164 347.752 174.324 346.843 174.728 346.012C176.301 342.777 177.832 339.522 179.387 336.278C180.093 334.804 180.776 333.331 181.209 331.739C181.713 329.893 183.07 328.444 183.595 326.551C184.373 323.75 185.433 321.025 186.425 318.286C187.254 315.995 187.701 313.621 187.964 311.22C188.166 309.37 188.909 307.782 190.073 306.425C191.411 304.865 192.87 303.401 194.353 301.974C195.881 300.505 197.85 300.478 199.531 301.743C200.045 302.13 200.214 302.636 200.189 303.228C200.15 304.16 199.921 305.054 199.56 305.912C198.181 309.183 196.938 312.508 195.38 315.706C193.823 318.9 192.408 322.162 190.895 325.377C190.591 326.022 190.464 326.943 189.28 326.626C188.654 326.459 188.724 327.124 188.73 327.503C188.75 328.708 188.89 329.914 188.857 331.116C188.72 336.152 188.566 341.189 188.358 346.223C188.243 349.011 188.749 351.742 188.961 354.499C189.205 357.685 189.5 360.868 189.82 364.047C189.881 364.656 189.881 365.333 190.468 365.952C191.145 364.969 191.025 363.836 190.811 362.961C189.9 359.221 190.517 355.458 190.486 351.717C190.456 348.168 190.391 344.621 190.344 341.073C190.296 337.389 190.236 333.69 191.116 330.06C191.304 329.287 191.27 328.5 192.452 328.589C193.888 328.698 194.22 328.862 194.336 330.304C194.512 332.497 194.54 334.702 194.711 336.896C194.86 338.798 194.937 340.718 195.907 342.469C196.203 343.004 196.157 343.717 196.341 344.327C196.597 345.182 196.574 346.172 197.501 346.895C198.036 345.552 198.1 344.224 198.248 342.906C198.452 341.073 198.743 339.249 198.926 337.414C199.023 336.444 199.355 335.744 200.406 335.691C201.153 335.654 201.303 335.207 201.446 334.609C201.928 332.611 202.454 330.623 202.962 328.631C203.112 328.042 203.029 327.294 203.996 327.327C205.182 327.367 206.216 327.926 206.335 328.739C206.428 329.365 206.428 330.018 206.372 330.651C206.071 334.05 205.537 337.419 204.9 340.769C204.684 341.903 204.322 342.996 203.044 343.409C202.381 343.623 202.318 344.177 202.197 344.751C201.787 346.693 201.35 348.63 200.893 350.562C199.163 357.876 197.43 365.188 195.094 372.34C195.006 372.61 194.983 372.935 194.815 373.14C193.704 374.489 193.346 376.164 192.711 377.731C188.734 387.54 184.427 397.207 180.025 406.832C179.316 408.382 178.527 409.9 178.042 411.545C177.834 412.249 177.507 412.979 176.801 413.189C175.383 413.61 174.893 414.775 174.317 415.906C173.93 416.665 173.542 417.425 173.179 418.196C172.791 419.023 172.347 419.783 173.091 420.745C173.61 421.416 173.149 422.251 172.825 422.966C171.972 424.843 171.094 426.709 170.256 428.592C169.974 429.228 169.522 429.814 169.537 430.742C171.671 431.339 173.825 431.985 176.001 432.542C185.432 434.954 194.632 438.111 203.876 441.129C205.225 441.57 206.598 441.939 207.93 442.42C208.956 442.79 209.381 442.318 209.602 441.434C209.669 441.161 209.753 440.862 209.708 440.596C209.252 437.9 209.902 435.408 210.981 432.963C211.806 431.092 212.199 429.195 211.039 427.257C210.576 426.483 210.879 425.559 211.054 424.765C211.986 420.557 213.187 416.418 214.455 412.298C214.974 410.611 215.355 408.881 215.887 407.198C217.317 402.683 218.835 398.196 220.24 393.673C221.165 390.696 221.963 387.68 222.798 384.675C222.949 384.131 223.112 383.554 223.083 383.002C222.949 380.532 223.714 378.253 224.388 375.932C225.244 372.984 225.378 369.932 225.434 366.877C225.475 364.607 225.547 362.337 226.017 360.104C226.103 359.693 226.137 359.182 226.397 358.91C229.118 356.06 229.371 352.281 230.222 348.749C231.202 344.682 232.588 340.758 233.891 336.794C234.903 333.713 236.036 330.652 236.713 327.458C237.055 325.845 237.084 324.218 237.062 322.595C237.006 318.404 237.852 314.269 237.738 310.066C237.709 308.96 238.496 307.826 238.938 306.717C239.146 306.195 239.464 305.714 239.662 305.188C240.074 304.095 241.121 303 239.742 301.855C239.699 301.819 239.701 301.721 239.694 301.65C238.99 294.466 236.88 287.398 237.855 280.077C238.257 277.061 238.001 273.974 238.933 271.01C239.302 269.836 238.859 269.398 237.549 269.267C237.408 269.253 237.264 269.233 237.124 269.241C235.1 269.358 233.567 268.622 232.662 266.611C233.604 265.542 235.177 265.926 236.32 265.25C235.933 264.703 235.403 264.761 234.943 264.661C231.883 263.997 228.774 263.656 225.668 263.301C225.248 263.253 224.732 263.113 224.413 263.29C222.832 264.166 221.561 263.339 220.206 262.706C216.667 261.056 212.974 259.73 209.716 257.503C207.089 255.709 204.841 253.551 203.447 250.683C202.818 249.388 202.013 248.886 200.657 248.988C198.533 249.147 196.407 249.274 194.282 249.404C191.798 249.557 189.306 249.722 186.893 248.921C185.93 248.601 185.252 248.867 184.668 249.627C181.132 254.224 178.392 259.204 177.173 264.939C177.028 265.622 176.701 266.273 176.411 266.918C173.608 273.136 170.614 279.268 168.063 285.598C167.85 286.125 167.6 286.643 167.455 287.189C167.252 287.952 166.729 288.749 168.125 289.138C169.082 289.404 168.815 290.428 168.586 291.175C167.626 294.303 166.553 297.394 164.961 300.266C164.102 301.816 163.192 303.343 162.038 304.707C161.294 305.588 160.839 306.62 160.451 307.701C159.635 309.978 158.693 312.209 157.521 314.326C156.436 316.286 155.802 316.533 153.781 315.585C152.844 315.146 152.412 315.381 151.869 316.122C150.272 318.305 148.915 320.638 147.534 322.953L147.534 322.954ZM194.084 363.146C194.564 360.16 196.717 357.396 195.205 354.179C194.181 357.111 193.2 360.023 194.084 363.146ZM190.118 246.807C189.792 246.386 189.527 245.973 189.19 245.63C188.907 245.342 188.55 245.419 188.247 245.664C188.029 245.84 187.798 246.041 187.837 246.345C187.894 246.789 188.286 246.82 188.627 246.888C189.115 246.985 189.598 246.98 190.118 246.808L190.118 246.807ZM233.356 118.509C233.81 122.997 231.553 126.752 230.282 130.782C228.543 136.294 226.216 141.535 223.371 146.559C222.386 148.299 221.904 150.217 221.322 152.123C220.392 155.166 219.047 158.08 217.92 161.065C216.994 163.517 215.818 165.882 215.213 168.447C214.954 169.549 214.93 170.706 214.656 171.803C214.296 173.245 213.863 174.668 213.213 176.026C211.284 180.061 209.874 184.323 207.85 188.319C207.264 189.475 206.768 190.605 205.274 190.896C204.558 191.036 204.224 191.8 203.843 192.397C198.076 201.436 192.24 210.431 186.75 219.645C185.579 221.609 185.163 223.88 184.048 225.87C183.059 227.638 182.63 229.801 180.343 230.543C180.12 230.616 179.976 230.96 179.815 231.192C177.467 234.587 175.389 238.142 173.618 241.871C172.936 243.309 172.988 243.315 174.475 243.986C176.087 244.712 177.638 245.625 179.538 244.998C179.903 244.878 180.387 245.03 180.793 245.141C182.305 245.557 183.707 245.656 184.748 244.154C185.129 243.604 185.682 243.712 186.285 243.821C189.557 244.408 192.857 244.811 196.116 245.505C198.327 245.976 200.585 246.306 202.839 246.486C205.675 246.711 208.218 247.728 210.705 248.97C211.202 249.218 211.64 249.614 212.053 249.998C212.527 250.438 213.025 250.956 212.481 251.638C211.959 252.293 211.296 252.679 210.446 252.167C209.779 251.764 209.131 251.329 208.46 250.933C208.176 250.766 207.888 250.52 207.367 250.748C207.954 252.763 209.586 253.925 211.033 255.206C211.585 255.695 212.099 255.266 212.484 254.809C214.328 252.623 215.967 250.277 216.801 247.531C217.775 244.325 219.045 241.257 220.449 238.228C220.944 237.159 221.639 236.068 220.88 234.815C220.812 234.702 220.747 234.508 220.797 234.413C221.986 232.172 221.688 229.128 224.452 227.726C225.126 227.384 225.793 226.953 225.596 225.919C225.506 225.443 226.027 225.07 226.34 224.682C227.186 223.633 227.983 222.545 228.814 221.484C229.797 220.227 230.44 218.813 230.737 217.255C231.247 214.585 232.167 212.067 233.337 209.618C234.9 206.348 236.348 203.023 237.903 199.75C238.859 197.737 239.16 195.901 237.99 193.739C235.585 189.291 235.1 184.457 235.898 179.483C236.122 178.082 236.396 176.679 236.471 175.267C236.58 173.2 237.696 171.733 238.978 170.267C241.089 167.852 242.815 165.238 243.215 161.911C243.51 159.458 244.725 157.303 246.186 155.398C247.923 153.134 248.966 150.662 249.484 147.9C249.608 147.238 249.378 147.02 248.796 146.867C246.167 146.175 243.994 144.481 241.484 143.506C240.235 143.02 240.086 142.43 240.498 141.119C240.583 140.849 240.688 140.577 240.833 140.336C242.211 138.057 242.477 135.541 242.454 132.951C242.432 130.53 242.761 128.133 243.064 125.738C243.281 124.03 243.189 122.347 243.02 120.643C242.889 119.321 242.228 118.538 241.015 118.207C239.306 117.739 237.589 117.296 235.858 116.919C234.649 116.657 233.249 117.465 233.355 118.512L233.356 118.509ZM239.199 107.614C238.322 105.507 237.272 104.003 235.528 102.966C233.017 101.472 231.121 99.4464 230.764 96.2033C228.6 96.8814 226.59 97.5141 224.578 98.1414C223.766 98.3946 222.959 98.6669 222.135 98.8737C221.179 99.1143 221.175 99.6096 221.47 100.442C222.699 103.908 225.344 105.899 228.499 107.393C229.968 108.088 231.472 108.717 232.898 109.49C233.529 109.831 233.947 109.647 234.456 109.371C235.883 108.597 237.316 107.834 239.199 107.614L239.199 107.614ZM219.098 144.694C219.47 144.827 219.817 144.561 219.932 144.209C220.213 143.351 220.967 142.679 220.965 141.594C219.421 141.296 217.965 140.779 216.576 140.096C215.622 139.628 214.838 139.69 214.121 140.536C213.67 141.066 213.129 141.518 212.452 142.177C214.578 143.413 216.9 143.907 219.097 144.694L219.098 144.694ZM202.076 146.833C202.932 146.121 203.866 145.563 204.146 144.287C204.357 143.325 205.348 142.801 205.938 141.911C204.724 142.872 203.56 143.909 202.278 144.769C201.285 145.436 201.375 146.036 202.076 146.833L202.076 146.833ZM191.328 155.261C191.602 155.888 192.417 155.865 193.007 155.888C193.821 155.919 194.493 155.415 195.019 154.832C195.909 153.846 196.735 152.803 197.588 151.785C195.839 152.643 193.88 152.833 192.215 153.761C191.679 154.06 191.011 154.538 191.328 155.261ZM188.864 152.514C190.592 150.919 192.605 149.708 194.384 148.2C197.575 145.496 200.718 142.734 203.829 139.939C205.205 138.704 206.642 137.553 208.127 136.465C211.079 134.302 214.285 134.156 217.62 135.437C218.877 135.921 220.102 136.492 221.363 136.963C222.116 137.244 222.697 137.087 223.025 136.197C223.81 134.068 224.711 131.983 225.495 129.853C225.9 128.753 225.284 127.956 223.891 127.655C222.485 127.351 221.052 127.472 219.646 127.584C216.605 127.827 213.57 128.203 210.624 129.021C206.169 130.257 202.293 132.483 198.931 135.712C195.102 139.39 192.375 143.875 189.369 148.162C188.074 150.009 186.833 151.893 185.458 153.922C186.992 154.042 188.005 153.307 188.863 152.515L188.864 152.514ZM196.205 134.09C199.383 130.428 203.047 127.511 207.504 125.596C207.824 125.458 208.178 125.357 208.371 124.831C206.886 124.532 205.395 124.476 203.992 124.843C197.533 126.532 191.043 128.165 185.515 132.22C184.432 133.014 183.248 133.711 182.026 134.269C178.937 135.68 177.251 138.278 176.2 141.277C175.235 144.03 173.873 146.612 172.968 149.383C172.707 150.181 172.333 150.878 172.439 151.817C172.589 153.148 171.715 154.227 171.003 155.278C169.37 157.693 167.576 159.982 165.532 162.068C164.838 162.776 164.299 163.506 164.055 164.565C163.7 166.11 162.564 167.283 161.483 168.424C159.723 170.282 157.805 171.974 155.847 173.619C155.038 174.299 154.146 174.857 153.582 175.826C153.112 176.632 152.177 176.671 151.321 176.804C147.227 177.444 143.368 178.927 139.444 180.171C138.476 180.478 137.608 180.938 137.34 182.246C139.018 182.507 140.516 182.325 141.949 181.997C147.011 180.839 151.958 179.293 156.766 177.315C162.346 175.018 166.768 171.15 170.933 166.93C177.744 160.03 183.579 152.371 188.796 144.21C191.047 140.689 193.448 137.269 196.205 134.091L196.205 134.09ZM112.552 211.694C114.925 213.248 117.329 214.756 119.672 216.354C120.376 216.834 120.78 216.924 121.455 216.265C123.539 214.23 125.421 212.075 127.004 209.596C128.664 206.998 131.052 205.114 133.791 203.594C137.578 201.493 141.467 199.588 145.264 197.506C149.229 195.333 153.278 193.237 157.613 191.813C160.869 190.743 163.583 188.878 165.58 186.077C167.233 183.759 169.221 181.726 170.994 179.511C171.166 179.296 171.424 179.124 171.348 178.783C170.974 178.721 170.71 178.979 170.401 179.112C169.663 179.431 168.894 179.368 168.532 178.662C168.207 178.03 168.372 177.314 169.007 176.761C170.669 175.314 172.354 173.898 174.213 172.712C175.231 172.063 176.076 171.275 176.944 170.176C175.082 169.915 173.989 170.899 173.031 171.861C170.768 174.136 168.431 176.301 165.544 177.747C163.737 178.653 162.994 180.371 162.136 181.965C161.263 183.588 160.265 185.139 159.443 186.799C158.526 188.65 156.74 189.756 154.886 190.462C149.312 192.584 143.8 194.888 138.05 196.528C136.26 197.039 134.371 196.755 132.591 197.292C131.905 197.498 130.958 197.199 130.735 198.313C130.685 198.561 130.317 198.626 130.029 198.698C126.771 199.502 123.786 200.925 120.875 202.58C119.541 203.337 118.509 204.352 117.436 205.382C115.549 207.192 113.418 208.754 111.87 210.889C111.961 211.292 112.261 211.504 112.552 211.695L112.552 211.694ZM110.63 207.483C113.883 205.728 116.284 203.185 118.418 200.378C121.411 196.444 125.638 194.82 130.078 193.442C132.756 192.611 135.55 192.664 138.298 192.396C141.081 192.124 143.701 191.368 146.281 190.331C148.974 189.249 151.708 188.261 154.452 187.315C155.596 186.921 156.385 186.33 156.916 185.195C157.482 183.986 158.323 182.907 159.015 181.753C159.218 181.413 159.538 181.069 159.27 180.477C157.664 181.13 156.015 181.703 154.453 182.456C149.363 184.906 143.938 186.425 138.475 187.543C134.4 188.376 130.218 188.83 126.1 189.572C124.956 189.779 123.954 190.173 122.966 190.792C118.157 193.802 113.619 197.202 108.959 200.426C106.601 202.057 104.648 204.103 102.916 206.368C102.095 207.441 102.169 207.64 103.47 208.127C103.536 208.152 103.621 208.139 103.676 208.175C106.197 209.841 108.256 208.764 110.63 207.483L110.63 207.483ZM99.3959 212.363C101.174 212.249 102.661 211.578 104.135 210.656C100.848 209.454 100.464 209.588 99.3959 212.363ZM88.4048 234.248C88.2635 234.636 88.2692 235.077 88.1379 235.953C89.4327 234.519 90.4569 233.412 91.4499 232.277C92.1626 231.463 92.9346 230.744 93.9982 230.43C95.2659 230.056 95.7486 230.441 95.5668 231.732C95.469 232.429 95.2457 233.108 95.0869 233.798C94.4489 236.56 93.6686 239.307 94.1227 242.194C94.1645 242.46 94.122 242.778 94.432 242.938C94.5316 242.857 94.6998 242.789 94.7159 242.694C95.3723 238.813 97.6479 235.346 97.5937 231.27C97.5819 230.381 97.8244 229.407 98.3628 228.644C99.2693 227.358 98.9922 226.175 98.3155 224.92C97.6151 223.622 97.071 222.26 95.7435 221.386C94.8372 220.79 94.5201 220.725 93.8936 221.558C93.8089 221.671 93.7452 221.8 93.683 221.928C91.7211 225.948 89.9351 230.043 88.4049 234.248L88.4048 234.248ZM108.34 197.302C110.564 195.558 112.74 193.756 114.937 191.98C108.82 193.366 105.604 198.199 102.16 202.764C104.157 200.87 106.173 199.001 108.34 197.302ZM101.556 203.603C100.658 204.059 100.539 204.612 100.487 205.204C100.78 204.765 101.075 204.324 101.556 203.603ZM100.468 205.219C99.4835 204.956 99.4261 205.73 99.0592 206.363C100.084 206.452 99.9231 205.45 100.468 205.219Z" fill="#8DC0FF"/>
<path d="M466.873 272.305C468.938 272.186 470.996 272.357 473.043 272.577C476.726 272.972 480.398 273.344 484.012 272.151C485.162 271.771 486.274 272.091 487.369 272.342C488.575 272.618 488.771 273.491 487.808 274.311C487.109 274.905 486.297 275.368 485.523 275.871C481.648 278.39 477.423 280.321 473.633 282.984C472.814 283.559 472.011 284.133 471.357 284.895C469.867 286.632 469.91 287.275 471.697 288.676C473.95 290.443 475.999 292.383 477.432 294.907C477.935 295.792 478.321 296.702 478.325 297.717C478.332 299.243 476.941 300.078 475.535 299.458C474.182 298.861 473.334 297.693 472.32 296.707C471.767 296.17 471.387 295.305 470.573 295.232C469.921 295.174 469.627 296.016 469.089 296.347C468.847 296.495 468.606 296.684 468.34 296.745C467.366 296.968 466.976 297.665 466.746 298.541C466.584 299.159 466.374 299.765 466.189 300.377C463.214 310.249 460.578 320.203 458.848 330.381C458.588 331.914 458.115 333.422 457.616 334.899C457.253 335.973 456.287 336.574 455.554 336.416C454.345 336.155 453.268 334.469 453.552 333.215C455.682 323.789 457.757 314.349 460.498 305.074C460.979 303.445 461.424 301.806 461.929 300.019C461.131 300.096 460.921 300.515 460.587 300.759C460.072 301.135 459.535 301.56 458.863 301.459C457.638 301.275 456.384 299.385 456.654 298.145C457.017 296.479 457.386 294.811 457.837 293.168C458.185 291.903 458.531 291.741 459.852 291.91C461.572 292.129 462.866 291.481 463.736 289.968C464.054 289.413 464.335 288.836 464.661 288.286C465.65 286.615 465.942 284.898 465.381 282.976C464.725 280.727 464.142 278.444 463.731 276.139C463.254 273.47 464.159 272.463 466.873 272.306L466.873 272.305ZM469.271 291.446C469.281 291.971 469.374 292 471.046 292.206C470.984 291.964 470.987 291.879 470.946 291.834C470.556 291.407 470.316 290.713 469.54 290.939C469.407 290.978 469.267 291.273 469.271 291.446ZM467.766 276.538C468.054 278.196 468.524 279.823 468.999 281.812C472.316 279.683 475.255 277.744 478.612 276.056C477.566 275.367 476.681 275.526 475.871 275.454C473.611 275.251 471.347 275.076 469.08 275.002C467.802 274.96 467.543 275.258 467.766 276.538Z" fill="#8DC0FF"/>
<path d="M568.196 394.357C569.234 394.153 571.122 394.925 571.659 395.851C572.689 397.627 574.252 398.793 575.887 399.967C577.6 401.198 579.066 400.74 580.595 399.797C581.511 399.232 581.522 398.841 580.606 398.316C578.757 397.255 576.905 396.191 574.923 395.393C573.703 394.902 572.68 394.254 572.284 392.911C572.501 392.568 572.863 392.459 573.209 392.509C574.326 392.672 575.447 392.797 576.495 393.302C578.48 394.257 580.504 395.131 582.485 396.093C583.337 396.507 583.904 396.438 584.426 395.578C585.202 394.301 586.049 393.07 586.378 391.581C586.626 390.459 587.092 389.416 587.643 388.424C588.397 387.067 590.959 386.723 592.088 387.782C592.419 388.092 592.525 388.487 592.493 388.942C592.452 389.527 592.251 390.025 591.92 390.515C591.526 391.099 591.167 391.726 590.911 392.379C590.639 393.074 591.063 393.55 591.756 393.313C592.557 393.039 593.304 392.608 594.076 392.246C595.326 391.659 596.578 391.309 597.979 391.813C598.561 392.023 599.325 391.876 599.52 392.671C599.722 393.494 599.172 394.024 598.574 394.421C597.324 395.252 595.967 395.822 594.485 396.163C592.586 396.6 591.064 397.65 589.958 399.313C590.627 399.927 591.632 400.156 591.635 401.025C591.641 402.533 592.569 403.284 593.634 404.032C594.118 404.371 594.492 404.878 594.131 405.488C593.737 406.153 593.113 406.485 592.327 406.168C591.802 405.956 591.215 405.767 590.819 405.394C589.93 404.554 589.25 404.859 588.416 405.494C585.422 407.774 582.386 410 579.361 412.238C577.495 413.618 575.62 414.984 573.75 416.357C573.838 416.485 573.927 416.614 574.015 416.743C577.406 414.676 580.852 412.693 584.158 410.499C585.443 409.647 586.606 409.526 587.954 409.955C588.95 410.272 589.12 410.955 588.301 411.652C587.493 412.34 586.617 412.967 585.706 413.511C578.998 417.515 572.284 421.507 565.548 425.462C564.204 426.251 562.772 426.893 561.356 427.552C559.985 428.189 559.265 427.876 558.281 426.669C557.267 425.425 558.512 425.003 559.047 424.465C560.499 423.008 562.075 421.676 563.595 420.285C568.638 415.67 574.259 411.8 579.741 407.75C581.797 406.231 583.793 404.63 585.81 403.06C586.528 402.501 586.354 402.052 585.667 401.577C585.106 401.189 584.703 401.269 584.139 401.618C583.177 402.213 582.119 402.65 581.115 403.181C580.051 403.744 579.006 403.727 577.83 403.459C575.611 402.953 573.774 401.772 571.982 400.493C570.346 399.326 570.375 399.286 569.651 401.147C569.471 401.611 569.299 402.078 569.109 402.537C568.619 403.716 568.268 404.976 567.458 405.982C566.976 406.58 566.386 407.123 565.455 406.573C564.408 405.952 563.625 404.862 563.977 404.08C565.263 401.223 566.365 398.306 567.117 395.261C567.25 394.719 567.679 394.459 568.197 394.357L568.196 394.357Z" fill="#8DC0FF"/>
<path d="M590.195 507.58C593.622 505.08 597.649 503.415 600.53 500.153C600.858 499.781 601.236 499.453 601.577 499.091C602.255 498.372 603.005 497.93 604.039 498.326C604.36 498.449 604.719 498.546 605.228 498.064C603.036 496.777 601.26 495.174 599.642 493.379C597.998 491.556 597.564 489.222 597.848 487.043C598.124 484.922 599.199 482.875 600.654 481.143C601.212 480.478 601.923 480.225 602.703 480.16C604.799 479.986 607.152 481.541 607.847 483.572C608.283 484.845 608.645 486.146 608.982 487.449C609.194 488.269 609.095 489.24 609.503 489.923C610.038 490.818 611.234 489.896 612.052 490.451C612.444 490.717 613.016 490.702 613.451 490.923C614.505 491.459 614.99 492.336 614.864 493.542C614.78 494.347 614.413 495.003 613.983 495.674C613.118 497.025 611.674 497.715 610.553 498.658C610.673 499.208 611.027 499.322 611.331 499.474C611.883 499.75 612.306 500.149 612.185 500.792C612.067 501.415 611.479 501.617 610.955 501.854C610.512 502.054 609.933 501.77 609.574 502.255C609.877 502.762 610.378 502.297 610.706 502.488C611.475 502.935 612.741 502.329 613.121 503.435C613.513 504.573 612.297 504.931 611.745 505.602C611.193 506.274 610.205 506.683 610.67 507.892C610.92 508.543 610.323 508.944 609.829 509.21C608.956 509.681 608.068 510.151 607.136 510.483C603.727 511.695 600.336 512.984 596.863 513.985C594.077 514.787 591.202 515.297 588.274 515.435C586.854 515.503 585.84 514.879 584.915 513.947C584.324 513.353 584.263 512.841 584.876 512.13C586.421 510.333 588.306 508.959 590.195 507.58ZM605.972 492.496C606.067 489.662 605.872 486.843 604.779 484.166C604.622 483.781 604.524 483.304 604.015 483.275C603.624 483.252 603.399 483.604 603.22 483.902C602.785 484.628 602.383 485.375 602.209 485.683C600.705 488.754 601.075 491.33 603.18 493.462C603.927 494.22 604.511 495.783 605.731 495.268C606.571 494.914 605.94 493.449 605.972 492.496L605.972 492.496ZM599.201 506.475C601.329 506.166 603.301 505.512 604.837 503.929C602.666 504.18 600.697 504.831 599.201 506.475ZM601.048 509.463C599.646 509.614 598.381 510.252 596.958 510.321C595.767 510.38 594.597 510.775 593.484 509.989C593.016 509.659 592.537 509.869 592.116 510.19C591.218 510.876 590.32 511.562 589.369 512.288C591.388 512.881 593.376 512.42 601.048 509.464L601.048 509.463Z" fill="#8DC0FF"/>
</svg>
