<svg width="432" height="346" viewBox="0 0 432 346" fill="none" xmlns="http://www.w3.org/2000/svg">
<path d="M135.138 268.236C133.944 268.334 132.968 267.95 131.89 267.619C132.873 265.864 132.851 265.387 131.647 264.14C130.356 262.813 129.027 261.529 127.702 260.239C125.604 258.204 123.487 256.194 121.398 254.152C120.736 253.507 120.112 252.824 119.504 252.133C118.863 251.404 118.076 250.732 117.664 249.878C115.798 246.039 114.035 242.149 112.256 238.265C112.022 237.758 111.836 237.194 111.782 236.646C111.593 234.752 111.446 232.848 111.322 230.951C111.107 227.633 110.93 224.315 110.709 220.997C110.507 217.977 110.158 214.96 110.081 211.934C110.025 209.733 110.278 207.523 110.44 205.32C110.486 204.697 110.657 204.074 110.842 203.476C111.282 202.063 111.847 200.688 112.203 199.26C112.615 197.611 112.635 195.842 113.217 194.273C114.573 190.625 116.177 187.067 117.647 183.457C117.938 182.747 118.139 181.989 118.304 181.235C118.425 180.684 118.329 180.07 118.503 179.545C119.263 177.287 120.052 175.035 120.893 172.804C121.414 171.424 121.426 170.201 120.293 169.114C119.38 168.236 118.502 167.326 117.533 166.358C116.808 166.812 116.165 167.216 115.445 167.664C113.159 166.255 111.334 168.354 109.22 168.557C108.385 170.357 106.785 169.721 105.487 169.577C102.741 169.273 100.017 168.769 97.29 168.326C95.4685 168.031 93.6043 167.861 91.84 167.346C87.3508 166.043 82.7627 165.73 78.1308 165.576C75.7877 165.5 73.4476 165.287 71.1168 165.062C68.6415 164.818 66.1855 164.398 63.7022 164.215C60.9434 164.016 58.1733 164.053 55.4097 163.898C48.3583 163.509 41.3178 163.081 34.2712 162.647C33.7862 162.616 33.2908 162.509 32.831 162.343C31.7158 161.94 30.6155 161.486 29.5167 161.043C29.1639 160.901 28.8266 160.712 28.2534 160.437C28.8361 159.986 29.1697 159.591 29.5901 159.43C31.385 158.736 33.2213 158.146 35.0223 157.457C36.143 157.025 37.397 156.689 38.2661 155.937C39.0183 155.288 39.7219 155.121 40.5628 155.158C41.6294 155.208 42.6901 155.373 43.7528 155.434C44.3802 155.468 45.1249 155.6 45.6286 155.329C47.329 154.425 49.1242 154.609 50.8552 154.802C59.7967 155.788 68.4151 154.102 76.9672 151.815C77.2363 151.746 77.4935 151.59 77.7294 151.438C79.8067 150.057 81.8414 148.643 83.4194 146.649C84.4247 145.377 85.5816 144.214 86.7468 143.073C87.5026 142.331 88.0458 141.553 87.9402 140.466C87.8621 139.659 88.3015 139.239 88.8259 138.681C89.4119 138.056 89.6988 137.122 90.0211 136.287C90.1936 135.833 90.0484 135.253 90.246 134.822C91.1589 132.838 90.3607 131.202 89.212 129.681C88.0566 128.149 86.9167 126.572 85.5527 125.233C81.4457 121.184 77.2471 117.224 73.0346 113.282C72.4956 112.779 71.6947 112.436 70.9616 112.269C68.6784 111.754 66.7385 110.756 65.2489 108.899C63.6012 106.847 61.9235 104.814 60.192 102.827C59.0567 101.522 57.7749 101.496 56.2965 102.665C53.067 100.829 49.8025 98.9764 46.5373 97.1185C46.1769 97.6369 45.9083 98.0282 45.5533 98.5459C33.7483 93.4172 21.9671 88.3833 9.71301 84.1614C9.73066 84.966 9.98737 85.7213 9.71713 86.1401C8.68314 87.7598 9.22935 89.4296 9.46523 91.0275C9.87229 93.7524 10.6218 96.4248 11.051 99.1521C11.6664 103.075 12.1531 107.016 12.629 110.958C12.9186 113.345 13.2457 115.726 12.3268 118.104C11.4033 120.489 11.7582 122.834 12.8489 125.126C13.6105 126.734 14.3015 128.384 14.876 130.061C15.3579 131.461 15.9205 132.932 15.9277 134.376C15.9413 137.101 16.421 139.718 17.099 142.307C18.5104 147.691 18.7722 153.097 17.5597 158.547C17.2723 159.835 17.0181 161.206 15.2184 161.388C15.4307 163.648 15.4406 163.642 16.4107 164.937C16.6583 165.268 16.9852 165.66 16.9923 166.029C17.0367 168.461 18.1582 170.58 19.0109 172.731C20.4968 176.469 20.8418 180.293 20.6833 184.23C20.6455 185.228 20.5104 186.233 20.5967 187.219C20.8452 190.102 21.1581 192.976 21.4816 195.849C21.6791 197.605 21.869 199.345 21.2134 201.055C21.1124 201.314 21.1214 201.618 21.1114 201.903C21.0578 203.661 20.9779 205.345 21.4606 207.149C21.9831 209.084 22.1038 211.156 22.7172 213.116C23.0111 214.063 22.9102 214.998 22.3422 215.954C21.8229 216.827 21.3364 217.859 21.9393 218.987C22.0855 219.255 21.9751 219.685 21.9249 220.035C21.524 222.724 21.8747 225.397 22.2164 228.043C22.5829 230.91 23.438 233.715 23.7394 236.585C24.3512 242.352 24.7853 248.137 25.1819 253.928C25.4056 257.147 25.8015 260.348 25.6552 263.618C25.5351 266.322 26.354 269.023 26.2313 271.788C26.1543 273.615 26.7514 275.496 26.5277 277.287C26.2263 279.706 27.5518 281.203 28.9463 282.686C29.7018 283.493 30.7004 284.201 31.7254 284.583C32.273 284.792 33.1174 284.218 33.9239 283.965C35.4747 286.107 36.9678 288.427 39.9722 288.783C40.6918 288.215 40.4462 287.66 40.1274 287.05C39.2377 285.345 38.4048 283.617 37.5052 281.919C37.1144 281.182 36.8028 280.385 37.3844 279.727C38.231 278.771 37.683 278.083 37.2454 277.244C35.8969 274.665 34.1735 272.18 33.4077 269.429C32.2689 265.354 31.5543 261.106 31.1664 256.89C30.8426 253.38 30.8098 249.84 30.2894 246.329C29.6163 241.787 29.1416 237.217 28.6347 232.652C28.3921 230.488 28.2467 228.316 28.1067 226.144C27.9412 223.467 27.8951 220.786 27.6768 218.122C27.4383 215.232 26.9455 212.361 26.7614 209.469C26.3871 203.523 26.1429 197.57 25.8612 191.621C25.782 189.931 25.7847 188.24 25.6894 186.552C25.5647 184.372 25.5083 182.171 25.1692 180.021C24.8477 177.998 24.1784 176.029 23.6746 174.032C23.5189 173.415 23.3288 172.787 23.3254 172.166C23.3211 170.902 23.4645 169.639 23.4923 168.37C23.5174 167.32 23.7468 166.405 24.6702 165.809C27.2781 166.421 29.7034 166.181 32.0562 164.816C32.9976 164.273 34.1981 163.944 35.2827 163.926C37.3822 163.899 39.5731 163.424 41.5656 164.606C41.7799 164.735 42.117 164.683 42.3994 164.671C44.2443 164.62 46.0975 164.431 47.9361 164.532C49.4825 164.614 51.2303 164.652 52.4998 165.383C54.6297 166.612 56.8267 166.539 59.0942 166.74C62.7332 167.064 66.3886 165.836 70.044 167.194C72.0068 167.922 74.3397 167.645 76.3118 168.361C78.8996 169.303 81.5599 169.581 84.2175 169.958C86.6517 170.3 89.1388 170.231 91.4934 171.107C92.012 171.303 92.615 171.318 93.1813 171.344C94.0115 171.382 94.8491 171.316 95.6762 171.372C98.3777 171.551 101.074 171.852 103.78 171.943C105.849 172.014 107.993 171.316 109.883 172.746C110.017 172.848 110.308 172.819 110.503 172.77C112.153 172.369 113.312 173.29 114.672 174.204C114.243 175.255 113.853 176.236 113.446 177.208C111.975 180.698 111.321 184.408 110.434 188.058C109.795 190.681 109.029 193.256 109.056 196.001C109.103 200.122 108.708 204.205 107.755 208.24C105.575 209.074 105.231 209.514 105.457 211.833C105.642 213.738 105.935 215.633 106.297 217.514C106.783 220.02 107.404 222.509 107.912 225.013C108.015 225.527 108.01 226.128 107.849 226.624C106.816 229.803 106.813 233.042 107.227 236.295C107.44 237.967 107.778 239.633 108.023 241.295C108.53 244.709 108.785 248.197 109.955 251.499C110.331 252.565 110.47 253.74 110.973 254.739C112.28 257.335 113.71 259.865 115.129 262.402C116.926 265.623 118.475 269.025 121.828 271.084C123.236 271.948 123.293 272.044 124.674 271.042C125.484 271.732 126.211 272.526 127.094 273.07C129.815 274.741 132.861 275.402 136.007 275.679C137.047 275.771 138.06 276.029 138.962 275.115C139.657 274.414 140.549 273.905 141.54 273.169C140.224 271.779 138.951 270.264 137.483 268.96C136.917 268.46 135.907 268.19 135.135 268.252L135.138 268.236ZM24.2572 157.632C23.9912 156.889 23.8231 156.302 23.5622 155.754C23.3549 155.319 23.1 154.656 22.7621 154.583C21.4221 154.292 21.402 153.232 21.2773 152.284C20.6724 147.721 20.1488 143.153 19.5278 138.593C19.1059 135.521 18.5552 132.467 18.1004 129.394C17.9654 128.491 17.7505 127.523 17.9444 126.668C18.2561 125.278 17.9334 124.003 17.7619 122.674C17.2861 118.972 16.8854 115.259 16.4249 111.549C16.0589 108.606 15.745 105.645 15.2189 102.729C14.7796 100.287 14.7537 97.8311 14.5165 95.3882C14.3659 93.8549 13.8333 92.3631 13.499 90.8442C13.2818 89.8598 12.4013 88.9775 13.0985 87.4913C19.0121 89.8579 24.7541 92.1281 30.4758 94.4501C33.4379 95.6517 36.2893 97.2012 39.3381 98.0801C41.1132 98.5942 42.6368 99.9825 44.6835 99.6905C45.15 99.6264 45.7144 100.116 46.2064 100.397C51.1554 103.218 56.1075 106.022 61.0249 108.891C62.0463 109.486 62.9324 110.33 63.8419 111.105C65.7964 112.766 67.704 114.484 69.6724 116.127C70.246 116.604 70.9491 116.791 71.7433 116.966C72.9763 117.233 74.2365 117.976 75.1953 118.831C78.3823 121.67 81.4899 124.607 84.529 127.603C86.1213 129.173 85.7104 131.312 85.6534 133.283C85.623 134.176 85.1774 135.028 85.7638 135.956C85.917 136.197 85.5083 137 85.1537 137.321C83.5812 138.758 81.8686 140.051 80.3273 141.517C76.9684 144.705 73.0942 147.124 68.809 148.737C66.103 149.758 63.4354 150.899 60.6964 151.798C59.3791 152.23 57.8737 152.208 56.4564 152.19C53.3867 152.154 50.3262 151.985 47.2584 151.883C46.6217 151.861 45.9846 151.916 45.3494 151.905C44.9331 151.897 44.4299 151.972 44.1133 151.775C41.7612 150.321 39.3818 150.697 36.9555 151.526C35.6143 151.983 34.2577 152.447 32.8757 152.686C31.4722 152.928 30.4047 153.707 29.2686 154.425C27.6602 155.442 26.0593 156.474 24.2565 157.627L24.2572 157.632Z" fill="#8DC0FF"/>
<path d="M249.68 274.089C249.093 271.603 248.702 269.074 248.195 266.571C247.827 264.765 247.479 262.951 247 261.17C245.937 257.204 244.879 253.232 243.669 249.313C242.879 246.74 242.023 244.16 240.872 241.735C238.025 235.747 234.856 229.913 232.066 223.902C228.951 217.192 226.643 210.202 225.641 202.825C224.749 196.252 223.908 189.694 224.084 183.029C224.197 178.852 223.828 174.654 224.057 170.483C224.364 164.892 224.939 159.308 225.582 153.742C225.931 150.718 225.161 147.973 224.091 145.269C223.548 143.897 222.508 143.794 221.703 145.04C220.947 146.215 220.419 147.571 220.009 148.916C219.535 150.472 219.455 152.154 218.924 153.685C217.388 158.117 215.78 162.532 214.072 166.901C211.785 172.736 209.165 178.448 207.067 184.345C204.044 192.837 200.005 200.688 193.878 207.362C192.967 208.356 191.944 209.255 191.052 210.268C187.722 214.068 184.524 217.991 180.687 221.32C179.435 222.409 178.151 223.307 176.358 223.362C174.158 223.435 171.972 223.762 169.772 223.917C168.222 224.032 166.677 224.145 165.193 223.388C164.196 222.881 163.106 222.533 162.038 222.183C159.741 221.434 157.433 220.713 155.117 220.021C154.275 219.765 153.403 219.574 153.34 218.485C153.261 217.07 152.958 215.583 153.255 214.248C153.999 210.923 152.712 207.949 151.995 204.875C151.928 204.589 151.402 204.41 151.007 204.12C149.945 205.364 149.521 206.727 149.394 208.143C149.206 210.189 149.156 212.249 149.105 214.304C149.066 215.926 148.97 217.567 149.152 219.169C149.409 221.482 152.336 224.319 154.592 224.893C156.791 225.454 159.009 226.029 161.098 226.9C163.847 228.046 166.486 229.464 169.154 230.812C170.514 231.499 171.123 232.595 171.343 234.198C172.059 239.413 172.405 244.674 173.617 249.843C174.651 254.272 175.148 258.84 175.703 263.362C176.914 273.206 178.039 283.067 179.137 292.927C179.557 296.697 181.955 299.18 184.447 301.64C184.511 301.702 184.707 301.626 185.123 301.59C185.013 300.792 185.048 299.935 184.766 299.193C183.4 295.563 182.964 291.713 182.375 287.944C180.526 276.03 178.998 264.073 177.315 252.136C176.994 249.881 176.539 247.639 176.101 245.406C175.354 241.598 174.872 237.765 177.057 234.292C177.894 232.959 179.323 231.998 180.508 230.896C181.326 230.139 182.318 230.211 183.335 230.388C183.743 230.457 184.19 230.374 184.612 230.311C188.76 229.686 192.961 229.562 197.085 228.608C200.813 227.747 204.668 227.408 208.486 227.004C211.309 226.703 214.156 226.618 216.992 226.529C218.942 226.469 220.837 226.957 222.47 227.999C226.496 230.581 229.52 234.202 232.158 238.115C235.51 243.094 238.182 248.45 240.538 253.965C242.452 258.447 242.728 263.352 244.122 267.977C244.755 270.086 245.015 272.3 245.597 274.426C246.766 278.728 248.035 283.004 249.262 287.292C249.617 288.521 250.126 289.724 250.292 290.973C250.647 293.677 252.175 295.471 254.63 297.133C254.706 296.538 254.785 296.276 254.771 296.016C254.572 291.352 253.255 286.929 251.937 282.495C251.108 279.715 250.336 276.916 249.67 274.091L249.68 274.089ZM228.197 224.974C225.073 222.803 221.565 222.127 218.207 221.076C217.739 220.927 217.214 220.841 216.734 220.879C211.495 221.342 206.234 221.694 201.018 222.366C197.153 222.865 193.341 223.792 189.506 224.51C189.027 224.598 188.529 224.59 187.806 224.646C187.991 224.123 188.024 223.693 188.255 223.426C192.057 219.015 195.811 214.562 199.732 210.261C202.539 207.183 204.945 203.849 206.719 200.121C208.273 196.855 209.481 193.418 210.831 190.054C212.631 185.569 214.421 181.079 216.21 176.59C217.074 174.418 217.932 172.247 218.833 169.983C219.75 170.386 219.669 171.064 219.705 171.649C219.946 175.548 220.323 179.444 220.363 183.349C220.444 190.65 221.889 197.797 222.722 205.011C223.102 208.296 224.097 211.529 225.038 214.72C225.998 217.979 227.226 221.159 228.328 224.377C228.365 224.486 228.272 224.641 228.197 224.968L228.197 224.974Z" fill="#8DC0FF"/>
<path d="M412.524 200.773C412.103 199.494 411.209 198.345 410.939 197.056C410.542 195.162 409.573 193.664 408.487 192.154C408.002 191.478 407.572 190.691 407.375 189.894C406.918 188.036 406.677 186.121 406.235 184.255C405.477 181.08 404.688 177.914 403.804 174.772C403.41 173.374 402.58 172.216 401.185 171.551C400.193 171.082 399.82 170.194 399.633 169.145C399.094 166.136 398.344 163.215 396.978 160.418C395.042 156.449 393.362 152.357 391.62 148.296C391.195 147.307 390.654 146.54 389.532 146.394C388.454 146.253 387.785 145.548 387.074 144.822C384.886 142.59 382.809 140.218 380.414 138.227C377.774 136.036 374.808 134.337 371.076 135.046C370.045 135.242 368.963 135.184 367.955 135.235C366.855 136.477 365.659 137.618 364.711 138.933C362.965 141.35 361.216 143.79 359.734 146.378C357.9 149.583 356.523 153.024 353.998 155.843C352.594 157.411 351.557 159.311 350.324 161.101C349.778 161.329 348.868 161.421 348.495 161.92C347.79 162.863 347.073 163.998 346.923 165.127C346.538 168.083 346.344 171.078 346.268 174.057C346.115 180.087 346.121 186.128 345.989 192.16C345.91 195.789 345.72 199.411 346.378 203.01C346.541 203.915 346.538 204.849 346.61 205.772C346.856 208.953 346.894 212.167 347.392 215.314C348.155 220.158 349.159 224.965 350.184 229.763C351.132 234.206 352.277 238.611 353.263 243.049C353.78 245.379 354.95 247.625 354.281 250.14C354.197 250.446 354.278 250.877 354.442 251.155C355.678 253.321 356.522 255.617 356.952 258.069C357.098 258.894 357.104 259.772 357.41 260.532C358.397 262.994 358.487 265.634 358.931 268.193C359.786 273.107 361.055 277.899 362.637 282.621C363.403 284.906 364.16 287.198 364.832 289.512C366.193 294.22 367.387 298.979 368.842 303.658C370.3 308.353 371.45 313.112 372.347 317.938C372.799 320.354 372.901 322.681 371.942 325.072C371.438 326.326 371.388 327.866 371.501 329.248C371.713 331.74 372.471 334.043 374.136 336.079C375.833 338.149 375.857 338.325 378.274 337.737C380.267 340.839 381.972 342.506 383.39 342.737C382.892 340.382 382.427 338.274 382.012 336.159C381.834 335.267 381.534 334.309 381.701 333.462C381.994 331.981 381.795 330.65 381.285 329.284C381.062 328.693 380.798 328.036 380.851 327.434C380.959 326.115 380.386 325.08 379.737 324.051C377.674 320.781 376.157 317.246 374.984 313.587C373.7 309.599 372.587 305.55 371.471 301.512C370.638 298.505 369.931 295.464 369.135 292.446C368.556 290.256 368.135 287.989 367.271 285.908C365.363 281.302 363.569 276.664 362.676 271.75C362.232 269.311 362.107 266.813 361.875 264.334C361.579 261.22 361.379 258.099 361.018 254.994C360.857 253.625 361.146 253.028 362.506 252.765C363.26 252.618 364.016 252.438 364.738 252.175C367.127 251.306 369.545 250.963 372.068 251.501C372.754 251.647 373.475 251.7 374.182 251.685C376.418 251.64 378.652 251.502 380.885 251.479C383.711 251.446 386.541 251.521 389.366 251.482C390.836 251.46 391.389 250.844 391.059 249.471C390.759 248.24 390.286 247.023 389.711 245.89C389.208 244.895 388.257 244.404 387.103 244.262C384.425 243.942 381.756 243.528 379.076 243.198C374.916 242.689 370.717 242.42 366.608 241.647C364.351 241.22 362.249 239.976 360.087 239.083C359.908 239.009 359.722 238.811 359.659 238.629C358.764 236.159 357.784 233.713 357.041 231.201C356.426 229.108 356.352 226.858 354.969 225.013C354.688 224.637 354.624 224.089 354.493 223.616C353.28 219.231 351.982 214.863 351.585 210.301C351.553 209.95 351.445 209.605 351.354 209.257C350.286 205.016 350.014 200.693 350.065 196.337C350.127 191.155 350.102 185.968 350.257 180.784C350.389 176.384 350.369 171.95 351.728 167.67C352.064 166.62 351.996 165.407 353.455 165.07C353.762 165 353.976 164.42 354.176 164.048C354.856 162.804 355.483 161.528 356.181 160.297C358.891 155.531 361.619 150.774 364.341 146.013C365.788 143.478 367.176 140.919 369.246 138.796C370.494 137.516 371.993 136.759 373.172 137.356C375.568 138.566 378.084 139.568 380.025 141.588C381.692 143.318 383.506 144.93 385.386 146.429C387.021 147.733 388.358 148.81 388.094 151.373C387.808 154.135 388.943 156.757 390.303 159.277C392.776 163.854 394.811 168.667 397.343 173.203C399.247 176.62 400.187 180.011 399.837 183.972C399.443 188.414 399.474 192.923 401.893 196.994C402.099 197.343 402.067 197.827 402.2 198.235C402.944 200.479 404.214 202.335 406.388 203.908C406.704 202.402 406.965 201.16 407.275 199.688C409.921 202.631 410.067 206.83 413.8 209.073C413.951 208.103 414.278 207.349 414.134 206.697C413.696 204.7 413.155 202.711 412.512 200.769L412.524 200.773Z" fill="#8DC0FF"/>
<path d="M294.334 199.543C293.122 198.351 292.152 197.186 290.977 196.301C289.15 194.921 288.473 193.22 288.632 190.951C288.97 186.056 288.273 181.183 288.077 176.296C288.066 176.014 287.979 175.737 287.945 175.453C287.626 172.655 287.301 169.858 287.004 167.063C286.69 164.112 286.43 161.159 286.101 158.21C285.835 155.841 285.51 153.475 285.206 151.107C284.968 149.214 284.73 147.327 284.481 145.436C284.233 143.55 283.974 141.661 283.709 139.772C283.44 137.818 283.161 135.866 282.882 133.914C282.694 132.581 282.544 131.37 283.504 130.103C284.034 129.398 283.856 128.102 283.888 127.073C283.913 126.311 283.759 125.542 283.686 124.777C283.58 123.575 283.518 122.373 283.364 121.178C283.163 119.635 282.857 118.112 282.64 116.571C282.275 113.916 282.141 111.208 281.541 108.612C280.603 104.536 279.517 100.48 278.199 96.5163C276.718 92.0623 275.364 87.5961 274.599 82.9673C274.072 79.7619 273.657 76.5412 273.109 73.3387C272.53 69.9931 271.793 66.6748 271.236 63.3263C270.665 59.9144 270.194 56.4832 269.733 53.0506C269.234 49.3396 268.793 45.6206 268.326 41.8999C268.106 40.1466 267.935 38.3867 267.663 36.6407C267.266 34.0665 266.758 31.5129 266.373 28.9426C265.888 25.726 265.45 22.4975 265.044 19.2647C264.785 17.2277 264.58 15.1834 264.408 13.1401C264.195 10.606 264.115 8.05909 263.833 5.53452C263.693 4.28294 263.286 3.04642 262.893 1.8405C262.567 0.838252 261.87 0.764792 261.187 1.57308C260.332 2.58497 259.8 3.66702 259.614 5.06692C259.302 7.39498 259.049 9.68216 259.455 12.015C259.627 12.9895 259.768 13.9737 259.839 14.962C260.084 18.2824 260.45 21.5754 261.21 24.8251C262.155 28.873 263.574 32.7956 263.722 37.0566C263.825 40.0093 264.787 42.9205 265.036 45.8803C265.281 48.7645 265.323 51.6656 264.844 54.5839C264.526 56.52 264.508 58.5895 264.797 60.535C265.464 64.9974 266.363 69.4222 267.231 73.8515C267.875 77.1227 268.692 80.3591 269.293 83.6361C269.764 86.1948 270.446 88.7625 269.784 91.4167C269.63 92.0269 269.635 92.6916 269.631 93.3302C269.623 96.8927 269.734 100.455 269.606 104.007C269.523 106.314 270.324 108.288 271.137 110.352C272.357 113.451 273.518 116.597 274.386 119.81C275.359 123.429 275.946 127.155 276.769 130.821C277.158 132.556 277.837 134.23 278.135 135.973C278.622 138.807 279.056 141.649 279.327 144.53C279.673 148.191 280.531 151.798 281.027 155.449C281.355 157.837 281.449 160.251 281.622 162.654C281.938 166.963 282.309 171.275 282.524 175.592C282.649 178.073 282.542 180.558 283.136 182.996C284.285 187.741 284.318 192.705 286.097 197.358C286.697 198.928 286.401 200.867 286.406 202.633C286.406 204.013 286.919 204.995 288.223 205.912C288.488 203.869 288.716 202.103 288.981 200.065C290.132 201.325 291.224 202.271 292.004 203.43C293.274 205.317 294.929 205.368 296.803 204.93C297.711 200.65 297.003 199.154 294.329 199.549L294.334 199.543Z" fill="#8DC0FF"/>
</svg>
