<svg width="466" height="215" viewBox="0 0 466 215" fill="none" xmlns="http://www.w3.org/2000/svg">
<path d="M1.25206 31.4728C3.74411 31.4082 5.21313 32.1114 6.21758 34.4304C9.68376 42.4368 13.4101 50.3347 17.0435 58.2619C19.7243 64.1097 22.276 70.2793 21.9181 77.161C21.6902 81.5378 20.3865 85.4305 18.3834 89.1686C15.373 94.7857 11.7494 100.056 8.92969 105.787C5.91536 111.912 4.03165 118.208 4.08055 125.204C4.12163 131.092 5.33832 136.552 7.56238 141.875C8.36633 143.8 8.93458 145.763 9.32384 147.798C9.60845 149.283 10.1425 150.688 10.8466 152.024C11.946 154.11 13.323 154.463 15.0816 152.857C17.1589 150.96 19.1287 148.932 21.0222 146.85C23.481 144.147 25.7784 141.296 28.2206 138.576C31.5626 134.854 34.1886 130.622 37.0044 126.523C37.2156 126.215 37.5355 125.921 37.6 125.582C38.4118 121.312 41.5161 118.495 43.9641 115.219C48.0817 109.711 51.408 103.692 53.8658 97.2748C54.8507 94.7025 56.0146 92.2818 57.4621 89.9892C58.8597 87.7749 59.5023 85.5821 59.2734 82.8455C58.5976 74.7814 56.9447 66.8952 55.4326 58.9798C55.2067 57.7963 54.6316 56.6804 54.2169 55.5331C52.6795 51.2863 51.319 47.0005 51.5068 42.4036C51.5391 41.6202 51.1821 40.4582 52.2804 40.2665C53.2624 40.0954 53.5832 41.1458 53.8952 41.9292C55.9539 47.0973 57.1295 52.4806 57.9374 57.9724C58.5086 61.8563 59.1678 65.7343 60.1634 69.5419C60.3287 70.1737 60.5527 70.829 60.5263 71.4647C60.3747 75.1667 61.7958 78.6476 62.007 82.2821C62.1459 84.6676 62.2545 87.0854 61.1415 89.3662C59.3761 92.985 57.3115 96.4718 56.2131 100.392C55.4307 103.185 54.5319 105.947 53.8218 108.758C53.3758 110.523 52.5885 112.082 51.6701 113.621C51.2173 114.379 50.6745 114.847 49.8607 115.247C47.4684 116.423 45.707 118.206 44.2399 120.544C42.3856 123.498 41.298 126.828 39.291 129.68C37.9453 131.592 36.441 133.405 35.4317 135.543C35.3163 135.788 35.0923 136 34.8752 136.173C29.1145 140.774 25.4527 147.283 20.1713 152.326C17.6352 154.748 15.0424 156.865 11.41 157.519C10.0124 157.77 8.77711 158.898 7.45382 159.598C6.79462 159.947 6.13053 160.378 5.41949 160.519C3.16511 160.967 2.55383 160.36 2.33671 158.069C2.08926 155.463 1.76455 152.855 1.30683 150.278C0.824653 147.568 1.01342 144.85 0.940062 142.135C0.906809 140.904 0.968425 139.511 1.6286 138.609C2.33671 137.64 2.04916 136.895 1.92397 136.016C1.31661 131.749 0.609484 127.492 0.122419 123.211C-0.335304 119.195 0.493097 115.336 2.56459 111.876C3.87517 109.687 4.87179 107.376 5.85179 105.056C7.53891 101.062 9.7796 97.3824 11.9548 93.657C13.2781 91.3888 14.6238 89.1227 15.7594 86.7587C18.7747 80.4835 18.2142 73.9872 16.6112 67.5016C15.5657 63.2715 13.6106 59.5011 10.8701 56.0476C8.6705 53.2757 6.81712 50.2623 5.81756 46.7119C5.14369 44.3186 3.51818 42.208 2.5284 39.8821C1.88387 38.3661 0.586011 36.9137 1.9895 34.9537C2.59687 34.1067 1.35964 32.8861 1.25108 31.4757L1.25206 31.4728ZM1.81541 144.099C1.36258 145.318 1.46331 146.343 1.59535 147.319C1.88289 149.439 2.30345 151.539 2.63599 153.652C3.02036 156.101 3.69814 156.654 6.07478 156.408C7.37558 156.274 7.8245 155.158 8.8847 154.069C6.63911 153.583 6.65965 151.551 5.84103 149.975C5.20432 150.962 5.91927 152.038 4.94612 152.963C5.0987 151.072 4.12652 149.458 4.2791 147.87C4.48253 145.762 3.29323 145.087 1.81541 144.098V144.099Z" fill="#8DC0FF"/>
<path d="M55.7434 168.738C57.6613 168.944 58.9964 169.967 60.3871 170.861C64.5409 173.532 67.7205 177.264 71.1622 180.715C73.4156 182.974 75.6563 185.244 78.0369 187.38C81.0502 190.086 82.9799 193.738 85.7683 196.649C88.3552 199.349 90.7407 202.216 93.0704 205.517C94.2675 203.869 94.4836 202.2 94.7252 200.633C95.3111 196.833 95.0441 192.971 95.2798 189.153C95.5008 185.565 95.0372 182.072 94.8485 178.536C94.6969 175.705 93.933 173.015 93.4029 170.274C92.5814 166.027 93 161.671 91.9984 157.427C91.437 155.05 90.6752 152.739 90.0922 150.375C89.5299 148.099 89.1817 145.841 89.0868 143.464C88.8892 138.499 87.83 133.648 85.8544 129.044C85.5199 128.264 85.4671 128.287 83.1364 127.226C82.6621 130.235 81.6772 133.042 80.5896 135.804C79.2086 139.31 77.6828 142.74 74.2665 144.854C70.7945 147.004 67.1816 147.051 63.4934 145.599C61.7349 144.906 60.9485 143.379 60.8566 141.593C60.6913 138.395 61.0581 135.228 61.9129 132.141C62.3726 130.482 63.3487 129.106 64.6319 127.942C69.7157 123.327 70.2566 123.133 77.8002 123.408C80.4527 123.505 80.6375 123.392 81.0424 120.822C81.8914 115.443 82.3051 110.03 82.175 104.581C82.1593 103.923 82.1574 103.265 82.1779 102.608C82.2024 101.787 82.0263 100.798 83.1599 100.578C84.2915 100.359 85.4064 101.367 85.5238 102.693C85.6891 104.557 85.694 106.428 85.8857 108.3C86.451 113.802 87.1385 119.299 88.4149 124.663C91.2336 136.513 92.8259 148.605 95.625 160.448C97.1224 166.781 97.5596 173.189 98.0378 179.629C98.5797 186.925 98.477 194.245 99.2066 201.542C99.5841 205.314 98.9817 209.186 98.7841 213.011C98.7567 213.543 98.654 214.177 97.9127 214.264C97.4911 214.314 97.1664 214.057 97.008 213.72C95.6661 210.862 92.909 209.209 91.1231 206.666C87.8545 202.011 84.0577 197.728 80.526 193.256C78.3724 190.529 75.8334 188.179 73.3912 185.733C72.9012 185.242 72.1686 185.009 72.2136 184.015C72.24 183.422 71.5769 182.696 70.9588 182.627C68.4423 182.343 67.1435 180.372 65.7087 178.774C63.7555 176.599 61.7222 174.573 59.3886 172.812C57.9988 171.764 56.4681 170.777 55.7444 168.742L55.7434 168.738ZM63.6597 139.93C63.692 139.934 63.7242 139.938 63.7565 139.941C63.7565 140.411 63.7154 140.884 63.7634 141.348C64.0362 143.981 65.1659 144.956 67.833 144.856C70.4571 144.758 72.6048 143.495 74.1052 141.524C77.4579 137.12 79.2565 132.018 80.1446 126.574C80.2639 125.845 79.9959 125.403 79.4062 125.343C77.6535 125.168 75.8911 124.505 74.1306 125.115C69.4986 126.719 65.739 129.312 64.4861 134.392C64.0411 136.195 63.9267 138.08 63.6616 139.929L63.6597 139.93ZM85.4397 125.336C85.6373 123.482 85.6705 122.151 84.092 120.938C83.9208 122.677 84.2367 123.903 85.4397 125.336Z" fill="#8DC0FF"/>
<path d="M240.043 208.574C238.207 206.073 237.749 203.264 237.826 200.317C237.844 199.642 237.614 199.046 237.384 198.421C236.407 195.765 236.188 192.942 235.611 190.195C235.231 188.389 236.299 186.78 236.116 184.96C235.953 183.334 235.604 181.579 236.533 180.001C236.742 179.646 236.646 179.291 236.645 178.92C236.639 176.392 237.076 173.988 237.784 171.512C238.776 168.047 239.366 164.424 238.574 160.702C237.972 157.868 237.604 154.946 237.512 152.051C237.415 149.006 236.339 146.191 235.79 143.27C235.255 140.426 234.825 137.588 234.52 134.722C234.413 133.713 234.424 132.679 233.62 131.688C232.284 132.817 231.768 134.36 231.437 135.833C231.195 136.91 231.345 138.056 230.542 138.986C230.278 139.292 230.252 139.857 230.518 140.025C232.502 141.279 230.921 142.128 230.206 143.052C229.69 143.719 229.082 144.316 228.561 144.981C227.178 146.741 225.639 147.307 223.723 146.313C222.588 145.724 221.613 145.735 220.497 146.032C216.411 147.122 212.367 146.699 208.335 145.686C206.579 145.245 205.345 144.241 204.584 142.583C203.564 140.361 202.673 138.094 201.914 135.77C201.48 134.439 201.064 133.115 200.196 131.945C199.403 130.876 199.004 129.562 199.185 128.21C199.648 124.733 199.386 121.312 198.592 117.914C198.486 117.461 198.476 116.984 198.433 116.517C198.111 112.901 199.813 113.162 202.137 113.955C202.95 114.231 203.567 114.719 203.226 115.593C202.655 117.055 203.355 118.186 204.047 119.274C204.778 120.422 204.859 121.413 204.222 122.656C203.335 124.383 203.493 126.246 203.786 128.147C204.363 131.882 205.826 135.337 206.892 138.918C207.118 139.679 207.556 139.638 208.094 139.757C210.024 140.181 211.767 140.989 213.346 142.214C215.416 143.82 217.755 143.831 219.977 142.703C222.947 141.194 225.59 139.249 226.643 135.83C227.154 134.173 228.23 132.847 229.272 131.532C230.663 129.778 231.36 127.818 231.689 125.631C232.022 123.415 232.322 121.191 233.171 119.065C233.798 117.493 234.639 116.321 236.435 115.91C236.596 116.212 236.966 116.579 236.908 116.853C236.316 119.599 237.465 122.228 237.395 124.934C237.334 127.282 237.442 129.6 237.957 131.93C238.293 133.446 237.864 135.117 238.076 136.678C238.73 141.488 239.083 146.333 239.898 151.129C240.287 153.417 240.279 155.812 240.144 158.141C240.025 160.21 239.977 162.275 240.027 164.334C240.16 169.788 240.048 175.228 238.849 180.566C237.999 184.349 238.899 188.028 239.197 191.734C239.482 195.28 240.841 198.66 241.167 202.228C241.231 202.929 241.75 203.59 242.065 204.267C243.02 206.322 243.496 208.531 244.133 210.688C244.314 211.299 244.759 211.933 244.165 212.523C243.545 213.138 242.714 213.058 242.05 212.745C240.271 211.904 238.547 210.947 236.809 210.019C236.48 209.843 236.17 209.616 235.888 209.371C234.485 208.159 233.103 206.89 231.184 208.505C227.46 208.605 224.023 208.705 220.831 205.677C217.551 202.566 214.143 199.469 210.397 196.835C209.174 195.974 208.031 194.976 206.963 193.928C205.746 192.733 204.563 191.572 202.851 191.083C202.342 190.937 201.857 190.53 201.477 190.132C198.308 186.808 194.524 184.083 191.877 180.252C191.119 179.156 190.075 178.455 188.932 177.748C186.705 176.371 184.732 174.54 183.451 172.259C180.968 167.839 177.729 163.914 175.302 159.472C174.891 158.72 174.409 158.261 173.527 158.506C171.866 158.968 170.155 158.614 168.477 158.855C165.577 159.272 163.039 158.268 161.034 156.297C159.017 154.314 156.864 154.284 154.306 154.765C147.033 156.134 139.813 157.997 132.435 158.52C128.652 158.789 125.488 159.645 122.798 162.246C121.862 163.151 120.773 163.038 119.533 162.696C119.183 158.819 119.044 154.888 120.599 151.139C123.216 144.832 124.703 138.432 124.5 131.458C124.301 124.593 124.06 117.748 123.122 110.964C122.134 103.816 120.651 96.7377 119.54 89.6057C118.529 83.1152 117.291 76.6776 115.895 70.2606C114.389 63.3466 112.028 56.7222 109.339 50.2171C107.792 46.478 106.843 42.5364 105.191 38.8452C104.993 38.4041 104.827 37.9561 105.284 37.5727C105.601 37.3057 105.974 37.3233 106.337 37.4681C106.86 37.6764 107.371 37.9219 107.897 38.1214C109.243 38.631 109.074 38.6633 109.46 40.3954C109.866 42.2146 110.56 43.9849 111.277 45.7161C113.9 52.052 116.304 58.4622 118.221 65.0524C119.295 68.7436 119.999 72.5111 120.703 76.2825C121.063 78.2151 121.467 80.1409 121.898 82.0599C123.523 89.2946 124.158 96.6731 125.074 104.01C125.839 110.131 126.863 116.246 127.149 122.393C127.462 129.128 127.952 135.948 126.601 142.629C125.786 146.661 124.158 150.504 123.213 154.526C122.715 156.647 122.725 156.799 124.922 156.672C130.731 156.34 136.526 155.873 142.164 154.27C142.97 154.041 143.827 153.874 144.659 153.883C147.619 153.913 150.443 153.206 153.184 152.242C156.409 151.107 159.273 151.204 162.189 153.305C164.694 155.108 167.485 156.503 170.848 155.278C172.643 154.623 172.726 154.707 171.849 153.121C169.808 149.426 167.745 145.742 165.742 142.026C164.986 140.624 164.367 139.148 163.69 137.705C163.482 137.261 163.342 136.751 163.764 136.411C164.271 136.001 164.608 136.494 164.897 136.827C167.662 140.013 170.486 143.144 172.54 146.882C173.578 148.771 174.908 150.496 176.002 152.356C176.856 153.808 177.912 153.052 178.947 152.803C179.994 152.551 181.083 152.252 180.705 150.812C180.292 149.237 181.281 149.113 182.387 148.97C183.914 148.773 185.357 149.317 186.842 149.472C190.168 149.818 193.615 149.402 197.059 150.917C195.388 151.999 193.671 151.726 192.206 151.43C190.368 151.057 188.657 151.525 186.891 151.533C186.404 151.535 185.788 151.595 185.667 152.046C185.097 154.172 183.25 154.47 181.584 155.057C178.519 156.136 178.156 157.072 180.175 159.648C182.155 162.171 183.886 164.82 185.437 167.623C186.485 169.514 188.01 171.126 189.639 172.526C192.514 174.999 194.723 178.03 197.105 180.918C198.012 182.016 198.936 182.993 200.241 183.666C202.102 184.625 203.376 186.33 204.824 187.784C205.959 188.924 207.004 190.11 208.571 190.675C208.913 190.798 209.219 191.051 209.51 191.287C211.852 193.185 213.863 195.526 217.34 195.543C219.222 195.553 220.751 196.883 222.274 198.034C224.119 199.426 226.017 200.61 228.537 200.909C231.227 201.229 233.386 203.268 235.875 204.354C236.096 204.451 236.283 204.757 236.372 205.006C236.951 206.636 238.173 207.826 240.038 208.577L240.043 208.574Z" fill="#8DC0FF"/>
<path d="M276.678 91.3758C269.65 91.4745 263.189 91.2095 256.666 90.3116C255.682 92.6805 256.07 95.1227 256.361 97.4662C257.137 103.7 258.541 109.815 260.672 115.735C262.206 119.996 263.457 124.29 263.192 128.882C263.141 129.759 263.486 130.532 263.703 131.346C264.933 135.956 266.685 140.432 267.202 145.225C267.26 145.768 267.476 146.326 267.746 146.806C268.111 147.459 268.804 148.121 267.711 148.63C266.789 149.058 265.852 148.924 265.257 147.962C265.069 147.655 265.007 147.259 264.929 146.895C262.363 134.96 258.46 123.371 255.753 111.474C254.943 107.914 254.064 104.377 253.48 100.756C252.852 96.8588 250.745 93.3955 249.494 89.6641C249.233 88.8856 248.36 88.7281 247.683 88.4308C244.856 87.1906 242.022 85.9681 239.186 84.7504C238.475 84.4452 237.133 84.8462 237.723 83.163C237.826 82.8666 236.475 82.6642 235.784 82.4421C233.732 81.781 231.52 81.7066 229.553 80.7462C227.204 79.5999 224.861 78.4399 222.598 77.0119C224.215 76.9552 225.7 77.4765 227.126 78.1132C228.774 78.8497 230.336 79.5451 232.198 78.6609C232.926 78.3147 233.852 78.5446 234.692 78.7597C237.51 79.4815 240.346 80.1378 243.161 80.8714C245.929 81.5922 245.922 81.6196 247.125 79.0209C247.619 77.9515 248.579 77.5153 250.004 77.7122C249.806 74.9903 249.324 72.3397 249.562 69.6207C249.918 65.5471 249.877 61.4363 249.956 57.3402C249.99 55.5552 249.31 53.8553 249.307 52.044C249.3 47.8275 249.94 43.6708 250.232 39.4866C250.583 34.4486 251.409 29.4429 251.321 24.3736C251.308 23.5687 251.481 22.6317 252.569 23.376C253.315 23.8865 253.48 23.7379 253.979 23.0914C255.785 20.7489 257.467 18.2842 259.938 16.5286C261.009 15.7667 261.951 14.7651 263.384 15.8165C264.115 16.3515 264.673 15.7422 265.075 15.3226C267.023 13.2951 269.64 12.007 271.253 9.60683C272.405 7.89229 273.933 7.01301 276.056 7.90696C276.309 8.01357 276.61 8.0077 276.884 8.06834C277.548 8.21602 278.28 8.28449 278.751 7.78568C279.351 7.14994 278.641 6.56799 278.392 6.01636C277.548 4.13946 276.646 2.28995 275.69 0.269269C277.754 -0.532742 279.104 0.594964 280.093 1.83808C284.942 7.92652 290.001 13.9367 293.336 21.0071C295.435 25.4563 297.597 29.9134 298.985 34.7235C300.087 38.5457 301.704 42.2399 302.951 46.0465C303.412 47.4529 303.13 49.1352 304.841 50.215C305.712 50.7647 305.131 52.4841 305.135 53.6548C305.137 54.2827 304.322 54.5341 303.561 54.4422C301.988 54.2534 301.174 53.1413 300.93 51.8503C300.302 48.5288 298.28 45.9057 296.873 42.9724C295.178 39.4397 294.11 35.6741 293.001 31.9086C292.213 29.2336 291.204 26.6368 290.675 23.867C290.503 22.9652 289.476 22.2424 288.899 21.3974C286.567 17.9849 284.094 14.6879 281.463 11.4945C280.464 10.2817 279.53 10.0959 278.076 10.3423C275.833 10.7228 274.139 11.6588 272.606 13.4125C270.333 16.0131 268.019 18.6431 264.947 20.4164C264.397 20.7342 263.819 21.2125 263.541 21.7612C262.294 24.223 259.998 25.2773 257.653 26.1957C256.624 26.5987 256.292 27.2677 255.908 28.1695C254.234 32.1003 253.82 36.2854 253.347 40.452C253.116 42.4834 253.847 44.5012 253.363 46.6001C252.804 49.0296 252.703 51.5158 251.705 53.9072C251.094 55.3713 251.216 57.3157 251.754 58.8953C252.236 60.3096 252.197 61.67 252.142 63.053C251.964 67.5717 252.464 72.0365 253.024 76.5043C253.248 78.2942 253.913 79.9559 254.455 81.645C254.9 83.0339 255.881 83.9924 257.401 84.4071C261.569 85.5436 265.649 86.9539 269.6 88.7145C270.831 89.2631 272.194 89.1018 273.451 89.4832C274.41 89.7737 275.524 89.7267 276.676 91.3728L276.678 91.3758Z" fill="#8DC0FF"/>
<path d="M438.901 86.0007C438.712 87.1294 437.458 87.1724 437.36 88.3236C442.482 89.3574 447.6 89.0679 452.637 89.0473C453.235 88.4233 452.758 87.9235 452.609 87.4335C452.421 86.8193 451.96 86.1748 452.685 85.674C453.269 85.2701 453.971 85.4168 454.574 85.7053C455.95 86.3645 457.119 87.3572 457.993 88.5612C459.062 90.0342 460.321 90.755 462.16 91.0142C466.717 91.6558 466.786 91.9874 464.111 95.884C463.692 96.4953 463.151 97.1359 463.038 97.8245C462.584 100.575 461.076 103.054 461.089 105.932C461.097 107.657 460.59 109.239 459.037 110.334C458.267 110.878 457.874 111.659 457.724 112.695C457.18 116.443 454.782 119.034 452.006 121.356C448.932 123.927 445.284 123.73 441.644 123.539C437.249 123.308 432.889 122.617 428.474 122.59C425.377 122.57 422.569 123.665 419.759 124.66C418.245 125.196 417.428 126.819 416.585 128.131C414.972 130.642 413.814 133.261 415.092 136.428C415.989 138.65 416.229 141.092 417.719 143.144C418.432 144.126 419.051 144.837 420.268 145.047C424.99 145.864 429.515 147.47 434.153 148.59C437.461 149.389 440.955 149.418 444.867 149.846C444.038 148.152 443.041 147.22 442.211 146.184C441.395 145.166 440.818 144.242 440.93 142.711C441.084 140.602 440.59 138.442 440.34 136.309C440.263 135.651 440.099 135.008 440.58 134.392C441.557 134.267 441.81 135.133 442.108 135.726C443.54 138.57 444.883 141.454 446.403 144.259C446.954 145.275 447.612 146.096 448.32 146.941C448.982 147.731 449.626 148.536 450.263 149.346C450.916 150.174 450.57 150.701 449.72 151.072C446.859 152.318 443.639 152.94 440.06 152.938C438.361 152.941 436.682 153.081 435.491 151.427C435.043 150.805 434.163 150.797 433.405 150.755C428.29 150.471 423.589 148.448 418.691 147.255C417.74 147.023 417.283 146.344 416.956 145.563C416.343 144.092 415.828 142.58 415.231 141.102C414.75 139.91 414.416 138.726 413.087 137.957C411.594 137.093 411.746 135.247 411.928 133.847C412.735 127.659 411.766 121.515 411.574 115.362C411.497 112.875 411.717 110.603 412.573 108.31C413.814 104.987 414.447 101.443 416.457 98.4005C417.661 96.5774 419.726 95.528 420.692 93.5591C421.526 91.8622 422.978 90.8763 424.439 89.863C424.821 89.599 425.225 89.2195 425.644 89.1823C429.52 88.8351 433.004 87.147 436.648 86.0183C437.388 85.7894 438.088 85.6662 438.9 86.0007H438.901ZM442.253 121.221C442.91 121.221 443.568 121.246 444.224 121.217C447.404 121.071 450.306 119.888 451.908 117.226C453.474 114.625 455.019 111.828 455.561 108.766C455.988 106.361 456.569 104.014 457.298 101.702C457.865 99.9048 457.672 98.0905 457.16 96.4464C456.576 94.5724 455.415 92.8129 453.098 92.6759C451.513 92.5821 449.856 92.4608 448.335 92.8099C444.45 93.7 440.522 93.8467 436.601 93.6442C434.978 93.5601 433.035 94.2516 431.741 93.1288C430.185 91.7781 428.954 92.1351 427.492 92.9723C426.928 93.2951 426.316 93.5943 425.688 93.7332C422.619 94.414 420.326 95.8458 418.949 98.9297C418.257 100.482 417.374 101.86 417.501 103.615C417.693 106.272 417.267 108.824 416.308 111.304C416.107 111.822 415.997 112.393 415.947 112.949C415.749 115.176 416.607 116.48 418.824 116.986C423.659 118.088 428.519 119.084 433.365 120.138C436.296 120.776 439.262 121.101 442.254 121.224L442.253 121.221Z" fill="#8DC0FF"/>
<path d="M389.612 110.875C387.196 115.122 384.75 119.333 382.392 123.591C378.617 130.41 374.913 137.268 371.147 144.093C370.56 145.156 369.786 146.115 369.135 147.145C368.262 148.527 366.941 148.518 365.646 148.149C364.471 147.815 364.358 146.73 364.274 145.638C363.719 138.444 363.191 131.247 362.511 124.065C361.974 118.382 361.519 112.69 360.344 107.074C359.74 104.183 358.88 101.45 357.351 98.9537C356.452 97.4847 355.854 95.9843 355.601 94.2629C355.183 91.4246 355.087 91.4706 352.371 90.8563C350.084 90.339 347.813 89.758 345.546 89.1555C344.579 88.8983 343.641 88.5246 342.963 87.6434C345.355 86.3856 347.532 86.0485 349.496 86.6321C350.934 87.0536 352.357 87.5378 353.885 87.5916C355.771 87.6581 355.82 87.6884 355.842 85.8516C355.882 82.5624 355.869 79.2732 355.852 75.983C355.841 73.9163 355.928 71.8565 356.7 69.918C357.013 69.1326 356.779 68.4323 356.688 67.7154C355.271 56.4677 353.812 45.2249 352.402 33.9752C352.135 31.8401 352.05 29.6834 351.861 27.5386C351.784 26.6759 351.604 25.7507 352.827 25.5991C354.279 25.4181 355.55 26.3091 355.623 27.5219C355.696 28.7386 355.625 29.9681 355.764 31.175C356.68 39.1697 357.761 47.1477 358.545 55.1561C359.32 63.0852 360.884 70.8961 361.818 78.7988C361.985 80.2101 361.94 81.6097 361.998 83.0142C362.032 83.8466 361.998 84.6447 362.424 85.4623C363.791 88.0806 363.8 88.0366 366.77 87.7217C368.791 87.5075 370.613 87.0321 372.205 85.7186C373.164 84.9273 374.33 84.4451 375.576 84.4295C379.147 84.3835 382.719 84.3933 386.29 84.4432C386.988 84.453 387.741 84.5938 388.345 85.0486C387.944 86.2135 387.007 86.1568 386.228 86.3044C383.19 86.8805 380.155 87.4859 377.097 87.931C375.774 88.1236 374.513 88.3564 373.372 89.0626C370.826 90.6373 368.078 91.4314 365.067 91.2759C364.71 91.2574 364.346 91.3894 363.783 91.4862C364.421 93.0433 363.961 94.4419 363.598 95.8826C362.879 98.7376 363.091 101.534 363.628 104.473C364.466 109.055 365.228 113.68 365.368 118.382C365.479 122.1 365.96 125.805 366.237 129.519C366.426 132.041 366.537 134.568 366.701 137.091C366.833 139.124 366.993 141.155 367.183 143.772C368.972 141.944 369.857 140.11 370.78 138.354C375.502 129.374 380.621 120.62 385.712 111.849C386.909 109.787 386.959 109.816 389.612 110.875Z" fill="#8DC0FF"/>
<path d="M349.298 168.366C347.811 168.849 347.021 167.984 346.492 166.803C345.345 164.233 344.199 161.659 343.167 159.042C340.101 151.267 337.384 143.367 334.731 135.442C330.44 122.619 326.956 109.574 323.839 96.4252C323.624 95.5156 323.314 94.6266 323.02 93.7375C322.905 93.3864 322.75 93.0274 322.042 92.8612C321.006 95.8873 319.955 98.9467 318.911 102.009C318.729 102.541 318.503 103.072 318.419 103.622C318.089 105.786 318.094 107.882 320.13 109.317C319.445 110.145 318.648 110.24 317.961 110.131C316.067 109.828 315.442 110.857 314.9 112.435C313.341 116.978 311.309 121.329 308.711 125.368C307.152 127.792 305.662 130.482 302.635 131.367C298.674 132.526 294.895 132.446 291.709 129.204C288.894 126.337 287.069 123.174 287.308 118.966C287.553 114.673 286.976 110.351 288.417 106.124C289.818 102.017 292.413 99.8788 296.683 99.8651C299.409 99.8563 302.15 99.7076 304.856 99.9423C307.622 100.182 309.989 101.534 312.197 103.245C314.195 104.794 314.664 104.651 315.667 102.301C316.734 99.8044 317.626 97.2292 318.504 94.6569C319.352 92.1746 320.064 89.6473 320.882 87.1542C321.132 86.3932 321.264 85.4494 322.493 85.5903C323.653 85.7233 324.268 86.1702 324.528 87.4388C327.346 101.236 330.957 114.839 335.087 128.293C337.511 136.187 340.392 143.94 343.074 151.755C344.933 157.172 346.828 162.575 349.353 167.731C349.42 167.867 349.328 168.079 349.299 168.365L349.298 168.366ZM290.497 115.75C290.491 123.114 290.799 124.029 293.377 127.555C295.68 130.703 298.062 130.95 301.493 129.407C302.947 128.753 303.894 127.361 304.76 126.014C308.163 120.721 310.9 115.104 313.146 109.226C313.606 108.022 313.466 107.291 312.573 106.544C310.63 104.919 308.58 103.439 306.439 102.085C305.948 101.774 305.418 101.635 304.845 101.612C302.88 101.533 300.909 101.317 298.951 101.399C295.579 101.539 292.746 103.905 291.628 107.048C290.536 110.118 290.359 113.262 290.498 115.75H290.497Z" fill="#8DC0FF"/>
</svg>
