<svg width="50" height="80" viewBox="0 0 50 80" fill="none" xmlns="http://www.w3.org/2000/svg">
<path d="M10.3934 6.33896C10.2884 5.33723 11.4326 4.28887 12.2509 4.29074C13.2156 4.293 13.9853 4.60442 14.4482 5.47235C14.6841 5.91464 14.8679 6.3859 15.0751 6.84288C15.2847 7.30664 15.5658 7.70417 15.9974 8.00268C16.6155 8.43258 17.2131 8.89161 17.8114 9.34835C18.0243 9.51157 18.1266 9.74909 18.1104 10.0175C18.0481 11.0291 18.1201 12.0118 18.4802 12.9769C18.6975 13.5587 18.8953 14.1845 18.9189 14.7978C18.9731 16.236 19.5931 17.4585 20.2155 18.6918C20.3879 19.0313 21.1017 19.4258 21.4951 19.3757C22.121 19.2956 22.7423 19.1191 23.3676 19.1155C25.0082 19.1042 26.6542 19.028 28.2877 19.2238C28.6574 19.2677 29.0235 19.4981 29.1256 19.8884C29.6752 21.9769 30.825 23.7975 31.7293 25.7259C32.4219 27.2019 33.2219 28.6339 34.053 30.0397C35.0294 31.692 35.6596 33.4541 35.8728 35.3479C36.0148 36.6161 36.3825 37.7944 36.8709 38.9619C37.5976 40.7007 38.2489 42.4666 38.6231 44.3281C38.7842 45.1274 39.1002 45.8934 39.3251 46.6817C39.5924 47.1411 39.7565 47.6587 39.7944 48.1927C40.5282 49.5229 41.233 50.8688 41.9042 52.2318C42.2401 52.913 42.5669 53.599 42.8866 54.2878C43.243 54.8506 43.5452 55.4469 43.7876 56.0691C43.8124 56.1334 43.7977 56.1928 43.7659 56.2425C44.516 57.9576 45.2191 59.6933 45.8687 61.4489C46.4483 63.0105 46.9859 64.5898 47.4832 66.1803C47.7312 66.9758 47.9697 67.7751 48.198 68.576C48.3697 69.1769 48.7017 69.9385 48.281 70.5099C48.2489 70.5532 48.2002 70.5746 48.1488 70.5813C48.139 70.6074 48.1292 70.6331 48.1164 70.657C48.0588 70.7643 47.9664 70.8748 47.8608 70.9334C46.642 71.6088 45.3698 72.1675 44.0581 72.6358C42.1514 73.3169 40.239 73.9827 38.3295 74.6556L38.3424 74.6924L34.4059 76.0796C32.2543 76.8301 30.0915 77.5237 27.8176 77.8224C26.9451 77.9375 26.096 78.2237 25.2314 78.4138C25.2099 78.4186 25.186 78.4185 25.1607 78.4159C25.0495 78.4465 24.9367 78.4748 24.8218 78.4971C24.7335 78.5126 24.6249 78.4349 24.6022 78.3529C24.2619 77.0814 23.9199 75.8089 23.5796 74.5374L23.5806 74.537C23.5757 74.5189 23.5729 74.501 23.5722 74.484C23.4983 74.4795 23.4295 74.4381 23.4018 74.3443C22.8682 72.5329 22.317 70.7278 21.7491 68.9285C20.7342 65.7163 19.6633 62.5218 18.5379 59.3455C17.4124 56.1692 16.2333 53.0129 14.9978 49.8784C14.9745 49.8191 14.9779 49.7656 14.9986 49.7218C14.7912 49.2214 14.5844 48.72 14.3772 48.2199C14.0598 47.456 13.725 46.694 13.4222 45.9213C13.4147 45.9078 13.4083 45.8926 13.4041 45.8759C13.4037 45.8743 13.4029 45.8729 13.4025 45.8713C13.2573 45.4988 13.118 45.124 12.9951 44.7444C12.6417 43.6522 12.4656 42.5112 12.4886 41.3621C12.4611 41.1842 12.4338 41.0063 12.4082 40.8282C11.9021 39.6184 11.4882 38.3714 11.1706 37.0988C11.1468 37.0027 11.1848 36.9226 11.2458 36.8714C11.2421 36.825 11.2398 36.7786 11.2403 36.7325C11.2406 36.6971 11.2448 36.6702 11.2519 36.6508C10.6121 33.994 10.0522 31.3109 8.97527 28.7886C8.93202 28.6867 8.97174 28.6035 9.04109 28.5552C8.68971 27.5242 8.55272 26.4279 8.10311 25.4233L8.09759 25.4077L8.10756 25.4124C8.10588 25.4135 8.10403 25.4143 8.10236 25.4153C8.89202 26.521 9.21386 27.8202 9.61292 29.0878C9.6267 29.1313 9.62748 29.1787 9.62487 29.2276C9.89185 29.9045 10.1283 30.5931 10.3389 31.2891C11.2558 34.3138 11.7532 37.4538 12.7603 40.4525C12.7861 40.4819 12.8054 40.5195 12.812 40.5668C12.8148 40.5871 12.8173 40.6078 12.8202 40.6281C12.8561 40.7327 12.8914 40.8377 12.9287 40.9419C12.9585 41.0252 12.9387 41.0949 12.8954 41.1442C12.8969 41.1547 12.8986 41.1651 12.9002 41.1756C12.9101 41.1957 12.9189 41.2179 12.9239 41.2428C13.2164 42.7135 13.5085 44.1856 13.801 45.6563C13.8164 45.7079 13.8307 45.7592 13.8511 45.8074C13.9143 45.9561 13.9764 46.1058 14.0349 46.2583C14.0859 46.3821 14.1363 46.5066 14.1879 46.631C14.656 47.7584 15.1225 48.8849 15.5907 50.0123C15.6181 50.0788 15.6103 50.1374 15.5828 50.1838C16.2135 51.7907 16.8322 53.403 17.4335 55.0214C18.6078 58.1791 19.7266 61.3585 20.79 64.5553C21.8533 67.7519 22.8603 70.9684 23.8126 74.1995C23.8176 74.2165 23.8206 74.2331 23.8218 74.2491C23.8967 74.2525 23.9656 74.2958 23.9914 74.3923C24.3005 75.5474 24.6114 76.7032 24.9208 77.8585C24.9341 77.841 24.9499 77.8237 24.9706 77.8089C25.1118 77.7081 25.2768 77.6537 25.4435 77.6464C26.266 77.2729 27.1362 77.015 28.0276 76.9139C30.1862 76.668 32.2223 75.9949 34.2523 75.2795L37.8324 74.0179C40.8172 72.9707 43.7903 71.8896 46.8399 71.0395C47.2157 70.9346 47.5762 70.7325 47.6929 70.3599C47.7297 70.2422 47.7631 70.1423 47.8056 70.0686C47.359 68.4252 46.8686 66.7936 46.3267 65.1786C45.4861 62.6721 44.5288 60.2034 43.4638 57.783C43.4051 57.7833 43.3487 57.7575 43.3121 57.6873C42.9082 56.9127 42.5755 56.1098 42.3136 55.2829C41.7391 54.093 41.136 52.9147 40.5428 51.7445C39.8103 50.2995 39.1203 48.8239 38.6971 47.2561C38.6676 47.1474 38.7113 47.0637 38.7795 47.0169C38.7246 46.8552 38.6732 46.6918 38.6248 46.5278L38.6257 46.5275C38.6228 46.5176 38.6222 46.5077 38.6206 46.4982C38.6065 46.4611 38.5914 46.4243 38.5773 46.3871C38.4976 46.2985 38.413 46.2136 38.3225 46.1342C38.1982 46.025 38.2479 45.8657 38.3519 45.7915C37.398 43.2867 36.4227 40.7901 35.6362 38.2259C35.0805 36.413 34.3457 34.6906 33.2458 33.1291C32.5133 32.0904 32.0047 30.9604 31.8316 29.6742C31.7496 29.0615 31.5365 28.4486 31.2876 27.8779C30.4845 26.0315 29.8048 24.1427 29.204 22.2235C28.9974 21.5678 28.445 21.2584 27.7941 21.1196C27.0498 20.9604 26.2973 20.8865 25.5341 20.9355C24.2718 21.0152 23.0107 21.1343 21.7464 21.1644C20.9463 21.1836 20.2569 20.8151 19.8212 20.1468C19.2715 19.3033 18.8148 18.4042 18.6417 17.393C18.4308 16.1566 18.039 14.9529 18.0039 13.6821C17.9939 13.3176 17.8438 12.9474 17.7075 12.6C17.4147 11.8523 16.9044 11.3632 16.0564 11.2466C14.7215 11.0633 13.5545 11.462 12.5035 12.2418C12.3339 12.3674 12.2408 12.6841 12.2318 12.9163C12.2194 13.2872 12.2479 13.6789 12.3617 14.0282C12.7907 15.3418 13.2562 16.6445 13.7167 17.9471C13.815 18.2259 13.8862 18.4305 13.9275 18.6069C13.9773 18.6437 14.0132 18.6981 14.0104 18.7599C13.9859 19.2496 13.912 19.7262 13.7988 20.2044C13.7599 20.3705 13.7322 20.5267 13.7422 20.6902C13.9039 20.8605 14.0649 21.031 14.2089 21.2154C14.4946 21.5805 14.4499 22.2275 14.1494 22.5627C13.986 22.7455 13.8512 22.9761 13.6508 23.1018C12.3942 23.8883 11.1289 24.6609 9.85394 25.4172C9.28271 25.7551 8.68763 25.7256 8.10756 25.4124C9.25653 24.6971 10.2689 23.7935 11.459 23.1287C12.0945 22.7734 12.6258 22.229 13.1978 21.7632C13.3337 21.6528 13.4295 21.5288 13.4985 21.3974C13.349 21.0288 13.2597 20.6526 13.3401 20.2573C13.4399 19.7669 13.5501 19.2923 13.5748 18.7902C13.5766 18.757 13.584 18.7252 13.5955 18.6959C13.5445 18.4101 13.4824 18.1272 13.3958 17.8531C12.7899 15.9371 12.2078 14.0065 11.3094 12.1997C10.899 11.3759 10.7787 10.5535 10.966 9.6473C11.0383 9.29808 10.9423 8.90293 10.8695 8.5392C10.7238 7.80234 10.4704 7.08172 10.3934 6.33896ZM42.6273 54.842C42.6366 54.8472 42.6457 54.8531 42.6545 54.8604C42.6386 54.8305 42.6223 54.8007 42.6063 54.7707C42.6131 54.7946 42.6204 54.8182 42.6273 54.842ZM13.8087 6.83668C13.4717 6.39197 12.5644 6.33451 12.185 6.73063C11.7891 7.14513 11.6832 7.59683 11.9112 8.06031C12.1259 8.49471 12.3625 8.91837 12.6081 9.33576C12.9248 9.8718 13.6422 9.92313 14.1714 9.44964C14.4535 9.19751 14.6228 8.88913 14.5309 8.49252C14.5035 8.37546 14.4796 8.25666 14.4345 8.05435L14.4366 8.05153C14.3182 7.79846 14.1674 7.46796 14.0066 7.14278C13.9532 7.03493 13.8816 6.9346 13.8087 6.83668Z" fill="#8DC0FF"/>
<path d="M10.3934 6.33896L10.711 6.30606L10.711 6.30566L10.3934 6.33896ZM12.2509 4.29074L12.2517 3.97148L12.2516 3.97148L12.2509 4.29074ZM14.4482 5.47235L14.1665 5.62259L14.1665 5.62259L14.4482 5.47235ZM15.0751 6.84288L15.366 6.71139L15.3659 6.71104L15.0751 6.84288ZM15.9974 8.00268L16.1797 7.74059L16.179 7.74013L15.9974 8.00268ZM17.8114 9.34835L18.0056 9.09497L18.0051 9.09458L17.8114 9.34835ZM18.1104 10.0175L18.429 10.0371L18.429 10.0368L18.1104 10.0175ZM18.4802 12.9769L18.1811 13.0885L18.1811 13.0886L18.4802 12.9769ZM18.9189 14.7978L19.238 14.7858L19.238 14.7855L18.9189 14.7978ZM20.2155 18.6918L19.9305 18.8356L19.9309 18.8363L20.2155 18.6918ZM21.4951 19.3757L21.5354 19.6924L21.5356 19.6924L21.4951 19.3757ZM23.3676 19.1155L23.3694 19.4348L23.3698 19.4348L23.3676 19.1155ZM28.2877 19.2238L28.2497 19.5407L28.2501 19.5408L28.2877 19.2238ZM29.1256 19.8884L28.8167 19.9692L28.8168 19.9696L29.1256 19.8884ZM31.7293 25.7259L31.4403 25.8615L31.4403 25.8615L31.7293 25.7259ZM34.053 30.0397L34.3278 29.8773L34.3278 29.8772L34.053 30.0397ZM35.8728 35.3479L36.19 35.3124L36.19 35.3122L35.8728 35.3479ZM36.8709 38.9619L37.1654 38.8388L37.1654 38.8387L36.8709 38.9619ZM38.6231 44.3281L38.3101 44.391L38.3101 44.3912L38.6231 44.3281ZM39.3251 46.6817L39.0181 46.7693L39.0291 46.8077L39.0492 46.8423L39.3251 46.6817ZM39.7944 48.1927L39.476 48.2153L39.481 48.2854L39.5149 48.3469L39.7944 48.1927ZM41.9042 52.2318L41.6178 52.3729L41.6179 52.373L41.9042 52.2318ZM42.8866 54.2878L42.597 54.4222L42.6057 54.4411L42.6169 54.4587L42.8866 54.2878ZM43.7876 56.0691L44.0855 55.9542L44.0851 55.9532L43.7876 56.0691ZM43.7659 56.2425L43.497 56.0703L43.405 56.214L43.4734 56.3704L43.7659 56.2425ZM45.8687 61.4489L45.5693 61.5597L45.5694 61.56L45.8687 61.4489ZM47.4832 66.1803L47.788 66.0853L47.7879 66.085L47.4832 66.1803ZM48.198 68.576L47.891 68.6635L47.891 68.6637L48.198 68.576ZM48.281 70.5099L48.5375 70.7L48.5381 70.6992L48.281 70.5099ZM48.1488 70.5814L48.1074 70.2648L47.9172 70.2897L47.8499 70.4693L48.1488 70.5814ZM48.1164 70.657L48.3977 70.8079L48.3978 70.8078L48.1164 70.657ZM47.8608 70.9334L48.0155 71.2127L48.0157 71.2126L47.8608 70.9334ZM44.0581 72.6358L43.9507 72.3352L43.9507 72.3352L44.0581 72.6358ZM38.3295 74.6556L38.2234 74.3545L37.9223 74.4606L38.0284 74.7617L38.3295 74.6556ZM38.3425 74.6924L38.4486 74.9935L38.7497 74.8874L38.6436 74.5863L38.3425 74.6924ZM34.4059 76.0796L34.511 76.381L34.512 76.3807L34.4059 76.0796ZM27.8176 77.8224L27.7761 77.5059L27.7759 77.5059L27.8176 77.8224ZM25.2314 78.4138L25.2999 78.7256L25.3 78.7256L25.2314 78.4138ZM25.1607 78.4159L25.1929 78.0983L25.1337 78.0923L25.0762 78.1081L25.1607 78.4159ZM24.8218 78.4971L24.8771 78.8116L24.8825 78.8105L24.8218 78.4971ZM24.6022 78.3529L24.2938 78.4354L24.2945 78.4382L24.6022 78.3529ZM23.5796 74.5374L23.4735 74.2362L23.1949 74.3345L23.2712 74.6199L23.5796 74.5374ZM23.5806 74.537L23.6867 74.8381L23.965 74.7401L23.8891 74.4549L23.5806 74.537ZM23.5722 74.4841L23.8912 74.4713L23.8797 74.1831L23.5918 74.1654L23.5722 74.4841ZM23.4018 74.3443L23.0956 74.4345L23.0956 74.4345L23.4018 74.3443ZM21.7491 68.9285L22.0536 68.8324L22.0536 68.8323L21.7491 68.9285ZM18.5379 59.3455L18.8388 59.2389V59.2389L18.5379 59.3455ZM14.9978 49.8784L14.7008 49.9955L14.7008 49.9955L14.9978 49.8784ZM14.9986 49.7218L15.2873 49.8581L15.3476 49.7303L15.2935 49.5996L14.9986 49.7218ZM14.3772 48.2199L14.6721 48.0977L14.672 48.0975L14.3772 48.2199ZM13.4222 45.9213L13.7194 45.8048L13.7115 45.7846L13.701 45.7657L13.4222 45.9213ZM13.4041 45.8759L13.0946 45.954L13.0946 45.9543L13.4041 45.8759ZM13.4025 45.8713L13.7121 45.7932L13.7072 45.7739L13.7 45.7554L13.4025 45.8713ZM12.9951 44.7444L12.6913 44.8427L12.6913 44.8428L12.9951 44.7444ZM12.4886 41.3621L12.8078 41.3684L12.8083 41.3407L12.8041 41.3132L12.4886 41.3621ZM12.4082 40.8282L12.7242 40.7828L12.7184 40.7425L12.7027 40.705L12.4082 40.8282ZM11.1706 37.0988L10.8607 37.1755L10.8608 37.1761L11.1706 37.0988ZM11.2458 36.8714L11.451 37.1159L11.5771 37.0102L11.564 36.8461L11.2458 36.8714ZM11.2403 36.7325L11.5596 36.7363L11.5596 36.7347L11.2403 36.7325ZM11.2519 36.6508L11.5517 36.7604L11.5849 36.6698L11.5623 36.576L11.2519 36.6508ZM8.97527 28.7886L8.68139 28.9134L8.68166 28.914L8.97527 28.7886ZM9.04109 28.5552L9.22357 28.8172L9.42083 28.6798L9.34328 28.4522L9.04109 28.5552ZM8.10311 25.4233L7.802 25.5294L7.80636 25.5418L7.81171 25.5537L8.10311 25.4233ZM8.09759 25.4077L8.23548 25.1197L7.54032 24.7868L7.79649 25.5138L8.09759 25.4077ZM8.10236 25.4153L7.93376 25.1442L7.64477 25.3239L7.84255 25.6008L8.10236 25.4153ZM9.61292 29.0878L9.3084 29.1837L9.30862 29.1844L9.61292 29.0878ZM9.62487 29.2276L9.30607 29.2105L9.30237 29.28L9.32788 29.3447L9.62487 29.2276ZM10.3389 31.2891L10.0333 31.3815L10.0334 31.3817L10.3389 31.2891ZM12.7603 40.4525L12.4577 40.5541L12.478 40.6147L12.5202 40.6628L12.7603 40.4525ZM12.812 40.5668L13.1282 40.5229L13.1282 40.5226L12.812 40.5668ZM12.8202 40.6281L12.504 40.6724L12.5082 40.7028L12.5182 40.7318L12.8202 40.6281ZM12.9287 40.9419L12.628 41.0493L12.6281 41.0494L12.9287 40.9419ZM12.8954 41.1442L12.6555 40.9335L12.5575 41.0451L12.5797 41.1918L12.8954 41.1442ZM12.9002 41.1756L12.5846 41.2235L12.5919 41.272L12.6135 41.3161L12.9002 41.1756ZM12.9239 41.2428L13.237 41.1806L13.237 41.1805L12.9239 41.2428ZM13.801 45.6563L13.4879 45.7186L13.4908 45.7334L13.4951 45.7478L13.801 45.6563ZM13.8511 45.8074L13.5571 45.9318L13.5573 45.9323L13.8511 45.8074ZM14.0349 46.2583L13.7366 46.3726L13.7397 46.38L14.0349 46.2583ZM14.1879 46.631L14.4828 46.5086V46.5086L14.1879 46.631ZM15.5907 50.0123L15.8858 49.8906L15.8855 49.8898L15.5907 50.0123ZM15.5828 50.1838L15.3082 50.0209L15.2286 50.1551L15.2856 50.3005L15.5828 50.1838ZM17.4335 55.0214L17.1342 55.1326L17.1343 55.1327L17.4335 55.0214ZM20.79 64.5553L21.0929 64.4545V64.4545L20.79 64.5553ZM23.8126 74.1995L24.1189 74.1093L24.1189 74.1092L23.8126 74.1995ZM23.8218 74.2491L23.5035 74.2735L23.5251 74.5551L23.8072 74.568L23.8218 74.2491ZM23.9914 74.3923L23.6829 74.4745L23.683 74.4748L23.9914 74.3923ZM24.9208 77.8585L24.6124 77.9411L24.7815 78.5725L25.1756 78.051L24.9208 77.8585ZM24.9706 77.8089L24.7852 77.549L24.7849 77.5492L24.9706 77.8089ZM25.4435 77.6464L25.4575 77.9653L25.5192 77.9626L25.5755 77.9371L25.4435 77.6464ZM28.0276 76.9139L28.0636 77.2311L28.0637 77.2311L28.0276 76.9139ZM37.8324 74.0179L37.7268 73.7166L37.7263 73.7168L37.8324 74.0179ZM46.8399 71.0395L46.9257 71.347L46.9258 71.347L46.8399 71.0395ZM47.6929 70.36L47.9975 70.4553L47.9976 70.4553L47.6929 70.36ZM47.8056 70.0686L48.0821 70.2281L48.1485 70.113L48.1136 69.9849L47.8056 70.0686ZM46.3267 65.1786L46.0241 65.2801L46.0241 65.2802L46.3267 65.1786ZM43.4638 57.783L43.756 57.6544L43.6715 57.4623L43.4617 57.4637L43.4638 57.783ZM43.3121 57.6873L43.029 57.8349L43.0291 57.835L43.3121 57.6873ZM42.3136 55.2829L42.618 55.1865L42.6111 55.1647L42.6011 55.1441L42.3136 55.2829ZM40.5428 51.7445L40.2581 51.8888L40.2581 51.8888L40.5428 51.7445ZM38.6971 47.2561L39.0054 47.1729L39.0052 47.1725L38.6971 47.2561ZM38.7795 47.0169L38.9602 47.2801L39.1596 47.1432L39.0818 46.9142L38.7795 47.0169ZM38.6248 46.5278L38.5187 46.2267L38.2328 46.3274L38.3186 46.6181L38.6248 46.5278ZM38.6257 46.5275L38.7318 46.8286L39.017 46.7281L38.9321 46.4378L38.6257 46.5275ZM38.6206 46.4982L38.9355 46.4458L38.9303 46.4148L38.9192 46.3853L38.6206 46.4982ZM38.5773 46.3871L38.8759 46.2741L38.8547 46.2182L38.8147 46.1737L38.5773 46.3871ZM38.3225 46.1342L38.1118 46.374L38.112 46.3742L38.3225 46.1342ZM38.3519 45.7915L38.5374 46.0513L38.7379 45.9082L38.6502 45.6779L38.3519 45.7915ZM35.6362 38.2259L35.3309 38.3195L35.3309 38.3195L35.6362 38.2259ZM33.2458 33.1291L33.5068 32.9452L33.5067 32.9451L33.2458 33.1291ZM31.8316 29.6742L31.5151 29.7165L31.5152 29.7168L31.8316 29.6742ZM31.2876 27.8779L30.9949 28.0052L30.995 28.0055L31.2876 27.8779ZM29.204 22.2235L29.5087 22.1282L29.5085 22.1276L29.204 22.2235ZM27.7941 21.1196L27.7273 21.4318L27.7275 21.4319L27.7941 21.1196ZM25.5341 20.9355L25.5542 21.2541L25.5545 21.2541L25.5341 20.9355ZM21.7464 21.1644L21.7388 20.8452L21.7387 20.8452L21.7464 21.1644ZM19.8212 20.1468L19.5537 20.3211L19.5538 20.3211L19.8212 20.1468ZM18.6417 17.393L18.3269 17.4467L18.327 17.4469L18.6417 17.393ZM18.0039 13.6821L17.6848 13.6909L17.6848 13.6909L18.0039 13.6821ZM17.7075 12.6L17.4102 12.7164L17.4103 12.7165L17.7075 12.6ZM16.0564 11.2466L16.0999 10.9303L16.0998 10.9303L16.0564 11.2466ZM12.5035 12.2418L12.6935 12.4983L12.6938 12.4982L12.5035 12.2418ZM12.2318 12.9163L11.9128 12.9039L11.9127 12.9056L12.2318 12.9163ZM12.3617 14.0282L12.0581 14.127L12.0582 14.1273L12.3617 14.0282ZM13.7167 17.9471L14.0178 17.8409L14.0177 17.8406L13.7167 17.9471ZM13.9275 18.6069L13.6167 18.6797L13.6435 18.794L13.7379 18.8637L13.9275 18.6069ZM14.0104 18.7599L14.3293 18.7759L14.3294 18.7741L14.0104 18.7599ZM13.7988 20.2044L13.4881 20.1308L13.4879 20.1316L13.7988 20.2044ZM13.7422 20.6902L13.4235 20.7098L13.4307 20.8258L13.5107 20.9101L13.7422 20.6902ZM14.2089 21.2154L13.9573 21.4119L13.9575 21.4121L14.2089 21.2154ZM14.1494 22.5627L13.9117 22.3496L13.9114 22.3499L14.1494 22.5627ZM13.6508 23.1018L13.8202 23.3725L13.8205 23.3723L13.6508 23.1018ZM9.85394 25.4172L10.0164 25.692L10.0168 25.6918L9.85394 25.4172ZM11.459 23.1287L11.6147 23.4074L11.6148 23.4074L11.459 23.1287ZM13.1978 21.7632L12.9964 21.5155L12.9961 21.5157L13.1978 21.7632ZM13.4985 21.3974L13.7812 21.5458L13.8501 21.4146L13.7944 21.2773L13.4985 21.3974ZM13.3401 20.2573L13.0273 20.1936V20.1936L13.3401 20.2573ZM13.5748 18.7902L13.256 18.7734L13.256 18.7745L13.5748 18.7902ZM13.5955 18.6959L13.8927 18.8125L13.9256 18.7286L13.9098 18.6399L13.5955 18.6959ZM13.3958 17.8531L13.7002 17.7569L13.7002 17.7568L13.3958 17.8531ZM11.3094 12.1997L11.5953 12.0576L11.5951 12.0574L11.3094 12.1997ZM10.966 9.6473L10.6534 9.58251L10.6533 9.58267L10.966 9.6473ZM10.8695 8.5392L10.5564 8.60113L10.5565 8.60184L10.8695 8.5392ZM42.6273 54.842L42.3208 54.9312L42.3573 55.0568L42.4715 55.1207L42.6273 54.842ZM42.6545 54.8604L42.4513 55.1067L42.9364 54.7105L42.6545 54.8604ZM42.6063 54.7707L42.8882 54.6208L42.2993 54.8583L42.6063 54.7707ZM13.8087 6.83668L14.0647 6.64591L14.0631 6.64386L13.8087 6.83668ZM12.185 6.73063L11.9545 6.50982L11.9542 6.5101L12.185 6.73063ZM11.9112 8.06031L11.6247 8.20123L11.625 8.20174L11.9112 8.06031ZM12.6081 9.33576L12.333 9.49767L12.3332 9.49815L12.6081 9.33576ZM14.1714 9.44964L13.9586 9.21159L13.9585 9.21173L14.1714 9.44964ZM14.5309 8.49252L14.8419 8.42047L14.8418 8.41976L14.5309 8.49252ZM14.4345 8.05435L14.1792 7.86267L14.0909 7.9803L14.1229 8.12387L14.4345 8.05435ZM14.4366 8.05153L14.6919 8.24321L14.807 8.08988L14.7258 7.91621L14.4366 8.05153ZM14.0066 7.14278L14.2928 7.00129L14.2927 7.00107L14.0066 7.14278ZM10.3934 6.33896L10.711 6.30566C10.672 5.93377 10.8666 5.50997 11.2051 5.16071C11.5468 4.80827 11.9597 4.60933 12.2502 4.60999L12.2509 4.29074L12.2516 3.97148C11.7237 3.97028 11.1555 4.29458 10.7467 4.71629C10.3348 5.14117 10.0099 5.74242 10.0759 6.37227L10.3934 6.33896ZM12.2509 4.29074L12.2502 4.60999C12.7001 4.61105 13.0808 4.6844 13.3942 4.8421C13.7029 4.99743 13.9643 5.24343 14.1665 5.62259L14.4482 5.47235L14.7299 5.32211C14.4692 4.83334 14.1143 4.48967 13.6812 4.27173C13.2529 4.05618 12.7663 3.97269 12.2517 3.97148L12.2509 4.29074ZM14.4482 5.47235L14.1665 5.62259C14.3964 6.05354 14.5672 6.49593 14.7843 6.97473L15.0751 6.84288L15.3659 6.71104C15.1685 6.27587 14.9719 5.77574 14.7299 5.3221L14.4482 5.47235ZM15.0751 6.84288L14.7842 6.97437C15.0104 7.47496 15.324 7.92505 15.8157 8.26524L15.9974 8.00268L16.179 7.74013C15.8077 7.48329 15.559 7.13832 15.366 6.71139L15.0751 6.84288ZM15.9974 8.00268L15.8151 8.26478C16.4261 8.68979 17.0177 9.14408 17.6177 9.60211L17.8114 9.34835L18.0051 9.09458C17.4085 8.63915 16.8048 8.17537 16.1797 7.74059L15.9974 8.00268ZM17.8114 9.34835L17.6172 9.60172C17.7415 9.69705 17.8019 9.83013 17.7917 9.99819L18.1104 10.0175L18.429 10.0368C18.4514 9.66806 18.3071 9.32609 18.0056 9.09498L17.8114 9.34835ZM18.1104 10.0175L17.7917 9.99789C17.7278 11.037 17.8003 12.068 18.1811 13.0885L18.4802 12.9769L18.7793 12.8653C18.4399 11.9556 18.3685 11.0212 18.429 10.0371L18.1104 10.0175ZM18.4802 12.9769L18.1811 13.0886C18.3966 13.6653 18.5783 14.2508 18.5999 14.8102L18.9189 14.7978L19.238 14.7855C19.2122 14.1181 18.9985 13.452 18.7793 12.8651L18.4802 12.9769ZM18.9189 14.7978L18.5999 14.8099C18.6571 16.3287 19.3132 17.6124 19.9305 18.8356L20.2155 18.6918L20.5005 18.5479C19.873 17.3045 19.2891 16.1433 19.238 14.7858L18.9189 14.7978ZM20.2155 18.6918L19.9309 18.8363C20.0615 19.0936 20.3529 19.3159 20.6205 19.4606C20.888 19.6053 21.238 19.7302 21.5354 19.6924L21.4951 19.3757L21.4548 19.059C21.3587 19.0712 21.1552 19.024 20.9243 18.899C20.6936 18.7742 20.542 18.6295 20.5002 18.5472L20.2155 18.6918ZM21.4951 19.3757L21.5356 19.6924C21.8582 19.6511 22.1875 19.5838 22.4866 19.5314C22.7941 19.4775 23.0844 19.4364 23.3694 19.4348L23.3676 19.1155L23.3658 18.7963C23.0255 18.7982 22.6925 18.8471 22.3765 18.9024C22.0522 18.9592 21.7579 19.0202 21.4545 19.059L21.4951 19.3757ZM23.3676 19.1155L23.3698 19.4348C25.0277 19.4233 26.6424 19.3481 28.2497 19.5407L28.2877 19.2238L28.3257 18.9068C26.6659 18.7078 24.9887 18.785 23.3654 18.7963L23.3676 19.1155ZM28.2877 19.2238L28.2501 19.5408C28.5311 19.5742 28.7573 19.7423 28.8167 19.9692L29.1256 19.8884L29.4344 19.8075C29.2896 19.254 28.7836 18.9612 28.3254 18.9067L28.2877 19.2238ZM29.1256 19.8884L28.8168 19.9696C29.0995 21.0438 29.5349 22.0429 30.0078 23.0077C30.4892 23.99 30.9861 24.8929 31.4403 25.8615L31.7293 25.7259L32.0184 25.5903C31.5682 24.6305 31.038 23.6589 30.5811 22.7267C30.1156 21.7769 29.7013 20.8215 29.4343 19.8071L29.1256 19.8884ZM31.7293 25.7259L31.4403 25.8615C32.1391 27.3506 32.9447 28.7924 33.7781 30.2022L34.053 30.0397L34.3278 29.8772C33.499 28.4754 32.7048 27.0531 32.0184 25.5903L31.7293 25.7259ZM34.053 30.0397L33.7781 30.2021C34.734 31.8197 35.3479 33.5391 35.5555 35.3836L35.8728 35.3479L36.19 35.3122C35.9713 33.3692 35.3247 31.5643 34.3278 29.8773L34.053 30.0397ZM35.8728 35.3479L35.5555 35.3835C35.7019 36.6911 36.0806 37.8999 36.5763 39.0851L36.8709 38.9619L37.1654 38.8387C36.6845 37.689 36.3276 36.5411 36.19 35.3124L35.8728 35.3479ZM36.8709 38.9619L36.5763 39.085C37.3001 40.817 37.9421 42.5602 38.3101 44.391L38.6231 44.3281L38.9361 44.2652C38.5557 42.373 37.895 40.5845 37.1654 38.8388L36.8709 38.9619ZM38.6231 44.3281L38.3101 44.3912C38.3945 44.8097 38.5186 45.2155 38.6467 45.6081C38.7765 46.006 38.9079 46.3829 39.0181 46.7693L39.3251 46.6817L39.6321 46.5941C39.5175 46.1923 39.3783 45.792 39.2537 45.41C39.1273 45.0226 39.0128 44.6457 38.9361 44.2651L38.6231 44.3281ZM39.3251 46.6817L39.0492 46.8423C39.2928 47.261 39.4416 47.7315 39.476 48.2153L39.7944 48.1927L40.1129 48.1701C40.0713 47.5859 39.8921 47.0213 39.6011 46.5212L39.3251 46.6817ZM39.7944 48.1927L39.5149 48.3469C40.2464 49.6731 40.9489 51.0145 41.6178 52.3729L41.9042 52.2318L42.1907 52.0908C41.517 50.723 40.8099 49.3727 40.074 48.0385L39.7944 48.1927ZM41.9042 52.2318L41.6179 52.373C41.9525 53.0517 42.2783 53.7353 42.597 54.4222L42.8866 54.2878L43.1762 54.1535C42.8556 53.4626 42.5277 52.7744 42.1906 52.0907L41.9042 52.2318ZM42.8866 54.2878L42.6169 54.4587C42.9624 55.0042 43.2553 55.5821 43.4902 56.185L43.7876 56.0691L44.0851 55.9532C43.8352 55.3116 43.5236 54.6969 43.1563 54.117L42.8866 54.2878ZM43.7876 56.0691L43.4898 56.1841C43.4817 56.163 43.4786 56.1372 43.4826 56.1118C43.4862 56.0887 43.4942 56.0747 43.497 56.0703L43.7659 56.2425L44.0348 56.4146C44.1065 56.3026 44.1558 56.1364 44.0855 55.9542L43.7876 56.0691ZM43.7659 56.2425L43.4734 56.3704C44.2212 58.0801 44.9219 59.8101 45.5693 61.5597L45.8687 61.4489L46.1682 61.3381C45.5162 59.5764 44.8108 57.835 44.0584 56.1145L43.7659 56.2425ZM45.8687 61.4489L45.5694 61.56C46.1469 63.1161 46.6828 64.6902 47.1785 66.2756L47.4832 66.1803L47.7879 66.085C47.289 64.4894 46.7496 62.9048 46.168 61.3378L45.8687 61.4489ZM47.4832 66.1803L47.1784 66.2753C47.4257 67.0684 47.6633 67.8651 47.891 68.6635L48.198 68.576L48.505 68.4885C48.276 67.685 48.0368 66.8833 47.788 66.0853L47.4832 66.1803ZM48.198 68.576L47.891 68.6637C47.9864 68.9975 48.0983 69.2918 48.1461 69.6026C48.1916 69.8982 48.1631 70.1315 48.0239 70.3206L48.281 70.5099L48.5381 70.6992C48.8196 70.3169 48.8354 69.8837 48.7772 69.5054C48.7213 69.1423 48.5813 68.7554 48.505 68.4883L48.198 68.576ZM48.281 70.5099L48.0245 70.3199C48.0587 70.2736 48.101 70.2656 48.1074 70.2648L48.1488 70.5814L48.1902 70.8979C48.2993 70.8836 48.4391 70.8328 48.5375 70.7L48.281 70.5099ZM48.1488 70.5814L47.8499 70.4693C47.845 70.4823 47.8419 70.4904 47.839 70.4972C47.8377 70.5003 47.8368 70.5025 47.836 70.5041C47.8353 70.5056 47.835 70.5062 47.835 70.5061L48.1164 70.657L48.3978 70.8078C48.422 70.7626 48.4386 70.7178 48.4477 70.6934L48.1488 70.5814ZM48.1164 70.657L47.8351 70.506C47.7961 70.5787 47.7415 70.6345 47.7059 70.6543L47.8608 70.9334L48.0157 71.2126C48.1912 71.1152 48.3215 70.95 48.3977 70.8079L48.1164 70.657ZM47.8608 70.9334L47.706 70.6542C46.5044 71.3201 45.2483 71.8719 43.9507 72.3352L44.0581 72.6358L44.1654 72.9365C45.4913 72.4631 46.7797 71.8976 48.0155 71.2127L47.8608 70.9334ZM44.0581 72.6358L43.9507 72.3352C42.0448 73.0159 40.1345 73.681 38.2234 74.3545L38.3295 74.6556L38.4356 74.9567C40.3435 74.2843 42.258 73.6178 44.1655 72.9365L44.0581 72.6358ZM38.3295 74.6556L38.0284 74.7617L38.0413 74.7985L38.3425 74.6924L38.6436 74.5863L38.6306 74.5495L38.3295 74.6556ZM38.3425 74.6924L38.2363 74.3913L34.2998 75.7785L34.4059 76.0796L34.512 76.3807L38.4486 74.9935L38.3425 74.6924ZM34.4059 76.0796L34.3007 75.7782C32.1514 76.5279 30.015 77.2118 27.7761 77.5059L27.8176 77.8224L27.8592 78.1389C30.168 77.8357 32.3573 77.1324 34.511 76.381L34.4059 76.0796ZM27.8176 77.8224L27.7759 77.5059C27.3202 77.566 26.8749 77.6702 26.4425 77.7807C26.0043 77.8926 25.5882 78.0085 25.1629 78.102L25.2314 78.4138L25.3 78.7256C25.7392 78.629 26.1799 78.5068 26.6006 78.3993C27.027 78.2904 27.4425 78.1939 27.8594 78.1389L27.8176 77.8224ZM25.2314 78.4138L25.163 78.102C25.1762 78.0991 25.1859 78.0985 25.1904 78.0984C25.1949 78.0983 25.1961 78.0986 25.1929 78.0983L25.1607 78.4159L25.1286 78.7336C25.1706 78.7378 25.232 78.7405 25.2999 78.7256L25.2314 78.4138ZM25.1607 78.4159L25.0762 78.1081C24.9692 78.1375 24.8649 78.1635 24.761 78.1837L24.8218 78.4971L24.8825 78.8105C25.0084 78.7861 25.1298 78.7555 25.2452 78.7238L25.1607 78.4159ZM24.8218 78.4971L24.7664 78.1827C24.7999 78.1768 24.8253 78.1813 24.839 78.1851C24.8529 78.1889 24.8615 78.1939 24.8663 78.1971C24.8711 78.2004 24.877 78.2053 24.8836 78.2136C24.8898 78.2213 24.9018 78.2388 24.9098 78.2676L24.6022 78.3529L24.2945 78.4382C24.3316 78.5719 24.4239 78.6687 24.5085 78.726C24.5932 78.7832 24.7258 78.8381 24.8771 78.8115L24.8218 78.4971ZM24.6022 78.3529L24.9106 78.2703C24.7404 77.6345 24.5698 76.9984 24.3993 76.3624C24.2287 75.7264 24.0582 75.0905 23.888 74.4548L23.5796 74.5374L23.2712 74.6199C23.4414 75.2557 23.612 75.8918 23.7825 76.5278C23.9531 77.1638 24.1236 77.7997 24.2938 78.4354L24.6022 78.3529ZM23.5796 74.5374L23.6857 74.8385L23.6867 74.8381L23.5806 74.537L23.4745 74.2359L23.4735 74.2362L23.5796 74.5374ZM23.5806 74.537L23.8891 74.4549C23.8897 74.4571 23.8909 74.4624 23.8912 74.4713L23.5722 74.4841L23.2532 74.4968C23.255 74.5395 23.2618 74.5807 23.2721 74.6192L23.5806 74.537ZM23.5722 74.4841L23.5918 74.1654C23.6078 74.1664 23.6349 74.1723 23.6625 74.1932C23.6919 74.2155 23.7044 74.2417 23.7081 74.254L23.4018 74.3443L23.0956 74.4345C23.1648 74.6692 23.3575 74.7907 23.5527 74.8027L23.5722 74.4841ZM23.4018 74.3443L23.7081 74.254C23.1739 72.4407 22.622 70.6336 22.0536 68.8324L21.7491 68.9285L21.4447 69.0245C22.0119 70.8219 22.5626 72.6251 23.0956 74.4345L23.4018 74.3443ZM21.7491 68.9285L22.0536 68.8323C21.0375 65.6165 19.9655 62.4186 18.8388 59.2389L18.5379 59.3455L18.237 59.4521C19.3612 62.625 20.4309 65.816 21.4447 69.0246L21.7491 68.9285ZM18.5379 59.3455L18.8388 59.2389C17.7122 56.0592 16.5317 52.8994 15.2949 49.7614L14.9978 49.8784L14.7008 49.9955C15.9349 53.1264 17.1127 56.2793 18.237 59.4521L18.5379 59.3455ZM14.9978 49.8784L15.2949 49.7614C15.2973 49.7676 15.3013 49.7812 15.3009 49.8006C15.3005 49.8202 15.2958 49.8401 15.2873 49.8581L14.9986 49.7218L14.7099 49.5855C14.649 49.7144 14.6474 49.8598 14.7008 49.9955L14.9978 49.8784ZM14.9986 49.7218L15.2935 49.5996C15.0885 49.1049 14.8773 48.5927 14.6721 48.0977L14.3772 48.2199L14.0822 48.3422C14.2915 48.8472 14.4939 49.338 14.7036 49.844L14.9986 49.7218ZM14.3772 48.2199L14.672 48.0975C14.3511 47.325 14.0209 46.574 13.7194 45.8048L13.4222 45.9213L13.125 46.0378C13.4292 46.814 13.7685 47.5869 14.0823 48.3424L14.3772 48.2199ZM13.4222 45.9213L13.701 45.7657C13.7062 45.775 13.7106 45.7856 13.7136 45.7975L13.4041 45.8759L13.0946 45.9543C13.1061 45.9995 13.1231 46.0406 13.1434 46.0769L13.4222 45.9213ZM13.4041 45.8759L13.7137 45.7978C13.7101 45.7835 13.7062 45.7721 13.7036 45.7652C13.7023 45.7617 13.7012 45.7588 13.7005 45.757C13.7002 45.7561 13.6999 45.7553 13.6997 45.7548C13.6995 45.7544 13.6993 45.754 13.6993 45.7539C13.6991 45.7535 13.6996 45.7546 13.7001 45.7559C13.7006 45.7573 13.7016 45.7598 13.7027 45.7629C13.705 45.7691 13.7086 45.7797 13.7121 45.7932L13.4025 45.8713L13.0929 45.9494C13.0966 45.9637 13.1005 45.9751 13.103 45.982C13.1043 45.9855 13.1054 45.9884 13.1061 45.9902C13.1065 45.9911 13.1068 45.9918 13.107 45.9923C13.1071 45.9928 13.1073 45.9932 13.1073 45.9933C13.1075 45.9937 13.1071 45.9926 13.1066 45.9913C13.106 45.9899 13.105 45.9874 13.1039 45.9843C13.1016 45.9781 13.098 45.9675 13.0946 45.954L13.4041 45.8759ZM13.4025 45.8713L13.7 45.7554C13.5559 45.3856 13.419 45.0173 13.2988 44.6461L12.9951 44.7444L12.6913 44.8428C12.8169 45.2308 12.9588 45.6119 13.105 45.9872L13.4025 45.8713ZM12.9951 44.7444L13.2988 44.6461C12.956 43.5864 12.7856 42.4806 12.8078 41.3684L12.4886 41.3621L12.1694 41.3557C12.1457 42.5417 12.3275 43.7181 12.6913 44.8427L12.9951 44.7444ZM12.4886 41.3621L12.8041 41.3132C12.7766 41.1355 12.7495 40.9591 12.7242 40.7828L12.4082 40.8282L12.0921 40.8736C12.118 41.0536 12.1455 41.2329 12.1731 41.4109L12.4886 41.3621ZM12.4082 40.8282L12.7027 40.705C12.2029 39.5101 11.7941 38.2784 11.4803 37.0215L11.1706 37.0988L10.8608 37.1761C11.1824 38.4643 11.6014 39.7268 12.1136 40.9514L12.4082 40.8282ZM11.1706 37.0988L11.4805 37.0221C11.4838 37.0353 11.4841 37.0565 11.476 37.0786C11.4687 37.0985 11.4578 37.1102 11.451 37.1159L11.2458 36.8714L11.0405 36.6269C10.9012 36.7438 10.8032 36.9432 10.8607 37.1755L11.1706 37.0988ZM11.2458 36.8714L11.564 36.8461C11.5608 36.8056 11.5592 36.7695 11.5595 36.7363L11.2403 36.7325L10.9211 36.7287C10.9204 36.7877 10.9234 36.8445 10.9275 36.8967L11.2458 36.8714ZM11.2403 36.7325L11.5596 36.7347C11.5596 36.7289 11.56 36.7282 11.5595 36.7316C11.559 36.7347 11.5573 36.7452 11.5517 36.7604L11.2519 36.6508L10.9521 36.5411C10.9278 36.6075 10.9215 36.6745 10.9211 36.7303L11.2403 36.7325ZM11.2519 36.6508L11.5623 36.576C10.9259 33.9338 10.3592 31.2167 9.26888 28.6633L8.97527 28.7886L8.68166 28.914C9.74532 31.4051 10.2982 34.0542 10.9415 36.7255L11.2519 36.6508ZM8.97527 28.7886L9.26915 28.6639C9.27505 28.6778 9.28247 28.7119 9.26882 28.7528C9.25659 28.7895 9.23494 28.8093 9.22357 28.8172L9.04109 28.5552L8.85861 28.2933C8.77789 28.3495 8.70171 28.435 8.66309 28.5509C8.62306 28.671 8.63224 28.7976 8.68139 28.9134L8.97527 28.7886ZM9.04109 28.5552L9.34328 28.4522C9.17294 27.9524 9.05527 27.4392 8.91835 26.9007C8.78333 26.3696 8.63124 25.8218 8.39451 25.2929L8.10311 25.4233L7.81171 25.5537C8.02459 26.0294 8.1658 26.532 8.29953 27.058C8.43135 27.5765 8.55787 28.127 8.7389 28.6582L9.04109 28.5552ZM8.10311 25.4233L8.40422 25.3172L8.3987 25.3016L8.09759 25.4077L7.79649 25.5138L7.802 25.5294L8.10311 25.4233ZM8.09759 25.4077L7.95971 25.6956L7.96967 25.7004L8.10756 25.4124L8.24544 25.1245L8.23548 25.1197L8.09759 25.4077ZM8.10756 25.4124L7.93883 25.1414C7.94541 25.1373 7.95081 25.1343 7.95391 25.1326C7.95671 25.1311 7.95907 25.1299 7.95818 25.1304C7.95808 25.1304 7.95717 25.1309 7.95614 25.1314C7.95504 25.132 7.95336 25.1329 7.95135 25.134C7.9474 25.1361 7.94117 25.1396 7.93376 25.1442L8.10236 25.4153L8.27095 25.6864C8.26438 25.6905 8.25901 25.6935 8.25593 25.6951C8.25316 25.6967 8.25081 25.6979 8.25174 25.6974C8.25185 25.6973 8.25277 25.6968 8.2538 25.6963C8.25492 25.6957 8.25661 25.6948 8.25863 25.6937C8.26261 25.6916 8.26886 25.6881 8.27629 25.6835L8.10756 25.4124ZM8.10236 25.4153L7.84255 25.6008C8.59475 26.6541 8.90041 27.8878 9.3084 29.1837L9.61292 29.0878L9.91744 28.992C9.5273 27.7527 9.18929 26.3879 8.36216 25.2298L8.10236 25.4153ZM9.61292 29.0878L9.30862 29.1844C9.30595 29.176 9.30619 29.1725 9.30652 29.1773C9.30688 29.1826 9.30704 29.1924 9.30607 29.2105L9.62487 29.2276L9.94368 29.2446C9.94675 29.187 9.94912 29.0918 9.91721 28.9913L9.61292 29.0878ZM9.62487 29.2276L9.32788 29.3447C9.59136 30.0127 9.82498 30.6931 10.0333 31.3815L10.3389 31.2891L10.6445 31.1966C10.4316 30.4932 10.1923 29.7962 9.92186 29.1104L9.62487 29.2276ZM10.3389 31.2891L10.0334 31.3817C10.4883 32.8824 10.8393 34.4123 11.2051 35.9542C11.57 37.4921 11.949 39.0395 12.4577 40.5541L12.7603 40.4525L13.063 40.3508C12.5645 38.8668 12.1913 37.3449 11.8264 35.8069C11.4625 34.2729 11.1064 32.7204 10.6444 31.1965L10.3389 31.2891ZM12.7603 40.4525L12.5202 40.6628C12.5145 40.6564 12.5088 40.648 12.5041 40.638C12.4994 40.6279 12.4969 40.6184 12.4958 40.611L12.812 40.5668L13.1282 40.5226C13.1125 40.4103 13.065 40.3158 13.0005 40.2421L12.7603 40.4525ZM12.812 40.5668L12.4958 40.6107C12.497 40.6191 12.4981 40.6279 12.4995 40.6385C12.5008 40.6486 12.5023 40.6604 12.504 40.6724L12.8202 40.6281L13.1363 40.5838C13.1352 40.5755 13.134 40.5668 13.1327 40.5564C13.1314 40.5465 13.1299 40.5347 13.1282 40.5229L12.812 40.5668ZM12.8202 40.6281L12.5182 40.7318C12.5533 40.834 12.5899 40.9426 12.628 41.0493L12.9287 40.9419L13.2293 40.8345C13.193 40.7328 13.1588 40.6314 13.1221 40.5245L12.8202 40.6281ZM12.9287 40.9419L12.6281 41.0494C12.6254 41.0419 12.6208 41.0219 12.6261 40.9946C12.6313 40.968 12.6434 40.9472 12.6555 40.9335L12.8954 41.1442L13.1353 41.3548C13.2537 41.22 13.2988 41.0289 13.2293 40.8344L12.9287 40.9419ZM12.8954 41.1442L12.5797 41.1918C12.5806 41.198 12.5816 41.204 12.5824 41.2092C12.5832 41.2146 12.5839 41.2191 12.5846 41.2235L12.9002 41.1756L13.2159 41.1277C13.2116 41.0998 13.2146 41.1203 13.211 41.0965L12.8954 41.1442ZM12.9002 41.1756L12.6135 41.3161C12.616 41.3211 12.613 41.3162 12.6108 41.3052L12.9239 41.2428L13.237 41.1805C13.2249 41.1195 13.2041 41.0702 13.1869 41.0351L12.9002 41.1756ZM12.9239 41.2428L12.6108 41.3051C12.9028 42.7734 13.1958 44.2501 13.4879 45.7186L13.801 45.6563L14.1141 45.5941C13.8212 44.1211 13.53 42.6536 13.237 41.1806L12.9239 41.2428ZM13.801 45.6563L13.4951 45.7478C13.5078 45.7902 13.5281 45.8632 13.5571 45.9318L13.8511 45.8074L14.1451 45.6831C14.1334 45.6552 14.125 45.6255 14.1068 45.5648L13.801 45.6563ZM13.8511 45.8074L13.5573 45.9323C13.6199 46.0795 13.6803 46.2252 13.7367 46.3725L14.0349 46.2583L14.333 46.1441C14.2726 45.9864 14.2088 45.8327 14.1449 45.6826L13.8511 45.8074ZM14.0349 46.2583L13.7397 46.38C13.7892 46.5 13.8417 46.6298 13.8931 46.7534L14.1879 46.631L14.4828 46.5086C14.4308 46.3834 14.3826 46.2643 14.33 46.1366L14.0349 46.2583ZM14.1879 46.631L13.8931 46.7534C14.1271 47.317 14.3607 47.8804 14.5944 48.4439C14.828 49.0074 15.0617 49.5709 15.2958 50.1347L15.5907 50.0123L15.8855 49.8898C15.6515 49.3262 15.4179 48.7628 15.1842 48.1993C14.9505 47.6359 14.7169 47.0723 14.4828 46.5086L14.1879 46.631ZM15.5907 50.0123L15.2955 50.1339C15.2922 50.1259 15.2871 50.1083 15.2888 50.0839C15.2905 50.0596 15.2982 50.0378 15.3082 50.0209L15.5828 50.1838L15.8573 50.3467C15.9371 50.2123 15.9507 50.0481 15.8858 49.8906L15.5907 50.0123ZM15.5828 50.1838L15.2856 50.3005C15.9157 51.9059 16.5337 53.5163 17.1342 55.1326L17.4335 55.0214L17.7328 54.9103C17.1307 53.2897 16.5113 51.6756 15.88 50.0672L15.5828 50.1838ZM17.4335 55.0214L17.1343 55.1327C18.3073 58.2869 19.4248 61.4627 20.4871 64.656L20.79 64.5553L21.0929 64.4545C20.0284 61.2542 18.9084 58.0714 17.7327 54.9102L17.4335 55.0214ZM20.79 64.5553L20.4871 64.656C21.5492 67.8491 22.5551 71.062 23.5064 74.2898L23.8126 74.1995L24.1189 74.1092C23.1656 70.8747 22.1574 67.6547 21.0929 64.4545L20.79 64.5553ZM23.8126 74.1995L23.5064 74.2897C23.5051 74.2852 23.504 74.2798 23.5035 74.2735L23.8218 74.2491L24.1401 74.2246C24.1372 74.1865 24.1302 74.1478 24.1189 74.1093L23.8126 74.1995ZM23.8218 74.2491L23.8072 74.568C23.7876 74.5671 23.7576 74.5601 23.7283 74.5373C23.6976 74.5132 23.6859 74.4858 23.6829 74.4745L23.9914 74.3923L24.2998 74.31C24.2711 74.2023 24.212 74.105 24.1217 74.0343C24.0328 73.9648 23.9309 73.9345 23.8364 73.9302L23.8218 74.2491ZM23.9914 74.3923L23.683 74.4748C23.992 75.6295 24.3033 76.7868 24.6124 77.9411L24.9208 77.8585L25.2292 77.7759C24.9195 76.6197 24.609 75.4653 24.2998 74.3097L23.9914 74.3923ZM24.9208 77.8585L25.1756 78.051C25.1757 78.0508 25.1693 78.0593 25.1564 78.0685L24.9706 77.8089L24.7849 77.5492C24.7305 77.5881 24.6924 77.6313 24.6661 77.6661L24.9208 77.8585ZM24.9706 77.8089L25.1561 78.0688C25.2456 78.0049 25.3507 77.97 25.4575 77.9653L25.4435 77.6464L25.4295 77.3274C25.2029 77.3374 24.978 77.4114 24.7852 77.549L24.9706 77.8089ZM25.4435 77.6464L25.5755 77.9371C26.3714 77.5757 27.2094 77.328 28.0636 77.2311L28.0276 76.9139L27.9916 76.5966C27.063 76.702 26.1605 76.9702 25.3115 77.3557L25.4435 77.6464ZM28.0276 76.9139L28.0637 77.2311C30.2618 76.9807 32.3283 76.296 34.3584 75.5806L34.2523 75.2795L34.1462 74.9784C32.1163 75.6937 30.1105 76.3553 27.9915 76.5967L28.0276 76.9139ZM34.2523 75.2795L34.3584 75.5806L37.9386 74.319L37.8324 74.0179L37.7263 73.7168L34.1462 74.9784L34.2523 75.2795ZM37.8324 74.0179L37.9381 74.3192C40.9282 73.2701 43.8888 72.1936 46.9257 71.347L46.8399 71.0395L46.7542 70.7319C43.6918 71.5856 40.7063 72.6713 37.7268 73.7166L37.8324 74.0179ZM46.8399 71.0395L46.9258 71.347C47.3312 71.2338 47.8308 70.9878 47.9975 70.4553L47.6929 70.36L47.3882 70.2646C47.3216 70.4772 47.1001 70.6354 46.7541 70.732L46.8399 71.0395ZM47.6929 70.36L47.9976 70.4553C48.0363 70.3314 48.0602 70.2661 48.0821 70.2281L47.8056 70.0686L47.529 69.9092C47.4659 70.0186 47.4231 70.153 47.3882 70.2646L47.6929 70.36ZM47.8056 70.0686L48.1136 69.9849C47.6656 68.336 47.1735 66.6984 46.6294 65.0771L46.3267 65.1786L46.0241 65.2802C46.5638 66.8887 47.0524 68.5143 47.4975 70.1523L47.8056 70.0686ZM46.3267 65.1786L46.6294 65.0771C45.7856 62.5612 44.8248 60.0835 43.756 57.6544L43.4638 57.783L43.1716 57.9115C44.2328 60.3233 45.1865 62.7829 46.0241 65.2801L46.3267 65.1786ZM43.4638 57.783L43.4617 57.4637C43.4804 57.4636 43.5098 57.4679 43.5406 57.4859C43.5723 57.5044 43.5889 57.5277 43.5951 57.5396L43.3121 57.6873L43.0291 57.835C43.1241 58.0172 43.2943 58.1033 43.4659 58.1022L43.4638 57.783ZM43.3121 57.6873L43.5952 57.5397C43.1999 56.7817 42.8743 55.9959 42.618 55.1865L42.3136 55.2829L42.0093 55.3793C42.2767 56.2238 42.6165 57.0438 43.029 57.8349L43.3121 57.6873ZM42.3136 55.2829L42.6011 55.1441C42.0249 53.9507 41.4199 52.7687 40.8276 51.6002L40.5428 51.7445L40.2581 51.8888C40.852 53.0607 41.4533 54.2354 42.0261 55.4217L42.3136 55.2829ZM40.5428 51.7445L40.8276 51.6002C40.0969 50.1587 39.4195 48.7074 39.0054 47.1729L38.6971 47.2561L38.3889 47.3393C38.821 48.9404 39.5238 50.4402 40.2581 51.8888L40.5428 51.7445ZM38.6971 47.2561L39.0052 47.1725C39.007 47.1791 39.01 47.2013 38.9991 47.2294C38.989 47.2552 38.9727 47.2715 38.9602 47.2801L38.7795 47.0169L38.5989 46.7536C38.4275 46.8713 38.3213 47.0901 38.389 47.3397L38.6971 47.2561ZM38.7795 47.0169L39.0818 46.9142C39.0284 46.7571 38.9783 46.5978 38.931 46.4375L38.6248 46.5278L38.3186 46.6181C38.368 46.7858 38.4208 46.9534 38.4772 47.1196L38.7795 47.0169ZM38.6248 46.5278L38.7309 46.8289L38.7318 46.8286L38.6257 46.5275L38.5196 46.2264L38.5187 46.2267L38.6248 46.5278ZM38.6257 46.5275L38.9321 46.4378C38.9345 46.446 38.936 46.4528 38.937 46.4575C38.9379 46.4621 38.9384 46.4653 38.9385 46.4659C38.9385 46.4663 38.9385 46.4663 38.9384 46.4656C38.9384 46.4653 38.9383 46.4649 38.9382 46.4643C38.9382 46.4638 38.9381 46.463 38.938 46.4622C38.9376 46.4593 38.9367 46.453 38.9355 46.4458L38.6206 46.4982L38.3057 46.5506C38.3052 46.5482 38.3051 46.5467 38.3053 46.5486C38.3054 46.5492 38.3061 46.5547 38.3069 46.5595C38.3084 46.5701 38.3118 46.5916 38.3193 46.6171L38.6257 46.5275ZM38.6206 46.4982L38.9192 46.3853C38.9112 46.3641 38.903 46.3434 38.8958 46.3253C38.8884 46.3064 38.8819 46.2901 38.8759 46.2741L38.5773 46.3871L38.2787 46.5002C38.2867 46.5213 38.2949 46.542 38.3021 46.5601C38.3095 46.5789 38.3159 46.5951 38.3219 46.6111L38.6206 46.4982ZM38.5773 46.3871L38.8147 46.1737C38.7277 46.0769 38.6342 45.983 38.533 45.8942L38.3225 46.1342L38.112 46.3742C38.1919 46.4443 38.2675 46.5201 38.3399 46.6006L38.5773 46.3871ZM38.3225 46.1342L38.5332 45.8944C38.54 45.9004 38.5525 45.9146 38.5608 45.938C38.5689 45.9607 38.5696 45.9825 38.5669 45.9994C38.5624 46.0285 38.549 46.043 38.5374 46.0513L38.3519 45.7915L38.1664 45.5317C38.0508 45.6141 37.9606 45.7454 37.9362 45.9C37.9097 46.0685 37.9657 46.2457 38.1118 46.374L38.3225 46.1342ZM38.3519 45.7915L38.6502 45.6779C37.6947 43.1687 36.7241 40.6839 35.9414 38.1323L35.6362 38.2259L35.3309 38.3195C36.1214 40.8962 37.1012 43.4046 38.0535 45.9051L38.3519 45.7915ZM35.6362 38.2259L35.9414 38.1324C35.3793 36.2987 34.632 34.5427 33.5068 32.9452L33.2458 33.1291L32.9848 33.3129C34.0594 34.8385 34.7816 36.5273 35.3309 38.3195L35.6362 38.2259ZM33.2458 33.1291L33.5067 32.9451C32.7977 31.9397 32.3129 30.8573 32.148 29.6316L31.8316 29.6742L31.5152 29.7168C31.6964 31.0635 32.2289 32.2411 32.9849 33.3131L33.2458 33.1291ZM31.8316 29.6742L32.148 29.6319C32.0605 28.9775 31.8347 28.3339 31.5803 27.7503L31.2876 27.8779L30.995 28.0055C31.2382 28.5632 31.4388 29.1454 31.5151 29.7165L31.8316 29.6742ZM31.2876 27.8779L31.5804 27.7505C30.7827 25.9166 30.1069 24.0389 29.5087 22.1282L29.204 22.2235L28.8993 22.3189C29.5028 24.2466 30.1863 26.1463 30.9949 28.0052L31.2876 27.8779ZM29.204 22.2235L29.5085 22.1276C29.2522 21.3141 28.564 20.9573 27.8606 20.8074L27.7941 21.1196L27.7275 21.4319C28.3259 21.5594 28.7426 21.8216 28.8995 22.3195L29.204 22.2235ZM27.7941 21.1196L27.8608 20.8074C27.0933 20.6433 26.311 20.5657 25.5136 20.6169L25.5341 20.9355L25.5545 21.2541C26.2835 21.2073 27.0064 21.2776 27.7273 21.4318L27.7941 21.1196ZM25.5341 20.9355L25.5139 20.6169C24.2381 20.6974 22.9951 20.8153 21.7388 20.8452L21.7464 21.1644L21.754 21.4835C23.0263 21.4533 24.3055 21.333 25.5542 21.2541L25.5341 20.9355ZM21.7464 21.1644L21.7387 20.8452C21.0506 20.8617 20.4647 20.5493 20.0886 19.9724L19.8212 20.1468L19.5538 20.3211C20.0491 21.0809 20.8419 21.5054 21.7541 21.4835L21.7464 21.1644ZM19.8212 20.1468L20.0887 19.9724C19.5502 19.1462 19.119 18.2894 18.9563 17.3391L18.6417 17.393L18.327 17.4469C18.5106 18.5191 18.9928 19.4605 19.5537 20.3211L19.8212 20.1468ZM18.6417 17.393L18.9564 17.3393C18.8497 16.714 18.6948 16.0837 18.5694 15.485C18.4419 14.8765 18.3398 14.28 18.323 13.6733L18.0039 13.6821L17.6848 13.6909C17.7031 14.355 17.8145 14.9957 17.9444 15.6159C18.0764 16.2459 18.2227 16.8356 18.3269 17.4467L18.6417 17.393ZM18.0039 13.6821L18.323 13.6733C18.3111 13.2415 18.1348 12.8151 18.0047 12.4834L17.7075 12.6L17.4103 12.7165C17.5527 13.0798 17.6766 13.3936 17.6848 13.6909L18.0039 13.6821ZM17.7075 12.6L18.0048 12.4836C17.8442 12.0734 17.6167 11.7159 17.2973 11.4437C16.9759 11.1697 16.5777 10.996 16.0999 10.9303L16.0564 11.2466L16.0129 11.5628C16.383 11.6138 16.6641 11.743 16.883 11.9296C17.104 12.1179 17.278 12.3788 17.4102 12.7164L17.7075 12.6ZM16.0564 11.2466L16.0998 10.9303C14.6664 10.7335 13.4174 11.1663 12.3133 11.9854L12.5035 12.2418L12.6938 12.4982C13.6917 11.7578 14.7765 11.3931 16.013 11.5629L16.0564 11.2466ZM12.5035 12.2418L12.3136 11.9852C12.156 12.1018 12.0625 12.2803 12.0078 12.4288C11.9504 12.5848 11.9186 12.7551 11.9128 12.9039L12.2318 12.9163L12.5508 12.9287C12.5541 12.8454 12.5733 12.7412 12.6071 12.6493C12.6436 12.55 12.6814 12.5073 12.6935 12.4983L12.5035 12.2418ZM12.2318 12.9163L11.9127 12.9056C11.8996 13.2966 11.9285 13.7292 12.0581 14.127L12.3617 14.0282L12.6652 13.9293C12.5673 13.6285 12.5391 13.2777 12.5509 12.927L12.2318 12.9163ZM12.3617 14.0282L12.0582 14.1273C12.4887 15.4455 12.9558 16.7526 13.4157 18.0535L13.7167 17.9471L14.0177 17.8406C13.5566 16.5365 13.0927 15.2381 12.6651 13.929L12.3617 14.0282ZM13.7167 17.9471L13.4156 18.0532C13.5157 18.337 13.5801 18.5237 13.6167 18.6797L13.9275 18.6069L14.2384 18.5341C14.1922 18.3372 14.1144 18.1148 14.0178 17.8409L13.7167 17.9471ZM13.9275 18.6069L13.7379 18.8637C13.7328 18.8599 13.722 18.8508 13.7116 18.8326C13.7004 18.8131 13.6898 18.7828 13.6915 18.7457L14.0104 18.7599L14.3294 18.7741C14.3383 18.5726 14.2215 18.4271 14.1171 18.35L13.9275 18.6069ZM14.0104 18.7599L13.6916 18.7439C13.6682 19.2116 13.5975 19.6688 13.4881 20.1308L13.7988 20.2044L14.1094 20.2779C14.2265 19.7836 14.3037 19.2875 14.3293 18.7759L14.0104 18.7599ZM13.7988 20.2044L13.4879 20.1316C13.4472 20.3056 13.4106 20.4985 13.4235 20.7098L13.7422 20.6902L14.0609 20.6707C14.0538 20.5548 14.0726 20.4354 14.1096 20.2772L13.7988 20.2044ZM13.7422 20.6902L13.5107 20.9101C13.6736 21.0816 13.8242 21.2415 13.9573 21.4119L14.2089 21.2154L14.4605 21.0189C14.3056 20.8206 14.1343 20.6394 13.9737 20.4704L13.7422 20.6902ZM14.2089 21.2154L13.9575 21.4121C14.041 21.5188 14.0903 21.6895 14.0801 21.8836C14.07 22.0777 14.0026 22.2482 13.9117 22.3496L14.1494 22.5627L14.3871 22.7758C14.5967 22.542 14.7019 22.2213 14.7178 21.9169C14.7337 21.6124 14.6625 21.277 14.4603 21.0186L14.2089 21.2154ZM14.1494 22.5627L13.9114 22.3499C13.8273 22.444 13.7257 22.58 13.6675 22.6508C13.5943 22.7397 13.5369 22.7965 13.4812 22.8314L13.6508 23.1018L13.8205 23.3723C13.9652 23.2815 14.0753 23.1601 14.1605 23.0565C14.2606 22.9349 14.3081 22.8642 14.3874 22.7755L14.1494 22.5627ZM13.6508 23.1018L13.4814 22.8312C12.2269 23.6165 10.9637 24.3877 9.69106 25.1427L9.85394 25.4172L10.0168 25.6918C11.2941 24.9341 12.5616 24.1602 13.8202 23.3725L13.6508 23.1018ZM9.85394 25.4172L9.69143 25.1424C9.23055 25.415 8.75588 25.3996 8.25921 25.1315L8.10756 25.4124L7.95591 25.6934C8.61937 26.0515 9.33487 26.0951 10.0164 25.692L9.85394 25.4172ZM8.10756 25.4124L8.27629 25.6835C8.86338 25.318 9.41553 24.9043 9.95616 24.5095C10.5012 24.1114 11.0381 23.7295 11.6147 23.4074L11.459 23.1287L11.3033 22.85C10.6898 23.1927 10.1255 23.5951 9.57955 23.9938C9.02923 24.3958 8.5007 24.7916 7.93883 25.1414L8.10756 25.4124ZM11.459 23.1287L11.6148 23.4074C11.9587 23.2151 12.2685 22.9751 12.5577 22.7317C12.8613 22.4763 13.1099 22.2465 13.3994 22.0108L13.1978 21.7632L12.9961 21.5157C12.7137 21.7458 12.4107 22.021 12.1467 22.2431C11.8684 22.4772 11.5948 22.687 11.3032 22.85L11.459 23.1287ZM13.1978 21.7632L13.3991 22.011C13.5704 21.8718 13.6932 21.7133 13.7812 21.5458L13.4985 21.3974L13.2159 21.2489C13.1658 21.3442 13.097 21.4337 12.9964 21.5155L13.1978 21.7632ZM13.4985 21.3974L13.7944 21.2773C13.6555 20.9351 13.5905 20.6279 13.6529 20.3209L13.3401 20.2573L13.0273 20.1936C12.9288 20.6773 13.0426 21.1226 13.2027 21.5174L13.4985 21.3974ZM13.3401 20.2573L13.6529 20.3209C13.7501 19.8431 13.8674 19.3386 13.8937 18.8059L13.5748 18.7902L13.256 18.7745C13.2327 19.2461 13.1296 19.6907 13.0273 20.1936L13.3401 20.2573ZM13.5748 18.7902L13.8936 18.807C13.8935 18.8104 13.8928 18.8122 13.8927 18.8125L13.5955 18.6959L13.2983 18.5793C13.2752 18.6382 13.2597 18.7036 13.256 18.7734L13.5748 18.7902ZM13.5955 18.6959L13.9098 18.6399C13.8574 18.3463 13.7925 18.0489 13.7002 17.7569L13.3958 17.8531L13.0914 17.9493C13.1724 18.2056 13.2315 18.4738 13.2812 18.752L13.5955 18.6959ZM13.3958 17.8531L13.7002 17.7568C13.0969 15.8491 12.5072 13.8914 11.5953 12.0576L11.3094 12.1997L11.0235 12.3419C11.9085 14.1215 12.4829 16.0252 13.0914 17.9493L13.3958 17.8531ZM11.3094 12.1997L11.5951 12.0574C11.2151 11.2945 11.1065 10.5448 11.2786 9.71192L10.966 9.6473L10.6533 9.58267C10.4509 10.5621 10.5828 11.4572 11.0236 12.3421L11.3094 12.1997ZM10.966 9.6473L11.2786 9.71208C11.3675 9.28322 11.2491 8.80897 11.1826 8.47657L10.8695 8.5392L10.5565 8.60184C10.6355 8.99689 10.7092 9.31294 10.6534 9.58251L10.966 9.6473ZM10.8695 8.5392L11.1827 8.47727C11.1078 8.0985 11.0043 7.71966 10.9155 7.36393C10.825 7.00171 10.7471 6.65394 10.711 6.30606L10.3934 6.33896L10.0759 6.37187C10.1168 6.76675 10.2041 7.15066 10.296 7.51866C10.3895 7.89314 10.4855 8.24304 10.5564 8.60113L10.8695 8.5392ZM42.6273 54.842L42.4715 55.1207C42.468 55.1187 42.4604 55.1141 42.4513 55.1067L42.6545 54.8604L42.8577 54.6142C42.831 54.5921 42.8052 54.5758 42.7832 54.5634L42.6273 54.842ZM42.6545 54.8604L42.9364 54.7105C42.9279 54.6945 42.9193 54.6787 42.9114 54.6639C42.9032 54.6489 42.8956 54.6348 42.8882 54.6208L42.6063 54.7707L42.3245 54.9207C42.333 54.9366 42.3415 54.9524 42.3495 54.9672C42.3576 54.9823 42.3652 54.9964 42.3726 55.0103L42.6545 54.8604ZM42.6063 54.7707L42.2993 54.8583C42.3056 54.8803 42.3165 54.9164 42.3208 54.9312L42.6273 54.842L42.9339 54.7529C42.9243 54.7201 42.9207 54.7089 42.9134 54.6832L42.6063 54.7707ZM13.8087 6.83668L14.0631 6.64386C13.8195 6.32233 13.405 6.17377 13.0333 6.14975C12.6625 6.1258 12.2325 6.21945 11.9545 6.50982L12.185 6.73063L12.4156 6.95144C12.5169 6.84569 12.7302 6.77001 12.9921 6.78694C13.2532 6.8038 13.4609 6.90632 13.5542 7.0295L13.8087 6.83668ZM12.185 6.73063L11.9542 6.5101C11.7269 6.74801 11.5648 7.01554 11.5019 7.31055C11.4381 7.60997 11.4822 7.91157 11.6247 8.20123L11.9112 8.06031L12.1977 7.91939C12.1122 7.74558 12.0953 7.58959 12.1264 7.44366C12.1584 7.29332 12.2472 7.12775 12.4159 6.95116L12.185 6.73063ZM11.9112 8.06031L11.625 8.20174C11.8443 8.64552 12.0851 9.07641 12.333 9.49767L12.6081 9.33576L12.8833 9.17386C12.6399 8.76033 12.4074 8.3439 12.1974 7.91888L11.9112 8.06031ZM12.6081 9.33576L12.3332 9.49815C12.7791 10.2529 13.7471 10.2577 14.3842 9.68754L14.1714 9.44964L13.9585 9.21173C13.5374 9.58851 13.0705 9.49073 12.883 9.17337L12.6081 9.33576ZM14.1714 9.44964L14.3841 9.68769C14.7179 9.38936 14.9693 8.97022 14.8419 8.42047L14.5309 8.49252L14.2199 8.56458C14.2763 8.80804 14.1891 9.00566 13.9586 9.21159L14.1714 9.44964ZM14.5309 8.49252L14.8418 8.41976C14.8144 8.30303 14.7934 8.19677 14.7461 7.98483L14.4345 8.05435L14.1229 8.12387C14.1659 8.31655 14.1926 8.44789 14.2201 8.56528L14.5309 8.49252ZM14.4345 8.05435L14.6898 8.24603L14.6919 8.24321L14.4366 8.05153L14.1813 7.85986L14.1792 7.86267L14.4345 8.05435ZM14.4366 8.05153L14.7258 7.91621C14.6091 7.66687 14.4556 7.33055 14.2928 7.00129L14.0066 7.14278L13.7204 7.28428C13.8792 7.60537 14.0273 7.93005 14.1474 8.18686L14.4366 8.05153ZM14.0066 7.14278L14.2927 7.00107C14.2253 6.8651 14.1383 6.74477 14.0647 6.64591L13.8087 6.83668L13.5527 7.02745C13.6249 7.12442 13.681 7.20476 13.7205 7.2845L14.0066 7.14278Z" fill="#8DC0FF"/>
</svg>
