<svg width="85" height="109" viewBox="0 0 85 109" fill="none" xmlns="http://www.w3.org/2000/svg">
<path d="M13.5338 0.60346C14.4669 0.554612 15.4039 0.613216 16.3173 0.808611C17.0421 0.962973 17.763 1.21504 18.2541 1.79341L18.6116 1.33228C17.8141 0.781266 16.9046 0.454965 15.9421 0.339682C15.6003 0.298649 15.559 0.822298 15.8635 0.916088C16.6158 1.14861 17.4743 1.41826 17.8848 2.14513L18.3484 1.7895C16.7475 0.497936 14.5926 0.0153183 12.591 0.527254C12.2236 0.621043 12.3788 1.18574 12.7481 1.09195C14.5297 0.636678 16.5 1.04895 17.9319 2.20374C18.1814 2.40499 18.5684 2.15685 18.3955 1.84813C17.9044 0.980572 16.9262 0.628852 16.0226 0.349437L15.9441 0.925867C16.8005 1.02943 17.6078 1.34986 18.315 1.83835C18.6077 2.0396 18.8748 1.6156 18.6725 1.37722C18.1382 0.746091 17.3407 0.433463 16.5491 0.257607C15.563 0.0387647 14.5415 -0.0354836 13.5338 0.0153192C13.1567 0.0348587 13.1547 0.621044 13.5338 0.601505V0.60346Z" fill="#8DC0FF"/>
<path d="M60.5409 85.0542C60.9043 84.6634 61.0634 84.2121 60.9711 83.6786C60.8984 83.2625 60.6627 83.0495 60.2541 83.1042C59.7532 83.1726 59.2405 83.2273 58.7593 83.3738C54.9917 84.5149 51.1475 85.3981 47.4114 86.6506C46.9282 86.8128 46.4116 86.9242 45.9028 86.9535C43.1626 87.1117 40.4066 87.2563 37.7096 86.6311C36.0458 86.2461 34.3467 85.953 32.7576 85.277C32.4511 85.1461 32.0936 85.1304 31.7577 85.0718C31.1665 84.9683 30.3375 85.6111 30.4927 86.3087C30.5281 86.4708 30.4691 86.6604 30.5222 86.8128C31.3118 89.097 31.6065 91.4202 31.4258 93.8451C31.3256 95.1913 31.5299 96.5669 31.6831 97.919C31.8167 99.1031 32.182 100.268 32.2488 101.452C32.3608 103.371 33.4078 104.59 34.9576 105.506C35.2464 105.676 35.5744 105.838 35.9005 105.881C37.7705 106.132 39.6425 106.327 41.5361 106.067C43.2333 105.833 44.9442 105.694 46.6414 105.459C47.657 105.319 48.6587 105.08 49.6645 104.867C50.8352 104.621 52.004 104.357 53.1728 104.097C53.8878 103.937 54.4005 103.55 54.5989 102.818C55.0428 101.172 55.4769 99.5232 55.9425 97.8858C56.0328 97.5673 56.2273 97.2664 56.4276 96.9987C56.5023 96.901 56.738 96.8893 56.8971 96.8971C57.2271 96.9128 57.5591 97.1414 57.5316 97.5009C57.3332 100.238 56.6221 102.864 55.64 105.418C55.5299 105.702 55.2117 105.995 54.921 106.104C54.1235 106.407 53.3024 106.667 52.4676 106.849C50.627 107.249 48.7629 107.556 46.9262 107.97C45.3921 108.318 43.8697 108.369 42.3415 108.017C40.829 107.669 39.3007 107.542 37.7528 107.513C36.3523 107.488 35.0264 107.663 33.7888 108.371C33.5138 108.527 33.1269 108.566 32.8008 108.539C32.4786 108.513 32.1035 108.412 31.8638 108.212C31.0604 107.542 30.64 106.612 30.314 105.645C30.2609 105.491 30.2511 105.289 30.3061 105.139C30.6597 104.156 30.9131 103.183 30.3199 102.198C29.7836 99.8613 29.3888 97.5146 29.8347 95.1112C29.9623 94.4234 29.8406 93.7708 29.5656 93.1221C28.6796 91.0431 28.3104 88.8703 28.5598 86.6213C28.658 85.744 28.4911 84.9389 28.2318 84.1202C27.8487 82.9107 28.0628 81.7736 28.6954 80.6833C29.0313 80.1049 29.1668 79.3956 29.8563 79.038C30.5124 79.6906 30.3572 80.6188 30.6538 81.4023C30.9779 82.2523 31.5417 82.9068 32.3569 83.2058C34.604 84.0323 36.9003 84.6439 39.2948 84.9722C42.921 85.4724 46.4567 85.191 49.9689 84.259C51.9509 83.7334 53.9447 83.2527 55.9228 82.7193C57.4059 82.3187 58.8889 81.9084 60.3425 81.4121C60.977 81.1952 61.5741 80.8122 62.1183 80.4077C62.847 79.8665 63.1574 79.0321 63.1476 78.1704C63.1397 77.4729 62.6506 76.9434 62.0829 76.5135C61.3895 75.9898 60.6411 75.6069 59.7788 75.4545C57.9225 75.1262 56.0642 74.8702 54.1667 74.9132C52.6286 74.9484 51.0886 74.8663 49.5486 74.8585C49.2127 74.8585 48.8788 74.9601 48.5409 74.9972C48.1264 75.0441 47.8907 75.7749 48.1127 76.2185C48.3582 76.7069 48.7668 77.0079 49.2382 77.1974C50.5406 77.721 51.896 77.7933 53.271 77.5354C54.1078 77.3771 54.9367 77.1603 55.7794 77.0587C56.1232 77.0176 56.3942 77.3049 56.518 77.6019C56.6712 77.9712 56.5828 78.2818 56.2744 78.5143C55.8678 78.8211 55.4926 79.2002 55.0389 79.4073C54.1078 79.8313 53.1433 80.185 52.1769 80.5211C51.1613 80.8728 50.2007 80.8747 49.2932 80.1186C48.9259 79.8118 48.3739 79.6222 47.8887 79.5773C47.0421 79.4991 46.1798 79.591 45.3253 79.5832C43.9169 79.5715 42.6538 79.974 41.4301 80.6715C40.5029 81.1991 39.4814 81.1502 38.4875 80.6871C37.9748 80.4488 37.7037 79.2705 38.1182 78.909C38.6309 78.4616 39.2084 78.0864 39.7034 77.6214C39.9372 77.4045 40.0727 77.0645 40.2024 76.7617C40.4125 76.2771 40.2711 75.7319 39.8959 75.3802C39.6307 75.1321 39.3164 75.0305 38.9491 75.1086C38.4482 75.2161 37.9552 75.3548 37.4523 75.4486C34.7081 75.9645 32.2292 77.0215 30.1647 78.9403C30.0429 79.0517 29.8661 79.1044 29.7148 79.1846C29.8091 78.8602 29.9093 78.5378 29.9977 78.2115C30.3257 77.0118 31.0191 76.1149 32.1427 75.5326C34.2662 74.4325 36.4721 73.6021 38.8705 73.3462C39.5423 73.2739 40.2181 73.1859 40.8781 73.0492C41.5695 72.9046 42.1431 72.4962 42.4653 71.8866C43.0153 70.8431 43.4317 69.7313 43.9935 68.6957C44.2233 68.2717 44.6849 67.9728 45.0405 67.6191C45.0405 67.9493 45.0994 68.2932 45.0248 68.6059C44.7596 69.7353 44.4394 70.8529 44.1703 71.9803C44.1467 72.08 44.3255 72.2637 44.4492 72.3536C44.8539 72.6427 45.5866 72.3829 45.6455 71.9823C45.7712 71.1421 45.6907 70.3273 45.3882 69.5379C45.1505 68.9205 44.8755 68.3167 45.0562 67.6289C44.9285 67.3202 44.6751 67.0036 44.6948 66.7066C44.7281 66.2318 44.1683 64.8191 43.9346 62.5271C43.8638 61.8335 43.9424 62.2223 43.8796 59.1331C43.8324 56.8196 43.803 56.6321 43.689 56.3233C43.2981 55.2741 42.5969 54.6312 42.8699 53.8633C42.8837 53.8262 43.0506 53.365 43.2431 53.3787C43.8835 53.4256 44.7773 58.7736 45.4569 60.5576C45.5158 60.71 45.6533 61.048 45.9362 61.1261C46.2348 61.2082 46.5392 60.964 46.8771 60.6865C47.3289 60.3152 47.8789 59.8483 48.5016 59.2914C47.983 60.6767 47.6353 61.8589 47.4055 62.7225C47.4055 62.7225 46.2603 67.0583 46.8359 70.7279C46.8869 71.0542 47.0539 71.3629 47.1737 71.6775C47.3702 72.1933 47.8023 72.547 48.2796 72.6466C50.1182 73.0316 51.9843 73.1625 53.8681 73.0687C54.7167 73.0257 55.5712 73.0472 56.4198 73.0902C58.2878 73.1859 60.1579 73.2934 62.022 73.4478C62.3226 73.4732 62.7292 73.6881 62.8667 73.9382C63.4481 74.9875 64.2338 75.8589 65.0255 76.748C66.1589 78.022 66.041 79.4307 65.053 80.4175C62.4444 83.0221 62.6153 83.8604 61.8649 84.3586C61.3797 84.683 60.9161 84.9018 60.5272 85.0562L60.5409 85.0542ZM45.2133 76.1384C44.9207 75.2669 43.8363 74.964 43.2058 75.5893C43.0997 75.6948 43.0054 75.8941 43.027 76.0328C43.1213 76.6542 43.7951 77.1857 44.4139 77.172C44.8873 77.1622 45.3528 76.5565 45.2114 76.1384H45.2133Z" fill="#8DC0FF"/>
<path d="M53.8331 33.687C54.5324 33.6382 55.1825 33.8414 55.8406 34.0407C57.4278 34.5213 57.7145 34.0407 58.296 32.9191C59.7849 30.0429 61.1619 27.1061 62.5428 24.1752C62.6607 23.927 62.5075 23.5284 62.4211 23.2177C62.3327 22.8934 62.1716 22.5905 62.0439 22.2779L62.148 22.4107C62.2659 22.1079 62.3346 21.7738 62.5114 21.51C62.8787 20.9629 63.3109 20.4568 63.7038 19.9253C64.2715 19.1535 64.1261 18.3876 63.6586 17.6333C63.5722 17.4927 63.4739 17.3578 63.3875 17.2171C62.7059 16.1171 62.7078 16.0956 61.4134 16.2929C60.9203 16.3691 60.441 16.4649 60.001 16.1327L60.0776 16.2187C59.7417 15.4664 59.6533 14.6047 58.8185 14.0986C57.9424 13.5672 57.2608 12.7993 56.6735 11.9473C56.0429 11.0329 56.0233 9.57523 56.7422 8.60998C56.9288 8.35987 57.2608 8.15082 57.5653 8.06876C58.0505 7.93589 58.5671 7.88704 59.0719 7.8714C60.4332 7.82646 61.8062 8.04921 63.1478 7.71899C63.4268 7.6506 63.8098 7.32037 63.8432 7.07027C63.9807 6.06789 63.9709 5.04795 64.0672 4.03775C64.2027 2.63677 65.5875 1.70277 67.0372 1.97632C68.3906 2.23229 69.6753 2.65434 70.8205 3.43396C71.5237 3.91268 72.2348 4.38555 72.9046 4.90725C73.7218 5.54424 74.3661 6.31604 74.6647 7.34382C74.757 7.66036 74.9338 7.973 75.144 8.23093C75.3502 8.48298 75.6174 8.75457 75.912 8.85227C76.8706 9.16685 77.9313 9.034 78.8624 9.5518C79.9015 10.1282 81.0094 10.5854 82.0427 11.1716C82.628 11.5038 83.1938 11.9278 83.6397 12.4261C84.0836 12.9224 84.4352 13.5437 84.2152 14.3155C83.677 14.464 83.1564 14.38 82.8186 13.9814C81.7951 12.7797 80.4319 12.0978 79.0412 11.4686C78.5992 11.2693 78.059 11.2732 77.5601 11.2146C77.1633 11.1677 76.8844 11.3475 76.7665 11.7011C76.3874 12.8501 76.3206 14.0185 76.7233 15.1655C76.8215 15.4469 77.1417 15.7673 77.4226 15.8494C78.723 16.2187 80.043 16.5176 81.361 16.8244C81.7127 16.9065 82.025 16.7677 82.3098 16.5391C83.1171 15.8924 83.6456 15.0229 84.2329 14.1983C84.007 15.1753 83.789 16.1542 83.5493 17.1273C83.402 17.7232 82.6968 18.2645 82.08 18.2879C81.5771 18.3074 81.0723 18.3504 80.5714 18.3309C79.7326 18.2977 78.8938 18.2137 78.0551 18.1707C77.2792 18.1296 76.9315 18.3075 76.3599 19.0285C76.0475 19.4212 75.7391 19.814 75.4288 20.2087L75.5604 20.3532C75.5211 19.6752 75.4917 18.9972 75.4406 18.3211C75.3915 17.6959 74.9436 17.2465 74.5056 17.4125C73.2248 17.8991 71.9009 18.1707 70.5455 18.3446C69.9464 18.4208 69.6242 18.9269 69.7087 19.3958C69.8855 20.3806 70.6496 21.2306 70.3805 22.315L70.294 22.3932C69.9189 22.4127 69.6085 22.2994 69.4003 22.0239C68.8935 21.3497 68.4181 20.6541 67.8897 19.9976C67.6678 19.7202 67.271 19.7162 66.9999 20.0171C65.9686 21.1524 65.1161 22.4264 64.4109 23.7785C63.0005 26.4867 61.6668 29.232 60.3094 31.9675C60.0364 32.5185 60.2858 33.4115 60.7907 33.7886C61.0617 33.9899 61.3446 34.1794 61.6236 34.3709C61.9909 34.621 62.7039 34.6933 62.5546 35.2482C62.4211 35.7387 61.7453 35.7562 61.2562 35.8461C60.8908 35.9125 60.5825 36.0239 60.4175 36.2936C60.3428 36.4167 60.331 36.616 60.3703 36.7606C60.4116 36.911 60.5255 37.1299 60.6453 37.1572C61.3053 37.3096 61.9712 37.4718 62.643 37.5207C64.3461 37.6418 66.0393 37.7747 67.6815 38.2925C68.3572 38.5054 69.0369 38.3921 69.6674 38.0932C70.5239 37.6867 71.3037 37.8196 72.0639 38.3316C73.6354 39.3906 74.9711 40.6782 75.9454 42.3078C76.13 42.6185 76.1006 42.9683 75.9297 43.236C75.7175 43.5681 75.3974 43.6424 75.0241 43.4783C74.8729 43.4118 74.7177 43.3454 74.5822 43.2516C74.3032 43.0562 74.0439 42.8354 73.765 42.64C72.2132 41.5575 70.5376 40.7838 68.6617 40.4067C67.3319 40.139 65.9784 39.9103 64.7841 39.1776C64.1909 38.8142 63.4975 38.7282 62.812 38.7438C61.4369 38.7771 60.111 38.611 58.7969 38.1518C58.571 38.0736 58.3471 38.0502 58.129 38.0814C57.5554 38.1635 57.192 38.6383 57.0447 38.8298C56.4731 39.5664 54.7032 42.978 52.4954 47.7066C52.4737 47.4839 52.4462 47.0637 52.4954 46.544C52.8037 43.3043 55.5499 42.4016 55.8995 39.3261C55.9565 38.8298 56.0743 37.7864 55.595 36.7019C55.4811 36.446 55.3809 36.2897 54.7622 35.2599C54.3615 34.5917 54.0373 34.0485 53.8272 33.6948L53.8331 33.687ZM67.0765 11.9649C67.1767 11.9571 66.5029 11.9806 65.835 12.0665C65.5109 12.1095 65.2025 12.2776 64.8863 12.3831C64.5366 12.5003 64.3756 12.7582 64.242 13.1041C63.9886 13.7645 64.0279 14.4211 64.1772 15.0776C64.3834 15.9823 65.617 16.8947 66.444 16.6993C68.261 16.2734 70.1094 16.1913 71.9578 16.0526C73.2229 15.9569 74.152 15.2808 74.7334 14.1495C74.9161 13.7919 74.869 13.5105 74.6274 13.2448C74.2816 12.8598 73.8848 12.5589 73.38 12.4436C71.5591 12.0235 69.7107 11.9024 67.0726 11.9669L67.0765 11.9649ZM69.8226 10.0168C69.8226 10.0168 69.8226 10.0071 69.8226 10.0031C70.8343 10.054 71.8459 10.1067 72.8575 10.1556C73.1796 10.1712 73.71 9.39744 73.6452 8.99688C73.5391 8.32668 73.3604 7.68578 72.8909 7.16212C71.7477 5.8901 70.3608 4.9346 68.8365 4.1921C68.2394 3.90096 67.5577 3.77592 66.9036 3.61569C66.0786 3.41053 65.1829 4.24486 65.2595 5.03035C65.3931 6.38639 66.0256 7.60371 66.279 8.92263C66.3733 9.41112 66.882 9.8488 67.2945 9.87225C68.1372 9.92305 68.9799 9.96799 69.8226 10.0149V10.0168ZM60.001 9.04573C59.3665 9.09458 58.8637 9.13559 58.3608 9.17272C57.6831 9.22157 57.3158 9.96994 57.5987 10.6734C57.854 11.3084 58.1781 11.8887 58.7124 12.3225C59.6396 13.0748 60.6885 13.5808 61.8868 13.7371C62.2403 13.784 62.6155 13.6375 62.7255 13.2975C62.9789 12.5081 63.1538 11.6933 63.3345 10.8824C63.47 10.2767 62.9573 9.46191 62.3759 9.37007C61.5469 9.23916 60.7121 9.14147 60.001 9.04573Z" fill="#8DC0FF"/>
<path d="M14.2899 5.32813C14.4254 5.42778 14.5452 5.57041 14.6965 5.61926C15.8515 6.00224 16.9928 5.91235 18.1144 5.46685C18.5131 5.30858 18.8314 4.52113 18.5957 4.19091C18.3089 3.78644 18.0574 3.35659 17.7608 2.95994C17.4937 2.60432 17.4721 2.35616 17.7569 2.16858C18.0358 1.98491 18.3815 1.8872 18.6939 2.06306C18.963 2.21546 19.2792 2.47729 19.3499 2.74694C19.5189 3.38197 19.5542 4.05414 19.6407 4.71067C19.7094 5.24605 20.0159 5.64076 20.4618 5.88891C21.0412 6.21131 21.6914 6.42233 22.0332 7.05737C21.0059 7.01634 20.0021 7.05345 19.0789 7.61033C18.6192 7.88779 18.1714 7.76275 17.6822 7.53023C15.8613 6.66268 14.4136 7.55367 13.0661 8.64789C12.6791 8.96247 12.5652 9.48613 12.52 10.0157C12.3982 11.4284 12.9836 12.6476 13.5022 13.9079C13.0464 14.0994 12.4689 14.1639 12.1311 14.4824C11.3787 15.1897 10.8641 16.0846 10.7462 17.1456C10.6873 17.683 10.8837 18.146 11.255 18.529C11.9248 19.2207 13.3961 19.2402 14.0698 18.5993C14.5727 18.1206 14.9479 17.5599 15.2583 16.9483C15.4763 16.5204 15.3467 15.8931 14.9204 15.6079C14.2152 15.135 13.4373 14.7364 13.3627 13.7477C16.4958 14.287 17.0949 13.8454 18.2912 11.4264C18.4424 11.1216 18.5642 10.7836 18.7862 10.5374C19.0023 10.297 19.3028 10.086 19.6073 9.98438C20.4028 9.71865 21.3084 9.82025 22.0057 9.2028C22.3043 8.93902 22.4771 8.68892 22.3593 8.32744C22.2041 7.84872 22.0253 7.37585 21.8564 6.90104C22.1943 6.88541 22.5361 6.8268 22.87 6.86197C24.0997 6.98898 24.742 7.98941 24.2234 8.97421C23.9091 9.57016 23.5261 10.127 23.2 10.7171C22.8425 11.3639 22.87 12.0321 23.2904 12.63C24.0702 13.7399 24.8933 14.8185 25.6927 15.9146C27.494 18.3805 29.2678 20.864 30.8353 23.4881C31.1968 24.0919 31.3323 24.7348 31.1948 25.4284L31.2969 25.3385C30.9257 25.3776 30.5701 25.3151 30.3816 25.0493C29.3974 23.6659 28.4271 22.2728 27.4744 20.8698C26.7103 19.7444 25.9186 18.6443 24.9227 17.7044C24.7086 17.5032 23.695 17.4543 23.4652 17.6615C23.3395 17.7748 23.2059 17.8959 23.1273 18.0405C22.6834 18.8553 21.9605 19.2109 21.0805 19.3712C19.8116 19.6017 18.7489 19.1386 17.7058 18.5017C17.309 18.2594 16.5763 18.4 16.2856 18.697C16.0499 18.9374 15.8397 19.2031 15.604 19.4454C15.3683 19.6877 15.1247 19.9261 14.8693 20.1469C14.3232 20.6197 13.6495 20.78 12.9659 20.7252C12.2902 20.6705 11.6243 20.4849 10.9584 20.3384C10.1078 20.1508 9.61281 19.4395 9.64031 18.4548C9.6737 17.2668 9.7071 16.0788 10.1648 14.9494C10.3573 14.4746 10.4378 13.9802 10.3691 13.4624C10.3239 13.1088 10.208 12.759 9.87014 12.63C9.24352 12.3897 8.58547 12.2275 7.93921 12.0439C7.44289 11.9019 7.00944 11.4681 6.63883 10.7425C6.56223 10.594 6.43061 10.4748 6.3049 10.3596C6.28329 10.3791 6.22437 10.4397 6.22437 10.4397C6.55634 10.8402 6.98848 11.0571 7.50313 11.0942C9.18655 11.2134 10.4476 10.4436 11.2216 9.0465C11.7971 8.00895 12.4355 7.08277 13.3489 6.32659C13.73 6.01201 14.0227 5.5919 14.3547 5.22065L14.2997 5.33008L14.2899 5.32813ZM19.2832 14.3495C18.8844 14.199 18.2833 14.7892 18.3442 15.2679C18.4326 15.9713 18.8137 16.4735 19.4423 16.7822C19.5758 16.8486 19.7625 16.8447 19.9176 16.8252C20.2535 16.7841 20.4971 16.5751 20.5541 16.2234C20.668 15.516 20.061 14.6426 19.2851 14.3495H19.2832Z" fill="#8DC0FF"/>
<path d="M31.1895 25.4277C31.5647 25.4062 31.8593 25.5293 32.0911 25.7853C33.0104 26.7994 33.3837 28.1828 34.3874 29.1343C34.4974 29.2399 34.7096 29.2965 34.8648 29.2789C34.9944 29.2653 35.1594 29.1363 35.2203 29.0132C35.7546 27.9483 36.1317 26.8306 36.3262 25.6505C36.5482 24.2944 37.1257 23.0576 37.7307 21.8422C38.4241 20.453 39.4122 19.2942 40.6811 18.3798C42.6376 16.971 44.7649 15.9354 47.126 15.3883C47.9491 15.1988 48.837 16.0409 48.6405 16.8811C48.2555 18.5303 47.9177 20.195 47.4423 21.8168C47.2085 22.614 46.8176 23.419 46.3069 24.0756C44.9535 25.8204 43.496 27.4852 42.0836 29.1832C41.7536 29.5799 41.5316 30.0312 41.4609 30.549L41.6142 30.4357C41.2802 30.8988 41.0818 31.4947 40.4159 31.6256L40.52 31.485C39.7009 32.3349 38.8484 33.1556 38.0744 34.0446C37.6246 34.5585 37.3928 35.2033 37.6344 35.9146C38.1334 37.3937 38.3475 38.144 38.4202 38.3023C38.7325 38.9901 39.1057 40.0276 39.3395 41.54C38.9662 41.0652 38.3534 40.2543 37.6698 39.1992C34.5721 34.41 34.849 33.5561 33.2029 30.3028C32.6038 29.1187 31.9222 27.9757 31.3211 26.7916C31.0913 26.3402 31.164 25.8244 31.2897 25.3359L31.1875 25.4258L31.1895 25.4277ZM36.9607 31.481C37.3202 31.5358 37.6482 31.4576 37.9252 31.2212C39.1077 30.2168 39.8011 28.8178 40.8186 27.6787C41.952 26.4106 43.0835 25.1385 44.1776 23.8372C44.8337 23.0576 45.4564 22.2447 46.0182 21.3947C46.2892 20.9864 46.413 20.4686 46.5446 19.984C46.6703 19.5209 46.3403 18.6807 46.0457 18.6436C45.7196 18.6026 45.3542 18.5303 45.0615 18.6319C43.604 19.1418 42.2722 19.898 41.0366 20.8183C39.9288 21.6449 39.0488 22.6589 38.4261 23.9017C37.6246 25.5 36.8821 27.7646 36.4814 30.1875C36.4303 30.4963 36.5521 30.8441 36.6425 31.1606C36.6778 31.2856 36.8507 31.3736 36.9587 31.4771L36.9607 31.481Z" fill="#8DC0FF"/>
<path d="M3.04887 10.3613C2.26315 9.70088 1.4401 9.07951 0.703475 8.37022C0.0454279 7.73909 -0.121536 6.9165 0.080789 6.01572C0.36758 4.75152 1.05706 3.92304 2.35744 3.51857C3.71872 3.09456 5.03284 2.97147 6.38822 3.45018C6.87144 3.62018 7.37824 3.73742 7.84771 3.93867C8.17575 4.07936 8.31325 4.40175 8.20325 4.71634C8.16004 4.84139 7.93611 4.96645 7.78289 4.98403C7.27806 5.03679 6.76537 5.07 6.25661 5.05633C5.57303 5.03874 4.88945 4.94886 4.20586 4.93518C3.18049 4.91564 2.26511 6.05869 2.52244 7.04739C2.69333 7.70197 2.9487 8.33506 3.1412 8.98572C3.29442 9.50156 3.1412 9.98811 2.92905 10.459L3.04691 10.3613H3.04887Z" fill="#8DC0FF"/>
<path d="M75.4333 20.2002C75.6081 21.949 74.9854 23.4438 73.9365 24.7979C73.5652 25.2785 72.6518 25.4251 72.147 25.0929C71.4438 24.6318 70.8034 24.0964 70.4341 23.3324C70.3005 23.0569 70.3398 22.7013 70.3005 22.3808L70.385 22.3046C71.0941 22.1639 71.5715 22.6426 72.1293 22.9318C72.7697 23.264 73.3276 23.0862 73.7617 22.4375C74.1172 21.906 74.4001 21.3257 74.7851 20.8196C74.956 20.5949 75.2997 20.4991 75.5649 20.3428L75.4313 20.1982L75.4333 20.2002Z" fill="#8DC0FF"/>
<path d="M14.3463 5.21861C13.6883 5.7833 12.9595 6.10376 12.0697 5.89469C11.5923 5.78136 11.17 5.23229 11.2682 4.83368C11.3468 4.51519 11.4018 4.19082 11.4784 3.87233C11.6336 3.23143 11.8045 2.5925 11.9518 1.94965C12.0854 1.36542 12.3486 1.11922 12.9104 1.04692C13.5724 0.96095 14.3306 1.17979 14.2108 1.41427C14.0477 1.73081 13.7531 1.87346 13.3995 1.93989C13.2463 1.9692 13.0872 2.07276 12.9713 2.18414C12.7297 2.41666 12.602 2.72927 12.655 3.06535C12.8141 4.08531 13.209 4.95679 14.2736 5.3554C14.2952 5.33195 14.3502 5.22056 14.3502 5.22056L14.3463 5.21861Z" fill="#8DC0FF"/>
<path d="M41.4599 30.5493C42.7171 30.9147 44.0175 30.7584 45.2982 30.8561C46.1232 30.9186 46.8599 31.202 47.5474 31.6396C47.5729 31.6162 47.6004 31.5927 47.6279 31.5732C49.1267 30.4321 52.908 32.8882 55.3005 34.6585C50.5272 32.7065 46.905 31.5517 45.7363 31.4052C44.6461 31.2684 43.7759 31.6103 43.7759 31.6103C43.5343 31.7061 43.1964 31.837 42.9705 32.0851C42.3891 32.7202 42.5796 34.0586 43.3653 35.4029C44.6421 37.5855 46.6143 38.7891 48.0227 39.5395C48.8733 39.9928 49.2976 40.2194 49.7612 40.2781C51.1264 40.45 51.8551 39.6508 54.7014 38.539C55.2672 38.3182 56.6166 37.8102 56.6304 37.8434C56.6618 37.9196 50.2876 42.6267 46.524 40.5731C43.7327 39.051 41.5503 33.447 40.8117 32.6733C40.7626 32.6225 40.5485 32.4115 40.4778 32.0793C40.4385 31.8917 40.4503 31.6904 40.5171 31.4794L40.413 31.6201C40.4935 31.4306 40.6585 31.1179 40.9826 30.8444C41.1535 30.7017 41.3205 30.606 41.458 30.5435L41.4599 30.5493Z" fill="#8DC0FF"/>
<path d="M53.8159 44.8516C53.8021 45.3557 53.9141 45.9047 53.753 46.3561C52.9987 48.4761 51.5451 51.4735 51.5451 51.4735C51.0187 52.429 50.3174 53.8143 49.6221 55.6217C49.6496 55.5299 49.6987 55.3677 49.7576 55.1665C49.9226 54.6076 50.3037 53.277 50.7928 51.0612C50.9676 50.2679 50.8557 50.4262 51.0049 50.0686C51.661 48.4996 52.2425 46.8973 53.1009 45.4182C53.2659 45.1329 53.5703 44.9786 53.9337 44.916C53.8945 44.8945 53.8552 44.8711 53.8159 44.8496V44.8516Z" fill="#8DC0FF"/>
<path d="M43.6409 55.0849C43.3974 54.8836 43.0202 54.7293 42.9299 54.4753C42.3032 52.7108 41.6 50.3133 41.6 50.3133C41.1895 47.8943 40.6886 46.4035 40.8182 46.3664C40.9066 46.341 41.1227 47.0659 42.0164 48.4376C42.0813 48.5352 42.1166 48.5704 42.1363 48.6193C42.7236 50.0906 43.2599 51.8081 43.2599 51.8081C43.3856 52.9004 43.5133 53.9926 43.639 55.0849H43.6409Z" fill="#8DC0FF"/>
<path d="M49.5555 57.0148C49.3316 57.9585 48.7599 58.785 48.3847 59.6799C48.3749 59.7014 48.316 59.7562 48.2492 59.8441C47.764 60.4615 47.6128 61.0282 47.601 61.0243C47.5853 61.0184 47.929 60.0512 48.0921 59.5568C48.7501 57.556 48.5419 56.9561 49.0349 55.6626C49.2608 55.0745 49.6714 54.2382 50.4787 53.3296C50.1212 54.7286 49.8128 55.9264 49.5555 57.0148Z" fill="#8DC0FF"/>
<path d="M39.7386 44.3216C39.2122 43.4658 38.6504 42.7565 38.5207 41.6271C38.4539 41.0468 38.5247 40.5563 38.5934 40.2359C38.6955 40.1675 38.8704 40.0698 39.0079 40.1323C39.0963 40.1714 39.1336 40.2593 39.1473 40.2886C39.5422 41.1875 40.1649 42.012 40.3495 42.9753C40.8484 45.5799 42.6006 49.4273 42.3492 49.5211C42.2706 49.5504 42.0133 49.2084 41.1902 47.4382C40.7149 46.0372 40.1609 45.0094 39.7386 44.3196V44.3216Z" fill="#8DC0FF"/>
<path d="M59.0497 21.2811C58.5194 21.4609 58.097 21.2655 57.7533 20.8805C57.4135 20.5015 57.2111 20.054 57.276 19.5323C57.3388 19.0243 57.5922 18.6159 58.0185 18.3209L57.8987 18.1919C58.2503 18.9305 58.6333 19.6554 58.9338 20.4135C59.0438 20.691 58.9594 21.0447 58.9633 21.3632L59.0478 21.2811H59.0497Z" fill="#8DC0FF"/>
<path d="M60.5632 85.0391C60.6497 85.5197 60.7164 86.0043 60.8284 86.4791C60.9247 86.8797 60.8873 87.1396 60.6221 87.2295C60.5868 87.2412 60.4355 87.0731 60.4296 86.9813C60.4179 86.823 60.467 86.6589 60.5062 86.5006C60.628 86.0219 60.7302 85.5451 60.5397 85.0566L60.5613 85.0391H60.5632Z" fill="#8DC0FF"/>
<path d="M59.4846 91.1432L59.4001 90.7368L59.7027 90.8032L59.4846 91.1432Z" fill="#8DC0FF"/>
<path d="M2.93079 10.4587C3.52401 10.1929 4.13099 10.187 4.76153 10.3179C5.21726 10.4117 5.68869 10.4293 6.1837 10.4606C6.21316 10.4391 6.27209 10.3785 6.2937 10.359C6.16602 10.4059 6.01281 10.4665 5.86548 10.5368C4.89904 10.9921 3.96991 10.9393 3.06632 10.3453C3.04865 10.3609 2.93079 10.4587 2.93079 10.4587Z" fill="#8DC0FF"/>
<path d="M62.0448 22.2744C61.9211 22.9075 61.6598 23.1635 61.1786 23.1029C60.6679 23.0404 60.2966 22.7883 60.11 22.2979L59.9843 22.4151C60.7052 22.2646 61.4261 22.2979 62.1489 22.4092L62.0448 22.2764V22.2744Z" fill="#8DC0FF"/>
<path d="M51.7078 32.6534C51.9946 32.667 52.2833 32.6631 52.5682 32.6963C53.1908 32.7647 53.6269 33.0852 53.8332 33.687L53.9196 33.5463C53.5837 33.519 53.238 33.5307 52.9119 33.4564C52.4012 33.3392 51.9906 33.0696 51.8512 32.5186L51.7058 32.6553L51.7078 32.6534Z" fill="#8DC0FF"/>
<path d="M60.1091 22.2973C59.4661 22.1788 59.1118 21.8407 59.0464 21.2832L58.9619 21.3653C59.8989 21.5138 59.9087 21.5255 59.9834 22.4145L60.1091 22.2973Z" fill="#8DC0FF"/>
<path d="M58.0175 18.3213C58.0666 17.6726 58.3554 17.2642 59.0684 17.2779L58.9663 17.1685C58.7895 18.1181 58.7856 18.122 57.8977 18.1923L58.0175 18.3213Z" fill="#8DC0FF"/>
<path d="M59.0641 17.2788C59.1426 16.6874 59.4792 16.3331 60.0737 16.2159L59.9971 16.1299C59.9519 17.0189 59.9185 17.0522 58.9619 17.1694L59.0641 17.2788Z" fill="#8DC0FF"/>
<path d="M2.24272 9.12979C3.00291 9.70816 3.76702 10.2904 4.60775 10.7477C5.49366 11.2303 6.43065 11.4941 7.41281 11.7071C7.7821 11.7872 7.93532 11.2479 7.56995 11.1424C6.13207 10.7223 4.71186 10.2377 3.31719 9.69057C2.96362 9.55184 2.8104 10.1185 3.16005 10.2553C4.55472 10.8024 5.97296 11.287 7.41281 11.7071L7.56995 11.1424C6.6094 10.9333 5.69402 10.6812 4.83169 10.2006C4.02042 9.74919 3.27988 9.18451 2.5413 8.62372C2.24075 8.39511 1.9461 8.90313 2.24468 9.12979H2.24272Z" fill="#8DC0FF"/>
<path d="M2.84332 10.0126C2.87474 10.1904 2.8001 10.3447 2.88457 10.5225C2.96904 10.7004 3.11439 10.7648 3.28529 10.8274C3.73905 10.9935 4.19673 11.1849 4.67013 11.2865C5.5089 11.4663 6.48124 11.2553 7.21786 11.775L7.51446 11.269C7.2591 11.1341 7.01553 10.9817 6.7916 10.8C6.58338 10.632 6.41445 10.4288 6.21802 10.2529C6.02158 10.077 5.77015 10.0399 5.50497 10.0301C5.19068 10.0184 4.87639 10.0243 4.56013 10.0301C4.17709 10.038 4.18494 10.589 4.56013 10.6163C5.32818 10.671 6.05105 10.9485 6.67374 11.3979C6.98017 11.6207 7.27482 11.1107 6.97036 10.8918C6.2632 10.3819 5.42836 10.0927 4.56013 10.0301V10.6163C4.84888 10.6105 5.13763 10.6046 5.42639 10.6144C5.52657 10.6163 5.65622 10.6046 5.75051 10.6417C5.84479 10.6789 5.90962 10.7785 5.97641 10.8489C6.33588 11.2201 6.76017 11.5327 7.21786 11.775C7.55769 11.9548 7.8209 11.4859 7.51446 11.269C6.83874 10.7922 5.99802 10.8489 5.21425 10.7785C4.78407 10.7394 4.3853 10.6027 3.98262 10.4581C3.79404 10.3897 3.56815 10.3428 3.39529 10.2451C3.39136 10.2431 3.40708 10.292 3.42476 10.2451C3.43654 10.2158 3.43065 10.163 3.43261 10.1318C3.4385 10.038 3.43261 9.95003 3.41493 9.8582C3.34814 9.48695 2.78046 9.64523 2.84725 10.0145L2.84332 10.0126Z" fill="#8DC0FF"/>
<path d="M7.50802 4.8992C8.88893 5.21965 10.2836 5.4893 11.6842 5.70814C12.0574 5.76676 12.1988 5.27827 11.8413 5.14345C11.1106 4.86599 10.3425 4.70968 9.58037 4.54164C8.81822 4.3736 7.98534 4.19383 7.18783 4.01797L7.10926 4.5944C8.65911 4.64716 10.2738 4.71554 11.6861 5.42287L11.9827 4.91681C10.1461 4.11569 8.16213 3.8558 6.18995 3.6096C5.81477 3.56271 5.8187 4.14889 6.18995 4.19579C8.05016 4.42831 9.9536 4.66865 11.6861 5.42287C12.026 5.57137 12.3285 5.08876 11.9827 4.91681C10.4702 4.16063 8.77108 4.06293 7.10926 4.00822C6.78122 3.99649 6.70461 4.51233 7.03069 4.58462C7.8282 4.75852 8.62571 4.93244 9.42323 5.10829C10.2207 5.28415 10.9515 5.43264 11.6842 5.7101L11.8413 5.1454C10.4388 4.92656 9.04608 4.65691 7.66516 4.33647C7.29587 4.25049 7.13872 4.81519 7.50802 4.90116V4.8992Z" fill="#8DC0FF"/>
<path d="M13.7783 5.53653C13.8667 5.55803 13.9551 5.57756 14.0395 5.60492C14.0611 5.61273 14.0847 5.62055 14.1063 5.62836C14.124 5.63422 14.1417 5.64595 14.1142 5.63227C14.1574 5.65377 14.1967 5.67528 14.2379 5.70068C14.2615 5.71631 14.2556 5.71827 14.2379 5.70068C14.2536 5.71436 14.2694 5.72803 14.2831 5.74366C14.2929 5.75343 14.3283 5.79836 14.2929 5.75146C14.3028 5.76514 14.3126 5.77883 14.3204 5.79251C14.3204 5.79251 14.3558 5.85893 14.3381 5.82376C14.3204 5.78859 14.3479 5.85503 14.3479 5.85698C14.3578 5.8902 14.3479 5.87456 14.3479 5.85112C14.3479 5.87652 14.3479 5.89996 14.3479 5.92341L14.8979 5.77491C14.5306 5.11252 13.7704 4.68852 13.0102 4.73151C12.8904 4.73737 12.7883 4.7999 12.7411 4.91128C12.6999 5.00898 12.7117 5.15943 12.802 5.23173C13.2617 5.59321 13.7213 5.95663 14.181 6.31811C14.3008 6.41386 14.4815 6.44317 14.5974 6.31811C14.6956 6.2126 14.727 6.00548 14.5974 5.90388C14.1377 5.5424 13.6781 5.17897 13.2185 4.81749L13.0102 5.31769C13.0868 5.31378 13.1634 5.31378 13.2401 5.31769C13.2597 5.31769 13.2793 5.32161 13.3009 5.32356C13.2597 5.31965 13.2754 5.31965 13.3068 5.32356C13.3422 5.32942 13.3776 5.33723 13.4129 5.34505C13.4915 5.36264 13.5701 5.38608 13.6447 5.41539C13.6604 5.42125 13.6742 5.42711 13.6899 5.43297C13.631 5.40952 13.686 5.43297 13.6977 5.43688C13.7351 5.45447 13.7704 5.47206 13.8058 5.4916C13.8726 5.52872 13.9374 5.56976 14.0002 5.6147C14.0238 5.63228 14.0179 5.63033 14.0002 5.6147C14.016 5.62837 14.0317 5.64009 14.0474 5.65377C14.0788 5.67917 14.1083 5.70653 14.1378 5.73584C14.1633 5.76124 14.1888 5.78665 14.2124 5.814C14.2261 5.82963 14.2399 5.84331 14.2517 5.85894C14.2694 5.88043 14.2831 5.89802 14.2576 5.86481C14.3067 5.92929 14.3499 5.99766 14.3892 6.068C14.4501 6.17742 14.6013 6.24192 14.7211 6.20284C14.8508 6.1618 14.9274 6.05435 14.9372 5.91952C14.9549 5.67333 14.8233 5.42125 14.6328 5.26884C14.4285 5.10471 14.1849 5.03046 13.9315 4.97184C13.7822 4.93667 13.6054 5.01874 13.5681 5.17701C13.5347 5.32747 13.6133 5.49941 13.7743 5.53849L13.7783 5.53653Z" fill="#8DC0FF"/>
<path d="M20.7445 6.7288C21.3358 6.97891 21.8897 7.31303 22.3769 7.73118C22.6244 7.94221 23.0094 7.67843 22.8404 7.37557C22.2708 6.36147 21.0942 6.05471 20.0138 5.94333C19.6857 5.91011 19.6072 6.46307 19.9352 6.51974C20.5815 6.63111 21.2179 6.79329 21.8367 7.01018C22.3179 7.17822 23.0447 7.35408 23.0781 7.96958C23.0978 8.34474 23.689 8.34669 23.6674 7.96958C23.6478 7.62764 23.5162 7.29546 23.2628 7.05707C22.9937 6.80502 22.6263 6.68192 22.2885 6.55101C21.5794 6.27941 20.8427 6.08205 20.0924 5.95309L20.0138 6.52952C20.884 6.6194 21.872 6.85191 22.3317 7.67062L22.7953 7.31499C22.2688 6.86362 21.6835 6.49238 21.0431 6.22078C20.8977 6.15825 20.7268 6.1778 20.6404 6.3263C20.5677 6.4494 20.5992 6.66434 20.7465 6.72687L20.7445 6.7288Z" fill="#8DC0FF"/>
<path d="M30.5663 24.8265C30.7883 25.528 31.0515 26.2138 31.3501 26.8879L31.8588 26.5929C31.5013 25.9168 31.1458 25.2388 30.7883 24.5627L30.2795 24.8578C30.5919 25.2837 30.9042 25.7116 31.2165 26.1376C31.4149 26.4092 31.8137 26.247 31.7547 25.9109C31.6506 25.3052 31.4326 24.7229 31.1183 24.1934C30.9258 23.869 30.417 24.1641 30.6095 24.4885C30.8983 24.9769 31.0888 25.5065 31.187 26.0653L31.7253 25.8386C31.4129 25.4127 31.1006 24.9848 30.7883 24.5588C30.694 24.4318 30.5329 24.3673 30.3856 24.4533C30.2383 24.5393 30.2049 24.7132 30.2795 24.8538C30.637 25.5299 30.9926 26.2079 31.3501 26.884C31.4247 27.0247 31.6212 27.0657 31.7528 26.9895C31.9021 26.9016 31.9237 26.7335 31.8588 26.589C31.5819 25.9637 31.3422 25.3208 31.134 24.6682C31.0201 24.3107 30.4504 24.4631 30.5663 24.8246V24.8265Z" fill="#8DC0FF"/>
<path d="M49.3371 31.1077C47.7912 30.6211 46.1667 30.5 44.5638 30.7227C44.2142 30.7716 44.3359 31.2718 44.6424 31.2991C45.8838 31.4066 47.1646 31.5219 48.296 32.0846L48.5239 31.5492C48.3549 31.516 48.188 31.473 48.0289 31.4066C47.8815 31.3441 47.7146 31.3636 47.6262 31.5121C47.5535 31.6352 47.5849 31.8521 47.7323 31.9127C47.9405 32.0006 48.1467 32.071 48.3687 32.1139C48.6771 32.1745 48.9128 31.7368 48.5965 31.5786C47.3649 30.967 45.9978 30.8302 44.6443 30.7129L44.7229 31.2894C46.2178 31.0823 47.746 31.2229 49.1839 31.6743C49.5473 31.7876 49.7005 31.2229 49.341 31.1096L49.3371 31.1077Z" fill="#8DC0FF"/>
<path d="M54.8439 33.5775C53.5357 32.8604 52.1057 32.4188 50.6835 31.987C50.3162 31.8757 50.1767 32.4228 50.5264 32.5517C51.3789 32.8644 52.2255 33.1907 53.0662 33.5326C53.4669 33.6948 53.8677 33.857 54.2644 34.0309C54.618 34.1852 54.952 34.3572 55.1955 34.6659C55.4391 34.9746 55.8438 34.5448 55.612 34.2517C55.3586 33.9293 55.003 33.7221 54.6318 33.5561C54.2252 33.3724 53.8107 33.2082 53.3962 33.0383C52.4985 32.6709 51.593 32.3212 50.6835 31.987L50.5264 32.5517C51.9014 32.9679 53.2803 33.39 54.5454 34.0836C54.8773 34.2653 55.1759 33.7593 54.842 33.5775H54.8439Z" fill="#8DC0FF"/>
<path d="M44.8912 68.1741C45.0916 67.2773 45.2409 66.3726 45.345 65.4601C45.3627 65.3018 45.1957 65.167 45.0503 65.167C44.8755 65.167 44.7734 65.3018 44.7557 65.4601C44.6575 66.3198 44.5102 67.1737 44.3216 68.0178C44.2862 68.1722 44.3687 68.3343 44.5278 68.3793C44.6752 68.4203 44.8559 68.3304 44.8912 68.1741Z" fill="#8DC0FF"/>
<path d="M60.289 15.5644C60.0316 16.0978 59.5346 16.426 59.075 16.7719C58.5898 17.1373 58.1321 17.53 57.8964 18.1045C57.3209 19.5153 58.193 20.926 59.1555 21.9128L59.572 21.4985C59.2184 21.1409 58.633 20.9455 58.4936 20.4219C58.4091 20.1054 58.3757 19.7693 58.3187 19.4469C58.2618 19.1245 58.1734 18.7845 58.2402 18.4621C58.2991 18.1729 58.468 18.0986 58.6861 17.9404C58.9355 17.7586 58.9473 17.5085 59.018 17.235C59.1418 16.7543 59.6329 16.471 60.1102 16.5179C60.4873 16.555 60.4854 15.9688 60.1102 15.9317C59.513 15.8711 58.9139 16.1935 58.6075 16.7035C58.5269 16.8383 58.466 16.9907 58.4327 17.1451C58.4012 17.2897 58.413 17.4167 58.2794 17.5027C57.9887 17.6922 57.7884 17.8915 57.6882 18.2354C57.588 18.5793 57.641 18.9623 57.7 19.3199C57.7687 19.7243 57.8198 20.1386 57.9121 20.5372C57.9868 20.8576 58.1557 21.1253 58.4091 21.3363C58.6625 21.5474 58.9296 21.69 59.1516 21.9147C59.4187 22.1844 59.8332 21.7721 59.568 21.5005C58.7253 20.6368 57.8178 19.2632 58.5721 18.0635C59.1379 17.1607 60.3145 16.852 60.7938 15.8633C60.9568 15.5253 60.45 15.2283 60.285 15.5683L60.289 15.5644Z" fill="#8DC0FF"/>
<path d="M59.5178 22.0585C59.6907 22.2832 59.8635 22.504 60.1051 22.6584C60.3467 22.8127 60.6178 22.8636 60.8909 22.8929C61.1796 22.9241 61.4743 22.9222 61.7591 22.8557C61.8887 22.8264 62.0145 22.7795 62.1343 22.7229C62.1991 22.6936 62.262 22.6603 62.3229 22.6213C62.3641 22.5959 62.4309 22.5236 62.4721 22.5099H62.315C62.4839 22.5411 62.647 22.7893 62.7256 22.9261L62.9809 22.4845C62.6705 22.4552 62.3661 22.4024 62.0636 22.3282C61.6963 22.2383 61.5391 22.803 61.9064 22.8929C62.2738 22.9828 62.6195 23.0355 62.9809 23.0687C63.2107 23.0902 63.3384 22.8069 63.2363 22.6271C63.087 22.3692 62.8414 22.0722 62.5547 21.9628C62.3622 21.8905 62.2266 21.9745 62.0734 22.08C61.9457 22.1679 61.8082 22.2324 61.6589 22.2715C61.3662 22.3497 61.0284 22.3379 60.7337 22.2735C60.4175 22.2051 60.225 22.0038 60.0325 21.7557C59.9362 21.6306 59.7791 21.5642 59.6298 21.6501C59.506 21.7224 59.4255 21.9257 59.5237 22.0507L59.5178 22.0585Z" fill="#8DC0FF"/>
<path d="M75.5824 19.1835C75.2445 20.1683 74.9066 21.1551 74.5668 22.1399C74.443 22.4974 75.0127 22.6518 75.1345 22.2962C75.4724 21.3114 75.8102 20.3246 76.1501 19.3398C76.2738 18.9823 75.7041 18.8279 75.5824 19.1835Z" fill="#8DC0FF"/>
<path d="M71.6091 22.4207C70.9 22.2839 70.3068 21.9361 69.8432 21.3812C69.7607 21.2835 69.5918 21.2737 69.4857 21.3362C69.3698 21.4046 69.3207 21.5395 69.3502 21.6665C69.4346 22.0338 69.6291 22.3621 69.8334 22.6747C70.0475 23.003 70.2636 23.3312 70.4796 23.6575C70.5661 23.7904 70.7409 23.8451 70.8823 23.7631C71.0238 23.681 71.0709 23.4973 70.9884 23.3625C70.6446 22.8017 70.3323 22.2253 70.0494 21.6332L69.6468 22.0338C69.9179 22.239 70.2203 22.5204 70.4659 22.7959C70.7114 23.0714 70.9216 23.3664 71.1181 23.7025C71.1986 23.8393 71.3852 23.8881 71.5207 23.808C71.6563 23.7279 71.7073 23.5442 71.6268 23.4075C71.1986 22.6708 70.625 22.0397 69.9434 21.5277C69.8412 21.4515 69.6703 21.4887 69.5859 21.5727C69.4877 21.6704 69.4837 21.8091 69.5407 21.9283C69.8236 22.5203 70.1359 23.0987 70.4796 23.6575L70.9884 23.3625C70.7802 23.044 70.57 22.7255 70.3618 22.409C70.1713 22.1178 69.9945 21.8423 69.9198 21.5121L69.4268 21.7974C69.9375 22.407 70.6702 22.8369 71.4539 22.9873C71.6091 23.0167 71.7722 22.9443 71.8173 22.7822C71.8566 22.6395 71.7682 22.452 71.6111 22.4207H71.6091Z" fill="#8DC0FF"/>
<path d="M55.4393 38.674C55.8085 38.6505 56.1798 38.6251 56.5491 38.6016C56.7023 38.5919 56.8516 38.4746 56.8437 38.3085C56.8359 38.1425 56.7141 38.0252 56.5491 38.0154C56.168 37.994 55.8105 38.1288 55.4707 38.2812C55.3921 38.3164 55.3135 38.3535 55.233 38.3887C55.1957 38.4062 55.1583 38.4219 55.121 38.4395C55.1014 38.4473 55.0837 38.4551 55.0641 38.4649C55.1014 38.4492 55.0425 38.4746 55.0366 38.4766C54.956 38.5079 54.8755 38.5372 54.793 38.5626C54.7537 38.5743 54.7164 38.5841 54.6771 38.5938C54.6535 38.5997 54.628 38.6055 54.6044 38.6095C54.5966 38.6095 54.5298 38.6212 54.5789 38.6153L54.8342 39.0569C54.8166 39.0823 54.8342 39.055 54.8441 39.0452C54.8598 39.0256 54.8775 39.0081 54.8951 38.9885C54.9226 38.9592 54.9521 38.9319 54.9816 38.9065C54.9914 38.8986 55.0346 38.8654 55.0051 38.8869C55.0209 38.8752 55.0385 38.8635 55.0542 38.8537C55.0916 38.8283 55.1308 38.8068 55.1721 38.7873C55.176 38.7853 55.2251 38.7619 55.2055 38.7697C55.1859 38.7775 55.235 38.758 55.2409 38.756C55.2841 38.7404 55.3273 38.7287 55.3705 38.7169C55.3901 38.713 55.4098 38.7091 55.4294 38.7052C55.4471 38.7013 55.4726 38.6993 55.4412 38.7032C55.4903 38.6974 55.5414 38.6954 55.5905 38.6954C55.7437 38.6954 55.893 38.5606 55.8851 38.4023C55.8773 38.2441 55.7555 38.1093 55.5905 38.1093C55.0817 38.1073 54.6241 38.3554 54.3274 38.7599C54.2037 38.928 54.3667 39.2289 54.5828 39.2015C54.9678 39.1527 55.3096 39.0003 55.6593 38.84C55.8262 38.7638 55.9107 38.7228 56.0934 38.6661C56.1739 38.6407 56.2544 38.6212 56.3369 38.6075C56.3055 38.6134 56.3271 38.6075 56.3468 38.6075C56.3664 38.6075 56.3861 38.6036 56.4057 38.6036C56.4548 38.6016 56.5039 38.6036 56.555 38.6036V38.0174C56.1857 38.0409 55.8144 38.0663 55.4451 38.0897C55.2919 38.0995 55.1426 38.2167 55.1505 38.3828C55.1564 38.5332 55.2801 38.6876 55.4451 38.6759L55.4393 38.674Z" fill="#8DC0FF"/>
<path d="M57.6971 97.3251C57.7285 96.7838 57.7717 96.2426 57.8287 95.7013C57.8562 95.4473 57.8856 95.1933 57.9171 94.9393C57.9406 94.7537 57.9289 94.8474 57.923 94.8885C57.9308 94.826 57.9406 94.7615 57.9485 94.699C57.9681 94.5544 57.9898 94.4117 58.0153 94.2671C58.0526 94.0444 58.0997 93.8216 58.1665 93.6047C58.1822 93.55 58.2019 93.4973 58.2196 93.4445C58.2294 93.4191 58.2883 93.2941 58.2274 93.4211C58.2805 93.3116 58.3374 93.2061 58.4042 93.1026C58.4396 93.0479 58.4769 92.9951 58.5142 92.9424C58.4926 92.9717 58.4121 93.0654 58.5201 92.9365C58.5869 92.8564 58.6557 92.7782 58.7244 92.7001C58.8737 92.534 59.0269 92.3737 59.1703 92.2038C59.8264 91.4319 60.1701 90.5507 60.3214 89.5581C60.3607 89.2943 60.396 89.0305 60.4275 88.7668C60.4412 88.6593 60.453 88.5538 60.4668 88.4463C60.4727 88.3936 60.4805 88.3388 60.4864 88.2861C60.4628 88.4815 60.4962 88.2177 60.4982 88.2001C60.5689 87.7273 60.6769 87.2661 60.8341 86.8147C60.8773 86.6916 60.9225 86.5705 60.9716 86.4494C60.9794 86.4318 61.0482 86.2657 61.0109 86.3536C60.9735 86.4415 61.0639 86.2364 61.0718 86.2208C61.1877 85.9687 61.3114 85.7225 61.443 85.4782C61.7121 84.9761 62.0088 84.4896 62.3054 84.003C62.545 83.6083 62.4056 83.0202 61.9891 82.7994C61.5727 82.5786 61.0364 82.6939 60.7791 83.114C60.2291 84.0167 59.7026 84.9214 59.2999 85.8983C58.8973 86.8753 58.7755 87.8308 58.6478 88.8449C58.6419 88.8977 58.634 88.9524 58.6281 89.0051C58.6498 88.8371 58.6321 88.9778 58.6281 89.011C58.6124 89.1165 58.5967 89.222 58.5771 89.3275C58.5358 89.5601 58.4848 89.7926 58.418 90.0192C58.3846 90.1326 58.3433 90.24 58.304 90.3514C58.2589 90.4784 58.3669 90.24 58.3001 90.3553C58.2746 90.4003 58.2549 90.4491 58.2294 90.496C58.1744 90.5996 58.1135 90.7012 58.0447 90.7988C58.0153 90.8418 57.9839 90.8848 57.9524 90.9259C58.029 90.8262 57.9603 90.9102 57.919 90.961C57.591 91.3479 57.2335 91.7016 56.9408 92.1178C56.6481 92.534 56.4615 93.044 56.3554 93.5481C56.0981 94.781 55.9999 96.0687 55.9272 97.3231C55.8997 97.7823 56.3535 98.2219 56.8112 98.2024C57.3121 98.1809 57.6656 97.8155 57.6951 97.3231L57.6971 97.3251Z" fill="#8DC0FF"/>
<path d="M29.6847 77.2923C29.0404 78.5624 28.7045 79.9732 28.7575 81.3976C28.7732 81.8568 29.1524 82.2984 29.6415 82.2769C30.1306 82.2554 30.5431 81.89 30.5254 81.3976C30.5136 81.0928 30.5195 80.788 30.5451 80.4831C30.5529 80.3972 30.5627 80.3092 30.5726 80.2233C30.5922 80.0376 30.5411 80.3991 30.5765 80.1979C30.604 80.0474 30.6276 79.897 30.661 79.7485C30.7258 79.4515 30.8102 79.1564 30.9124 78.8692C30.934 78.8067 30.9576 78.7461 30.9811 78.6855C30.9988 78.6406 31.0852 78.3651 31.0165 78.5937C31.0597 78.451 31.1461 78.3123 31.2129 78.1794C31.4211 77.7691 31.3347 77.2083 30.8967 76.9758C30.494 76.7648 29.9106 76.8527 29.6866 77.2904L29.6847 77.2923Z" fill="#8DC0FF"/>
</svg>
