<svg width="285" height="351" viewBox="0 0 285 351" fill="none" xmlns="http://www.w3.org/2000/svg">
<path d="M142.281 94.4556C141.021 95.0045 139.967 95.449 138.929 95.9196C137.878 96.3961 136.868 96.9536 135.791 97.3779C133.622 98.2337 131.964 99.6137 130.646 101.307C128.672 103.841 126.804 106.431 125.521 109.323C123.565 113.731 121.584 118.132 119.532 122.505C118.709 124.257 118.36 126.179 117.134 127.785C117.015 128.994 116.088 129.919 115.684 131.008C115.292 132.067 114.831 133.07 114.233 134.042C114.072 134.303 114.049 134.629 113.948 134.921C113.705 135.626 113.493 136.339 113.023 136.97C112.598 137.541 112.41 138.184 112.272 138.866C112.116 139.643 111.805 140.408 111.467 141.144C110.888 142.409 108.982 142.709 107.857 141.737C107.346 141.296 107.085 140.728 106.862 140.136C106.379 138.853 105.873 137.583 105.213 136.352C103.506 133.172 101.506 130.153 99.2584 127.255C96.1074 123.189 92.7883 119.24 89.0218 115.596C86.4326 113.093 83.6407 110.783 80.6084 108.709C78.6839 107.393 76.7029 106.139 74.7436 104.863C74.4786 104.691 74.2252 104.458 73.7256 104.588C73.756 105.189 74.0152 105.742 74.315 106.285C75.6357 108.682 76.3452 111.246 76.8434 113.853C77.6065 117.845 78.2509 121.855 79.0083 125.847C79.4456 128.157 79.6758 130.465 79.5962 132.808C79.5325 134.655 79.5991 136.505 79.5861 138.353C79.5774 139.581 79.6889 140.811 79.3529 142.03C79.224 142.496 79.2849 143.013 79.3124 143.504C79.4586 146.037 78.9923 148.536 78.7722 151.047C78.5637 153.438 78.2422 155.82 77.9541 158.205C77.5341 161.686 77.2373 165.183 76.5103 168.628C75.669 172.608 74.7885 176.581 73.8226 180.539C73.5229 181.763 73.4679 182.972 73.4476 184.201C73.436 184.844 73.3144 184.969 72.6627 185.092C72.2573 185.169 71.8431 185.215 71.4304 185.239C70.3052 185.309 69.5566 184.779 69.4928 183.788C69.4248 182.744 69.4378 181.696 69.739 180.666C70.0533 179.593 70.3342 178.512 70.6151 177.431C72.321 170.877 73.352 164.226 74.176 157.549C74.6973 153.326 75.2287 149.104 75.6328 144.872C76.1266 139.713 76.2656 134.537 75.9948 129.365C75.9151 127.837 75.5213 126.321 75.2563 124.8C74.5988 121.028 73.966 117.253 73.2579 113.488C72.7771 110.931 72.0111 108.443 70.773 106.071C69.9866 104.563 69.3654 102.988 68.6935 101.435C68.346 100.633 68.6978 100.289 69.697 100.439C71.2204 100.666 72.612 101.114 73.8733 101.978C77.6123 104.539 81.4498 106.985 85.1728 109.562C88.1877 111.649 90.816 114.1 93.3661 116.633C96.6576 119.903 99.5162 123.455 102.444 126.968C103.813 128.61 104.886 130.402 106.028 132.16C106.962 133.596 107.788 135.088 108.665 136.552C108.862 136.879 109.227 136.883 109.473 136.547C109.698 136.24 109.918 135.923 110.077 135.587C112.015 131.501 113.958 127.417 115.862 123.319C117.184 120.475 118.388 117.587 119.753 114.762C121.174 111.824 122.331 108.779 124.06 105.964C125.45 103.697 126.949 101.486 128.856 99.5109C130.142 98.1801 131.642 97.1549 133.457 96.4279C135.542 95.5909 137.56 94.6222 139.611 93.7157C140.57 93.2914 141.228 92.5774 141.938 91.9012C142.808 91.0714 144.229 90.9324 145.329 91.5435C145.482 91.6275 145.634 91.836 145.635 91.9866C145.639 93.2161 145.742 94.4629 145.564 95.6735C144.943 99.8903 143.651 103.974 142.274 108.04C141.298 110.922 140.532 113.863 139.486 116.723C138.137 120.413 137.443 124.244 136.198 127.956C135.509 130.009 135.151 132.147 134.596 134.236C133.261 139.264 132.181 144.34 130.976 149.39C130.604 150.953 130.062 152.485 129.663 154.043C128.603 158.175 127.818 162.348 127.289 166.561C126.93 169.422 126.448 172.272 126.128 175.136C125.882 177.331 125.802 179.541 125.653 181.745C125.641 181.928 125.653 182.116 125.692 182.296C126.148 184.417 125.911 186.599 126.429 188.715C126.491 188.968 126.478 189.215 126.216 189.367C125.957 189.517 125.689 189.417 125.428 189.323C124.709 189.062 124.292 188.556 124.27 187.91C124.242 187.067 123.879 186.324 123.424 185.658C122.822 184.776 122.39 183.962 123.051 182.975C123.113 182.881 123.101 182.727 123.074 182.61C122.704 181.07 123.146 179.579 123.385 178.071C123.617 176.613 123.793 175.146 123.974 173.682C124.39 170.321 124.748 166.953 125.218 163.599C125.501 161.592 125.889 159.592 126.341 157.61C127.396 152.972 128.537 148.349 129.61 143.714C130.559 139.617 131.36 135.495 132.457 131.423C134.023 125.616 135.571 119.807 137.434 114.069C138.799 109.869 140.113 105.655 141.382 101.431C141.827 99.9511 142.057 98.4205 142.399 96.9145C142.565 96.1789 142.552 95.4534 142.284 94.4542L142.281 94.4556Z" fill="#8DC0FF"/>
<path d="M232.133 135.083C231.88 136.979 230.954 138.621 230.09 140.269C229.383 141.615 228.569 142.91 227.724 144.176C226.982 145.286 225.951 146.138 224.778 146.76C223.026 147.692 221.617 148.975 220.425 150.547C218.585 152.979 216.725 155.397 214.818 157.777C214.146 158.616 214.151 159.333 214.705 160.207C216.119 162.436 217.449 164.717 218.874 166.938C220.338 169.22 221.675 171.568 222.904 173.985C223.692 175.533 224.476 177.078 225.152 178.679C226.587 182.078 227.65 185.594 228.161 189.239C228.652 192.733 229.198 196.227 229.199 199.781C229.199 201.006 228.553 202.018 228.459 203.193C228.417 203.723 227.763 203.361 227.417 203.615C226.858 204.027 226.548 203.889 226.506 203.323C226.37 201.513 226.034 199.749 225.386 198.048C225.314 197.856 225.263 197.639 225.269 197.436C225.355 194.429 224.542 191.515 224.348 188.534C224.116 184.963 223.036 181.606 221.61 178.333C219.745 174.054 217.48 170.005 214.928 166.105C214.206 165.002 213.545 163.857 212.817 162.757C212.493 162.269 211.981 162.204 211.56 162.576C211.095 162.985 210.617 163.411 210.263 163.912C208.94 165.774 207.485 167.575 206.424 169.581C205.296 171.712 204.085 173.809 203.203 176.089C202.173 178.747 201.436 181.49 200.518 184.178C200.164 185.217 200 186.338 199.865 187.436C199.374 191.427 198.41 195.331 197.734 199.289C197.325 201.678 196.933 204.07 196.533 206.462C196.1 209.054 195.695 211.651 195.227 214.237C194.906 216.008 194.574 217.771 194.6 219.584C194.607 220.131 194.454 220.68 194.397 221.23C194.336 221.821 193.973 222.076 193.433 222.121C193.158 222.144 192.877 222.115 192.6 222.083C191.834 221.996 191.51 221.604 191.545 220.829C191.694 217.508 192.048 214.218 192.726 210.956C193.233 208.513 193.708 206.045 193.938 203.565C194.515 197.336 196.09 191.283 197.02 185.117C197.456 182.231 198.582 179.505 199.563 176.756C201.187 172.205 203.671 168.123 206.467 164.214C207.275 163.085 208.088 161.957 208.874 160.811C209.187 160.355 209.439 159.857 209.711 159.373C210.044 158.781 210.035 158.213 209.689 157.602C207.256 153.313 204.873 148.995 202.405 144.726C201.539 143.228 200.585 141.763 199.3 140.564C198.588 139.898 197.836 139.285 196.93 138.886C196.616 138.748 196.315 138.556 196.051 138.337C195.851 138.172 195.599 137.931 195.837 137.64C195.95 137.501 196.19 137.372 196.358 137.39C197.81 137.536 199.269 137.736 200.507 138.576C201.948 139.553 203.228 140.696 204.243 142.157C206.945 146.051 209.039 150.288 211.312 154.424C212.319 156.256 212.258 156.277 213.487 154.624C214.44 153.341 215.56 152.162 216.365 150.795C217.539 148.802 219.203 147.212 220.502 145.334C220.835 144.853 221.228 144.516 221.836 144.443C222.175 144.403 222.579 144.364 222.823 144.164C224.493 142.801 226.558 142.054 228.203 140.645C229.095 139.882 229.584 138.896 229.975 137.871C230.413 136.719 231.08 135.811 232.085 135.129L232.136 135.08L232.133 135.083Z" fill="#8DC0FF"/>
<path d="M178.616 146.298C178.251 146.411 178.052 146.663 177.967 147.032C177.635 148.476 177.979 149.897 178.144 151.316C178.287 152.544 178.819 153.669 179.356 154.772C180.552 157.23 181.154 159.838 181.432 162.546C181.852 166.632 183.006 170.548 184.388 174.398C184.882 175.774 185.362 177.148 185.58 178.598C185.704 179.429 185.988 180.204 186.298 180.981C186.735 182.076 187.112 183.201 187.104 184.406C187.102 184.942 186.892 185.347 186.334 185.499C186 185.591 185.668 185.696 185.328 185.766C184.412 185.953 184.237 185.857 183.675 184.962C181.526 181.536 179.883 177.878 178.627 174.035C177.528 170.672 176.381 167.326 175.253 163.972C175.165 163.71 175.103 163.426 174.956 163.199C174.755 162.889 174.47 162.77 174.066 162.916C173.297 163.196 172.805 163.659 172.528 164.466C171.81 166.566 171.025 168.644 170.244 170.722C168.928 174.232 167.289 177.584 165.299 180.764C164.563 181.94 163.86 183.136 163.111 184.303C162.394 185.423 161.427 186.329 160.497 187.266C159.772 187.999 158.925 188.278 157.885 188.338C156.341 188.426 155.054 188.002 153.822 187.092C151.762 185.573 150.29 183.565 148.96 181.448C147.04 178.389 145.518 175.114 143.857 171.911C142.46 169.216 141.959 166.264 140.991 163.449C140.77 162.805 140.764 162.081 140.692 161.39C140.373 158.348 140.205 155.295 140.33 152.237C140.516 147.613 141.695 143.214 143.424 138.943C143.879 137.82 144.651 136.912 145.45 136.066C146.183 135.291 147.246 135.074 148.323 135.081C150.403 135.096 152.473 135.064 154.548 135.398C157.494 135.873 160.432 136.38 163.344 137.027C164.288 137.237 165.201 137.592 166.129 137.877C168.841 138.713 170.851 140.432 172.354 142.801C172.499 143.028 172.699 143.234 172.913 143.401C173.075 143.527 173.337 143.573 173.459 143.353C173.727 142.871 173.949 142.362 174.192 141.866C174.496 141.243 174.755 140.593 175.122 140.009C175.533 139.355 175.956 139.268 176.733 139.515C177.986 139.915 178.073 140.112 177.748 141.495C177.34 143.244 177.337 144.931 178.659 146.363L178.616 146.295V146.298ZM151.441 136.156C149.079 136.183 147.37 137.472 145.731 138.894C145.583 139.021 145.509 139.246 145.431 139.439C144.913 140.724 144.321 141.987 143.906 143.306C142.781 146.898 142.173 150.582 142.163 154.354C142.16 155.536 142.108 156.717 142.125 157.899C142.175 161.167 142.479 164.388 143.449 167.547C144.005 169.358 144.787 171.048 145.583 172.74C147.208 176.195 148.788 179.68 151.092 182.765C152.133 184.16 153.213 185.514 154.619 186.567C155.439 187.181 156.377 187.55 157.346 187.134C159.346 186.277 161.076 185.123 162.174 183.084C163.121 181.325 163.695 179.338 165.156 177.865C165.292 177.729 165.288 177.464 165.403 177.297C166.246 176.094 166.523 174.647 167.124 173.344C168.815 169.676 169.874 165.795 171.012 161.943C171.332 160.86 171.711 159.8 172.528 159.037C172.952 158.64 173.077 158.267 173.038 157.782C173 157.302 172.891 156.829 172.802 156.354C172.697 155.801 172.566 155.182 172.92 154.738C173.448 154.074 173.492 153.356 173.487 152.584C173.481 151.885 173.602 151.207 173.847 150.544C174.154 149.714 174.033 148.925 173.587 148.147C172.619 146.459 171.623 144.791 170.56 143.159C169.079 140.882 166.982 139.575 164.443 138.767C161.253 137.75 157.965 137.248 154.689 136.657C153.596 136.46 152.494 136.318 151.438 136.157L151.441 136.156ZM175.457 152.618C175.457 152.49 175.457 152.361 175.452 152.232C175.452 152.23 175.369 152.232 175.326 152.231C175.329 152.36 175.33 152.489 175.34 152.618C175.34 152.621 175.427 152.618 175.457 152.618Z" fill="#8DC0FF"/>
<path d="M195.452 131.065C195.419 131.056 195.384 131.049 195.35 131.04C195.373 131.059 195.396 131.078 195.419 131.096C195.411 131.061 195.404 131.026 195.403 130.993C195.407 130.996 195.45 131.063 195.45 131.063L195.452 131.065Z" fill="#8DC0FF"/>
<path d="M4.49766 226.71C4.50469 227.388 4.86855 227.664 5.14805 227.98C8.52311 231.821 11.7189 235.88 15.1168 239.695C16.9572 241.76 18.6202 244.058 20.32 246.297C25.7675 253.476 31.2467 260.622 36.6116 267.887C39.8883 272.326 43.476 276.388 46.9284 280.612C48.0482 281.981 49.1064 283.43 50.4986 284.462C51.0172 284.845 51.4021 285.509 51.8099 286.084C52.6642 287.288 53.5309 288.454 54.5434 289.5C55.4891 290.475 56.296 291.69 57.0149 292.922C58.7552 295.903 60.6431 298.774 62.037 302.024C62.4027 302.875 62.7349 303.743 63.1023 304.592C63.6086 305.76 64.3873 306.686 65.0588 307.709C67.5075 311.436 69.9421 315.175 72.3872 318.905C72.8829 319.661 73.3681 320.432 73.9042 321.146C75.7166 323.556 77.2318 326.226 78.6908 328.937C79.7842 330.971 81.1711 332.716 82.4298 334.588C83.3702 335.989 84.2157 337.429 84.6868 339.159C84.9523 340.131 85.332 341.061 85.666 342.008C85.7328 342.196 85.8382 342.368 85.898 342.558C86.0861 343.145 86.1933 343.755 85.9367 344.328C85.789 344.657 84.8925 344.575 84.3388 344.167C84.0013 343.919 83.6603 343.624 83.4124 343.26C82.4491 341.845 81.2696 340.857 79.8914 340.048C78.5643 339.271 77.3865 338.12 76.1455 337.128C75.859 336.9 75.576 336.662 75.3053 336.408C74.3244 335.485 73.289 334.889 71.9917 335.219C71.3097 335.393 70.6364 335.105 70.0001 334.762C66.8535 333.073 63.5347 332.526 60.1509 332.482C59.2227 332.47 58.3438 332.3 57.4772 331.893C56.1834 331.287 54.786 331.336 53.4553 330.958C52.5764 331.363 51.6535 330.939 50.7675 331.101C50.0679 331.229 49.4175 331.069 48.7478 330.851C47.5349 330.457 46.3149 330.081 45.0862 329.777C43.9717 329.501 42.8485 329.311 41.6988 329.418C40.0957 329.568 38.5277 329.069 36.9667 328.707C34.2772 328.084 31.6106 327.307 28.9246 326.657C27.8119 326.388 26.6798 326.311 25.5355 326.383C23.3241 326.522 21.1092 326.641 18.9383 325.753C18.3512 325.513 17.7061 325.423 17.0855 325.389C16.1697 325.338 15.2697 325.435 14.5841 326.318C14.396 326.558 14.0955 326.669 13.8951 326.898C12.9335 327.995 11.7962 328.183 10.5728 327.696C8.61805 326.919 6.63165 327.102 4.64705 327.207C4.24626 327.228 3.85427 327.293 3.46754 327.133C3.23551 327.037 3.07731 326.815 3.12301 326.518C3.14938 326.344 3.26188 326.147 3.38493 326.049C3.51501 325.945 3.70486 325.91 3.8701 325.903C5.91271 325.818 7.97116 325.409 9.99443 326.026C11.0667 326.353 11.7487 325.855 12.378 325.029C12.7173 324.583 13.0249 324.087 13.2781 323.563C13.4749 323.157 13.7351 323.029 14.0937 322.969C15.3523 322.758 16.6056 322.992 17.8291 323.25C20.3762 323.788 22.9321 323.755 25.4845 323.76C26.7501 323.762 27.9754 323.999 29.1988 324.279C31.3838 324.778 33.5741 325.254 35.7134 326.026C36.7171 326.388 37.7208 326.43 38.7456 326.108C40.0377 325.702 41.3068 325.692 42.5426 326.574C43.0172 326.914 43.6166 327.056 44.1739 327.158C46.1427 327.52 48.1202 327.814 50.0908 328.155C51.8961 328.467 53.7014 328.784 55.4996 329.148C56.5122 329.352 57.5106 329.638 58.4634 330.162C59.5761 330.774 60.789 330.849 61.9773 330.846C62.9494 330.844 63.9092 331.015 64.8689 331.03C67.3932 331.069 69.819 331.955 72.3099 332.247C73.0447 332.333 73.79 332.338 74.5125 332.505C75.8643 332.816 77.1844 333.272 78.283 334.372C78.3551 334.207 78.457 334.061 78.4324 334.017C76.8996 331.282 75.4248 328.496 73.797 325.845C71.6894 322.413 69.4991 319.052 67.2754 315.727C59.6692 304.345 51.8486 293.172 43.9946 282.032C42.1049 279.353 40.1502 276.739 38.1955 274.129C37.0775 272.637 35.7116 271.476 34.3774 270.281C33.8255 269.787 33.2876 269.27 32.755 268.748C32.4421 268.441 32.036 268.07 32.0782 267.607C32.1678 266.597 31.5157 266.194 31.0956 265.598C30.0989 264.18 29.1127 262.751 28.0773 261.372C27.1949 260.196 26.2545 259.084 25.3316 257.953C25.133 257.711 24.9185 257.449 24.6689 257.307C23.5896 256.69 22.8829 255.633 22.1728 254.533C21.2974 253.174 20.3358 251.892 19.4129 250.576C19.2301 250.314 18.9225 250.068 18.8908 249.783C18.7291 248.363 17.8186 247.559 17.1049 246.607C16.3771 245.636 15.5861 244.736 14.8303 243.794C14.5894 243.495 14.3749 243.135 14.0128 243.082C13.1181 242.954 12.6242 242.21 12.1548 241.416C11.5466 240.387 10.6817 239.682 9.9083 238.865C9.17528 238.092 8.49323 237.274 7.83932 236.395C5.86174 233.736 3.9949 230.934 1.66752 228.682C0.76047 227.805 0.526691 226.532 0.0116439 225.425C-0.0375757 225.321 0.0784419 225.024 0.187428 224.918C0.498566 224.612 0.880017 224.456 1.28608 224.433C1.85386 224.403 2.43218 224.317 2.99294 224.403C4.36405 224.616 5.72639 224.523 7.09223 224.459C10.5657 224.298 14.0375 224.134 17.511 223.971C18.135 223.941 18.7696 223.981 19.3532 223.654C19.6749 223.475 20.0211 223.459 20.3569 223.545C21.953 223.953 23.5386 223.551 25.1294 223.589C25.7253 223.603 26.2562 223.317 26.7501 223.032C28.3674 222.099 29.9705 222.065 31.7143 222.675C33.0731 223.15 34.5163 223.285 35.9261 223.509C38.1832 223.865 40.449 224.129 42.6832 224.688C43.2528 224.83 43.8539 224.892 44.3725 224.653C45.0036 224.361 45.5714 224.412 46.1954 224.625C46.6296 224.772 47.0901 224.843 47.5401 224.862C48.347 224.897 49.1187 225.142 49.9009 225.349C51.5691 225.794 53.2321 226.281 54.9126 226.637C56.5948 226.994 58.2718 227.147 59.9593 226.506C60.9701 226.122 62.0792 226.094 63.1463 225.911C63.4838 225.853 63.8336 225.859 64.1605 225.759C66.1996 225.127 68.2967 224.92 70.3868 224.656C70.8333 224.6 71.2745 224.44 71.7087 224.293C72.8777 223.893 74.0466 223.802 75.2332 224.266C75.5004 224.37 75.7939 224.368 76.0717 224.442C76.5955 224.579 76.7027 224.853 76.3951 225.384C76.2316 225.667 76.0453 225.904 76.0805 226.282C76.2193 227.789 75.2701 228.583 74.5986 229.548C74.3631 229.886 73.9869 229.928 73.6494 229.858C73.2591 229.777 72.8109 229.705 72.5173 229.431C71.8616 228.817 71.1444 228.808 70.4009 228.844C67.6674 228.974 64.9199 228.954 62.2094 229.302C60.5253 229.519 58.8132 229.584 57.1503 230.004C56.0042 230.292 54.8862 229.87 53.7559 229.817C53.0738 229.786 52.3883 229.642 51.7115 229.682C48.9499 229.853 46.2727 229.336 43.6219 228.36C41.4896 227.574 39.2941 227.121 37.0968 226.711C36.3603 226.574 35.6044 226.518 34.8837 226.717C33.0028 227.237 31.1571 226.949 29.3096 226.398C27.8506 225.964 26.3951 225.82 24.9044 226.149C23.5509 226.448 22.178 226.226 20.8209 226.005C20.1881 225.901 19.5694 225.836 18.9823 226.175C17.8045 226.855 16.4879 226.882 15.2996 226.59C13.9812 226.267 12.7032 226.43 11.4112 226.354C10.3337 226.291 9.26139 226.365 8.17329 226.23C6.93577 226.075 5.70882 226.444 4.50646 226.706L4.49766 226.71Z" fill="#8DC0FF"/>
<path d="M121.624 283.084C122.44 282.28 122.695 281.361 123.136 280.554C123.623 279.668 124.083 278.763 124.505 277.845C125.46 275.767 127.084 274.498 129.292 274.11C131.426 273.734 133.504 273.009 135.764 273.364C138.568 273.806 140.772 275.272 142.852 277.023C144.07 278.047 145.22 279.153 146.45 280.267C147.18 279.496 147.872 278.875 148.421 278.148C148.809 277.632 149.068 277.052 148.925 276.277C148.533 274.133 149.159 272.326 150.897 270.889C151.864 270.091 152.741 269.16 153.541 268.193C155.16 266.235 157.322 265.171 159.602 264.247C160.824 263.751 162.005 263.561 163.273 264.111C163.883 264.375 164.579 264.616 165.224 264.586C167.045 264.501 167.98 265.644 168.771 266.975C169.415 268.058 169.991 269.186 170.51 270.334C171.687 272.937 172.844 275.553 173.945 278.19C174.41 279.308 175.154 280.218 175.901 281.12C177.56 283.122 178.191 285.587 179.106 287.926C179.135 288.004 179.164 288.1 179.142 288.174C178.536 290.315 179.45 292.458 179.055 294.645C178.701 296.598 178.722 298.663 179.498 300.606C179.65 300.991 179.796 301.421 179.782 301.826C179.693 304.375 180.378 306.832 180.621 309.342C180.846 311.682 181.394 313.988 181.674 316.324C181.846 317.759 182.236 319.065 182.885 320.359C183.634 321.853 183.94 323.554 185.114 324.86C185.348 325.121 185.332 325.662 185.325 326.072C185.297 327.625 185.671 329.051 186.487 330.38C186.745 330.8 186.886 331.303 187.023 331.785C187.413 333.156 187.663 334.58 188.179 335.898C188.71 337.255 188.918 338.38 187.765 339.567C187.146 340.201 187.216 340.359 186.701 339.746C185.731 338.591 184.648 337.513 184.209 335.998C184.117 335.683 183.952 335.307 183.701 335.137C182.326 334.209 181.937 332.702 181.405 331.301C180.269 328.311 179.206 325.295 178.142 322.278C177.216 319.648 176.402 317.013 175.908 314.276C175.848 313.944 175.644 313.582 175.723 313.292C176.247 311.365 175.381 309.662 174.962 307.878C174.481 305.832 174.126 303.758 173.698 301.697C173.609 301.263 173.589 300.845 173.904 300.513C174.477 299.908 174.554 299.191 174.54 298.403C174.532 297.909 174.63 297.399 174.762 296.92C175.015 296.002 175.034 295.109 174.82 294.174C174.651 293.441 174.53 292.666 174.57 291.918C174.704 289.507 174.057 287.28 173.259 285.044C172.733 283.569 172.055 282.08 172.45 280.413C172.575 279.884 172.176 279.454 171.934 279.023C170.074 275.718 168.198 272.422 166.322 269.126C165.359 267.433 163.853 266.398 162.088 265.706C161.423 265.445 160.761 265.512 160.198 266.025C159.885 266.31 159.495 266.532 159.254 266.864C158.08 268.486 156.37 269.411 154.737 270.446C154.171 270.805 153.629 271.208 153.105 271.628C152.771 271.895 152.506 272.273 152.532 272.712C152.678 275.143 151.427 277.277 151.098 279.607C150.759 282.011 150.346 284.407 150.101 286.821C150.02 287.624 150.286 288.494 150.532 289.292C151.952 293.891 152.685 298.632 153.517 303.351C154.026 306.243 154.51 309.14 155.004 312.035C155.018 312.118 155.028 312.202 155.028 312.287C155.041 315.663 155.962 318.958 155.935 322.345C155.925 323.851 155.937 325.375 156.475 326.843C156.67 327.376 156.593 328.012 156.624 328.601C156.728 330.624 156.841 332.648 156.918 334.671C156.983 336.35 157.212 338.025 156.827 339.709C156.681 340.345 156.83 341.052 156.862 341.727C156.978 344.256 157.106 346.786 157.215 349.315C157.233 349.713 157.296 350.2 156.698 350.274C156.006 350.358 155.308 350.078 155.192 349.63C154.962 348.737 154.758 347.834 154.591 346.927C153.374 340.319 152.193 333.704 150.955 327.1C149.934 321.651 148.851 316.214 147.8 310.77C147.083 307.059 146.32 303.353 145.677 299.63C145.332 297.642 145.184 295.612 145.019 293.606C144.863 291.702 145.211 289.74 145.926 287.914C146.45 286.578 146.353 285.36 145.756 284.028C143.891 279.87 140.644 277.219 136.657 275.31C136.044 275.017 135.399 274.78 134.702 274.936C133.141 275.288 131.575 275.625 130.032 276.042C128.926 276.34 128.123 277.056 127.599 278.102C125.938 281.422 124.301 284.75 123.243 288.331C122.76 289.965 122.849 291.665 122.556 293.318C122.468 293.812 122.58 294.367 122.406 294.819C121.621 296.846 122.146 298.814 122.621 300.771C123.895 306.008 125.242 311.225 126.504 316.463C127.035 318.668 127.379 320.918 127.887 323.129C128.62 326.323 129.483 329.489 130.18 332.69C130.572 334.492 130.774 336.336 131 338.169C131.19 339.704 129.533 340.454 128.457 340.192C127.81 340.036 127.216 339.378 127.269 338.742C127.539 335.494 126.685 332.421 125.92 329.318C124.996 325.567 124.219 321.781 123.363 318.012C121.893 311.536 120.397 305.067 118.945 298.588C118.597 297.036 118.34 295.459 118.105 293.885C117.755 291.546 117.105 289.282 116.409 287.037C115.535 284.214 115.742 281.371 116.017 278.513C116.057 278.097 116.454 277.97 116.767 278.082C117.316 278.279 117.871 278.548 118.065 279.181C118.188 279.584 118.228 280.011 118.36 280.408C118.66 281.312 119.081 282.083 120.158 282.31C120.626 282.409 121.039 282.767 121.621 283.087L121.624 283.084ZM154.019 330.941C154.57 329.218 154.584 327.945 154.276 326.729C153.9 325.235 153.877 323.728 153.789 322.218C153.712 320.875 153.837 319.497 153.569 318.195C153.028 315.547 152.993 312.849 152.497 310.189C151.697 305.902 151.003 301.592 150.143 297.313C149.512 294.168 148.431 291.159 147.436 288.122C147.399 288.011 147.169 287.902 147.03 287.904C146.916 287.904 146.726 288.058 146.705 288.169C146.093 291.338 146.134 294.522 146.677 297.684C147.162 300.507 147.765 303.313 148.363 306.115C149.031 309.244 149.869 312.343 150.425 315.491C151.258 320.216 152.385 324.874 153.387 329.561C153.453 329.87 153.652 330.152 154.018 330.939L154.019 330.941Z" fill="#8DC0FF"/>
<path d="M226.482 301.174C226.936 297.549 227.299 294.394 227.732 291.249C228.252 287.47 229.179 283.792 231.174 280.496C232.445 278.396 234.036 276.543 236.159 275.214C237.106 274.621 238.096 274.201 239.239 274.207C241.255 274.215 243.261 273.804 245.291 274.212C246.126 274.379 246.928 274.569 247.705 274.906C250.589 276.165 253.231 277.793 255.483 280.015C256.863 281.377 258.332 282.658 259.617 284.103C262.562 287.417 264.541 291.282 266.03 295.448C267.538 299.667 268.51 304.006 269.307 308.393C270.012 312.273 270.706 316.158 271.304 320.055C271.685 322.546 271.873 325.065 272.16 327.569C272.23 328.179 272.727 328.425 273.244 328.1C274.482 327.325 275.396 326.218 276.196 325.031C277.136 323.635 278.003 322.19 278.88 320.754C279.889 319.1 280.878 317.435 281.863 315.767C282.165 315.256 282.469 314.755 282.958 314.396C283.378 314.089 284.185 314.233 284.547 314.688C284.793 314.999 284.704 315.307 284.547 315.623C282.823 319.097 280.912 322.463 278.774 325.703C277.475 327.67 276.19 329.645 274.919 331.632C274.557 332.198 274.324 332.848 273.94 333.397C272.887 334.901 272.915 336.448 273.269 338.21C273.629 340.008 273.529 341.903 273.59 343.756C273.61 344.341 273.197 344.636 272.608 344.638C271.863 344.642 271.305 344.36 270.97 343.68C270.745 343.227 270.553 342.752 270.284 342.326C269.417 340.952 268.428 339.709 266.761 339.234C266.52 339.166 266.292 339.045 266.067 338.93C264.868 338.329 264.501 337.658 265.722 336.726C266.795 335.909 267.779 334.977 268.832 334.133C269.839 333.326 270.426 332.316 270.075 331.045C269.442 328.754 269.66 326.364 269.092 324.056C268.695 322.437 268.619 320.73 268.393 319.063C267.691 313.886 266.694 308.769 265.643 303.659C264.875 299.926 263.369 296.428 262.251 292.806C261.945 291.818 261.321 291.015 260.834 290.131C257.745 284.529 253.229 280.327 247.875 276.952C246.193 275.892 244.393 275.409 242.359 275.46C240.559 275.506 239.107 276.079 237.767 277.216C234.9 279.649 233.151 282.734 232.165 286.329C230.887 290.985 230.611 295.789 229.926 300.534C229.502 303.468 229.465 306.4 229.69 309.356C230.107 314.823 230.23 320.324 230.885 325.759C231.3 329.192 231.193 332.662 231.838 336.063C231.931 336.552 231.889 337.069 231.877 337.572C231.861 338.218 232.162 339.024 231.427 339.405C230.668 339.799 229.79 339.797 228.968 339.512C228.454 339.335 228.177 338.927 228.099 338.371C227.393 333.374 226.266 328.459 225.178 323.535C224.979 322.633 224.735 321.74 224.48 320.853C223.453 317.276 222.866 313.626 222.68 309.914C222.43 304.941 222.209 299.966 221.961 294.993C221.838 292.551 221.776 290.105 221.258 287.696C221.117 287.041 221.126 286.355 221.063 285.682C220.836 283.249 220.592 280.816 220.389 278.38C220.323 277.589 220.588 277.401 221.442 277.487C223.831 277.726 223.699 277.754 224.165 280.032C224.642 282.365 224.555 284.733 224.882 287.056C225.427 290.908 225.496 294.782 225.737 298.649C225.782 299.375 225.89 300.08 226.489 301.168L226.482 301.174Z" fill="#8DC0FF"/>
<path d="M206.816 296.647C207.032 301.091 207.089 304.385 207.379 307.658C207.765 312.031 207.611 316.415 207.502 320.771C207.342 327.107 207.992 333.389 208.131 339.7C208.149 340.457 208.219 341.217 208.208 341.974C208.198 342.767 207.797 343.203 207.011 343.344C206.683 343.404 206.342 343.421 206.006 343.418C205.076 343.409 204.647 343.038 204.457 342.094C204.408 341.848 204.375 341.597 204.364 341.347C204.114 335.198 203.895 329.049 203.605 322.902C203.529 321.295 204.009 319.743 203.828 318.122C203.661 316.626 203.545 315.108 203.842 313.587C203.968 312.94 203.861 312.242 203.83 311.569C203.367 301.968 202.977 292.363 202.388 282.769C202.193 279.603 201.824 276.432 200.989 273.318C199.947 269.428 199.127 265.477 197.992 261.606C197.769 260.845 198.097 260.488 198.869 260.574C199.368 260.629 199.859 260.769 200.356 260.843C200.929 260.927 201.24 261.261 201.398 261.794C201.833 263.243 202.436 264.661 202.682 266.139C203.07 268.476 203.826 270.705 204.418 272.979C204.865 274.695 205.071 276.444 205.41 278.167C206.691 284.662 206.269 291.268 206.814 296.643L206.816 296.647Z" fill="#8DC0FF"/>
<path d="M201.633 240.69C202.395 240.822 203.231 240.921 204.042 241.123C204.856 241.325 205.279 241.61 204.636 242.496C203.945 243.448 203.328 244.457 202.69 245.449C202.333 246.004 202.389 246.298 202.938 246.723C203.537 247.187 204.166 247.611 204.747 248.096C204.912 248.235 205.03 248.529 205.024 248.748C205.014 249.135 204.666 249.286 204.342 249.376C203.414 249.629 202.495 249.585 201.637 249.13C201.118 248.854 200.642 248.502 200.152 248.175C198.533 247.098 196.875 246.124 194.938 245.688C194.131 245.507 193.261 245.347 192.686 244.654C192.552 244.493 192.545 244.183 192.57 243.951C192.582 243.839 192.814 243.649 192.925 243.665C194.423 243.863 195.449 243.023 196.506 242.155C197.967 240.956 199.846 241.128 201.63 240.692L201.633 240.69Z" fill="#8DC0FF"/>
<path d="M107.537 340.377C106.686 340.375 106.211 340.057 106.185 339.231C106.095 336.376 105.593 333.532 106.007 330.661C106.187 329.419 106.232 328.156 106.322 326.901C106.449 325.11 106.032 323.368 105.607 321.672C104.322 316.539 103.488 311.315 102.414 306.14C101.782 303.093 101.003 300.089 100.231 297.083C99.2063 293.093 98.0004 289.148 96.8789 285.183C96.1934 282.755 95.4797 280.334 94.8521 277.893C94.4144 276.182 94.0804 274.446 93.7412 272.712C93.5706 271.835 93.9662 271.489 94.8926 271.635C95.3074 271.7 95.717 271.809 96.1283 271.891C97.9407 272.254 97.8949 272.254 97.9565 274.133C97.9863 275.045 98.1551 275.971 98.3889 276.857C99.8004 282.224 101.02 287.638 102.631 292.954C103.262 295.037 103.654 297.192 104.172 299.31C104.533 300.778 105.019 302.223 105.287 303.707C106.269 309.167 107.282 314.618 108.505 320.032C108.892 321.746 109.001 323.521 109.286 325.261C109.549 326.873 109.208 328.457 109.047 330.034C108.804 332.398 108.938 334.745 109.003 337.1C109.019 337.691 109.071 338.28 109.062 338.869C109.045 340.008 108.655 340.38 107.535 340.377H107.537Z" fill="#8DC0FF"/>
<path d="M92.8125 259.121C93.5701 260.082 94.1678 260.785 94.7004 261.536C95.0361 262.009 95.3069 262.538 95.5442 263.069C95.6461 263.295 95.5072 263.563 95.2611 263.695C94.1291 264.301 92.8195 264.129 92.2465 263.385C91.2709 262.118 90.2548 260.882 89.2862 259.609C89.0929 259.354 88.9962 259.006 88.9224 258.686C88.7695 258.031 89.0261 257.498 89.6748 257.275C90.8683 256.865 92.1005 256.568 93.2871 256.138C94.0957 255.844 94.7619 256.338 95.5037 256.382C95.8465 256.401 95.9678 256.893 95.7129 257.168C95.4317 257.47 95.1399 257.779 94.7988 258.003C94.2416 258.367 93.6404 258.662 92.8142 259.121H92.8125Z" fill="#8DC0FF"/>
<path d="M99.4631 28.1077C99.7859 27.8868 99.8122 27.5316 99.8678 27.2289C100.507 23.6765 101.865 20.3141 103.189 16.9424C103.911 15.0998 104.66 13.2649 105.376 11.4192C105.623 10.7813 105.959 10.1928 106.358 9.62599C107.195 8.43362 108.176 8.04131 109.703 8.32242C111.364 8.62823 113.013 8.96185 114.618 9.47926C116.759 10.1681 118.297 11.5149 119.669 13.0625C119.764 13.1707 119.865 13.3081 119.874 13.4379C119.973 14.7121 120.696 15.7948 121.321 16.8667C122.118 18.232 122.64 19.6777 123.222 21.1064C123.677 22.22 124.007 23.3753 124.404 24.509C124.449 24.6372 124.574 24.7406 124.693 24.8997C125.342 24.3761 125.576 23.6811 125.734 23.0015C125.983 21.9312 126.213 20.8423 126.267 19.7534C126.37 17.6328 126.914 15.5986 127.688 13.6263C128.14 12.4741 128.675 11.3157 129.592 10.3504C129.992 9.92872 130.465 9.61209 131.032 9.51169C131.975 9.34334 132.849 8.99737 133.765 8.76569C134.964 8.46297 136.186 8.56182 137.395 8.67765C139.34 8.86454 141.018 9.69704 142.696 10.5234C142.974 10.6608 143.221 10.8662 143.514 10.9605C145.539 11.603 146.313 13.1598 146.99 14.78C147.325 15.5801 147.604 16.4002 147.895 17.2158C148.007 17.5324 148.157 17.8629 148.156 18.1857C148.148 19.3426 148.499 20.4423 148.722 21.5651C148.889 22.4007 148.803 23.261 148.923 24.1167C149.109 25.431 149.042 26.7732 149.087 28.1031C149.093 28.293 149.084 28.4892 149.133 28.6699C149.478 29.9318 149.34 31.2292 149.484 32.5065C149.58 33.3606 149.518 34.2178 149.394 35.075C149.203 36.3971 149.085 37.7285 148.948 39.0568C148.79 40.5751 148.653 42.0949 148.492 43.6131C148.387 44.6062 148.341 45.6148 148.114 46.5863C147.748 48.1447 147.884 49.7171 147.76 51.2801C147.698 52.074 147.655 52.871 147.59 53.6664C147.57 53.9012 147.57 54.1436 147.606 54.3753C147.678 54.8449 147.66 55.3746 147.91 55.7577C148.157 56.1361 148.681 56.377 149.099 56.6581C149.821 57.1431 150.559 57.6065 151.277 58.0945C151.384 58.1671 151.486 58.3324 151.472 58.442C151.445 58.6598 151.215 58.7247 151.001 58.7571C150.899 58.7726 150.781 58.7757 150.686 58.7448C149.379 58.3169 148.17 57.7238 147.115 56.9083C146.518 56.4481 146.366 55.7654 146.237 55.1043C146.109 54.4495 146.021 53.7869 145.939 53.1258C145.904 52.8432 145.867 52.5389 145.941 52.2686C146.537 50.0862 146.401 47.8204 146.869 45.6287C147.212 44.0224 147.09 42.4053 147.221 40.7975C147.249 40.4654 147.223 40.1256 147.291 39.8013C147.598 38.3355 147.546 36.8559 147.549 35.3777C147.552 33.3714 147.553 31.3666 147.549 29.3603C147.539 26.1168 147.274 22.8903 146.591 19.7024C146.26 18.1564 145.813 16.6366 145.156 15.1693C144.608 13.9445 143.68 12.9683 142.673 12.0493C142.424 11.8223 142.047 11.7018 141.721 11.5474C140.391 10.9234 138.939 10.6068 137.494 10.3365C136.149 10.0863 134.743 10.0569 133.402 10.3303C131.81 10.6531 130.71 11.6292 130.063 12.9606C129.316 14.4974 128.875 16.1161 128.665 17.7841C128.278 20.8562 127.868 23.9251 127.525 27.0018C127.42 27.9424 127.34 28.8954 127.621 29.8468C127.754 30.2963 127.737 30.7952 127.709 31.2693C127.564 33.7622 128.046 36.2118 128.305 38.6768C128.5 40.5225 128.659 42.3713 128.914 44.2093C129.257 46.6867 129.007 49.1672 129.073 51.6446C129.081 51.9304 129.079 52.2701 128.746 52.3937C128.296 52.5605 127.807 52.5667 127.374 52.3119C127.252 52.2393 127.155 52.1033 127.099 51.9767C127.044 51.8485 127.041 51.6971 127.034 51.5566C126.954 49.7001 126.885 47.8436 126.793 45.9886C126.756 45.2287 126.691 44.4703 126.6 43.7135C126.12 39.741 125.757 35.75 124.54 31.881C123.919 29.9086 123.26 27.9486 122.483 26.018C121.851 24.4503 121.335 22.8471 120.733 21.2701C120.302 20.1442 119.828 19.0306 119.341 17.9216C119.207 17.6173 118.975 17.3439 118.76 17.0721C117.529 15.5106 116.084 14.1113 114.621 12.7289C113.957 12.1003 113.199 11.6462 112.204 11.4408C111.178 11.2292 110.208 10.7998 109.214 10.4693C108.736 10.3102 108.511 10.3643 108.287 10.7334C108.111 11.0253 107.967 11.3358 107.833 11.6447C106.898 13.7746 106.074 15.94 105.269 18.1116C104.532 20.1025 103.666 22.0547 103.096 24.0935C102.476 26.3099 101.961 28.5417 101.781 30.8291C101.707 31.7744 101.511 32.7119 101.392 33.6556C101.338 34.0804 101.312 34.5113 101.32 34.9391C101.377 37.6127 101.449 40.2847 101.511 42.9582C101.53 43.7691 101.537 44.5815 101.539 45.3924C101.539 45.6751 101.608 46.001 101.361 46.2126C100.727 46.7609 100.873 47.4188 100.944 48.0861C101.083 49.4128 101.222 50.7395 101.307 52.0694C101.368 53.0069 101.116 53.2602 100.26 53.3235C99.2701 53.3976 98.6878 53.0254 98.5766 52.1991C98.4808 51.4886 98.4376 50.7735 98.3773 50.0599C98.0777 46.5894 97.7657 43.1204 97.4861 39.6483C97.3286 37.6992 97.2359 35.7453 97.0985 33.7962C96.9734 32.0385 96.8266 30.2824 96.6907 28.5247C96.6753 28.3347 96.6475 28.1432 96.649 27.9532C96.6706 25.1376 96.5208 22.3219 96.3772 19.5155C96.1656 15.3639 96.2814 11.2168 96.1748 7.06827C96.1486 6.06433 95.8984 5.08819 95.4566 4.1553C94.9145 3.01236 94.4867 1.83698 94.2241 0.613724C94.184 0.425293 94.1175 0.210604 94.3152 0.0870429C94.5531 -0.0627754 94.8188 -0.000994999 95.0566 0.134923C95.5539 0.419114 95.9818 0.735741 96.2443 1.24852C96.8838 2.50267 97.5711 3.73674 98.2584 4.96926C98.643 5.65966 98.8762 6.38095 99.0415 7.13622C99.1573 7.66599 99.2284 8.13553 98.8947 8.64368C98.7233 8.90624 98.7418 9.28928 98.7403 9.61827C98.7295 12.0061 98.5827 14.4032 98.7774 16.7787C98.9673 19.114 98.8669 21.4493 99.0245 23.7753C99.111 25.0604 99.1697 26.3439 99.2067 27.6289C99.2129 27.8173 99.2299 28.0135 99.4739 28.1077H99.4631Z" fill="#8DC0FF"/>
<path d="M156.228 24.7664C156.192 25.9155 156.248 27.0538 156.66 28.1597C157.02 29.1265 157.074 30.1212 156.849 31.119C156.569 32.3499 156.677 33.5856 156.702 34.8258C156.733 36.3734 157.064 37.8345 157.901 39.1952C158.145 39.5906 158.191 40.0247 157.972 40.434C157.793 40.7691 157.844 41.0409 157.989 41.3777C159.465 44.7802 161.869 47.5835 164.817 50.047C165.178 50.3482 165.571 50.5289 166.053 50.6448C166.973 50.8656 167.888 51.1251 168.769 51.4448C169.296 51.6363 169.783 51.675 170.312 51.5452C171.23 51.3213 172.112 50.9799 173.091 50.9598C173.385 50.9537 173.67 50.7405 173.964 50.6324C174.356 50.4888 174.75 50.2447 175.148 50.237C176.534 50.2108 177.533 49.4632 178.531 48.7867C179.754 47.9558 180.88 47.0043 182.011 46.0684C182.434 45.7178 182.778 45.2806 183.118 44.8575C183.614 44.2396 184.014 43.5601 184.627 43.0179C184.822 42.8465 184.941 42.6411 184.791 42.38C184.661 42.153 184.592 41.9105 184.971 41.8379C185.531 41.7329 185.903 41.9136 185.958 42.2889C186.016 42.6689 186.029 43.0504 185.883 43.421C185.472 44.4605 184.978 45.4567 184.073 46.2398C183.385 46.8329 182.774 47.4909 181.97 47.982C181.452 48.2986 181.024 48.728 180.679 49.2284C179.997 50.2185 179.073 50.9784 177.898 51.5159C176.622 52.0982 175.392 52.7623 174.144 53.3925C173.301 53.8172 172.36 53.9933 171.448 54.2389C170.025 54.6219 168.583 54.9354 167.12 55.1687C166.198 55.3154 165.327 55.181 164.488 54.8289C164.082 54.659 163.751 54.4149 163.707 53.9933C163.537 52.3592 162.684 51.0695 161.465 49.8648C160.542 48.952 159.706 47.9604 158.729 47.0816C158.393 46.7804 158.117 46.4251 157.834 46.0823C157.672 45.8861 157.555 45.6282 157.701 45.4135C158.118 44.8018 157.718 44.2644 157.453 43.7948C156.915 42.8465 156.602 41.8472 156.31 40.8309C156.231 40.556 156.16 40.2718 156.019 40.0216C155.3 38.7365 154.779 37.3974 154.422 35.9919C154.236 35.2567 154.029 34.5138 153.615 33.8296C153.297 33.3029 153.31 32.7299 153.655 32.1878C153.76 32.0225 153.845 31.8464 153.937 31.675C154.407 30.8008 154.663 29.9235 154.358 28.9304C153.931 27.5449 154.07 26.0946 153.919 24.6752C153.752 23.1292 154.236 21.6511 154.958 20.2486C155.65 18.9049 156.284 17.5473 156.693 16.1047C156.875 15.4622 157.198 14.8521 157.485 14.2358C157.623 13.9424 157.895 13.7771 158.251 13.9393C159.027 14.2914 159.549 13.9733 160.034 13.4589C161.076 12.3577 162.363 11.5221 163.688 10.7205C164.876 10.0023 166.182 9.69339 167.588 9.6625C168.383 9.64551 169.182 9.68104 169.977 9.65478C171.457 9.60536 172.816 9.97604 174.078 10.6232C175.965 11.5901 177.833 12.5894 179.694 13.5979C180.099 13.8173 180.495 14.0875 180.8 14.4073C182.072 15.7448 183.577 16.8893 184.726 18.3365C185.438 19.2354 186.026 20.1869 186.633 21.1352C186.797 21.39 186.731 21.5785 186.507 21.7561C186.233 21.9739 185.952 21.9955 185.643 21.8117C185.319 21.6186 185.144 21.3221 184.961 21.0332C183.359 18.5141 181.201 16.3827 178.747 14.571C176.656 13.0265 174.135 12.0411 171.442 11.5375C170.974 11.4495 170.502 11.397 170.061 11.2225C168.862 10.7483 167.783 11.1561 166.714 11.5978C166.524 11.6766 166.368 11.8171 166.193 11.9268C164.8 12.7994 163.273 13.4358 161.669 13.9053C160.909 14.1277 160.37 14.5416 159.972 15.1193C159.499 15.8081 159.068 16.5186 158.741 17.2785C158.341 18.2083 157.871 19.0995 157.21 19.9197C156.435 20.8803 156.412 22.0681 156.239 23.1925C156.16 23.7084 156.225 24.2412 156.225 24.7664H156.228Z" fill="#8DC0FF"/>
</svg>
