<svg width="218" height="233" viewBox="0 0 218 233" fill="none" xmlns="http://www.w3.org/2000/svg">
<path d="M12.7512 11.224C12.9934 11.5788 13.0531 11.6829 13.1279 11.7742C13.4207 12.1327 13.5381 12.1856 13.8351 11.9872C14.4876 11.5521 15.1497 11.1327 15.7906 10.6763C17.2969 9.60267 18.7679 8.48404 20.3686 7.52974C21.6418 6.7708 22.9686 6.1062 24.2272 5.32048C25.0591 4.80073 25.9568 4.36374 26.9817 4.33818C27.3238 4.32966 27.6177 4.17447 27.9281 4.05944C28.67 3.78374 29.4302 3.5975 30.2336 3.63037C30.7764 3.65228 31.2834 3.52508 31.8032 3.33823C33.7465 2.63833 35.7147 2.0072 37.6629 1.32008C38.0627 1.17888 38.4535 1.05777 38.8698 1.09672C40.1351 1.21479 41.3279 0.796672 42.5385 0.567834C43.1544 0.450981 43.7557 0.367601 44.3759 0.362732C45.2431 0.355429 46.1128 0.417507 46.9533 0.08764C47.2114 -0.0139981 47.5248 0.00426028 47.8127 0.00365167C50.5898 -0.00182583 53.3663 2.26725e-10 56.1434 0.00182583C56.5566 0.00182583 56.9735 -0.0188669 57.349 0.215448C57.4513 0.278744 57.5803 0.33291 57.6978 0.333519C58.5662 0.335345 59.4049 0.531926 60.2551 0.65304C61.0567 0.76685 61.7815 0.946391 62.4461 1.37059C63.3384 1.93964 64.2708 2.42836 65.0912 3.13617C65.8933 3.82756 66.1435 4.69118 66.2597 5.61201C66.3674 6.46893 66.2889 7.34959 66.2822 8.2199C66.2792 8.63315 66.1617 9.02936 66.0899 9.43165C65.9043 10.4712 65.4149 11.3226 64.8848 12.2191C63.9409 13.8149 63.0377 15.4338 61.9921 16.9669C61.7846 17.2712 61.5046 17.5256 61.2636 17.808C60.3056 18.9296 59.33 20.0428 58.4001 21.1815C57.2571 22.5813 56.0009 23.8886 54.9383 25.3535C54.0443 25.9841 53.6298 27.0388 52.7923 27.7381C52.0011 28.399 51.3323 29.2042 50.5904 29.9266C49.7347 30.761 48.893 31.6034 48.232 32.61C48.0981 32.8133 47.9003 32.9752 47.7257 33.1504C46.3824 34.4991 45.091 35.9062 43.6753 37.1752C42.5987 38.1405 41.7686 39.3619 40.5264 40.1501C40.3225 40.2797 40.1399 40.4763 40.0097 40.6814C39.5106 41.4659 38.7979 42.024 38.1023 42.6168C37.064 43.5017 36.0202 44.3933 35.2607 45.5539C35.1931 45.6568 35.1164 45.7664 35.0178 45.8351C33.9522 46.5782 33.2632 47.6957 32.3095 48.5526C31.7873 49.0218 31.3242 49.5568 30.827 50.0546C30.4764 50.4058 30.1027 50.7344 29.7613 51.0941C29.5513 51.3151 29.0115 51.3564 29.1843 51.7752C29.3079 52.074 29.7503 52.0594 30.0784 52.0904C30.9803 52.1762 31.875 52.2018 32.7897 52.1665C35.2303 52.0722 37.6787 52.0764 40.0973 52.5493C41.1965 52.7642 42.3096 52.8628 43.4325 52.8597C46.1676 52.8524 48.9033 52.8561 51.6384 52.8597C52.2574 52.8603 52.8654 52.8634 53.4716 53.094C53.841 53.2346 54.2926 53.2322 54.6973 53.192C55.8391 53.0788 56.8913 53.4586 57.9601 53.7337C58.237 53.8049 58.5005 53.9388 58.7945 53.9224C59.4664 53.884 60.0841 54.041 60.7225 54.2693C62.7109 54.9789 64.6591 55.7725 66.284 57.1462C68.0527 58.6403 69.7069 60.2732 70.7774 62.3595C71.3538 63.4824 71.7317 64.7009 72.0908 65.9248C72.4024 66.988 72.3981 68.0409 72.4188 69.1127C72.4243 69.4006 72.3963 69.7237 72.5144 69.9678C72.8382 70.6379 72.7925 71.3378 72.7956 72.0395C72.7992 72.9926 72.7919 73.9457 72.7992 74.8988C72.8053 75.6875 72.7986 76.469 72.5473 77.2346C72.4462 77.5432 72.4426 77.8876 72.4237 78.2175C72.4024 78.5894 72.4322 78.9643 72.4048 79.3355C72.3817 79.649 72.3081 79.9581 72.2497 80.3142C72.7688 80.3525 73.1887 80.159 73.6221 80.0677C74.0664 79.974 74.5094 79.8638 74.9428 79.7287C75.5471 79.54 76.1344 79.4767 76.7722 79.6197C77.4137 79.7634 78.0954 79.6654 78.7405 79.862C78.8482 79.8948 79.0357 79.8942 79.0923 79.8285C79.4307 79.4335 79.853 79.6106 80.2535 79.6167C81.3307 79.6331 82.408 79.641 83.4852 79.6538C83.9812 79.6599 84.4736 79.6441 84.9471 79.865C85.1626 79.9654 85.4291 79.9886 85.6732 79.991C86.7139 80.002 87.67 80.386 88.656 80.6398C89.8951 80.9587 90.8318 81.7779 91.797 82.5447C92.1165 82.7985 92.3381 83.1673 92.7665 83.2982C92.9023 83.3396 93.0295 83.5009 93.1031 83.6384C93.3837 84.1612 93.7933 84.5811 94.2278 84.9567C95.0604 85.6766 95.6136 86.6103 96.1383 87.5305C96.6653 88.4537 96.9672 89.5054 97.3713 90.4987C97.6379 91.1548 97.8095 91.8254 97.8594 92.5393C97.8941 93.0299 98.073 93.5089 98.1388 93.9994C98.2654 94.9397 98.5922 95.8496 98.5502 96.8161C98.5435 96.9749 98.6031 97.1441 98.6616 97.2969C99.247 98.8166 99.4248 100.418 99.6524 102.014C99.7394 102.625 99.9561 103.214 99.7065 103.828C99.9141 104.402 99.6432 104.984 99.7011 105.533C99.8021 106.49 99.4868 107.43 99.6104 108.341C99.737 109.273 99.8544 110.125 99.2872 110.938C99.2525 111.621 99.0164 112.308 99.667 112.903C100.109 113.308 100.047 114.348 99.6731 114.841C99.5982 114.939 99.4947 115.015 99.4168 115.111C99.3383 115.208 99.272 115.323 99.3755 115.44C99.4631 115.54 99.5842 115.557 99.7084 115.514C99.9171 115.441 100.028 115.128 100.351 115.325C100.768 115.58 101.31 115.687 101.492 116.207C101.64 116.631 101.832 117.103 101.775 117.522C101.595 118.857 101.423 120.211 100.642 121.377C100.528 121.547 100.392 121.719 100.34 121.909C100.27 122.165 100.495 122.484 100.148 122.688C99.7881 122.899 99.4381 123.11 98.9945 123.081C98.7468 123.064 98.4972 123.076 98.2489 123.085C98.084 123.091 97.8856 123.059 97.7602 123.138C97.036 123.591 96.2368 123.445 95.4603 123.457C93.9704 123.48 92.4878 123.493 91.0004 123.706C89.3601 123.939 87.6883 123.838 86.0347 123.77C85.1041 123.731 84.1523 123.598 83.2625 123.331C82.0045 122.953 80.7653 122.475 79.5767 121.916C78.8409 121.571 78.1818 121.033 77.5458 120.511C76.998 120.06 76.4369 119.663 75.7893 119.369C74.9634 118.996 74.1583 118.586 73.3092 118.253C72.2758 117.848 71.2777 117.336 70.4281 116.584C70.1828 116.367 69.8755 116.223 69.6101 116.026C69.1196 115.664 68.5414 115.418 68.2389 114.813C68.1239 114.583 67.8074 114.443 67.5658 114.289C66.9401 113.891 66.3133 113.487 65.9031 112.855C65.491 112.221 64.8331 111.847 64.3487 111.278C63.6049 110.404 63.2878 109.325 62.7054 108.381C62.5131 108.07 62.4358 107.688 62.2471 107.374C61.7182 106.494 61.4979 105.554 61.574 104.533C61.6075 104.077 61.5752 103.626 61.3744 103.196C61.1565 102.73 61.2034 102.224 61.1985 101.728C61.1973 101.571 61.1632 101.414 61.1254 101.102C60.8546 101.444 60.6331 101.664 60.4821 101.925C59.7329 103.22 58.7421 104.34 57.8846 105.557C56.9814 106.838 56.0265 108.083 55.0935 109.343C55.0442 109.409 55.0053 109.498 54.9389 109.534C53.8623 110.111 53.4356 111.249 52.6956 112.116C52.2397 112.65 51.7729 113.18 51.2732 113.673C50.6245 114.312 49.9477 114.919 49.5381 115.758C49.092 116.67 48.3507 117.345 47.6118 118C46.7476 118.766 46.0885 119.753 45.0612 120.343C44.9273 120.42 44.8372 120.585 44.7435 120.72C44.1744 121.546 43.4368 122.217 42.7265 122.911C42.0777 123.546 41.3389 124.093 40.8398 124.872C39.7875 125.606 39.0724 126.709 37.9781 127.413C37.2545 127.878 36.6033 128.476 36.075 129.18C35.6733 129.714 35.1663 130.143 34.6369 130.54C32.5913 132.071 30.6054 133.685 28.4625 135.084C28.0833 135.331 27.86 135.617 27.8801 136.092C27.9087 136.787 27.7328 137.496 28.1089 138.161C28.2026 138.326 28.1801 138.564 28.188 138.769C28.2203 139.592 28.1497 140.416 28.5033 141.21C28.6286 141.491 28.5453 141.864 28.5587 142.195C28.5879 142.934 28.5057 143.677 28.838 144.392C28.9676 144.671 28.8958 145.045 28.9092 145.375C28.9348 145.992 28.9463 146.589 29.1776 147.199C29.359 147.678 29.2701 148.261 29.2896 148.798C29.3152 149.497 29.3054 150.18 29.541 150.875C29.7193 151.402 29.6189 152.023 29.6402 152.601C29.6633 153.217 29.5896 153.839 29.9128 154.422C30.023 154.621 29.9834 154.907 29.9974 155.154C30.065 156.344 29.9335 157.537 30.3084 158.718C30.4886 159.286 30.3565 159.952 30.3741 160.573C30.3918 161.189 30.3102 161.814 30.6371 162.395C30.7302 162.561 30.7125 162.798 30.7162 163.004C30.7351 164.081 30.7454 165.158 30.7551 166.236C30.7564 166.36 30.7497 166.487 30.7168 166.605C30.6967 166.676 30.6194 166.783 30.5659 166.784C29.9165 166.799 29.7582 167.694 29.1551 167.638C28.6682 167.593 28.2696 167.651 27.8612 167.885C27.7036 167.975 27.5234 167.885 27.4108 167.764C26.8387 167.15 26.3579 166.513 26.4456 165.579C26.5113 164.881 26.4516 164.172 26.4474 163.467C26.4443 163.012 26.4663 162.555 26.2502 162.129C26.0755 161.783 26.1102 161.402 26.098 161.031C26.0621 159.921 26.1486 158.817 25.8114 157.711C25.6136 157.063 25.7438 156.313 25.7353 155.61C25.7292 155.113 25.7481 154.617 25.5089 154.152C25.3318 153.808 25.3799 153.424 25.3689 153.053C25.3421 152.107 25.414 151.168 25.0951 150.23C24.9167 149.706 25.0275 149.081 25.0184 148.502C25.0105 147.964 25.0305 147.431 24.7707 146.924C24.5759 146.544 24.6526 146.111 24.6441 145.699C24.6319 145.121 24.6508 144.552 24.411 143.992C24.1961 143.49 24.3136 142.927 24.299 142.391C24.2838 141.855 24.3154 141.322 24.0531 140.814C23.817 140.358 23.9752 139.831 23.8809 139.345C23.8437 139.152 23.7099 139.051 23.5267 139.103C23.2491 139.182 22.971 139.275 22.7136 139.403C20.3004 140.607 17.7662 141.488 15.185 142.244C13.2466 142.811 11.3447 143.5 9.37401 143.959C7.72407 144.343 6.05891 144.638 4.37366 144.811C3.96346 144.853 3.54534 144.815 3.13149 144.823C2.75841 144.829 2.51557 144.623 2.31108 144.346C2.18205 144.171 2.22222 143.918 2.40481 143.809C3.0828 143.404 3.85817 143.254 4.59581 143.024C5.17825 142.842 5.76008 142.637 6.40034 142.604C6.96087 142.576 7.51714 142.349 8.07341 142.211C10.1865 141.69 12.3069 141.174 14.3366 140.371C15.5672 139.884 16.7437 139.278 17.8526 138.549C18.0644 138.41 18.2476 138.247 18.3297 137.997C18.3845 137.83 18.4989 137.748 18.6578 137.665C20.0125 136.96 21.1945 135.991 22.4494 135.135C23.2303 134.602 23.3794 134.121 23.0708 133.216C22.9199 132.772 22.8499 132.341 22.842 131.883C22.8377 131.637 22.8633 131.359 22.7616 131.151C22.4951 130.606 22.4774 130.037 22.4628 129.455C22.4573 129.252 22.4032 129.048 22.3508 128.849C22.3088 128.69 22.1901 128.541 22.1859 128.384C22.1597 127.391 21.9717 126.427 21.7842 125.456C21.6838 124.935 21.7477 124.388 21.4854 123.887C21.3953 123.715 21.3996 123.484 21.3947 123.279C21.3831 122.782 21.3789 122.294 21.1464 121.826C21.0429 121.616 21.0508 121.342 21.0441 121.096C21.0314 120.639 21.0101 120.197 20.808 119.764C20.6911 119.514 20.6759 119.204 20.6662 118.918C20.651 118.461 20.6522 118.009 20.4197 117.59C20.3619 117.486 20.3351 117.351 20.3363 117.231C20.3418 116.522 20.1683 115.855 20.0028 115.169C19.8513 114.539 19.7253 113.883 19.637 113.237C19.5421 112.543 19.5445 111.839 19.2554 111.183C19.3784 109.971 18.8124 108.835 18.8629 107.63C18.8787 107.254 18.8166 106.898 18.6657 106.542C18.5561 106.284 18.5196 105.982 18.5074 105.696C18.4788 105.036 18.5093 104.378 18.2123 103.751C18.1131 103.541 18.1478 103.262 18.1423 103.015C18.1307 102.436 18.1563 101.859 17.8751 101.316C17.7856 101.143 17.7929 100.912 17.7862 100.707C17.7655 100.047 17.7802 99.3941 17.4941 98.7606C17.3663 98.4782 17.4217 98.1094 17.4107 97.7789C17.39 97.1611 17.4521 96.5385 17.1478 95.9537C17.0583 95.782 17.0723 95.5489 17.0663 95.3432C17.0419 94.5192 17.0991 93.6927 16.737 92.9039C16.6244 92.6592 16.6877 92.3324 16.6792 92.0427C16.6621 91.4244 16.7072 90.8078 16.4254 90.2144C16.3091 89.9692 16.3408 89.6454 16.3353 89.3569C16.3225 88.6546 16.3079 87.9723 16.0468 87.2858C15.8795 86.8446 15.9665 86.3047 15.9501 85.8093C15.9318 85.2737 15.9647 84.7449 15.7358 84.2239C15.6092 83.936 15.6269 83.5763 15.6178 83.2477C15.5989 82.5849 15.6086 81.9215 15.6019 81.2587C15.5995 81.0104 15.6579 80.7305 15.5648 80.5193C15.0761 79.4067 15.2684 78.237 15.227 77.0873C15.2088 76.5919 15.2532 76.0941 15.0213 75.6254C14.8302 75.2396 14.8886 74.8129 14.8862 74.4015C14.8789 72.827 14.8801 71.2519 14.8771 69.6769C14.8771 69.3866 14.9434 69.0743 14.8588 68.8102C14.406 67.397 14.6093 65.9369 14.5034 64.5006C14.4973 64.4178 14.4985 64.3345 14.4894 64.2523C14.4444 63.8525 14.3768 63.7928 13.9453 63.7186C12.355 63.4453 10.7525 63.329 9.1397 63.3485C8.93277 63.351 8.72402 63.3315 8.51831 63.3485C8.02229 63.3905 7.63704 63.1787 7.30108 62.844C7.03695 62.5811 6.77464 62.3157 6.51171 62.051C6.33339 61.8714 6.17515 61.6779 6.18306 61.4071C6.19524 60.9956 5.93414 60.827 5.59636 60.712C5.43995 60.6591 5.29632 60.5586 5.13686 60.5252C3.51674 60.1837 2.22405 59.2014 0.85163 58.3695C0.57532 58.2021 0.494375 57.9806 0.358655 57.7207C0.0160066 57.064 -0.0211187 56.3891 0.00809466 55.6825C0.0227013 55.3264 0.168768 55.0793 0.425602 54.8286C1.28496 53.9899 2.34821 53.5675 3.47353 53.276C4.11318 53.1105 4.77717 53.0405 5.41987 52.8828C6.71864 52.5633 8.03811 52.5274 9.36488 52.5031C11.0952 52.4708 10.8128 52.5031 10.9954 50.8945C11.069 50.2445 11.0246 49.5823 11.1895 48.9336C11.3064 48.4765 11.1512 48.045 10.9832 47.6086C10.7184 46.9209 10.4147 46.2399 10.5772 45.4505C10.6308 45.1918 10.5024 44.8778 10.4038 44.6088C9.70571 42.702 9.23038 40.7271 8.84817 38.746C8.49761 36.9281 8.20426 35.0718 8.4191 33.1991C8.47936 32.6739 8.65829 32.1615 8.79401 31.646C8.80009 31.6222 8.91755 31.6234 8.98328 31.621C9.47565 31.6046 9.65458 31.5194 9.68258 31.2138C9.7124 30.8864 9.73553 30.5462 9.67954 30.2261C9.5 29.2018 9.4507 28.1708 9.43913 27.1355C9.43731 26.97 9.45983 26.7959 9.41783 26.6401C9.15004 25.6511 9.3308 24.6701 9.50486 23.7036C9.67284 22.7712 9.85847 21.8303 10.3715 20.9995C10.5511 20.7086 10.5523 20.3684 10.5858 20.0379C10.6557 19.3374 10.7239 18.6369 10.8176 17.9394C10.8523 17.682 10.842 17.4483 10.7257 17.2182C10.5334 16.8378 10.6113 16.4915 10.8834 16.186C11.5638 15.4216 12.0318 14.5744 11.9679 13.5087C11.9545 13.2884 12.1024 13.1314 12.1992 12.95C12.4469 12.4838 12.725 12.0262 12.753 11.2307L12.7512 11.224ZM23.7007 55.1511C24.1442 55.9448 24.2363 56.7725 23.977 57.6343C23.9174 57.8315 23.8742 58.0439 23.7665 58.2131C23.5747 58.5143 23.7658 58.6744 23.9533 58.8345C24.0775 58.9403 24.2241 59.0262 24.3708 59.0998C25.2174 59.5258 25.5698 60.3213 25.8929 61.135C25.9337 61.2373 25.9532 61.404 25.8978 61.477C25.7031 61.7345 25.6458 62.068 25.3251 62.2634C23.6928 63.2584 22.0264 64.1251 20.0375 64.0758C19.749 64.0685 19.4587 64.1087 19.1702 64.1385C18.5841 64.1994 18.4734 64.301 18.4648 64.9279C18.4533 65.7562 18.4728 66.5851 18.4971 67.4128C18.5032 67.6137 18.5324 67.8425 18.6353 68.0056C18.8988 68.4231 18.8726 68.8759 18.8726 69.3293C18.8726 71.028 18.8647 72.7266 18.8684 74.4252C18.869 74.7545 18.8142 75.1312 18.9499 75.4039C19.3047 76.1166 19.2098 76.8573 19.2268 77.5961C19.2481 78.5382 19.0844 79.4962 19.5482 80.3982C19.6516 80.5996 19.6005 80.8869 19.6023 81.1346C19.6072 81.7974 19.5969 82.4601 19.6048 83.1229C19.6084 83.412 19.5555 83.7443 19.6766 83.9811C20.0758 84.7637 19.9791 85.5933 20.0107 86.4137C20.0265 86.8269 19.9687 87.2724 20.2426 87.612C20.5871 88.0393 20.5852 88.528 20.6169 89.0222C20.6327 89.2699 20.5731 89.5565 20.6771 89.7592C21.077 90.5382 20.9784 91.369 21.0107 92.1882C21.0192 92.3939 20.9784 92.6379 21.0733 92.7974C21.4379 93.4115 21.3338 94.0791 21.3655 94.7334C21.3831 95.1022 21.2778 95.5002 21.4787 95.8313C21.758 96.292 21.6984 96.7875 21.716 97.2792C21.7313 97.6931 21.6114 98.1733 21.7824 98.5062C22.1281 99.1805 22.0642 99.8664 22.0879 100.561C22.0946 100.767 22.0623 101.013 22.1609 101.169C22.4999 101.704 22.4026 102.287 22.4239 102.86C22.433 103.107 22.3654 103.405 22.478 103.594C22.8651 104.245 22.7726 104.948 22.8036 105.643C22.8146 105.888 22.8103 106.166 22.9241 106.366C23.1451 106.756 23.1317 107.162 23.128 107.572C23.1177 108.81 23.691 109.977 23.5638 111.227C23.5601 111.266 23.5723 111.315 23.5942 111.347C23.9028 111.787 23.8474 112.293 23.8577 112.787C23.8644 113.12 23.8906 113.44 24.0568 113.747C24.1505 113.92 24.1967 114.14 24.1992 114.339C24.2095 115.331 24.7421 116.248 24.6118 117.259C24.6021 117.335 24.6301 117.43 24.6727 117.496C24.9624 117.942 24.9125 118.448 24.938 118.94C24.9532 119.229 24.9301 119.529 25.0938 119.785C25.2831 120.081 25.2837 120.409 25.3056 120.741C25.3221 120.985 25.3208 121.264 25.4383 121.462C25.6872 121.884 25.6836 122.328 25.6994 122.782C25.7079 123.03 25.6586 123.322 25.7712 123.515C26.1078 124.09 26.0913 124.709 26.0664 125.323C26.0469 125.806 26.4303 126.153 26.417 126.627C26.403 127.123 26.4194 127.622 26.4541 128.116C26.465 128.27 26.591 128.412 26.6403 128.567C26.7018 128.76 26.7986 128.97 26.7748 129.159C26.647 130.172 27.2075 131.081 27.1826 132.078C27.1747 132.398 27.5204 132.579 27.8192 132.432C28.1125 132.288 28.3876 132.101 28.6548 131.91C29.0242 131.647 29.3809 131.365 29.7394 131.086C30.5196 130.478 31.3388 129.911 32.063 129.241C32.6388 128.709 33.22 128.207 33.8871 127.795C34.4829 127.427 35.0976 127.068 35.3575 126.343C35.4086 126.2 35.568 126.091 35.6879 125.978C36.7311 124.989 37.6598 123.874 38.9124 123.116C39.2252 122.927 39.4905 122.647 39.7498 122.383C40.213 121.91 40.6566 121.419 41.1052 120.932C41.8592 120.114 42.7484 119.419 43.2968 118.413C43.4909 118.058 43.7831 117.743 44.0758 117.456C45.6314 115.933 47.2284 114.466 48.6325 112.776C49.8467 111.316 50.9111 109.747 52.1369 108.3C52.7461 107.581 53.278 106.796 53.8598 106.053C54.4691 105.275 55.1312 104.536 55.7076 103.735C56.4525 102.699 57.1713 101.639 57.8304 100.547C58.1761 99.9747 58.6831 99.5225 58.9886 98.948C59.6076 97.7844 60.3653 96.6883 60.7323 95.3931C61.0025 94.4394 61.3677 93.5131 61.6702 92.5686C61.9239 91.7761 62.1729 90.9941 62.8496 90.4299C63.0341 90.2759 63.1558 90.0404 63.2842 89.8286C63.8861 88.8359 64.628 87.9626 65.4052 87.1002C66.0284 86.4082 66.5865 85.6365 66.9894 84.7637C67.7009 83.2233 68.2925 81.6397 68.828 80.0336C69.2735 78.6965 69.6564 77.349 69.5492 75.9115C69.5182 75.5001 69.5352 75.0813 69.6819 74.6839C69.845 74.2421 69.814 73.7886 69.7671 73.3328C69.691 72.5915 69.5699 71.8508 69.5565 71.1083C69.5322 69.7773 69.1116 68.5022 69.0557 67.1779C69.049 67.0203 68.9601 66.8626 68.895 66.7111C68.469 65.7245 68.133 64.6966 67.8068 63.682C67.3333 62.2086 66.309 61.124 65.5087 59.8807C65.4003 59.7121 65.2311 59.5569 65.0546 59.4631C64.3158 59.0694 63.7285 58.4748 63.0645 57.983C62.3926 57.4858 61.6726 57.1127 60.9039 56.7913C59.8395 56.3465 58.7476 55.974 57.6831 55.5254C56.9066 55.1986 56.0575 54.9314 55.1592 55.0185C54.7515 55.058 54.3084 55.0976 53.9335 54.9059C53.3857 54.6253 52.8118 54.6624 52.2342 54.6411C51.947 54.6308 51.6299 54.6478 51.3804 54.534C50.8649 54.2991 50.3354 54.3058 49.798 54.3058C46.1932 54.3064 42.5884 54.3046 38.9836 54.3137C38.4462 54.3149 37.8911 54.2918 37.375 54.4111C36.2284 54.6764 35.072 54.6381 33.915 54.646C31.8847 54.6594 29.8544 54.6588 27.8241 54.6691C27.0822 54.6728 26.3391 54.6143 25.6252 54.9406C25.3774 55.0538 25.0555 55.0057 24.7676 55.0276C24.4408 55.0525 24.1042 54.974 23.7025 55.1487L23.7007 55.1511ZM46.7927 5.046C46.1311 5.0813 45.4543 5.04052 44.8128 5.17137C44.0752 5.3217 43.34 5.38499 42.5969 5.39047C41.6414 5.39777 40.7029 5.5128 39.7608 5.6753C38.5478 5.88405 37.3555 6.27783 36.0969 6.17071C35.9356 6.15732 35.7585 6.17923 35.6064 6.23461C35.0136 6.44945 34.3861 6.45311 33.7769 6.56326C32.7161 6.75498 31.6291 6.78723 30.5811 6.98686C28.4156 7.4001 26.4121 8.28016 24.5753 9.51625C23.2333 10.4194 22.1074 11.5734 20.92 12.6561C20.8299 12.7382 20.7337 12.835 20.6899 12.9446C20.4221 13.6122 19.9766 14.1313 19.4289 14.589C19.2128 14.7692 19.0467 15.0303 18.9128 15.2834C18.7545 15.5823 18.5811 15.8434 18.2896 16.0333C18.0449 16.1927 17.8982 16.4453 17.754 16.7039C17.5744 17.0259 17.3961 17.402 17.1101 17.5986C16.5854 17.9589 16.5234 18.4835 16.7291 18.9035C17.0827 19.6265 16.9774 20.3489 16.9957 21.0823C17.0048 21.4535 16.9251 21.8857 17.0857 22.1814C17.4083 22.7748 17.3992 23.3877 17.3401 23.9915C17.1898 25.5331 17.8246 26.995 17.7491 28.525C17.7418 28.6772 17.8319 28.8421 17.9013 28.9894C18.3474 29.9376 18.5543 30.9278 18.4709 31.9783C18.4478 32.2667 18.4861 32.5595 18.4612 32.8474C18.362 33.9976 18.348 35.1418 18.4259 36.2994C18.5111 37.5751 18.4375 38.861 18.432 40.1422C18.4192 43.0787 18.3857 46.0159 18.6109 48.9476C18.6298 49.1953 18.6444 49.4436 18.6772 49.6895C18.7351 50.1289 18.847 50.233 19.3114 50.3054C19.393 50.3182 19.4764 50.3206 19.5585 50.3297C21.0301 50.4904 22.5091 50.5975 23.9399 51.0217C24.1736 51.0911 24.4329 51.0777 24.6806 51.0929C25.2636 51.13 25.7481 50.9529 26.0281 50.4064C26.1443 50.18 26.2557 49.9408 26.4906 49.8428C27.059 49.6049 27.3238 49.0529 27.7243 48.6524C28.2452 48.1314 28.7778 47.6123 29.2671 47.0663C29.8179 46.4516 30.4782 45.9666 31.0747 45.4194C31.7934 44.7597 32.4586 44.0154 33.3472 43.5187C33.8682 43.2278 34.3027 42.7142 34.6642 42.2188C35.299 41.3484 36.0038 40.5506 36.7834 39.8141C37.1425 39.4745 37.5758 39.197 37.8735 38.8117C38.2824 38.2823 38.8357 37.8854 39.2087 37.3486C39.5958 36.7912 40.1454 36.4345 40.6128 35.9811C41.1429 35.4674 41.5428 34.8308 42.1617 34.3981C42.3541 34.2636 42.4837 34.022 42.6078 33.809C42.9042 33.2983 43.3272 32.8906 43.7855 32.5577C44.3588 32.1408 44.7855 31.6003 45.2638 31.1013C45.405 30.954 45.5115 30.7562 45.6783 30.6545C46.2559 30.3009 46.6381 29.7623 47.0495 29.2547C47.4907 28.71 47.8145 28.0241 48.3531 27.6151C49.1206 27.0321 49.6562 26.2555 50.3415 25.6116C51.0615 24.9348 51.824 24.2544 52.3541 23.4364C53.0534 22.3567 53.9049 21.4201 54.7174 20.4433C55.9559 18.9552 57.2157 17.4848 58.4336 15.9803C58.9235 15.3753 59.3191 14.6949 59.7682 14.0559C60.6544 12.7954 61.1321 11.3196 61.9118 10.0025C62.056 9.75908 62.1643 9.46573 62.1899 9.18577C62.2763 8.24242 62.364 7.29421 62.3634 6.34842C62.3634 5.51098 62.1108 5.25597 61.277 5.09651C60.5454 4.95592 59.8066 4.83968 59.0659 4.76543C57.7945 4.63823 56.531 4.39113 55.2469 4.4453C54.634 4.47147 54.0053 4.5658 53.4996 4.93766C53.0364 5.27788 52.5452 5.42151 51.992 5.40143C51.2063 5.37282 50.4072 5.40934 49.6391 5.27423C48.6915 5.10747 47.75 5.0533 46.7951 5.046H46.7927ZM81.4464 111.975C81.7367 111.954 82.0252 111.923 82.3143 111.916C83.229 111.893 84.1109 111.642 85.0098 111.533C86.5064 111.353 87.9238 110.973 89.2591 110.265C89.8038 109.975 90.3832 109.748 90.9584 109.522C91.5037 109.307 92.0173 109.042 92.4422 108.64C93.0995 108.018 93.7866 107.416 94.3648 106.725C94.7226 106.298 95.12 105.835 95.1846 105.225C95.2174 104.916 95.383 104.685 95.5923 104.48C95.8802 104.196 96.039 103.893 95.8291 103.486C95.7445 103.322 95.8224 103.155 95.9453 103.038C96.4493 102.556 96.3257 102.005 96.1723 101.424C95.8126 100.062 95.0598 98.8592 94.6313 97.5227C94.4664 97.0078 93.789 96.8684 93.5328 96.373C93.4963 96.3018 93.405 96.258 93.3709 96.1868C92.9771 95.3487 92.1062 94.8807 91.7094 94.0408C91.6437 93.902 91.4945 93.7779 91.354 93.703C90.8385 93.4261 90.4386 93.0037 89.9797 92.6574C88.9445 91.8766 87.8277 91.2953 86.4875 91.2686C86.2842 91.2643 86.0621 91.229 85.8838 91.1377C85.1747 90.7762 84.4298 90.8231 83.6964 90.9551C82.7141 91.1322 81.7282 91.2028 80.7337 91.2193C80.4464 91.2241 80.1062 91.1846 79.8847 91.3203C79.4349 91.5966 78.9389 91.596 78.463 91.7159C77.0644 92.0689 75.6901 92.4974 74.3469 93.0262C74.1546 93.1017 73.9446 93.1327 73.7992 93.2928C73.507 93.6135 73.1029 93.7067 72.725 93.874C71.6331 94.3585 70.4932 94.7699 69.6095 95.6287C69.1348 96.09 68.6753 96.5671 68.1823 97.0078C67.696 97.4423 67.4404 97.9822 67.3363 98.6078C67.2237 99.2834 66.9103 99.9315 67.0509 100.642C66.7387 101.07 66.8975 101.527 67.0028 101.958C67.315 103.239 67.6473 104.504 68.2304 105.712C68.7635 106.817 69.5444 107.707 70.2887 108.641C70.5394 108.955 70.8681 109.133 71.2698 109.013C71.7153 108.88 72.0762 109.033 72.4444 109.247C72.7639 109.433 73.0579 109.709 73.4486 109.707C74.1741 109.702 74.7967 110.062 75.4729 110.227C75.6719 110.276 75.8666 110.4 76.0608 110.396C76.939 110.376 77.6906 110.767 78.3674 111.219C79.3248 111.858 80.3746 111.907 81.4458 111.977L81.4464 111.975ZM65.1532 101.15C65.1831 100.614 65.1173 100.048 65.2695 99.5487C65.4143 99.0734 65.4648 98.5725 65.6328 98.1246C65.8854 97.4508 65.8897 96.6463 66.539 96.1472C66.9316 95.8453 67.2949 95.5021 67.7003 95.2191C68.346 94.7687 68.996 94.3311 69.4878 93.6987C69.5833 93.5758 69.7343 93.487 69.8742 93.4091C71.7183 92.3811 73.672 91.6088 75.6798 90.9722C76.1082 90.8365 76.5714 90.8158 77.0139 90.7196C78.3838 90.4226 79.738 90.0453 81.1664 90.1384C81.8262 90.1816 82.4914 90.1536 83.1541 90.1414C83.4414 90.1359 83.7402 90.1305 84.0135 90.052C85.6507 89.5815 87.2775 89.6064 88.8727 90.1889C89.7953 90.5261 90.7247 90.8553 91.5639 91.3976C92.6308 92.0871 93.3113 93.1303 94.0958 94.0743C94.7847 94.9032 95.2795 95.866 95.7901 96.8124C95.868 96.9566 95.9587 97.096 96.0597 97.2244C96.0725 97.2409 96.2393 97.1873 96.2448 97.152C96.3464 96.4996 96.4346 95.8301 96.1742 95.2081C96.0238 94.8496 95.9916 94.4979 95.949 94.129C95.753 92.4389 95.3562 90.8036 94.5784 89.2772C94.4859 89.0958 94.4427 88.8274 94.2954 88.7471C93.7275 88.4355 93.5444 87.8372 93.3289 87.3406C93.0173 86.6218 92.5018 86.1118 91.99 85.5841C91.7331 85.3194 91.4726 85.0546 91.2097 84.7966C90.413 84.0157 89.5945 83.241 88.5251 82.8369C87.9007 82.6007 87.3189 82.308 86.7802 81.9124C86.3749 81.6148 85.9264 81.4669 85.392 81.4809C84.6927 81.4991 83.9563 81.518 83.299 81.322C82.5407 81.0962 81.8347 81.1072 81.1104 81.3056C79.8774 81.6434 78.6407 81.9684 77.3705 82.1224C76.908 82.1783 76.4905 82.311 76.0742 82.504C74.4954 83.2373 72.9441 84.0072 71.7226 85.2969C71.5522 85.477 71.3678 85.648 71.1688 85.7947C70.3824 86.3753 69.9108 87.1823 69.4263 88.0113C68.3673 89.8243 67.1805 91.5631 66.1477 93.3902C65.8063 93.9945 65.0912 94.4954 65.3237 95.3718C65.3778 95.5751 65.1733 95.7394 65.0321 95.8934C64.7522 96.1983 64.4655 96.499 64.2117 96.8252C64.0364 97.0504 63.8532 97.2969 63.7729 97.564C63.4102 98.766 63.2866 99.9894 63.5295 101.237C63.6159 101.683 63.681 102.134 63.7267 102.586C63.81 103.409 63.8447 104.238 63.9494 105.058C64.0547 105.883 64.3182 106.68 64.754 107.381C65.2579 108.19 65.7393 109.007 66.0814 109.894C66.2043 110.213 66.3504 110.506 66.5841 110.735C67.1373 111.279 67.5286 111.968 68.1969 112.416C68.5974 112.684 68.8895 113.109 69.2595 113.431C69.9448 114.027 70.6192 114.651 71.596 114.737C71.8918 114.763 72.1291 114.93 72.3653 115.111C72.8558 115.487 73.3549 115.855 73.8746 116.188C74.0682 116.312 74.3554 116.504 74.5557 116.343C74.8198 116.13 74.5228 115.912 74.4187 115.708C74.1564 115.192 73.8874 114.679 73.6336 114.158C73.291 113.455 73.0895 112.63 72.5886 112.07C72.0555 111.476 71.2357 111.142 70.5559 110.674C69.5365 109.971 68.5529 109.219 67.8652 108.164C67.5737 107.717 67.3966 107.19 67.0801 106.764C66.5342 106.027 66.2414 105.159 65.7503 104.398C65.6109 104.183 65.5756 103.939 65.5622 103.687C65.5513 103.482 65.5762 103.239 65.477 103.08C65.0948 102.471 65.2007 101.804 65.1526 101.148L65.1532 101.15ZM89.4533 117.417C90.6346 117.444 91.7538 117.156 92.8524 116.783C93.4737 116.572 94.1152 116.371 94.4025 115.66C94.4713 115.49 94.694 115.377 94.8559 115.25C95.4067 114.815 95.9794 114.406 96.5107 113.948C97.1382 113.409 97.4717 112.807 97.2392 111.88C96.9483 110.719 96.5917 109.579 96.2916 108.423C96.2143 108.125 95.9831 108.066 95.7372 108.319C95.0994 108.978 94.3416 109.485 93.6107 110.021C92.9503 110.506 92.4294 111.198 91.651 111.495C90.0801 112.094 88.5598 112.826 86.8539 113.065C86.039 113.18 85.2045 113.224 84.4091 113.415C83.2625 113.692 82.1122 113.668 80.9558 113.679C80.626 113.682 80.2955 113.696 79.9668 113.723C79.9084 113.728 79.8263 113.813 79.811 113.876C79.7964 113.936 79.8348 114.042 79.8853 114.077C80.5201 114.524 81.1603 114.962 81.8018 115.398C81.8688 115.444 81.9546 115.461 82.0313 115.491C82.3733 115.626 82.4141 115.606 82.6806 115.094C82.7494 114.962 82.8529 114.911 82.9594 114.989C83.1554 115.133 83.2759 115.373 83.5412 115.432C84.4438 115.634 85.2094 116.134 86.0128 116.556C87.0876 117.12 88.2306 117.448 89.4527 117.418L89.4533 117.417ZM79.0661 114.944C79.0515 115.026 79.0119 115.109 79.0284 115.18C79.3193 116.461 80.0691 117.509 80.7915 118.564C80.9449 118.788 81.2327 118.926 81.4713 119.085C82.5315 119.792 83.8023 119.847 84.9733 120.212C85.8789 120.494 86.8222 120.582 87.7376 120.836C89.1599 121.23 90.6078 121.454 92.1208 121.321C93.3679 121.21 94.464 120.834 95.4706 120.148C96.7256 119.293 97.6646 118.161 98.2702 116.763C98.2909 116.716 98.2252 116.623 98.1844 116.562C98.1698 116.54 98.101 116.533 98.0694 116.547C97.8831 116.63 97.6829 116.696 97.5198 116.814C96.6343 117.453 95.6173 117.778 94.6009 118.134C93.9314 118.369 93.195 118.287 92.5694 118.652C91.382 118.731 90.2006 118.867 89.0199 119.015C88.6176 119.066 88.1965 118.952 87.7838 118.943C85.9404 118.903 84.3738 118.041 82.775 117.273C82.7013 117.237 82.6277 117.191 82.5705 117.134C81.7702 116.337 80.7416 115.866 79.8281 115.23C79.6132 115.08 79.3838 114.865 79.0661 114.944ZM14.5156 59.6798C14.5156 59.2087 14.5162 59.003 14.5156 58.7979C14.5156 58.7158 14.5143 58.633 14.5058 58.5514C14.4565 58.0755 14.2873 57.9112 13.7907 57.8978C13.546 57.8911 13.2837 57.8765 13.0585 57.952C12.0142 58.3001 10.9783 58.6732 9.94367 59.0499C9.6558 59.1546 9.60224 59.5563 9.84082 59.7577C9.96315 59.8612 10.1019 59.9799 10.2504 60.0121C11.4829 60.2829 12.7177 60.5404 13.955 60.7887C14.2234 60.8423 14.4456 60.6688 14.4742 60.3968C14.5089 60.0712 14.5119 59.7419 14.5156 59.6792V59.6798ZM6.1009 58.8588C6.1502 57.9063 6.39304 57.0871 6.7935 56.3142C6.81176 56.2789 6.81663 56.2351 6.82211 56.1943C6.84889 56.0056 6.76368 55.8437 6.58962 55.8273C5.43326 55.7184 4.28846 55.778 3.17653 56.1462C2.84179 56.257 2.68659 56.6416 2.8497 56.9502C2.92517 57.0926 3.01646 57.2472 3.14244 57.3385C4.00241 57.9635 4.83986 58.6385 6.1009 58.8588ZM49.9562 1.92504C50.0189 2.0991 50.1266 2.15266 50.2514 2.16787C50.7024 2.22204 51.1546 2.26829 51.6062 2.32246C52.2854 2.40401 52.7905 2.26038 52.6475 2.0498C52.3961 1.67977 51.9792 1.83131 51.6372 1.81975C51.0803 1.80027 50.5021 1.66333 49.9556 1.92504H49.9562ZM21.5049 60.5982C21.4696 60.5386 21.4409 60.4357 21.3977 60.429C21.3344 60.4193 21.234 60.4607 21.1993 60.5136C21.1713 60.5562 21.1939 60.6865 21.2334 60.7096C21.3503 60.7771 21.447 60.7169 21.5055 60.5982H21.5049Z" fill="#8DC0FF"/>
<path d="M173.261 93.0855C173.191 93.1263 173.097 93.1476 173.062 93.2048C172.614 93.9455 172.117 94.6649 171.744 95.4427C171.169 96.6435 170.453 97.7456 169.689 98.8284C169.432 99.1935 169.22 99.619 169.102 100.048C168.944 100.618 168.711 101.123 168.346 101.586C167.988 102.04 167.707 102.534 167.59 103.125C167.495 103.608 167.259 104.047 166.933 104.437C166.534 104.916 166.322 105.484 166.105 106.075C165.785 106.949 165.536 107.864 164.961 108.646C164.679 109.03 164.54 109.536 164.405 110.007C164.001 111.425 163.556 112.829 163.031 114.207C162.892 114.572 162.841 114.974 162.962 115.304C163.272 116.15 162.995 116.941 162.805 117.725C162.699 118.166 162.546 118.59 162.553 119.051C162.554 119.133 162.554 119.222 162.528 119.298C161.895 121.156 162.304 123.071 162.225 124.958C162.214 125.198 162.303 125.447 162.369 125.685C162.449 125.971 162.502 126.269 162.413 126.543C162.123 127.432 162.191 128.345 162.196 129.253C162.197 129.72 162.157 130.158 161.835 130.533C161.616 130.79 161.531 131.105 161.459 131.437C161.32 132.081 161.137 132.718 160.624 133.189C160.42 133.377 160.39 133.621 160.401 133.872C160.427 134.458 160.336 135.019 160.162 135.582C160.067 135.89 160.059 136.24 160.086 136.566C160.139 137.235 160.024 137.835 159.773 138.477C159.493 139.191 159.45 140.002 159.344 140.777C159.294 141.148 159.257 141.504 159.086 141.851C158.868 142.293 158.675 142.755 158.875 143.276C158.958 143.493 158.776 143.654 158.689 143.838C158.374 144.503 157.861 145.075 157.811 145.87C157.792 146.169 157.433 146.128 157.193 146.15C156.928 146.173 156.826 145.995 156.813 145.772C156.791 145.4 156.794 145.027 156.78 144.654C156.772 144.443 156.739 144.218 156.512 144.141C156.113 144.006 156.069 143.698 156.071 143.351C156.083 141.445 156.034 139.538 156.178 137.635C156.206 137.263 156.217 136.89 156.249 136.519C156.396 134.822 156.255 133.139 156.092 131.449C155.662 126.992 155.638 122.52 155.687 118.046C155.691 117.708 155.705 117.382 155.949 117.117C156.062 116.994 156.179 116.882 156.371 116.928C156.545 116.97 156.732 117.081 156.719 117.233C156.655 118.005 157.246 118.614 157.22 119.371C157.217 119.474 157.295 119.534 157.382 119.502C157.449 119.477 157.542 119.42 157.554 119.363C157.68 118.785 158.019 118.313 158.278 117.798C158.589 117.18 158.773 116.485 158.928 115.804C159.031 115.353 159.195 114.982 159.439 114.58C160.102 113.493 160.729 112.369 161.08 111.131C161.543 109.497 162.266 107.972 162.94 106.423C163.368 105.438 163.913 104.504 164.325 103.527C164.918 102.117 165.764 100.846 166.34 99.4254C166.832 98.2118 167.603 97.1097 168.262 95.9649C168.94 94.7854 169.622 93.6071 170.321 92.4392C170.765 91.6967 171.257 90.9828 171.7 90.2409C172.037 89.6785 172.475 89.121 172.605 88.5063C172.725 87.933 172.228 87.3859 172.023 86.8199C171.981 86.703 171.945 86.5813 171.883 86.4748C171.154 85.2192 170.623 83.8772 170.087 82.5322C169.601 81.3131 168.967 80.1562 168.459 78.9432C167.694 77.1149 166.872 75.3135 165.924 73.5704C165.709 73.1748 165.577 72.7329 165.42 72.3069C165.062 71.3337 164.621 70.4001 164.117 69.4951C163.755 68.8439 163.494 68.1495 163.201 67.4672C162.549 65.9506 161.83 64.4589 160.969 63.0445C160.84 62.8327 160.622 62.6501 160.565 62.4237C160.141 60.75 158.852 59.4963 158.367 57.8567C157.703 56.9084 157.318 55.7965 156.602 54.8781C156.451 54.684 156.314 54.4679 156.221 54.2409C155.51 52.5076 154.267 51.084 153.43 49.4243C152.59 48.6045 152.173 47.4963 151.493 46.5627C151.015 45.9066 150.647 45.1555 150.202 44.4623C149.602 43.5275 148.993 42.6073 148.28 41.7473C147.702 41.0511 147.244 40.2556 146.74 39.4997C145.939 38.2983 145.165 37.0774 144.336 35.8961C143.974 35.38 143.752 34.8043 143.461 34.2584C143.368 34.0837 143.346 33.8615 143.33 33.6583C143.293 33.2042 143.651 32.9754 144.062 33.214C144.461 33.4459 144.851 33.6759 145.326 33.6808C145.801 33.6857 146.079 33.9565 146.294 34.343C146.814 35.2784 147.437 36.1475 148.034 37.0342C148.743 38.089 149.448 39.1467 150.141 40.2124C150.612 40.9367 151.07 41.6706 151.516 42.4107C152.154 43.4685 152.927 44.438 153.501 45.539C154.131 46.7477 154.932 47.856 155.632 49.0214C157.14 51.5314 158.577 54.0845 160.003 56.6425C160.844 58.1524 161.589 59.7172 162.368 61.2594C163 62.5095 163.671 63.7352 164.32 64.9744C164.664 65.6304 164.956 66.3145 165.248 66.9968C165.926 68.5846 166.657 70.147 167.45 71.6813C167.695 72.1535 167.899 72.6696 167.995 73.1894C168.111 73.8205 168.361 74.378 168.7 74.8935C169.182 75.6275 169.407 76.4723 169.742 77.2641C169.951 77.7552 170.12 78.2658 170.397 78.7253C170.741 79.2974 170.947 79.9249 171.198 80.5372C171.697 81.7562 172.255 82.9515 172.779 84.1602C173.025 84.7262 173.232 85.3087 173.487 85.8704C173.631 86.1906 173.959 86.2271 174.183 85.9349C174.53 85.4809 174.843 85.0007 175.15 84.5187C175.97 83.2327 176.78 81.9406 177.592 80.6492C177.767 80.3698 177.965 80.0978 178.095 79.7971C178.612 78.6048 179.501 77.6712 180.257 76.6469C180.697 76.0505 181.132 75.4455 181.567 74.8479C181.983 74.2752 182.413 73.7299 182.921 73.2466C183.285 72.9003 183.505 72.4414 183.841 72.089C185.241 70.6247 186.671 69.189 188.1 67.7533C188.272 67.581 188.511 67.4794 188.71 67.3327C188.909 67.1867 189.158 67.0631 189.278 66.8647C189.804 65.9901 190.618 65.3864 191.401 64.8222C192.512 64.0219 193.422 62.9976 194.563 62.2344C195.485 61.6173 196.307 60.8486 197.174 60.1481C197.333 60.0197 197.48 59.8681 197.658 59.7732C199.44 58.8195 201.103 57.6753 202.812 56.6047C204.207 55.7314 205.554 54.7698 207.132 54.2178C207.476 54.0979 207.765 53.8301 208.088 53.6445C209.236 52.9835 210.477 52.5477 211.729 52.1345C212.275 51.9543 212.818 51.7614 213.351 51.5472C213.99 51.2903 214.622 51.1473 215.246 51.5594C215.693 51.8545 216.21 51.7511 216.692 51.8484C216.907 51.8917 217.098 51.9683 217.165 52.1893C217.232 52.4059 217.156 52.6129 216.977 52.7395C216.509 53.0724 216.08 53.4576 215.5 53.6286C213.473 54.2269 211.527 55.0467 209.592 55.8866C208.762 56.2469 207.961 56.6833 207.175 57.1342C206.066 57.7702 204.834 58.2005 203.875 59.0903C202.938 59.3441 202.302 60.1329 201.413 60.4755C201.229 60.5461 201.085 60.7135 200.915 60.8255C200.263 61.2551 199.706 61.8388 198.971 62.1285C198.512 62.3093 198.319 62.7389 197.961 63.014C196.948 63.7924 195.921 64.5496 194.883 65.2933C193.028 66.6219 191.406 68.2116 189.838 69.8597C189.611 70.0983 189.366 70.321 189.114 70.534C188.17 71.3319 187.269 72.173 186.494 73.1425C186.37 73.2983 186.18 73.4006 186.032 73.5394C185.791 73.7639 185.488 73.9593 185.337 74.2362C184.882 75.0761 184.227 75.7657 183.686 76.5398C183.173 77.2762 182.582 77.9585 182.042 78.6773C181.795 79.0059 181.582 79.3601 181.366 79.7107C180.783 80.6589 180.073 81.5274 179.604 82.5492C179.503 82.7696 179.339 82.9734 179.163 83.1432C178.797 83.4968 178.553 83.9168 178.344 84.3745C178.208 84.6715 178.023 84.9545 177.819 85.2107C177.296 85.8692 177.018 86.6513 176.668 87.3968C176.5 87.7541 176.51 88.118 176.595 88.4893C176.753 89.1752 176.88 89.8702 177.074 90.5458C177.351 91.5043 177.627 92.4513 177.287 93.4519C177.262 93.5231 177.265 93.6187 177.291 93.6893C177.715 94.8426 177.768 96.0835 178.347 97.2247C179.012 98.535 179.546 99.9598 179.847 101.395C180.281 103.475 181.15 105.395 181.736 107.413C181.863 107.848 181.985 108.288 182.062 108.734C182.287 110.034 182.65 111.292 183.085 112.535C183.3 113.151 183.499 113.796 183.552 114.44C183.6 115.033 184.041 115.501 183.959 116.112C183.88 116.701 184.044 117.253 184.259 117.799C184.331 117.982 184.297 118.208 184.3 118.415C184.306 118.829 184.275 119.247 184.523 119.617C184.568 119.684 184.616 119.773 184.608 119.847C184.502 120.85 184.955 121.783 184.965 122.774C184.977 123.932 185.04 125.09 185.085 126.248C185.092 126.412 185.075 126.603 185.151 126.734C185.507 127.349 185.459 128.02 185.418 128.674C185.354 129.678 185.673 130.639 185.669 131.638C185.659 133.831 185.975 136.015 185.892 138.212C186.398 141.383 186.038 144.576 186.133 147.758C186.147 148.253 186.108 148.747 186.35 149.216C186.527 149.558 186.493 149.945 186.409 150.311C186.388 150.401 186.248 150.499 186.144 150.527C186.034 150.557 185.861 150.511 185.85 150.374C185.782 149.556 185.393 148.809 185.405 147.961C185.439 145.517 185.405 143.071 185.395 140.627C185.393 140.05 185.428 139.476 185.151 138.924C185.031 138.683 185.055 138.36 185.049 138.073C185.031 137.245 185.034 136.416 185.025 135.587C185.019 135.01 185.023 134.445 184.805 133.878C184.664 133.509 184.714 133.065 184.692 132.653C184.639 131.668 184.767 130.681 184.387 129.711C184.216 129.274 184.319 128.728 184.308 128.232C184.296 127.736 184.331 127.236 184.083 126.774C184.026 126.669 184.006 126.535 183.999 126.414C183.936 125.347 183.956 124.29 183.596 123.238C183.198 122.077 183.229 120.81 182.917 119.608C182.733 118.902 182.611 118.152 182.531 117.423C182.305 115.401 181.681 113.488 181.178 111.536C180.879 110.376 180.461 109.258 180.163 108.098C179.745 106.468 179.177 104.875 178.65 103.274C178.161 101.788 177.545 100.355 176.775 98.9915C176.654 98.7772 176.532 98.5594 176.38 98.3677C175.66 97.4596 175.073 96.4749 174.596 95.4189C174.306 94.7781 173.979 94.1548 173.656 93.5298C173.564 93.3533 173.491 93.1421 173.26 93.0861L173.261 93.0855Z" fill="#8DC0FF"/>
<path d="M119.67 89.9937C119.563 90.5457 119.259 90.9358 118.937 91.3284C119.841 92.3819 120.901 93.181 121.916 94.0251C122.676 94.6575 123.395 95.3464 124.254 95.8558C124.393 95.938 124.501 96.0749 124.615 96.1948C124.758 96.3452 124.914 96.5095 124.845 96.7359C124.752 97.0432 124.47 97.0055 124.23 97.0201C124.024 97.0329 123.814 97.0079 123.608 97.0304C122.54 97.1479 121.614 96.7967 120.659 96.3348C119.36 95.7061 118.153 94.9003 116.794 94.3879C116.378 94.2308 116.024 93.9083 115.649 93.6508C114.323 92.7404 112.887 92.0173 111.5 91.2115C111.005 90.9236 110.6 90.4982 110.034 90.3126C109.567 90.1592 109.381 90.2189 109.372 90.6607C109.363 91.1951 109.318 91.7276 109.521 92.2547C109.792 92.9576 109.554 93.722 109.717 94.4457C109.753 94.6039 109.671 94.8248 109.754 94.9313C110.241 95.5558 110.048 96.2758 110.089 96.9635C110.091 97.0049 110.081 97.0487 110.091 97.0877C110.358 98.1211 110.363 99.202 110.656 100.231C110.713 100.429 110.797 100.633 110.791 100.832C110.765 101.721 111.131 102.498 111.406 103.312C111.613 103.924 111.734 104.579 111.844 105.214C111.962 105.899 111.902 106.614 112.206 107.27C112.117 108.279 112.461 109.237 112.652 110.197C112.965 111.764 112.938 113.403 113.591 114.901C113.607 114.939 113.625 114.981 113.624 115.02C113.596 115.974 113.832 116.811 114.669 117.383C114.949 118.117 115.388 118.766 115.76 119.452C115.853 119.622 115.855 119.852 115.863 120.056C115.878 120.511 115.88 120.968 115.872 121.423C115.86 122.047 115.955 122.596 116.292 123.183C116.706 123.906 116.928 124.771 116.683 125.654C116.65 125.772 116.584 125.929 116.633 126.013C117.033 126.712 116.737 127.581 117.2 128.266C117.475 128.673 117.232 129.166 117.368 129.602C117.404 129.718 117.439 129.862 117.586 129.867C117.698 129.872 117.856 129.856 117.918 129.784C118.721 128.846 119.553 127.93 120.177 126.85C120.713 125.922 121.322 125.045 122.092 124.288C122.473 123.912 122.895 123.563 123.12 123.055C123.136 123.017 123.148 122.964 123.178 122.947C124.03 122.466 124.426 121.542 125.149 120.926C125.775 120.393 126.3 119.743 126.873 119.149C127.132 118.88 127.401 118.622 127.662 118.356C127.816 118.198 127.985 118.08 128.203 118.212C128.558 118.427 128.905 118.374 129.276 118.253C129.505 118.178 129.62 118.363 129.517 118.622C129.127 119.612 128.7 120.584 128.161 121.504C128.015 121.753 127.89 122.017 127.784 122.286C127.389 123.291 126.914 124.252 126.305 125.146C126.166 125.35 126.048 125.572 125.948 125.798C125.441 126.941 124.636 127.891 123.943 128.913C123.596 129.424 123.191 129.899 122.873 130.427C122.506 131.038 122.052 131.565 121.562 132.074C121.335 132.309 121.133 132.581 120.976 132.867C120.666 133.43 120.181 133.844 119.691 134.192C119.324 134.453 118.931 134.666 118.639 135.022C118.477 135.218 118.26 135.322 118.02 135.412C117.517 135.6 117.04 135.836 116.637 136.215C116.387 136.452 116.204 136.42 116.006 136.189C115.185 135.232 114.634 134.162 114.455 132.889C114.347 132.118 114.095 131.366 113.896 130.608C113.353 128.532 112.813 126.454 112.254 124.381C112.007 123.467 111.721 122.565 111.448 121.659C110.901 119.846 110.248 118.058 109.834 116.216C109.475 114.612 108.914 113.067 108.616 111.448C108.341 109.95 107.93 108.477 107.653 106.98C107.527 106.295 107.576 105.578 107.553 104.875C107.535 104.339 107.6 103.796 107.345 103.289C107.225 103.051 107.282 102.817 107.374 102.572C107.708 101.687 107.629 100.771 107.415 99.8915C107.275 99.3207 107.178 98.7626 107.179 98.1807C107.181 97.4352 107.212 96.6872 107.169 95.9435C107.115 94.9989 107.495 94.2424 108.169 93.66C108.445 93.422 108.512 93.2577 108.421 92.9454C108.352 92.7081 108.327 92.458 108.287 92.2133C108.118 91.1896 107.654 90.4447 106.709 89.864C105.595 89.18 104.487 88.4618 103.448 87.6493C102.605 86.9896 101.703 86.4053 100.819 85.7997C100.035 85.2623 99.2445 84.7347 98.4466 84.218C98.1582 84.0311 97.9184 83.8023 97.7863 83.4955C97.2653 82.2868 96.4717 81.3228 95.4091 80.5328C95.0019 80.2297 94.6568 79.7921 94.3069 79.3911C93.8577 78.8756 93.2388 78.4958 92.6241 78.1459C91.6905 77.6139 90.752 77.0875 89.9237 76.387C89.5542 76.0741 89.0284 75.9311 88.9195 75.356C88.8994 75.2501 88.7819 75.1472 88.6863 75.073C87.401 74.0779 86.4692 72.7304 85.2696 71.6495C85.087 71.4846 84.9288 71.2886 84.7815 71.0896C84.5934 70.8352 84.647 70.537 84.678 70.2485C84.7091 69.9564 84.9093 69.8456 85.1619 69.7568C85.3116 69.7038 85.4425 69.5857 85.5672 69.4798C85.8776 69.2163 86.1886 69.0702 86.5653 69.3691C86.6566 69.4415 86.7893 69.4944 86.9049 69.4981C88.2104 69.5413 89.1142 70.3459 90.0259 71.1328C90.5584 71.5929 91.0812 72.064 91.6101 72.529C92.0508 72.9173 92.5383 73.2137 93.1177 73.3591C93.7299 73.5119 94.2576 73.8399 94.7579 74.2179C96.5387 75.5623 98.3213 76.9049 100.109 78.2402C100.672 78.6607 101.223 79.1129 101.834 79.4532C102.967 80.0843 103.894 80.9485 104.789 81.8608C104.9 81.9746 105.025 82.1329 105.2 81.9947C105.283 81.9296 105.346 81.7914 105.352 81.6837C105.394 80.814 105.442 79.9364 105.234 79.0849C104.984 78.0637 105.02 77.0297 104.998 75.9962C104.992 75.7424 105.024 75.5075 105.185 75.2927C105.252 75.2032 105.326 75.0206 105.284 74.9646C104.915 74.468 105.23 74.0207 105.342 73.5514C105.388 73.3561 105.4 73.1236 105.339 72.9374C104.969 71.8011 104.906 70.5954 104.592 69.461C104.287 68.3576 104.266 67.1915 103.718 66.127C103.414 65.5354 103.414 64.7728 103.213 64.0985C102.893 63.0322 102.732 61.9118 102.708 60.8205C102.677 59.3891 102.216 58.0678 101.994 56.6899C101.868 55.9139 101.782 55.1318 101.669 54.3534C101.603 53.8957 101.748 53.5385 102.138 53.2883C102.348 53.1544 102.555 53.0151 102.777 52.9043C103.114 52.7357 103.444 52.9104 103.528 53.2816C103.599 53.5975 103.448 53.9736 103.726 54.2286C104.141 54.6096 104.364 55.2042 104.969 55.3728C105.327 55.4726 105.374 55.7368 105.373 56.046C105.369 57.035 105.379 58.0246 105.363 59.0129C105.356 59.4317 105.28 59.8364 104.905 60.1188C104.676 60.291 104.707 60.5278 104.744 60.7913C104.845 61.5168 105.159 62.1984 105.048 62.9786C104.999 63.3262 105.314 63.7327 105.488 64.1009C105.618 64.3778 105.684 64.6286 105.514 64.9213C105.34 65.2208 105.328 65.5677 105.43 65.8884C105.728 66.8293 105.947 67.7891 106.196 68.7416C106.313 69.1895 106.381 69.6058 106.373 70.0684C106.354 71.1493 106.717 72.1662 107.043 73.1778C107.281 73.9184 107.575 74.6506 107.933 75.3408C108.173 75.8045 108.265 76.2561 108.262 76.7607C108.259 77.292 108.169 77.8452 108.541 78.315C108.589 78.3747 108.618 78.4751 108.607 78.55C108.441 79.7654 109.039 80.9004 108.979 82.1037C108.959 82.5059 109.087 82.8139 109.454 83.0379C112.387 84.8272 115.081 86.9665 117.952 88.8477C118.534 89.2293 119.108 89.623 119.666 89.9979L119.67 89.9937Z" fill="#8DC0FF"/>
<path d="M137.966 112.673C138.013 111.899 138.028 110.866 137.982 109.832C137.948 109.088 137.976 108.349 137.679 107.635C137.557 107.34 137.538 106.981 137.555 106.655C137.581 106.148 137.543 105.675 137.326 105.204C137.228 104.991 137.26 104.718 137.238 104.472C137.22 104.266 137.276 104.023 137.185 103.859C136.763 103.101 136.809 102.363 137.156 101.599C137.238 101.418 137.245 101.194 137.249 100.988C137.284 99.5352 137.441 98.0898 137.683 96.6632C137.864 95.5975 137.747 94.5221 137.944 93.4637C138.019 93.0608 138.036 92.6628 138.199 92.2642C138.472 91.5935 138.41 90.8704 138.201 90.19C138.002 89.5394 138.027 88.8809 138 88.2205C137.982 87.7738 138.109 87.4111 138.539 87.1902C138.72 87.0964 138.873 86.9467 139.047 86.8347C139.27 86.6917 139.524 86.6345 139.748 86.7952C140.279 87.1786 140.883 87.2583 141.511 87.3046C141.974 87.3387 142.384 87.5279 142.714 87.8822C143.143 88.3429 143.363 88.8292 143.072 89.4548C142.709 90.2357 142.741 91.1571 142.165 91.8746C141.932 92.1643 142.146 92.5228 142.518 92.6257C142.558 92.6366 142.6 92.6384 142.641 92.6488C143.689 92.9093 143.821 93.1259 143.473 94.0876C143.077 95.1824 142.829 96.3084 142.645 97.4568C142.476 98.5085 142.224 99.5474 142.033 100.596C141.966 100.959 141.949 101.336 141.947 101.706C141.936 103.322 141.937 104.938 141.937 106.553C141.937 107.01 141.836 107.432 141.699 107.877C141.309 109.147 141.176 110.469 141.186 111.801C141.196 113.21 141.212 114.619 141.214 116.028C141.217 117.353 141.207 118.677 141.008 119.993C140.852 121.019 140.86 122.056 140.845 123.091C140.82 124.747 140.839 126.406 140.736 128.057C140.645 129.502 140.445 130.939 140.403 132.391C140.391 132.812 140.336 133.244 140.552 133.602C140.953 134.27 140.891 134.96 140.73 135.65C140.521 136.547 140.338 137.419 140.73 138.326C140.831 138.561 140.723 138.894 140.689 139.179C140.632 139.672 140.54 140.161 140.496 140.655C140.471 140.942 140.422 141.274 140.535 141.515C140.883 142.262 140.706 142.96 140.491 143.683C140.35 144.157 140.268 144.649 140.146 145.13C140.056 145.488 140.007 145.862 139.694 146.128C139.452 146.334 139.45 146.637 139.434 146.93C139.428 147.041 139.433 147.21 139.258 147.173C139.154 147.151 139.062 147.046 138.98 146.964C138.924 146.907 138.873 146.828 138.857 146.751C138.565 145.381 137.975 144.076 137.969 142.644C137.967 142.231 137.973 141.826 137.73 141.448C137.52 141.12 137.599 140.721 137.596 140.352C137.584 138.902 137.584 137.452 137.585 136.001C137.585 135.337 137.574 134.675 137.366 134.034C137.209 133.551 137.244 133.05 137.242 132.554C137.24 131.932 137.24 131.31 137.236 130.689C137.232 130.111 137.214 129.546 137.053 128.971C136.9 128.422 136.885 127.824 136.878 127.247C136.858 125.34 136.868 123.434 136.868 121.528C136.868 121.158 136.938 120.824 137.092 120.463C137.377 119.79 137.683 119.092 137.592 118.316C137.578 118.197 137.574 118.04 137.637 117.953C138.126 117.286 137.947 116.523 137.962 115.792C137.981 114.839 137.966 113.886 137.966 112.674L137.966 112.673Z" fill="#8DC0FF"/>
<path d="M135.458 73.9769C135.429 73.546 135.609 73.232 135.85 72.9319C136.316 72.3519 136.754 71.7488 137.229 71.1773C137.489 70.8651 137.619 70.6046 137.405 70.1828C137.128 69.6387 137.143 68.9979 136.92 68.4142C136.715 67.875 137.021 67.3717 137.422 66.9706C137.554 66.8385 137.737 66.8178 137.879 66.9012C138.435 67.2256 139.044 67.2834 139.665 67.3577C140.257 67.4283 140.815 67.4276 141.358 67.1556C141.715 66.9767 142.042 67.0083 142.407 67.2244C143.043 67.6011 143.73 67.889 144.374 68.2541C144.819 68.5061 144.952 68.8147 144.783 69.3016C144.593 69.8493 144.463 70.4056 144.329 70.9655C144.163 71.6569 144.13 72.3519 144.107 73.0573C144.087 73.6568 144.234 74.1845 144.494 74.7176C144.891 75.5313 145.171 76.3925 145.193 77.3097C145.203 77.6919 145.281 78.0424 145.454 78.3802C145.538 78.5439 145.499 78.7283 145.359 78.8263C145.22 78.9243 145.044 78.8799 144.903 78.7703C144.425 78.3997 143.882 78.1569 143.575 77.5318C143.275 76.9177 142.735 76.4126 142.261 75.8947C142.044 75.6567 141.747 75.482 141.464 75.3153C141.03 75.0602 140.606 74.888 140.067 75.1558C139.672 75.3518 139.19 75.3542 138.793 75.6068C138.515 75.7839 138.206 75.8971 137.85 75.7687C137.708 75.7175 137.506 75.72 137.37 75.7827C136.665 76.1089 136.272 75.706 135.951 75.1844C135.718 74.8046 135.393 74.4486 135.458 73.9781V73.9769Z" fill="#8DC0FF"/>
<path d="M119.718 91.2033C119.704 91.2321 119.696 91.278 119.674 91.2854C119.591 91.3148 119.546 91.2762 119.567 91.1898C119.572 91.1689 119.622 91.1469 119.651 91.1475C119.674 91.1487 119.696 91.183 119.718 91.2026V91.2033Z" fill="#8DC0FF"/>
<path d="M67.0608 232.592C67.0602 232.538 67.092 232.461 67.054 232.434C66.0269 231.715 65.2013 230.884 64.4602 230.008C64.2406 229.748 64.0374 229.48 63.8473 229.209C63.3962 228.565 62.9422 227.921 62.5195 227.267C62.2442 226.842 61.9582 226.411 61.7965 225.96C61.6683 225.604 61.4742 225.272 61.2489 224.958C60.7013 224.192 60.2576 223.402 59.9086 222.58C59.5273 221.681 58.9144 220.844 58.5581 219.937C58.3078 219.3 57.9883 218.677 57.6949 218.048C57.6217 217.892 57.544 217.735 57.4464 217.585C56.9062 216.754 56.5867 215.876 56.3109 214.984C56.0448 214.123 55.6998 213.275 55.399 212.42C55.3048 212.152 55.2634 211.874 55.1613 211.608C54.65 210.272 54.1143 208.941 53.7307 207.582C53.6002 207.119 53.4969 206.652 53.4123 206.184C53.149 204.725 52.997 203.25 52.6088 201.808C52.3819 200.965 52.4114 200.101 52.0612 199.267C51.878 198.83 51.9897 198.328 51.975 197.856C51.9636 197.495 51.9648 197.139 51.7838 196.788C51.6799 196.587 51.6845 196.352 51.6765 196.132C51.6527 195.492 51.6532 194.853 51.6322 194.213C51.6141 193.66 51.6737 193.104 51.3882 192.565C51.2838 192.367 51.3304 192.125 51.3275 191.903C51.3111 190.374 51.3003 188.844 51.2861 187.314C51.2804 186.703 51.2963 186.094 51.1096 185.488C50.9717 185.041 51.3417 184.663 51.9443 184.544C52.0476 184.523 52.2025 184.521 52.2769 184.562C52.7961 184.852 53.4135 184.879 54.0252 184.941C54.4145 184.98 54.5768 185.11 54.6074 185.376C54.6329 185.597 54.625 185.82 54.625 186.043C54.6273 187.878 54.6278 189.714 54.6307 191.549C54.6312 191.91 54.6012 192.273 54.8492 192.61C55.02 192.841 54.9746 193.098 54.9763 193.347C54.9808 194.153 54.9797 194.96 54.9797 195.767C54.9797 196.1 54.9672 196.434 55.1845 196.746C55.3281 196.952 55.2974 197.18 55.2997 197.402C55.3042 197.847 55.2123 198.305 55.3286 198.734C55.5284 199.469 55.6164 200.206 55.7315 200.946C55.8076 201.434 55.8717 201.941 56.0215 202.414C56.2462 203.125 56.2213 203.849 56.4074 204.546C56.5549 205.096 56.6542 205.635 56.6616 206.189C56.6633 206.3 56.6644 206.416 56.7087 206.52C57.1996 207.682 57.447 208.887 57.9265 210.054C58.1393 210.572 58.3101 211.116 58.4105 211.669C58.5388 212.375 58.8673 213.063 59.1261 213.756C59.4143 214.53 59.7049 215.303 60.0226 216.07C60.4732 217.155 60.9374 218.238 61.4192 219.317C61.7829 220.132 62.1637 220.942 62.5722 221.746C62.9564 222.501 63.3769 223.247 63.8002 223.992C64.4868 225.2 65.1893 226.402 65.8839 227.607C66.3146 228.355 66.953 229.021 67.5068 229.72C67.6544 229.906 67.9148 229.909 68.0482 229.73C68.4647 229.168 68.8687 228.601 69.2688 228.033C69.3908 227.86 69.4578 227.665 69.5951 227.499C70.1166 226.87 70.2987 226.163 70.5342 225.466C70.6244 225.199 70.7186 224.931 70.8457 224.671C71.2157 223.918 71.3837 223.125 71.7571 222.369C71.9977 221.882 72.1032 221.352 72.1736 220.834C72.2167 220.516 72.425 220.255 72.53 219.961C72.7774 219.269 72.8074 218.543 73.1706 217.869C73.1014 217.276 73.5741 216.746 73.5582 216.157C73.5491 215.819 73.8413 215.539 73.9128 215.202C74.0445 214.578 74.2193 213.955 74.3742 213.331C74.4417 213.059 74.5609 212.797 74.5615 212.515C74.562 212.236 74.6239 211.961 74.7663 211.699C74.8083 211.621 74.8815 211.539 74.8713 211.463C74.7742 210.73 75.2237 210.047 75.2367 209.324C75.2396 209.159 75.2452 208.98 75.3309 208.832C75.5602 208.436 75.5999 208.028 75.5954 207.608C75.5931 207.415 75.6158 207.211 75.7071 207.034C75.8439 206.767 75.908 206.502 75.916 206.22C75.9205 206.058 75.9625 205.886 76.0476 205.735C76.2127 205.445 76.2513 205.146 76.2684 204.839C76.2791 204.647 76.324 204.451 76.4057 204.269C76.5266 204 76.581 203.73 76.5867 203.45C76.5901 203.284 76.5623 203.103 76.6412 202.954C76.9374 202.393 76.8608 201.806 76.9538 201.23C77.0963 200.351 77.3204 199.479 77.3051 198.589C77.6076 198.061 77.6047 197.505 77.6041 196.948C77.6041 196.784 77.6166 196.604 77.7063 196.457C77.9651 196.032 77.9412 195.589 77.9424 195.145C77.9435 194.618 77.9514 194.1 78.183 193.58C78.3305 193.249 78.2545 192.864 78.2641 192.504C78.2817 191.867 78.1994 191.226 78.5563 190.611C78.6545 190.442 78.6137 190.227 78.6159 190.033C78.6233 189.477 78.6738 188.918 78.6068 188.365C78.5302 187.733 78.9008 187.167 79.0018 186.565C79.0279 186.409 79.26 186.338 79.4512 186.373C79.9642 186.468 80.4743 186.578 80.9686 186.715C81.1967 186.778 81.2665 186.965 81.279 187.137C81.3187 187.692 81.3811 188.256 81.1666 188.796C81.0038 189.206 80.9658 189.613 80.9709 190.031C80.9771 190.532 80.9805 191.033 80.9675 191.533C80.9612 191.783 80.9799 192.046 80.8755 192.277C80.606 192.875 80.6395 193.484 80.6406 194.096C80.6412 194.597 80.6338 195.097 80.404 195.58C80.3665 195.658 80.3189 195.743 80.3274 195.822C80.4358 196.83 80.1469 197.815 79.9563 198.8C79.7435 199.898 79.7015 201.009 79.4098 202.098C79.3809 202.207 79.3281 202.317 79.3309 202.426C79.353 203.181 79.1522 203.915 78.9927 204.657C78.7567 205.753 78.5615 206.853 78.3067 207.949C78.1364 208.682 77.9957 209.428 77.8919 210.172C77.8538 210.447 77.8465 210.719 77.6779 210.984C77.5701 211.152 77.5752 211.362 77.5548 211.554C77.5117 211.966 77.59 212.384 77.3023 212.778C77.203 212.914 77.2398 213.104 77.2319 213.27C77.2177 213.575 77.2637 213.883 76.9992 214.155C76.938 214.219 76.9249 214.313 76.9153 214.395C76.8738 214.75 76.9016 215.099 76.6412 215.444C76.4307 215.722 76.5901 216.091 76.3467 216.407C76.211 216.582 76.3779 216.88 76.2394 217.051C75.8133 217.578 76.1288 218.212 75.7032 218.729C75.6504 218.793 75.6674 218.889 75.6652 218.971C75.6419 219.783 75.3553 220.566 75.0977 221.345C74.9377 221.83 74.8707 222.323 74.6721 222.807C73.9202 224.641 73.2852 226.5 72.5447 228.337C72.1912 229.214 71.6895 230.059 71.2725 230.923C70.9819 231.524 70.5302 232.018 69.6859 232.277C69.4929 232.337 69.3692 232.429 69.3794 232.591H67.0608V232.592Z" fill="#8DC0FF"/>
<path d="M118.854 220.862C119.485 221.179 120.021 221.295 120.659 221.281C121.805 221.256 122.944 221.341 124.022 220.849C126.881 220.469 129.498 219.269 132.21 218.399C133.637 217.941 134.992 217.249 136.367 216.637C137.3 216.222 138.208 215.848 139.241 216.35C139.545 216.498 139.928 216.487 140.276 216.539C140.474 216.568 140.687 216.544 140.874 216.603C141.356 216.758 141.869 216.945 142.043 217.461C142.219 217.982 141.756 218.268 141.439 218.574C140.455 219.522 139.285 220.202 138.078 220.813C136.246 221.742 134.436 222.726 132.551 223.535C129.842 224.698 127.234 226.085 124.454 227.096C122.911 227.658 121.371 227.876 119.756 227.808C119.066 227.78 118.531 227.424 117.985 227.083C117.776 226.953 117.626 226.731 117.428 226.578C116.904 226.169 116.352 225.919 115.635 226.022C115.051 226.106 114.449 226.088 113.883 225.752C113.441 225.489 112.895 225.604 112.4 225.633C111.613 225.678 110.915 225.52 110.318 224.98C111.306 223.81 112.762 223.543 114.082 223.019C114.873 222.705 115.676 222.419 116.459 222.09C116.917 221.897 116.972 221.616 116.769 221.105C115.938 219.01 115.133 216.906 114.493 214.741C114.183 213.692 114.065 212.571 113.362 211.658C113.137 211.366 113.186 210.986 113.187 210.634C113.193 209.528 113.193 208.421 113.22 207.314C113.227 207.02 113.253 206.684 113.399 206.444C113.71 205.931 113.627 205.375 113.703 204.834C113.767 204.384 113.593 204.059 113.275 203.772C112.827 203.368 112.386 202.957 111.945 202.546C111.559 202.187 111.391 201.737 111.308 201.219C111.237 200.771 111.295 200.466 111.708 200.199C112.28 199.829 112.825 199.529 113.528 199.827C114.118 200.076 114.627 199.889 115.004 199.412C115.34 198.988 115.749 198.644 115.942 198.074C116.306 196.995 117.131 196.169 118.032 195.563C118.945 194.948 120.114 194.661 121.203 194.907C122.182 195.129 123.175 195.231 124.152 195.444C125.826 195.808 127.364 196.543 128.954 197.134C129.67 197.4 130.218 197.922 130.757 198.466C131.302 199.017 131.298 199.624 131.143 200.278C130.998 200.893 130.746 201.359 129.968 201.433C129.416 201.485 129.267 201.821 129.304 202.415C129.319 202.662 129.456 202.92 129.296 203.144C128.976 203.591 128.943 204.141 129.028 204.593C129.123 205.098 128.647 205.553 129.001 206.041C129.072 206.139 129.03 206.332 129.011 206.478C128.973 206.762 128.657 207.084 128.92 207.314C129.286 207.634 129.678 207.312 130.03 207.155C130.303 207.033 130.542 206.838 130.805 206.691C131.042 206.558 131.472 206.608 131.477 206.752C131.485 206.983 131.315 207.089 131.166 207.226C130.946 207.428 130.764 207.672 130.552 207.883C130.41 208.024 130.25 208.232 130.085 208.246C128.86 208.346 127.72 209.21 126.424 208.658C126.083 208.512 125.737 208.565 125.388 208.647C123.948 208.985 122.616 208.669 121.349 207.968C121.217 207.895 121.093 207.807 120.956 207.744C120.259 207.422 119.867 207.609 119.801 208.342C119.72 209.244 119.652 210.149 119.647 211.053C119.643 211.904 119.708 212.757 119.784 213.604C119.826 214.071 119.655 214.498 119.628 214.943C119.575 215.814 119.034 216.684 119.607 217.574C119.685 217.696 119.571 217.951 119.529 218.14C119.487 218.334 119.319 218.578 119.387 218.706C119.83 219.547 119.235 220.118 118.855 220.861L118.854 220.862ZM126.57 200.982C126.498 200.609 126.253 200.352 125.947 200.178C124.992 199.636 124.038 199.071 122.965 198.8C122.604 198.709 122.246 198.339 121.838 198.624C121.515 198.85 121.608 199.265 121.48 199.581C121.367 199.856 121.19 200.105 121.065 200.376C120.795 200.967 120.543 201.565 120.277 202.158C120.1 202.554 120.265 202.836 120.576 203.059C121.521 203.738 122.631 204.056 123.704 204.446C124.043 204.569 124.397 204.443 124.657 204.156C125.399 203.338 126.059 202.466 126.453 201.422C126.505 201.284 126.529 201.135 126.57 200.982Z" fill="#8DC0FF"/>
<path d="M87.7963 203.403C88.0431 203.432 88.265 203.482 88.4835 203.475C88.6287 203.471 88.7592 203.373 88.7763 203.25C88.7882 203.164 88.7207 203.107 88.6117 203.058C88.2468 202.895 88.0885 202.644 88.185 202.417C88.3666 201.991 89.3142 201.439 89.9083 201.433C90.0939 201.431 90.2834 201.479 90.4667 201.516C90.6869 201.561 90.9071 201.674 91.1176 201.662C92.408 201.593 93.4907 202.038 94.6432 202.337C96.4256 202.798 97.8476 203.649 99.3009 204.469C100.054 204.893 100.664 205.427 101.236 205.98C101.466 206.202 101.721 206.412 101.969 206.625C102.068 206.709 102.196 206.799 102.355 206.77C102.598 206.726 102.561 206.56 102.567 206.427C102.577 206.205 102.572 205.982 102.572 205.76C102.572 199.835 102.572 193.911 102.575 187.986C102.575 187.681 102.575 187.372 102.635 187.072C102.708 186.715 103.017 186.62 103.46 186.781C103.494 186.793 103.52 186.817 103.554 186.829C104.6 187.213 104.606 187.213 104.603 188.074C104.59 191.217 104.599 194.36 104.551 197.503C104.507 200.395 104.422 203.287 104.302 206.178C104.276 206.81 104.505 207.308 105.082 207.767C105.677 208.241 106.223 208.746 106.781 209.243C107 209.437 106.924 209.641 106.585 209.671C106.114 209.713 105.778 209.841 105.622 210.171C105.554 210.314 105.435 210.387 105.221 210.426C104.293 210.592 104.279 210.597 104.265 211.23C104.223 213.176 104.208 215.123 104.155 217.07C104.116 218.515 104.036 219.959 103.972 221.405C103.967 221.515 103.982 221.634 103.933 221.735C103.522 222.572 103.648 223.439 103.629 224.298C103.619 224.771 103.633 225.243 103.37 225.693C103.297 225.817 103.279 225.963 103.274 226.1C103.249 226.906 103.227 227.712 103.221 228.518C103.219 228.77 103.222 229.002 103.013 229.233C102.815 229.45 102.88 229.82 102.366 229.845C101.803 229.873 101.234 229.967 100.734 229.618C100.088 229.17 99.6175 228.633 99.1545 228.096C98.4446 227.272 97.7897 226.424 97.1252 225.579C96.8415 225.219 96.585 224.847 96.3308 224.475C95.6011 223.408 94.7924 222.37 94.0479 221.31C93.6762 220.781 93.1701 220.264 93.1122 219.63C93.1003 219.497 92.9987 219.366 92.9227 219.24C92.3597 218.303 91.7185 217.388 91.2532 216.427C90.9411 215.783 90.5507 215.145 90.4304 214.455C90.4208 214.4 90.4372 214.328 90.3946 214.293C89.7284 213.74 89.868 212.983 89.4453 212.366C89.2098 212.021 89.1406 211.626 89.0044 211.253C88.8778 210.907 88.6304 210.588 88.7184 210.212C88.7246 210.186 88.7121 210.157 88.7002 210.131C88.5623 209.83 88.0794 209.636 88.2463 209.231C88.3796 208.909 87.9529 208.607 88.0607 208.266C87.5228 207.747 87.9251 207.056 87.4507 206.526C87.4427 206.053 87.4325 205.581 87.4274 205.108C87.4206 204.527 87.4223 203.945 87.7951 203.405L87.7963 203.403ZM99.7656 225.418L99.7435 225.408L99.79 225.39C99.7599 225.462 99.7242 225.537 99.8785 225.555C99.8893 225.556 99.9268 225.506 99.9217 225.503C99.874 225.471 99.8195 225.444 99.7656 225.418ZM102.61 215.719C102.599 215.719 102.589 215.719 102.578 215.719C102.578 215.274 102.578 214.829 102.578 214.385C102.576 213.133 102.559 211.881 102.581 210.63C102.589 210.205 102.416 209.865 101.944 209.617C101.438 209.351 101.072 208.99 100.644 208.671C100.347 208.451 100.045 208.259 99.6294 208.147C99.0052 207.979 98.5626 207.63 98.1047 207.29C97.4884 206.833 96.8449 206.391 96.1685 205.98C95.3185 205.464 94.4247 204.984 93.5474 204.491C92.9403 204.149 92.3308 203.81 91.7168 203.475C91.3945 203.299 91.0268 203.238 90.6262 203.288C90.3407 203.655 89.8283 203.546 89.3885 203.606C88.8756 203.677 88.1793 204.19 88.1668 204.518C88.1504 204.961 88.1566 205.407 88.2207 205.848C88.2888 206.315 88.3609 206.795 88.5686 207.236C88.7887 207.704 88.972 208.179 89.1899 208.645C89.3307 208.945 89.2648 209.252 89.4158 209.534C89.7341 210.129 89.9129 210.749 90.1455 211.361C90.5297 212.368 91.0058 213.366 91.588 214.322C91.9268 214.878 92.2082 215.448 92.5243 216.008C93.0906 217.01 93.6184 218.022 94.3924 218.955C94.549 219.144 94.6551 219.355 94.7805 219.557C95.2969 220.391 95.7673 221.242 96.3387 222.056C96.8932 222.845 97.5503 223.596 98.225 224.339C98.52 224.665 98.999 224.784 99.3457 225.039C99.4564 225.121 99.6391 225.077 99.7628 224.995C100.041 224.811 100.252 224.909 100.438 225.079C100.653 225.275 100.859 225.476 101.067 225.676C101.23 225.831 101.381 225.993 101.555 226.141C101.653 226.223 101.793 226.311 101.954 226.241C102.035 226.206 102.105 226.112 102.112 226.041C102.233 224.822 102.511 223.61 102.405 222.382C102.381 222.106 102.38 221.82 102.453 221.551C102.625 220.917 102.605 220.279 102.607 219.64C102.612 218.333 102.609 217.025 102.609 215.719L102.61 215.719Z" fill="#8DC0FF"/>
<path d="M163.773 203.044C163.749 204.256 163.689 205.121 163.43 206.019C163.072 207.256 163.044 208.587 162.855 209.875C162.789 210.326 162.858 210.651 163.34 210.829C163.567 210.912 163.773 211.086 163.952 211.256C164.294 211.582 164.367 212.109 164.098 212.501C163.251 213.741 162.421 214.997 161.51 216.189C160.751 217.183 160.048 218.219 159.134 219.101C158.129 220.07 157.293 221.2 156.407 222.281C155.752 223.079 154.996 223.847 153.863 224.008C153.672 224.035 153.465 224.13 153.318 224.256C152.331 225.102 151.425 224.559 150.569 224.055C149.838 223.625 149.209 223.021 148.483 222.582C147.12 221.756 146.256 220.542 145.758 219.086C145.293 217.725 144.635 216.403 144.67 214.901C144.677 214.613 144.531 214.32 144.446 214.031C144.118 212.915 143.916 211.785 144.008 210.613C144.044 210.147 143.896 209.741 143.636 209.34C143.339 208.879 143.127 208.361 142.882 207.866C142.635 207.365 142.664 206.899 143.063 206.477C143.2 206.331 143.29 206.135 143.441 206.009C143.866 205.652 143.998 205.197 143.985 204.664C143.971 204.064 143.942 203.471 144.289 202.911C144.432 202.68 144.401 202.329 144.414 202.031C144.464 200.862 144.816 199.777 145.237 198.697C145.484 198.064 145.865 197.552 146.343 197.103C147.916 195.622 149.553 194.213 151.277 192.91C151.715 192.579 152.195 192.293 152.683 192.036C153.292 191.715 153.915 191.687 154.55 192.033C155.516 192.56 156.5 193.055 157.475 193.565C157.653 193.658 157.85 193.736 157.994 193.869C159.066 194.857 160.313 195.643 161.366 196.632C162.347 197.553 162.979 198.802 163.347 200.118C163.642 201.169 163.996 202.232 163.773 203.045V203.044ZM147.062 207.943C146.928 208.718 147.221 209.586 147.957 210.052C148.641 210.486 149.046 211.053 149.436 211.688C149.57 211.906 149.695 212.154 149.949 212.212C150.525 212.343 150.954 212.627 151.169 213.194C152.174 213.751 152.532 214.744 152.899 215.738C153.09 216.255 153.309 216.762 153.535 217.266C153.728 217.695 154.119 217.811 154.53 217.561C154.742 217.433 155.004 217.299 155.11 217.097C155.636 216.089 156.415 215.167 156.283 213.91C156.252 213.612 156.298 213.307 156.278 213.006C156.242 212.479 156.399 212.02 156.696 211.593C157.191 210.885 157.545 210.122 157.683 209.257C157.729 208.968 157.842 208.642 158.034 208.436C158.49 207.945 158.503 207.351 158.559 206.755C158.601 206.305 158.608 205.847 158.693 205.406C158.987 203.879 158.642 202.417 158.259 200.963C158.079 200.279 157.694 199.708 157.274 199.128C156.707 198.345 155.909 197.665 155.82 196.59C155.811 196.478 155.654 196.317 155.535 196.282C154.768 196.059 153.993 195.865 153.221 195.66C152.95 195.588 152.688 195.666 152.532 195.86C151.723 196.873 150.744 197.748 150.075 198.877C149.513 199.826 148.94 200.769 148.367 201.713C148.185 202.013 147.971 202.298 147.961 202.67C147.933 203.722 147.277 204.669 147.45 205.758C147.471 205.891 147.404 206.062 147.325 206.182C146.995 206.684 147.081 207.244 147.062 207.944L147.062 207.943Z" fill="#8DC0FF"/>
<path d="M81.6592 218.326C81.6592 217.102 81.6592 215.879 81.6592 214.656C81.6592 214.267 81.6433 213.879 81.8589 213.506C82.0258 213.217 81.9798 212.904 81.981 212.599C81.9849 211.458 81.9809 210.318 81.9923 209.178C81.9946 208.93 81.9804 208.664 82.0956 208.438C82.3157 208.007 82.3367 207.571 82.3362 207.125C82.3356 206.515 82.3163 205.912 82.5813 205.311C82.7271 204.979 82.6358 204.595 82.6585 204.234C82.6761 203.957 82.6176 203.658 82.7459 203.409C83.0114 202.896 83.0194 202.376 83.0103 201.848C83.0029 201.43 83.1493 201.025 83.2095 200.618C83.3394 199.738 83.5414 198.867 83.6737 197.989C83.7361 197.577 83.6861 197.162 83.9148 196.761C84.013 196.589 83.9988 196.379 84.0056 196.186C84.0192 195.825 83.9846 195.461 84.2366 195.127C84.2547 195.103 84.2678 195.074 84.2672 195.047C84.2513 194.211 84.6775 193.415 84.6877 192.581C84.6923 192.219 84.6786 191.859 84.9039 191.519C84.9686 191.421 84.9987 191.304 85.0032 191.195C85.0458 190.164 85.5866 189.196 85.7296 188.177C85.7409 188.096 85.7897 188.017 85.8272 187.939C86.141 187.286 86.2335 187.253 87.151 187.476C87.2237 187.494 87.2901 187.526 87.3638 187.54C87.6555 187.596 88.0124 187.507 88.2377 187.698C88.5141 187.932 88.3779 188.229 88.3966 188.499C88.4136 188.749 88.3994 189 88.4 189.25C88.4011 189.612 88.3007 189.951 88.1583 190.305C87.6549 191.552 87.0898 192.795 87.0268 194.112C86.6034 194.776 86.89 195.551 86.3884 196.205C86.3186 196.295 86.3328 196.421 86.318 196.531C86.3067 196.614 86.3016 196.698 86.3106 196.781C86.3657 197.265 85.9299 197.683 85.969 198.169C86.0076 198.642 85.9781 199.115 85.7052 199.561C85.6898 199.586 85.6819 199.615 85.6774 199.642C85.5009 200.716 85.3244 201.79 85.1502 202.865C85.1411 202.92 85.153 202.977 85.144 203.032C84.9346 204.298 84.7354 205.564 84.5073 206.828C84.4323 207.243 84.3802 207.656 84.3921 208.074C84.4057 208.548 84.3756 209.017 84.1832 209.477C84.0368 209.826 84.0227 210.189 84.0238 210.551C84.0255 211.385 84.0221 212.219 84.017 213.054C84.013 213.719 84.0692 214.385 83.7667 215.036C83.6606 215.266 83.6913 215.532 83.6901 215.781C83.6827 217.756 83.6833 219.73 83.6816 221.704C83.6816 221.981 83.6657 222.26 83.8314 222.523C84.1146 222.975 83.9914 223.453 83.9914 223.923C83.9914 224.112 83.849 224.233 83.5732 224.253C83.4966 224.259 83.4195 224.26 83.3423 224.263C82.3192 224.291 82.234 224.177 81.9554 223.469C81.6217 222.62 81.6666 221.769 81.6603 220.911C81.6541 220.049 81.6592 219.187 81.6592 218.325V218.326Z" fill="#8DC0FF"/>
</svg>
