<svg width="864" height="536" viewBox="0 0 864 536" fill="none" xmlns="http://www.w3.org/2000/svg">
<path d="M598.332 204.083C598.75 204.044 598.979 204.01 599.208 204.005C599.717 203.995 600.227 204.003 600.889 204.003V207.399C601.724 207.454 602.412 207.5 603.159 207.549V209.309C602.422 209.356 601.734 209.401 600.934 209.452C600.934 210.731 600.934 211.947 600.934 213.164C600.934 213.994 600.92 214.825 600.939 215.655C600.966 216.829 601.154 217.007 602.345 217.054C602.579 217.063 602.814 217.055 603.137 217.055V218.844C602.073 219.214 601.016 219.148 599.974 218.884C599.183 218.685 598.653 218.164 598.535 217.33C598.446 216.707 598.381 216.074 598.374 215.445C598.354 213.475 598.367 211.505 598.367 209.452C597.737 209.452 597.202 209.436 596.668 209.458C596.323 209.473 595.98 209.577 595.634 209.582C594.099 209.604 593.086 210.298 592.635 211.78C592.454 212.373 592.392 213.02 592.38 213.645C592.346 215.34 592.368 217.037 592.368 218.778C591.514 219.064 590.719 218.945 589.861 218.868V207.585H592.122C592.156 208.054 592.193 208.551 592.238 209.183C592.473 208.945 592.65 208.774 592.819 208.595C593.892 207.449 595.094 206.813 596.728 207.394C597.173 207.551 597.723 207.417 598.33 207.417V204.083H598.332Z" fill="#8DC0FF"/>
<path d="M564 207.529H566.255C566.296 207.924 566.333 208.269 566.373 208.658C566.503 208.607 566.626 208.591 566.699 208.522C568.886 206.421 572.532 206.794 574.245 209.299C575.722 211.459 575.674 215.26 574.143 217.387C572.662 219.443 569.519 219.906 567.363 218.382C567.138 218.223 566.939 218.03 566.647 217.786C566.351 218.702 566.53 219.593 566.498 220.462C566.466 221.322 566.491 222.182 566.491 223.117H564V207.53V207.529ZM572.856 213.217C572.749 212.025 572.515 210.922 571.657 210.044C570.365 208.723 568.044 208.86 567.125 210.408C566.111 212.118 566.083 213.954 566.997 215.722C567.598 216.885 568.654 217.368 569.966 217.242C571.205 217.123 572.001 216.397 572.411 215.286C572.652 214.631 572.714 213.91 572.855 213.218L572.856 213.217Z" fill="#8DC0FF"/>
<path d="M579.634 210.94H577.331C577.34 209.531 577.939 208.499 579.1 207.916C581.154 206.884 583.3 206.858 585.395 207.803C586.587 208.341 587.119 209.377 587.119 210.682C587.119 212.383 587.116 214.083 587.124 215.784C587.126 216.21 587.165 216.637 587.189 217.107C587.592 217.205 587.921 217.286 588.271 217.372V218.885C586.477 219.574 585.643 219.381 584.673 218.045C583.659 218.742 582.534 219.204 581.292 219.226C580.591 219.239 579.86 219.189 579.19 218.999C577.619 218.553 576.835 217.425 576.852 215.84C576.87 214.207 577.626 213.169 579.244 212.733C580.155 212.487 581.105 212.387 582.04 212.227C582.585 212.133 583.138 212.077 583.675 211.948C584.258 211.808 584.663 211.456 584.706 210.807C584.747 210.203 584.417 209.7 583.797 209.414C582.186 208.673 580.559 209.265 579.634 210.941V210.94ZM584.558 213.426C583.695 213.548 582.994 213.629 582.301 213.752C581.722 213.855 581.135 213.958 580.581 214.148C579.748 214.433 579.314 215.096 579.38 215.834C579.438 216.488 579.971 217.056 580.832 217.16C581.482 217.24 582.181 217.233 582.81 217.074C584.052 216.761 584.537 216.038 584.557 214.757C584.564 214.329 584.557 213.901 584.557 213.424L584.558 213.426Z" fill="#8DC0FF"/>
<path d="M603.812 207.527H606.56C607.535 210.288 608.504 213.028 609.471 215.769C609.543 215.765 609.614 215.76 609.685 215.757C610.614 213.044 611.541 210.332 612.49 207.559H615.015C614.964 207.813 614.947 208.047 614.87 208.258C613.435 212.15 611.992 216.04 610.551 219.93C610.482 220.115 610.401 220.296 610.324 220.477C609.151 223.246 608.063 223.84 604.955 223.336V221.341C605.153 221.341 605.344 221.326 605.533 221.343C607.316 221.502 608.498 219.982 607.87 218.278C606.927 215.721 605.94 213.179 604.975 210.63C604.6 209.64 604.231 208.647 603.812 207.529V207.527Z" fill="#8DC0FF"/>
<path d="M111.799 205.27C112.177 204.804 112.549 204.344 112.956 203.841C113.204 204.01 113.368 204.097 113.503 204.216C113.871 204.539 114.156 204.441 114.543 204.173C115.935 203.213 117.366 202.307 118.782 201.381C119.334 201.02 119.861 200.614 120.441 200.307C122.07 199.445 123.718 198.62 125.365 197.792C125.57 197.688 125.831 197.692 126.033 197.584C126.401 197.387 126.778 197.181 127.089 196.909C127.649 196.42 128.11 195.804 128.712 195.381C129.328 194.949 130.041 194.625 130.754 194.365C131.485 194.098 132.264 193.961 133.024 193.775C133.955 193.546 134.871 193.575 135.831 193.708C136.489 193.8 137.206 193.505 137.89 193.353C138.913 193.125 139.931 192.874 140.948 192.624C141.363 192.522 141.766 192.376 142.183 192.291C143.557 192.008 144.933 191.736 146.312 191.477C147.081 191.333 147.894 191.329 148.621 191.074C149.82 190.652 151.1 190.846 152.305 190.411C153.167 190.1 154.144 190.104 155.071 189.981C156.199 189.833 157.327 189.679 158.46 189.572C159.042 189.516 159.633 189.556 160.22 189.555C161.96 189.552 163.706 189.629 165.44 189.525C167.207 189.42 168.93 189.571 170.655 189.913C170.991 189.979 171.443 190.023 171.688 189.854C172.099 189.569 172.363 189.699 172.753 189.846C174.404 190.468 176.108 190.961 177.733 191.644C179.613 192.434 181.562 193.024 183.458 193.763C184.518 194.176 185.505 194.803 186.586 195.124C188.458 195.678 189.857 196.956 191.434 197.972C193.028 198.999 194.655 199.974 196.252 200.995C196.983 201.463 197.694 201.965 198.384 202.491C200.111 203.805 201.923 205.032 203.513 206.499C205.187 208.045 206.778 209.726 208.152 211.541C209.28 213.03 210.049 214.793 210.941 216.453C211.078 216.709 211.048 217.069 211.049 217.381C211.057 219.478 211.034 221.575 211.062 223.67C211.074 224.582 210.614 225.31 210.279 226.094C210.193 226.297 210.162 226.524 210.077 226.85H213.549C213.733 227.693 213.311 228.117 212.731 228.439C211.974 228.859 211.195 229.239 210.442 229.668C209.686 230.099 209.115 230.623 209.303 231.652C209.416 232.268 209.062 232.582 208.491 232.362C207.43 231.95 206.624 232.124 205.943 233.053C205.744 233.324 205.39 233.485 205.122 233.683C203.584 233.029 203.521 232.825 204.356 231.413C204.04 230.958 203.658 230.559 203.456 230.083C203.014 229.045 203.506 228.201 204.6 227.99C204.793 227.953 204.993 227.96 205.192 227.953C206.72 227.897 207.533 227.235 208.109 225.834C209.141 223.324 209.052 220.801 208.153 218.329C207.573 216.734 206.535 215.395 205.131 214.351C204.124 213.602 203.19 212.753 202.257 211.911C200.714 210.521 199.244 209.046 197.657 207.712C196.795 206.987 195.748 206.484 194.791 205.869C193.247 204.876 191.608 204.046 190.204 202.813C189.422 202.124 188.602 201.368 187.351 201.354C186.704 201.346 186.064 200.831 185.419 200.549C184.885 200.313 184.349 200.081 183.814 199.849C183.778 199.834 183.724 199.843 183.701 199.818C182.85 198.906 181.559 198.726 180.62 197.952C179.661 197.161 178.656 196.424 177.691 195.641C177.368 195.379 177.114 195.033 176.804 194.753C176.581 194.551 176.34 194.303 176.066 194.231C174.356 193.781 172.635 193.377 170.918 192.954C169.44 192.59 167.987 192.221 166.428 192.173C164.35 192.11 162.287 191.654 160.207 191.526C158.841 191.442 157.459 191.633 156.084 191.712C155.534 191.745 154.985 191.791 154.439 191.862C153.705 191.958 152.928 191.967 152.255 192.229C151.357 192.579 150.432 192.417 149.538 192.61C147.901 192.964 146.261 193.308 144.619 193.636C143.622 193.835 142.612 193.972 141.618 194.186C140.47 194.434 139.329 194.713 138.195 195.02C135.68 195.701 133.435 197.022 131.087 198.091C129.596 198.769 128.221 199.7 126.745 200.418C125.451 201.047 124.021 201.418 122.777 202.125C121.543 202.828 120.319 203.551 119.074 204.24C118.717 204.438 118.393 204.812 118.209 205.183C117.871 205.858 117.399 206.308 116.698 206.58C115.021 207.231 114.333 208.83 113.355 210.146C112.908 210.745 112.47 211.353 112.067 211.982C111.689 212.571 111.295 213.166 111.03 213.808C110.63 214.779 110.33 215.791 109.998 216.789C109.913 217.045 109.837 217.313 109.815 217.581C109.661 219.506 109.523 221.433 109.379 223.359C109.257 224.982 109.327 226.579 109.99 228.104C110.08 228.31 110.208 228.663 110.119 228.758C109.551 229.355 110.053 229.871 110.212 230.385C110.454 231.172 110.793 231.928 111.063 232.707C111.548 234.099 112.426 235.185 113.632 236.002C114.852 236.829 115.74 237.94 116.597 239.125C117.534 240.421 118.616 241.591 119.94 242.564C120.97 243.323 121.743 244.422 122.68 245.32C123.382 245.992 124.117 246.649 124.919 247.19C125.866 247.829 126.934 248.285 127.886 248.918C128.927 249.609 129.923 250.376 130.882 251.176C131.608 251.781 132.329 252.337 133.2 252.748C134.87 253.537 136.554 254.268 138.33 254.792C140.673 255.485 142.989 256.271 145.341 256.927C146.316 257.199 147.361 257.387 148.367 257.352C150.707 257.274 152.611 258.249 154.486 259.467C155.016 259.811 155.726 259.958 156.37 260.024C157.39 260.127 158.435 260.002 159.45 260.126C160.562 260.261 161.682 260.473 162.74 260.83C163.581 261.114 164.33 261.666 165.174 262.128C166.126 261.503 167.142 261.394 168.249 261.888C168.609 262.048 169.138 262.02 169.528 261.893C171.082 261.388 172.515 261.678 173.954 262.328C174.313 262.491 174.807 262.322 175.223 262.396C176.575 262.635 177.937 262.852 179.264 263.196C180.791 263.593 182.313 263.887 183.899 263.901C184.675 263.909 185.45 264.093 186.224 264.203C186.793 264.285 187.225 264.205 187.699 263.74C188.589 262.864 189.562 261.977 191.027 262.533C191.312 262.641 191.648 262.628 191.963 262.637C193.147 262.676 193.827 263.304 194.094 264.43C194.131 264.583 194.132 264.78 194.23 264.877C194.928 265.573 194.876 266.465 194.852 267.322C194.831 268.048 195.025 268.563 195.611 269.051C196.642 269.909 197.301 271.004 197.197 272.436C197.178 272.701 197.266 272.984 197.354 273.242C197.677 274.188 197.823 275.121 197.63 276.142C197.511 276.766 197.741 277.451 197.782 278.111C197.866 279.511 198.337 280.88 198 282.318C197.85 282.956 197.921 283.645 197.888 284.366H197.034C196.987 284.409 196.899 284.449 196.879 284.512C196.499 285.657 196.148 286.812 195.739 287.947C195.621 288.278 195.533 288.538 195.564 288.928C195.634 289.835 194.955 290.557 193.97 290.858C193.517 290.997 193.054 291.103 192.605 291.255C192.385 291.329 192.056 291.429 192.005 291.591C191.738 292.445 191.003 292.453 190.338 292.688C189.939 292.829 189.613 293.245 189.317 293.592C188.829 294.164 188.384 294.545 187.501 294.299C186.907 294.134 186.199 294.414 185.543 294.427C185.122 294.436 184.7 294.316 184.277 294.262C184.047 294.234 183.77 294.133 183.588 294.22C182.251 294.863 180.744 294.788 179.371 295.253C177.806 295.782 176.209 295.699 174.599 295.654C174.038 295.639 173.469 295.853 172.904 295.967C172.79 295.99 172.682 296.055 172.568 296.067C171.283 296.199 170 296.407 168.714 296.43C167.294 296.455 165.901 296.582 164.502 296.828C163.111 297.073 161.695 297.18 160.29 297.347C160.25 297.352 160.204 297.334 160.172 297.349C158.101 298.391 155.954 297.373 153.845 297.563C153.238 297.618 152.591 297.226 151.963 297.038C151.742 296.972 151.52 296.837 151.303 296.844C148.431 296.952 145.597 296.194 142.717 296.463C141.992 296.53 141.357 296.422 140.759 295.869C140.358 295.498 139.725 295.35 139.173 295.177C137.562 294.671 135.932 294.23 134.232 294.143C133.301 293.471 132.145 293.589 131.12 293.257C130.47 293.045 129.929 292.662 129.125 292.879C128.656 293.005 128.029 292.569 127.482 292.367C126.979 292.182 126.546 291.751 125.932 291.977C125.844 292.009 125.704 291.931 125.6 291.879C124.231 291.216 122.87 290.535 121.494 289.887C120.745 289.535 119.969 289.238 119.208 288.91C117.835 288.318 116.462 287.726 115.093 287.125C113.975 286.634 112.847 286.158 111.752 285.616C111.306 285.396 110.948 285.003 110.53 284.719C110.217 284.506 109.874 284.339 109.54 284.158C109.337 284.049 109.084 283.999 108.926 283.847C108.039 282.998 106.912 282.653 105.782 282.327C104.725 282.024 103.653 281.775 102.587 281.507C102.435 281.469 102.264 281.409 102.122 281.443C101.029 281.702 100.135 281.131 99.1724 280.797C95.4121 279.493 92.0544 277.373 88.5269 275.599C88.0733 275.371 87.6577 275.052 87.2612 274.729C83.5603 271.721 79.5472 269.21 75.2633 267.123C74.8204 266.907 74.4073 266.631 74 266.396C74.2018 265.839 74.4999 265.895 74.8181 266.02C76.0315 266.496 77.2533 266.952 78.4572 267.452C80.7179 268.39 82.9275 269.401 85.0646 270.632C87.6601 272.126 90.4634 273.259 93.1906 274.518C93.7689 274.786 94.3138 275.239 95.2305 275.134C94.8612 274.629 94.5703 274.274 94.3257 273.889C93.928 273.264 93.5183 272.64 93.1918 271.978C92.7763 271.137 92.8107 271.119 93.7 270.376C95.2981 271.521 96.9307 272.667 98.5407 273.848C100.202 275.066 101.968 276.045 103.982 276.565C104.5 276.7 104.974 277.019 105.453 277.281C107.105 278.184 108.762 279.075 110.391 280.017C111.293 280.537 112.166 281.068 112.779 282.003C113.331 282.846 114.428 283.008 115.283 283.47C115.76 283.727 116.291 283.889 116.804 284.075C117.222 284.226 117.571 284.396 118.115 284.297C118.722 284.188 119.478 284.471 120.064 284.782C121.36 285.469 122.813 285.603 124.157 286.103C125.552 286.622 126.953 287.125 128.367 287.59C129.7 288.028 131.052 288.403 132.392 288.817C132.654 288.898 132.899 289.029 133.152 289.134C134.742 289.8 136.432 290.055 138.113 290.349C138.449 290.408 138.768 290.575 139.091 290.703C139.905 291.026 140.753 290.989 141.607 291.06C144.872 291.331 148.109 291.923 151.405 291.875C151.936 291.866 152.479 292.086 153.001 292.25C154.363 292.679 155.739 292.315 157.106 292.339C158.646 292.366 160.19 292.289 161.73 292.214C163.844 292.112 165.983 292.129 168.059 291.785C169.358 291.568 170.637 291.581 171.923 291.467C172.772 291.393 173.609 291.186 174.456 291.066C176.789 290.735 179.128 290.445 181.456 290.087C183.252 289.811 185.039 289.476 186.823 289.125C187.32 289.028 187.8 288.809 188.264 288.594C188.664 288.409 188.813 288.022 189.035 287.64C189.646 286.583 189.177 285.274 189.939 284.295C189.957 282.336 190.305 280.345 189.175 278.525C188.516 277.463 187.986 276.334 187.984 275.036C187.983 274.361 187.615 273.932 187.028 273.666C185.064 272.773 183.112 271.849 181.126 271.01C180.162 270.603 179.105 270.041 178.135 270.116C176.906 270.211 175.876 269.627 174.713 269.611C174.073 269.603 173.4 269.383 172.81 269.11C172.106 268.785 171.458 268.533 170.677 268.83C170.503 268.897 170.237 268.724 170.014 268.66C169.678 268.563 169.311 268.325 169.012 268.392C168.207 268.572 167.543 268.347 166.873 267.957C166.644 267.824 166.353 267.746 166.087 267.739C165.294 267.719 164.518 267.759 163.867 267.132C163.679 266.952 163.27 266.991 162.96 266.952C162.138 266.847 161.368 266.657 160.709 266.085C160.394 265.812 159.963 265.652 159.561 265.506C157.803 264.868 156.046 264.224 154.27 263.646C153.54 263.409 152.753 263.354 152.003 263.169C151.522 263.05 150.948 262.968 150.615 262.656C149.878 261.964 149.003 261.762 148.077 261.565C147.507 261.444 146.949 261.221 146.416 260.977C144.559 260.131 142.728 259.223 140.858 258.405C140.155 258.098 139.369 257.982 138.627 257.756C136.947 257.247 135.253 256.804 133.678 255.97C132.623 255.412 131.428 255.122 130.349 254.602C129.874 254.374 129.362 253.945 129.164 253.479C128.747 252.497 127.808 252.231 127.076 251.707C125.899 250.865 124.624 250.163 123.42 249.357C122.606 248.813 121.843 248.193 121.058 247.606C120.497 247.184 120.034 246.664 119.543 246.171C118.767 245.392 117.719 244.879 116.776 244.273C116.558 244.133 116.235 244.127 116.063 243.956C114.9 242.809 113.523 241.89 112.594 240.485C112.137 239.795 111.441 239.369 110.509 239.12C109.46 238.841 108.458 238.108 107.633 237.358C106.901 236.692 106.828 235.576 106.781 234.622C106.724 233.498 106.568 232.542 105.876 231.552C105.056 230.379 104.632 228.947 104.817 227.431C104.85 227.161 104.847 226.86 104.756 226.609C104.229 225.145 104.49 223.63 104.451 222.138C104.445 221.901 104.557 221.547 104.731 221.441C105.4 221.035 105.509 220.335 105.538 219.726C105.603 218.333 105.99 217.027 106.334 215.701C106.629 214.567 106.81 213.405 107.123 212.277C107.341 211.487 107.656 210.717 107.999 209.971C108.568 208.737 109.195 207.531 109.798 206.314C109.938 206.032 110.057 205.734 110.231 205.475C110.642 204.867 110.784 204.847 111.804 205.27H111.799ZM193.968 282.981C194.79 281.972 194.784 281.802 193.968 281.438V282.981Z" fill="#8DC0FF"/>
<path d="M575.697 250.692C575.06 252.727 574.594 254.642 573.858 256.447C573.007 258.532 572.324 260.712 570.897 262.537C570.498 263.046 570.378 263.764 570.065 264.352C569.455 265.498 568.771 266.605 568.177 267.76C567.934 268.232 567.751 268.78 567.716 269.305C567.672 269.975 567.529 270.512 566.99 270.967C566.263 271.578 566.001 272.452 565.804 273.354C565.695 273.847 565.618 274.409 565.33 274.789C564.112 276.389 563.157 278.104 562.436 279.992C561.564 282.28 560.425 284.446 558.67 286.223C558.225 286.673 558.104 287.228 558.135 287.855C558.195 289.088 557.86 290.252 557.427 291.389C557.331 291.64 557.181 291.881 557.016 292.097C556.278 293.065 555.141 293.05 554.277 292.139C553.996 291.842 553.579 291.652 553.194 291.48C552.715 291.265 552.411 290.957 552.406 290.416C552.392 288.845 552.267 287.262 552.798 285.742C552.921 285.389 553.093 284.95 553.379 284.777C554.088 284.349 554.412 283.682 554.646 282.984C555.443 280.611 556.259 278.24 556.915 275.829C557.241 274.636 557.218 273.35 557.384 272.11C557.524 271.065 557.625 270.004 557.895 268.99C558.176 267.933 559.037 267.322 560 266.881C560.56 266.625 561.13 266.39 561.779 266.111C561.86 266.426 561.932 266.635 561.969 266.852C562.097 267.6 562.023 268.419 562.928 268.822C563.159 268.926 563.267 269.305 563.494 269.652C563.677 269.375 563.829 269.202 563.917 269.002C564.554 267.527 565.083 266.025 565.496 264.461C566.463 260.81 567.902 257.336 570.005 254.176C571.513 251.911 572.289 249.361 573.038 246.792C573.136 246.453 573.269 246.124 573.354 245.783C573.423 245.505 573.443 245.215 573.484 244.931C573.399 244.89 573.312 244.848 573.227 244.808C572.451 245.716 571.681 246.627 570.901 247.531C570.413 248.098 569.884 248.631 569.43 249.222C569.082 249.676 568.736 249.647 568.258 249.367C568.772 247.873 569.442 246.475 570.321 245.156C571.061 244.047 571.644 242.834 572.36 241.708C572.992 240.714 573.708 239.775 574.39 238.814C574.687 238.396 574.691 238.399 574.578 237.566C574.393 237.616 574.201 237.633 574.046 237.716C573.565 237.971 572.979 238.191 572.633 237.733C572.335 237.337 572.191 236.703 572.241 236.201C572.296 235.642 572.621 235.098 572.881 234.574C572.999 234.338 573.214 234.117 573.438 233.973C574.729 233.151 576.073 232.405 577.321 231.524C577.945 231.084 578.538 230.486 578.915 229.829C580.411 227.219 581.432 224.392 582.495 221.587C582.578 221.368 582.644 221.139 582.75 220.93C583.565 219.317 583.927 217.565 584.39 215.838C584.65 214.866 584.763 213.844 585.394 212.969C585.663 212.597 585.607 212 585.729 211.512C585.841 211.068 585.889 210.55 586.155 210.216C586.51 209.774 586.615 209.344 586.621 208.809C586.628 208.266 586.757 207.724 586.797 207.179C586.818 206.874 586.819 206.545 586.732 206.258C586.373 205.072 586.337 203.943 587.058 202.854C587.218 202.61 587.292 202.251 587.268 201.956C587.177 200.82 587.531 199.785 587.873 198.735C587.98 198.406 587.977 198.04 588.031 197.693C588.253 196.296 588.479 194.901 588.702 193.506C588.733 193.311 588.769 193.118 588.785 192.922C588.922 191.357 589.036 189.791 589.2 188.23C589.252 187.733 589.47 187.257 589.551 186.762C589.599 186.464 589.525 186.146 589.505 185.811C588.726 185.645 588.307 186.039 587.86 186.535C586.666 187.863 585.6 189.32 584.095 190.348C583.694 190.622 583.346 190.981 583.004 191.331C582.104 192.255 580.995 192.797 579.807 193.25C579.2 193.48 578.691 193.957 578.098 194.239C577.723 194.417 577.256 194.564 576.861 194.508C575.764 194.353 574.878 194.813 574.169 195.489C573.237 196.378 572.07 196.842 571.03 197.528C568.796 198.999 566.561 200.469 564.341 201.962C563.047 202.832 561.777 203.742 560.503 204.643C559.774 205.158 559.063 205.699 558.333 206.212C558.11 206.368 557.854 206.57 557.604 206.584C556.202 206.67 555.299 207.731 554.192 208.352C552.483 209.309 550.917 210.52 549.278 211.604C548.194 212.322 547.09 213.01 545.988 213.7C544.632 214.549 543.69 215.847 542.5 216.874C542.221 217.115 541.853 217.249 541.536 217.45C541.078 217.739 540.558 217.976 540.192 218.357C538.9 219.702 537.435 220.832 535.965 221.964C535.653 222.204 535.275 222.443 535.113 222.775C534.59 223.839 533.628 224.532 532.956 225.469C532.484 226.126 531.881 226.694 531.306 227.273C530.858 227.723 530.31 227.817 529.707 227.471C529.214 228.167 528.782 228.825 528.301 229.444C527.577 230.375 526.792 231.258 526.082 232.197C525.346 233.171 524.682 234.199 523.955 235.18C523.737 235.474 523.407 235.686 523.134 235.941C522.934 236.127 522.73 236.311 522.553 236.519C521.847 237.345 521.138 238.172 520.455 239.017C520.089 239.47 519.693 239.926 519.451 240.446C519.119 241.158 518.519 241.59 518.022 242.14C516.941 243.338 515.929 244.599 514.892 245.837C514.717 246.046 514.559 246.271 514.288 246.623C513.907 245.897 513.497 245.289 513.252 244.62C511.744 240.523 510.245 236.422 508.803 232.302C508.13 230.378 507.688 228.371 506.967 226.466C506.105 224.188 505.159 221.928 504.064 219.754C502.789 217.222 501.333 214.779 499.919 212.319C499.314 211.265 498.636 210.251 497.949 209.245C497.387 208.421 496.218 208.154 495.264 208.427C493.562 208.914 492.322 210.031 491.16 211.267C490.574 211.891 489.986 212.528 489.508 213.232C488.964 214.034 488.555 214.926 488.063 215.764C487.311 217.041 486.548 218.313 485.769 219.574C485.442 220.103 485.005 220.57 484.72 221.117C484.349 221.833 483.618 222.097 483.103 222.593C482.329 223.339 481.785 224.334 481.195 225.256C480.858 225.782 480.656 226.392 480.336 226.93C479.732 227.942 478.971 228.864 478.701 230.057C478.642 230.312 478.443 230.544 478.28 230.767C476.986 232.543 476.106 234.485 475.682 236.66C475.444 237.882 475.056 239.091 474.59 240.247C474.215 241.18 473.688 242.07 473.115 242.901C471.989 244.541 471.164 246.272 470.725 248.237C470.429 249.564 469.761 250.805 469.309 252.101C468.991 253.016 468.537 253.957 468.532 254.888C468.525 256.267 467.917 257.381 467.45 258.576C467.337 258.863 467.25 259.161 467.091 259.633C468.351 258.972 468.272 257.455 469.385 256.859C470.028 257 470.114 257.55 469.987 258.038C469.582 259.591 469.632 261.173 469.582 262.749C469.581 262.789 469.575 262.829 469.568 262.867C469.317 264.207 468.901 265.498 468.733 266.878C468.555 268.345 468.097 269.877 466.905 271.006C467.071 271.385 467.199 271.71 467.352 272.022C467.852 273.045 468.341 274.073 468.873 275.077C469.088 275.482 469.34 275.91 469.683 276.196C471.249 277.493 472.005 279.138 471.916 281.158C471.881 281.976 471.997 282.738 472.484 283.405C472.977 284.08 472.986 284.712 472.35 285.317C473.062 287.189 474.223 288.712 475.532 290.152C476.051 290.721 476.609 291.243 476.97 291.989C477.361 292.802 476.93 293.447 476.89 294.161C476.85 294.869 477.178 295.64 476.458 296.267C476.176 296.512 476.15 297.049 475.985 297.516C474.891 297.678 473.865 297.563 473.138 296.615C472.593 295.905 471.784 295.935 470.925 295.667C470.753 296.109 470.535 296.556 470.406 297.025C470.127 298.029 469.633 298.194 468.871 297.526C468.494 297.196 468.043 296.949 467.674 296.612C467.216 296.194 466.693 295.788 466.396 295.264C465.137 293.038 463.999 290.756 463.477 288.215C463.314 287.419 463.028 286.649 462.799 285.868C462.776 285.792 462.754 285.716 462.747 285.637C462.611 284.154 462.494 282.67 462.339 281.19C462.246 280.293 462.039 279.406 461.989 278.509C461.924 277.326 461.961 276.138 461.956 274.951C461.953 274.493 461.956 274.034 461.956 273.49C460.38 274.537 460.144 276.44 458.745 277.556C458.109 276.165 458.078 274.924 458.374 273.491C458.678 272.019 459.344 270.786 459.954 269.48C460.968 267.309 461.958 265.123 462.859 262.902C463.302 261.813 463.546 260.637 463.838 259.49C464.195 258.087 464.589 256.726 465.368 255.457C465.929 254.544 466.191 253.437 466.523 252.397C466.877 251.291 467.097 250.138 467.483 249.044C468.014 247.542 468.605 246.058 469.247 244.6C469.892 243.135 470.617 241.704 471.337 240.273C471.473 240.003 471.747 239.798 471.967 239.574C473.184 238.338 473.995 236.865 474.492 235.217C474.594 234.877 474.575 234.499 474.61 234.14C474.531 234.122 474.451 234.105 474.372 234.087C473.446 235.275 472.519 236.462 471.538 237.722C471.013 236.495 471.057 234.84 471.523 233.94C472.582 231.9 473.874 230.039 475.502 228.4C476.108 227.791 476.586 227.051 477.094 226.351C477.786 225.394 478.433 224.404 479.132 223.451C480.436 221.67 481.781 219.919 483.069 218.127C483.385 217.688 483.569 217.15 483.78 216.643C484.503 214.907 485.219 213.168 485.922 211.423C486.163 210.824 486.46 210.29 487.089 209.964C488.131 210.735 487.204 211.911 487.693 212.909C487.926 212.688 488.116 212.525 488.288 212.344C489.559 211 490.771 209.595 492.109 208.321C493.472 207.024 495.217 206.574 497.039 206.863C498.623 207.115 499.798 208.142 500.662 209.481C501.708 211.101 502.756 212.722 503.758 214.368C505.617 217.427 507.287 220.575 508.479 223.974C509.244 226.159 510.185 228.287 511.137 230.401C511.683 231.613 512.422 232.737 513.056 233.911C513.768 235.228 514.275 236.602 514.498 238.108C514.632 239.01 515.097 239.864 515.489 240.95C515.96 240.419 516.394 240.02 516.721 239.548C518.567 236.863 521.062 234.745 523.086 232.219C523.506 231.695 523.965 231.196 524.341 230.644C525.64 228.74 527.274 227.126 528.824 225.443C529.93 224.242 530.781 222.903 531.327 221.365C531.365 221.258 531.441 221.166 531.52 221.033H532.401C532.464 221.372 532.523 221.699 532.588 222.052C532.734 222.042 532.89 222.08 532.949 222.021C533.843 221.131 534.712 220.217 535.611 219.334C536.593 218.369 537.6 217.429 538.597 216.478C539.332 215.777 539.991 214.96 540.825 214.404C541.823 213.738 542.733 213.02 543.491 212.096C543.637 211.918 543.844 211.772 544.051 211.663C545.219 211.043 546.476 210.556 547.549 209.802C548.993 208.787 550.786 208.377 552.052 207.044C552.607 206.46 553.423 206.131 554.092 205.645C555.426 204.676 556.7 203.62 558.074 202.715C559.248 201.941 560.532 201.335 561.76 200.639C562.686 200.116 563.618 199.599 564.509 199.022C565.304 198.508 566.034 197.897 566.818 197.365C567.754 196.728 568.718 196.132 569.671 195.519C570.99 194.667 572.286 193.779 573.633 192.975C574.775 192.294 575.975 191.708 577.152 191.084C577.395 190.955 577.674 190.879 577.895 190.718C579.036 189.889 580.165 189.044 581.296 188.201C583.255 186.743 585.211 185.282 587.172 183.826C587.552 183.543 587.922 183.232 588.34 183.022C589.073 182.655 589.824 182.313 590.597 182.044C591.034 181.892 591.372 182.148 591.439 182.629C591.504 183.098 591.556 183.573 591.568 184.046C591.672 188.193 591.767 192.339 591.859 196.486C591.871 197 591.846 197.516 591.864 198.029C591.936 200.123 591.628 202.172 591.155 204.205C591.093 204.47 591.085 204.758 591.108 205.03C591.256 206.804 590.651 208.447 590.157 210.087C589.265 213.049 588.247 215.975 587.279 218.914C586.713 220.63 586.154 222.35 585.569 224.059C584.96 225.84 584.292 227.602 583.707 229.392C583.319 230.579 583.116 231.832 582.677 232.998C581.621 235.791 581.697 238.712 581.487 241.614C581.41 242.68 580.942 243.726 580.602 244.765C580.091 246.336 579.667 247.921 579.608 249.581C579.576 250.491 578.939 251.068 578.419 251.666C577.983 252.164 577.44 252.092 576.812 251.642C576.436 251.372 576.102 251.044 575.694 250.696L575.697 250.692ZM466.656 261.658C466.151 261.764 465.907 261.979 466.202 262.494C466.357 262.356 466.501 262.284 466.553 262.17C466.624 262.016 466.626 261.829 466.656 261.657V261.658Z" fill="#8DC0FF"/>
<path d="M253.953 326.627C254.727 326.749 255.464 326.7 255.761 327.478C255.513 328.393 254.958 328.823 253.986 329.061C252.582 329.405 251.222 329.91 249.748 329.779C249.292 329.738 248.846 329.59 248.392 329.506C248.124 329.456 247.851 329.421 247.579 329.403C246.405 329.326 245.231 329.212 244.055 329.2C243.235 329.192 242.411 329.393 241.591 329.377C241.067 329.368 240.412 329.292 240.047 328.977C238.9 327.991 237.449 327.911 236.131 327.436C234.014 326.673 231.902 325.898 229.799 325.097C228.083 324.443 226.841 323.133 225.608 321.859C224.343 320.554 223.106 319.207 222.002 317.768C219.202 314.119 217.599 309.959 216.799 305.436C216.513 303.82 215.836 302.273 215.321 300.7C214.977 299.648 214.592 298.608 214.249 297.556C214.145 297.241 214.119 296.902 214.025 296.407C215.054 296.854 214.87 297.999 215.868 298.506C215.721 297.899 215.633 297.463 215.507 297.038C215.004 295.333 214.491 293.632 213.978 291.93C213.477 290.265 212.962 288.604 212.477 286.933C212.344 286.473 212.076 285.975 212.541 285.446C213.901 287.838 215.226 290.166 216.639 292.65C216.805 292.279 216.932 292.091 216.974 291.885C217.218 290.685 217.454 289.482 217.668 288.276C217.764 287.732 217.847 287.179 217.857 286.629C217.896 284.244 218.445 281.975 219.29 279.756C219.51 279.179 219.556 278.528 219.632 277.906C219.774 276.73 219.878 275.551 220 274.375C220.122 273.197 220.253 272.019 220.372 270.841C220.531 269.272 220.631 267.694 220.86 266.135C220.961 265.451 221.24 264.762 221.572 264.15C222.283 262.84 222.605 262.783 223.893 263.523C224.561 263.47 224.816 262.941 225.031 262.443C226.739 258.496 229.322 255.179 232.352 252.175C233.051 251.483 233.709 250.748 234.529 249.88V251.397C234.944 251.242 235.235 251.171 235.49 251.032C237.297 250.051 239.048 248.952 240.912 248.098C242.734 247.263 244.66 246.647 246.56 245.999C247.067 245.826 247.653 245.853 248.204 245.848C249.068 245.84 249.935 245.929 250.798 245.896C253.82 245.779 256.749 246.372 259.452 247.594C262.258 248.86 264.431 250.903 265.892 253.771C267.293 256.522 267.519 259.511 268.262 262.395C268.438 263.077 268.641 263.761 268.914 264.41C269.757 266.409 270.729 268.341 271.361 270.442C271.747 271.727 271.824 272.862 271.416 274.108C271.221 274.7 271.198 275.352 271.121 275.979C271.02 276.793 271.099 277.624 270.613 278.384C270.427 278.675 270.512 279.154 270.512 279.547C270.51 282.434 270.569 285.323 270.503 288.209C270.465 289.862 270.304 291.521 270.066 293.158C269.793 295.033 269.349 296.882 269.021 298.75C268.532 301.541 267.582 304.185 266.373 306.72C265.67 308.192 265.034 309.751 263.683 310.844C262.303 311.962 261.725 313.587 261.251 315.211C261.031 315.966 260.642 316.513 260.017 316.852C259.049 317.378 258.597 318.271 258.102 319.164C256.92 321.293 255.717 323.41 254.526 325.534C254.341 325.865 254.174 326.207 253.954 326.627H253.953ZM265.51 302.895L265.731 302.983C265.921 302.722 266.218 302.485 266.282 302.195C266.529 301.089 266.71 299.969 266.899 298.851C267.063 297.887 267.093 296.886 267.379 295.963C267.874 294.361 267.546 292.668 268.047 291.083C268.047 286.538 268.058 281.991 268.039 277.446C268.035 276.741 267.936 276.03 267.812 275.334C267.488 273.512 267.127 271.695 266.777 269.876C266.569 268.798 266.395 267.713 266.123 266.651C266 266.174 265.571 265.773 265.465 265.295C265.106 263.675 264.073 262.407 263.359 260.972C262.784 259.821 262.216 258.604 262.003 257.353C261.858 256.503 261.535 256.022 260.921 255.538C259.911 254.739 258.948 253.884 258.305 252.725C258.005 252.184 257.726 251.546 257.028 251.4C255.887 251.161 254.741 250.916 253.585 250.784C251.744 250.574 250.077 251.473 248.306 251.753C247.287 251.914 246.332 252.454 245.34 252.799C244.091 253.232 242.807 253.576 241.589 254.079C240.726 254.435 239.9 254.925 239.14 255.473C238.412 255.996 237.818 256.704 237.115 257.267C236.462 257.789 235.758 258.227 235.839 259.227C235.852 259.388 235.663 259.564 235.568 259.735C234.963 260.832 234.323 261.911 233.766 263.033C233.403 263.767 232.877 264.262 232.209 264.725C230.941 265.604 229.894 266.802 228.317 267.232C228.123 267.285 228.009 267.803 227.943 268.123C227.835 268.655 227.817 269.204 227.724 269.739C227.657 270.119 227.515 270.486 227.432 270.865C227.124 272.28 226.701 273.665 226.577 275.128C226.489 276.164 226.106 277.172 225.922 278.204C225.724 279.314 225.036 280.1 224.113 280.519C223.543 280.778 223.252 281.147 222.936 281.582C222.731 281.864 222.611 282.253 222.345 282.438C221.77 282.836 221.655 283.364 221.694 283.984C221.743 284.77 221.85 285.557 221.842 286.342C221.817 288.631 221.74 290.92 221.702 293.209C221.694 293.64 221.793 294.071 221.811 294.503C221.851 295.445 221.908 296.386 221.889 297.328C221.874 298.114 221.679 298.902 221.71 299.684C221.789 301.634 221.413 303.604 222.08 305.537C222.423 306.531 222.471 307.623 222.75 308.643C223.429 311.128 225.03 313.143 226.312 315.314C226.551 315.718 227.174 315.927 227.656 316.147C228.188 316.389 228.784 316.491 229.312 316.739C230.486 317.292 231.681 317.824 232.784 318.499C233.87 319.165 235.238 319.248 236.176 320.195C236.243 320.261 236.414 320.21 236.52 320.253C236.77 320.351 237.039 320.437 237.251 320.593C238.751 321.704 239.537 321.699 241.042 320.506C240.905 320.208 240.764 319.899 240.621 319.589C241.095 318.96 241.717 318.696 242.488 318.813C243.219 318.924 243.972 318.979 244.67 319.2C245.525 319.472 246.365 319.834 247.153 320.263C247.79 320.611 248.145 321.153 248.15 321.997C248.155 322.922 248.432 323.847 248.61 324.768C248.647 324.956 248.747 325.141 248.858 325.301C249.285 325.921 249.858 325.969 250.311 325.376C250.645 324.94 250.866 324.419 251.18 323.968C252.393 322.233 253.269 320.236 255.069 318.956C255.19 318.871 255.278 318.728 255.356 318.598C255.7 318.028 255.989 317.416 256.387 316.887C257.078 315.968 257.821 315.096 257.787 313.844C257.782 313.664 257.963 313.487 257.998 313.297C258.058 312.965 258.152 312.609 258.093 312.288C257.917 311.353 258.215 310.561 258.781 309.871C259.566 308.916 260.178 307.883 260.595 306.714C261.135 305.2 261.677 303.679 262.358 302.226C262.829 301.219 263.536 300.321 264.257 299.186C264.7 299.942 265.112 300.442 265.295 301.015C265.483 301.604 265.446 302.265 265.508 302.894L265.51 302.895Z" fill="#8DC0FF"/>
<path d="M615.453 240.487C615.453 241.055 615.473 241.622 615.448 242.188C615.404 243.159 615.466 243.233 616.408 243.439C616.704 243.503 616.996 243.639 617.256 243.797C619.05 244.884 620.106 246.628 621.165 248.335C622.372 250.281 623.544 252.259 624.577 254.302C625.912 256.942 627.234 259.602 627.973 262.496C628.07 262.878 628.14 263.311 628.371 263.604C629.07 264.493 629.081 265.594 629.355 266.602C629.621 267.58 629.683 268.615 629.829 269.625C630.089 271.421 630.344 273.219 630.602 275.017C630.63 275.213 630.679 275.408 630.679 275.604C630.659 280.111 630.635 284.62 630.608 289.127C630.603 289.838 630.608 290.552 630.565 291.262C630.45 293.152 630.438 295.06 630.145 296.923C629.851 298.788 629.303 300.616 628.797 302.441C628.526 303.42 628.303 303.476 627.242 303.523C626.193 303.571 625.205 303.36 624.226 303.029C623.104 302.649 621.991 302.224 620.843 301.951C618.846 301.476 617.111 300.448 615.342 299.494C613.884 298.708 612.47 297.837 611.048 296.984C610.507 296.66 609.973 296.315 609.482 295.923C607.855 294.623 606.023 293.769 604.007 293.275C603.189 293.075 602.386 292.812 601.445 292.539C601.286 295.085 601.383 297.382 602.015 299.744C602.465 301.424 602.902 303.246 602.338 305.102C602.083 305.94 602.294 306.91 602.212 307.813C602.094 309.099 601.895 310.377 601.744 311.661C601.604 312.86 601.478 314.06 601.352 315.261C601.253 316.196 601.166 317.132 601.072 318.069C600.932 319.473 601.321 320.723 602.174 321.836C602.246 321.93 602.34 322.016 602.384 322.122C603.204 324.124 604.092 326.101 604.8 328.142C605.141 329.125 605.217 330.223 605.27 331.277C605.369 333.225 606.297 334.703 607.665 335.985C607.949 336.253 608.221 336.539 608.463 336.844C609.591 338.266 611.449 338.668 613.13 337.882C613.579 337.672 614.086 337.586 614.569 337.455C614.832 337.384 615.132 337.396 615.362 337.273C616.785 336.513 618.221 335.773 619.595 334.931C620.528 334.359 621.371 333.638 622.245 332.972C623.776 331.806 625.305 330.638 626.825 329.458C627.411 329.002 627.927 328.441 628.549 328.046C630.597 326.741 632.229 324.992 633.838 323.217C634.337 322.667 634.716 322.007 635.15 321.399C635.311 321.174 635.444 320.918 635.642 320.732C636.994 319.454 637.957 317.872 639.063 316.401C639.587 315.703 640.099 315.025 640.953 314.667C641.257 314.54 641.507 314.229 641.718 313.952C642.385 313.081 643.029 312.193 643.662 311.296C643.999 310.819 644.327 310.387 644.996 310.726C645.232 311.909 644.746 312.999 643.581 313.66C643.079 313.947 642.668 314.221 642.463 314.795C642.363 315.073 642.123 315.359 641.868 315.511C640.63 316.251 639.876 317.358 639.209 318.602C638.811 319.342 638.141 319.937 637.585 320.591C637.356 320.86 637.056 321.081 636.875 321.378C635.598 323.478 633.663 325.031 632.222 327C631.75 327.645 630.997 328.084 630.373 328.618C629.984 328.951 629.597 329.284 629.209 329.616C628.01 330.64 626.826 331.683 625.608 332.682C624.42 333.656 623.131 334.513 622.008 335.553C620.741 336.726 619.156 337.343 617.77 338.277C616.424 339.185 614.898 339.515 613.477 340.155C613.093 340.329 612.649 340.405 612.225 340.446C611.639 340.504 611.06 340.451 610.607 340.995C610.481 341.147 609.99 341.156 609.768 341.039C608.938 340.599 608.063 340.18 607.367 339.569C606.363 338.685 605.347 337.742 604.621 336.637C603.899 335.539 603.494 334.224 603.011 332.979C602.031 330.455 601.074 327.921 600.142 325.379C599.615 323.943 599.123 322.501 599.123 320.923C599.123 320.202 598.817 319.482 598.658 318.76C598.559 318.309 598.404 317.854 598.4 317.399C598.377 314.393 598.467 311.384 598.354 308.383C598.292 306.72 598.162 305.081 598.358 303.411C598.504 302.162 598.355 300.882 598.403 299.618C598.43 298.878 598.602 298.144 598.673 297.405C598.722 296.897 598.733 296.381 598.716 295.871C598.701 295.399 598.493 294.897 598.601 294.466C599.129 292.353 597.839 290.787 597.085 289.052C596.264 287.165 594.647 286.111 593.018 285.052C592.325 284.601 591.653 284.112 591.012 283.589C590.115 282.859 590.107 282.249 590.994 281.22C592.596 281.7 594.248 282.194 595.9 282.69C596.089 282.747 596.271 282.853 596.461 282.87C597.413 282.95 597.957 282.309 597.724 281.381C597.667 281.156 597.563 280.928 597.426 280.743C596.465 279.457 595.818 278.024 595.399 276.485C594.952 274.85 594.514 273.213 594.102 271.569C593.978 271.072 593.972 270.554 594.614 270.071C595.687 272.568 595.793 275.372 597.518 277.508C597.995 277.326 597.846 276.992 597.789 276.705C597.443 274.961 597.062 273.223 596.746 271.473C596.58 270.554 596.433 269.605 597.065 268.643C597.758 269.283 598.431 269.789 598.65 270.754C599.138 272.912 599.715 275.048 600.26 277.192C600.287 277.299 600.367 277.392 600.558 277.739C600.742 276.897 600.932 276.279 601.001 275.646C601.078 274.941 601.078 274.224 601.056 273.512C600.996 271.547 601.268 269.63 601.777 267.737C601.857 267.44 601.832 267.108 601.817 266.793C601.755 265.455 602.272 264.241 602.688 263.022C602.961 262.221 603.455 261.491 603.885 260.749C604.818 259.136 605.321 257.351 606.019 255.643C607.106 252.99 608.215 250.336 609.854 247.948C610.299 247.302 610.594 246.555 610.985 245.869C611.277 245.357 611.639 244.884 611.919 244.366C612.332 243.605 612.876 243.233 613.805 243.226C614.878 243.218 615.055 242.87 614.988 241.799C614.961 241.356 615.044 240.907 615.076 240.461C615.201 240.468 615.326 240.476 615.449 240.483L615.453 240.487ZM626.141 298.112C626.324 297.77 626.656 297.417 626.694 297.032C626.839 295.599 627.307 294.296 628.003 293.051C628.15 292.787 628.235 292.47 628.271 292.169C628.419 290.923 628.533 289.674 628.67 288.429C628.691 288.235 628.799 288.05 628.809 287.858C628.873 286.606 629.033 285.345 628.948 284.103C628.81 282.098 628.501 280.106 628.277 278.106C628.124 276.741 627.994 275.372 627.848 274.005C627.836 273.89 627.766 273.782 627.74 273.668C627.541 272.788 627.32 271.912 627.154 271.025C626.828 269.287 626.556 267.54 625.843 265.898C625.577 265.285 625.196 264.61 625.25 263.997C625.358 262.784 624.844 261.783 624.552 260.692C624.321 259.83 623.796 259.251 623.213 258.651C622.726 258.15 622.237 257.617 621.9 257.013C620.86 255.158 619.827 253.292 618.92 251.37C618.369 250.203 617.269 249.627 616.482 248.726C616.341 248.564 615.972 248.572 615.704 248.557C615.394 248.541 615.08 248.602 614.769 248.6C613.864 248.593 613.686 248.712 613.306 249.606C613.247 249.746 613.194 249.908 613.09 250.009C611.806 251.255 610.867 252.732 610.118 254.343C609.29 256.122 608.485 257.913 607.585 259.655C607.158 260.483 606.561 261.211 606.429 262.182C606.346 262.793 606.173 263.393 606.022 263.994C605.629 265.561 604.773 266.989 605.237 268.779C605.577 270.088 605.206 271.471 604.641 272.78C603.541 275.324 603.135 278.035 602.966 280.788C602.924 281.451 602.798 282.111 602.679 282.766C602.577 283.33 602.569 283.837 602.97 284.324C603.463 284.921 603.892 285.572 604.458 286.352C605.351 286.57 606.569 286.632 607.388 287.527C608.49 288.73 609.64 289.923 610.535 291.276C611.723 293.072 613.369 293.881 615.394 294.165C615.622 294.197 615.871 294.239 616.061 294.357C616.832 294.835 617.668 295.257 618.318 295.871C618.846 296.371 619.372 296.432 620.014 296.474C621.108 296.543 622.225 296.591 623.278 296.861C624.206 297.098 625.058 297.626 626.142 298.114L626.141 298.112Z" fill="#8DC0FF"/>
<path d="M381.012 305.494C381.348 304.313 381.697 303.352 381.885 302.359C382.108 301.185 383.001 300.415 384.13 300.74C384.979 300.983 385.813 301.25 386.635 301.68C388.601 302.709 390.706 303.151 392.84 301.935C393.52 301.548 394.319 301.368 394.991 300.969C396.167 300.272 397.333 299.542 398.418 298.714C400.6 297.049 402.594 295.15 405.082 293.877C406.029 293.394 406.747 292.459 407.556 291.715C408.163 291.154 408.771 290.589 409.337 289.987C409.902 289.384 410.447 288.756 410.932 288.089C411.087 287.876 411.066 287.501 411.045 287.205C411.001 286.58 410.892 285.959 410.833 285.334C410.791 284.892 410.976 284.555 411.413 284.416C411.863 284.274 412.04 284.602 412.225 284.921C412.691 285.728 413.263 286.296 414.311 285.891C414.753 285.72 415.001 286.031 415.08 286.403C415.16 286.784 415.156 287.186 415.158 287.58C415.165 288.451 415.177 289.321 415.146 290.19C415.078 292.112 415.546 293.937 416.098 295.75C416.189 296.048 416.281 296.352 416.313 296.659C416.352 297.028 416.287 297.384 415.839 297.493C415.357 297.611 415.087 297.374 414.954 296.937C414.631 295.88 414.315 294.822 413.99 293.765C413.912 293.514 413.81 293.269 413.658 292.85C413.386 293.143 413.168 293.296 413.065 293.508C412.805 294.04 412.612 294.604 412.361 295.14C412.229 295.42 412.071 295.715 411.848 295.918C411.705 296.046 411.382 296.108 411.211 296.034C411.046 295.963 410.879 295.68 410.879 295.489C410.878 295.027 410.973 294.564 411.043 293.981C410.8 294.081 410.613 294.11 410.493 294.214C409.633 294.97 408.748 295.703 407.946 296.517C406.306 298.183 404.283 299.435 402.815 301.286C402.632 301.516 402.31 301.673 402.02 301.774C400.651 302.246 399.272 302.688 397.896 303.14C397.821 303.165 397.735 303.176 397.674 303.22C395.992 304.388 393.836 304.341 392.1 305.393C391.713 305.628 391.204 305.698 390.74 305.761C390.135 305.844 389.601 305.941 389.228 306.528C389.107 306.719 388.678 306.746 388.382 306.787C387.332 306.93 386.209 306.861 385.247 307.225C384.193 307.622 383.043 307.172 382.063 307.787C381.969 307.847 381.768 307.71 381.616 307.704C380.993 307.678 380.369 307.647 379.746 307.656C378.982 307.666 378.21 307.786 377.456 307.715C377.127 307.684 376.799 307.329 376.529 307.063C375.884 306.432 375.253 305.783 374.656 305.107C374.322 304.728 374.08 304.271 373.775 303.865C372.838 302.617 371.884 301.383 370.725 300.325C369.612 299.309 369.19 297.876 368.488 296.61C367.305 294.479 366.012 292.407 364.888 290.246C363.748 288.054 362.276 286.046 361.477 283.658C361.101 282.531 360.242 281.57 359.652 280.508C359.057 279.437 358.353 278.463 357.493 277.588C355.621 275.679 353.426 274.401 350.751 274.018C350.595 273.995 350.425 273.99 350.291 273.92C348.327 272.91 346.144 273.064 344.052 272.74C343.459 272.649 343.457 272.664 343.037 271.896C343.939 270.941 345.111 270.763 346.354 270.71C347.012 270.681 347.672 270.567 348.315 270.423C349.264 270.209 350.188 269.816 351.145 269.724C351.812 269.66 352.527 269.933 353.198 270.132C353.871 270.331 354.536 270.583 355.17 270.887C356.019 271.293 356.807 271.305 357.635 270.83C357.962 270.642 358.367 270.522 358.745 270.501C359.4 270.463 359.794 270.114 359.97 269.555C360.407 268.167 360.792 266.762 361.197 265.363C361.597 263.981 361.736 262.508 362.649 261.306C363.009 260.833 363.583 260.512 363.615 259.792C363.624 259.6 363.969 259.372 364.205 259.25C365.185 258.745 366.161 258.223 367.181 257.811C368.069 257.452 368.856 257.045 369.464 256.252C369.802 255.81 370.356 255.339 370.867 255.263C371.995 255.095 373.124 254.663 374.307 255.024C374.585 255.109 374.977 255.088 375.227 254.952C376.208 254.416 377.279 254.228 378.344 253.981C378.716 253.894 379.166 253.73 379.376 253.449C379.798 252.88 380.365 252.893 380.942 252.816C381.487 252.745 382.029 252.651 382.57 252.549C383.27 252.416 383.922 252.381 384.65 252.627C385.33 252.857 386.127 252.764 386.874 252.779C388.135 252.805 388.442 253.027 388.43 254.289C388.42 255.359 388.818 255.918 389.784 256.476C391.061 257.214 392.375 257.569 393.781 257.776C394.085 257.822 394.373 258.019 394.673 258.036C395.164 258.065 395.706 258.121 396.142 257.95C396.695 257.732 397.137 257.702 397.545 258.125C398.418 259.029 399.456 259.778 400.03 260.96C400.447 261.817 401.213 262.336 402.102 262.623C402.79 262.845 403.039 263.244 403.19 263.969C403.501 265.469 403.63 266.951 403.162 268.404C402.73 269.745 402.165 271.045 401.589 272.332C401.442 272.662 401.05 272.895 400.743 273.138C400.278 273.506 399.766 273.815 399.32 274.204C398.83 274.633 398.27 274.824 397.664 275.041C396.483 275.465 395.346 276.042 394.248 276.656C393.776 276.921 393.342 277.105 392.811 277.072C390.762 276.946 388.714 276.784 386.662 276.706C384.454 276.622 382.243 276.624 380.034 276.567C379.325 276.549 378.566 276.61 377.92 276.379C376.176 275.758 374.406 276.028 372.639 276.017C371.89 276.012 371.138 275.988 370.394 275.914C369.351 275.812 369.181 275.838 368.723 276.783C368.346 277.561 367.84 278.091 367.034 278.486C365.686 279.146 365.128 281.298 365.769 282.68C366.999 285.331 368.096 288.032 368.887 290.852C369.077 291.527 369.388 292.171 369.663 292.82C370.169 294.01 370.537 295.293 371.24 296.355C372.211 297.821 373.462 299.101 374.548 300.495C375.144 301.26 375.636 302.106 376.201 302.897C376.495 303.309 376.772 303.843 377.19 304.037C378.358 304.578 379.595 304.971 381.011 305.5L381.012 305.494ZM364.399 272.364C364.908 273.033 365.558 273.562 366.502 273.627C367.934 273.726 369.359 274.233 370.795 273.525C371.247 273.302 371.879 273.181 372.342 273.314C372.866 273.464 373.243 273.35 373.693 273.195C374.167 273.032 374.725 272.753 375.146 272.874C375.859 273.077 376.356 272.803 376.933 272.547C377.747 272.186 378.553 271.693 379.509 272.2C379.682 272.293 379.974 272.231 380.188 272.164C381.769 271.672 383.134 271.826 384.213 273.264C384.789 274.032 385.76 274.249 386.382 273.806C386.693 273.586 386.865 273.166 387.131 272.792C387.479 272.731 387.955 272.759 388.31 272.566C389.897 271.702 391.691 271.63 393.38 271.174C393.816 271.057 394.294 271.092 394.754 271.07C395.818 271.019 397.195 270.033 397.531 268.978C397.852 267.968 398.134 266.94 398.331 265.9C398.565 264.67 397.725 263.707 396.584 263.782C396.475 264.408 397.051 265.031 396.566 265.843C395.851 264.968 395.206 264.194 394.577 263.407C393.923 262.586 392.711 262.377 392.205 261.346C392.976 260.567 393.823 261.259 394.658 261.107C393.463 260.377 392.274 260.076 391.065 260.104C390.678 260.112 390.284 260.013 389.899 259.931C387.937 259.511 386.026 258.831 384.009 258.707C382.887 258.64 381.756 258.695 380.507 258.695C380.076 257.983 379.332 258.215 378.581 258.289C376.068 258.538 373.605 259.047 371.167 259.679C370.147 259.943 369.162 260.381 368.132 260.561C366.814 260.79 366.034 261.579 365.447 262.665C365.091 263.325 364.817 264.034 364.419 264.666C364.021 265.299 363.882 265.897 364.012 266.66C364.114 267.263 364.418 267.668 364.755 268.097C365.288 268.776 365.427 269.485 365.084 270.309C364.817 270.952 364.639 271.632 364.399 272.364Z" fill="#8DC0FF"/>
<path d="M746.235 262.015C747.492 262.124 748.821 262.3 750.155 262.336C750.997 262.358 751.798 262.044 752.705 262.255C753.358 262.407 754.144 262.061 754.855 261.878C756.438 261.47 757.986 261.42 759.593 261.874C760.316 262.078 761.177 261.989 761.934 261.832C763.037 261.604 764.024 261.957 765.047 262.184C765.236 262.225 765.427 262.369 765.601 262.344C767.047 262.142 768.545 262.765 769.958 262.067C770.026 262.034 770.114 262.027 770.191 262.032C771.379 262.103 772.568 262.174 773.755 262.252C774.108 262.276 774.459 262.35 774.811 262.35C778.364 262.357 781.917 262.353 785.47 262.356C786.055 262.356 786.641 262.275 787.173 262.68C787.363 262.825 787.703 262.786 787.977 262.803C788.647 262.849 789.316 262.879 790 263.023C789.551 263.101 789.099 263.163 788.655 263.263C787.781 263.459 786.905 263.649 786.044 263.89C784.536 264.312 783.035 264.707 781.442 264.669C780.509 264.647 779.542 264.475 778.648 264.961C778.523 265.028 778.331 265.019 778.183 264.989C777.23 264.797 776.283 264.589 775.239 264.366C775.125 265.488 774.208 265.569 773.336 265.772C771.424 266.217 769.524 266.705 767.618 267.176C767.542 267.195 767.469 267.243 767.394 267.25C765.765 267.408 764.134 267.56 762.505 267.72C762.156 267.755 761.81 267.812 761.463 267.867C761.04 267.934 760.62 268.01 760.198 268.082C759.663 268.175 759.13 268.311 758.59 268.349C758.048 268.387 757.473 268.427 756.961 268.291C755.329 267.861 753.757 268.066 752.19 268.564C751.862 268.669 751.53 268.827 751.196 268.836C750.44 268.858 750.034 269.324 749.788 269.919C749.299 271.105 748.878 272.32 748.428 273.523C748.387 273.632 748.271 273.753 748.293 273.841C748.703 275.425 747.749 276.861 747.818 278.417C747.886 279.957 747.815 281.503 747.844 283.045C747.86 283.832 747.965 284.618 748.02 285.405C748.047 285.797 748.122 286.203 748.057 286.583C747.704 288.629 747.697 290.665 748.085 292.705C748.122 292.897 748.181 293.12 748.122 293.291C747.582 294.812 748.152 296.234 748.471 297.681C748.538 297.984 748.579 298.329 748.502 298.62C748.027 300.414 748.309 302.24 748.234 304.05C748.186 305.186 748.383 306.34 747.887 307.442C747.767 307.709 747.837 308.066 747.837 308.382C747.834 310.202 747.859 312.023 747.822 313.842C747.811 314.371 747.57 314.895 747.55 315.427C747.53 315.96 747.537 316.545 747.735 317.025C748.205 318.162 748.604 319.303 748.579 320.544C748.569 321.049 748.451 321.552 748.379 322.055C748.333 322.366 748.212 322.683 748.247 322.984C748.422 324.501 747.954 325.951 747.805 327.433C747.76 327.889 747.547 328.342 747.346 328.765C747.071 329.338 746.745 329.426 745.586 329.305C745.447 327.857 745.312 326.378 745.162 324.901C744.944 322.754 744.706 320.608 744.497 318.46C744.437 317.832 744.369 317.19 744.437 316.569C744.583 315.244 744.388 313.983 744.014 312.717C743.817 312.05 743.771 311.339 743.651 310.648C743.619 310.465 743.568 310.287 743.526 310.105C743.444 310.098 743.362 310.092 743.279 310.085C743.137 310.83 742.948 311.57 742.863 312.322C742.702 313.767 742.621 315.219 742.467 316.665C742.393 317.349 741.82 317.829 741.104 317.91C739.034 318.146 738.03 317.319 737.494 315.24C737.386 314.821 737.307 314.395 737.205 313.975C737.012 313.191 737.581 310.434 738.074 309.78C738.67 308.991 739.345 308.924 740.372 309.597C740.746 308.845 740.912 308.066 740.942 307.239C741.085 303.369 741.27 299.502 741.371 295.632C741.397 294.619 741.18 293.6 741.071 292.585C741.058 292.467 741.007 292.355 740.997 292.237C740.859 290.67 740.758 289.098 740.579 287.535C740.469 286.574 740.354 285.586 740.033 284.683C739.668 283.659 739.762 282.693 739.938 281.684C740.023 281.193 740.083 280.683 740.054 280.188C740.009 279.406 739.842 278.63 739.795 277.848C739.738 276.868 739.75 275.903 739.499 274.922C739.324 274.244 739.502 273.439 739.662 272.723C739.778 272.213 739.756 271.809 739.474 271.384C738.993 270.661 738.525 269.929 738.063 269.194C737.585 268.431 736.93 267.873 736.084 267.585C734.975 267.208 733.845 266.891 732.729 266.534C731.95 266.285 731.145 266.08 730.412 265.729C729.089 265.095 727.713 264.958 726.28 265.006C725.301 265.038 724.314 265.107 723.362 264.701C723.057 264.57 722.658 264.665 722.303 264.643C721.752 264.608 721.105 264.733 720.669 264.487C719.451 263.798 718.064 264.004 716.801 263.587C716.304 263.423 715.673 263.446 715.161 263.591C713.384 264.094 711.576 263.946 709.795 263.832C708.638 263.758 707.604 264.033 706.566 264.368C705.704 264.646 704.878 264.643 703.965 264.447C703.765 264.63 703.538 264.838 703.213 265.135C703.144 265.009 703.074 264.917 703.042 264.814C702.786 263.993 702.514 263.175 702.289 262.346C702.016 261.339 702.643 259.771 703.524 259.291C703.927 259.993 704.33 260.699 704.65 261.256C705.534 261.256 706.33 261.084 706.999 261.3C707.823 261.565 708.628 261.645 709.444 261.57C710.248 261.495 711.046 261.288 711.831 261.081C713.121 260.74 714.412 260.787 715.715 260.954C717.357 261.164 719.002 261.356 720.645 261.56C722.525 261.794 724.397 262.09 726.283 262.252C727.885 262.391 729.495 262.561 731.108 262.118C731.673 261.963 732.337 262.15 732.953 262.207C733.84 262.289 734.726 262.397 735.611 262.488C735.807 262.508 736.006 262.494 736.203 262.503C737.857 262.583 739.509 262.68 741.164 262.737C742.11 262.77 742.514 262.375 742.567 261.406C742.599 260.815 742.55 260.219 742.574 259.626C742.589 259.234 742.617 258.827 742.741 258.463C742.829 258.206 743.046 257.907 743.283 257.81C743.705 257.633 744.061 257.902 744.263 258.271C744.897 259.435 745.504 260.614 746.239 262.011L746.235 262.015Z" fill="#8DC0FF"/>
<path d="M674.889 237.851C675.14 236.55 675.393 235.405 675.576 234.249C676.189 230.379 677.065 226.568 678.135 222.803C678.401 221.87 678.576 220.839 679.59 220.329C679.726 220.26 679.876 220.216 680.02 220.16C681.243 220.909 681.904 222.123 682.573 223.252C683.915 225.52 685.129 227.867 686.313 230.224C686.69 230.975 686.746 231.881 687.055 232.674C687.507 233.836 688.058 234.96 688.564 236.101C689.33 237.826 690.067 239.566 690.865 241.275C691.462 242.555 692.138 243.798 692.779 245.059C692.867 245.233 692.983 245.4 693.033 245.584C693.225 246.299 693.649 246.693 694.395 246.878C695.765 247.219 696.842 248.193 697.412 249.34C698.041 250.605 698.385 252.008 697.518 253.576C696.75 254.968 696.326 256.692 697.641 258.202C697.84 258.431 697.97 258.733 698.09 259.019C700.163 263.972 702.246 268.922 704.293 273.886C706.795 279.951 709.311 286.01 711.308 292.27C711.924 294.203 711.817 296.156 711.769 298.146C711.234 298.222 710.781 298.287 710.169 298.374C709.477 297.196 708.727 295.998 708.055 294.757C706.873 292.575 705.732 290.37 704.59 288.166C704.209 287.431 703.9 286.66 703.517 285.927C702.718 284.397 701.889 282.88 701.444 281.195C701.405 281.048 701.332 280.888 701.225 280.782C700.424 279.987 700.302 278.887 699.981 277.897C699.416 276.153 698.954 274.376 698.478 272.603C698.042 270.979 697.679 269.334 697.219 267.717C696.855 266.438 696.376 265.193 695.982 263.921C695.844 263.48 695.709 263 695.743 262.551C695.83 261.414 695.495 260.378 695.143 259.333C694.968 258.816 694.773 258.294 694.683 257.76C694.414 256.164 693.522 254.845 692.812 253.449C692.628 253.087 692.26 252.816 691.97 252.509C691.55 252.063 691.183 251.534 690.687 251.199C689.715 250.542 688.68 249.98 687.655 249.409C686.621 248.833 685.592 248.238 684.516 247.75C682.457 246.818 680.372 245.938 678.282 245.078C677.826 244.891 677.298 244.878 676.668 244.759C676.486 245.532 676.326 246.209 676.168 246.886C676.043 247.416 675.919 247.948 675.798 248.48C675.572 249.469 675.342 250.456 675.129 251.447C675.081 251.674 675.046 251.924 675.092 252.147C675.474 254.007 674.98 255.813 674.778 257.637C674.761 257.792 674.672 257.942 674.67 258.095C674.645 259.909 674.645 261.718 674.273 263.515C674.006 264.81 674.702 266.03 674.801 267.307C674.829 267.657 674.906 268.008 674.882 268.352C674.831 269.094 674.67 269.833 674.66 270.574C674.631 272.986 674.636 275.4 674.654 277.813C674.665 279.188 674.572 280.557 674.965 281.926C675.206 282.766 675.185 283.673 675.105 284.603C674.99 285.941 675.333 287.32 675.483 288.68C675.487 288.717 675.512 288.756 675.538 288.785C676.575 289.966 676.312 291.359 676.135 292.715C676.077 293.161 675.832 293.596 675.616 294.007C675.375 294.466 674.961 294.554 674.501 294.344C673.112 293.707 671.725 293.079 670.668 291.905C669.841 290.985 669.734 290.098 670.696 289.368C671.49 288.765 671.611 288.059 671.612 287.208C671.615 282.461 671.565 277.713 671.644 272.967C671.7 269.614 672.022 266.265 672.055 262.912C672.081 260.332 672.432 257.796 672.702 255.247C673.036 252.106 673.463 248.975 673.853 245.841C673.887 245.566 673.928 245.292 673.977 245.02C674.166 243.987 674.072 243.09 673.061 242.45C672.682 242.211 672.446 241.747 672.093 241.511C670.778 240.934 669.461 240.355 668.04 239.731C667.901 240.074 667.736 240.341 667.689 240.628C667.584 241.29 667.514 241.961 667.469 242.629C667.298 245.153 667.109 247.676 666.996 250.203C666.952 251.182 667.121 252.17 667.136 253.156C667.152 254.12 666.991 254.332 666.092 254.621C665.607 254.776 665.095 254.851 664.591 254.946C663.394 255.171 662.196 255.387 660.997 255.6C660.608 255.669 660.213 255.784 659.828 255.76C658.477 255.674 657.17 256.383 655.746 255.723C655.039 255.395 654.035 255.703 653.165 255.729C652.261 255.755 651.389 255.735 650.479 255.503C648.959 255.116 647.386 254.903 645.823 254.733C645.097 254.653 644.342 254.886 643.6 254.901C642.987 254.913 642.357 254.88 641.767 254.733C641.477 254.66 641.124 254.328 641.035 254.039C640.436 252.082 640.408 250.126 641.492 248.32C641.812 247.788 642.434 247.439 643.012 246.921C643.978 248.296 644.568 249.558 644.16 251.108C643.968 251.838 644.15 252.047 644.934 252.18C646.63 252.467 648.34 252.415 649.967 251.964C651.084 251.655 652.035 251.923 653.069 252.13C654.416 252.401 655.788 252.562 657.15 252.763C657.303 252.785 657.487 252.801 657.619 252.739C658.711 252.226 659.87 252.458 661.004 252.396C661.386 252.375 661.766 252.252 662.141 252.152C662.783 251.983 663.436 251.834 664.056 251.599C664.348 251.488 664.629 251.236 664.809 250.973C664.953 250.763 664.963 250.446 664.986 250.172C665.145 248.251 665.29 246.327 665.445 244.406C665.575 242.798 665.691 241.188 665.856 239.582C665.919 238.97 666.07 238.359 666.239 237.765C666.578 236.568 668.042 235.846 669.222 236.207C671.029 236.758 672.852 237.263 674.893 237.854L674.889 237.851ZM680.698 226.218C679.559 228.281 679.656 230.338 679.249 232.274C678.994 233.489 679.054 234.761 678.493 235.927C678.194 236.549 678.038 237.24 677.82 237.9C677.429 239.077 677.71 239.822 678.803 240.442C681.072 241.73 683.329 243.041 685.624 244.282C686.836 244.937 688.114 245.471 689.372 246.04C689.55 246.121 689.782 246.085 690.119 246.115C689.951 245.696 689.856 245.4 689.719 245.127C689.155 244.007 688.494 242.929 688.021 241.773C686.061 236.977 683.953 232.252 681.538 227.666C681.307 227.226 681.04 226.804 680.698 226.217V226.218Z" fill="#8DC0FF"/>
<path d="M314.808 245.55C315.121 245.286 315.264 245.216 315.331 245.102C316.985 242.303 318.395 239.405 319.13 236.208C319.467 234.739 319.938 233.315 321.061 232.199C321.39 231.873 321.603 231.423 321.839 231.013C322.687 229.544 323.519 228.069 324.362 226.598C324.683 226.038 325.373 225.477 326.173 225.163C326.232 225.519 326.326 225.842 326.333 226.169C326.355 227.078 326.358 227.988 326.337 228.897C326.295 230.621 326.888 232.068 328.19 233.204C329.883 234.68 330.977 236.633 332.317 238.388C332.504 238.632 332.593 238.955 332.704 239.25C333.222 240.61 333.709 241.984 334.262 243.329C334.418 243.706 334.699 244.141 335.04 244.308C335.69 244.623 336.054 245.178 336.132 245.757C336.277 246.843 336.245 247.957 336.209 249.057C336.194 249.545 336.03 250.042 335.861 250.509C335.718 250.907 335.531 251.322 335.256 251.633C334.814 252.131 334.762 252.65 334.831 253.278C334.977 254.612 335.011 255.959 335.157 257.294C335.315 258.738 335.549 260.173 335.75 261.612C335.891 262.623 336.043 263.634 336.171 264.646C336.339 265.976 336.473 267.31 336.646 268.639C336.931 270.83 337.217 273.019 337.547 275.203C337.609 275.611 337.801 276.059 338.073 276.364C338.574 276.928 338.79 277.579 338.929 278.284C339.013 278.71 339.15 279.135 339.17 279.565C339.281 281.979 340.718 283.724 342.126 285.48C342.566 286.029 342.895 286.583 342.744 287.312C342.723 287.418 342.639 287.511 342.591 287.594C342.487 287.608 342.399 287.651 342.338 287.626C341.248 287.171 341.139 287.297 340.868 288.395C340.523 289.797 340.016 291.159 339.528 292.698C338.603 292.428 337.807 292.192 337.007 291.967C336.784 291.904 336.552 291.855 336.322 291.834C335.433 291.753 334.882 291.26 334.73 290.422C334.627 289.85 334.44 289.288 334.381 288.712C334.256 287.525 334.675 286.442 335.287 285.474C335.73 284.774 335.67 284.253 335.16 283.674C334.983 283.475 334.789 283.223 334.756 282.975C334.593 281.734 334.478 280.486 334.353 279.241C334.262 278.318 334.444 277.44 334.811 276.594C335.29 275.49 335.206 274.365 334.935 273.232C334.881 273.002 334.77 272.772 334.77 272.543C334.768 270.885 334.617 269.244 334.378 267.599C334.067 265.463 333.902 263.306 333.673 261.158C333.668 261.119 333.658 261.08 333.655 261.04C333.54 259.204 333.421 257.367 333.265 255.532C333.107 253.686 332.925 251.864 332.527 250.058C332.241 248.759 331.978 247.455 331.694 246.156C331.646 245.939 331.598 245.691 331.462 245.529C331.088 245.083 330.705 244.633 330.261 244.259C328.908 243.12 328.013 241.592 326.867 240.278C325.956 239.233 325.164 238.04 324.693 236.686C324.608 236.438 324.43 236.223 324.239 235.899C323.754 236.367 323.352 236.782 322.921 237.165C322.487 237.549 321.996 237.871 321.584 238.277C321.32 238.536 321.06 238.868 320.963 239.215C320.541 240.71 320.26 242.248 319.774 243.719C319.308 245.136 318.63 246.457 317.507 247.531C316.599 248.399 315.828 249.411 314.992 250.355C314.81 250.559 314.638 250.789 314.414 250.935C313.609 251.458 313.041 251.228 312.87 250.283C312.498 248.226 312.183 246.159 311.806 244.101C311.594 242.937 311.312 241.787 311.05 240.634C311.029 240.538 310.911 240.464 310.746 240.274C310.235 240.957 309.757 241.598 309.239 242.29C308.483 242.141 308.229 241.612 308.286 240.792C308.371 239.563 308.05 238.414 307.73 237.217C307.255 235.439 306.182 234.057 305.316 232.532C304.776 231.581 304.164 230.67 303.585 229.74C303.544 229.674 303.483 229.591 303.494 229.527C303.698 228.294 302.791 227.639 302.023 227.059C301.334 226.539 300.429 226.279 299.591 225.99C298.994 225.783 298.464 225.454 297.693 225.671C296.764 225.933 296.281 226.475 296.022 227.27C295.728 228.177 295.305 228.975 294.709 229.725C293.881 230.766 293.087 231.824 292.007 232.631C291.801 232.785 291.681 233.074 291.565 233.321C291.128 234.252 290.389 234.893 289.552 235.435C289.068 235.748 288.687 236.084 288.657 236.73C288.643 237.027 288.499 237.358 288.315 237.598C287.413 238.769 287.416 240.171 287.212 241.535C286.973 243.127 286.559 244.685 285.835 246.132C285.472 246.859 285.279 247.585 285.292 248.401C285.311 249.54 285.343 250.668 284.978 251.801C284.682 252.715 284.707 253.729 284.538 254.689C284.357 255.721 284.114 256.744 283.902 257.771C283.863 257.961 283.776 258.17 283.818 258.344C284.282 260.282 283.372 262.056 283.173 263.913C283.118 264.422 283.02 264.929 283.004 265.439C282.977 266.348 282.99 267.258 282.997 268.168C283.011 270.062 282.675 271.903 282.313 273.755C282.139 274.65 281.908 275.567 282.151 276.549C282.344 277.335 282.171 278.206 282.244 279.03C282.371 280.441 282.477 281.864 282.747 283.252C283.244 285.812 283.844 288.351 284.422 290.894C284.535 291.392 284.669 291.91 284.921 292.344C285.612 293.537 285.331 294.757 285.202 296.013C284.243 296.165 283.786 295.543 283.311 294.974C282.884 294.462 282.432 293.96 282.085 293.396C281.806 292.941 281.609 292.413 281.481 291.892C281.304 291.176 281.196 290.439 281.114 289.705C280.957 288.303 280.848 286.896 280.702 285.492C280.531 283.854 280.344 282.217 280.159 280.581C280.116 280.19 280.018 279.8 280.01 279.407C279.973 277.475 279.478 275.601 279.299 273.691C279.13 271.895 279.048 270.108 279.455 268.282C279.776 266.843 280.049 265.391 280.473 263.977C280.811 262.849 281.221 261.741 281.546 260.609C281.674 260.164 281.671 259.679 281.71 259.21C282.029 255.354 282.24 251.492 282.853 247.663C283.134 245.91 283.288 244.129 283.359 242.356C283.404 241.243 283.698 240.267 284.275 239.354C284.636 238.783 284.849 238.204 284.972 237.514C285.166 236.415 285.79 235.45 286.768 234.836C287.507 234.373 287.953 233.717 288.403 233.007C289.354 231.507 290.279 229.974 291.393 228.599C292.302 227.475 293.341 226.343 294.559 225.608C295.773 224.877 296.802 223.898 298.069 223.255C298.716 222.928 299.322 222.821 299.995 223.058C300.106 223.097 300.219 223.197 300.323 223.186C301.833 223.033 303.147 223.736 304.52 224.159C305.107 224.339 305.69 224.643 306.176 225.02C307.616 226.136 308.754 227.544 309.806 229.022C310.032 229.341 310.308 229.626 310.541 229.942C310.911 230.448 311.366 230.923 311.606 231.488C312.355 233.25 313.028 235.046 313.718 236.833C314.517 238.903 314.963 241.031 314.809 243.266C314.762 243.954 314.802 244.648 314.802 245.558L314.808 245.55ZM325.246 229.761C325.755 229.366 325.557 229.051 325.266 228.654C324.848 228.996 324.792 229.294 325.246 229.761Z" fill="#8DC0FF"/>
<path d="M257.37 371.212C257.314 370.513 257.238 369.928 256.557 369.406C254.167 367.578 251.411 366.786 248.544 366.266C247.31 366.042 246.063 365.861 244.815 365.773C243.755 365.698 242.631 365.514 241.665 366.349C241.775 366.895 242.071 367.261 242.421 367.569C242.836 367.934 243.147 368.223 243.501 368.446C244.093 368.817 244.982 369.333 246.177 369.886C247.966 370.125 249.756 370.365 251.546 370.605C252.97 370.782 254.11 370.788 254.889 370.762C255.965 370.725 256.843 370.607 257.944 371.007C258.473 371.2 258.874 371.446 259.124 371.62C252.467 371.51 247.356 370.794 244.73 369.968C244.73 369.968 242.822 368.759 240.654 367.156C240.402 366.969 240.193 366.442 240.271 366.158C240.352 365.86 240.772 365.591 241.102 365.448C241.451 365.297 241.868 365.272 242.257 365.257C247.275 365.046 252.149 365.521 256.523 368.35C257.591 369.041 258.718 369.553 260.076 369.443C260.282 369.177 260.521 368.956 260.653 368.684C263.148 363.573 265.632 358.457 268.11 353.336C268.127 353.299 268.032 353.206 267.936 353.059C267.363 353.705 266.821 354.35 266.242 354.962C265.322 355.934 264.243 356.134 263.075 355.454C262.262 354.982 261.518 354.386 260.764 353.818C259.594 352.939 259.458 351.544 260.201 350.198C260.541 349.584 261.028 349.047 261.489 348.512C262.104 347.798 262.76 347.119 263.527 346.285C263.08 345.959 262.738 345.692 262.379 345.452C261.666 344.974 260.848 344.609 260.241 344.023C258.375 342.219 258.201 341.472 258.757 338.937C258.958 338.021 259.309 337.687 260.208 337.749C262.089 337.88 263.969 338.032 265.843 338.244C266.863 338.359 266.858 338.441 268.433 337.806C268.211 337.163 268.043 336.485 267.749 335.867C267.317 334.961 267.321 334.041 267.428 333.08C267.517 332.288 267.908 331.767 268.622 331.461C269.438 331.111 270.286 330.947 271.155 331.158C272.679 331.529 274.201 331.908 275.476 332.918C276.093 333.408 276.729 333.879 277.387 334.308C278.77 335.214 279.705 336.396 279.994 338.086C280.111 338.768 280.431 339.415 280.702 340.206C281.161 340.034 281.517 339.928 281.849 339.768C282.535 339.441 283.232 339.44 283.905 339.727C285.932 340.593 287.928 341.512 289.698 342.877C290.665 343.622 291.162 344.502 290.953 345.732C290.769 346.819 290.591 347.908 290.374 348.99C290.231 349.7 289.738 350.103 289.038 350.098C288.101 350.091 287.162 350.016 286.231 349.918C284.918 349.78 283.622 349.43 282.162 349.509C281.912 350.223 281.667 350.87 281.459 351.53C281.054 352.81 280.725 354.118 280.26 355.375C279.932 356.258 279.486 357.111 278.987 357.911C278.458 358.759 277.815 358.817 277.01 358.14C275.491 356.86 274.161 355.413 273.32 353.568C272.83 352.491 272.333 351.418 271.742 350.129C267.876 355.803 265.047 361.833 262.182 367.985C262.521 368.252 263.067 368.641 263.799 368.986C265.331 369.709 266.685 369.767 267.054 369.793C271.044 370.075 278.288 374.885 278.15 375.164C278.124 375.215 277.825 375.155 276.568 374.629C271.947 371.698 267.948 370.375 266.224 370.469C265.246 370.523 264.224 370.709 264.224 370.709C263.174 370.901 262.303 371.164 261.653 371.395C261.475 371.997 261.824 372.255 262.156 372.403C262.648 372.621 263.199 372.888 263.706 372.854C266.993 372.629 270.045 373.75 273.234 374.438C273.886 373.786 274.652 373.566 275.53 374.093C275.868 374.295 276.219 374.625 276.568 374.631C278.192 374.657 278.998 375.842 279.915 376.888C280.383 377.422 280.883 377.934 281.301 378.505C281.749 379.119 281.854 379.8 281.28 380.622C280.861 380.273 280.424 379.979 280.074 379.601C278.465 377.856 276.28 377.121 274.22 376.171C274.018 376.078 273.758 376.105 273.524 376.098C271.763 376.047 270.129 375.586 268.629 374.635C267.673 374.03 266.706 373.831 265.508 374.042C264.052 374.296 262.542 374.033 261.24 373.142C260.992 372.972 260.712 372.851 260.508 372.741C259.686 372.976 259.517 373.637 259.279 374.201C257.983 377.261 256.655 380.309 255.446 383.405C252.712 390.408 250.057 397.441 247.331 404.447C246.885 405.591 246.733 406.693 246.915 407.911C247.244 410.103 247.464 412.312 247.75 414.693C248.187 414.799 248.69 415.017 249.2 415.032C253.352 415.157 257.511 414.955 261.662 415.278C263.13 415.392 264.615 415.295 266.117 415.295C266.298 416.093 266.312 416.841 266.641 417.402C266.987 417.991 267.6 418.442 268.156 418.88C269.17 419.68 269.652 420.654 269.464 421.974C269.343 422.814 269.046 423.558 268.274 423.904C266.581 424.663 265.929 426.187 265.409 427.772C263.289 434.233 260.957 440.624 259.201 447.203C258.612 449.407 258.078 451.626 257.487 453.962C257.06 453.91 256.729 453.762 256.489 453.855C253.693 454.948 250.654 454.899 247.806 455.771C245.896 456.355 243.939 456.183 241.983 455.815C239.678 455.382 237.332 455.221 234.994 455.286C234.187 455.308 233.38 455.807 232.599 456.15C232.251 456.303 231.993 456.658 231.65 456.833C230.867 457.233 230.03 456.896 229.811 456.035C229.631 455.328 229.409 454.772 228.806 454.255C228.002 453.565 228.195 452.615 229.065 451.906C229.233 451.768 229.397 451.623 229.64 451.417C228.007 448.991 227.852 446.227 227.702 443.463C227.655 442.59 227.64 441.732 228.007 440.896C228.345 440.122 228.199 439.368 227.784 438.629C226.277 435.946 226.155 433.07 226.693 430.117C226.82 429.414 226.932 428.729 226.6 428.081H225.912C225.718 426.765 225.822 425.617 226.419 424.381C227.029 423.119 227.571 421.801 228.122 420.5C228.614 419.336 229.332 418.49 230.461 417.966C233.472 416.569 236.55 415.416 239.911 415.263C240.381 415.242 240.85 415.174 241.315 415.105C241.996 415.003 242.47 414.602 242.709 413.965C243.65 411.445 244.607 408.929 245.475 406.382C245.668 405.819 245.623 405.121 245.513 404.517C243.88 395.534 241.542 386.756 238.253 378.225C235.479 371.031 232.074 364.177 228.06 357.627C226.411 354.937 224.609 352.339 222.819 349.74C222.387 349.114 221.724 348.65 221.206 348.147C220.342 348.479 219.63 348.748 218.923 349.032C218.875 349.051 218.863 349.165 218.796 349.327C219.113 349.6 219.454 349.894 219.847 350.234C219.716 350.395 219.612 350.652 219.448 350.702C218.398 351.021 217.335 351.294 216.32 351.57C214.843 351.195 213.855 350.201 213.029 349.149C212.079 349.259 211.75 349.855 211.467 350.538C210.931 351.84 210.09 352.84 208.862 353.153C207.401 352.84 206.12 352.565 204.715 352.263C203.859 350.384 204.298 348.483 204.935 346.592C205.311 345.475 205.836 344.388 205.43 342.983C205.107 342.974 204.75 342.962 204.392 342.956C201.362 342.903 198.464 342.435 196.092 340.292C195.448 339.71 194.775 339.161 194.142 338.568C192.246 336.785 192.779 333.896 195.234 333.084C196.637 332.621 198.103 332.363 199.639 332.695C201.031 332.995 202.383 333.348 203.669 333.963C204.661 334.439 205.627 334.419 206.604 333.713C206.604 332.62 206.595 331.521 206.614 330.423C206.617 330.292 206.764 330.162 206.844 330.033C209.053 329.83 213.637 330.598 215.581 331.523V335.773C217.483 336.329 219.509 336.285 221.352 337.366C221.69 338.364 221.456 339.273 220.623 340.046C219.934 340.685 219.161 341.262 218.921 342.494C220.617 344.769 222.47 347.12 224.174 349.578C225.925 352.104 227.576 354.705 229.186 357.324C230.742 359.854 232.19 362.452 233.65 364.962C234.254 364.873 234.207 364.5 234.269 364.215C234.611 362.671 234.885 361.108 235.295 359.581C235.664 358.208 236.118 356.851 236.644 355.53C237.61 353.105 239.204 351.2 241.451 349.847C243.954 348.34 245.939 347.225 249.41 346.763C249.456 347.116 249.601 347.488 249.532 347.815C249.111 349.825 248.641 351.823 248.19 353.828C247.888 355.167 247.287 356.333 246.38 357.374C244.67 359.337 243.007 361.344 241.345 363.35C240.641 364.201 239.964 365.077 239.318 365.973C238.392 367.257 237.485 368.552 235.964 369.379C236.464 371.375 237.446 373.09 238.106 374.921C238.748 376.708 239.496 378.458 240.126 380.25C240.78 382.115 241.364 384.006 241.951 385.893C242.539 387.782 243.133 389.669 243.652 391.578C244.15 393.409 244.577 395.261 244.991 397.114C245.421 399.042 245.799 400.983 246.258 403.202C246.638 402.763 246.944 402.549 247.056 402.259C248.931 397.384 250.725 392.478 252.652 387.626C254.607 382.703 256.688 377.829 258.708 372.931C258.766 372.792 258.75 372.622 258.775 372.418C258.757 372.333 258.589 371.567 257.928 371.302C257.714 371.216 257.511 371.209 257.366 371.22L257.37 371.212ZM281.46 347.112C281.754 347.219 282.062 347.298 282.34 347.437C284.054 348.289 285.956 348.39 287.777 348.792C289.038 349.071 289.607 348.55 289.986 347.28C290.344 346.076 290.048 345.106 289.114 344.32C288.637 343.918 288.159 343.493 287.619 343.193C286.457 342.548 285.248 341.99 284.07 341.374C282.952 340.788 281.999 340.933 281.187 341.907C281.665 342.925 281.844 343.975 281.726 345.057C281.65 345.757 281.578 346.456 281.505 347.156C280.749 347.155 280.508 347.856 280.069 348.264C279.039 349.22 277.913 349.805 276.463 349.677C275.463 349.589 274.468 349.723 273.395 349.888C273.589 351.637 274.199 353.099 275.211 354.301C275.987 355.223 276.607 356.436 277.919 356.711C278.798 356.328 279.067 355.557 279.375 354.838C280.434 352.364 281.358 349.849 281.46 347.111V347.112ZM228.115 428.005C228.043 429.669 228.282 431.206 228.832 432.615C228.944 432.903 229.028 433.22 229.041 433.527C229.122 435.471 230.02 437.383 229.284 439.366C229.207 439.572 229.279 439.837 229.291 440.073C229.469 443.71 230.073 447.289 230.742 450.859C230.865 451.518 231.104 452.142 231.808 452.274C232.846 452.469 233.328 453.261 233.836 454.123C235.124 453.779 236.345 453.936 237.58 454.093C238.582 454.221 239.615 454.219 240.625 454.148C242.575 454.011 244.521 453.803 246.465 453.585C247.472 453.472 248.532 453.437 249.46 453.079C251.319 452.363 253.258 452.156 255.185 451.837C255.631 451.763 256.078 451.704 256.533 451.637C256.658 451.23 256.774 450.938 256.837 450.635C257.365 448.164 257.869 445.689 258.42 443.225C258.504 442.849 258.516 442.214 259.326 442.452C259.265 442.941 259.206 443.408 259.147 443.874C259.607 443.411 259.761 442.904 259.921 442.399C261.525 437.355 263.129 432.312 264.736 427.268C264.897 426.76 265.212 426.247 264.72 425.826C262.115 426.574 259.556 427.301 257.001 428.043C254.745 428.7 252.469 429.301 250.246 430.062C247.382 431.041 244.452 431.399 241.466 431.204C237.456 430.942 233.57 430.063 229.843 428.512C229.351 428.307 228.818 428.206 228.114 428.003L228.115 428.005ZM267.505 420.175C266.239 419.251 265.12 418.399 263.958 417.61C263.654 417.403 263.22 417.329 262.84 417.307C260.571 417.176 258.301 417.051 256.031 416.981C254.309 416.927 252.578 417.141 250.872 416.7C249.938 416.458 249.022 416.658 248.14 416.882C248.015 417.717 248.088 418.511 248.36 419.263C249.047 419.574 249.729 420.016 250.474 420.194C252.193 420.602 253.901 421.278 255.705 420.289C256.51 419.849 257.495 419.722 258.415 419.537C258.651 419.489 259.037 419.683 259.2 419.889C259.491 420.26 259.293 420.659 258.953 420.905C258.385 421.319 257.821 421.782 257.183 422.048C255.663 422.683 254.114 423.259 252.549 423.775C251.185 424.224 251.142 424.151 250.799 422.549C250.771 422.414 250.619 422.307 250.397 422.026C248.108 422.03 245.701 422.204 243.291 422.36C242.087 422.437 241.275 422.986 241.04 424.202C240.092 424.202 239.232 424.235 238.376 424.192C237.63 424.155 237.217 423.732 237.109 423.026C236.972 422.135 237.227 421.502 237.923 421.261C238.578 421.035 239.268 420.911 239.813 420.776C240.239 419.494 240.619 418.348 241.014 417.157C240.681 417.059 240.468 416.945 240.253 416.941C236.868 416.897 233.788 418.05 230.76 419.412C229.53 419.965 228.831 420.933 228.417 422.211C227.702 424.416 228.534 426.399 230.643 427.176C235.641 429.019 240.777 429.947 246.113 429.419C247.049 429.326 247.997 429.227 248.9 428.986C253.528 427.747 258.159 426.516 262.757 425.169C265.802 424.277 265.777 424.191 267.021 421.335C267.145 421.052 267.259 420.764 267.505 420.173V420.175ZM195.224 337.129C195.707 337.817 196.233 338.344 196.491 338.982C196.881 339.947 197.604 340.44 198.431 340.942C199.764 341.752 201.197 341.994 202.71 341.979C204.181 341.966 206.008 340.659 206.343 339.191C206.66 337.8 207.515 336.987 208.741 336.509C210.567 335.795 212.436 335.274 214.374 335.854C215.054 334.855 215.18 333.887 214.932 333.047C213.763 331.627 212.368 331.226 210.829 331.095C210.056 331.03 209.295 330.814 208.528 330.67C208.059 330.582 207.572 330.497 207.243 330.962C206.929 331.405 207.058 331.872 207.283 332.309C207.644 333.009 208.054 333.685 208.383 334.399C208.529 334.715 208.528 335.1 208.63 335.642C207.901 335.552 207.325 335.601 206.854 335.399C205.602 334.864 204.271 334.726 202.966 334.662C201.624 334.596 200.309 334.448 199.051 334.041C197.277 333.467 195.828 334.313 194.353 334.995C193.911 335.2 193.837 335.767 194.402 336.146C194.793 335.864 195.184 335.584 195.865 335.094C195.592 335.963 195.433 336.468 195.225 337.129H195.224ZM235.017 367.331C236.533 366.72 237.623 365.652 238.571 364.37C239.555 363.04 240.576 361.735 241.624 360.455C243.219 358.502 244.874 356.598 246.46 354.637C247.46 353.399 247.872 351.694 247.762 349.742C247.545 349.742 247.319 349.708 247.105 349.747C244.889 350.156 243.044 351.374 241.175 352.537C239.383 353.654 238.077 355.207 237.256 357.152C235.957 360.232 235.316 363.485 234.874 366.783C234.855 366.922 234.947 367.074 235.018 367.33L235.017 367.331ZM259.47 338.94C259.193 341.269 260.082 342.739 261.683 343.805C262.395 344.279 263.248 344.53 264.008 344.938C264.664 345.29 265.786 345.139 265.883 346.09C265.998 347.207 264.737 347.184 264.122 347.714C263.057 348.634 262.008 349.578 261.014 350.573C260.587 351 260.591 351.601 261.014 352.085C261.734 352.914 262.429 353.779 263.241 354.508C264 355.188 264.822 355.102 265.514 354.352C266.575 353.2 267.578 351.992 268.754 350.638C266.598 349.222 266.31 347.154 266.395 344.947C266.41 344.552 266.422 344.156 266.434 343.761C266.475 342.4 266.955 341.306 268.236 340.673C268.333 340.625 268.346 340.404 268.429 340.177C265.606 339.11 262.681 338.965 259.469 338.941L259.47 338.94ZM267.154 344.851C267.177 345.244 267.167 345.642 267.228 346.029C267.362 346.897 267.588 347.726 268.388 348.251C269.151 348.752 269.926 348.877 270.822 348.582C272.452 348.045 274.149 347.99 275.852 348.025C276.315 348.034 276.785 347.948 277.243 347.857C278.8 347.549 279.892 346.578 280.728 345.279C281.141 344.639 280.994 344.036 280.326 343.699C279.771 343.421 279.188 343.169 278.588 343.017C275.533 342.235 272.416 342.226 269.299 342.383C267.793 342.459 267.087 343.349 267.154 344.852V344.851ZM279.592 341.475C279.479 339.491 279.21 337.88 278.042 336.735C276.178 334.908 274.075 333.359 271.526 332.615C270.877 332.425 270.135 332.395 269.461 332.485C268.491 332.615 268.151 333.23 268.459 334.2C269.099 336.217 269.892 338.194 269.715 340.301C271.365 341.029 272.952 340.488 274.485 340.692C276.098 340.906 277.702 341.182 279.592 341.476V341.475ZM212.971 345.1C214.746 342.223 214.782 341.92 214.569 339.197C214.488 338.151 214.035 337.428 213.241 336.805C211.524 336.415 210.085 337.362 208.555 337.864C208.349 337.932 208.177 338.139 208.013 338.306C207.12 339.217 207.026 340.285 207.165 341.532C207.439 343.987 209.142 345.579 211.537 345.369C211.999 345.328 212.454 345.2 212.971 345.1ZM205.306 350.52C205.99 351.226 206.908 351.44 207.848 351.522C208.667 351.594 209.409 351.34 209.903 350.619C210.646 349.535 211.369 348.437 212.176 347.232C211.125 346.88 210.182 346.696 209.375 346.255C208.52 345.789 207.797 345.078 207.009 344.469C205.72 346.58 205.139 348.667 205.306 350.519V350.52ZM220.1 338.816C219.937 337.664 218.944 337.507 218.205 337.217C217.292 336.859 216.28 336.571 215.145 337.13C215.264 338.37 215.379 339.585 215.505 340.899C217.186 340.269 219.033 340.406 220.101 338.815L220.1 338.816ZM246.027 408.856C244.964 410.377 243.912 413.289 243.816 414.984C244.821 415.228 245.769 415.205 246.726 414.493C246.619 412.588 246.616 410.715 246.027 408.856ZM217.78 348.111C217.371 346.906 216.772 345.909 216.053 344.996C215.534 344.338 214.394 344.551 214.166 345.335C214.016 345.848 213.92 346.415 213.969 346.941C214.064 347.99 214.839 348.565 215.701 348.961C216.52 349.339 217.201 349.055 217.78 348.111ZM246.807 419.515C246.428 418.825 246.224 418.418 245.99 418.03C245.376 417.017 244.403 416.888 243.363 417.009C242.842 417.07 242.591 417.488 242.448 417.949C242.328 418.34 242.391 418.673 242.727 418.988C243.154 419.389 243.507 419.871 244.004 420.45C244.785 420.189 245.646 419.902 246.807 419.517V419.515ZM268.191 422.576C268.164 422.511 268.152 422.411 268.105 422.391C268.048 422.366 267.964 422.407 267.89 422.42C267.933 422.513 267.975 422.605 268.018 422.696C268.076 422.656 268.133 422.615 268.191 422.576Z" fill="#8DC0FF"/>
<path d="M772.3 166.13C771.264 167.096 770.013 167.635 768.562 167.795C764.952 168.193 761.356 168.755 757.737 169.026C755.144 169.22 752.524 169.075 749.917 169.021C749.318 169.01 748.724 168.754 748.032 168.588C747.214 170.143 746.857 171.859 746.714 173.564C746.55 175.522 746.626 177.511 746.738 179.478C746.819 180.905 747.367 182.242 747.981 183.539C748.613 184.872 749.411 185.956 750.989 186.309C751.823 186.495 752.614 186.913 753.399 187.282C754.686 187.887 755.922 188.611 757.235 189.147C758.464 189.648 759.766 189.971 761.103 190.393C761.159 190.691 761.265 190.994 761.266 191.296C761.279 199.335 760.764 207.375 761.479 215.571C760.861 215.583 760.414 215.626 759.972 215.595C758.477 215.492 756.986 215.284 755.491 215.268C754.338 215.254 753.396 215.79 752.799 216.994C754.735 217.808 756.708 217.963 758.647 218.219C760.127 218.415 761.625 218.33 763.121 218.269C765.886 218.159 768.655 218.163 771.422 218.116C772.197 218.103 772.999 218.176 773.793 217.465C773.381 217.228 773.091 216.945 772.763 216.892C770.894 216.585 769.022 216.29 767.14 216.077C765.802 215.927 764.488 215.733 763.295 215.304C762.688 214.013 763.225 212.85 763.237 211.685C763.248 210.606 763.149 209.526 763.251 208.44C763.771 210.313 763.305 212.267 763.738 214.212C764.984 214.804 766.306 214.936 767.642 215.027C770.494 215.219 773.292 215.676 775.953 216.775C776.244 216.895 776.578 216.986 776.793 217.193C776.993 217.388 777.193 217.738 777.154 217.983C777.117 218.219 776.803 218.543 776.563 218.593C775.717 218.769 774.851 218.891 773.988 218.947C769.026 219.268 764.058 219.738 759.089 219.461C756.824 219.335 754.59 218.669 752.346 218.229C751.388 218.041 750.826 217.095 751.806 216.042C753.014 214.742 754.419 213.723 756.366 213.972C756.913 214.042 757.464 214.081 758.013 214.142C758.865 214.237 759.718 214.363 760.505 214.179C760.643 213.952 760.792 213.82 760.792 213.687C760.803 206.423 760.802 199.159 760.802 192.04C760.561 191.794 760.473 191.62 760.348 191.589C758.032 191.002 755.899 189.987 753.784 188.902C752.663 188.327 751.461 187.901 750.277 187.458C749.349 187.111 748.613 186.577 748.128 185.7C746.888 183.459 745.95 181.136 746.032 178.507C746.064 177.48 746.098 176.446 746.028 175.422C745.849 172.837 746.544 170.405 747.263 167.978C747.644 166.687 747.84 166.558 749.291 166.535C751.025 166.508 752.761 166.593 754.495 166.549C755.595 166.522 756.725 166.477 757.784 166.212C759.666 165.743 761.539 165.704 763.433 165.955C764.54 166.102 765.61 166.086 766.718 165.856C767.947 165.6 769.22 165.562 770.471 165.408C771.399 165.294 772.321 165.148 773.354 165C774.108 166.817 774.442 168.664 774.495 170.538C774.577 173.462 774.556 176.389 774.534 179.316C774.52 181.309 774.101 183.238 773.389 185.097C772.953 186.234 772.187 187.098 771.192 187.823C769.568 189.003 767.678 189.611 765.895 190.448C765.467 190.648 765.004 190.78 764.589 191.006C764.004 191.325 763.64 191.85 763.573 192.515C763.52 193.048 763.562 193.592 763.562 194.246C762.748 193.695 763.339 193.111 763.274 192.602C763.194 191.983 763.255 191.347 763.255 190.572C764.762 189.954 766.293 189.35 767.802 188.694C768.669 188.318 769.517 187.889 770.342 187.43C771.795 186.619 772.701 185.363 773.182 183.782C773.805 181.733 774.229 179.653 774.216 177.497C774.206 175.678 774.299 173.853 774.189 172.04C774.089 170.393 773.805 168.754 773.542 167.122C773.446 166.523 772.96 166.216 772.303 166.127L772.3 166.13ZM762.107 167.511C758.582 166.818 755.574 166.976 752.584 167.629C752.023 167.751 751.315 167.774 750.984 168.612C752.647 169.093 754.291 168.934 755.869 168.733C757.781 168.49 759.776 168.547 762.107 167.512V167.511Z" fill="#8DC0FF"/>
<path d="M763.366 210.17C763.162 209.199 762.909 207.778 762.773 206.044C762.665 204.662 762.656 203.4 762.812 200.162C762.896 198.409 763.026 196.13 763.234 193.449L763.556 193.779C763.341 196.252 763.207 198.385 763.119 200.082C762.95 203.343 762.965 204.776 763.113 206.349C763.222 207.515 763.378 208.475 763.499 209.131L763.366 210.169V210.17Z" fill="#8DC0FF"/>
</svg>
