<svg width="864" height="536" viewBox="0 0 864 536" fill="none" xmlns="http://www.w3.org/2000/svg">
<path d="M111.799 205.27C112.177 204.804 112.549 204.344 112.956 203.841C113.204 204.01 113.368 204.097 113.503 204.216C113.871 204.539 114.156 204.441 114.543 204.173C115.935 203.213 117.366 202.307 118.782 201.381C119.334 201.02 119.861 200.614 120.441 200.307C122.07 199.445 123.718 198.62 125.365 197.792C125.57 197.688 125.831 197.692 126.033 197.584C126.401 197.387 126.778 197.181 127.089 196.909C127.649 196.42 128.11 195.804 128.712 195.381C129.328 194.949 130.041 194.625 130.754 194.365C131.485 194.098 132.264 193.961 133.024 193.775C133.955 193.546 134.871 193.575 135.831 193.708C136.489 193.8 137.206 193.505 137.89 193.353C138.913 193.125 139.931 192.874 140.948 192.624C141.363 192.522 141.766 192.376 142.183 192.291C143.557 192.008 144.933 191.736 146.312 191.477C147.081 191.333 147.894 191.329 148.621 191.074C149.82 190.652 151.1 190.846 152.305 190.411C153.167 190.1 154.144 190.104 155.071 189.981C156.199 189.833 157.327 189.679 158.46 189.572C159.042 189.516 159.633 189.556 160.22 189.555C161.96 189.552 163.706 189.629 165.44 189.525C167.207 189.42 168.93 189.571 170.655 189.913C170.991 189.979 171.443 190.023 171.688 189.854C172.099 189.569 172.363 189.699 172.753 189.846C174.404 190.468 176.108 190.961 177.733 191.644C179.613 192.434 181.562 193.024 183.458 193.763C184.518 194.176 185.505 194.803 186.586 195.124C188.458 195.678 189.857 196.956 191.434 197.972C193.028 198.999 194.655 199.974 196.252 200.995C196.983 201.463 197.694 201.965 198.384 202.491C200.111 203.805 201.923 205.032 203.513 206.499C205.187 208.045 206.778 209.726 208.152 211.541C209.28 213.03 210.049 214.793 210.941 216.453C211.078 216.709 211.048 217.069 211.049 217.381C211.057 219.478 211.034 221.575 211.062 223.67C211.074 224.582 210.614 225.31 210.279 226.094C210.193 226.297 210.162 226.524 210.077 226.85H213.549C213.733 227.693 213.311 228.117 212.731 228.439C211.974 228.859 211.195 229.239 210.442 229.668C209.686 230.099 209.115 230.623 209.303 231.652C209.416 232.268 209.062 232.582 208.491 232.362C207.43 231.95 206.624 232.124 205.943 233.053C205.744 233.324 205.39 233.485 205.122 233.683C203.584 233.029 203.521 232.825 204.356 231.413C204.04 230.958 203.658 230.559 203.456 230.083C203.014 229.045 203.506 228.201 204.6 227.99C204.793 227.953 204.993 227.96 205.192 227.953C206.72 227.897 207.533 227.235 208.109 225.834C209.141 223.324 209.052 220.801 208.153 218.329C207.573 216.734 206.535 215.395 205.131 214.351C204.124 213.602 203.19 212.753 202.257 211.911C200.714 210.521 199.244 209.046 197.657 207.712C196.795 206.987 195.748 206.484 194.791 205.869C193.247 204.876 191.608 204.046 190.204 202.813C189.422 202.124 188.602 201.368 187.351 201.354C186.704 201.346 186.064 200.831 185.419 200.549C184.885 200.313 184.349 200.081 183.814 199.849C183.778 199.834 183.724 199.843 183.701 199.818C182.85 198.906 181.559 198.726 180.62 197.952C179.661 197.161 178.656 196.424 177.691 195.641C177.368 195.379 177.114 195.033 176.804 194.753C176.581 194.551 176.34 194.303 176.066 194.231C174.356 193.781 172.635 193.377 170.918 192.954C169.44 192.59 167.987 192.221 166.428 192.173C164.35 192.11 162.287 191.654 160.207 191.526C158.841 191.442 157.459 191.633 156.084 191.712C155.534 191.745 154.985 191.791 154.439 191.862C153.705 191.958 152.928 191.967 152.255 192.229C151.357 192.579 150.432 192.417 149.538 192.61C147.901 192.964 146.261 193.308 144.619 193.636C143.622 193.835 142.612 193.972 141.618 194.186C140.47 194.434 139.329 194.713 138.195 195.02C135.68 195.701 133.435 197.022 131.087 198.091C129.596 198.769 128.221 199.7 126.745 200.418C125.451 201.047 124.021 201.418 122.777 202.125C121.543 202.828 120.319 203.551 119.074 204.24C118.717 204.438 118.393 204.812 118.209 205.183C117.871 205.858 117.399 206.308 116.698 206.58C115.021 207.231 114.333 208.83 113.355 210.146C112.908 210.745 112.47 211.353 112.067 211.982C111.689 212.571 111.295 213.166 111.03 213.808C110.63 214.779 110.33 215.791 109.998 216.789C109.913 217.045 109.837 217.313 109.815 217.581C109.661 219.506 109.523 221.433 109.379 223.359C109.257 224.982 109.327 226.579 109.99 228.104C110.08 228.31 110.208 228.663 110.119 228.758C109.551 229.355 110.053 229.871 110.212 230.385C110.454 231.172 110.793 231.928 111.063 232.707C111.548 234.099 112.426 235.185 113.632 236.002C114.852 236.829 115.74 237.94 116.597 239.125C117.534 240.421 118.616 241.591 119.94 242.564C120.97 243.323 121.743 244.422 122.68 245.32C123.382 245.992 124.117 246.649 124.919 247.19C125.866 247.829 126.934 248.285 127.886 248.918C128.927 249.609 129.923 250.376 130.882 251.176C131.608 251.781 132.329 252.337 133.2 252.748C134.87 253.537 136.554 254.268 138.33 254.792C140.673 255.485 142.989 256.271 145.341 256.927C146.316 257.199 147.361 257.387 148.367 257.352C150.707 257.274 152.611 258.249 154.486 259.467C155.016 259.811 155.726 259.958 156.37 260.024C157.39 260.127 158.435 260.002 159.45 260.126C160.562 260.261 161.682 260.473 162.74 260.83C163.581 261.114 164.33 261.666 165.174 262.128C166.126 261.503 167.142 261.394 168.249 261.888C168.609 262.048 169.138 262.02 169.528 261.893C171.082 261.388 172.515 261.678 173.954 262.328C174.313 262.491 174.807 262.322 175.223 262.396C176.575 262.635 177.937 262.852 179.264 263.196C180.791 263.593 182.313 263.887 183.899 263.901C184.675 263.909 185.45 264.093 186.224 264.203C186.793 264.285 187.225 264.205 187.699 263.74C188.589 262.864 189.562 261.977 191.027 262.533C191.312 262.641 191.648 262.628 191.963 262.637C193.147 262.676 193.827 263.304 194.094 264.43C194.131 264.583 194.132 264.78 194.23 264.877C194.928 265.573 194.876 266.465 194.852 267.322C194.831 268.048 195.025 268.563 195.611 269.051C196.642 269.909 197.301 271.004 197.197 272.436C197.178 272.701 197.266 272.984 197.354 273.242C197.677 274.188 197.823 275.12 197.63 276.142C197.511 276.766 197.741 277.451 197.782 278.111C197.866 279.511 198.337 280.88 198 282.318C197.85 282.956 197.921 283.645 197.888 284.366H197.034C196.987 284.409 196.899 284.449 196.879 284.512C196.499 285.657 196.148 286.812 195.739 287.947C195.621 288.278 195.533 288.538 195.564 288.928C195.634 289.835 194.955 290.557 193.97 290.858C193.517 290.997 193.054 291.103 192.605 291.255C192.385 291.329 192.056 291.429 192.005 291.591C191.738 292.445 191.003 292.453 190.338 292.688C189.939 292.829 189.613 293.245 189.317 293.592C188.829 294.164 188.384 294.545 187.501 294.299C186.907 294.134 186.199 294.414 185.543 294.427C185.122 294.436 184.7 294.316 184.277 294.262C184.047 294.234 183.77 294.133 183.588 294.22C182.251 294.863 180.744 294.788 179.371 295.253C177.806 295.782 176.209 295.699 174.599 295.654C174.038 295.639 173.469 295.853 172.904 295.967C172.79 295.99 172.682 296.055 172.568 296.067C171.283 296.199 170 296.407 168.714 296.43C167.294 296.455 165.901 296.582 164.502 296.828C163.111 297.073 161.695 297.18 160.29 297.347C160.25 297.352 160.204 297.334 160.172 297.349C158.101 298.391 155.954 297.373 153.845 297.563C153.238 297.618 152.591 297.226 151.963 297.038C151.742 296.972 151.52 296.837 151.303 296.844C148.431 296.952 145.597 296.194 142.717 296.463C141.992 296.53 141.357 296.422 140.759 295.869C140.358 295.498 139.725 295.35 139.173 295.177C137.562 294.671 135.932 294.23 134.232 294.143C133.301 293.471 132.145 293.589 131.12 293.257C130.47 293.045 129.929 292.662 129.125 292.879C128.656 293.005 128.029 292.569 127.482 292.367C126.979 292.182 126.546 291.751 125.932 291.977C125.844 292.009 125.704 291.931 125.6 291.879C124.231 291.216 122.87 290.535 121.494 289.887C120.745 289.535 119.969 289.238 119.208 288.91C117.835 288.318 116.462 287.726 115.093 287.125C113.975 286.634 112.847 286.158 111.752 285.616C111.306 285.396 110.948 285.003 110.53 284.719C110.217 284.506 109.874 284.339 109.54 284.158C109.337 284.049 109.084 283.999 108.926 283.847C108.039 282.998 106.912 282.653 105.782 282.327C104.725 282.024 103.653 281.775 102.587 281.507C102.435 281.469 102.264 281.409 102.122 281.443C101.029 281.702 100.135 281.131 99.1724 280.797C95.4121 279.493 92.0544 277.373 88.5269 275.599C88.0733 275.371 87.6577 275.052 87.2612 274.729C83.5603 271.721 79.5472 269.21 75.2633 267.123C74.8204 266.907 74.4073 266.631 74 266.396C74.2018 265.839 74.4999 265.895 74.8181 266.02C76.0315 266.496 77.2533 266.952 78.4572 267.452C80.7179 268.39 82.9275 269.401 85.0646 270.632C87.6601 272.126 90.4634 273.259 93.1906 274.518C93.7689 274.786 94.3138 275.239 95.2305 275.134C94.8612 274.629 94.5703 274.274 94.3257 273.889C93.928 273.264 93.5183 272.64 93.1918 271.978C92.7763 271.137 92.8107 271.119 93.7 270.376C95.2981 271.521 96.9307 272.667 98.5407 273.848C100.202 275.066 101.968 276.045 103.982 276.565C104.5 276.7 104.974 277.019 105.453 277.281C107.105 278.184 108.762 279.075 110.391 280.017C111.293 280.537 112.166 281.068 112.779 282.003C113.331 282.846 114.428 283.008 115.283 283.47C115.76 283.727 116.291 283.889 116.804 284.075C117.222 284.226 117.571 284.396 118.115 284.297C118.722 284.188 119.478 284.471 120.064 284.782C121.36 285.469 122.813 285.603 124.157 286.103C125.552 286.622 126.953 287.125 128.367 287.59C129.7 288.028 131.052 288.403 132.392 288.817C132.654 288.898 132.899 289.029 133.152 289.134C134.742 289.8 136.432 290.055 138.113 290.349C138.449 290.408 138.768 290.575 139.091 290.703C139.905 291.026 140.753 290.989 141.607 291.06C144.872 291.331 148.109 291.923 151.405 291.875C151.936 291.866 152.479 292.086 153.001 292.25C154.363 292.679 155.739 292.315 157.106 292.339C158.646 292.366 160.19 292.289 161.73 292.214C163.844 292.112 165.983 292.129 168.059 291.785C169.358 291.568 170.637 291.581 171.923 291.467C172.772 291.393 173.609 291.186 174.456 291.066C176.789 290.735 179.128 290.445 181.456 290.087C183.252 289.811 185.039 289.476 186.823 289.125C187.32 289.028 187.8 288.809 188.264 288.594C188.664 288.409 188.813 288.022 189.035 287.64C189.646 286.583 189.177 285.274 189.939 284.295C189.957 282.336 190.305 280.345 189.175 278.525C188.516 277.463 187.986 276.334 187.984 275.036C187.983 274.361 187.615 273.932 187.028 273.666C185.064 272.773 183.112 271.849 181.126 271.01C180.162 270.603 179.105 270.041 178.135 270.116C176.906 270.211 175.876 269.627 174.713 269.611C174.073 269.603 173.4 269.383 172.81 269.11C172.106 268.785 171.458 268.533 170.677 268.83C170.503 268.897 170.237 268.724 170.014 268.66C169.678 268.563 169.311 268.325 169.012 268.392C168.207 268.572 167.543 268.347 166.873 267.957C166.644 267.824 166.353 267.746 166.087 267.739C165.294 267.719 164.518 267.759 163.867 267.132C163.679 266.952 163.27 266.991 162.96 266.952C162.138 266.847 161.368 266.657 160.709 266.085C160.394 265.812 159.963 265.652 159.561 265.506C157.803 264.868 156.046 264.224 154.27 263.646C153.54 263.409 152.753 263.354 152.003 263.169C151.522 263.05 150.948 262.968 150.615 262.656C149.878 261.964 149.003 261.762 148.077 261.565C147.507 261.444 146.949 261.221 146.416 260.977C144.559 260.131 142.728 259.223 140.858 258.405C140.155 258.098 139.369 257.982 138.627 257.756C136.947 257.247 135.253 256.804 133.678 255.97C132.623 255.412 131.428 255.122 130.349 254.602C129.874 254.374 129.362 253.945 129.164 253.479C128.747 252.497 127.808 252.231 127.076 251.707C125.899 250.865 124.624 250.163 123.42 249.357C122.606 248.813 121.843 248.193 121.058 247.606C120.497 247.184 120.034 246.664 119.543 246.171C118.767 245.392 117.719 244.879 116.776 244.273C116.558 244.133 116.235 244.127 116.063 243.956C114.9 242.809 113.523 241.89 112.594 240.485C112.137 239.795 111.441 239.369 110.509 239.12C109.46 238.841 108.458 238.108 107.633 237.358C106.901 236.692 106.828 235.576 106.781 234.622C106.724 233.498 106.568 232.542 105.876 231.552C105.056 230.379 104.632 228.947 104.817 227.431C104.85 227.161 104.847 226.86 104.756 226.609C104.229 225.145 104.49 223.63 104.451 222.138C104.445 221.901 104.557 221.547 104.731 221.441C105.4 221.035 105.509 220.335 105.538 219.726C105.603 218.333 105.99 217.027 106.334 215.701C106.629 214.567 106.81 213.405 107.123 212.277C107.341 211.487 107.656 210.717 107.999 209.971C108.568 208.737 109.195 207.531 109.798 206.314C109.938 206.032 110.057 205.734 110.231 205.475C110.642 204.867 110.784 204.847 111.804 205.27H111.799ZM193.968 282.981C194.79 281.972 194.784 281.802 193.968 281.438V282.981Z" fill="#8DC0FF"/>
<path d="M575.697 250.692C575.06 252.727 574.594 254.642 573.858 256.447C573.007 258.532 572.324 260.712 570.897 262.537C570.498 263.046 570.378 263.764 570.065 264.352C569.455 265.498 568.771 266.605 568.177 267.76C567.934 268.232 567.751 268.78 567.716 269.305C567.672 269.975 567.529 270.512 566.99 270.967C566.263 271.578 566.001 272.452 565.804 273.354C565.695 273.847 565.618 274.409 565.33 274.789C564.112 276.389 563.157 278.104 562.436 279.992C561.564 282.28 560.425 284.446 558.67 286.223C558.225 286.673 558.104 287.228 558.135 287.855C558.195 289.088 557.86 290.252 557.427 291.389C557.331 291.64 557.181 291.881 557.016 292.097C556.278 293.065 555.141 293.05 554.277 292.139C553.996 291.842 553.579 291.652 553.194 291.48C552.715 291.265 552.411 290.957 552.406 290.416C552.392 288.845 552.267 287.262 552.798 285.742C552.921 285.389 553.093 284.95 553.379 284.777C554.088 284.349 554.412 283.682 554.646 282.984C555.443 280.611 556.259 278.24 556.915 275.829C557.241 274.636 557.218 273.35 557.384 272.11C557.524 271.065 557.625 270.004 557.895 268.99C558.176 267.933 559.037 267.322 560 266.881C560.56 266.625 561.13 266.39 561.779 266.111C561.86 266.426 561.932 266.635 561.969 266.852C562.097 267.6 562.023 268.419 562.928 268.822C563.159 268.926 563.267 269.305 563.494 269.652C563.677 269.375 563.829 269.202 563.917 269.002C564.554 267.527 565.083 266.025 565.496 264.461C566.463 260.81 567.902 257.336 570.005 254.176C571.513 251.911 572.289 249.361 573.038 246.792C573.136 246.453 573.269 246.124 573.354 245.783C573.423 245.505 573.443 245.215 573.484 244.931C573.399 244.89 573.312 244.848 573.227 244.808C572.451 245.716 571.681 246.627 570.901 247.531C570.413 248.098 569.884 248.631 569.43 249.222C569.082 249.676 568.736 249.647 568.258 249.367C568.772 247.873 569.442 246.475 570.321 245.156C571.061 244.047 571.644 242.834 572.36 241.708C572.992 240.714 573.708 239.775 574.39 238.814C574.687 238.396 574.691 238.399 574.578 237.566C574.393 237.616 574.201 237.633 574.046 237.716C573.565 237.971 572.979 238.191 572.633 237.733C572.335 237.337 572.191 236.703 572.241 236.201C572.296 235.642 572.621 235.098 572.881 234.574C572.999 234.338 573.214 234.117 573.438 233.973C574.729 233.151 576.073 232.405 577.321 231.524C577.945 231.084 578.538 230.486 578.915 229.829C580.411 227.219 581.432 224.392 582.495 221.587C582.578 221.368 582.644 221.139 582.75 220.93C583.565 219.317 583.927 217.565 584.39 215.838C584.65 214.866 584.763 213.844 585.394 212.969C585.663 212.597 585.607 212 585.729 211.512C585.841 211.068 585.889 210.55 586.155 210.216C586.51 209.774 586.615 209.344 586.621 208.809C586.628 208.266 586.757 207.724 586.797 207.179C586.818 206.874 586.819 206.545 586.732 206.258C586.373 205.072 586.337 203.943 587.058 202.854C587.218 202.61 587.292 202.251 587.268 201.956C587.176 200.82 587.531 199.785 587.873 198.735C587.98 198.406 587.977 198.04 588.031 197.693C588.253 196.296 588.479 194.901 588.702 193.506C588.733 193.311 588.769 193.118 588.785 192.922C588.922 191.357 589.036 189.791 589.2 188.23C589.252 187.733 589.47 187.257 589.551 186.762C589.599 186.464 589.525 186.146 589.505 185.811C588.726 185.645 588.307 186.039 587.86 186.535C586.666 187.863 585.6 189.32 584.095 190.348C583.694 190.622 583.346 190.981 583.004 191.331C582.104 192.255 580.995 192.797 579.807 193.25C579.2 193.48 578.691 193.957 578.098 194.239C577.723 194.417 577.256 194.564 576.861 194.508C575.764 194.353 574.878 194.813 574.169 195.489C573.237 196.378 572.07 196.842 571.03 197.528C568.796 198.999 566.561 200.469 564.341 201.962C563.047 202.832 561.777 203.742 560.503 204.643C559.774 205.158 559.063 205.699 558.333 206.212C558.11 206.368 557.854 206.57 557.604 206.584C556.202 206.67 555.299 207.731 554.192 208.352C552.483 209.309 550.917 210.52 549.278 211.604C548.194 212.322 547.09 213.01 545.988 213.7C544.632 214.549 543.69 215.847 542.5 216.874C542.221 217.115 541.853 217.249 541.536 217.45C541.078 217.739 540.558 217.976 540.192 218.357C538.9 219.702 537.435 220.832 535.965 221.964C535.653 222.204 535.275 222.443 535.113 222.775C534.59 223.839 533.628 224.532 532.956 225.469C532.484 226.126 531.881 226.694 531.306 227.273C530.858 227.723 530.31 227.817 529.707 227.471C529.214 228.167 528.782 228.825 528.301 229.444C527.577 230.375 526.792 231.258 526.082 232.197C525.346 233.171 524.682 234.199 523.955 235.18C523.737 235.474 523.407 235.686 523.134 235.941C522.934 236.127 522.73 236.311 522.553 236.519C521.847 237.345 521.138 238.172 520.455 239.017C520.089 239.47 519.693 239.926 519.451 240.446C519.119 241.158 518.519 241.59 518.022 242.14C516.941 243.338 515.929 244.599 514.892 245.837C514.717 246.046 514.559 246.271 514.288 246.623C513.907 245.897 513.497 245.289 513.252 244.62C511.744 240.523 510.245 236.422 508.803 232.302C508.13 230.378 507.688 228.371 506.967 226.466C506.105 224.188 505.159 221.928 504.064 219.754C502.789 217.222 501.333 214.779 499.919 212.319C499.314 211.265 498.636 210.251 497.949 209.245C497.387 208.421 496.218 208.154 495.264 208.427C493.562 208.914 492.322 210.031 491.16 211.267C490.574 211.891 489.986 212.528 489.508 213.232C488.964 214.034 488.555 214.926 488.063 215.764C487.311 217.041 486.548 218.313 485.769 219.574C485.442 220.103 485.005 220.57 484.72 221.117C484.349 221.833 483.618 222.097 483.103 222.593C482.329 223.339 481.785 224.334 481.195 225.256C480.858 225.782 480.656 226.392 480.336 226.93C479.732 227.942 478.971 228.864 478.701 230.057C478.642 230.312 478.443 230.544 478.28 230.767C476.986 232.543 476.106 234.485 475.682 236.66C475.444 237.882 475.056 239.091 474.59 240.247C474.215 241.18 473.688 242.07 473.115 242.901C471.989 244.541 471.164 246.272 470.725 248.237C470.429 249.564 469.761 250.805 469.309 252.101C468.991 253.016 468.537 253.957 468.532 254.888C468.525 256.267 467.917 257.381 467.45 258.576C467.337 258.863 467.25 259.161 467.091 259.633C468.351 258.972 468.272 257.455 469.385 256.859C470.028 257 470.114 257.55 469.987 258.038C469.582 259.591 469.632 261.173 469.582 262.749C469.581 262.789 469.575 262.829 469.568 262.867C469.317 264.207 468.901 265.498 468.733 266.878C468.555 268.345 468.097 269.877 466.905 271.006C467.071 271.385 467.199 271.71 467.352 272.022C467.852 273.045 468.341 274.073 468.873 275.077C469.088 275.482 469.34 275.91 469.683 276.196C471.249 277.493 472.005 279.138 471.916 281.158C471.881 281.976 471.997 282.738 472.484 283.405C472.977 284.08 472.986 284.712 472.35 285.317C473.062 287.189 474.223 288.712 475.532 290.152C476.051 290.721 476.609 291.243 476.97 291.989C477.361 292.802 476.93 293.447 476.89 294.161C476.85 294.869 477.178 295.64 476.458 296.267C476.176 296.512 476.15 297.049 475.985 297.516C474.891 297.678 473.865 297.563 473.138 296.615C472.593 295.905 471.784 295.935 470.925 295.667C470.753 296.109 470.535 296.556 470.406 297.025C470.127 298.029 469.633 298.194 468.871 297.526C468.494 297.196 468.043 296.949 467.674 296.612C467.216 296.194 466.693 295.788 466.396 295.264C465.137 293.038 463.999 290.756 463.477 288.215C463.314 287.419 463.028 286.649 462.799 285.868C462.776 285.792 462.754 285.716 462.747 285.637C462.611 284.154 462.494 282.67 462.339 281.19C462.246 280.293 462.039 279.406 461.989 278.509C461.924 277.326 461.961 276.138 461.956 274.951C461.953 274.493 461.956 274.034 461.956 273.49C460.38 274.537 460.144 276.44 458.745 277.556C458.109 276.165 458.078 274.924 458.374 273.491C458.678 272.019 459.344 270.786 459.954 269.48C460.968 267.309 461.958 265.123 462.859 262.902C463.302 261.813 463.546 260.637 463.838 259.49C464.195 258.087 464.589 256.726 465.368 255.457C465.929 254.544 466.191 253.437 466.523 252.397C466.877 251.291 467.097 250.138 467.483 249.044C468.014 247.542 468.605 246.058 469.247 244.6C469.892 243.135 470.617 241.704 471.337 240.273C471.473 240.003 471.747 239.798 471.967 239.574C473.184 238.338 473.995 236.865 474.492 235.217C474.594 234.877 474.575 234.499 474.61 234.14C474.531 234.122 474.451 234.105 474.372 234.087C473.446 235.275 472.519 236.462 471.538 237.722C471.013 236.495 471.057 234.84 471.523 233.94C472.582 231.9 473.874 230.039 475.502 228.4C476.108 227.791 476.586 227.051 477.094 226.351C477.786 225.394 478.433 224.404 479.132 223.451C480.436 221.67 481.781 219.919 483.069 218.127C483.385 217.688 483.569 217.15 483.78 216.643C484.503 214.907 485.219 213.168 485.922 211.423C486.163 210.824 486.46 210.29 487.089 209.964C488.131 210.735 487.204 211.911 487.693 212.909C487.926 212.688 488.116 212.525 488.288 212.344C489.559 211 490.771 209.595 492.109 208.321C493.472 207.024 495.217 206.574 497.039 206.863C498.623 207.115 499.798 208.142 500.662 209.481C501.708 211.101 502.756 212.722 503.758 214.368C505.617 217.427 507.287 220.575 508.479 223.974C509.244 226.159 510.185 228.287 511.137 230.401C511.683 231.613 512.422 232.737 513.056 233.911C513.768 235.228 514.275 236.602 514.498 238.108C514.632 239.01 515.097 239.864 515.489 240.95C515.96 240.419 516.394 240.02 516.721 239.548C518.567 236.863 521.062 234.745 523.086 232.219C523.506 231.695 523.965 231.196 524.341 230.644C525.64 228.74 527.274 227.126 528.824 225.443C529.93 224.242 530.781 222.903 531.327 221.365C531.365 221.258 531.441 221.166 531.52 221.033H532.401C532.464 221.372 532.523 221.699 532.588 222.052C532.734 222.042 532.89 222.08 532.949 222.021C533.843 221.131 534.712 220.217 535.611 219.334C536.593 218.369 537.6 217.429 538.597 216.478C539.332 215.777 539.991 214.96 540.825 214.404C541.823 213.738 542.733 213.02 543.491 212.096C543.637 211.918 543.844 211.772 544.051 211.663C545.219 211.043 546.476 210.556 547.549 209.802C548.993 208.787 550.786 208.377 552.052 207.044C552.607 206.46 553.423 206.131 554.092 205.645C555.426 204.676 556.7 203.62 558.074 202.715C559.248 201.941 560.532 201.335 561.76 200.639C562.686 200.116 563.618 199.599 564.509 199.022C565.304 198.508 566.034 197.897 566.818 197.365C567.754 196.728 568.718 196.132 569.671 195.519C570.99 194.667 572.286 193.779 573.633 192.975C574.775 192.294 575.975 191.708 577.152 191.084C577.395 190.955 577.674 190.879 577.895 190.718C579.036 189.889 580.165 189.044 581.296 188.201C583.255 186.743 585.211 185.282 587.172 183.826C587.552 183.543 587.922 183.232 588.34 183.022C589.073 182.655 589.824 182.313 590.597 182.044C591.034 181.892 591.372 182.148 591.439 182.629C591.504 183.098 591.556 183.573 591.568 184.046C591.672 188.193 591.767 192.339 591.859 196.486C591.871 197 591.846 197.516 591.864 198.029C591.936 200.123 591.628 202.172 591.155 204.205C591.093 204.47 591.085 204.758 591.108 205.03C591.256 206.804 590.651 208.447 590.157 210.087C589.265 213.049 588.247 215.975 587.279 218.914C586.713 220.63 586.154 222.35 585.569 224.059C584.96 225.84 584.292 227.602 583.707 229.392C583.319 230.579 583.116 231.832 582.677 232.998C581.621 235.791 581.697 238.712 581.487 241.614C581.41 242.68 580.942 243.726 580.602 244.765C580.091 246.336 579.667 247.921 579.608 249.581C579.576 250.491 578.939 251.068 578.419 251.666C577.983 252.164 577.44 252.092 576.812 251.642C576.436 251.372 576.102 251.044 575.694 250.696L575.697 250.692ZM466.656 261.658C466.151 261.764 465.907 261.979 466.202 262.494C466.357 262.356 466.501 262.284 466.553 262.17C466.624 262.016 466.626 261.829 466.656 261.657V261.658Z" fill="#8DC0FF"/>
<path d="M253.953 326.627C254.727 326.749 255.464 326.7 255.761 327.478C255.513 328.393 254.958 328.823 253.986 329.061C252.582 329.405 251.222 329.91 249.748 329.779C249.292 329.738 248.846 329.59 248.392 329.506C248.124 329.456 247.851 329.421 247.579 329.403C246.405 329.326 245.231 329.212 244.055 329.2C243.235 329.192 242.411 329.393 241.591 329.377C241.067 329.368 240.412 329.292 240.047 328.977C238.9 327.991 237.449 327.911 236.131 327.436C234.014 326.673 231.902 325.898 229.799 325.097C228.083 324.443 226.841 323.133 225.608 321.859C224.343 320.554 223.106 319.207 222.002 317.768C219.202 314.119 217.599 309.959 216.799 305.436C216.513 303.82 215.836 302.273 215.321 300.7C214.977 299.648 214.592 298.608 214.249 297.556C214.145 297.241 214.119 296.902 214.025 296.407C215.054 296.854 214.87 297.999 215.868 298.506C215.721 297.899 215.633 297.463 215.507 297.038C215.004 295.333 214.491 293.632 213.978 291.93C213.477 290.265 212.962 288.604 212.477 286.933C212.344 286.473 212.076 285.975 212.541 285.446C213.901 287.838 215.226 290.166 216.639 292.65C216.805 292.279 216.932 292.091 216.974 291.885C217.218 290.685 217.454 289.482 217.668 288.276C217.764 287.732 217.847 287.179 217.857 286.629C217.896 284.244 218.445 281.975 219.29 279.756C219.51 279.179 219.556 278.528 219.632 277.906C219.774 276.73 219.878 275.551 220 274.375C220.122 273.197 220.253 272.019 220.372 270.841C220.531 269.272 220.631 267.694 220.86 266.135C220.961 265.451 221.24 264.762 221.572 264.15C222.283 262.84 222.605 262.783 223.893 263.523C224.561 263.47 224.816 262.941 225.031 262.443C226.739 258.496 229.322 255.179 232.352 252.175C233.051 251.483 233.709 250.748 234.529 249.88V251.397C234.944 251.242 235.235 251.171 235.49 251.032C237.297 250.051 239.048 248.952 240.912 248.098C242.734 247.263 244.66 246.647 246.56 245.999C247.067 245.826 247.653 245.853 248.204 245.848C249.068 245.84 249.935 245.929 250.798 245.896C253.82 245.779 256.749 246.372 259.452 247.594C262.258 248.86 264.431 250.903 265.892 253.771C267.293 256.522 267.519 259.511 268.262 262.395C268.438 263.077 268.641 263.761 268.914 264.41C269.757 266.409 270.729 268.341 271.361 270.442C271.747 271.727 271.824 272.862 271.416 274.108C271.221 274.7 271.198 275.352 271.121 275.979C271.02 276.793 271.099 277.624 270.613 278.384C270.427 278.675 270.512 279.154 270.512 279.547C270.51 282.434 270.569 285.323 270.503 288.209C270.465 289.862 270.304 291.521 270.066 293.158C269.793 295.033 269.349 296.882 269.021 298.75C268.532 301.541 267.582 304.185 266.373 306.72C265.67 308.192 265.034 309.751 263.683 310.844C262.303 311.962 261.725 313.587 261.251 315.211C261.031 315.966 260.642 316.513 260.017 316.852C259.049 317.378 258.597 318.271 258.102 319.164C256.92 321.293 255.717 323.41 254.526 325.534C254.341 325.865 254.174 326.207 253.954 326.627H253.953ZM265.51 302.895L265.731 302.983C265.921 302.722 266.218 302.485 266.282 302.195C266.529 301.089 266.71 299.969 266.899 298.851C267.063 297.887 267.093 296.886 267.379 295.963C267.874 294.361 267.546 292.668 268.047 291.083C268.047 286.538 268.058 281.991 268.039 277.446C268.035 276.741 267.936 276.03 267.812 275.334C267.488 273.512 267.127 271.695 266.777 269.876C266.569 268.798 266.395 267.713 266.123 266.651C266 266.174 265.571 265.773 265.465 265.295C265.106 263.675 264.073 262.407 263.359 260.972C262.784 259.821 262.216 258.604 262.003 257.353C261.858 256.503 261.535 256.022 260.921 255.538C259.911 254.739 258.948 253.884 258.305 252.725C258.005 252.184 257.726 251.546 257.028 251.4C255.887 251.161 254.741 250.916 253.585 250.784C251.744 250.574 250.077 251.473 248.306 251.753C247.287 251.914 246.332 252.454 245.34 252.799C244.091 253.232 242.807 253.576 241.589 254.079C240.726 254.435 239.9 254.925 239.14 255.473C238.412 255.996 237.818 256.704 237.115 257.267C236.462 257.789 235.758 258.227 235.839 259.227C235.852 259.388 235.663 259.564 235.568 259.735C234.963 260.832 234.323 261.911 233.766 263.033C233.403 263.767 232.877 264.262 232.209 264.725C230.941 265.604 229.894 266.802 228.317 267.232C228.123 267.285 228.009 267.803 227.943 268.123C227.835 268.655 227.817 269.204 227.724 269.739C227.657 270.119 227.515 270.486 227.432 270.865C227.124 272.28 226.701 273.665 226.577 275.128C226.489 276.164 226.106 277.172 225.922 278.204C225.724 279.314 225.036 280.1 224.113 280.519C223.543 280.778 223.252 281.147 222.936 281.582C222.731 281.864 222.611 282.253 222.345 282.438C221.77 282.836 221.655 283.364 221.694 283.984C221.743 284.77 221.85 285.557 221.842 286.342C221.817 288.631 221.74 290.92 221.702 293.209C221.694 293.64 221.793 294.071 221.811 294.503C221.851 295.445 221.908 296.386 221.889 297.328C221.874 298.114 221.679 298.902 221.71 299.684C221.789 301.634 221.413 303.604 222.08 305.537C222.423 306.531 222.471 307.623 222.75 308.643C223.429 311.128 225.03 313.143 226.312 315.314C226.551 315.718 227.174 315.927 227.656 316.147C228.188 316.389 228.784 316.491 229.312 316.739C230.486 317.292 231.681 317.824 232.784 318.499C233.87 319.165 235.238 319.248 236.176 320.195C236.243 320.261 236.414 320.21 236.52 320.253C236.77 320.351 237.039 320.437 237.251 320.593C238.751 321.704 239.537 321.699 241.042 320.506C240.905 320.208 240.764 319.899 240.621 319.589C241.095 318.96 241.717 318.696 242.488 318.813C243.219 318.924 243.972 318.979 244.67 319.2C245.525 319.472 246.365 319.834 247.153 320.263C247.79 320.611 248.145 321.153 248.15 321.997C248.155 322.922 248.432 323.847 248.61 324.768C248.647 324.956 248.747 325.141 248.858 325.301C249.285 325.921 249.858 325.969 250.311 325.376C250.645 324.94 250.866 324.419 251.18 323.968C252.393 322.233 253.269 320.236 255.069 318.956C255.19 318.871 255.278 318.728 255.356 318.598C255.7 318.028 255.989 317.416 256.387 316.887C257.078 315.968 257.821 315.096 257.787 313.844C257.782 313.664 257.963 313.487 257.998 313.297C258.058 312.965 258.152 312.609 258.093 312.288C257.917 311.353 258.215 310.561 258.781 309.871C259.566 308.916 260.178 307.883 260.595 306.714C261.135 305.2 261.677 303.679 262.358 302.226C262.829 301.219 263.536 300.321 264.257 299.186C264.7 299.942 265.112 300.442 265.295 301.015C265.483 301.604 265.446 302.265 265.508 302.894L265.51 302.895Z" fill="#8DC0FF"/>
<path d="M615.453 240.487C615.453 241.055 615.473 241.622 615.448 242.188C615.404 243.159 615.466 243.233 616.408 243.439C616.704 243.503 616.996 243.639 617.256 243.797C619.05 244.884 620.106 246.628 621.165 248.335C622.372 250.281 623.544 252.259 624.577 254.302C625.912 256.942 627.234 259.602 627.973 262.496C628.07 262.878 628.14 263.311 628.371 263.604C629.07 264.493 629.081 265.594 629.355 266.602C629.621 267.58 629.683 268.615 629.829 269.625C630.089 271.421 630.344 273.219 630.602 275.017C630.63 275.213 630.679 275.408 630.679 275.604C630.659 280.111 630.635 284.62 630.608 289.127C630.603 289.838 630.608 290.552 630.565 291.262C630.45 293.152 630.438 295.06 630.145 296.923C629.851 298.788 629.303 300.616 628.797 302.441C628.526 303.42 628.303 303.476 627.242 303.523C626.193 303.571 625.205 303.36 624.226 303.029C623.104 302.649 621.991 302.224 620.843 301.951C618.846 301.476 617.111 300.448 615.342 299.494C613.884 298.708 612.47 297.837 611.048 296.984C610.507 296.66 609.973 296.315 609.482 295.923C607.855 294.623 606.023 293.769 604.007 293.275C603.189 293.075 602.386 292.812 601.445 292.539C601.286 295.085 601.383 297.382 602.015 299.744C602.465 301.424 602.902 303.246 602.338 305.102C602.083 305.94 602.294 306.91 602.212 307.813C602.094 309.099 601.895 310.377 601.744 311.661C601.604 312.86 601.478 314.06 601.352 315.261C601.253 316.196 601.166 317.132 601.072 318.069C600.932 319.473 601.321 320.723 602.174 321.836C602.246 321.93 602.34 322.016 602.384 322.122C603.204 324.124 604.092 326.101 604.8 328.142C605.141 329.125 605.217 330.223 605.27 331.277C605.369 333.225 606.297 334.703 607.665 335.985C607.949 336.253 608.221 336.539 608.463 336.844C609.591 338.266 611.449 338.668 613.13 337.882C613.579 337.672 614.086 337.586 614.569 337.455C614.832 337.384 615.132 337.396 615.362 337.273C616.785 336.513 618.221 335.773 619.595 334.931C620.528 334.359 621.371 333.638 622.245 332.972C623.776 331.806 625.305 330.638 626.825 329.458C627.411 329.002 627.927 328.441 628.549 328.046C630.597 326.741 632.229 324.992 633.838 323.217C634.337 322.667 634.716 322.007 635.15 321.399C635.311 321.174 635.444 320.918 635.642 320.732C636.994 319.454 637.957 317.872 639.063 316.401C639.587 315.703 640.099 315.025 640.953 314.667C641.257 314.54 641.507 314.229 641.718 313.952C642.385 313.081 643.029 312.193 643.662 311.296C643.999 310.819 644.327 310.387 644.996 310.726C645.232 311.909 644.746 312.999 643.581 313.66C643.079 313.947 642.668 314.221 642.463 314.795C642.363 315.073 642.123 315.359 641.868 315.511C640.63 316.251 639.876 317.358 639.209 318.602C638.811 319.342 638.141 319.937 637.585 320.591C637.356 320.86 637.056 321.081 636.875 321.378C635.598 323.478 633.663 325.031 632.222 327C631.75 327.645 630.997 328.084 630.373 328.618C629.984 328.951 629.597 329.284 629.209 329.616C628.01 330.64 626.826 331.683 625.608 332.682C624.42 333.656 623.131 334.513 622.008 335.553C620.741 336.726 619.156 337.343 617.77 338.277C616.424 339.185 614.898 339.515 613.477 340.155C613.093 340.329 612.649 340.405 612.226 340.446C611.639 340.504 611.06 340.451 610.607 340.995C610.481 341.147 609.99 341.156 609.768 341.039C608.938 340.599 608.063 340.18 607.367 339.569C606.363 338.685 605.347 337.742 604.621 336.637C603.899 335.539 603.494 334.224 603.011 332.979C602.031 330.455 601.074 327.921 600.142 325.379C599.615 323.943 599.123 322.501 599.123 320.923C599.123 320.202 598.817 319.482 598.658 318.76C598.559 318.309 598.404 317.854 598.4 317.399C598.377 314.393 598.467 311.384 598.354 308.383C598.292 306.72 598.162 305.081 598.358 303.411C598.504 302.162 598.355 300.882 598.403 299.618C598.43 298.878 598.602 298.144 598.673 297.405C598.722 296.897 598.733 296.381 598.716 295.871C598.701 295.399 598.493 294.897 598.601 294.466C599.129 292.353 597.839 290.787 597.085 289.052C596.264 287.165 594.647 286.111 593.018 285.052C592.325 284.601 591.653 284.112 591.012 283.589C590.115 282.859 590.107 282.249 590.994 281.22C592.596 281.7 594.248 282.194 595.9 282.69C596.089 282.747 596.271 282.853 596.461 282.87C597.413 282.95 597.957 282.309 597.724 281.381C597.667 281.156 597.563 280.928 597.426 280.743C596.465 279.457 595.818 278.024 595.399 276.485C594.952 274.85 594.514 273.213 594.102 271.569C593.978 271.072 593.972 270.554 594.614 270.071C595.687 272.568 595.793 275.372 597.518 277.508C597.995 277.326 597.846 276.992 597.789 276.705C597.443 274.961 597.062 273.223 596.746 271.473C596.58 270.554 596.433 269.605 597.065 268.643C597.758 269.283 598.431 269.789 598.65 270.754C599.138 272.912 599.715 275.048 600.26 277.192C600.287 277.299 600.367 277.392 600.558 277.739C600.742 276.897 600.932 276.279 601.001 275.646C601.078 274.941 601.078 274.224 601.056 273.512C600.996 271.547 601.268 269.63 601.777 267.737C601.857 267.44 601.832 267.108 601.818 266.793C601.755 265.455 602.272 264.241 602.688 263.022C602.961 262.221 603.455 261.491 603.885 260.749C604.818 259.136 605.321 257.351 606.019 255.643C607.106 252.99 608.215 250.336 609.854 247.948C610.299 247.302 610.594 246.555 610.985 245.869C611.277 245.357 611.639 244.884 611.919 244.366C612.332 243.605 612.876 243.233 613.805 243.226C614.878 243.218 615.055 242.87 614.988 241.799C614.961 241.356 615.044 240.907 615.076 240.461C615.201 240.468 615.326 240.476 615.449 240.483L615.453 240.487ZM626.141 298.112C626.324 297.77 626.656 297.417 626.694 297.032C626.839 295.599 627.307 294.296 628.003 293.051C628.15 292.787 628.235 292.47 628.271 292.169C628.419 290.923 628.533 289.674 628.67 288.429C628.691 288.235 628.799 288.05 628.809 287.858C628.873 286.606 629.033 285.345 628.948 284.103C628.81 282.098 628.501 280.106 628.277 278.106C628.124 276.741 627.994 275.372 627.848 274.005C627.836 273.89 627.766 273.782 627.74 273.668C627.541 272.788 627.32 271.912 627.154 271.025C626.828 269.287 626.556 267.54 625.843 265.898C625.577 265.285 625.196 264.61 625.25 263.997C625.358 262.784 624.844 261.783 624.552 260.692C624.321 259.83 623.796 259.251 623.213 258.651C622.726 258.15 622.237 257.617 621.9 257.013C620.86 255.158 619.827 253.292 618.92 251.37C618.369 250.203 617.269 249.627 616.482 248.726C616.341 248.564 615.972 248.572 615.704 248.557C615.394 248.541 615.08 248.602 614.769 248.6C613.864 248.593 613.686 248.712 613.306 249.606C613.247 249.746 613.194 249.908 613.09 250.009C611.806 251.255 610.867 252.732 610.118 254.343C609.29 256.122 608.485 257.913 607.585 259.655C607.158 260.483 606.561 261.211 606.429 262.182C606.346 262.793 606.173 263.393 606.022 263.994C605.629 265.561 604.773 266.989 605.237 268.779C605.577 270.088 605.206 271.471 604.641 272.78C603.541 275.324 603.135 278.035 602.966 280.788C602.924 281.451 602.798 282.111 602.679 282.766C602.577 283.33 602.569 283.837 602.97 284.324C603.463 284.921 603.892 285.572 604.458 286.352C605.351 286.57 606.569 286.632 607.388 287.527C608.49 288.73 609.64 289.923 610.535 291.276C611.723 293.072 613.369 293.881 615.394 294.165C615.622 294.197 615.871 294.239 616.061 294.357C616.832 294.835 617.668 295.257 618.318 295.871C618.846 296.371 619.372 296.432 620.014 296.474C621.108 296.543 622.225 296.591 623.278 296.861C624.206 297.098 625.058 297.626 626.142 298.114L626.141 298.112Z" fill="#8DC0FF"/>
<path d="M381.012 305.494C381.348 304.313 381.697 303.352 381.885 302.359C382.108 301.185 383.001 300.415 384.13 300.74C384.979 300.983 385.813 301.25 386.635 301.68C388.601 302.709 390.706 303.151 392.84 301.935C393.52 301.548 394.319 301.368 394.991 300.969C396.167 300.272 397.333 299.542 398.418 298.714C400.6 297.049 402.594 295.15 405.082 293.877C406.029 293.394 406.747 292.459 407.556 291.715C408.163 291.154 408.771 290.589 409.337 289.987C409.902 289.384 410.447 288.756 410.932 288.089C411.087 287.876 411.066 287.501 411.045 287.205C411.001 286.58 410.892 285.959 410.833 285.334C410.791 284.892 410.976 284.555 411.413 284.416C411.863 284.274 412.04 284.602 412.225 284.921C412.691 285.728 413.263 286.296 414.311 285.891C414.753 285.72 415.001 286.031 415.08 286.403C415.16 286.784 415.156 287.186 415.158 287.58C415.165 288.451 415.177 289.321 415.146 290.19C415.078 292.112 415.546 293.937 416.098 295.75C416.189 296.048 416.281 296.352 416.313 296.659C416.352 297.028 416.287 297.384 415.84 297.493C415.357 297.611 415.087 297.374 414.954 296.937C414.631 295.88 414.315 294.822 413.99 293.765C413.912 293.514 413.81 293.269 413.658 292.85C413.386 293.143 413.168 293.296 413.065 293.508C412.805 294.04 412.612 294.604 412.361 295.14C412.229 295.42 412.071 295.715 411.848 295.918C411.705 296.046 411.382 296.108 411.211 296.034C411.046 295.963 410.879 295.68 410.879 295.489C410.878 295.027 410.973 294.564 411.043 293.981C410.8 294.081 410.613 294.11 410.493 294.214C409.633 294.97 408.748 295.703 407.946 296.517C406.306 298.183 404.283 299.435 402.815 301.286C402.632 301.516 402.31 301.673 402.02 301.774C400.651 302.246 399.272 302.688 397.896 303.14C397.821 303.165 397.735 303.176 397.674 303.22C395.992 304.388 393.836 304.341 392.1 305.393C391.713 305.628 391.204 305.698 390.74 305.761C390.135 305.844 389.601 305.941 389.228 306.528C389.107 306.719 388.678 306.746 388.382 306.787C387.332 306.93 386.209 306.861 385.247 307.225C384.193 307.622 383.043 307.172 382.063 307.787C381.969 307.847 381.768 307.71 381.616 307.704C380.993 307.678 380.369 307.647 379.746 307.656C378.982 307.666 378.21 307.786 377.456 307.715C377.127 307.684 376.799 307.329 376.529 307.063C375.884 306.432 375.253 305.783 374.656 305.107C374.322 304.728 374.08 304.271 373.775 303.865C372.838 302.617 371.884 301.383 370.725 300.325C369.612 299.309 369.19 297.876 368.488 296.61C367.305 294.479 366.012 292.407 364.888 290.246C363.748 288.054 362.276 286.046 361.477 283.658C361.101 282.531 360.242 281.57 359.652 280.508C359.057 279.437 358.353 278.463 357.493 277.588C355.621 275.679 353.426 274.401 350.751 274.018C350.595 273.995 350.425 273.99 350.291 273.92C348.327 272.91 346.144 273.064 344.052 272.74C343.459 272.649 343.457 272.664 343.037 271.896C343.939 270.941 345.111 270.763 346.354 270.71C347.012 270.681 347.672 270.567 348.315 270.423C349.264 270.209 350.188 269.816 351.145 269.724C351.812 269.66 352.527 269.933 353.198 270.132C353.871 270.331 354.536 270.583 355.17 270.887C356.019 271.293 356.807 271.305 357.635 270.83C357.962 270.642 358.367 270.522 358.745 270.501C359.4 270.463 359.794 270.114 359.97 269.555C360.407 268.167 360.792 266.762 361.197 265.363C361.597 263.981 361.736 262.508 362.649 261.306C363.009 260.833 363.583 260.512 363.615 259.792C363.624 259.6 363.969 259.372 364.205 259.25C365.185 258.745 366.161 258.223 367.181 257.811C368.069 257.452 368.856 257.045 369.464 256.252C369.802 255.81 370.356 255.339 370.867 255.263C371.995 255.095 373.124 254.663 374.307 255.024C374.585 255.109 374.977 255.088 375.227 254.952C376.208 254.416 377.279 254.228 378.344 253.981C378.716 253.894 379.166 253.73 379.376 253.449C379.798 252.88 380.365 252.893 380.942 252.816C381.487 252.745 382.029 252.651 382.57 252.549C383.27 252.416 383.922 252.381 384.65 252.627C385.33 252.857 386.127 252.764 386.874 252.779C388.135 252.805 388.442 253.027 388.43 254.289C388.42 255.359 388.818 255.918 389.784 256.476C391.061 257.214 392.375 257.569 393.781 257.776C394.085 257.822 394.373 258.019 394.673 258.036C395.164 258.065 395.706 258.121 396.142 257.95C396.695 257.732 397.137 257.702 397.545 258.125C398.418 259.029 399.456 259.778 400.03 260.96C400.447 261.817 401.213 262.336 402.102 262.623C402.79 262.845 403.039 263.244 403.19 263.969C403.501 265.469 403.63 266.951 403.162 268.404C402.73 269.745 402.165 271.045 401.589 272.332C401.442 272.662 401.05 272.895 400.743 273.138C400.278 273.506 399.766 273.815 399.32 274.204C398.83 274.633 398.27 274.824 397.664 275.041C396.483 275.465 395.346 276.042 394.248 276.656C393.776 276.921 393.342 277.105 392.811 277.072C390.762 276.946 388.714 276.784 386.662 276.706C384.454 276.622 382.243 276.624 380.034 276.567C379.325 276.549 378.566 276.61 377.92 276.379C376.176 275.758 374.406 276.028 372.639 276.017C371.89 276.012 371.138 275.988 370.394 275.914C369.351 275.812 369.181 275.838 368.723 276.783C368.346 277.561 367.84 278.091 367.034 278.486C365.686 279.146 365.128 281.298 365.769 282.68C366.999 285.331 368.096 288.032 368.887 290.852C369.077 291.527 369.388 292.171 369.663 292.82C370.169 294.01 370.537 295.293 371.24 296.355C372.211 297.821 373.462 299.101 374.548 300.495C375.144 301.26 375.636 302.106 376.201 302.897C376.495 303.309 376.772 303.843 377.19 304.037C378.358 304.578 379.595 304.971 381.011 305.5L381.012 305.494ZM364.399 272.364C364.908 273.033 365.558 273.562 366.502 273.627C367.934 273.726 369.359 274.233 370.795 273.525C371.247 273.302 371.879 273.181 372.342 273.314C372.866 273.464 373.243 273.351 373.693 273.195C374.167 273.032 374.725 272.753 375.146 272.874C375.859 273.077 376.356 272.803 376.933 272.547C377.747 272.186 378.553 271.693 379.509 272.2C379.682 272.293 379.974 272.231 380.188 272.164C381.769 271.672 383.134 271.826 384.213 273.264C384.789 274.032 385.76 274.249 386.382 273.806C386.693 273.586 386.865 273.166 387.131 272.792C387.479 272.731 387.955 272.759 388.31 272.566C389.897 271.702 391.691 271.63 393.38 271.174C393.816 271.057 394.294 271.092 394.754 271.07C395.818 271.019 397.195 270.033 397.531 268.978C397.852 267.968 398.134 266.94 398.331 265.9C398.565 264.67 397.725 263.707 396.584 263.782C396.475 264.408 397.051 265.031 396.566 265.843C395.851 264.968 395.206 264.194 394.577 263.407C393.923 262.586 392.711 262.377 392.205 261.346C392.976 260.567 393.823 261.259 394.658 261.107C393.463 260.377 392.274 260.076 391.065 260.104C390.678 260.112 390.284 260.013 389.899 259.931C387.937 259.511 386.026 258.831 384.009 258.707C382.887 258.64 381.756 258.695 380.507 258.695C380.076 257.983 379.332 258.215 378.581 258.289C376.068 258.538 373.605 259.047 371.167 259.679C370.147 259.943 369.162 260.381 368.132 260.561C366.814 260.79 366.034 261.579 365.447 262.665C365.091 263.325 364.817 264.034 364.419 264.666C364.021 265.299 363.882 265.897 364.012 266.66C364.114 267.263 364.418 267.668 364.755 268.097C365.288 268.776 365.427 269.485 365.084 270.309C364.817 270.952 364.639 271.632 364.399 272.364Z" fill="#8DC0FF"/>
<path d="M746.235 262.015C747.492 262.124 748.821 262.3 750.155 262.336C750.997 262.358 751.798 262.044 752.705 262.255C753.358 262.407 754.144 262.061 754.855 261.878C756.438 261.47 757.986 261.42 759.593 261.874C760.316 262.078 761.177 261.989 761.934 261.832C763.037 261.604 764.024 261.957 765.047 262.184C765.236 262.225 765.427 262.369 765.601 262.344C767.047 262.142 768.545 262.765 769.958 262.067C770.026 262.034 770.114 262.027 770.191 262.032C771.379 262.103 772.568 262.174 773.755 262.252C774.108 262.276 774.459 262.35 774.811 262.35C778.364 262.357 781.917 262.353 785.47 262.356C786.055 262.356 786.641 262.275 787.173 262.68C787.363 262.825 787.703 262.786 787.977 262.803C788.647 262.849 789.316 262.879 790 263.023C789.551 263.101 789.099 263.163 788.655 263.263C787.781 263.459 786.905 263.649 786.044 263.89C784.536 264.312 783.035 264.707 781.442 264.669C780.509 264.647 779.542 264.475 778.648 264.961C778.523 265.028 778.331 265.019 778.183 264.989C777.23 264.797 776.283 264.589 775.239 264.366C775.125 265.488 774.208 265.569 773.336 265.772C771.424 266.217 769.524 266.705 767.618 267.176C767.542 267.195 767.469 267.243 767.394 267.25C765.765 267.408 764.134 267.56 762.505 267.72C762.156 267.755 761.81 267.812 761.463 267.867C761.04 267.934 760.62 268.01 760.198 268.082C759.663 268.175 759.13 268.311 758.59 268.349C758.048 268.387 757.473 268.427 756.961 268.291C755.329 267.861 753.757 268.066 752.19 268.564C751.862 268.669 751.53 268.827 751.196 268.836C750.44 268.858 750.034 269.324 749.788 269.919C749.299 271.105 748.878 272.32 748.428 273.523C748.387 273.632 748.271 273.753 748.293 273.841C748.703 275.425 747.749 276.861 747.818 278.417C747.886 279.957 747.815 281.503 747.844 283.045C747.86 283.832 747.965 284.618 748.02 285.405C748.047 285.797 748.122 286.203 748.057 286.583C747.704 288.629 747.697 290.665 748.085 292.705C748.122 292.897 748.181 293.12 748.122 293.291C747.582 294.812 748.152 296.234 748.471 297.681C748.538 297.984 748.579 298.329 748.502 298.62C748.027 300.414 748.309 302.24 748.234 304.05C748.186 305.186 748.383 306.34 747.887 307.442C747.767 307.709 747.837 308.066 747.837 308.382C747.834 310.202 747.859 312.023 747.822 313.842C747.811 314.371 747.57 314.895 747.55 315.427C747.53 315.96 747.537 316.545 747.735 317.025C748.205 318.162 748.604 319.303 748.579 320.544C748.569 321.049 748.451 321.552 748.379 322.055C748.333 322.366 748.212 322.683 748.247 322.984C748.422 324.501 747.954 325.951 747.805 327.433C747.76 327.889 747.547 328.342 747.346 328.765C747.071 329.338 746.745 329.426 745.586 329.305C745.447 327.857 745.312 326.378 745.162 324.901C744.944 322.754 744.706 320.608 744.497 318.46C744.437 317.832 744.369 317.19 744.437 316.569C744.583 315.244 744.388 313.983 744.014 312.717C743.817 312.05 743.771 311.339 743.651 310.648C743.619 310.465 743.568 310.287 743.526 310.105C743.444 310.098 743.362 310.092 743.279 310.085C743.137 310.83 742.948 311.57 742.863 312.322C742.702 313.767 742.621 315.219 742.467 316.665C742.393 317.349 741.82 317.829 741.104 317.91C739.034 318.146 738.03 317.319 737.494 315.24C737.386 314.821 737.307 314.395 737.205 313.975C737.012 313.191 737.581 310.434 738.074 309.78C738.67 308.991 739.345 308.924 740.372 309.597C740.746 308.845 740.912 308.066 740.942 307.239C741.085 303.369 741.27 299.502 741.371 295.632C741.397 294.619 741.18 293.6 741.071 292.585C741.058 292.467 741.007 292.355 740.997 292.237C740.859 290.67 740.758 289.098 740.579 287.535C740.469 286.574 740.354 285.586 740.033 284.683C739.668 283.659 739.762 282.693 739.938 281.684C740.023 281.193 740.083 280.683 740.054 280.188C740.009 279.406 739.842 278.63 739.795 277.848C739.738 276.868 739.75 275.903 739.499 274.922C739.324 274.244 739.502 273.439 739.662 272.723C739.778 272.213 739.756 271.809 739.474 271.384C738.993 270.661 738.525 269.929 738.063 269.194C737.585 268.431 736.93 267.873 736.084 267.585C734.975 267.208 733.845 266.891 732.729 266.534C731.95 266.285 731.145 266.08 730.412 265.729C729.089 265.095 727.713 264.958 726.28 265.006C725.301 265.038 724.314 265.107 723.362 264.701C723.057 264.57 722.658 264.665 722.303 264.643C721.752 264.608 721.105 264.733 720.669 264.487C719.451 263.798 718.064 264.004 716.801 263.587C716.304 263.423 715.673 263.446 715.161 263.591C713.384 264.094 711.576 263.946 709.795 263.832C708.638 263.758 707.604 264.033 706.566 264.368C705.704 264.646 704.878 264.643 703.965 264.447C703.765 264.63 703.538 264.838 703.213 265.135C703.144 265.009 703.074 264.917 703.042 264.814C702.786 263.993 702.514 263.175 702.289 262.346C702.016 261.339 702.643 259.771 703.524 259.291C703.927 259.993 704.33 260.699 704.65 261.256C705.534 261.256 706.33 261.084 706.999 261.3C707.823 261.565 708.628 261.645 709.444 261.57C710.248 261.495 711.046 261.288 711.831 261.081C713.121 260.74 714.412 260.787 715.715 260.954C717.357 261.164 719.002 261.356 720.645 261.56C722.525 261.794 724.397 262.09 726.283 262.252C727.885 262.391 729.495 262.561 731.108 262.118C731.673 261.963 732.337 262.15 732.953 262.207C733.84 262.289 734.726 262.397 735.611 262.488C735.807 262.508 736.006 262.494 736.203 262.503C737.857 262.583 739.509 262.68 741.164 262.737C742.11 262.77 742.514 262.375 742.567 261.406C742.599 260.815 742.55 260.219 742.574 259.626C742.589 259.234 742.617 258.827 742.741 258.463C742.829 258.206 743.046 257.907 743.283 257.81C743.705 257.633 744.061 257.902 744.263 258.271C744.897 259.435 745.504 260.614 746.239 262.011L746.235 262.015Z" fill="#8DC0FF"/>
<path d="M674.889 237.851C675.14 236.55 675.393 235.405 675.576 234.249C676.189 230.379 677.065 226.568 678.135 222.803C678.401 221.87 678.576 220.839 679.59 220.329C679.726 220.26 679.876 220.216 680.02 220.16C681.243 220.909 681.904 222.123 682.573 223.252C683.915 225.52 685.129 227.867 686.313 230.224C686.69 230.975 686.746 231.881 687.055 232.674C687.507 233.836 688.058 234.96 688.564 236.101C689.33 237.826 690.067 239.566 690.865 241.275C691.462 242.555 692.138 243.798 692.779 245.059C692.867 245.233 692.983 245.4 693.033 245.584C693.225 246.299 693.649 246.693 694.395 246.878C695.765 247.219 696.842 248.193 697.412 249.34C698.041 250.605 698.385 252.008 697.518 253.576C696.75 254.968 696.326 256.692 697.641 258.202C697.84 258.431 697.97 258.733 698.09 259.019C700.163 263.972 702.246 268.922 704.293 273.886C706.795 279.951 709.311 286.01 711.308 292.27C711.924 294.203 711.817 296.156 711.769 298.146C711.234 298.222 710.781 298.287 710.169 298.374C709.477 297.196 708.727 295.998 708.055 294.757C706.873 292.575 705.732 290.37 704.59 288.166C704.209 287.431 703.9 286.66 703.517 285.927C702.718 284.397 701.889 282.88 701.444 281.195C701.405 281.048 701.332 280.888 701.225 280.782C700.424 279.987 700.302 278.887 699.981 277.897C699.416 276.153 698.954 274.376 698.478 272.603C698.042 270.979 697.679 269.334 697.219 267.717C696.855 266.438 696.376 265.193 695.982 263.921C695.844 263.48 695.709 263 695.743 262.551C695.83 261.414 695.495 260.378 695.143 259.333C694.968 258.816 694.773 258.294 694.683 257.76C694.414 256.164 693.522 254.845 692.812 253.449C692.628 253.087 692.26 252.816 691.97 252.509C691.55 252.063 691.183 251.534 690.687 251.199C689.715 250.542 688.68 249.98 687.655 249.409C686.621 248.833 685.592 248.238 684.516 247.75C682.457 246.818 680.372 245.938 678.282 245.078C677.826 244.891 677.298 244.878 676.668 244.759C676.486 245.532 676.326 246.209 676.168 246.886C676.043 247.416 675.919 247.948 675.798 248.48C675.572 249.469 675.342 250.456 675.129 251.447C675.081 251.674 675.046 251.924 675.092 252.147C675.474 254.007 674.98 255.813 674.778 257.637C674.761 257.792 674.672 257.942 674.67 258.095C674.645 259.909 674.645 261.718 674.273 263.515C674.006 264.81 674.702 266.03 674.801 267.307C674.829 267.657 674.906 268.008 674.882 268.352C674.831 269.094 674.67 269.833 674.66 270.574C674.631 272.986 674.636 275.4 674.654 277.813C674.665 279.188 674.572 280.557 674.965 281.926C675.206 282.766 675.185 283.673 675.105 284.603C674.99 285.941 675.333 287.32 675.483 288.68C675.487 288.717 675.512 288.756 675.538 288.785C676.575 289.966 676.312 291.359 676.135 292.715C676.077 293.161 675.832 293.596 675.616 294.007C675.375 294.466 674.961 294.554 674.501 294.344C673.112 293.707 671.725 293.079 670.668 291.905C669.841 290.985 669.734 290.098 670.696 289.368C671.49 288.765 671.611 288.059 671.612 287.208C671.615 282.461 671.565 277.713 671.644 272.967C671.7 269.614 672.022 266.265 672.055 262.912C672.081 260.332 672.432 257.796 672.702 255.247C673.036 252.106 673.463 248.975 673.853 245.841C673.887 245.566 673.928 245.292 673.977 245.02C674.166 243.987 674.072 243.09 673.061 242.45C672.682 242.211 672.446 241.747 672.093 241.511C670.778 240.934 669.461 240.355 668.04 239.731C667.901 240.074 667.736 240.341 667.689 240.628C667.584 241.29 667.514 241.961 667.469 242.629C667.298 245.153 667.109 247.676 666.996 250.203C666.952 251.182 667.121 252.17 667.136 253.156C667.152 254.12 666.991 254.332 666.092 254.621C665.607 254.776 665.095 254.851 664.591 254.946C663.394 255.171 662.196 255.387 660.997 255.6C660.608 255.669 660.213 255.784 659.828 255.76C658.477 255.674 657.17 256.383 655.746 255.723C655.039 255.395 654.035 255.703 653.165 255.729C652.261 255.755 651.389 255.735 650.479 255.503C648.959 255.116 647.386 254.903 645.823 254.733C645.097 254.653 644.342 254.886 643.6 254.901C642.987 254.913 642.357 254.88 641.767 254.733C641.477 254.66 641.124 254.328 641.035 254.039C640.436 252.082 640.408 250.126 641.492 248.32C641.812 247.788 642.434 247.439 643.012 246.921C643.978 248.296 644.568 249.558 644.16 251.108C643.968 251.838 644.15 252.047 644.934 252.18C646.63 252.467 648.34 252.415 649.967 251.964C651.084 251.655 652.035 251.923 653.069 252.13C654.416 252.401 655.788 252.562 657.15 252.763C657.303 252.785 657.487 252.801 657.619 252.739C658.711 252.226 659.87 252.458 661.004 252.396C661.386 252.375 661.766 252.252 662.141 252.152C662.783 251.983 663.436 251.834 664.056 251.599C664.348 251.488 664.629 251.236 664.809 250.973C664.953 250.763 664.963 250.446 664.986 250.172C665.145 248.251 665.29 246.327 665.445 244.406C665.575 242.798 665.691 241.188 665.856 239.582C665.919 238.97 666.07 238.359 666.239 237.765C666.578 236.568 668.042 235.846 669.222 236.207C671.029 236.758 672.852 237.263 674.893 237.854L674.889 237.851ZM680.698 226.218C679.559 228.281 679.656 230.338 679.249 232.274C678.994 233.489 679.054 234.761 678.493 235.927C678.194 236.549 678.038 237.24 677.82 237.9C677.429 239.077 677.71 239.822 678.803 240.442C681.072 241.73 683.329 243.041 685.624 244.282C686.836 244.937 688.114 245.471 689.372 246.04C689.55 246.121 689.782 246.085 690.119 246.115C689.951 245.696 689.856 245.4 689.719 245.127C689.155 244.007 688.494 242.929 688.021 241.773C686.061 236.977 683.953 232.252 681.538 227.666C681.307 227.226 681.04 226.804 680.698 226.217V226.218Z" fill="#8DC0FF"/>
<path d="M314.808 245.55C315.121 245.286 315.264 245.216 315.331 245.102C316.985 242.303 318.395 239.405 319.13 236.208C319.467 234.739 319.938 233.315 321.061 232.199C321.39 231.873 321.603 231.423 321.839 231.013C322.687 229.544 323.519 228.069 324.362 226.598C324.683 226.038 325.373 225.477 326.173 225.163C326.232 225.519 326.326 225.842 326.333 226.169C326.355 227.078 326.358 227.988 326.337 228.897C326.295 230.621 326.888 232.068 328.19 233.204C329.883 234.68 330.977 236.633 332.317 238.388C332.504 238.632 332.593 238.955 332.704 239.25C333.222 240.61 333.709 241.984 334.262 243.329C334.418 243.706 334.699 244.141 335.04 244.308C335.69 244.623 336.054 245.178 336.132 245.757C336.277 246.843 336.245 247.957 336.209 249.057C336.194 249.545 336.03 250.042 335.861 250.509C335.718 250.907 335.531 251.322 335.256 251.633C334.814 252.131 334.762 252.65 334.831 253.278C334.977 254.612 335.011 255.959 335.157 257.294C335.315 258.738 335.549 260.173 335.75 261.612C335.891 262.623 336.043 263.634 336.171 264.646C336.339 265.976 336.473 267.31 336.646 268.639C336.931 270.83 337.217 273.019 337.547 275.203C337.609 275.611 337.801 276.059 338.073 276.364C338.574 276.928 338.79 277.579 338.929 278.284C339.013 278.71 339.15 279.135 339.17 279.565C339.281 281.979 340.718 283.724 342.126 285.48C342.566 286.029 342.895 286.583 342.744 287.312C342.723 287.418 342.639 287.511 342.591 287.594C342.487 287.608 342.399 287.651 342.338 287.626C341.248 287.171 341.139 287.297 340.868 288.395C340.523 289.797 340.016 291.159 339.528 292.698C338.603 292.428 337.807 292.192 337.007 291.967C336.784 291.904 336.552 291.855 336.322 291.834C335.433 291.753 334.882 291.26 334.73 290.422C334.627 289.85 334.44 289.288 334.381 288.712C334.256 287.525 334.675 286.442 335.287 285.474C335.73 284.774 335.67 284.253 335.16 283.674C334.983 283.475 334.789 283.223 334.756 282.975C334.593 281.734 334.478 280.486 334.353 279.241C334.262 278.318 334.444 277.44 334.811 276.594C335.29 275.49 335.206 274.365 334.935 273.232C334.881 273.002 334.77 272.772 334.77 272.543C334.768 270.885 334.617 269.244 334.378 267.599C334.067 265.463 333.902 263.306 333.673 261.158C333.668 261.119 333.658 261.08 333.655 261.04C333.54 259.204 333.421 257.367 333.265 255.532C333.107 253.686 332.925 251.864 332.527 250.058C332.241 248.759 331.978 247.455 331.694 246.156C331.646 245.939 331.598 245.691 331.462 245.529C331.088 245.083 330.705 244.633 330.261 244.259C328.908 243.12 328.013 241.592 326.867 240.278C325.956 239.233 325.164 238.04 324.693 236.686C324.608 236.438 324.43 236.223 324.239 235.899C323.754 236.367 323.352 236.782 322.921 237.165C322.487 237.549 321.996 237.871 321.584 238.277C321.32 238.536 321.06 238.868 320.963 239.215C320.541 240.71 320.26 242.248 319.774 243.719C319.308 245.136 318.63 246.457 317.507 247.531C316.599 248.399 315.828 249.411 314.992 250.355C314.81 250.559 314.638 250.789 314.414 250.935C313.609 251.458 313.041 251.228 312.87 250.283C312.498 248.226 312.183 246.159 311.806 244.101C311.594 242.937 311.312 241.787 311.05 240.634C311.029 240.538 310.911 240.464 310.746 240.274C310.235 240.957 309.757 241.598 309.239 242.29C308.483 242.141 308.229 241.612 308.286 240.792C308.371 239.563 308.05 238.414 307.73 237.217C307.255 235.439 306.182 234.057 305.316 232.532C304.776 231.581 304.164 230.67 303.585 229.74C303.544 229.674 303.483 229.591 303.494 229.527C303.698 228.294 302.791 227.639 302.023 227.059C301.334 226.539 300.429 226.279 299.591 225.99C298.994 225.783 298.464 225.454 297.693 225.671C296.764 225.933 296.281 226.475 296.022 227.27C295.728 228.177 295.305 228.975 294.709 229.725C293.881 230.766 293.087 231.824 292.007 232.631C291.801 232.785 291.681 233.074 291.565 233.321C291.128 234.252 290.389 234.893 289.552 235.435C289.068 235.748 288.687 236.084 288.657 236.73C288.643 237.027 288.499 237.358 288.315 237.598C287.413 238.769 287.416 240.171 287.212 241.535C286.973 243.127 286.559 244.685 285.835 246.132C285.472 246.859 285.279 247.585 285.292 248.401C285.311 249.54 285.343 250.668 284.978 251.801C284.682 252.715 284.707 253.729 284.538 254.689C284.357 255.721 284.114 256.744 283.902 257.771C283.863 257.961 283.776 258.17 283.818 258.344C284.282 260.282 283.372 262.056 283.173 263.913C283.118 264.422 283.02 264.929 283.004 265.439C282.977 266.348 282.99 267.258 282.997 268.168C283.011 270.062 282.675 271.903 282.313 273.755C282.139 274.65 281.908 275.567 282.151 276.549C282.344 277.335 282.171 278.206 282.244 279.03C282.371 280.441 282.477 281.864 282.747 283.252C283.244 285.812 283.844 288.351 284.422 290.894C284.535 291.392 284.669 291.91 284.921 292.344C285.612 293.537 285.331 294.757 285.202 296.013C284.243 296.165 283.786 295.543 283.311 294.974C282.884 294.462 282.432 293.96 282.085 293.396C281.806 292.941 281.609 292.413 281.481 291.892C281.304 291.176 281.196 290.439 281.114 289.705C280.957 288.303 280.848 286.896 280.702 285.492C280.531 283.854 280.344 282.217 280.159 280.581C280.116 280.19 280.018 279.8 280.01 279.407C279.973 277.475 279.478 275.601 279.299 273.691C279.13 271.895 279.048 270.108 279.455 268.282C279.776 266.843 280.049 265.391 280.473 263.977C280.811 262.849 281.221 261.741 281.546 260.609C281.674 260.164 281.671 259.679 281.71 259.21C282.029 255.354 282.24 251.492 282.853 247.663C283.134 245.91 283.288 244.129 283.359 242.356C283.404 241.243 283.698 240.267 284.275 239.354C284.636 238.783 284.849 238.204 284.972 237.514C285.166 236.415 285.79 235.45 286.768 234.836C287.507 234.373 287.953 233.717 288.403 233.007C289.354 231.507 290.279 229.974 291.393 228.599C292.302 227.475 293.341 226.343 294.559 225.608C295.773 224.877 296.802 223.898 298.069 223.255C298.716 222.928 299.322 222.821 299.995 223.058C300.106 223.097 300.219 223.197 300.323 223.186C301.833 223.033 303.147 223.736 304.52 224.159C305.107 224.339 305.69 224.643 306.176 225.02C307.616 226.136 308.754 227.544 309.806 229.022C310.032 229.341 310.308 229.626 310.541 229.942C310.911 230.448 311.366 230.923 311.606 231.488C312.355 233.25 313.028 235.046 313.718 236.833C314.517 238.903 314.963 241.031 314.809 243.266C314.762 243.954 314.802 244.648 314.802 245.558L314.808 245.55ZM325.246 229.761C325.755 229.366 325.557 229.051 325.266 228.654C324.848 228.996 324.792 229.294 325.246 229.761Z" fill="#8DC0FF"/>
<path d="M294.332 355.083C294.75 355.044 294.979 355.01 295.208 355.005C295.717 354.995 296.227 355.003 296.889 355.003V358.399C297.724 358.454 298.412 358.5 299.159 358.549V360.309C298.422 360.356 297.734 360.401 296.934 360.452C296.934 361.731 296.934 362.947 296.934 364.164C296.934 364.994 296.92 365.825 296.939 366.655C296.966 367.829 297.154 368.007 298.345 368.054C298.579 368.063 298.814 368.055 299.137 368.055V369.844C298.073 370.214 297.016 370.148 295.974 369.884C295.183 369.685 294.653 369.164 294.535 368.33C294.446 367.707 294.381 367.074 294.374 366.445C294.354 364.475 294.367 362.505 294.367 360.452C293.737 360.452 293.202 360.436 292.668 360.458C292.323 360.473 291.98 360.577 291.634 360.582C290.099 360.604 289.086 361.298 288.635 362.78C288.454 363.373 288.392 364.02 288.38 364.645C288.346 366.34 288.368 368.037 288.368 369.778C287.514 370.064 286.719 369.945 285.861 369.868V358.585H288.122C288.156 359.054 288.193 359.551 288.238 360.183C288.473 359.945 288.65 359.774 288.819 359.595C289.892 358.449 291.094 357.813 292.728 358.394C293.173 358.551 293.723 358.417 294.33 358.417V355.083H294.332Z" fill="#8DC0FF"/>
<path d="M260 358.529H262.255C262.296 358.924 262.333 359.269 262.373 359.658C262.503 359.607 262.626 359.591 262.699 359.522C264.886 357.421 268.532 357.794 270.245 360.299C271.722 362.459 271.674 366.26 270.143 368.387C268.662 370.443 265.519 370.906 263.363 369.382C263.138 369.223 262.939 369.03 262.647 368.786C262.351 369.702 262.53 370.593 262.498 371.462C262.466 372.322 262.491 373.182 262.491 374.117H260V358.53V358.529ZM268.856 364.217C268.749 363.025 268.515 361.922 267.657 361.044C266.365 359.723 264.044 359.86 263.125 361.408C262.111 363.118 262.083 364.954 262.997 366.722C263.598 367.885 264.654 368.368 265.966 368.242C267.205 368.123 268.001 367.397 268.411 366.286C268.652 365.631 268.714 364.91 268.855 364.218L268.856 364.217Z" fill="#8DC0FF"/>
<path d="M275.634 361.94H273.331C273.34 360.531 273.939 359.499 275.1 358.916C277.154 357.884 279.3 357.858 281.395 358.803C282.587 359.341 283.119 360.377 283.119 361.682C283.119 363.383 283.116 365.083 283.124 366.784C283.126 367.21 283.165 367.637 283.189 368.107C283.592 368.205 283.921 368.286 284.271 368.372V369.885C282.477 370.574 281.643 370.381 280.673 369.045C279.659 369.742 278.534 370.204 277.292 370.226C276.591 370.239 275.86 370.189 275.19 369.999C273.619 369.553 272.835 368.425 272.852 366.84C272.87 365.207 273.626 364.169 275.244 363.733C276.155 363.487 277.105 363.387 278.04 363.227C278.585 363.133 279.138 363.077 279.675 362.948C280.258 362.808 280.663 362.456 280.706 361.807C280.747 361.203 280.417 360.7 279.797 360.414C278.186 359.673 276.559 360.265 275.634 361.941V361.94ZM280.558 364.426C279.695 364.548 278.994 364.629 278.301 364.752C277.722 364.855 277.135 364.958 276.581 365.148C275.748 365.433 275.314 366.096 275.38 366.834C275.438 367.488 275.971 368.056 276.832 368.16C277.482 368.24 278.181 368.233 278.81 368.074C280.052 367.761 280.537 367.038 280.557 365.757C280.564 365.329 280.557 364.901 280.557 364.424L280.558 364.426Z" fill="#8DC0FF"/>
<path d="M299.812 358.527H302.56C303.535 361.288 304.504 364.028 305.471 366.769C305.543 366.765 305.614 366.76 305.685 366.757C306.614 364.044 307.541 361.332 308.49 358.559H311.015C310.964 358.813 310.947 359.047 310.87 359.258C309.435 363.15 307.992 367.04 306.551 370.93C306.482 371.115 306.401 371.296 306.324 371.477C305.151 374.246 304.063 374.84 300.955 374.336V372.341C301.153 372.341 301.344 372.326 301.533 372.343C303.316 372.502 304.498 370.982 303.87 369.278C302.927 366.721 301.94 364.179 300.975 361.63C300.6 360.64 300.231 359.647 299.812 358.529V358.527Z" fill="#8DC0FF"/>
<path d="M647.37 124.212C647.314 123.513 647.238 122.928 646.557 122.406C644.167 120.578 641.411 119.786 638.544 119.266C637.31 119.042 636.063 118.861 634.815 118.773C633.755 118.698 632.631 118.514 631.665 119.349C631.775 119.895 632.071 120.261 632.421 120.569C632.836 120.934 633.147 121.223 633.501 121.446C634.093 121.817 634.982 122.333 636.177 122.886C637.966 123.125 639.756 123.366 641.546 123.605C642.97 123.782 644.11 123.788 644.889 123.762C645.965 123.725 646.843 123.607 647.944 124.007C648.473 124.2 648.874 124.446 649.124 124.62C642.467 124.51 637.356 123.794 634.73 122.968C634.73 122.968 632.822 121.759 630.654 120.156C630.402 119.969 630.193 119.442 630.271 119.158C630.352 118.86 630.772 118.591 631.102 118.448C631.451 118.297 631.868 118.272 632.257 118.257C637.275 118.046 642.149 118.521 646.523 121.35C647.591 122.041 648.718 122.553 650.076 122.443C650.282 122.177 650.521 121.956 650.653 121.684C653.148 116.573 655.632 111.457 658.11 106.336C658.127 106.299 658.032 106.206 657.936 106.059C657.363 106.705 656.821 107.35 656.242 107.962C655.322 108.934 654.243 109.134 653.075 108.454C652.262 107.982 651.518 107.386 650.764 106.818C649.594 105.939 649.458 104.544 650.201 103.198C650.541 102.584 651.028 102.047 651.489 101.512C652.104 100.798 652.76 100.119 653.527 99.285C653.08 98.959 652.738 98.6924 652.379 98.452C651.666 97.9736 650.848 97.6094 650.241 97.0228C648.375 95.2187 648.201 94.4725 648.757 91.9365C648.958 91.0214 649.309 90.687 650.208 90.7489C652.089 90.8798 653.969 91.0321 655.843 91.2439C656.863 91.3594 656.858 91.4415 658.433 90.806C658.211 90.1634 658.043 89.485 657.749 88.8674C657.317 87.9606 657.321 87.0407 657.428 86.0803C657.517 85.2878 657.908 84.7665 658.622 84.4607C659.438 84.1108 660.286 83.9466 661.155 84.1584C662.679 84.5285 664.201 84.9081 665.476 85.9185C666.093 86.4076 666.729 86.8788 667.387 87.3085C668.77 88.2141 669.705 89.3958 669.994 91.0856C670.111 91.7675 670.431 92.4149 670.702 93.2063C671.161 93.0337 671.517 92.9278 671.849 92.7684C672.535 92.4411 673.232 92.4399 673.905 92.7267C675.932 93.5931 677.928 94.5118 679.698 95.8767C680.665 96.6217 681.162 97.5023 680.953 98.7317C680.769 99.8194 680.591 100.908 680.374 101.99C680.231 102.7 679.738 103.103 679.038 103.098C678.101 103.091 677.162 103.016 676.231 102.918C674.918 102.78 673.622 102.43 672.162 102.509C671.912 103.223 671.667 103.87 671.459 104.53C671.054 105.81 670.725 107.118 670.26 108.375C669.932 109.258 669.486 110.111 668.987 110.911C668.458 111.759 667.815 111.817 667.01 111.14C665.491 109.86 664.161 108.413 663.32 106.568C662.83 105.491 662.333 104.418 661.742 103.129C657.876 108.803 655.047 114.833 652.182 120.985C652.521 121.252 653.067 121.641 653.799 121.986C655.331 122.709 656.685 122.767 657.054 122.793C661.044 123.075 668.288 127.885 668.15 128.164C668.124 128.215 667.825 128.155 666.568 127.629C661.947 124.698 657.948 123.375 656.224 123.469C655.246 123.523 654.224 123.709 654.224 123.709C653.174 123.901 652.303 124.164 651.653 124.395C651.475 124.997 651.824 125.255 652.156 125.403C652.648 125.621 653.199 125.888 653.706 125.854C656.993 125.629 660.045 126.75 663.234 127.438C663.886 126.786 664.652 126.566 665.53 127.093C665.868 127.295 666.219 127.625 666.568 127.631C668.192 127.657 668.998 128.842 669.915 129.888C670.383 130.422 670.883 130.934 671.301 131.505C671.749 132.119 671.854 132.8 671.28 133.622C670.861 133.273 670.424 132.979 670.074 132.601C668.465 130.856 666.28 130.121 664.22 129.171C664.018 129.078 663.758 129.105 663.524 129.098C661.763 129.047 660.129 128.586 658.629 127.635C657.673 127.03 656.706 126.831 655.508 127.042C654.052 127.296 652.542 127.033 651.24 126.142C650.992 125.972 650.712 125.851 650.508 125.741C649.686 125.976 649.517 126.637 649.279 127.201C647.983 130.261 646.655 133.309 645.446 136.405C642.712 143.408 640.057 150.441 637.331 157.447C636.885 158.591 636.733 159.693 636.915 160.911C637.244 163.103 637.464 165.312 637.75 167.693C638.187 167.799 638.69 168.017 639.2 168.032C643.352 168.157 647.511 167.955 651.662 168.278C653.13 168.392 654.615 168.295 656.117 168.295C656.298 169.093 656.312 169.841 656.641 170.402C656.987 170.991 657.6 171.442 658.156 171.88C659.17 172.68 659.652 173.654 659.464 174.974C659.343 175.814 659.046 176.558 658.274 176.904C656.581 177.663 655.929 179.187 655.409 180.772C653.289 187.233 650.957 193.624 649.201 200.203C648.612 202.407 648.078 204.626 647.487 206.962C647.06 206.91 646.729 206.762 646.489 206.855C643.693 207.948 640.654 207.899 637.806 208.771C635.896 209.355 633.939 209.183 631.983 208.815C629.678 208.382 627.332 208.221 624.994 208.286C624.187 208.308 623.38 208.807 622.599 209.15C622.251 209.303 621.993 209.658 621.65 209.833C620.867 210.233 620.03 209.896 619.811 209.035C619.631 208.328 619.409 207.772 618.806 207.255C618.002 206.565 618.195 205.615 619.065 204.906C619.233 204.768 619.397 204.623 619.64 204.417C618.007 201.992 617.852 199.227 617.702 196.463C617.655 195.59 617.64 194.732 618.007 193.896C618.345 193.122 618.199 192.368 617.784 191.629C616.277 188.946 616.155 186.07 616.693 183.117C616.82 182.414 616.932 181.729 616.6 181.081H615.912C615.718 179.765 615.822 178.617 616.419 177.381C617.029 176.119 617.571 174.801 618.122 173.5C618.614 172.336 619.332 171.49 620.461 170.966C623.472 169.569 626.55 168.416 629.911 168.263C630.381 168.242 630.85 168.174 631.315 168.105C631.996 168.003 632.47 167.602 632.709 166.965C633.65 164.445 634.607 161.929 635.475 159.382C635.668 158.819 635.623 158.121 635.513 157.517C633.88 148.534 631.542 139.756 628.253 131.225C625.479 124.031 622.074 117.177 618.06 110.627C616.411 107.937 614.609 105.339 612.819 102.74C612.387 102.114 611.724 101.65 611.206 101.147C610.342 101.479 609.63 101.748 608.923 102.032C608.875 102.051 608.863 102.165 608.796 102.327C609.113 102.6 609.454 102.894 609.847 103.234C609.716 103.395 609.612 103.652 609.448 103.702C608.398 104.021 607.335 104.294 606.32 104.57C604.843 104.195 603.855 103.201 603.029 102.149C602.079 102.259 601.75 102.855 601.467 103.538C600.931 104.84 600.09 105.84 598.862 106.153C597.401 105.84 596.12 105.565 594.715 105.263C593.859 103.384 594.298 101.483 594.935 99.5921C595.311 98.4746 595.836 97.3881 595.43 95.9827C595.107 95.9743 594.75 95.9624 594.392 95.9565C591.362 95.9029 588.464 95.4352 586.092 93.292C585.448 92.71 584.775 92.1614 584.142 91.5676C582.246 89.7849 582.779 86.8955 585.234 86.0839C586.637 85.621 588.103 85.3627 589.639 85.6948C591.031 85.9946 592.383 86.3481 593.669 86.9633C594.661 87.4394 595.627 87.4191 596.604 86.7134C596.604 85.6198 596.595 84.5214 596.614 83.423C596.617 83.2921 596.764 83.1624 596.844 83.0326C599.053 82.8303 603.637 83.5979 605.581 84.5226V88.7734C607.483 89.3291 609.509 89.2851 611.352 90.3657C611.69 91.3641 611.456 92.2733 610.623 93.0456C609.934 93.6847 609.161 94.2619 608.921 95.4936C610.617 97.7689 612.47 100.12 614.174 102.578C615.925 105.104 617.576 107.705 619.186 110.324C620.742 112.854 622.19 115.452 623.65 117.962C624.254 117.873 624.207 117.5 624.269 117.215C624.611 115.671 624.885 114.108 625.295 112.581C625.664 111.208 626.118 109.851 626.644 108.53C627.61 106.105 629.204 104.2 631.451 102.847C633.954 101.34 635.939 100.225 639.41 99.7634C639.456 100.116 639.601 100.488 639.532 100.815C639.111 102.825 638.641 104.823 638.19 106.828C637.888 108.167 637.287 109.333 636.38 110.374C634.67 112.337 633.007 114.344 631.345 116.35C630.641 117.201 629.964 118.077 629.318 118.973C628.392 120.257 627.485 121.552 625.964 122.379C626.464 124.375 627.446 126.09 628.106 127.921C628.748 129.708 629.496 131.458 630.126 133.25C630.78 135.115 631.364 137.006 631.951 138.893C632.539 140.782 633.133 142.669 633.652 144.578C634.15 146.409 634.577 148.261 634.991 150.114C635.421 152.042 635.799 153.983 636.258 156.202C636.638 155.763 636.944 155.549 637.056 155.259C638.931 150.384 640.725 145.478 642.652 140.626C644.607 135.703 646.688 130.829 648.708 125.931C648.766 125.792 648.75 125.622 648.775 125.418C648.757 125.333 648.589 124.567 647.928 124.302C647.714 124.216 647.511 124.209 647.366 124.22L647.37 124.212ZM671.46 100.112C671.754 100.219 672.062 100.298 672.34 100.437C674.054 101.289 675.956 101.39 677.777 101.792C679.038 102.071 679.607 101.55 679.986 100.28C680.344 99.0756 680.048 98.1057 679.114 97.3203C678.637 96.918 678.159 96.4932 677.619 96.1933C676.457 95.5483 675.248 94.9902 674.07 94.3737C672.952 93.7882 671.999 93.9334 671.187 94.9069C671.665 95.9247 671.844 96.9748 671.726 98.0569C671.65 98.7566 671.578 99.4564 671.505 100.156C670.749 100.155 670.508 100.856 670.069 101.264C669.039 102.22 667.913 102.805 666.463 102.677C665.463 102.589 664.468 102.723 663.395 102.888C663.589 104.637 664.199 106.099 665.211 107.301C665.987 108.223 666.607 109.436 667.919 109.711C668.798 109.328 669.067 108.557 669.375 107.838C670.434 105.364 671.358 102.849 671.46 100.111V100.112ZM618.115 181.005C618.043 182.669 618.282 184.206 618.832 185.615C618.944 185.903 619.028 186.22 619.041 186.527C619.122 188.471 620.02 190.383 619.284 192.366C619.207 192.572 619.279 192.837 619.291 193.073C619.469 196.71 620.073 200.289 620.742 203.859C620.865 204.518 621.104 205.142 621.808 205.274C622.846 205.469 623.328 206.261 623.836 207.123C625.124 206.779 626.345 206.936 627.58 207.093C628.582 207.221 629.615 207.219 630.625 207.148C632.575 207.011 634.521 206.803 636.465 206.585C637.472 206.472 638.532 206.437 639.46 206.079C641.319 205.363 643.258 205.156 645.185 204.837C645.631 204.763 646.078 204.704 646.533 204.637C646.658 204.23 646.774 203.938 646.837 203.635C647.365 201.164 647.869 198.689 648.42 196.225C648.504 195.849 648.516 195.214 649.326 195.452C649.265 195.941 649.206 196.408 649.147 196.874C649.607 196.411 649.761 195.904 649.921 195.399C651.525 190.355 653.129 185.312 654.736 180.268C654.897 179.76 655.212 179.247 654.72 178.826C652.115 179.574 649.556 180.301 647.001 181.043C644.745 181.7 642.469 182.301 640.246 183.062C637.382 184.041 634.452 184.399 631.466 184.204C627.456 183.942 623.57 183.063 619.843 181.512C619.351 181.307 618.818 181.206 618.114 181.003L618.115 181.005ZM657.505 173.175C656.239 172.251 655.12 171.399 653.958 170.61C653.654 170.403 653.22 170.329 652.84 170.307C650.571 170.176 648.301 170.051 646.031 169.981C644.309 169.927 642.578 170.141 640.872 169.7C639.938 169.458 639.022 169.658 638.14 169.882C638.015 170.717 638.088 171.511 638.36 172.263C639.047 172.574 639.729 173.016 640.474 173.194C642.193 173.602 643.901 174.278 645.705 173.289C646.51 172.849 647.495 172.722 648.415 172.537C648.651 172.489 649.037 172.683 649.2 172.889C649.491 173.26 649.293 173.659 648.953 173.905C648.385 174.319 647.821 174.782 647.183 175.048C645.663 175.683 644.114 176.259 642.549 176.775C641.185 177.224 641.142 177.151 640.799 175.549C640.771 175.414 640.619 175.307 640.397 175.026C638.108 175.03 635.701 175.204 633.291 175.36C632.087 175.437 631.275 175.986 631.04 177.202C630.092 177.202 629.232 177.235 628.376 177.192C627.63 177.155 627.217 176.732 627.109 176.026C626.972 175.135 627.227 174.502 627.923 174.261C628.578 174.035 629.268 173.911 629.813 173.776C630.239 172.494 630.619 171.348 631.014 170.157C630.681 170.059 630.468 169.945 630.253 169.941C626.868 169.897 623.788 171.05 620.76 172.412C619.53 172.965 618.831 173.933 618.417 175.211C617.702 177.416 618.534 179.399 620.643 180.176C625.641 182.019 630.777 182.947 636.113 182.419C637.049 182.326 637.997 182.227 638.9 181.986C643.528 180.747 648.159 179.516 652.757 178.169C655.802 177.277 655.777 177.191 657.021 174.335C657.145 174.052 657.259 173.764 657.505 173.173V173.175ZM585.224 90.1289C585.707 90.8167 586.233 91.3439 586.491 91.9817C586.881 92.9469 587.604 93.4395 588.431 93.9417C589.764 94.7522 591.197 94.9937 592.71 94.9795C594.181 94.9664 596.008 93.6585 596.343 92.1912C596.66 90.8 597.515 89.9872 598.741 89.5088C600.567 88.7948 602.436 88.2736 604.374 88.8543C605.054 87.8547 605.18 86.8872 604.932 86.047C603.763 84.6273 602.368 84.2262 600.829 84.0953C600.056 84.0299 599.295 83.8145 598.528 83.6705C598.059 83.5824 597.572 83.4968 597.243 83.9621C596.929 84.4048 597.058 84.8724 597.283 85.3092C597.644 86.0089 598.054 86.6849 598.383 87.3989C598.529 87.7154 598.528 88.0998 598.63 88.6425C597.901 88.552 597.325 88.6008 596.854 88.3985C595.602 87.8642 594.271 87.7262 592.966 87.6619C591.624 87.5964 590.309 87.4477 589.051 87.0407C587.277 86.4671 585.828 87.3132 584.353 87.9951C583.911 88.1998 583.837 88.7674 584.402 89.1459C584.793 88.8638 585.184 88.5842 585.865 88.0939C585.592 88.9626 585.433 89.4684 585.225 90.1289H585.224ZM625.017 120.331C626.533 119.72 627.623 118.652 628.571 117.37C629.555 116.04 630.576 114.735 631.624 113.455C633.219 111.502 634.874 109.598 636.46 107.637C637.46 106.399 637.872 104.694 637.762 102.742C637.545 102.742 637.319 102.708 637.105 102.747C634.889 103.156 633.044 104.374 631.175 105.537C629.383 106.654 628.077 108.207 627.256 110.152C625.957 113.232 625.316 116.485 624.874 119.783C624.855 119.922 624.947 120.074 625.018 120.33L625.017 120.331ZM649.47 91.9401C649.193 94.269 650.082 95.7387 651.683 96.805C652.395 97.2786 653.248 97.5297 654.008 97.9379C654.664 98.2901 655.786 98.139 655.883 99.0899C655.998 100.207 654.737 100.184 654.122 100.714C653.057 101.634 652.008 102.578 651.014 103.573C650.587 104 650.591 104.601 651.014 105.085C651.734 105.914 652.429 106.779 653.241 107.508C654 108.188 654.822 108.102 655.514 107.352C656.575 106.2 657.578 104.992 658.754 103.638C656.598 102.222 656.31 100.154 656.395 97.9474C656.41 97.5523 656.422 97.156 656.434 96.7609C656.475 95.3995 656.955 94.3059 658.236 93.6728C658.333 93.6252 658.346 93.4038 658.429 93.1765C655.606 92.1103 652.681 91.9651 649.469 91.9413L649.47 91.9401ZM657.154 97.851C657.177 98.2437 657.167 98.6424 657.228 99.0292C657.362 99.8967 657.588 100.726 658.388 101.251C659.151 101.752 659.926 101.877 660.822 101.582C662.452 101.045 664.149 100.99 665.852 101.025C666.315 101.034 666.785 100.948 667.243 100.857C668.8 100.549 669.892 99.5778 670.728 98.2794C671.141 97.6392 670.994 97.0358 670.326 96.6991C669.771 96.4206 669.188 96.1695 668.588 96.0172C665.533 95.2353 662.416 95.2258 659.299 95.3829C657.793 95.459 657.087 96.3492 657.154 97.8522V97.851ZM669.592 94.4749C669.479 92.4911 669.21 90.8798 668.042 89.7349C666.178 87.9082 664.075 86.3588 661.526 85.615C660.877 85.4246 660.135 85.3949 659.461 85.4853C658.491 85.615 658.151 86.2303 658.459 87.2002C659.099 89.2173 659.892 91.1939 659.715 93.3015C661.365 94.0286 662.952 93.4883 664.485 93.6918C666.098 93.906 667.702 94.1821 669.592 94.4761V94.4749ZM602.971 98.0997C604.746 95.2234 604.782 94.92 604.569 92.1971C604.488 91.1511 604.035 90.4276 603.241 89.8052C601.524 89.4148 600.085 90.3621 598.555 90.8643C598.349 90.9321 598.177 91.1392 598.013 91.3058C597.12 92.2174 597.026 93.2848 597.165 94.532C597.439 96.9871 599.142 98.5793 601.537 98.3687C601.999 98.3282 602.454 98.1997 602.971 98.0997ZM595.306 103.52C595.99 104.226 596.908 104.44 597.848 104.522C598.667 104.594 599.409 104.34 599.903 103.619C600.646 102.535 601.369 101.437 602.176 100.232C601.125 99.88 600.182 99.6956 599.375 99.2553C598.52 98.7888 597.797 98.0783 597.009 97.469C595.72 99.5802 595.139 101.667 595.306 103.519V103.52ZM610.1 91.8163C609.937 90.6644 608.944 90.5073 608.205 90.2169C607.292 89.8587 606.28 89.5707 605.145 90.13C605.264 91.3701 605.379 92.5851 605.505 93.8989C607.186 93.2694 609.033 93.4062 610.101 91.8151L610.1 91.8163ZM636.027 161.856C634.964 163.377 633.912 166.289 633.816 167.984C634.821 168.228 635.769 168.205 636.726 167.493C636.619 165.588 636.616 163.715 636.027 161.856ZM607.78 101.111C607.371 99.9062 606.772 98.909 606.053 97.9962C605.534 97.3381 604.394 97.5511 604.166 98.3354C604.016 98.8483 603.92 99.4147 603.969 99.9407C604.064 100.99 604.839 101.565 605.701 101.961C606.52 102.339 607.201 102.055 607.78 101.111ZM636.807 172.515C636.428 171.825 636.224 171.418 635.99 171.03C635.376 170.017 634.403 169.888 633.363 170.009C632.842 170.07 632.591 170.488 632.448 170.949C632.328 171.34 632.391 171.673 632.727 171.988C633.154 172.389 633.507 172.871 634.004 173.45C634.785 173.189 635.646 172.902 636.807 172.517V172.515ZM658.191 175.576C658.164 175.511 658.152 175.411 658.105 175.391C658.048 175.366 657.964 175.407 657.89 175.42C657.933 175.513 657.975 175.605 658.018 175.696C658.076 175.656 658.133 175.615 658.191 175.576Z" fill="#8DC0FF"/>
<path d="M707.3 344.13C706.265 345.096 705.014 345.635 703.563 345.795C699.952 346.193 696.357 346.755 692.738 347.026C690.145 347.22 687.524 347.075 684.917 347.021C684.319 347.01 683.725 346.754 683.033 346.588C682.215 348.143 681.857 349.859 681.715 351.564C681.551 353.522 681.627 355.511 681.739 357.478C681.819 358.905 682.368 360.242 682.982 361.539C683.613 362.872 684.411 363.956 685.989 364.309C686.824 364.495 687.615 364.913 688.399 365.282C689.686 365.887 690.922 366.611 692.236 367.147C693.464 367.648 694.767 367.971 696.104 368.393C696.16 368.691 696.265 368.994 696.267 369.296C696.28 377.335 695.764 385.375 696.479 393.571C695.862 393.583 695.414 393.626 694.972 393.595C693.478 393.492 691.986 393.284 690.492 393.268C689.339 393.254 688.397 393.79 687.8 394.994C689.735 395.808 691.708 395.963 693.647 396.219C695.128 396.415 696.625 396.33 698.121 396.269C700.886 396.159 703.655 396.163 706.423 396.116C707.197 396.103 708 396.176 708.794 395.465C708.382 395.228 708.091 394.945 707.763 394.892C705.895 394.585 704.022 394.29 702.14 394.077C700.802 393.926 699.489 393.733 698.296 393.304C697.689 392.013 698.226 390.85 698.237 389.685C698.248 388.606 698.15 387.526 698.252 386.44C698.772 388.313 698.305 390.267 698.739 392.212C699.984 392.804 701.307 392.936 702.643 393.027C705.494 393.219 708.293 393.676 710.954 394.775C711.245 394.895 711.578 394.986 711.793 395.193C711.994 395.388 712.193 395.738 712.154 395.983C712.117 396.219 711.804 396.543 711.564 396.593C710.717 396.769 709.852 396.891 708.989 396.947C704.027 397.268 699.058 397.738 694.089 397.461C691.825 397.335 689.59 396.669 687.346 396.229C686.388 396.041 685.827 395.095 686.806 394.042C688.015 392.742 689.419 391.723 691.366 391.972C691.914 392.042 692.465 392.081 693.013 392.142C693.866 392.237 694.718 392.363 695.505 392.179C695.643 391.952 695.793 391.82 695.793 391.687C695.804 384.423 695.802 377.159 695.802 370.04C695.561 369.794 695.473 369.62 695.349 369.589C693.032 369.002 690.9 367.987 688.784 366.902C687.663 366.327 686.462 365.901 685.278 365.458C684.349 365.111 683.613 364.577 683.129 363.7C681.888 361.459 680.95 359.136 681.032 356.507C681.064 355.48 681.099 354.446 681.029 353.422C680.849 350.837 681.545 348.405 682.263 345.978C682.644 344.687 682.84 344.558 684.291 344.535C686.026 344.508 687.762 344.593 689.495 344.549C690.596 344.522 691.725 344.477 692.784 344.212C694.666 343.743 696.54 343.704 698.433 343.955C699.54 344.102 700.611 344.086 701.719 343.856C702.948 343.6 704.22 343.562 705.472 343.408C706.399 343.294 707.322 343.148 708.355 343C709.109 344.817 709.442 346.664 709.496 348.538C709.578 351.462 709.556 354.389 709.535 357.316C709.521 359.309 709.101 361.238 708.389 363.097C707.953 364.234 707.188 365.098 706.193 365.823C704.568 367.003 702.678 367.611 700.896 368.448C700.467 368.648 700.004 368.78 699.59 369.006C699.005 369.325 698.64 369.85 698.574 370.515C698.52 371.048 698.563 371.592 698.563 372.246C697.748 371.695 698.34 371.111 698.274 370.602C698.195 369.983 698.255 369.347 698.255 368.572C699.762 367.954 701.294 367.35 702.803 366.694C703.669 366.318 704.517 365.889 705.342 365.43C706.796 364.619 707.702 363.363 708.183 361.782C708.806 359.733 709.23 357.653 709.217 355.497C709.206 353.678 709.3 351.853 709.189 350.04C709.09 348.393 708.806 346.754 708.542 345.122C708.446 344.523 707.96 344.216 707.304 344.127L707.3 344.13ZM697.107 345.511C693.582 344.818 690.575 344.976 687.585 345.629C687.023 345.751 686.316 345.774 685.984 346.612C687.648 347.093 689.291 346.934 690.869 346.733C692.782 346.49 694.777 346.547 697.107 345.512V345.511Z" fill="#8DC0FF"/>
<path d="M698.366 388.17C698.162 387.199 697.909 385.778 697.773 384.044C697.665 382.662 697.656 381.4 697.812 378.162C697.896 376.409 698.026 374.13 698.234 371.449L698.556 371.779C698.341 374.252 698.207 376.385 698.119 378.082C697.95 381.343 697.965 382.776 698.113 384.349C698.222 385.515 698.378 386.475 698.499 387.131L698.366 388.169V388.17Z" fill="#8DC0FF"/>
</svg>
