<svg width="23" height="40" viewBox="0 0 23 40" fill="none" xmlns="http://www.w3.org/2000/svg">
<path d="M13.6263 39.9115C11.1195 40.2332 8.26573 39.6853 5.43043 38.9513C4.82047 38.7938 4.38645 37.6208 4.75008 37.1499C5.2042 36.5634 5.76557 36.1043 6.4325 35.7943C6.69056 35.6736 6.99387 35.5999 7.27706 35.6016C8.44168 35.6066 9.60627 35.6251 10.7675 35.6938C11.044 35.7105 11.2703 36.0323 11.2066 36.2752C11.1278 36.5802 10.8279 36.7092 10.5179 36.7092C9.64486 36.7075 8.77012 36.6791 7.89875 36.7109C7.62728 36.7209 7.35246 36.8668 7.0944 36.9841C6.79445 37.1215 6.68388 37.3912 6.79113 37.7197C6.82464 37.8252 6.9453 37.9526 7.05087 37.9794C9.03659 38.5106 11.0524 38.7536 13.1052 38.5491C14.6938 38.3899 16.3092 38.5642 17.8726 38.147C17.943 38.1286 18.0384 37.9509 18.015 37.8856C17.9714 37.7632 17.8591 37.5923 17.7569 37.5773C16.7481 37.4415 15.731 37.3627 14.7256 37.2069C14.1475 37.1164 13.623 36.8449 13.2828 36.3339C13.2158 36.2333 13.1756 36.0423 13.2292 35.9551C13.2929 35.8496 13.4839 35.7323 13.5911 35.7557C14.4407 35.9417 15.2736 36.2132 16.1282 36.3523C16.8437 36.4679 17.5827 36.426 18.31 36.4746C19.7829 36.5735 21.152 37.0259 22.4423 37.7314C22.7389 37.894 22.8059 38.1487 22.7925 38.4788C22.7808 38.7821 22.6751 38.9916 22.3232 39.0804C22.0434 39.1524 21.7619 39.2379 21.477 39.263C19.8818 39.4071 18.2832 39.5378 16.6862 39.6702C15.8148 39.7423 14.9434 39.8076 13.6263 39.9098V39.9115Z" fill="#8DC0FF"/>
<path d="M14.6102 0.497266C16.487 0.30791 17.9415 0.175501 19.3927 0.00793027C19.9071 -0.0507196 20.1987 0.224107 20.4886 0.5626C20.6997 0.810605 20.7953 1.08208 20.6629 1.36359C20.631 1.43062 20.3881 1.44739 20.2641 1.4122C19.8116 1.28317 19.3793 1.37699 18.9872 1.56299C17.9114 2.07409 16.7886 2.32547 15.6006 2.34558C14.4292 2.36401 13.273 2.51315 12.1251 2.76786C11.2638 2.95722 10.3841 2.93039 9.50598 2.87677C9.0904 2.85163 8.92951 2.74774 9.10714 2.50476C9.17584 2.40925 9.3669 2.38577 9.50766 2.36231C9.82102 2.30869 10.0556 2.16458 10.2081 1.90149C9.98355 1.73057 9.75398 1.56805 9.53949 1.3854C9.43727 1.29826 9.3183 1.18093 9.29484 1.06196C9.24122 0.792169 9.43391 0.626266 9.78917 0.550859C10.6555 0.366531 11.5302 0.379966 12.4083 0.41348C13.283 0.446994 14.1578 0.482186 14.6119 0.498943L14.6102 0.497266Z" fill="#8DC0FF"/>
<path d="M0.61273 12.6256C1.04841 12.6758 1.46569 12.7931 1.76899 13.1266C2.05889 13.4483 2.31358 13.8019 2.58169 14.1455C2.94532 14.6096 3.38771 14.9649 3.93064 15.2062C5.51587 15.9133 7.10948 16.6104 8.67459 17.3595C9.33482 17.6745 10.0101 17.9124 10.7139 18.08C11.0658 18.1638 11.2485 18.3314 11.2016 18.6916C11.1647 18.9665 10.9653 19.1625 10.6469 19.1676C9.91462 19.1776 9.18567 19.0452 8.53717 18.7202C6.85141 17.8789 5.13718 17.1081 3.40617 16.3658C2.71913 16.0708 2.24321 15.5279 1.88293 14.8794C1.464 14.122 1.03501 13.3713 0.609375 12.6172V12.6273L0.61273 12.6256Z" fill="#8DC0FF"/>
<path d="M0.633301 4.21853C1.20807 3.52479 1.06729 2.55958 1.53146 1.83064C1.6806 1.59772 1.88169 1.3296 2.12131 1.23408C2.93068 0.915695 3.7786 0.828563 4.64326 1.02965C5.06722 1.12852 5.59338 1.62957 5.46938 1.88595C5.35208 2.12558 5.1778 2.36518 4.96667 2.52437C4.74547 2.69194 4.46062 2.80087 4.18748 2.8679C3.49541 3.03882 2.74299 3.05895 2.11293 3.3522C1.61356 3.58512 1.18126 3.99564 0.638333 4.20008C0.638333 4.20343 0.633301 4.21853 0.633301 4.21853Z" fill="#8DC0FF"/>
<path d="M0.611398 12.6163C0.378474 9.82122 0.373468 7.02784 0.633204 4.22606C0.634879 4.21935 0.639913 4.20257 0.639913 4.19922C0.846025 7.00436 0.913028 9.81285 0.613075 12.623V12.6146L0.611398 12.6163Z" fill="#8DC0FF"/>
<path d="M18.7778 16.5984C18.446 16.8229 18.1058 17.034 17.7857 17.272C17.0049 17.8551 16.1284 18.1233 15.1582 18.0965L15.2638 18.2087C15.4079 17.9808 15.4984 17.6591 15.7062 17.5435C16.3128 17.2033 16.9579 16.9218 17.6048 16.6621C18.0002 16.5029 18.4225 16.5481 18.8264 16.7023L18.7778 16.5967V16.5984Z" fill="#8DC0FF"/>
<path d="M20.8845 12.8518L20.6851 12.8569L20.7805 12.582L20.8845 12.8518Z" fill="#8DC0FF"/>
<path d="M15.1582 18.0938C15.0878 18.3786 14.9185 18.5697 14.6588 18.6836C14.3605 18.8126 14.1293 18.7757 14.0103 18.5328C13.9801 18.4724 14.0321 18.3199 14.0941 18.2747C14.1963 18.201 14.3371 18.1473 14.4628 18.1457C14.7275 18.144 14.9923 18.1809 15.2621 18.2043C15.2654 18.2077 15.1598 18.0938 15.1598 18.0938H15.1582Z" fill="#8DC0FF"/>
<path d="M18.8265 16.6998C18.8567 16.1183 18.8868 15.5385 18.917 14.957L18.8684 15.0022C18.8315 15.5251 18.7929 16.0462 18.7661 16.5808C18.7778 16.5942 18.8265 16.6981 18.8265 16.6981V16.6998Z" fill="#8DC0FF"/>
<path d="M18.917 14.957C18.9924 15.0157 19.0678 15.0743 19.1432 15.1329C19.0561 15.0877 18.969 15.0441 18.8751 15.0006C18.8684 15.0022 18.917 14.957 18.917 14.957Z" fill="#8DC0FF"/>
<path d="M10.7733 18.503C11.1905 23.0894 11.2307 27.7094 11.0816 32.3109C11.0615 32.951 11.0364 33.5928 11.0062 34.2329C10.9761 34.873 10.9442 35.5216 10.8051 36.155L11.2995 36.222C11.3833 34.6334 11.4301 33.0448 11.4385 31.4546C11.4402 31.1312 10.9374 31.1312 10.9358 31.4546C10.9274 33.0448 10.8805 34.6334 10.7968 36.222C10.7817 36.5035 11.229 36.5655 11.291 36.289C11.5357 35.183 11.524 34.0234 11.5659 32.8974C11.6078 31.7713 11.6363 30.5564 11.6497 29.3851C11.6765 27.0558 11.6513 24.7249 11.5424 22.399C11.4821 21.0987 11.395 19.8 11.276 18.503C11.2475 18.183 10.7431 18.1796 10.7733 18.503Z" fill="#8DC0FF"/>
<path d="M9.91182 19.1519C10.2771 19.4184 10.743 19.7703 10.7463 20.268C10.7463 20.5529 11.1603 20.6081 11.2407 20.335C11.4183 19.7217 11.1418 19.0397 10.5872 18.7247C10.4146 18.6258 10.1314 18.795 10.2185 19.0079C10.3274 19.276 10.376 19.5592 10.4414 19.8407C10.5067 20.1222 10.5989 20.3769 10.7078 20.635C10.9055 21.1109 11.1853 21.637 11.1133 22.1682C11.0949 22.304 11.1452 22.4364 11.2893 22.4782C11.4066 22.5118 11.5808 22.4363 11.5992 22.3023C11.6813 21.689 11.4686 21.1494 11.234 20.5964C11.1184 20.325 11.0094 20.0518 10.9407 19.7636C10.872 19.4754 10.8217 19.1603 10.7044 18.8738L10.3358 19.157C10.6995 19.3631 10.8754 19.7988 10.7581 20.1993L11.2524 20.2663C11.249 19.5675 10.6877 19.095 10.1699 18.7163C10.0593 18.6358 9.89003 18.6979 9.82636 18.8068C9.75095 18.9325 9.80793 19.0715 9.91685 19.1503L9.91182 19.1519Z" fill="#8DC0FF"/>
<path d="M15.4124 17.7944C15.0404 17.9619 14.6684 18.1278 14.2948 18.2954C14.035 18.4127 14.2193 18.8417 14.4891 18.7545C14.9583 18.602 15.4292 18.4512 15.8984 18.2987L15.7644 17.8144C15.4342 17.9451 15.1041 18.0759 14.774 18.2049C14.4941 18.3155 14.1422 18.401 13.9126 18.6021C13.6831 18.8031 13.6345 19.1048 13.5741 19.3812C13.5038 19.7047 13.4502 20.0331 13.4049 20.3616C13.2173 21.7624 13.1854 23.1851 13.1066 24.5944C12.9458 27.4565 12.7866 30.3169 12.6258 33.1791C12.557 34.4124 12.4414 36.135 13.8122 36.7416C14.1054 36.8707 14.3618 36.4383 14.0652 36.3076C12.9357 35.8082 13.0631 34.3604 13.1184 33.3466C13.1938 31.9994 13.2692 30.6521 13.3446 29.3048C13.42 27.9575 13.4938 26.6371 13.5692 25.3032C13.6446 23.9694 13.6932 22.6673 13.8021 21.3536C13.8608 20.6397 13.9378 19.9125 14.1272 19.2221C14.164 19.0914 14.2026 18.9975 14.3266 18.9255C14.4807 18.8366 14.665 18.7847 14.8309 18.7193C15.1862 18.5786 15.5431 18.4378 15.8984 18.2987C16.1916 18.1831 16.0794 17.7122 15.7644 17.8144C15.2952 17.9669 14.8243 18.1177 14.3551 18.2702L14.5495 18.7294C14.9215 18.5618 15.2935 18.3959 15.6672 18.2283C15.9621 18.096 15.7056 17.662 15.4141 17.7944H15.4124Z" fill="#8DC0FF"/>
<path d="M18.4245 16.9407C18.9892 16.5637 19.1903 15.9386 19.4584 15.3488C19.7902 14.6148 20.2962 13.9764 20.5777 13.2156C20.8592 12.4548 20.9363 11.6438 20.9899 10.8445C21.0502 9.97145 21.1023 9.09838 21.1475 8.22366C21.2011 7.21489 21.2413 6.20446 21.2547 5.19568C21.258 4.87227 20.7553 4.87227 20.752 5.19568C20.7302 6.8848 20.6297 8.57056 20.5241 10.2546C20.4738 11.0456 20.4403 11.8449 20.2376 12.6157C20.0348 13.3865 19.6242 13.9764 19.2539 14.6416C19.0662 14.9785 18.9272 15.3354 18.768 15.6856C18.6272 15.9973 18.4613 16.3123 18.1698 16.5067C17.9016 16.686 18.153 17.1217 18.4228 16.9407H18.4245Z" fill="#8DC0FF"/>
<path d="M17.9933 17.1917C18.6184 16.3371 19.2133 15.4607 19.7763 14.5642C20.2891 13.7447 20.8337 12.9002 20.9124 11.9115L20.5941 12.1545C20.5304 12.131 20.5857 12.1662 20.5806 12.2148C20.5756 12.2718 20.5756 12.3271 20.5672 12.3824C20.5488 12.5165 20.5153 12.6488 20.4768 12.7779C20.398 13.0393 20.2824 13.2856 20.1467 13.5236C19.8685 14.0078 19.5149 14.4402 19.158 14.8658C18.9519 15.1121 19.3055 15.4707 19.5133 15.221C19.9825 14.6597 20.4617 14.0832 20.7683 13.4129C20.9728 12.9655 21.4001 11.9216 20.7264 11.6702C20.5622 11.6082 20.4198 11.764 20.4081 11.9132C20.3343 12.8499 19.7412 13.6777 19.2552 14.4486C18.719 15.2981 18.1525 16.1293 17.5576 16.9403C17.3666 17.2017 17.8024 17.4531 17.9917 17.1934L17.9933 17.1917Z" fill="#8DC0FF"/>
<path d="M20.2592 1.21334C20.6228 3.02814 20.7787 4.87643 20.7301 6.72642C20.7217 7.04983 21.2244 7.04983 21.2328 6.72642C21.283 4.83119 21.1155 2.93764 20.7435 1.07928C20.6798 0.76257 20.1955 0.896635 20.2592 1.21334Z" fill="#8DC0FF"/>
<path d="M9.64229 2.35615C7.48732 2.4081 5.33068 2.30591 3.18912 2.05288C2.86906 2.01434 2.87074 2.51873 3.18912 2.55559C5.33068 2.80863 7.48732 2.90914 9.64229 2.85887C9.9657 2.85049 9.9657 2.34777 9.64229 2.35615Z" fill="#8DC0FF"/>
<path d="M2.55356 2.31385C1.47608 3.08636 0.68012 4.18562 0.294707 5.45581L0.778969 5.58988C0.92308 5.03857 1.0672 4.48728 1.21132 3.93597L0.727012 3.80191C0.110351 7.07457 0.2109 10.4578 1.02697 13.6869L1.48611 13.4926C1.23476 12.9396 0.983401 12.3882 0.732044 11.8353C0.614745 11.5772 0.179062 11.7598 0.272901 12.0296C0.69518 13.2395 1.34535 14.3488 2.19494 15.3073C2.40943 15.5503 2.7647 15.1934 2.55021 14.9521C1.76095 14.0606 1.14932 13.0217 0.757205 11.8956L0.298062 12.09C0.549418 12.643 0.800775 13.1942 1.05213 13.7472C1.17278 14.0137 1.57998 13.821 1.51127 13.5529C0.716988 10.4143 0.611411 7.11647 1.21132 3.93429C1.26997 3.62094 0.809122 3.48352 0.727012 3.80023C0.582901 4.35154 0.438818 4.90283 0.294707 5.45413C0.212597 5.76749 0.68513 5.89653 0.778969 5.5882C1.12417 4.45039 1.83803 3.43995 2.8066 2.7462C3.06801 2.5602 2.81665 2.12282 2.55356 2.31218V2.31385Z" fill="#8DC0FF"/>
<path d="M2.4731 14.5483C1.80952 13.6585 1.38222 12.6263 1.22303 11.527C1.20292 11.393 1.03366 11.3193 0.913006 11.3511C0.768895 11.3913 0.718616 11.5254 0.737049 11.6611C0.901268 12.7956 1.35204 13.8831 2.0374 14.8014C2.11784 14.9103 2.25525 14.9656 2.38093 14.8919C2.48818 14.8299 2.55354 14.6573 2.47143 14.5483H2.4731Z" fill="#8DC0FF"/>
<path d="M0.742292 12.2063C0.226173 9.24695 0.534526 6.17537 1.60363 3.37024C1.71925 3.06693 1.23327 2.93622 1.11933 3.23617C0.016709 6.12845 -0.273171 9.2922 0.258029 12.3386C0.313328 12.657 0.79759 12.5213 0.742292 12.2046V12.2063Z" fill="#8DC0FF"/>
<path d="M3.73949 1.33497C6.14749 1.20929 8.55882 1.14391 10.9718 1.13553C11.2953 1.13553 11.2953 0.631141 10.9718 0.632817C8.56049 0.63952 6.14916 0.706579 3.73949 0.832257C3.41775 0.849014 3.41608 1.35173 3.73949 1.33497Z" fill="#8DC0FF"/>
</svg>
