<svg width="245" height="239" viewBox="0 0 245 239" fill="none" xmlns="http://www.w3.org/2000/svg">
<path d="M114.841 47.163C115.307 47.1547 115.677 47.3708 115.992 47.6842C116.199 47.8886 116.418 48.0964 116.566 48.341C117.392 49.7218 118.25 51.0876 118.989 52.5136C119.406 53.318 119.919 53.9513 120.641 54.4959C121.214 54.9282 121.568 55.6622 122.152 56.0661C124.091 57.405 125.02 59.3253 125.537 61.5222C125.604 61.8054 125.645 62.0969 125.728 62.3751C125.911 62.9733 126.317 63.3889 126.908 63.5615C127.466 63.7241 128.051 63.7995 128.621 63.9235C129.046 64.0157 129.47 64.1179 129.892 64.2235C130.268 64.3173 130.509 64.9121 130.353 65.2791C130.063 65.9611 129.71 66.5896 129.091 67.0269C128.733 67.28 128.373 67.533 128.002 67.7676C126.777 68.5451 126.176 69.5706 126.439 71.0888C126.715 72.6791 126.622 74.2995 126.561 75.9082C126.528 76.7913 126.31 77.6375 125.95 78.4519C125.681 79.0568 124.897 79.5813 124.187 79.5025C123.609 79.4372 123.037 79.3049 122.471 79.1725C122.119 79.0904 121.578 78.457 121.675 78.2358C121.789 77.9794 121.951 77.6979 122.176 77.5487C122.658 77.2253 123.191 76.9789 123.704 76.6991C124.587 76.2181 124.874 75.4323 124.768 74.4905C124.72 74.0632 124.569 73.6459 124.436 73.232C124.269 72.7126 123.356 72.5652 122.973 72.9472C122.348 73.5739 121.802 74.2576 121.373 75.0267C120.795 76.0623 119.949 76.8734 119.156 77.7313C118.726 78.1972 118.137 78.1704 117.646 77.6408C117.449 77.428 117.286 77.1784 117.082 76.9723C116.745 76.6355 116.321 76.5768 115.874 76.6824C115.3 76.8181 114.732 77.0007 114.313 77.4314C113.806 77.9542 113.303 78.4921 112.877 79.082C112.631 79.4238 112.447 79.8712 112.405 80.2868C112.304 81.3023 112.284 82.3295 112.264 83.3517C112.239 84.6688 112.145 85.9608 111.835 87.2611C111.497 88.6754 111.203 90.1216 111.188 91.5929C111.178 92.6569 110.85 93.5819 110.184 94.4248C109.926 94.7499 109.784 95.2174 109.724 95.6397C109.541 96.9417 109.464 98.2538 109.142 99.5391C109.04 99.9463 109.065 100.432 109.177 100.841C110.022 103.921 109.502 106.936 108.77 109.937C108.594 110.657 108.138 111.249 107.654 111.805C107.255 112.263 107.004 112.801 106.996 113.392C106.962 115.465 106.483 117.422 105.789 119.374C105.208 121.013 104.697 122.711 104.683 124.49C104.675 125.533 104.361 126.473 103.993 127.446C103.478 128.805 103.219 130.263 103.103 131.724C103.021 132.765 102.709 133.727 102.292 134.669C101.757 135.872 101.243 137.083 100.702 138.285C99.7883 140.314 99.2555 142.417 99.3393 144.661C99.3778 145.683 99.3041 146.712 99.356 147.734C99.5403 151.372 98.5617 158.325 97.7172 162.078C97.5546 162.802 97.3301 163.491 96.9178 164.103C96.4118 164.85 96.1806 165.683 96.0582 166.562C95.837 168.159 95.5119 169.733 94.9992 171.266C94.7176 172.107 94.3708 172.902 93.8127 173.597C93.5379 173.939 93.2849 174.299 93.0285 174.654C92.5007 175.38 92.1354 176.196 92.0951 177.083C91.9896 179.444 91.4098 181.704 90.7663 183.956C90.6859 184.236 90.6675 184.533 90.6105 184.819C90.4949 185.411 91.0143 186.033 91.5908 186.004C93.1978 185.925 94.7914 185.709 96.3515 185.337C97.2078 185.133 98.0473 184.895 98.9337 184.898C100.113 184.901 101.25 184.719 102.381 184.352C103.061 184.131 103.818 184.127 104.546 184.079C105.712 184 106.885 183.997 108.05 183.898C108.631 183.849 109.177 183.608 109.672 183.273C110.042 183.021 110.357 182.723 110.536 182.314C111.073 181.086 111.342 179.811 111.13 178.465C111.061 178.031 110.955 177.604 110.888 177.171C110.794 176.576 110.905 176.01 111.19 175.479C111.259 175.35 111.309 175.209 111.388 175.088C112.753 173.016 112.887 170.696 112.685 168.334C112.609 167.449 112.624 166.596 112.762 165.72C113.352 161.966 113.707 158.174 114.633 154.476C114.739 154.055 114.746 153.606 114.776 153.169C114.853 152.001 114.954 150.833 114.98 149.663C115.024 147.756 115.207 145.871 115.575 143.997C116.001 141.834 116.172 139.659 115.917 137.449C115.818 136.589 115.925 135.698 116.006 134.826C116.073 134.101 116.277 133.387 116.353 132.661C116.52 131.057 116.867 129.489 117.206 127.917C117.549 126.322 117.112 124.705 117.276 123.101C117.604 119.892 117.553 116.672 117.62 113.454C117.658 111.556 117.739 109.645 117.988 107.765C118.258 105.724 118.333 103.686 118.34 101.637C118.345 100.32 118.357 99.0028 118.422 97.6891C118.444 97.2668 118.643 96.8529 118.771 96.439C118.87 96.1206 119.108 95.9564 119.449 96.0167C119.723 96.0653 119.997 96.1541 120.247 96.2764C120.359 96.3317 120.436 96.501 120.488 96.635C120.591 96.9048 120.731 97.183 120.738 97.4612C120.8 100.245 121.13 103.004 121.35 105.776C121.628 109.28 121.604 112.801 121.407 116.305C121.259 118.937 121.197 121.566 121.212 124.2C121.226 126.546 121.097 128.869 120.686 131.19C120.383 132.911 120.294 134.677 120.205 136.426C120.138 137.752 119.976 139.037 119.577 140.309C118.918 142.409 118.679 144.594 118.332 146.759C118.008 148.782 117.621 150.792 117.628 152.853C117.63 153.589 117.553 154.33 117.274 155.008C116.715 156.384 116.569 157.842 116.348 159.283C115.929 162.023 115.223 164.718 115.073 167.496C115.066 167.623 115.161 167.789 115.262 167.883C115.47 168.079 115.744 168.091 116.026 167.948C116.155 167.883 116.289 167.806 116.383 167.7C116.678 167.375 116.964 167.042 117.236 166.698C117.693 166.122 118.184 165.565 118.834 165.215C119.91 164.635 120.639 163.759 121.207 162.707C121.554 162.065 121.923 161.435 122.479 160.937C122.724 160.719 122.98 160.647 123.289 160.724C123.558 160.791 123.764 160.969 123.82 161.306C124.036 162.633 123.96 163.923 123.337 165.155C122.481 166.851 121.923 168.674 121.07 170.378C120.22 172.074 119.565 173.867 118.793 175.603C118.02 177.339 117.222 179.065 116.406 180.783C116.085 181.46 115.962 182.157 115.915 182.896C115.85 183.918 115.379 184.856 115.289 185.89C115.171 187.227 114.628 188.424 113.772 189.474C113.497 189.813 113.268 190.19 113.026 190.554C112.815 190.872 112.958 191.539 113.236 191.74C114.312 192.518 115.495 193.094 116.731 193.536C117.41 193.779 118.151 193.91 118.873 193.96C120.039 194.042 121.212 194.029 122.382 194.036C124.723 194.047 127.064 194.036 129.407 194.057C130.224 194.066 130.75 194.522 131.012 195.294C131.104 195.566 131.205 195.837 131.327 196.097C131.498 196.459 131.997 196.638 132.458 196.546C133.2 196.398 133.832 196.087 134.268 195.437C134.606 194.932 135.075 194.605 135.682 194.497C135.97 194.445 136.255 194.374 136.547 194.351C138.174 194.217 139.7 193.744 141.168 193.047C141.431 192.921 141.716 192.839 141.981 192.717C143.323 192.099 144.718 191.683 146.204 191.631C147.092 191.601 147.926 191.323 148.776 191.102C149.73 190.854 150.264 190.207 150.51 189.31C151.327 186.348 152.092 183.373 151.95 180.26C151.89 178.929 152.109 177.659 152.432 176.369C152.823 174.815 153.111 173.222 153.285 171.628C153.634 168.431 154.356 165.289 154.651 162.083C154.877 159.61 155.15 157.14 155.472 154.677C155.908 151.342 156.28 148.002 156.543 144.649C157.106 142.372 157.25 140.029 157.639 137.725C158.029 135.419 158.371 133.105 158.824 130.811C159.249 128.661 159.78 126.531 160.297 124.4C160.397 123.986 160.598 123.57 160.851 123.227C160.995 123.033 161.327 122.934 161.592 122.882C161.935 122.815 162.16 122.996 162.247 123.294C162.287 123.433 162.364 123.567 162.381 123.708C162.596 125.595 162.46 127.5 162.852 129.385C163.239 131.243 163.005 133.177 163.343 135.062C163.496 135.915 163.447 136.814 163.42 137.688C163.375 139.168 163.129 140.594 162.222 141.841C161.971 142.186 161.771 142.617 161.696 143.035C161.384 144.755 160.729 146.414 160.799 148.203C160.823 148.783 160.769 149.376 160.67 149.949C160.374 151.679 160.039 153.403 159.713 155.127C159.603 155.717 159.316 156.22 158.914 156.661L159.03 156.783C158.726 155.069 158.812 153.346 158.879 151.622C158.884 151.505 158.738 151.381 158.664 151.258C158.576 151.32 158.42 151.369 158.406 151.444C157.781 154.687 157.14 157.927 157.17 161.252L157.237 161.131C156.935 161.428 156.687 161.76 156.637 162.192C156.476 163.578 156.34 164.966 156.159 166.348C156.106 166.757 155.943 167.151 155.844 167.575C155.792 168.163 155.732 168.729 155.655 169.294C155.538 170.15 155.569 171.001 155.725 171.849C155.749 171.978 155.802 172.151 155.896 172.203C156.037 172.282 156.106 172.055 156.179 171.685C156.471 170.246 156.39 168.848 155.787 167.497C156.401 167.908 157.012 168.32 157.625 168.731L157.602 168.665C157.14 171.42 157.039 174.19 157.257 176.974C157.292 177.414 157.297 177.855 157.079 178.254C156.426 179.445 156.379 180.779 156.196 182.075C156.094 182.795 156.149 183.537 156.087 184.266C155.988 185.429 155.844 186.587 155.74 187.748C155.729 187.872 155.819 188.069 155.921 188.129C156.93 188.712 157.801 189.474 158.728 190.168C160.493 191.489 163.212 191.412 164.876 190.064C165.104 189.88 165.364 189.721 165.542 189.495C166.468 188.315 167.708 187.556 168.988 186.834C169.65 186.46 170.096 185.865 170.269 185.124C170.927 182.274 171.911 179.506 172.383 176.608C172.454 176.181 172.58 175.749 172.757 175.353C174.207 172.114 174.994 168.697 175.423 165.198C175.797 162.149 176.263 159.112 176.499 156.044C176.655 154.003 176.891 151.967 177.23 149.941C177.592 147.776 177.699 145.581 177.739 143.381C177.813 139.429 177.984 135.48 178.123 131.53C178.15 130.798 178.235 130.072 178.53 129.387C178.644 129.12 179.485 128.604 179.606 128.765C179.775 128.991 179.968 129.259 179.993 129.526C180.17 131.426 180.197 133.331 179.867 135.215C179.483 137.397 179.473 139.583 179.631 141.779C179.656 142.134 179.917 142.303 180.248 142.236C180.362 142.213 180.497 142.104 180.549 141.997C180.675 141.737 180.804 141.464 180.847 141.182C181.759 135.423 181.784 135.307 183.289 131.436C183.586 130.674 183.277 130.029 182.624 129.529C182.279 129.266 181.964 128.953 181.672 128.628C181.156 128.048 181.079 127.244 181.468 126.598C181.617 126.35 181.834 126.146 181.999 125.906C182.414 125.301 182.387 124.901 181.903 124.361C181.707 124.144 181.501 123.936 181.303 123.721C180.893 123.279 180.668 122.753 180.586 122.158C180.363 120.559 180.305 118.95 180.305 117.338C180.305 114.996 180.318 112.653 180.289 110.31C180.261 107.968 180.204 105.627 180.13 103.286C180.067 101.237 179.924 99.1888 179.577 97.1662C179.302 95.571 179.197 93.9723 179.287 92.3553C179.354 91.1806 179.207 90.0177 179.033 88.8564C178.791 87.2511 178.396 85.7027 177.53 84.3035C177.3 83.9315 177.116 83.5293 176.928 83.1322C176.405 82.0295 176.231 80.8582 176.667 79.7204C177.245 78.2106 176.854 76.8332 176.268 75.4792C175.77 74.3263 174.852 73.6393 173.568 73.5203C173.133 73.4801 172.69 73.4482 172.254 73.47C170.18 73.5688 168.633 74.4888 167.765 76.426C167.705 76.56 167.665 76.7008 167.613 76.8382C167.348 77.5554 166.911 78.1386 166.168 78.3799C165.287 78.6647 164.64 79.2328 164.107 79.9416C163.581 80.642 163.003 81.3324 162.629 82.1133C161.857 83.7287 160.742 85.0492 159.507 86.3177C158.073 87.789 156.917 89.4931 155.802 91.2141C155.08 92.3301 154.641 93.5735 154.507 94.9107C154.448 95.4922 154.371 96.0603 154.112 96.6066C153.887 97.0791 153.371 97.3824 152.702 97.2098C152.21 97.0825 151.824 97.2534 151.534 97.5902C151.154 98.0309 150.794 98.5018 150.51 99.0095C149.725 100.415 148.989 101.848 148.225 103.264C147.523 104.566 146.998 105.917 146.968 107.425C146.956 108.023 146.71 108.564 146.412 109.072C145.743 110.207 145.007 111.306 144.394 112.469C143.841 113.518 143.209 114.481 142.343 115.294C141.693 115.904 141.266 116.68 140.868 117.462C139.746 119.683 138.678 121.933 137.522 124.137C134.657 129.598 132.629 135.409 130.367 141.123C129.227 145.056 127.8 148.905 126.975 152.932C126.593 154.799 126.275 156.669 126.114 158.568C126.09 158.854 126.001 159.141 125.903 159.412C125.79 159.722 125.556 159.88 125.259 159.913C124.973 159.945 124.721 159.811 124.634 159.472C124.524 159.05 124.438 158.611 124.425 158.177C124.373 156.563 124.46 154.955 124.748 153.366C125.192 150.918 125.717 148.492 126.363 146.084C128.234 139.138 130.91 132.483 133.603 125.836C134.206 124.346 134.953 122.914 135.669 121.471C139.188 114.393 142.74 107.331 146.443 100.345C146.919 99.4469 147.504 98.5872 147.69 97.555C147.749 97.2282 147.637 96.9635 147.338 96.811C147.218 96.749 147.038 96.7155 146.916 96.7574C146.507 96.8965 146.065 97.0087 145.723 97.2534C144.53 98.1046 143.446 99.0883 142.408 100.126C141.17 101.362 139.962 102.632 138.546 103.68C138.301 103.861 138.268 104.184 138.316 104.496C138.499 105.65 138.7 106.803 138.849 107.963C138.904 108.392 138.879 108.844 138.807 109.272C138.764 109.526 138.613 109.875 138.415 109.962C138.135 110.084 137.857 109.858 137.71 109.575C137.507 109.188 137.261 108.817 137.108 108.41C136.647 107.177 136.21 105.934 135.786 104.687C135.124 102.743 134.274 100.881 133.435 99.0112C133.194 98.4733 133.157 97.8935 133.276 97.2953C133.435 96.4909 134.261 96.0552 134.889 96.4256C136.024 97.0959 136.872 98.175 138.115 98.6694C138.363 98.7682 138.683 98.7096 138.966 98.6811C139.102 98.6677 139.248 98.5839 139.359 98.4934C139.809 98.123 140.269 97.7611 140.687 97.3573C143.962 94.1952 147.509 91.3783 151.305 88.8681C151.915 88.4643 152.51 88.037 153.111 87.6198C153.971 87.0249 154.651 86.2674 155.12 85.3341C155.913 83.7572 156.783 82.2457 158.137 81.0576C158.606 80.6454 158.747 80.0556 158.475 79.4657C158.065 78.5726 158.321 77.7582 158.671 76.9337C158.795 76.6438 158.745 76.3623 158.616 76.0875C158.031 74.8441 157.128 73.9376 155.853 73.398C155.045 73.0561 154.242 72.7009 153.451 72.3222C152.917 72.0658 152.355 71.9384 151.784 71.8027C147.876 70.8693 144.416 70.7219 140.468 70.7722C140.031 70.7772 139.591 70.8425 139.154 70.8341C138.417 70.8207 137.71 70.6314 137.018 70.3817C135.94 69.9929 135.597 68.6758 136.386 67.9167C136.595 67.7156 136.781 67.4576 137.033 67.3336C138.459 66.6264 138.742 65.487 138.44 64.0274C138.294 63.3186 138.377 62.5662 138.298 61.8389C138.187 60.81 138.229 59.7946 138.387 58.7774C138.527 57.8742 138.306 57.0363 137.896 56.237C137.629 55.7159 137.338 55.2065 137.108 54.6686C136.476 53.1906 136.739 51.7696 137.602 50.4961C138.422 49.2845 139.483 48.2723 140.699 47.4395C140.967 47.2552 141.621 47.5971 141.73 47.9791C141.892 48.5489 141.993 49.1135 141.71 49.6782C141.054 50.9886 140.495 52.3343 140.215 53.7821C140.103 54.3636 140.074 54.9501 140.212 55.5248C140.585 57.0866 140.966 58.65 141.388 60.2C141.455 60.4447 141.716 60.7413 141.951 60.815C143.204 61.2071 144.463 61.6194 145.748 61.8724C148.644 62.4421 151.385 63.4141 154.011 64.7463C155.576 65.5406 157.156 66.3114 158.738 67.0738C159.278 67.3335 159.735 67.6754 160.107 68.1396C161.309 69.6394 162.874 70.7353 164.338 71.9418C164.727 72.2635 165.526 72.2082 165.974 71.8496C166.885 71.1173 167.779 70.3615 168.714 69.6611C169.428 69.1282 170.262 68.8383 171.15 68.7327C172.172 68.6121 173.193 68.6188 174.215 68.7529C175.626 68.9389 176.67 69.6829 177.37 70.8827C177.736 71.5094 178.066 72.1864 178.242 72.8852C178.634 74.4436 178.917 76.0305 179.252 77.604C179.344 78.033 179.453 78.4586 179.574 78.8809C179.743 79.469 180.083 80.0053 180.66 80.1678C183.106 80.8582 185.206 82.1418 187.133 83.7572C187.356 83.9432 187.611 84.099 187.869 84.2331C188.395 84.5079 188.946 84.6856 189.551 84.5314C189.692 84.4945 189.843 84.4811 189.975 84.4241C191.255 83.8695 192.286 84.4376 193.164 85.257C195.304 87.2544 197.385 89.3122 199.49 91.3449C199.91 91.7521 200.299 92.1961 200.753 92.5614C201.345 93.0373 202.022 93.2652 202.796 93.0004C203.071 92.9066 203.361 92.8496 203.649 92.796C204.249 92.6854 204.849 92.7625 205.308 93.1512C205.807 93.5735 206.332 93.6422 206.933 93.5668C207.222 93.5299 207.523 93.5048 207.805 93.5518C208.084 93.5987 208.383 93.6959 208.609 93.8584C209.576 94.5505 210.382 95.3783 210.74 96.5647C210.918 97.1545 211.273 97.5802 211.95 97.6472C212.726 97.7226 213.336 98.0728 213.691 98.7933C214.09 99.601 214.662 100.258 215.417 100.739C215.796 100.98 216.233 101.047 216.661 100.839C216.922 100.712 217.145 100.493 217.415 100.405C217.68 100.32 217.991 100.293 218.263 100.345C218.541 100.399 218.809 100.556 219.054 100.712C220.166 101.419 221.232 102.203 222.382 102.842C224.47 104.005 226.078 105.697 227.669 107.42C227.963 107.738 228.237 108.099 228.434 108.482C229.58 110.714 231.208 112.608 232.719 114.579C234.944 117.481 237.22 120.343 239.459 123.235C240.623 124.74 241.778 126.253 242.768 127.884C244.424 129.511 244.392 131.545 244.116 133.621C244.059 134.044 243.896 134.483 243.675 134.848C243.144 135.721 242.616 136.612 241.967 137.397C239.259 140.671 236.345 143.734 233.086 146.489C230.733 148.476 228.215 150.231 225.812 152.141C225.468 152.414 225.063 152.592 224.61 152.634C224.32 152.659 224.041 152.577 223.848 152.321C223.675 152.091 223.496 151.833 223.436 151.56C223.022 149.703 222.574 147.858 222.055 146.027C221.413 143.769 221.024 141.452 221.361 139.086C221.509 138.05 221.375 137.035 221.199 136.029C220.999 134.88 220.724 133.74 220.438 132.608C220.332 132.19 220.155 131.765 219.912 131.411C218.663 129.606 217.386 127.82 216.109 126.035C215.942 125.801 215.749 125.514 215.503 125.415C214.254 124.916 213.445 123.78 212.249 123.222C211.981 123.098 211.625 123.146 211.469 123.416C211.257 123.783 211.133 124.216 211.039 124.636C210.431 127.347 209.812 130.057 209.249 132.778C208.182 137.943 206.702 143 205.251 148.063C204.601 150.332 204.043 152.58 204.116 154.955C204.14 155.687 204.039 156.416 203.785 157.113C202.216 161.41 201.465 165.859 201.288 170.415C201.276 170.73 201.39 170.975 201.551 171.224C201.75 171.536 202.204 171.735 202.689 171.675C203.077 171.626 203.612 171.218 203.662 170.908C203.731 170.479 203.833 170.048 203.833 169.617C203.83 167.276 203.79 164.937 203.796 162.596C203.796 162.333 204.004 162.072 204.115 161.808C204.227 161.902 204.364 161.979 204.443 162.097C204.52 162.209 204.567 162.361 204.576 162.501C204.666 163.813 204.609 165.152 204.867 166.428C205.1 167.581 205.169 168.751 205.407 169.887C205.614 170.882 205.958 171.833 205.863 172.882C205.824 173.3 205.971 173.748 206.087 174.167C206.439 175.439 206.694 176.726 206.876 178.033C206.987 178.815 207.491 179.333 208.235 179.606C208.373 179.656 208.517 179.695 208.646 179.762C208.772 179.827 208.949 179.899 208.983 180.007C209.05 180.23 208.844 180.384 208.473 180.426C207.892 180.491 207.309 180.543 206.729 180.615C205.956 180.711 205.589 181.478 205.909 182.269C206.186 182.953 206.494 183.635 207.052 184.121C208.597 185.464 210.095 186.889 211.769 188.053C213.321 189.133 215.055 189.962 216.753 190.812C217.39 191.13 218.147 191.289 218.863 191.353C219.751 191.43 220.59 191.639 221.421 191.924C223.494 192.633 225.643 193.141 227.556 194.282C228.185 194.656 228.915 194.79 229.631 194.964C231.477 195.417 233.311 195.928 235.139 196.452C235.549 196.571 235.938 196.811 236.295 197.055C236.525 197.213 236.719 197.456 236.86 197.701C237.254 198.389 236.892 199.318 236.193 199.46C234.619 199.78 233.061 200.171 231.427 200.105C230.702 200.075 229.949 200.113 229.247 200.279C228.081 200.556 226.953 200.643 225.783 200.298C225.232 200.135 224.627 200.105 224.046 200.1C222.578 200.088 221.132 199.881 219.675 199.745C218.216 199.609 216.785 199.343 215.34 199.135C213.465 198.867 211.592 198.5 209.67 198.567C208.802 198.597 207.927 198.418 207.056 198.314C206.596 198.26 206.167 198.344 205.816 198.622C205.194 199.115 204.505 199.219 203.754 199.091C203.466 199.043 203.178 198.984 202.89 198.932C202.989 197.9 203.269 196.92 203.847 196.053C204.091 195.686 204.488 195.472 204.958 195.475C205.248 195.475 205.568 195.42 205.824 195.52C206.943 195.954 208.071 196.05 209.263 195.886C210.422 195.727 211.592 195.83 212.751 196.03C213.469 196.152 214.194 196.236 214.92 196.293C215.501 196.338 216.081 196.288 216.641 196.083C216.952 195.971 217.132 195.775 217.184 195.453C217.229 195.174 217.2 194.862 216.956 194.679C215.662 193.717 214.241 192.973 212.803 192.253C211.759 191.73 210.732 191.175 209.708 190.616C208.936 190.193 208.235 189.676 207.657 188.997C206.612 187.769 205.38 186.736 204.143 185.712C203.81 185.436 203.416 185.258 202.947 185.242C201.444 185.186 200.065 184.841 199.052 183.588C198.892 183.388 198.551 183.269 198.278 183.236C196.081 182.973 193.898 182.944 191.84 183.931C191.156 184.258 190.443 184.305 189.717 184.375C189.394 184.407 188.904 184.973 188.876 185.287C188.834 185.721 188.757 186.157 188.755 186.591C188.742 190.388 188.695 194.183 188.356 197.97C188.345 198.111 188.403 198.259 188.402 198.403C188.395 198.964 189.134 199.561 189.606 199.294C190.82 198.61 192.09 198.535 193.425 198.721C194.29 198.842 195.165 198.939 196.038 198.961C197.787 199.006 199.538 199.008 201.289 198.991C201.869 198.986 202.447 198.869 203.027 198.803C202.71 199.291 202.432 199.812 202.065 200.259C201.494 200.96 200.755 201.414 199.833 201.518C197.219 201.813 194.608 202.133 191.991 202.387C190.965 202.488 189.972 202.649 189.013 203.029C188.727 203.143 188.442 203.096 188.154 202.986C187.726 202.822 187.405 202.55 187.23 202.129C186.723 200.899 186.459 199.611 186.463 198.284C186.468 196.377 186.304 194.486 185.982 192.61C185.858 191.891 185.71 191.175 185.556 190.461C185.156 188.601 184.772 186.741 184.817 184.823C184.824 184.531 184.785 184.238 184.752 183.948C184.682 183.355 184.472 182.819 184.07 182.368C183.778 182.041 183.46 181.734 183.202 181.382C183.036 181.154 182.899 180.873 182.85 180.598C182.697 179.729 182.657 178.849 182.971 178.002C183.068 177.741 183.287 177.523 183.457 177.275C183.703 177.795 183.929 178.333 184.187 178.855C184.39 179.268 184.795 179.457 185.281 179.273C186.032 178.988 186.686 179.021 187.282 179.613C187.592 179.92 187.949 180.183 188.298 180.447C188.77 180.808 189.313 181.014 189.895 181.134C191.567 181.481 193.114 181.18 194.468 180.149C196.929 178.276 196.78 178.421 197.512 175.581C197.549 175.44 197.581 175.296 197.6 175.15C197.816 173.537 198.303 172.022 199.119 170.604C199.485 169.971 199.704 169.252 199.753 168.516C199.989 165.014 200.467 161.527 200.338 158.003C200.284 156.542 200.217 155.057 200.408 153.618C200.639 151.88 200.753 150.132 200.993 148.398C201.373 145.65 201.809 142.91 202.144 140.152C202.605 136.371 203.051 132.603 202.989 128.787C202.97 127.612 203.173 126.468 203.371 125.308C203.865 122.409 203.704 119.478 203.517 116.558C203.506 116.413 203.461 116.271 203.424 116.129C202.752 113.526 202.801 110.902 203.366 108.305C203.773 106.428 203.86 104.541 203.883 102.639C203.89 102.096 203.277 101.459 202.779 101.498C202.489 101.52 202.198 101.538 201.906 101.553C200.867 101.607 199.922 101.875 199.029 102.47C196.716 104.011 194.367 105.501 192.004 106.966C191.007 107.584 190.007 108.181 189.156 109.002C188.299 109.828 187.254 110.359 186.171 110.818C185.229 111.219 184.256 111.546 183.333 111.985C182.785 112.244 182.49 112.782 182.408 113.392C182.369 113.677 182.377 113.977 182.414 114.264C182.732 116.68 183.373 119.064 184.34 121.415C184.563 121.957 184.774 122.505 185.038 123.024C185.303 123.544 185.556 124.1 185.945 124.517C186.701 125.33 186.935 126.272 186.929 127.331C186.919 129.087 186.924 130.843 186.93 132.601C186.935 133.781 186.81 134.937 186.382 136.049C186.054 136.904 186.069 137.775 186.374 138.627C186.828 139.892 187.101 141.209 186.798 142.508C186.324 144.535 186.384 146.568 186.402 148.617C186.441 153.008 186.454 157.4 186.448 161.79C186.444 163.256 186.424 164.716 186.731 166.16C186.977 167.323 186.9 168.491 186.697 169.652C186.597 170.229 186.464 170.8 186.359 171.375C186.307 171.662 186.268 171.953 186.252 172.245C186.225 172.701 186.325 173.14 186.686 173.436C186.999 173.694 187.022 173.89 186.652 174.091C186.138 174.371 185.596 174.602 185.1 174.909C184.445 175.315 184.266 176.089 183.832 176.67C183.658 176.903 183.529 177.17 183.379 177.421C183.351 176.985 183.359 176.543 183.284 176.116C183.204 175.672 182.924 175.315 182.533 175.087C182.176 174.879 182.062 174.696 182.29 174.559C183.42 173.879 183.835 172.793 183.824 171.578C183.795 168.505 183.755 165.43 183.582 162.361C183.45 160.019 183.331 157.698 183.639 155.354C183.79 154.207 183.639 153.019 183.604 151.85C183.587 151.268 182.88 150.781 182.401 150.958C180.978 151.488 179.901 152.446 179.024 153.651C178.857 153.882 178.691 154.166 178.661 154.439C178.439 156.473 178.197 158.507 178.074 160.547C177.977 162.152 178.007 163.759 177.637 165.346C177.473 166.05 177.473 166.799 177.458 167.528C177.429 168.845 177.419 170.164 177.453 171.481C177.481 172.649 177.63 173.815 177.628 174.981C177.627 176.149 177.471 177.316 177.441 178.485C177.392 180.385 177.484 182.291 176.993 184.161C176.848 184.717 176.843 185.327 176.869 185.907C176.951 187.681 176.573 189.397 176.285 191.127C176.199 191.634 175.83 191.871 175.412 191.978C174.85 192.12 174.264 192.172 173.687 192.256C173.082 192.343 172.883 193.119 173.251 193.652C173.751 194.378 174.289 195.073 174.983 195.624C175.899 196.352 176.799 197.107 177.763 197.769C179.336 198.848 180.811 200.043 182.23 201.313C182.992 201.997 183.815 202.614 184.594 203.277C185.27 203.854 186.01 204.318 186.828 204.653C187.912 205.095 188.955 205.603 189.977 206.188C191.371 206.986 192.884 207.567 194.466 207.924C197.326 208.571 200.111 209.461 202.841 210.525C204.075 211.006 205.367 211.264 206.647 211.565C206.967 211.641 207.553 212.366 207.423 212.536C207.248 212.758 207.029 212.968 206.788 213.114C206.543 213.261 206.253 213.375 205.971 213.414C205.393 213.492 204.807 213.538 204.224 213.544C203.17 213.559 202.214 213.834 201.34 214.439C200.72 214.87 199.986 214.972 199.245 214.955C198.66 214.942 198.077 214.883 197.494 214.846C196.326 214.771 195.16 214.652 193.992 214.634C192.231 214.608 190.478 214.572 188.767 214.089C186.724 213.955 184.713 213.497 182.657 213.486C180.767 213.068 178.884 213.27 176.993 213.513C175.254 213.737 173.506 213.901 171.767 214.119C170.961 214.22 170.482 214.726 170.26 215.5C170.101 216.058 169.934 216.616 169.736 217.162C169.587 217.574 169.044 217.781 168.687 217.596C168.427 217.462 168.154 217.347 167.919 217.177C166.989 216.505 166.004 216.562 164.997 216.939C164.176 217.248 163.336 217.529 162.552 217.915C161.423 218.471 160.283 218.382 159.124 218.129C157.828 217.846 156.633 217.29 155.434 216.742C154.499 216.314 153.517 216.021 152.458 216.259C152.329 216.288 152.171 216.242 152.04 216.194C151.906 216.143 151.749 216.075 151.672 215.964C151.253 215.369 150.812 214.783 150.47 214.144C150.269 213.771 150.19 213.31 150.143 212.879C150.081 212.299 150.113 211.711 150.09 211.126C150.061 210.397 150.102 209.652 149.966 208.943C149.743 207.79 149.607 206.635 149.517 205.464C149.438 204.447 149.314 203.413 149.043 202.434C148.726 201.288 148.647 200.155 148.701 198.981C148.732 198.284 147.988 197.52 147.335 197.499C145.728 197.449 144.119 197.432 142.511 197.384C141.453 197.352 140.48 197.578 139.623 198.222C139.367 198.414 139.094 198.453 138.792 198.371C137.294 197.964 135.868 198.277 134.546 198.964C133.738 199.383 132.931 199.624 132.039 199.634C130.719 199.651 129.407 199.7 128.16 200.229C127.908 200.336 127.583 200.353 127.31 200.306C125.871 200.058 124.426 199.827 123.007 199.488C121.849 199.212 120.698 199.048 119.533 199.294C118.628 199.485 117.799 199.277 116.948 199.046C115.381 198.619 113.956 197.866 112.5 197.181C112.112 196.998 111.674 196.906 111.25 196.821C110.97 196.764 110.694 196.908 110.506 197.168C110.339 197.402 110.173 197.655 110.082 197.925C109.802 198.761 109.605 199.619 109.616 200.507C109.658 204.031 109.052 207.5 108.727 210.992C108.631 212.011 108.562 213.033 108.541 214.055C108.462 217.714 108.442 221.375 108.331 225.033C108.272 226.953 108.542 228.825 108.871 230.702C108.996 231.424 109.001 232.16 108.789 232.877C108.661 233.309 108.415 233.651 107.991 233.841C107.857 233.901 107.721 233.96 107.58 233.993C106.868 234.162 106.163 234.378 105.441 234.477C101.675 234.992 97.8948 235.416 94.1379 235.985C91.0998 236.446 88.0466 236.721 84.9901 236.981C83.5323 237.105 82.1397 237.582 80.6584 237.638C79.3514 237.686 78.0611 238.037 76.7322 237.973C76.2982 237.953 75.8374 237.976 75.4269 238.105C74.1466 238.507 72.8295 238.486 71.5158 238.569C70.7919 238.616 70.078 238.816 69.3558 238.916C68.5749 239.027 67.6583 237.861 67.9297 237.103C68.1761 236.416 68.4224 235.724 68.7274 235.062C69.4613 233.467 70.259 231.9 70.9795 230.3C72.2396 227.496 73.3741 224.641 74.4248 221.75C76.124 217.077 77.9136 212.437 79.6296 207.768C80.1876 206.248 80.9014 204.805 81.6672 203.393C83.9914 199.106 85.399 194.5 86.5368 189.794C86.6876 189.174 86.2302 188.591 85.6286 188.611C85.4828 188.616 85.332 188.564 85.1929 188.591C83.1837 188.97 81.1813 189.397 79.1654 189.738C74.8387 190.465 70.5774 191.549 66.2222 192.117C62.3865 193.062 58.4721 193.602 54.5978 194.347C50.7252 195.093 46.8392 195.795 42.9549 196.492C39.5063 197.112 36.0678 197.813 32.6326 198.522C28.9091 199.289 25.1807 200.028 21.4522 200.777C17.7271 201.524 13.9919 202.235 10.2769 203.028C8.56097 203.395 6.77972 203.403 5.11071 204.003C3.65619 204.152 2.20167 204.306 0.747153 204.447C0.611421 204.46 0.453911 204.429 0.334935 204.365C0.210933 204.299 0.0601039 204.186 0.0265896 204.065C-0.0555202 203.763 0.05508 203.488 0.323194 203.369C0.584605 203.252 0.874501 203.173 1.15937 203.143C2.03074 203.049 2.91554 203.043 3.78021 202.904C5.51121 202.625 7.23383 202.299 8.95478 201.96C10.6757 201.622 12.3816 201.199 14.1093 200.889C19.433 199.934 24.7115 198.751 30.0218 197.719C33.6062 197.022 37.1888 196.293 40.7698 195.574C44.3525 194.855 47.9536 194.227 51.5547 193.608C53.5722 193.262 55.563 192.799 57.5839 192.472C62.3446 191.7 67.0533 190.631 71.8241 189.908C73.1244 189.712 74.3494 189.126 75.6933 189.163C79.1252 188.43 82.5822 187.827 86.0442 187.254C86.1866 187.231 86.3257 187.172 86.4597 187.115C87.1468 186.822 87.745 186.426 88.0584 185.707C88.1757 185.439 88.3131 185.176 88.3986 184.898C89.0404 182.8 89.7391 180.716 90.2871 178.594C90.9088 176.189 91.393 173.748 91.941 171.322C92.1371 170.452 92.1756 169.584 91.941 168.714C91.8656 168.431 91.8287 168.136 91.7265 167.863C91.1115 166.207 91.3662 164.721 92.4822 163.342C93.3201 162.306 93.8614 161.113 94.1998 159.816C94.5316 158.544 94.9556 157.301 95.5522 156.114C95.8052 155.61 95.8856 154.995 95.946 154.419C96.0381 153.547 96.0582 152.667 96.0833 151.789C96.1185 150.618 96.0766 149.443 96.1638 148.277C96.3062 146.377 96.3984 144.485 96.142 142.585C96.0649 142.01 96.1219 141.415 96.1219 140.83C96.1219 139.793 96.3498 138.793 96.695 137.824C96.9413 137.137 97.3016 136.489 97.5379 135.8C98.1177 134.109 99.0209 132.628 100.258 131.341C100.561 131.026 100.807 130.657 101.08 130.312C101.449 129.846 101.729 129.321 101.819 128.74C102.069 127.136 102.783 125.67 103.148 124.103C103.314 123.393 103.552 122.679 103.575 121.96C103.619 120.624 103.885 119.358 104.294 118.094C104.978 115.988 105.203 113.794 105.226 111.599C105.246 109.665 105.58 107.819 106.258 106.021C106.831 104.501 107.125 102.922 107.228 101.305C107.304 100.136 107.498 98.9894 107.723 97.8365C108.115 95.829 108.437 93.8081 108.588 91.7587C108.758 89.4278 108.949 87.0918 109.66 84.833C110.064 83.5527 110.037 82.2222 109.698 80.9269C109.387 79.7405 109.462 78.6027 109.988 77.5102C110.379 76.6991 110.57 75.8613 110.577 74.9698C110.582 74.2375 110.597 73.5052 110.617 72.7746C110.625 72.483 110.62 72.1831 110.679 71.8999C111.195 69.4668 111.681 67.0202 112.881 64.8015C113.161 64.2821 113.568 63.8631 114.141 63.6352C115.227 63.2046 116.314 62.7807 117.39 62.3249C118.134 62.0082 118.684 60.8301 118.429 60.1046C118.137 59.2784 117.822 58.4607 117.482 57.6546C117.251 57.1084 117.07 56.552 117.072 55.9622C117.077 53.4268 116.452 51.0423 115.438 48.7348C115.205 48.207 115.118 47.6138 114.964 47.0508L114.86 47.1513L114.841 47.163ZM193.466 91.4973L193.296 91.7671L193.39 91.556C193.204 91.3515 193.033 91.132 192.825 90.9527C192.733 90.8739 192.564 90.8388 192.44 90.8572C192.343 90.8723 192.192 90.9963 192.19 91.0767C192.184 91.3616 192.368 91.5962 192.685 91.6196C192.949 91.6397 193.224 91.5308 193.466 91.4957V91.4973ZM75.2995 235.558C76.6216 235.446 78.0661 235.256 79.5106 235.047C81.0975 234.817 82.676 234.519 84.2679 234.327C85.8615 234.134 87.4602 233.924 89.0621 233.877C90.6842 233.83 92.2058 233.185 93.8278 233.216C97.5865 232.686 101.343 232.141 105.058 231.352C105.338 231.293 105.606 231.154 105.864 231.02C106.409 230.737 106.8 230.305 106.82 229.673C106.858 228.505 106.855 227.337 106.855 226.169C106.855 220.907 106.85 215.647 106.846 210.386C106.846 209.208 106.95 208.055 107.458 206.964C107.77 206.294 107.867 205.568 107.879 204.829C107.911 202.93 107.879 201.027 108.009 199.133C108.09 197.964 108.189 196.807 108.031 195.639C107.932 194.904 108.06 194.185 108.288 193.483C108.378 193.205 108.475 192.93 108.567 192.652C109.224 190.691 109.466 188.667 109.474 186.609C109.474 186.319 109.409 186.031 109.378 185.741C109.348 185.441 108.81 184.94 108.49 184.876C107.026 184.583 105.585 184.799 104.147 185.059C103.286 185.213 102.436 185.486 101.57 185.555C98.7896 185.774 96.1236 186.614 93.3754 187.004C92.37 187.147 91.3729 187.43 90.4061 187.75C90.0257 187.876 89.6821 188.238 89.4207 188.568C89.156 188.903 88.9599 189.319 88.8242 189.729C88.2293 191.532 87.6193 193.334 87.1082 195.16C86.5971 196.992 86.0023 198.791 85.3337 200.571C84.9215 201.669 84.4958 202.748 83.8155 203.718C83.2273 204.557 82.8318 205.501 82.4682 206.463C81.5918 208.787 80.6434 211.083 79.767 213.405C78.0628 217.916 76.3954 222.439 74.6963 226.952C73.9238 229.003 73.101 231.034 72.3268 233.085C72.1224 233.628 72.0101 234.206 71.8609 234.769C71.7738 235.099 72.2313 235.687 72.5597 235.744C73.4462 235.9 74.3058 235.734 75.3012 235.556L75.2995 235.558ZM216.599 106.326C216.009 106.364 215.431 107.088 215.562 107.547C215.602 107.686 215.577 107.849 215.634 107.978C217.229 111.579 218.864 115.165 220.78 118.607C222.008 120.814 222.742 123.153 223.168 125.613C223.34 126.619 223.452 127.634 223.602 128.643C224.026 131.523 224.641 134.382 224.57 137.321C224.557 137.901 224.624 138.491 224.718 139.064C224.932 140.368 224.947 141.68 224.984 142.994C225.009 143.868 225.051 144.745 225.116 145.618C225.138 145.903 225.261 146.177 225.333 146.459C225.4 146.722 226.192 147.062 226.452 146.937C226.712 146.811 227.012 146.751 227.243 146.59C232.438 142.989 236.962 138.662 241.017 133.829C241.203 133.606 241.366 133.362 241.52 133.114C241.925 132.46 242.116 131.765 241.667 131.068C241.036 130.087 240.402 129.104 239.692 128.18C236.22 123.668 232.722 119.175 229.235 114.674C228.428 113.632 227.576 112.61 226.527 111.822C225.356 110.944 224.32 109.92 223.173 109.025C222.824 108.754 222.372 108.707 221.931 108.836C221.792 108.876 221.663 108.95 221.529 109.008C220.935 109.273 220.401 109.191 219.955 108.71C219.362 108.07 218.812 107.383 218.186 106.778C217.753 106.361 217.17 106.237 216.6 106.322L216.599 106.326ZM175.919 212.033C175.919 212.004 175.919 211.976 175.919 211.949C176.501 211.989 177.092 211.979 177.664 212.08C179.745 212.445 181.729 212.073 183.676 211.364C183.946 211.265 184.186 211.089 184.44 210.95C184.764 210.776 184.94 210.168 184.764 209.794C184.64 209.533 184.546 209.238 184.36 209.028C183.577 208.155 182.708 207.391 181.64 206.858C180.727 206.404 179.864 205.849 178.954 205.389C177.915 204.861 176.789 204.484 175.809 203.869C174.317 202.934 172.779 202.113 171.147 201.473C170.185 201.095 169.372 200.46 168.457 200.028C167.546 199.597 166.525 199.4 165.573 199.046C164.975 198.825 164.715 198.292 164.637 197.684C164.6 197.396 164.635 197.099 164.601 196.809C164.417 195.204 162.959 194.113 161.523 194.537C160.405 194.867 159.293 195.226 158.21 195.651C157.389 195.975 156.732 196.576 156.112 197.199C155.791 197.523 155.66 197.935 155.6 198.374C155.499 199.103 155.502 199.834 155.703 200.544C156.179 202.228 156.687 203.902 157.151 205.59C157.423 206.573 157.631 207.575 157.877 208.566C158.135 209.598 158.763 210.367 159.553 211.063C160.238 211.666 160.997 212.041 161.885 212.162C162.462 212.241 163.045 212.286 163.626 212.318C165.3 212.407 166.818 212.053 167.99 210.739C168.085 210.632 168.214 210.555 168.332 210.466C168.856 210.072 169.377 210.099 169.887 210.568C170.312 210.96 170.668 211.46 171.15 211.755C171.789 212.145 172.568 212.006 173.292 212.024C174.166 212.046 175.043 212.029 175.918 212.029L175.919 212.033ZM204.688 133.162C204.669 133.162 204.651 133.162 204.633 133.162C204.695 135.354 204.753 137.544 204.827 139.736C204.83 139.816 204.989 139.961 205.063 139.952C205.184 139.939 205.363 139.848 205.397 139.751C205.723 138.782 206.08 137.819 206.325 136.83C207.56 131.859 208.575 126.838 209.567 121.813C209.939 119.927 209.79 118.005 210.102 116.14C210.441 114.119 210.851 112.112 210.95 110.061C211.035 108.305 211.153 106.555 211.384 104.811C211.459 104.238 211.407 103.645 211.392 103.061C211.374 102.406 210.709 101.629 210.062 101.496C209.053 101.288 208.046 101.092 207.081 101.677C206.814 101.838 206.519 101.818 206.229 101.717C205.955 101.622 205.675 101.543 205.395 101.468C204.983 101.357 204.505 101.716 204.433 102.125C204.252 103.16 204.378 104.161 204.768 105.126C204.803 105.213 205.06 105.314 205.105 105.277C205.313 105.104 205.497 104.898 205.66 104.682C205.886 104.379 206.111 104.31 206.343 104.533C206.442 104.628 206.539 104.759 206.566 104.888C206.957 106.77 206.779 108.678 206.786 110.575C206.791 112.036 206.774 113.508 206.61 114.957C206.477 116.122 206.338 117.281 206.335 118.454C206.33 120.375 205.67 122.19 205.459 124.075C204.562 125.536 204.701 127.17 204.688 128.775C204.676 130.24 204.686 131.703 204.686 133.167L204.688 133.162ZM181.98 107.118C182.257 107.046 182.555 107.019 182.805 106.892C183.192 106.694 183.567 106.455 183.911 106.187C185.069 105.282 186.327 104.595 187.688 104.012C190.116 102.971 192.222 101.376 194.268 99.7201C194.528 99.5089 194.575 99.2123 194.449 98.9508C193.871 97.7577 193.182 96.6736 192.066 95.8709C190.882 95.0196 189.809 94.0143 188.64 93.1395C186.768 91.7386 184.874 90.3712 183.177 88.7525C183.075 88.6553 182.934 88.5916 182.801 88.5296C182.671 88.4659 182.532 88.3805 182.396 88.3805C182.116 88.3805 181.794 88.3587 181.568 88.4861C181.31 88.6302 181.219 88.9636 181.255 89.2602C181.392 90.4181 181.65 91.5711 181.672 92.7307C181.734 95.9464 181.705 99.1637 181.7 102.379C181.7 103.261 181.543 104.117 181.273 104.963C181.144 105.366 181.176 105.821 181.151 106.254C181.129 106.622 181.675 107.187 181.98 107.118ZM212.632 112.571C212.59 113.563 212.537 114.29 212.54 115.018C212.54 115.299 212.617 115.609 212.75 115.857C213.705 117.665 214.724 119.443 216.118 120.948C217.324 122.248 218.331 123.643 218.938 125.32C219.084 125.725 219.318 126.114 219.582 126.458C219.843 126.8 220.18 127.086 220.507 127.369C220.605 127.456 220.813 127.527 220.915 127.48C221.189 127.356 221.329 127.086 221.282 126.779C221.195 126.208 221.153 125.606 220.941 125.08C220.505 124.001 220.001 122.945 219.466 121.91C218.058 119.188 216.689 116.452 215.469 113.64C215.009 112.578 214.437 111.561 213.879 110.542C213.72 110.252 213.386 110.217 213.095 110.378C212.989 110.436 212.867 110.564 212.854 110.672C212.755 111.391 212.684 112.112 212.634 112.571H212.632ZM200.028 177.664C200.168 177.672 200.321 177.719 200.448 177.684C201.408 177.414 202.369 177.143 203.319 176.841C203.94 176.644 204.467 175.831 204.457 175.182C204.447 174.457 204.286 173.775 203.914 173.143C203.681 172.747 203.332 172.528 202.905 172.436C202.022 172.245 201.063 172.6 200.629 173.257C200.075 174.095 199.594 174.968 199.369 175.956C199.307 176.231 199.312 176.521 199.287 176.803C199.247 177.24 199.627 177.684 200.028 177.666V177.664ZM147.005 65.812C146.397 65.8707 145.966 65.8924 145.542 65.9595C144.974 66.0483 144.409 66.1556 143.849 66.2863C143.528 66.3617 143.362 66.5795 143.405 66.8376C143.427 66.9649 143.521 67.1308 143.63 67.1844C145.17 67.9586 146.752 68.6389 148.406 69.1333C148.815 69.2556 149.242 69.3176 149.663 69.4064C150.024 69.4818 150.574 69.2271 150.767 68.892C151.057 68.3842 151.228 67.8497 151.122 67.2565C151.068 66.9599 150.914 66.6817 150.618 66.6113C149.366 66.3131 148.104 66.0533 147.007 65.8137L147.005 65.812ZM169.089 197.35C169.069 197.357 168.928 197.384 168.801 197.442C168.491 197.588 168.389 197.833 168.451 198.161C168.57 198.79 169 199.18 169.531 199.403C171.66 200.299 173.806 201.157 175.953 202.01C176.021 202.037 176.229 201.868 176.273 201.752C176.315 201.642 176.273 201.431 176.187 201.352C174.485 199.765 172.523 198.562 170.466 197.498C170.339 197.432 170.198 197.367 170.059 197.355C169.776 197.334 169.49 197.349 169.089 197.349V197.35ZM112.715 72.5417C112.715 72.9925 112.696 73.1416 112.72 73.2824C112.742 73.4181 112.778 73.5706 112.861 73.6745C113.037 73.9007 113.313 73.9359 113.605 73.7582C114.86 72.9874 115.91 71.9853 116.839 70.8509C116.929 70.7419 116.986 70.6012 117.04 70.4671C117.15 70.194 117.092 69.9158 116.827 69.713C116.343 69.3427 115.765 69.2355 115.175 69.2891C114.243 69.3746 113.489 69.7549 113.199 70.7252C112.991 71.4189 112.825 72.1244 112.716 72.54L112.715 72.5417ZM154.423 184.296C154.396 183.78 154.393 183.49 154.365 183.204C154.329 182.85 154.168 182.632 153.927 182.663C153.637 182.7 153.419 182.901 153.269 183.17C153.198 183.296 153.116 183.425 153.088 183.564C152.756 185.118 152.427 186.673 152.117 188.231C152.062 188.509 152.079 188.806 152.096 189.091C152.104 189.223 152.198 189.347 152.248 189.478C152.377 189.805 152.612 189.903 152.95 189.753C153.069 189.699 153.217 189.637 153.275 189.536C153.946 188.384 153.837 187.02 154.269 185.793C154.455 185.265 154.393 184.65 154.423 184.298V184.296ZM183.825 142.955C183.795 142.618 183.725 141.894 183.664 141.172C183.638 140.864 183.539 140.527 183.262 140.447C183.021 140.376 182.773 140.643 182.681 140.944C182.165 142.612 181.707 144.291 181.727 146.057C181.731 146.365 181.885 146.615 182.123 146.757C182.389 146.918 182.681 146.913 182.964 146.774C183.668 146.427 184.112 145.903 184.048 145.073C184.005 144.495 183.927 143.919 183.825 142.955ZM152.912 209.953C152.937 210.221 152.949 210.493 152.99 210.759C153.042 211.083 153.247 211.26 153.549 211.202C153.859 211.141 153.989 210.9 153.926 210.58C153.874 210.315 153.817 210.047 153.723 209.794C153.632 209.554 153.502 209.327 153.368 209.105C153.192 208.81 152.912 209.316 152.91 209.953H152.912ZM159.561 146.501C159.568 146.216 159.546 145.929 159.514 145.646C159.504 145.562 159.434 145.423 159.383 145.42C159.268 145.412 159.186 146.456 159.32 146.638C159.328 146.65 159.559 146.553 159.561 146.502V146.501ZM185.194 172.248C185.156 171.993 185.141 171.732 185.069 171.489C185.042 171.4 184.883 171.296 184.78 171.291C184.484 171.281 184.311 171.777 184.449 172.275C184.537 172.598 184.75 172.704 184.993 172.556C185.087 172.499 185.129 172.354 185.194 172.248Z" fill="#8DC0FF"/>
<path d="M114.945 47.0629C114.171 46.5938 113.764 45.781 113.16 45.1493C112.693 44.66 111.967 44.7438 111.781 45.3336C111.607 45.89 111.468 46.4631 111.238 46.9959C110.932 47.7081 110.369 48.1488 109.581 48.2577C108.411 48.4169 107.248 48.3432 106.082 48.1891C105.482 48.1103 104.923 48.2192 104.546 48.7756C104.046 49.5112 103.379 50.0692 102.684 50.6155C101.073 51.8807 99.5217 53.2128 98.1745 54.7712C97.7974 55.2069 97.3199 55.5638 96.854 55.9124C95.3291 57.0519 93.8729 58.2735 92.5039 59.594C91.8755 60.2006 91.3091 60.8759 90.741 61.5428C90.2635 62.1042 89.9199 62.751 89.6904 63.4531C88.8693 65.9599 88.2895 68.5255 87.9208 71.1362C87.8387 71.7127 87.7784 72.3025 87.8052 72.8823C87.956 76.1349 87.3108 79.2768 86.5216 82.397C86.3054 83.2499 86.0926 84.0912 86.0272 84.9743C85.9619 85.8456 85.8211 86.7136 85.7038 87.58C85.4692 89.3177 85.2112 91.052 84.9967 92.7931C84.9062 93.5321 84.7051 94.2225 84.3498 94.871C84.132 95.2698 83.7919 95.6217 83.3344 95.5479C82.205 95.367 81.3487 95.806 80.5795 96.5534C79.6327 97.4733 78.7496 98.4436 78.0726 99.5881C77.9068 99.8697 77.6554 99.9618 77.3487 100.009C76.9214 100.074 76.4489 100.119 76.0919 100.332C74.3358 101.378 72.5613 102.402 71.1838 103.968C70.6928 104.526 70.0309 104.848 69.3355 105.108C68.0972 105.572 66.837 105.922 65.5082 106.015C64.6368 106.075 63.7688 106.18 62.8974 106.259C62.4768 106.298 61.7093 105.723 61.6021 105.225C61.5451 104.96 61.5501 104.61 61.6792 104.387C62.1986 103.491 62.8572 102.712 63.866 102.325C64.6854 102.01 65.5216 101.736 66.3243 101.386C66.7164 101.215 67.0716 100.934 67.4017 100.654C67.7436 100.366 67.9648 99.9802 67.9396 99.5093C67.9078 98.9279 67.8307 98.3464 67.814 97.7649C67.7972 97.1633 67.9966 96.6003 68.3502 96.1261C68.7859 95.5429 69.2584 94.9816 69.7611 94.4537C70.7951 93.3662 71.519 92.1295 71.8089 90.6449C71.9211 90.0718 72.0736 89.5053 72.2328 88.9423C72.7908 86.9717 73.4008 85.0228 74.2503 83.1477C74.8519 81.8172 75.3362 80.4297 75.487 78.9568C75.5758 78.0854 75.6847 77.214 75.7132 76.3393C75.7551 75.0239 75.72 73.7068 75.7468 72.3897C75.7619 71.6607 75.7317 70.9049 75.9076 70.2095C76.3098 68.626 76.3182 67.0241 76.3031 65.4171C76.2863 63.485 76.7421 61.65 77.3906 59.8519C77.7375 58.8901 78.1196 57.9417 78.4564 56.9765C78.7178 56.2258 79.1602 55.7482 79.993 55.6359C80.231 55.6041 80.4974 55.346 80.6432 55.1231C82.0139 53.0369 83.3528 51.2338 84.6129 49.9117C85.5212 48.9599 86.4529 48.0282 87.393 47.1048C87.703 46.7999 88.0297 46.4731 88.4118 46.2838C90.0003 45.4979 90.974 43.8607 92.6765 43.2424C94.1561 42.0426 95.6022 40.8143 96.5825 39.1369C96.8758 38.6342 97.2042 38.1499 97.5444 37.6773C97.8913 37.1964 98.1544 36.6903 98.2801 36.1055C98.4041 35.534 98.59 34.976 98.7124 34.4046C98.9319 33.3774 99.4229 32.496 100.075 31.6883C100.35 31.3481 100.557 30.9493 100.849 30.6276C101.777 29.6004 102.972 29.091 104.334 29.0089C104.914 28.9737 105.501 29.0842 106.085 29.1094C106.508 29.1278 107.014 28.7441 107.051 28.3955C107.113 27.8174 107.22 27.241 107.242 26.6612C107.279 25.639 107.277 24.6134 107.272 23.5896C107.258 21.4732 107.848 19.5545 109.117 17.852C109.641 17.1482 110.161 16.4411 110.677 15.7322C111.029 15.2496 111.235 14.7084 111.304 14.1168C111.404 13.2455 111.503 12.3741 111.587 11.5011C111.786 9.39972 112.596 7.54972 113.906 5.91591C114.271 5.46011 114.695 5.04453 115.253 4.81663C117.554 3.87991 119.686 2.55943 122.075 1.82547C125.487 0.272087 129.101 -0.153563 132.793 0.0458466C134.39 0.132984 135.977 0.449676 137.564 0.699357C137.823 0.739574 137.961 1.05801 137.931 1.37471C137.919 1.50039 137.798 1.65956 137.683 1.72491C136.902 2.16395 135.975 2.05001 135.162 2.36337C134.759 2.51921 134.365 2.72197 133.998 2.95322C133.096 3.51794 133.029 4.5485 133.844 5.09311C134.692 5.66117 135.563 6.19738 136.391 6.79394C136.763 7.06205 136.853 7.51616 136.768 7.96358C136.714 8.24845 136.483 8.54002 136.526 8.79473C136.728 9.93421 136.972 11.0703 137.27 12.188C137.331 12.4126 137.668 12.6606 137.921 12.7226C139.053 12.9957 140.198 13.2354 141.347 13.4315C142.373 13.6058 143.315 13.9576 144.203 14.4939C144.699 14.7921 145.213 15.1825 145.756 15.2563C147.296 15.4674 148.451 16.2953 149.565 17.2722C149.885 17.552 150.314 17.7112 150.696 17.9173C150.963 18.0614 151.703 17.743 151.809 17.4448C152.089 16.6538 151.876 15.4607 151.348 15.0049C151.018 14.72 150.7 14.4016 150.323 14.1922C148.905 13.4096 147.6 12.4931 146.489 11.3033C146.179 10.9715 145.719 10.8844 145.279 10.8609C144.818 10.8358 144.426 10.7335 144.181 10.2995C144.039 10.0448 143.881 9.79853 143.715 9.55722C143.296 8.94559 142.809 8.43279 142.068 8.18311C141.517 7.9971 141.002 7.70888 140.469 7.46758C139.826 7.176 139.37 6.06335 140.245 5.26739C140.456 5.07468 140.701 4.89875 140.96 4.7848C141.222 4.66918 141.523 4.57363 141.805 4.58368C143.266 4.63731 144.322 4.00891 145.071 2.77894C145.237 2.50748 145.542 2.44883 145.853 2.48905C147.352 2.68175 148.662 3.3085 149.758 4.32063C150.507 5.01102 151.182 5.7885 151.831 6.57776C152.293 7.13913 152.702 7.75748 153.049 8.39928C153.907 9.98283 155.036 11.2614 156.663 12.1093C157.314 12.4478 157.731 13.0913 157.996 13.7985C158.716 15.7222 159.167 17.7246 159.619 19.717C159.876 20.8448 159.894 22.0413 159.889 23.2076C159.883 24.6721 159.864 26.1266 160.072 27.5828C160.154 28.1542 160.134 28.7575 160.053 29.3306C159.725 31.6615 159.809 34.0025 159.807 36.3418C159.807 37.8047 159.681 39.2441 159.438 40.7003C159.053 43.0011 158.919 45.3436 158.642 47.6645C158.557 48.3851 158.339 49.0822 157.823 49.6469C157.577 49.9167 157.345 49.9435 157.087 49.6486C156.898 49.4341 156.653 49.228 156.565 48.9716C156.229 47.9997 156.002 47.0043 156.179 45.9587C156.524 43.926 156.496 41.8799 156.404 39.8306C156.37 39.0983 156.209 38.3894 155.971 37.6907C155.725 36.9684 154.751 36.6903 154.2 37.2199C154.096 37.3204 153.954 37.384 153.862 37.4913C153.096 38.3744 152.323 39.2525 151.589 40.1607C151.417 40.3735 151.318 40.6868 151.288 40.965C151.16 42.1313 151.097 43.3026 151.45 44.4455C151.712 45.2934 151.822 46.1598 151.817 47.0412C151.804 49.2347 151.787 51.4282 151.759 53.6217C151.754 53.992 151.579 54.2115 151.353 54.1529C151.067 54.0792 150.921 53.8278 150.862 53.5044C150.629 52.2107 150.299 50.9272 150.175 49.6235C150.021 47.993 149.5 46.4899 148.913 44.9918C148.786 44.6667 148.065 44.4774 147.772 44.7254C147.551 44.9114 147.37 45.1426 147.15 45.3303C147.048 45.4174 146.899 45.4476 146.77 45.5046C146.733 45.3688 146.636 45.2197 146.666 45.1024C147.058 43.5407 147.541 42.009 148.178 40.526C148.409 39.9865 148.436 39.3748 148.315 38.7967C148.079 37.6521 147.787 36.5177 147.536 35.3766C147.191 33.8064 146.802 32.2463 146.825 30.6159C146.84 29.5853 146.566 28.5899 146.261 27.6097C146.024 26.8522 145.3 26.3529 144.613 26.5037C144.329 26.5657 144.039 26.616 143.757 26.6914C143.192 26.8422 142.628 26.9963 142.07 27.1672C139.27 28.0252 136.428 28.7073 133.56 29.2988C132.414 29.5351 131.266 29.7663 130.134 30.0562C127.717 30.6745 125.252 31.0147 122.776 31.132C120.564 31.2359 118.442 31.742 116.306 32.1994C115.27 32.4206 114.424 33.0373 113.894 33.9673C113.39 34.8521 112.949 35.7787 112.534 36.7104C112.289 37.2584 112.321 37.8633 112.527 38.423C112.678 38.8302 112.909 39.2106 113.123 39.5926C114.213 41.5415 114.674 43.6797 114.97 45.8581C115.027 46.2771 114.895 46.7228 114.844 47.1602C114.839 47.1652 114.943 47.0647 114.943 47.0647L114.945 47.0629ZM85.238 53.9065C86.0306 53.1156 86.8986 52.3917 87.5136 51.4399C87.6611 51.212 87.7465 50.9372 87.8186 50.6724C87.8471 50.5702 87.7884 50.4027 87.7097 50.3256C87.6359 50.2519 87.4583 50.1982 87.3712 50.2367C86.7109 50.5283 86.282 51.0997 85.801 51.6008C85.5028 51.9125 85.4039 52.3314 85.3821 52.757C85.3603 53.1776 85.362 53.5983 85.3453 54.0155C84.8291 54.0943 84.4169 54.3456 84.0935 54.7528C82.4814 56.7972 81.1761 59.056 79.6126 61.1339C79.4434 61.3585 79.8607 62.0991 80.1941 62.1862C80.7974 62.3421 81.8045 62.3337 82.3021 62.0639C82.5334 61.9382 82.7814 61.6836 82.8467 61.4406C83.2958 59.7615 83.7014 58.0707 84.1153 56.3816C84.2577 55.8018 84.1739 55.2338 84.0064 54.6824C84.6113 54.7344 84.9715 54.3975 85.2363 53.9099L85.238 53.9065ZM89.0301 58.9773C88.5911 59.0627 88.1454 59.2253 87.9392 59.6124C87.2572 60.8976 86.6288 62.2097 85.9904 63.5185C85.605 64.3094 85.3938 65.1506 85.2581 66.022C85.0336 67.4664 84.8961 68.9109 84.9849 70.3721C85.0553 71.535 85.1291 72.698 85.2162 73.8593C85.2263 73.995 85.3017 74.1492 85.3972 74.2464C85.4307 74.2816 85.6955 74.1961 85.7089 74.1341C86.0742 72.44 86.5182 70.7575 86.5166 69.0064C86.5166 67.8217 86.7696 66.6738 87.2974 65.6315C87.8404 64.5624 88.1118 63.4665 88.1487 62.2817C88.1856 61.1037 88.4788 59.9877 89.062 58.9471C89.0167 58.8231 88.9396 58.7024 88.9329 58.5768C88.9095 58.183 88.953 58.1847 89.0134 58.5852C89.0335 58.7142 89.0251 58.8466 89.0301 58.9773ZM126.035 14.8625C126.729 14.5374 127.441 14.467 128.138 14.8122C129.576 15.5278 130.866 16.4712 132.104 17.4867C132.205 17.5688 132.279 17.7431 132.277 17.8738C132.273 18.1586 132.24 18.4485 132.173 18.725C132.024 19.3417 132.027 19.3383 132.719 19.6081C133.77 20.017 133.941 20.7191 133.155 21.5704C132.961 21.7798 132.776 22.001 132.624 22.2407C132.557 22.3462 132.545 22.5171 132.57 22.6462C132.632 22.978 132.855 23.159 133.193 23.1757C134.797 23.2629 136.394 23.1723 137.986 22.9679C138.517 22.8992 138.74 22.1016 138.356 21.5704C137.761 20.7459 137.011 19.9952 136.59 19.0903C136.062 17.9558 135.218 17.2119 134.239 16.5784C133.262 15.9467 132.258 15.3217 131.193 14.8675C129.19 14.0146 127.322 12.8114 125.105 12.488C124.669 12.4243 124.322 12.0172 124.292 11.5714C124.23 10.6598 123.96 9.87223 123.332 9.1986C123.136 8.98913 122.992 8.72435 122.858 8.46629C122.442 7.6653 121.706 7.67034 120.971 7.72564C120.361 7.77089 119.887 8.09431 119.513 8.57692C119.119 9.08633 119.179 9.74149 119.627 10.1252C120.177 10.5978 120.934 10.814 121.341 11.4424C121.479 11.6552 121.524 12.0138 121.45 12.2585C121.281 12.8249 120.927 13.3091 120.435 13.6442C119.59 14.2173 118.714 14.7452 117.864 15.3116C117.502 15.5529 117.164 15.8344 116.835 16.1193C116.264 16.6136 115.939 17.2504 115.774 17.9844C115.64 18.5776 116.178 19.1406 116.768 19.0585C118.099 18.8741 119.278 18.3077 120.438 17.6861C121.47 17.1331 123.67 16.2416 124.835 15.9316C124.974 15.8948 125.11 15.831 125.237 15.7623C125.634 15.5479 125.923 15.2395 126.031 14.7887V14.8625H126.035ZM74.6475 94.9715C74.0292 96.1412 73.8281 96.5266 73.6219 96.9086C73.4527 97.2237 73.4745 97.4952 73.7443 97.651C73.994 97.7968 74.2755 97.7499 74.5469 97.6024C75.9076 96.8651 76.7606 95.7977 76.8996 94.1957C77.1259 91.595 77.709 89.0563 78.3056 86.5209C78.8653 85.2809 78.9357 84.0241 78.5536 82.7087C78.3927 82.1557 78.5704 81.5642 78.686 80.9927C78.7413 80.7213 78.7044 80.418 78.6508 80.1398C78.5938 79.8483 78.3592 79.6873 78.0442 79.6672C77.7057 79.6454 77.4861 79.8113 77.3906 80.1415C77.2716 80.5554 77.1192 80.9643 77.0404 81.3865C76.6969 83.2332 76.479 85.1116 76.0115 86.9247C75.6077 88.4865 75.3781 90.0382 75.3882 91.6402C75.3915 92.0742 75.3362 92.5066 75.3027 92.9406C75.2591 93.5254 75.0798 94.075 74.8285 94.5995C74.6408 94.9917 74.4464 95.3787 74.6475 94.9715ZM90.1847 53.1324C90.0221 53.4491 90.1528 53.7172 90.4612 53.7943C90.5852 53.8244 90.7461 53.7624 90.8751 53.7071C91.4331 53.4675 91.9257 53.3921 92.3966 53.9401C92.8424 54.4579 93.4255 54.4311 93.8595 54.0306C94.6471 53.305 95.133 52.4202 94.9839 51.3544C94.8029 50.0759 94.5734 48.8141 94.6773 47.5137C94.7041 47.1752 94.446 47.016 94.0824 47.0797C93.95 47.1032 93.7891 47.1517 93.7054 47.2456C93.325 47.6712 92.8943 48.0751 92.6178 48.5627C91.7699 50.0642 90.9706 51.5941 90.1847 53.1307V53.1324ZM150.602 30.3444C150.634 31.4973 150.648 32.5144 150.7 33.5282C150.713 33.8098 150.84 34.0862 150.909 34.3661C151.02 34.8101 151.573 35.0465 151.883 34.77C152.097 34.5806 152.404 34.4046 152.478 34.1633C152.905 32.7792 153.319 31.3867 153.646 29.9758C153.813 29.2535 153.615 28.5263 153.114 27.9381C152.834 27.6096 152.54 27.2779 152.194 27.0265C151.98 26.869 151.623 26.7416 151.397 26.8137C151.181 26.8824 150.936 27.2075 150.901 27.4488C150.757 28.4509 150.686 29.4646 150.602 30.3444ZM158.834 31.876C158.728 30.956 158.716 29.9305 158.473 28.9619C158.19 27.8308 158.188 26.6729 157.944 25.5485C157.868 25.205 157.617 25.0793 157.327 25.1313C157.044 25.1832 156.744 25.329 156.69 25.6256C156.588 26.1886 156.573 26.7684 156.558 27.3432C156.55 27.628 156.566 27.9347 156.663 28.1978C157.267 29.8266 157.22 31.6129 157.893 33.2199C157.93 33.3087 158.121 33.3741 158.242 33.3774C158.346 33.3808 158.525 33.3004 158.545 33.2233C158.656 32.8127 158.726 32.3904 158.832 31.8743L158.834 31.876ZM81.8933 82.7422C81.8815 82.8528 81.9519 82.4255 81.967 81.9965C81.977 81.6899 81.7927 81.4603 81.5112 81.3279C81.1342 81.1519 80.4723 81.3715 80.3583 81.6865C79.9578 82.8076 79.9444 83.942 80.2444 85.0815C80.3298 85.4065 80.5862 85.5742 80.9197 85.5289C81.2096 85.4904 81.4274 85.2876 81.4911 84.9876C81.6134 84.4212 81.6989 83.8481 81.8933 82.7422ZM83.4467 72.3008C83.5522 71.964 83.6846 71.5602 83.8052 71.153C83.8455 71.019 83.8739 70.8782 83.8823 70.7391C83.9041 70.3972 83.7433 70.1844 83.4483 70.2397C83.1651 70.2917 82.9825 70.5329 82.9188 70.8312C82.711 71.8148 82.7831 72.8069 82.8451 73.7972C82.8501 73.8659 82.9624 73.9263 83.0244 73.9899C83.0897 73.871 83.1886 73.7587 83.2154 73.6314C83.3009 73.2141 83.3612 72.7935 83.4433 72.3008H83.4467ZM144.84 19.0903C144.885 19.3701 144.918 19.6517 144.977 19.9299C145.049 20.2767 145.245 20.441 145.512 20.3555C145.631 20.317 145.741 20.1896 145.813 20.0757C146.269 19.3534 146.241 19.1121 145.636 18.6144C145.538 18.534 145.379 18.472 145.26 18.4887C144.959 18.5306 144.821 18.7535 144.838 19.0886L144.84 19.0903ZM79.8757 91.8815C79.8556 91.7508 79.8573 91.6117 79.8104 91.4911C79.7651 91.3738 79.688 91.2046 79.5942 91.1811C79.3127 91.1091 79.1334 91.2799 79.073 91.61C79.0496 91.7407 79.0077 91.8681 78.9809 91.9971C78.9205 92.2887 78.9993 92.5334 79.2423 92.6842C79.5272 92.8601 79.864 92.4311 79.8757 91.8815ZM147.975 22.0362L148.114 21.8334L147.906 21.8L147.975 22.0362Z" fill="#8DC0FF"/>
<path d="M158.906 156.662C159.013 158.215 158.792 159.737 158.466 161.247C158.44 161.367 158.321 161.489 158.213 161.568C157.949 161.759 157.697 161.712 157.49 161.459C157.401 161.352 157.315 161.24 157.228 161.129C157.228 161.129 157.159 161.252 157.159 161.25C157.774 160.625 158.172 159.908 158.167 158.998C158.165 158.575 158.198 158.148 158.274 157.734C158.353 157.304 158.634 156.992 159.021 156.782L158.906 156.66V156.662Z" fill="#8DC0FF"/>
<path d="M157.617 168.729C157.277 167.739 157.319 166.715 157.342 165.692C157.344 165.582 157.459 165.372 157.496 165.379C157.811 165.424 157.915 165.652 157.868 166.018C157.759 166.887 157.669 167.759 157.582 168.647C157.594 168.665 157.617 168.73 157.617 168.73V168.729Z" fill="#8DC0FF"/>
<path d="M241.245 167.664L241.407 167.773L241.099 167.768L241.245 167.664Z" fill="#8DC0FF"/>
<path d="M223.225 169.379L223.495 169.541L223.183 169.622L223.225 169.379Z" fill="#8DC0FF"/>
<path d="M193.945 173.083C193.822 173.142 193.697 173.252 193.576 173.247C193.162 173.231 193.056 173.053 193.313 172.84C193.397 172.77 193.594 172.788 193.718 172.83C193.812 172.862 193.871 172.996 193.946 173.083H193.945Z" fill="#8DC0FF"/>
<path d="M126.033 14.7887L126.271 14.5859C126.271 14.5859 126.047 14.8373 126.042 14.8507C126.037 14.8624 126.033 14.7903 126.033 14.7903V14.7887Z" fill="#8DC0FF"/>
<path d="M115.253 183.855C126.854 182.526 138.375 180.606 149.917 178.851C161.528 177.085 173.163 175.544 184.834 174.238C191.331 173.511 197.826 172.785 204.322 172.058C204.56 172.031 204.564 171.654 204.322 171.681C192.661 172.985 180.981 174.188 169.345 175.706C157.801 177.213 146.308 179.052 134.799 180.804C128.297 181.794 121.789 182.729 115.253 183.478C115.016 183.505 115.012 183.882 115.253 183.855Z" fill="#8DC0FF"/>
<path d="M205.493 171.607C207.853 171.63 210.222 171.639 212.565 171.303C213.743 171.134 214.897 170.849 216.054 170.574C217.21 170.3 218.343 170.08 219.511 169.946C221.897 169.673 224.298 169.515 226.691 169.309C229.102 169.102 231.515 168.895 233.927 168.688C236.643 168.455 239.361 168.22 242.077 167.987C242.317 167.967 242.319 167.59 242.077 167.61C237.253 168.024 232.43 168.44 227.606 168.854C225.205 169.06 222.802 169.247 220.402 169.477C219.226 169.589 218.054 169.742 216.9 169.993C215.745 170.244 214.651 170.546 213.513 170.764C210.874 171.27 208.173 171.257 205.495 171.228C205.252 171.226 205.252 171.603 205.495 171.605L205.493 171.607Z" fill="#8DC0FF"/>
<path d="M146.928 44.287C145.178 46.1454 143.12 47.6904 140.848 48.8533C140.56 49.0008 140.815 49.4349 141.101 49.2874C143.409 48.1077 145.507 46.5308 147.283 44.6439C147.504 44.4077 147.151 44.0525 146.928 44.2888V44.287Z" fill="#8DC0FF"/>
<path d="M141.356 49.6569C142.515 48.8677 143.695 48.1036 144.828 47.2775C145.808 46.5636 146.738 45.7525 147.343 44.6851C147.502 44.4036 147.068 44.1489 146.909 44.4321C146.324 45.4644 145.414 46.2419 144.463 46.9256C143.362 47.7165 142.224 48.4605 141.103 49.223C140.836 49.4039 141.088 49.8396 141.356 49.6569Z" fill="#8DC0FF"/>
<path d="M114.505 45.4731C114.905 46.4936 115.321 47.5091 115.75 48.5196L116.145 48.2145C115.416 47.442 114.791 46.5857 114.273 45.6591C114.116 45.3759 113.682 45.629 113.839 45.9122C114.376 46.874 115.032 47.7671 115.788 48.5698C115.874 48.6603 116.023 48.6653 116.118 48.5899C116.224 48.5061 116.234 48.3855 116.184 48.2649C115.773 47.2946 115.374 46.3193 114.989 45.3374C114.939 45.2117 114.82 45.1229 114.679 45.1614C114.558 45.1949 114.453 45.3441 114.503 45.4715L114.505 45.4731Z" fill="#8DC0FF"/>
<path d="M137.145 2.29021C138.541 2.62367 139.937 2.95709 141.333 3.29056C142.031 3.45646 142.729 3.62402 143.427 3.78992C143.751 3.867 144.074 3.94244 144.394 4.03293C144.54 4.07315 144.684 4.11836 144.827 4.16695C144.899 4.19209 144.967 4.21889 145.039 4.24403C145.123 4.27754 145.133 4.28091 145.068 4.25409C145.115 4.2742 145.16 4.29433 145.205 4.31612L145.787 2.93865C142.946 2.08403 140.064 1.37018 137.153 0.802115L136.952 2.2835C137.152 2.2835 137.349 2.28851 137.549 2.30526C137.648 2.31364 137.747 2.32369 137.844 2.33709C137.696 2.31698 137.985 2.36221 138.011 2.36557C138.38 2.43092 138.744 2.51973 139.104 2.61692C139.856 2.82136 140.595 3.07109 141.354 3.25374C142.114 3.43639 142.829 3.50672 143.57 3.61899C143.92 3.67262 144.27 3.73634 144.614 3.83018C144.795 3.88045 144.971 3.93906 145.147 4.00609C145.229 4.03961 145.234 4.04125 145.16 4.01108C145.204 4.02952 145.245 4.04968 145.287 4.07147C145.373 4.11336 145.455 4.15857 145.537 4.20549L146.118 2.8281C144.682 2.31366 143.22 1.88465 141.733 1.54113C141.349 1.45232 140.899 1.66013 140.805 2.06733C140.718 2.45274 140.92 2.90016 141.331 2.99568C142.816 3.3392 144.28 3.76813 145.716 4.28257C146.07 4.40992 146.47 4.16864 146.606 3.84523C146.75 3.50506 146.626 3.09114 146.298 2.90346C144.904 2.10247 143.278 2.16785 141.757 1.7992C140.161 1.41378 138.621 0.760235 136.954 0.773641C136.577 0.776992 136.264 1.05849 136.213 1.42715C136.166 1.77235 136.384 2.18289 136.753 2.25494C139.664 2.82301 142.546 3.53519 145.386 4.39147C145.746 4.50039 146.134 4.29095 146.276 3.95414C146.41 3.63575 146.309 3.16988 145.968 3.01237C145.306 2.70571 144.617 2.52311 143.91 2.35387C143.203 2.18462 142.514 2.0204 141.815 1.85451C140.393 1.51434 138.97 1.17416 137.547 0.835661C137.163 0.743497 136.713 0.956336 136.619 1.36186C136.525 1.76738 136.735 2.19134 137.145 2.29021Z" fill="#8DC0FF"/>
<path d="M159.499 143.829C158.959 147.091 158.505 150.369 158.138 153.655C158.034 154.588 157.937 155.524 157.847 156.46H158.852C158.799 154.878 158.747 153.295 158.693 151.713C158.671 151.066 157.713 151.066 157.688 151.713C157.637 152.975 157.996 154.196 158.205 155.43C158.415 156.663 158.286 157.903 158.07 159.141C157.622 161.71 157.161 164.277 156.707 166.846C156.451 168.296 156.195 169.744 155.938 171.193C155.891 171.46 156.01 171.734 156.29 171.811C156.551 171.884 156.838 171.724 156.908 171.46C157.659 168.638 157.89 165.673 157.565 162.771C157.471 161.93 157.336 161.094 157.155 160.267L156.185 160.536C156.386 161.174 156.32 161.841 156.205 162.489C156.071 163.244 155.915 163.994 155.771 164.745C155.479 166.245 155.189 167.744 154.898 169.246C154.732 170.106 154.564 170.964 154.398 171.823L155.385 171.957C155.72 169.35 156.057 166.742 156.392 164.135L155.637 164.569C155.677 164.596 155.74 164.644 155.806 164.727C155.761 164.671 155.829 164.767 155.841 164.785C155.853 164.807 155.864 164.829 155.876 164.851C155.915 164.923 155.856 164.79 155.885 164.866C155.921 164.96 155.945 165.06 155.963 165.159C155.973 165.218 155.963 165.166 155.963 165.156C155.968 165.191 155.97 165.226 155.972 165.261C155.975 165.325 155.977 165.388 155.977 165.452C155.972 165.89 155.868 166.317 155.737 166.776C155.372 168.073 155.146 169.4 155.097 170.747C155.068 171.517 155.099 172.286 155.182 173.05C155.213 173.32 155.392 173.553 155.685 173.553C155.957 173.553 156.19 173.323 156.188 173.05C156.181 171.892 156.176 170.734 156.169 169.576C156.166 168.929 155.164 168.928 155.164 169.576C155.164 170.335 155.164 171.094 155.164 171.853C155.164 172.5 156.169 172.502 156.169 171.853C156.169 171.094 156.169 170.335 156.169 169.576H155.164C155.171 170.734 155.176 171.892 155.182 173.05H156.188C156.035 171.647 156.059 170.22 156.295 168.827C156.407 168.167 156.578 167.527 156.751 166.882C156.888 166.369 157.006 165.823 156.979 165.288C156.947 164.639 156.696 164.066 156.144 163.699C155.791 163.465 155.432 163.788 155.389 164.133C155.053 166.741 154.717 169.348 154.381 171.956C154.35 172.2 154.598 172.423 154.817 172.45C155.037 172.477 155.32 172.339 155.368 172.09C155.967 169.005 156.598 165.923 157.161 162.833C157.316 161.985 157.418 161.107 157.155 160.269C156.96 159.651 156.047 159.904 156.185 160.537C156.778 163.255 156.872 166.096 156.438 168.845C156.312 169.636 156.144 170.421 155.94 171.195L156.91 171.463C157.369 168.866 157.83 166.268 158.289 163.671C158.522 162.359 158.753 161.047 158.986 159.735C159.219 158.423 159.432 157.172 159.281 155.879C159.119 154.488 158.641 153.129 158.696 151.716H157.691C157.745 153.298 157.797 154.882 157.85 156.464C157.859 156.735 158.075 156.966 158.353 156.966C158.646 156.966 158.829 156.735 158.856 156.464C159.167 153.248 159.559 150.039 160.04 146.843C160.178 145.927 160.322 145.014 160.473 144.099C160.516 143.83 160.402 143.557 160.121 143.48C159.879 143.415 159.548 143.562 159.502 143.832L159.499 143.829Z" fill="#8DC0FF"/>
<path d="M157.391 160.713C156.866 161.673 156.444 162.691 156.137 163.741C156.063 163.994 156.226 164.299 156.489 164.36C156.752 164.42 157.029 164.279 157.107 164.008C157.404 162.992 157.754 162.144 158.259 161.221C158.384 160.99 158.322 160.663 158.078 160.534C157.833 160.405 157.525 160.469 157.391 160.715V160.713Z" fill="#8DC0FF"/>
<path d="M183.9 175.131C183.217 176.89 182.91 178.796 183.001 180.681C183.014 180.952 183.222 181.184 183.503 181.184C183.765 181.184 184.019 180.954 184.006 180.681C183.919 178.874 184.214 177.085 184.869 175.399C184.968 175.146 184.76 174.848 184.517 174.781C184.232 174.702 183.998 174.878 183.899 175.133L183.9 175.131Z" fill="#8DC0FF"/>
<path d="M185.487 172.607C185.563 172.143 185.595 171.676 185.558 171.206C185.548 171.071 185.509 170.95 185.41 170.851C185.323 170.764 185.181 170.699 185.055 170.704C184.797 170.715 184.534 170.925 184.552 171.206C184.576 171.567 184.566 171.927 184.519 172.286L185.156 171.801L185.137 171.795L185.258 171.845C185.228 171.831 185.199 171.816 185.172 171.796L185.275 171.875C185.249 171.853 185.226 171.831 185.206 171.805L185.285 171.907C185.27 171.885 185.256 171.863 185.244 171.84L185.295 171.96C185.285 171.935 185.276 171.912 185.271 171.885C185.234 171.716 185.082 171.578 184.919 171.533C184.757 171.488 184.537 171.526 184.43 171.662C184.36 171.751 184.289 171.84 184.219 171.929L185.008 172.539C185.263 172.106 185.397 171.602 185.388 171.101C185.383 170.838 185.161 170.586 184.886 170.598C184.611 170.61 184.378 170.819 184.383 171.101C184.385 171.215 184.38 171.327 184.365 171.441L184.383 171.307C184.355 171.508 184.301 171.704 184.222 171.892L184.272 171.771C184.234 171.86 184.19 171.947 184.14 172.031C184.013 172.247 184.075 172.528 184.269 172.679C184.355 172.745 184.464 172.792 184.574 172.787C184.698 172.782 184.849 172.741 184.929 172.639C185 172.55 185.07 172.461 185.14 172.373L184.301 172.151C184.333 172.299 184.413 172.426 184.512 172.539C184.611 172.651 184.748 172.719 184.887 172.77C185.035 172.823 185.208 172.77 185.326 172.679C185.382 172.644 185.424 172.597 185.456 172.539C185.501 172.46 185.524 172.376 185.524 172.286C185.569 171.927 185.581 171.567 185.558 171.206H184.552C184.581 171.577 184.572 171.949 184.524 172.316L184.542 172.182C184.536 172.234 184.527 172.287 184.519 172.339C184.497 172.477 184.497 172.602 184.569 172.726C184.629 172.83 184.75 172.931 184.869 172.957C184.998 172.986 185.142 172.981 185.256 172.907C185.36 172.84 185.467 172.733 185.487 172.607Z" fill="#8DC0FF"/>
<path d="M193.045 90.336C192.659 90.2422 192.272 90.1484 191.887 90.0546C191.687 90.006 191.485 90.0729 191.359 90.2355C191.304 90.3075 191.272 90.383 191.26 90.4735C191.247 90.5741 191.255 90.7097 191.32 90.7935C191.706 91.3046 192.093 91.8174 192.478 92.3285C192.56 92.4374 192.643 92.5212 192.778 92.5597C192.899 92.5932 193.058 92.5782 193.165 92.5095C193.273 92.4408 193.366 92.3369 193.397 92.2095C193.427 92.0822 193.425 91.928 193.346 91.8224C192.961 91.3113 192.574 90.7985 192.188 90.2874L191.62 91.0265C192.006 91.1203 192.393 91.2142 192.778 91.308C193.033 91.37 193.335 91.2276 193.397 90.9561C193.459 90.6846 193.32 90.4048 193.045 90.3378V90.336Z" fill="#8DC0FF"/>
<path d="M124.681 158.411C124.549 159.469 124.19 160.494 123.801 161.481C123.394 162.519 122.96 163.544 122.536 164.575C122.442 164.802 122.62 165.084 122.828 165.168C123.074 165.267 123.305 165.171 123.456 164.962C124.768 163.148 125.524 160.97 125.66 158.74C125.688 158.26 124.926 158.028 124.723 158.487C123.966 160.194 123.208 161.902 122.451 163.609C122.34 163.857 122.379 164.149 122.632 164.296C122.885 164.444 123.171 164.343 123.319 164.115C124.562 162.212 125.792 160.229 126.035 157.92C126.089 157.418 125.321 157.247 125.098 157.667C124.172 159.408 123.126 161.082 121.966 162.676C121.807 162.896 121.93 163.236 122.147 163.363C122.402 163.512 122.675 163.403 122.835 163.182C123.994 161.588 125.041 159.914 125.966 158.173L125.03 157.92C124.808 160.028 123.58 161.878 122.451 163.609L123.319 164.117C124.076 162.41 124.834 160.702 125.591 158.994L124.654 158.741C124.529 160.801 123.795 162.787 122.587 164.456L123.505 164.843C123.937 163.789 124.385 162.738 124.798 161.677C125.212 160.617 125.542 159.544 125.685 158.413C125.718 158.143 125.43 157.91 125.182 157.91C124.882 157.91 124.713 158.142 124.679 158.413L124.681 158.411Z" fill="#8DC0FF"/>
<path d="M147.055 19.5769C146.897 19.5434 146.746 19.4965 146.595 19.4412C146.493 19.4043 146.681 19.4831 146.589 19.4379C146.547 19.4177 146.507 19.3994 146.465 19.3793C146.399 19.3458 146.334 19.3088 146.27 19.2703C146.207 19.2317 146.146 19.1899 146.084 19.1463C146.041 19.1145 146.047 19.1195 146.104 19.1631C146.086 19.1497 146.069 19.1346 146.051 19.1195C146.024 19.0977 145.999 19.0759 145.972 19.0525C145.853 18.9452 145.742 18.8279 145.644 18.7039L145.288 19.5619C145.307 19.5619 145.33 19.5669 145.349 19.5635C145.257 19.5769 145.262 19.5484 145.32 19.5635C145.344 19.5686 145.466 19.6105 145.389 19.582C145.312 19.5535 145.392 19.587 145.411 19.5971C145.426 19.6055 145.446 19.6256 145.463 19.6306C145.444 19.6273 145.382 19.5602 145.434 19.6088C145.453 19.6255 145.471 19.6423 145.489 19.6607C145.503 19.6758 145.516 19.6909 145.53 19.706C145.568 19.7462 145.464 19.6038 145.515 19.6909C145.535 19.7244 145.55 19.7664 145.573 19.7982C145.56 19.7798 145.538 19.6976 145.555 19.7629C145.562 19.7864 145.567 19.8133 145.573 19.8367C145.592 19.892 145.57 19.7345 145.568 19.7931C145.568 19.8183 145.568 19.8451 145.568 19.8702C145.568 19.9406 145.568 19.8467 145.577 19.8283C145.568 19.8451 145.568 19.8702 145.563 19.887C145.558 19.9071 145.523 19.9875 145.56 19.9121C145.597 19.8367 145.56 19.9071 145.553 19.9205C145.543 19.939 145.533 19.9556 145.523 19.9724C145.498 20.0126 145.461 20.0244 145.54 19.9573C145.51 19.9825 145.483 20.0177 145.456 20.0462C145.394 20.1082 145.525 20.0026 145.474 20.0344C145.458 20.0461 145.441 20.0579 145.424 20.068C145.407 20.078 145.387 20.0863 145.37 20.0981C145.32 20.1299 145.478 20.0629 145.392 20.0897C145.357 20.1015 145.307 20.1048 145.275 20.1216C145.307 20.1048 145.391 20.1115 145.303 20.1148C145.278 20.1148 145.253 20.1149 145.226 20.1132L145.711 20.4818C145.634 20.0679 145.556 19.6541 145.479 19.2402L144.509 19.5083C144.531 19.572 144.551 19.6373 144.566 19.7043C144.575 19.7379 144.58 19.7713 144.586 19.8048C144.608 19.9137 144.581 19.7043 144.586 19.8048C144.59 19.8735 144.595 19.9406 144.593 20.0093C144.593 20.0428 144.59 20.078 144.588 20.1115C144.586 20.135 144.585 20.1568 144.581 20.1786C144.591 20.1065 144.593 20.0898 144.586 20.13C144.573 20.197 144.559 20.264 144.541 20.3294C144.531 20.3629 144.521 20.3947 144.511 20.4266C144.506 20.4417 144.461 20.5522 144.494 20.4768C144.528 20.4014 144.477 20.5103 144.469 20.5254C144.454 20.5556 144.437 20.5858 144.42 20.6159C144.383 20.6796 144.342 20.7399 144.296 20.7985C144.223 20.8957 144.214 21.0751 144.246 21.1856C144.278 21.3029 144.368 21.4286 144.477 21.4856C144.595 21.5476 144.735 21.5777 144.864 21.5358C144.993 21.494 145.081 21.4152 145.164 21.3046C145.598 20.7332 145.716 19.9138 145.479 19.2402C145.392 18.9922 145.131 18.8011 144.861 18.8883C144.591 18.9754 144.459 19.2284 144.509 19.5066C144.586 19.9205 144.663 20.3344 144.74 20.7483C144.782 20.9729 145.017 21.1052 145.225 21.1169C145.925 21.1588 146.543 20.5539 146.572 19.8668C146.6 19.1798 145.969 18.5665 145.285 18.5547C145.084 18.5514 144.901 18.6838 144.826 18.8631C144.742 19.0625 144.799 19.2485 144.93 19.4127C145.387 19.9858 146.066 20.3964 146.783 20.5456C147.039 20.5992 147.338 20.4701 147.401 20.1936C147.458 19.9423 147.326 19.6323 147.05 19.5753L147.055 19.5769Z" fill="#8DC0FF"/>
<path d="M157.818 154.58C158.163 156.231 157.795 157.972 156.855 159.364L157.791 159.617C157.776 158.107 158.071 156.594 158.683 155.21C158.792 154.962 158.755 154.67 158.502 154.523C158.286 154.397 157.927 154.454 157.815 154.704C156.583 157.425 156.196 160.405 156.065 163.364C156.04 163.941 156.898 164.034 157.052 163.498C157.659 161.393 158.267 159.287 158.874 157.182C159.053 156.559 158.083 156.294 157.904 156.914C157.297 159.019 156.689 161.125 156.082 163.23L157.069 163.364C157.191 160.594 157.526 157.762 158.681 155.212L157.813 154.704C157.128 156.254 156.769 157.921 156.786 159.619C156.791 160.138 157.451 160.276 157.723 159.872C158.815 158.253 159.187 156.219 158.787 154.314C158.731 154.047 158.418 153.893 158.168 153.962C157.893 154.037 157.761 154.314 157.816 154.58H157.818Z" fill="#8DC0FF"/>
<path d="M159.044 155.445C158.702 157.037 158.287 158.61 157.799 160.164C157.605 160.782 158.575 161.047 158.77 160.432C159.257 158.878 159.673 157.305 160.015 155.713C160.072 155.448 159.936 155.17 159.663 155.095C159.411 155.026 159.101 155.178 159.044 155.446V155.445Z" fill="#8DC0FF"/>
</svg>
