<svg width="59" height="30" viewBox="0 0 59 30" fill="none" xmlns="http://www.w3.org/2000/svg">
<path d="M58.6116 25.1689C58.4429 25.3954 58.3627 25.5232 58.2633 25.6336C57.7375 26.2173 57.188 26.7815 56.6837 27.3835C56.3371 27.7973 55.944 28.0984 55.4072 28.1827C54.887 28.2645 54.4324 28.5036 53.9766 28.7452C53.2052 29.1537 52.3978 29.4499 51.5323 29.6034C49.8932 29.8947 48.4016 29.5509 47.0652 28.5823C46.6077 28.2507 46.1996 27.8434 45.8057 27.4352C45.3161 26.9277 44.8554 26.3957 44.266 25.9929C43.7837 25.6634 43.5394 25.2002 43.5825 24.6035C43.6286 23.9709 43.5006 23.364 43.319 22.7628C43.0705 21.94 43.0347 21.114 43.2823 20.2798C43.3988 19.8867 43.4143 19.4818 43.3674 19.0708C43.3141 18.6024 43.0522 18.3242 42.6119 18.2293C42.3504 18.1727 42.0738 18.1661 41.8041 18.1678C41.2811 18.1714 40.7797 18.0761 40.295 17.8875C39.6384 17.6317 38.9814 17.3776 38.3297 17.1112C38.0841 17.0106 37.8095 16.9328 37.7024 16.6497C37.7183 16.5878 37.7154 16.5218 37.7468 16.488C38.7639 15.4077 39.8771 14.4856 41.3903 14.176C42.0652 14.0379 42.7451 13.9654 43.4062 14.1344C44.0241 14.2929 44.6485 14.22 45.264 14.3149C45.4982 14.3511 45.6855 14.2395 45.8367 14.0685C45.9263 13.967 46.0248 13.8676 46.0896 13.7507C46.3112 13.3495 46.6387 13.1679 47.1067 13.2616C47.4574 12.8689 47.7552 12.4408 48.2183 12.2151C49.3877 12.7092 49.3315 12.4815 50.048 11.9373C50.5873 11.5276 51.0846 11.0632 51.6158 10.642C51.9335 10.3903 52.2602 10.1366 52.6178 9.95122C53.6923 9.39522 54.8243 9.94715 55.0198 11.1382C55.1066 11.6685 55.0789 12.218 55.0919 12.7593C55.0996 13.0844 55.0825 13.4098 55.0842 13.7349C55.0858 14.0277 55.2133 14.2526 55.4638 14.4114C55.6467 14.5275 55.8275 14.6485 56.0002 14.7792C56.4185 15.097 56.7464 15.4933 56.9481 15.9788C57.2694 16.7519 56.9811 17.389 56.1966 17.6611C56.0178 17.723 55.8267 17.7499 55.6467 17.8085C55.0064 18.0183 54.6422 18.5816 54.7131 19.2472C54.7245 19.3547 54.7562 19.4598 54.7725 19.5669C54.8564 20.1164 54.7339 20.3702 54.2406 20.6142C54.0475 20.7095 53.8324 20.76 53.6353 20.8476C53.3893 20.9567 53.1164 21.0423 52.9176 21.2117C52.5274 21.5437 52.0891 21.584 51.6199 21.5392C51.4586 21.5237 51.3001 21.4818 51.1404 21.4508C50.5559 21.3384 49.9783 21.2133 49.3731 21.2109C48.7771 21.2085 48.3107 20.9335 47.936 20.4276C47.5189 19.8647 47.0138 19.3657 46.5307 18.8537C46.31 18.6199 45.9218 18.7189 45.8094 19.0321C45.7568 19.1792 45.7642 19.349 45.7523 19.5091C45.71 20.0757 45.6904 20.6447 45.6265 21.2085C45.5251 22.1033 45.5198 22.9962 45.6517 23.885C45.9014 25.5607 46.9654 27.4422 49.5014 27.8405C50.525 28.0014 51.5547 28.0047 52.5746 27.7867C52.7836 27.7419 53.0206 27.6955 53.1779 27.568C53.5689 27.2507 54.0377 27.1224 54.4809 26.9244C55.0748 26.6597 55.6438 26.3403 56.2349 26.0695C56.8499 25.7876 57.4768 25.5314 58.102 25.2731C58.2185 25.2251 58.3525 25.2198 58.6104 25.1689H58.6116ZM53.0259 14.8737C53.2398 14.5031 53.4475 14.1862 53.6121 13.8481C53.8874 13.2823 53.8899 12.6909 53.6475 12.1157C53.4035 11.5361 52.8675 11.3561 52.3086 11.6371C51.9363 11.8241 51.6516 12.1121 51.4154 12.4477C51.2129 12.7353 51.0402 13.0449 50.8256 13.3222C50.6048 13.607 50.4154 13.8807 50.4679 14.2725C50.4965 14.4843 50.369 14.6289 50.1111 14.6408C49.8956 14.4721 49.6667 14.2929 49.4162 14.097C49.1975 14.2978 49.002 14.4774 48.8158 14.6481C48.6101 14.5968 48.4301 14.5515 48.2981 14.5186C48.002 14.5744 47.958 14.9442 47.6501 14.8888C47.1442 14.7984 46.9157 15.1067 46.7772 15.4297C46.8725 15.9609 46.9674 16.4089 47.0277 16.8615C47.0595 17.1006 47.0179 17.3486 47.0309 17.5914C47.0578 18.0879 47.3584 18.3389 47.8435 18.2187C48.1242 18.1494 48.3959 18.002 48.6403 17.8419C48.9099 17.6647 49.1397 17.4277 49.3955 17.2273C49.4891 17.1539 49.6069 17.1116 49.8598 16.978C49.7119 17.3128 49.6211 17.499 49.5466 17.6916C49.4496 17.9425 49.3494 18.1943 49.281 18.4537C49.2264 18.6606 49.3429 18.8321 49.547 18.8863C50.0032 19.0077 50.4639 18.9584 50.9127 18.8615C51.0455 18.8325 51.2003 18.6843 51.2537 18.5535C51.3535 18.3075 51.4211 18.0366 51.4398 17.7719C51.4687 17.3682 51.441 16.9613 51.4451 16.5556C51.4463 16.4297 51.472 16.3039 51.4867 16.176C51.8976 16.2436 51.9005 16.2407 52.026 16.3593C52.3013 16.6195 52.5657 16.8916 52.8487 17.1429C53.2654 17.5128 53.7583 17.5861 54.2944 17.4875C54.7489 17.404 55.0002 17.1091 55.1371 16.7002C55.2662 16.3136 55.0809 16.0147 54.8194 15.7564C54.4854 15.4265 54.0817 15.2118 53.6345 15.0746C53.4333 15.013 53.2349 14.9422 53.0259 14.8721V14.8737Z" fill="#8DC0FF"/>
<path d="M35.3174 11.5007C35.3174 11.7826 35.3068 11.9145 35.319 12.0445C35.4058 12.9695 35.3329 13.8831 35.1748 14.7968C34.9296 16.2155 34.6832 17.635 34.0078 18.9262C33.5435 19.8142 33.0348 20.6802 32.5276 21.5449C32.1712 22.1526 31.7688 22.7335 31.4144 23.342C31.1647 23.7709 30.8588 24.1461 30.4816 24.4601C30.0442 24.8239 29.5949 25.1746 29.1403 25.5167C28.9684 25.6463 28.7709 25.7432 28.579 25.843C28.4251 25.9232 28.2642 25.9302 28.1277 25.8002C27.9823 25.6622 28.0226 25.511 28.1102 25.3603C28.5725 24.5632 28.6251 23.6728 28.7473 22.7221C28.5672 22.7445 28.4414 22.7469 28.3228 22.7775C27.6393 22.9543 26.9839 23.2044 26.3339 23.4834C25.764 23.7278 25.1656 23.9216 24.5636 24.0707C23.529 24.3269 22.5111 24.1685 21.5331 23.7864C20.747 23.4793 20.1539 22.9323 19.7735 22.173C18.8945 20.4191 18.4741 18.5584 18.5075 16.5975C18.5112 16.3833 18.5283 16.1532 18.6098 15.9597C18.7755 15.567 18.6977 15.2188 18.512 14.8693C18.4737 14.7976 18.433 14.7267 18.4024 14.6513C18.079 13.8579 18.2823 13.108 19.0232 12.6819C19.6138 12.3422 20.0496 11.9011 20.3449 11.2958C20.4386 11.1031 20.5779 10.9292 20.714 10.7614C21.2117 10.1496 21.6586 9.5052 22.0211 8.80298C22.0679 8.71214 22.1453 8.63679 22.3005 8.43394C22.2667 8.72966 22.2573 8.87956 22.2313 9.02619C22.1319 9.58627 22.0244 10.1447 21.9254 10.7048C21.762 11.6282 21.8366 12.5418 22.0521 13.4481C22.0647 13.5007 22.0842 13.552 22.096 13.6049C22.2964 14.5308 22.118 15.1654 21.0814 15.5055C20.7225 15.6232 20.558 15.8367 20.4496 16.1699C20.1885 16.9739 19.9657 17.7849 20.0248 18.6387C20.0525 19.0415 20.1006 19.4521 20.2122 19.8382C20.6566 21.3755 21.9567 22.3196 23.5583 22.2797C24.5449 22.2553 25.4895 22.019 26.3974 21.6353C27.2817 21.2614 28.065 20.7327 28.7652 20.0802C30.904 18.0867 32.5048 15.7299 33.5358 12.9919C33.6596 12.6632 33.7553 12.3231 33.8506 11.9846C33.9007 11.8058 33.9219 11.6188 33.9635 11.398C33.2307 11.1162 32.3745 11.1667 31.8392 10.5516C31.7969 10.2808 31.9309 10.1305 32.1028 10.0539C32.5215 9.86691 32.9541 9.71131 33.3818 9.54553C33.5504 9.47995 33.7215 9.4213 33.9264 9.34676C33.7529 8.89911 33.585 8.50522 33.4494 8.10034C33.3667 7.8535 33.5887 7.60666 33.8498 7.62662C33.9565 7.63477 34.0673 7.65391 34.1663 7.69342C34.4677 7.81359 34.7675 7.93904 35.062 8.0759C35.2335 8.15574 35.3919 8.26286 35.5577 8.35533C35.7683 8.47304 35.9663 8.44861 36.1699 8.32193C36.3993 8.17936 36.633 8.03802 36.8799 7.93131C37.0506 7.85758 37.2449 7.82418 37.4318 7.80707C37.6954 7.78304 37.8945 8.02173 37.8404 8.28283C37.7622 8.66001 37.6037 9.00216 37.3618 9.3044C37.1952 9.51213 37.031 9.7219 36.8326 9.97241C37.0302 10.1936 37.2029 10.396 37.3858 10.5895C37.7239 10.9475 38.0135 11.3394 38.2037 11.7948C38.3528 12.1524 38.1573 12.4583 37.7613 12.4669C37.5512 12.4713 37.328 12.4318 37.1304 12.3585C36.8269 12.2457 36.5402 12.0872 36.2469 11.9471C35.983 11.8208 35.7194 11.6938 35.3182 11.5007H35.3174Z" fill="#8DC0FF"/>
<path d="M2.82492 7.61779C3.53326 5.22476 4.20169 2.96696 4.87296 0.709969C4.87704 0.69612 4.91817 0.693271 4.99964 0.66598C5.01063 0.854571 5.02611 1.0289 5.02937 1.20324C5.04037 1.77268 5.03344 2.34293 5.0591 2.91156C5.08436 3.47041 4.98129 3.99545 4.69128 4.4712C4.46929 4.83535 4.3976 5.21783 4.42041 5.63697C4.47947 6.72045 4.52713 7.80435 4.57397 8.88824C4.5923 9.31552 4.71491 9.68619 5.07865 9.94687C5.37967 10.1628 5.52386 10.4772 5.65217 10.8133C5.76541 11.1106 6.02814 11.1277 6.19677 10.8507C6.37925 10.5505 6.52506 10.2283 6.69125 9.91795C6.90876 9.51225 7.10062 9.08823 7.35683 8.70779C8.23502 7.40272 9.20118 7.25283 10.4386 8.20475C10.8012 8.48376 11.1567 8.77174 11.4891 9.03528C12.5722 8.62307 12.9241 7.93184 12.6166 6.91719C12.5616 6.73593 12.4973 6.55589 12.4598 6.37097C12.3914 6.03411 12.2362 5.76813 11.9327 5.5885C11.5604 5.36814 11.3706 5.02558 11.2659 4.6101C10.9026 3.16451 10.523 1.72258 10.1523 0.279021C10.1327 0.202852 10.136 0.120975 10.125 0C10.3572 0.0382885 10.4244 0.21955 10.5152 0.35804C11.3955 1.69855 12.1307 3.1197 12.8345 4.55715C13.061 5.01987 13.2704 5.49074 13.4944 5.95509C13.551 6.0724 13.6329 6.17749 13.7217 6.31801C14.2178 5.91436 14.6048 5.38687 15.3689 5.3604C15.2748 5.52496 15.2137 5.6329 15.1522 5.74043C14.9363 6.11558 14.707 6.4838 14.5074 6.8675C14.3437 7.18195 14.2598 7.52085 14.2602 7.885C14.2606 8.15383 14.2369 8.43081 14.1697 8.68987C13.7062 10.474 13.2451 12.2593 12.751 14.0348C12.2081 15.9867 11.3718 17.8001 10.0916 19.3895C10.0586 19.4302 10.0452 19.4864 10.0109 19.5605C10.169 19.596 10.3205 19.6302 10.5242 19.6758C10.3743 19.9308 10.1274 20.0396 9.9254 20.185C8.87858 20.9402 7.7279 21.332 6.41509 21.2192C5.87742 21.1731 5.32998 21.1951 4.78987 21.2322C3.76911 21.3023 2.86241 21.0302 2.04043 20.4294C1.42577 19.9805 0.815586 19.5292 0.336165 18.9288C0.270993 18.8473 0.226191 18.7488 0.177312 18.6555C0.168351 18.6384 0.185464 18.6074 0.192388 18.5752C0.338618 18.4575 0.443291 18.587 0.539012 18.6583C1.17159 19.1296 1.83921 19.5398 2.54795 19.8889C3.46402 20.3402 4.39312 20.4575 5.38699 20.1589C6.16498 19.9251 6.9609 19.7471 7.75437 19.5691C8.37106 19.4306 8.84764 19.1023 9.2016 18.5927C9.97593 17.4783 10.6957 16.3292 11.3327 15.1301C11.4207 14.9643 11.4973 14.783 11.5327 14.5997C11.6199 14.1509 11.6802 13.6967 11.7531 13.2303C11.4231 13.0988 11.2574 13.4939 10.9397 13.3713C10.912 13.0544 10.8826 12.7155 10.8496 12.3334C10.6871 12.368 10.5572 12.3823 10.4366 12.4242C9.14661 12.8698 7.82646 12.8649 6.49451 12.6951C6.36009 12.678 6.2269 12.6478 6.09207 12.6356C5.3373 12.566 4.6693 12.3089 4.1357 11.7505C4.06116 11.6723 3.9801 11.5969 3.89131 11.5358C3.10558 10.9966 2.58745 10.2446 2.1842 9.40024C2.13777 9.30289 2.08157 9.20962 2.03106 9.11715C1.77322 9.05768 1.85102 9.34607 1.7113 9.41531C1.67627 9.39576 1.62169 9.38436 1.60295 9.35177C1.14064 8.55464 0.661215 7.76972 0.432706 6.85772C0.357351 6.55752 0.151647 6.28991 0.00012207 5.99704C0.430257 5.84592 0.801331 5.9502 1.14145 6.11476C1.45468 6.26628 1.76303 6.45528 2.02127 6.68624C2.29499 6.93063 2.50803 7.24346 2.82453 7.61738L2.82492 7.61779Z" fill="#8DC0FF"/>
</svg>
