<svg width="206" height="70" viewBox="0 0 206 70" fill="none" xmlns="http://www.w3.org/2000/svg">
<path d="M76.2984 21.3702C72.7291 21.5978 69.5535 22.3239 66.5978 21.7998C64.716 21.4648 62.0646 19.473 61.7756 17.8622C61.4995 16.3256 63.4759 13.756 65.1353 12.6795C66.7743 11.6185 69.2595 11.8588 71.7166 11.4727C68.9373 5.98576 65.3322 12.8611 62.4609 9.93862C63.0464 6.00366 66.0251 5.21871 69.5459 5.27496C73.1229 5.33121 75.8689 6.80906 76.232 10.6238C76.5592 14.0653 76.301 17.5631 76.301 21.3702H76.2984Z" fill="#8DC0FF"/>
<path d="M176.092 16.7472C177.672 17.256 179.28 18.2302 180.827 18.1433C182.479 18.0512 184.074 16.9569 186.253 16.0748C184.892 21.4365 181.533 23.2109 176.711 21.7714C172.257 20.4444 171.162 16.9748 171.423 12.802C171.684 8.62418 173.709 5.88838 178.002 5.35656C182.116 4.84775 185.148 6.39719 186.521 10.5265C187.449 13.3134 187.173 15.2515 183.499 15.0546C181.185 14.9319 178.858 15.0316 176.537 15.0316C176.388 15.6018 176.24 16.1745 176.092 16.7447V16.7472Z" fill="#8DC0FF"/>
<path d="M157.905 5.65048C155.765 11.838 154.231 17.6804 151.643 23.0139C150.679 25.0031 147.292 25.8776 144.904 27.0384C144.574 27.1995 143.249 26.1691 143.068 25.5043C142.927 24.9852 143.758 23.6761 144.308 23.579C147.79 22.9679 146.565 20.8994 145.903 18.9716C144.433 14.6965 142.955 10.4241 141.319 5.68372C150.191 4.91412 146.018 13.3517 149.808 15.64C152.945 13.2417 149.273 5.0394 157.908 5.65304L157.905 5.65048Z" fill="#8DC0FF"/>
<path d="M205.13 10.8742C201.788 10.1302 199.07 9.52418 196.352 8.91821L195.91 10.662C197.728 11.2424 199.783 11.475 201.302 12.4978C202.921 13.5895 205.283 15.6401 205.073 16.8981C204.769 18.7185 202.744 21.0018 200.929 21.6768C196.283 23.4052 192.844 21.5183 191.057 16.5887C194.342 17.2739 197.242 17.8799 200.139 18.4833C200.269 18.0231 200.402 17.5654 200.532 17.1052C197.899 13.9782 189.518 16.1924 191.926 8.76225C192.473 7.07474 196.058 5.80655 198.421 5.4128C201.591 4.88354 204.168 6.39462 205.127 10.8716L205.13 10.8742Z" fill="#8DC0FF"/>
<path d="M109.796 16.3892C113.432 17.256 116.229 17.9233 119.026 18.5881C119.187 17.9387 119.348 17.2892 119.512 16.6398C118.014 16.1412 116.541 15.5276 115.007 15.1671C112.266 14.5228 110.185 13.2955 110.394 10.1173C110.617 6.77045 112.987 5.57129 115.914 5.33095C119.433 5.04203 122.641 5.53039 124.063 10.6492C120.811 10.0279 118.042 9.49858 115.273 8.96932C115.152 9.55739 115.035 10.1455 114.915 10.7335C116.773 11.3114 118.891 11.5134 120.414 12.5719C122.005 13.679 124.104 15.6836 124.002 17.1588C123.889 18.785 121.805 20.9736 120.085 21.6486C115.592 23.4103 111.99 21.5898 109.796 16.3867V16.3892Z" fill="#8DC0FF"/>
<path d="M31.6441 6.09022C26.423 11.1169 26.3975 16.136 31.6134 21.1448C31.1123 21.5539 30.6137 21.963 30.1126 22.3696C27.8677 20.9965 25.6228 19.6235 23.3702 18.2428C21.9 19.3295 19.7216 20.9403 17.5457 22.5511C16.9756 22.1829 16.4079 21.8147 15.8378 21.4491C20.3736 16.2843 21.8975 11.1246 15.3213 5.98284C16.0244 5.59164 16.7275 5.20045 17.4332 4.80925C19.6756 6.25386 21.9205 7.69847 23.9531 9.00756C25.5333 7.82887 27.635 6.25642 29.7393 4.68652C30.3759 5.15442 31.01 5.62232 31.6467 6.09278L31.6441 6.09022Z" fill="#8DC0FF"/>
<path d="M4.9939 5.04711C2.91008 6.11842 1.5703 6.80876 0.171717 7.52979C-0.88681 2.81755 3.04048 -0.242974 9.41466 0.347654V21.4415C8.26664 21.5591 6.95499 21.6946 4.9939 21.8941V5.04967V5.04711Z" fill="#8DC0FF"/>
<path d="M45.8593 0.304067V21.5411H41.2826V5.28478C39.2652 6.14643 37.772 6.78308 36.2456 7.43507C35.5067 2.72283 39.3726 -0.217526 45.8593 0.304067Z" fill="#8DC0FF"/>
<path d="M135.441 22.0883C131.007 21.8812 130.289 19.5008 129.89 16.5758C129.509 13.7812 128.11 11.007 128.281 8.29419C128.425 6.03907 129.706 3.29559 131.403 1.86632C132.953 0.56234 133.94 2.40581 135.124 4.23906C136.688 6.66038 139.171 7.40697 135.272 10.1837C134.16 10.9763 135.617 15.5224 136.087 18.317C136.259 19.3346 136.99 20.2602 137.466 21.2266C136.527 21.6281 135.586 22.0269 135.441 22.0883Z" fill="#8DC0FF"/>
<path d="M91.6212 21.0785C91.6212 14.9447 91.5215 8.80828 91.7286 2.67955C91.7592 1.76165 93.2217 0.892334 94.022 0C94.8453 0.884663 96.3436 1.74376 96.3794 2.6591C96.6019 8.17419 96.6786 13.7148 96.3309 19.2146C96.2593 20.3498 94.1882 21.3598 93.0377 22.4285C92.5646 21.9785 92.0942 21.5285 91.6212 21.076V21.0785Z" fill="#8DC0FF"/>
<path d="M86.2171 21.3085C82.8855 22.3466 81.2926 21.7611 81.3821 18.3119C81.51 13.3977 81.244 8.46813 81.533 3.56925C81.6046 2.33941 83.154 1.19651 84.0259 0.0126953C84.7571 1.12747 86.079 2.2218 86.1199 3.35958C86.3321 9.34257 86.2196 15.3383 86.2196 21.3085H86.2171Z" fill="#8DC0FF"/>
<path d="M161.932 21.1909C161.932 15.0443 161.832 8.89763 162.037 2.75868C162.068 1.828 163.51 0.945889 164.297 0.0407715C165.003 1.03026 166.281 1.99419 166.32 3.00926C166.527 8.22775 166.583 13.4641 166.299 18.6749C166.23 19.9355 164.683 21.1167 163.814 22.3363C163.185 21.9554 162.558 21.5718 161.929 21.1909H161.932Z" fill="#8DC0FF"/>
<path d="M33.4029 46.9114C36.6552 46.6199 39.0586 46.3949 41.4646 46.1955C45.8316 45.8324 48.7106 48.9032 48.9101 54.114C49.1172 59.56 46.3916 63.0961 41.9401 62.976C40.5569 62.9376 39.1864 62.4876 37.8006 62.2243C35.9802 63.7609 39.143 68.624 33.7736 68.0922C33.6458 66.957 33.4233 65.8805 33.4182 64.8015C33.385 58.7904 33.4029 52.7768 33.4029 46.914V46.9114ZM47.1816 54.5103C44.3027 52.1299 42.7379 49.7776 40.9276 49.5705C37.6012 49.1895 36.6756 52.3651 37.256 54.8453C37.6881 56.6964 39.7489 58.1666 41.0862 59.8055C42.7225 58.3839 44.3589 56.9649 47.1842 54.5103H47.1816Z" fill="#8DC0FF"/>
<path d="M24.2287 52.6056C21.723 45.9911 17.6244 51.744 14.4513 50.578C15.3258 46.413 18.3684 46.1087 21.5338 46.1777C24.5125 46.2417 26.967 47.405 27.1767 50.7033C27.4247 54.5872 27.2355 58.5017 27.2355 62.1784C24.2926 62.475 21.6105 63.3289 19.2249 62.8099C17.1513 62.3599 15.4127 60.3605 13.5283 59.0463C14.8502 57.1874 15.8295 54.8198 17.5988 53.6258C19.1022 52.6107 21.521 52.9533 24.2312 52.6056H24.2287ZM24.1903 57.0545C23.6866 56.3846 23.1804 55.7173 22.6767 55.0474C20.892 55.9346 19.1048 56.8193 17.3201 57.7065C18.1153 58.4684 19.2122 60.0204 19.6494 59.8517C21.2806 59.2252 22.6946 58.0338 24.1903 57.057V57.0545Z" fill="#8DC0FF"/>
<path d="M71.7325 46.1497C76.4038 46.2289 79.3544 49.4812 79.3826 54.5744C79.4107 59.7469 76.1149 63.1935 71.2518 63.0835C66.3811 62.9736 63.5865 59.6216 63.7629 54.0988C63.9291 48.8982 66.7697 46.0627 71.7351 46.1471L71.7325 46.1497ZM77.6874 54.3469C74.7087 51.9664 73.1669 49.7599 71.3285 49.4735C67.9586 48.9519 67.3424 52.0329 67.3808 54.5795C67.4166 57.0801 67.9535 60.3068 71.3106 59.7162C73.2206 59.3787 74.7573 56.9267 77.6874 54.3469Z" fill="#8DC0FF"/>
<path d="M121.283 57.3589C124.543 54.2088 122.076 47.7043 129.371 45.802C126.653 53.1427 124.612 59.5194 121.848 65.5663C121.071 67.2666 118.169 67.9953 115.661 69.5243C115.487 67.6041 115.285 66.8242 115.428 66.7552C120.414 64.3543 118.729 60.7799 117.277 57.1211C115.95 53.7767 114.843 50.3429 113.296 45.9861C120.463 47.446 118.052 54.2063 121.283 57.3589Z" fill="#8DC0FF"/>
<path d="M84.7207 46.9958C87.8221 46.6788 90.3585 45.9757 92.7389 46.3208C94.6514 46.597 97.6787 47.8831 97.9472 49.1845C98.7577 53.1425 98.5224 57.3254 98.5403 61.4189C98.5403 61.8638 97.3131 62.7894 97.0369 62.6616C96.3491 62.3445 95.4491 61.5826 95.4005 60.9408C95.196 58.2612 95.5923 55.5024 95.1116 52.8945C94.8687 51.5777 92.9741 49.4121 92.2608 49.5731C90.7855 49.903 88.8116 51.3297 88.4664 52.6695C87.8144 55.2084 88.2568 58.0132 88.0343 60.6902C87.9755 61.401 87.1445 62.0479 86.669 62.7229C86.0195 62.0581 84.8306 61.4113 84.805 60.7235C84.6388 56.0368 84.7181 51.3425 84.7181 46.9933L84.7207 46.9958Z" fill="#8DC0FF"/>
<path d="M105.207 62.687V40.2457C109.297 39.3943 108.61 42.2145 108.663 44.2395C108.982 56.0299 107.83 62.1791 105.207 62.687Z" fill="#8DC0FF"/>
<path d="M0.253734 46.8143C3.20432 46.5765 5.44154 46.2825 7.67877 46.2825C8.37167 46.2825 9.22821 46.9626 9.67309 47.5762C9.8444 47.814 9.0927 49.2509 8.73985 49.2586C3.25801 49.389 4.12733 53.3572 4.08642 56.7783C4.07364 57.8879 4.31142 59.0666 4.00972 60.0868C3.7208 61.0635 2.87704 61.874 2.27874 62.7587C1.60374 61.92 0.386688 61.1044 0.348335 60.2351C0.148902 55.8271 0.256289 51.4063 0.256289 46.8143H0.253734Z" fill="#8DC0FF"/>
</svg>
