<svg width="332" height="61" viewBox="0 0 332 61" fill="none" xmlns="http://www.w3.org/2000/svg">
<path d="M12.3942 23.165C11.7575 22.1449 10.7322 21.1835 10.566 20.0917C10.2592 18.0744 10.8141 15.8934 10.3359 13.9426C9.93451 12.3036 8.57939 10.8999 7.64614 9.39394C6.57483 11.0022 5.05861 12.4826 4.55491 14.2545C4.01286 16.1644 4.57282 18.3633 4.34271 20.3986C4.2481 21.2372 3.34042 21.9812 2.80349 22.7713C2.07224 21.9863 0.747814 21.2321 0.709461 20.4139C0.499801 15.9906 0.609741 11.5519 0.609741 6.17234C4.78249 6.6607 8.65607 7.20275 12.5476 7.51724C13.6035 7.60161 14.749 7.10046 15.7922 6.70415C20.2564 5.01153 23.4346 6.91637 23.6928 11.6312C23.8488 14.4795 23.8846 17.3534 23.6519 20.1889C23.5777 21.0838 22.4655 21.8943 21.8263 22.7406C21.3252 21.9224 20.484 21.14 20.3919 20.2758C20.1746 18.2355 20.3255 16.1568 20.305 14.096C20.2846 11.8306 20.3357 8.95417 17.1755 9.60104C15.8536 9.87207 14.501 12.5644 14.1456 14.3516C13.6317 16.9238 14.0152 19.6724 14.0152 22.3469L12.3916 23.165H12.3942Z" fill="#8DC0FF"/>
<path d="M320.782 37.7132C323.799 38.672 328.15 38.7564 329.498 40.8096C331.178 43.3715 331.469 47.9252 330.441 50.9704C327.91 58.4824 321.083 52.6144 316.062 55.496C316.062 47.7334 316.005 40.9476 316.143 34.1669C316.159 33.4408 317.294 32.7351 317.91 32.0217C318.514 32.7964 319.437 33.4945 319.646 34.3638C320.007 35.8467 319.917 37.4396 320.017 38.9865L320.782 37.7132ZM317.706 46.2121C320.439 48.7945 322.04 50.3082 323.643 51.8218C325.003 50.2391 327.064 48.8431 327.552 47.0278C328.217 44.5579 327.457 41.3567 324.105 41.5996C322.288 41.7326 320.623 44.0082 317.706 46.2147V46.2121Z" fill="#8DC0FF"/>
<path d="M207.197 48.8127C211.354 48.5672 214.522 55.867 218.403 49.9888C220.339 47.0587 217.595 42.8911 214.233 43.5737C212.221 43.9828 210.372 45.2075 207.491 46.4962C207.833 41.9655 207.984 38.4166 208.465 34.9163C208.565 34.1978 209.864 33.1725 210.677 33.1086C213.507 32.8836 216.373 32.9143 219.214 33.0856C219.879 33.1265 220.487 34.0981 221.119 34.6402C220.451 35.1413 219.815 36.0234 219.114 36.0771C216.775 36.2586 214.412 36.1461 211.638 36.1461C211.508 38.0638 211.405 39.5416 211.295 41.1268C217.948 39.8587 221.443 41.5462 222.487 46.2558C223.335 50.0834 220.983 53.8854 217.069 55.0181C212.28 56.4039 209.015 54.5502 207.197 48.8152V48.8127Z" fill="#8DC0FF"/>
<path d="M265.728 42.3613C265.786 50.9958 262.636 55.5239 257.571 55.4191C252.445 55.3142 249.026 50.1494 249.489 43.044C249.591 41.4843 249.86 39.8812 250.374 38.411C251.54 35.0641 253.539 32.5942 257.507 32.5636C261.399 32.5329 263.682 34.6474 264.805 38.1323C265.377 39.9093 265.607 41.7963 265.725 42.3613H265.728ZM262.007 43.8699C261.491 40.592 262.253 36.0306 257.702 35.9948C253.23 35.959 253.429 40.4258 253.375 43.6577C253.319 47.0506 252.91 51.75 257.605 51.8395C262.575 51.9341 261.383 46.9969 262.007 43.8673V43.8699Z" fill="#8DC0FF"/>
<path d="M173.447 44.6602C173.035 46.4244 173.148 49.0759 171.887 50.564C170.125 52.6427 167.315 55.1177 164.996 55.0742C162.685 55.0307 159.318 52.5378 158.415 50.3083C157.147 47.1762 157.305 43.2565 157.63 39.7435C158.014 35.5835 160.453 32.7122 165.022 32.592C169.706 32.4667 171.657 35.6193 172.726 39.5389C173.135 41.0423 173.176 42.6454 173.447 44.6602ZM169.435 43.6682C168.867 40.8096 169.949 35.9696 165.032 36.0054C160.686 36.036 160.877 40.4977 160.859 43.7756C160.839 47.2043 160.466 51.8142 165.206 51.8296C169.711 51.8424 169.072 47.3091 169.435 43.6682Z" fill="#8DC0FF"/>
<path d="M113.66 44.4912C113.839 42.6478 113.837 41.2057 114.138 39.8301C115.197 35.0182 118.089 32.3898 122.11 32.5892C126.692 32.8167 128.891 35.775 129.413 39.8915C129.784 42.8037 129.789 45.877 129.28 48.7586C128.584 52.6936 126.061 55.3399 121.811 55.3603C117.787 55.3808 115.465 52.916 114.476 49.1856C114.036 47.5288 113.877 45.7952 113.66 44.4912ZM117.651 43.3586C117.651 44.4785 117.603 44.9617 117.659 45.4296C118.004 48.237 117.828 51.7654 121.694 51.9393C125.644 52.1183 125.524 48.4569 126.176 45.7645C126.286 45.312 126.276 44.8108 126.232 44.3404C125.91 40.9577 126.549 36.2122 122.003 36.0256C117.084 35.8261 118.106 40.7353 117.654 43.3586H117.651Z" fill="#8DC0FF"/>
<path d="M126.248 22.6126C126.248 15.7705 126.181 9.29408 126.319 2.81763C126.34 1.86905 127.327 0.938357 127.869 0C128.505 0.889777 129.416 1.69774 129.71 2.68723C130.098 3.99377 130.004 5.44605 130.119 6.85998C137.723 5.45117 141.113 7.356 141.632 13.339C141.965 17.1589 141.359 21.2268 137.306 22.4183C134.09 23.3643 130.372 22.61 126.25 22.61L126.248 22.6126ZM139.889 14.6967C137.142 12.237 135.708 9.9026 133.895 9.55743C130.592 8.9259 129.769 11.9378 129.725 14.5228C129.679 17.1231 130.461 20.1376 133.747 19.6416C135.565 19.368 137.076 17.0668 139.891 14.6967H139.889Z" fill="#8DC0FF"/>
<path d="M244.095 44.0771C243.962 45.4502 243.985 46.9075 243.652 48.2806C242.673 52.3178 240.51 55.4295 235.956 55.3528C231.472 55.2786 229.03 52.3076 228.403 48.1527C227.984 45.376 227.93 42.405 228.447 39.6564C229.199 35.6524 231.385 32.5586 236.074 32.5995C240.75 32.6404 242.696 35.7751 243.67 39.7561C244.005 41.1265 243.962 42.5916 244.095 44.0746V44.0771ZM241.594 42.9496C239.781 40.5589 238.045 36.2353 236.14 36.1586C231.456 35.9694 231.712 40.7635 231.704 44.0413C231.697 47.1632 231.4 51.7809 235.895 51.8294C240.84 51.8831 239.664 46.9484 241.594 42.947V42.9496Z" fill="#8DC0FF"/>
<path d="M151.578 43.4405C151.494 44.7573 151.473 45.711 151.366 46.6544C150.757 52.0263 147.871 55.2888 143.657 55.409C139.505 55.5266 136.286 52.2743 135.721 46.9587C135.457 44.4683 135.455 41.845 135.943 39.4058C136.718 35.5348 138.927 32.689 143.307 32.6021C147.684 32.5152 149.888 35.274 150.98 39.0939C151.409 40.5973 151.42 42.2234 151.576 43.4405H151.578ZM148.134 43.7627C146.996 40.8862 148.216 35.8237 143.376 36.0052C138.871 36.1714 139.109 40.8581 139.134 44.1769C139.16 47.3371 139.04 51.8116 143.384 51.8729C148.257 51.9445 147.163 47.061 148.137 43.7627H148.134Z" fill="#8DC0FF"/>
<path d="M61.641 7.56822C69.1146 4.57417 72.1317 6.56595 72.1752 14.1444C72.1905 16.8163 72.1752 19.4882 72.1752 22.1575C71.7789 22.4643 71.38 22.7711 70.9837 23.078C70.2064 22.1601 68.9152 21.3214 68.7567 20.3089C68.3962 17.9873 68.9664 15.4918 68.4269 13.2418C68.0791 11.7921 66.43 10.6543 65.3638 9.37846C64.1339 10.7055 62.3467 11.8458 61.8149 13.4106C61.1885 15.2566 61.8328 17.499 61.5618 19.5189C61.4109 20.649 60.5211 21.6819 59.9638 22.7584C59.2862 21.7586 58.0564 20.7794 58.0206 19.7592C57.8263 14.2313 57.8263 8.68811 58.018 3.16025C58.0538 2.08893 59.2351 1.05598 59.8896 0.00512695C60.4726 1.07644 61.2907 2.08894 61.572 3.23185C61.8635 4.41821 61.6359 5.72987 61.6359 7.56568L61.641 7.56822Z" fill="#8DC0FF"/>
<path d="M109.751 22.155C106.762 22.4695 104.348 22.7636 101.927 22.9655C98.8563 23.2212 96.481 22.1295 95.9313 18.89C95.3509 15.4689 97.6929 14.009 100.536 13.3391C102.208 12.9453 103.975 12.9658 105.691 12.7996C105.67 12.4877 98.2145 10.4371 96.706 10.2197C98.3347 5.95495 101.776 5.92939 105.282 6.33081C108.608 6.71178 109.705 9.06662 109.741 12.0811C109.782 15.5303 109.751 18.9795 109.751 22.155ZM106.107 15.2951C103.773 16.0826 101.792 16.7524 99.81 17.4198C100.309 18.2329 100.682 19.6187 101.329 19.7593C103.932 20.3295 105.936 19.5905 106.107 15.2951Z" fill="#8DC0FF"/>
<path d="M14.588 47.414C10.8908 47.5802 7.45702 47.7336 3.65757 47.9023C5.86156 55.3862 10.63 49.981 14.8309 50.4745C12.7445 54.9413 9.4897 55.537 5.79508 54.8876C1.56608 54.1435 -0.632801 50.0628 0.159817 44.875C0.875729 40.2037 4.31722 37.5829 8.8786 38.2298C13.013 38.8179 14.9153 41.6943 14.588 47.4114V47.414ZM3.64478 43.7782C3.83398 44.0313 4.02318 44.2819 4.21495 44.535H10.9727C11.0928 44.1105 11.213 43.6836 11.3332 43.2591C9.99337 42.5995 8.61526 41.3619 7.3215 41.4438C6.05331 41.523 4.8695 42.9472 3.64734 43.7807L3.64478 43.7782Z" fill="#8DC0FF"/>
<path d="M68.1075 47.6234H56.6529C58.9439 55.4857 63.8198 49.5922 67.5144 50.62C65.7834 55.1175 62.393 55.501 58.7086 54.8644C54.8402 54.197 52.5313 50.372 52.9328 45.7799C53.3367 41.147 56.1902 38.2552 60.4319 38.1734C65.0879 38.0839 67.182 40.4029 68.105 47.6234H68.1075ZM63.9834 44.8365C64.1598 44.3353 64.3362 43.8342 64.5126 43.3305C63.045 42.6427 61.5569 41.395 60.1123 41.4436C58.9081 41.4845 57.755 43.0441 56.5814 43.9314C56.7655 44.2331 56.9495 44.5322 57.1336 44.8339H63.9834V44.8365Z" fill="#8DC0FF"/>
<path d="M146.876 10.634C148.428 5.97031 151.757 5.97541 155.076 6.29246C158.2 6.59161 159.939 8.42741 159.959 11.6592C159.982 15.2669 159.964 18.8721 159.964 22.2445C157.08 22.5232 154.713 22.8019 152.337 22.9707C149.374 23.1803 146.83 22.4772 146.273 19.0741C145.682 15.4587 147.881 13.8198 151.054 13.2317C152.726 12.9223 154.454 12.9095 156.208 12.7612C155.697 10.7686 152.586 10.0595 146.876 10.634ZM156.758 17.6116C156.321 16.8036 155.884 15.9982 155.446 15.1902C153.585 16.0621 151.721 16.9314 149.86 17.8033C150.527 18.5295 151.399 19.9741 151.829 19.8539C153.547 19.3707 155.127 18.4016 156.758 17.6116Z" fill="#8DC0FF"/>
<path d="M30.8782 54.4349C30.8782 51.2772 31.1544 48.1016 30.7478 45.0181C30.5765 43.7141 28.9708 42.5968 28.0171 41.3951C26.7259 42.4664 24.7137 43.3178 24.3046 44.6576C23.6373 46.8437 24.2023 49.3775 23.8648 51.7093C23.7063 52.7985 22.6504 53.7573 22.0035 54.775C21.4717 53.8417 20.518 52.9238 20.4822 51.9727C20.3185 47.5698 20.4106 43.1593 20.4106 38.759C33.972 38.6823 34.2814 38.8306 34.4501 45.4016C34.6001 51.2789 33.4104 54.29 30.8808 54.4349H30.8782Z" fill="#8DC0FF"/>
<path d="M81.9014 11.8586C85.9847 10.7591 86.6214 5.11875 91.822 6.82671C89.8021 9.05371 88.0327 11.0071 85.9208 13.3364C88.0072 16.2282 90.0833 19.1021 92.456 22.3876C86.4577 24.116 86.4245 17.3864 82.3847 16.2691C82.1162 18.3861 81.8682 20.3575 81.6176 22.3313L80.4977 23.1086C79.7895 22.1242 78.5034 21.1603 78.4702 20.1555C78.2759 14.308 78.2963 8.44773 78.4651 2.60026C78.4906 1.72838 79.6796 0.892311 80.329 0.0383301C80.8532 0.864186 81.7762 1.66446 81.8299 2.521C82.0165 5.4767 81.9014 8.4503 81.9014 11.8586Z" fill="#8DC0FF"/>
<path d="M38.3381 19.2659C42.4879 16.7883 45.9243 23.5026 49.2251 17.7574C47.778 17.1514 46.4765 16.4559 45.0933 16.0571C41.6953 15.0753 38.3535 14.0116 39.7444 9.39654C40.5907 6.59169 45.597 5.08828 48.8851 6.63516C50.1711 7.24113 51.1351 8.53489 51.828 10.4423C49.0129 10.0741 46.1953 9.70336 43.3802 9.33517C43.2089 9.94114 43.0376 10.5471 42.8663 11.1531C43.9606 11.7693 44.9885 12.6488 46.1646 12.9556C49.6649 13.8659 53.4643 14.4846 52.1501 19.5344C51.3524 22.5975 46.6427 24.1827 42.7308 22.6742C41.2836 22.1168 40.1612 20.7207 38.3407 19.2685L38.3381 19.2659Z" fill="#8DC0FF"/>
<path d="M309.672 55.2634C304.801 54.5117 299.772 55.1381 297.271 52.9162C295.169 51.0497 295.816 45.8747 295.663 42.1443C295.609 40.8377 296.796 39.4826 297.417 38.1479C298.002 38.3525 298.588 38.557 299.176 38.7616C299.176 41.9065 298.841 45.1025 299.329 48.1682C299.547 49.531 301.423 50.6304 302.548 51.8474C303.758 50.6483 305.634 49.6332 306.023 48.2091C306.632 45.9897 306.067 43.4738 306.34 41.1215C306.45 40.173 307.46 39.3266 308.061 38.4343C308.598 39.2218 309.575 39.994 309.6 40.7994C309.751 45.3505 309.672 49.9119 309.672 55.2608V55.2634Z" fill="#8DC0FF"/>
<path d="M195.931 54.3453V37.2836C193.858 38.3907 192.275 39.237 190.608 40.1268C190.501 36.8719 194.822 32.4793 197.545 33.1441C198.383 33.3486 199.47 34.783 199.501 35.6856C199.68 41.216 199.695 46.7566 199.485 52.2845C199.447 53.2893 198.117 54.2456 197.384 55.2249C196.9 54.9308 196.414 54.6368 195.931 54.3427V54.3453Z" fill="#8DC0FF"/>
<path d="M105.005 55.133C104.253 54.0003 103.031 52.9392 102.85 51.7221C102.499 49.3929 102.737 46.9741 102.735 44.5937C102.735 42.4255 102.735 40.2573 102.735 37.4116C100.592 38.5212 99.1679 39.2602 96.7798 40.4977C98.048 35.0337 101.392 33.7502 105.908 32.6482V54.3736C105.606 54.6267 105.307 54.8798 105.005 55.133Z" fill="#8DC0FF"/>
<path d="M48.7497 54.1947C43.1273 55.3171 41.7568 54.2407 41.4679 49.191C41.2863 46.0358 40.8338 42.8961 39.4429 39.9071C40.1537 38.529 40.6037 36.8722 41.6699 35.8724C42.3397 35.2435 44.3238 35.0773 45.0244 35.6116C46.3693 36.6369 47.2233 38.3091 48.3406 39.7921C43.9812 44.6526 43.9787 47.1583 48.7497 54.1947Z" fill="#8DC0FF"/>
<path d="M184.917 31.9834C185.689 42.2235 180.424 59.3236 176.717 60.1929C179.174 50.3926 180.634 40.7226 184.917 31.9834Z" fill="#8DC0FF"/>
<path d="M281.711 38.7897C284.505 38.5826 286.783 38.2937 289.061 38.3167C289.759 38.3244 290.447 39.1835 291.14 39.6539C290.731 40.2216 290.34 41.2699 289.913 41.2852C284.293 41.4821 285.845 45.6855 285.359 48.9327C285.06 50.9347 284.035 52.8267 283.334 54.7674C282.792 52.8702 281.925 50.9986 281.782 49.0708C281.527 45.6318 281.711 42.1622 281.711 38.7872V38.7897Z" fill="#8DC0FF"/>
<path d="M76.6857 54.4862C72.8811 54.2126 71.9964 49.2626 73.666 38.8818C76.141 38.6671 78.6135 38.3705 81.0911 38.3066C81.5999 38.2938 82.3516 39.0557 82.5791 39.6259C82.7453 40.0401 82.2544 41.2137 82.0243 41.2213C74.7783 41.4847 77.4757 46.9947 76.9567 50.7711C76.7879 51.9984 76.77 53.2487 76.6831 54.4887L76.6857 54.4862Z" fill="#8DC0FF"/>
<path d="M166.11 6.89054C169.043 6.61696 171.145 6.29735 173.244 6.29224C173.957 6.29224 174.811 6.95702 175.31 7.56043C175.471 7.75731 174.73 9.23515 174.356 9.25561C168.66 9.5522 169.749 13.7505 169.647 17.2636C169.613 18.3682 169.849 19.5417 169.542 20.5593C169.291 21.3929 168.417 22.0398 167.821 22.7684C167.251 22.0091 166.215 21.2676 166.187 20.4903C166.031 15.9468 166.11 11.3931 166.11 6.8931V6.89054Z" fill="#8DC0FF"/>
<path d="M30.0905 22.6276V7.03095C30.4407 6.72413 30.7936 6.4173 31.1439 6.11304C31.9161 7.03605 33.2175 7.87725 33.3786 8.89487C34.6365 16.9335 33.4552 22.0549 30.093 22.6276H30.0905Z" fill="#8DC0FF"/>
</svg>
