<svg width="145" height="161" viewBox="0 0 145 161" fill="none" xmlns="http://www.w3.org/2000/svg">
<path d="M10.2952 160.892C8.42341 160.892 6.9605 160.9 5.49592 160.885C5.2077 160.882 4.92281 160.79 4.63459 160.749C4.11344 160.676 3.54208 160.032 3.56051 159.538C3.60911 158.224 3.70967 156.917 3.95767 155.622C4.09508 154.908 4.22241 154.167 4.18555 153.447C4.06155 150.951 4.49555 148.483 4.47544 145.995C4.47377 145.703 4.47542 145.403 4.53575 145.12C5.16749 142.244 5.08039 139.309 5.28482 136.396C5.3351 135.671 5.51936 134.955 5.59477 134.23C5.6752 133.462 5.43731 132.763 4.86254 132.249C3.55549 131.081 2.21489 129.951 0.89443 128.799C0.674912 128.608 0.483891 128.381 0.276103 128.175C0.0549088 127.954 -0.0808369 127.21 0.05322 126.937C0.200683 126.637 0.803922 126.401 1.16755 126.422C1.91492 126.464 2.57855 126.771 3.27062 127.002C3.96436 127.233 4.67655 127.391 5.42057 127.369C5.82106 127.357 6.29527 126.887 6.1964 126.508C6.0858 126.089 6.00538 125.655 5.82943 125.264C5.27477 124.041 4.31455 123.125 3.40129 122.178C3.09631 121.861 2.84494 121.506 2.76619 121.062C2.74105 120.919 2.6975 120.665 2.74778 120.64C3.39795 120.328 4.05652 120.031 4.7268 119.765C5.40379 119.497 6.09582 119.269 6.78118 119.024C7.22525 118.865 7.52859 118.54 7.6174 118.102C7.93914 116.527 8.25083 114.95 8.51057 113.364C9.26799 108.747 10.1477 104.154 10.9805 99.5507C11.6575 95.8105 12.3161 92.067 12.9797 88.3251C13.4656 85.5904 14.0136 82.869 14.6319 80.1594C16.7165 71.0351 18.734 61.8975 20.8119 52.7716C21.8173 48.351 22.8948 43.9489 23.9438 39.5385C24.3493 37.8326 24.7783 36.1318 25.1638 34.4209C25.2593 34.0003 25.2559 33.5495 25.2442 33.1138C25.2325 32.6614 25.0397 32.2106 24.6727 31.9827C23.3054 31.1348 21.8978 30.3556 20.517 29.5295C20.1433 29.3066 19.8098 29.015 19.468 28.7419C19.0273 28.39 18.7659 27.2991 19.0089 26.7092C19.1815 26.287 19.5367 25.9552 19.9523 25.8546C21.3833 25.5094 22.8563 25.4106 24.3075 25.5899C26.0419 25.8044 27.7879 26.0624 29.4754 26.5082C32.7262 27.3678 35.9788 28.1889 39.3168 28.638C40.1831 28.7553 41.031 29.01 41.8873 29.1977C42.7436 29.3854 43.5966 29.5848 44.4562 29.7523C45.3326 29.9249 46.2308 29.9216 47.0519 29.5781C48.0741 29.1508 49.056 29.268 50.0514 29.5646C52.4326 30.2751 54.8289 30.9438 57.1313 31.8956C57.3994 32.0062 57.6726 32.1302 57.9541 32.1771C58.2339 32.224 58.5523 32.2491 58.8137 32.162C59.5058 31.9324 60.1895 31.671 60.8497 31.3627C62.2422 30.7125 63.6732 30.7008 65.1345 31.0192C65.5634 31.113 65.9841 31.2404 66.4114 31.3376C67.4972 31.5822 68.4339 31.3577 69.1562 30.4545C69.431 30.1126 69.7712 29.8194 70.0209 29.4624C71.8625 26.8265 73.8666 24.2979 75.3915 21.4542C75.9428 20.4253 76.4439 19.3596 76.8628 18.2704C77.5448 16.4958 78.1581 14.6944 78.7681 12.893C79.0915 11.9395 78.6877 11.1938 77.9788 10.5654C77.5348 10.1716 77.0488 9.84657 76.4606 9.73932C76.1825 9.68905 75.8523 9.64549 75.606 9.74603C74.6626 10.1298 73.751 10.5923 72.8126 10.9911C71.6999 11.4653 70.0812 10.671 69.793 9.24498C69.6757 8.66183 69.6271 8.08203 69.7293 7.50559C69.9371 6.34097 70.3459 5.26016 71.0715 4.29997C72.139 2.884 73.384 1.66072 74.8654 0.685455C75.353 0.363719 75.864 0.0470202 76.4623 0.00512745C76.7337 -0.0133054 77.1325 0.0118196 77.2733 0.182742C77.8263 0.849675 78.3307 1.56521 78.7865 2.3042C78.9189 2.51869 78.8971 2.88231 78.8334 3.1521C78.5988 4.16087 78.0207 5.02219 77.5615 5.93545C77.27 6.51524 77.4242 7.08835 77.7727 7.58101C78.1095 8.05523 78.51 8.48589 78.9055 8.91487C79.3613 9.40753 80.0969 9.38071 80.4002 8.8713C80.923 7.99658 81.4308 7.11181 81.962 6.24212C82.029 6.1332 82.1882 6.04104 82.3172 6.01758C82.6456 5.95893 82.944 6.07454 83.0479 6.35941C83.6461 8.00998 84.3566 9.60358 85.1927 11.1503C85.9569 12.5646 86.6422 14.0157 87.2773 15.4987C87.9677 17.1074 88.8106 18.6591 89.6836 20.179C90.56 21.7022 91.5688 23.1467 92.968 24.261C93.7774 24.9062 94.441 25.6602 94.9923 26.5467C95.4531 27.2874 96.0497 27.9442 96.5792 28.6413C97.2897 29.5747 97.9583 30.5315 98.4141 31.6241C98.5247 31.8889 98.6856 32.1419 98.8699 32.3631C99.1481 32.6966 99.453 33.0283 99.9155 33.0937C100.348 33.1557 100.789 33.2261 101.223 33.211C106.226 33.0334 111.133 33.8092 116.033 34.6756C116.462 34.751 116.902 34.8515 117.331 34.8281C118.204 34.7811 119.086 34.5214 119.939 34.6069C120.805 34.6923 121.666 34.8834 122.548 34.8817C123.426 34.8817 124.304 34.8666 125.182 34.8716C126.367 34.8767 127.511 34.7124 128.589 34.1762C128.979 33.9818 129.41 33.8696 129.824 33.7254C131.159 33.2596 132.389 33.3283 133.515 34.3186C134.055 34.7929 134.708 35.1364 135.303 35.5486C135.814 35.9039 135.823 37.0852 135.374 37.5327C134.737 38.1694 133.877 38.4308 133.157 38.9235C132.91 39.0928 132.711 39.8049 132.84 40.1283C132.893 40.2624 132.991 40.3797 133.053 40.5121C133.18 40.7752 133.339 41.0315 133.41 41.3097C133.674 42.3487 133.679 43.3591 132.791 44.1366C132.061 44.7751 131.845 45.5828 131.896 46.496C131.93 47.0775 131.891 47.6958 132.081 48.2304C132.578 49.638 132.739 51.0741 132.697 52.547C132.659 53.8708 132.761 55.1846 133.053 56.4732C133.834 59.9319 133.953 63.4341 133.736 66.9514C133.664 68.1395 133.78 69.2689 134.053 70.4218C134.625 72.8449 134.881 75.3233 135.116 77.795C135.255 79.2562 135.446 80.6923 135.762 82.1267C136.362 84.8447 136.669 87.6062 136.714 90.3913C136.729 91.2693 136.79 92.1558 136.701 93.0238C136.429 95.6899 136.903 98.2755 137.473 100.849C138.453 105.275 139.266 109.737 140.362 114.138C140.538 114.845 140.642 115.57 140.563 116.313C140.516 116.759 140.443 117.251 140.094 117.496C139.136 118.164 138.973 119.146 138.871 120.175C138.839 120.495 138.72 120.753 138.44 120.894C138.37 120.929 138.195 120.882 138.145 120.817C137.693 120.202 137.694 119.448 137.54 118.743C137.227 117.313 136.949 115.882 137.219 114.408C137.276 114.099 137.143 113.831 136.93 113.608C136.629 113.292 136.285 113.002 136.052 112.64C135.819 112.281 135.595 111.86 135.548 111.447C135.268 108.967 135.27 106.481 135.674 104.013C135.843 102.984 135.88 101.984 135.581 100.977C135.084 99.2943 135.022 97.5164 134.435 95.8457C134.247 95.3112 134.264 94.6895 134.261 94.108C134.247 92.0586 134.204 90.0075 134.293 87.9615C134.358 86.4852 134.37 85.0508 133.783 83.6583C133.497 82.9779 133.448 82.2389 133.442 81.5033C133.431 80.1862 133.445 78.8674 133.398 77.552C133.371 76.8247 133.353 76.0656 133.135 75.3819C132.691 73.9844 132.324 72.6019 132.252 71.1173C132.188 69.8119 131.826 68.53 131.721 67.2112C131.595 65.6125 131.399 64.0173 130.983 62.4488C130.723 61.4685 130.713 60.4229 130.559 59.4124C130.447 58.6734 130.489 57.9646 130.734 57.2558C131.077 56.2637 131.052 55.2416 130.918 54.2177C130.899 54.0719 130.879 53.9278 130.851 53.7837C130.303 51.0607 129.792 48.3309 129.427 45.5761C129.344 44.9611 128.977 44.4885 128.483 44.1601C127.999 43.8384 127.422 43.6524 126.95 43.3189C126.206 42.7944 125.385 42.5497 124.503 42.4324C123.635 42.3168 122.767 42.1895 121.904 42.0454C121.785 42.0252 121.661 41.8862 121.591 41.7705C121.455 41.5527 121.577 41.3382 121.916 41.179C122.047 41.117 122.194 41.0533 122.333 41.0516C124.681 41.0198 126.963 40.4149 129.297 40.2473C129.644 40.2222 129.79 39.944 129.757 39.6608C129.721 39.3659 129.589 39.071 129.296 38.9721C128.468 38.6922 127.628 38.4392 126.781 38.2247C124.344 37.6097 121.896 37.2863 119.407 37.97C118.831 38.1292 118.223 38.0521 117.697 37.7807C116.379 37.1037 114.957 36.7618 113.537 36.42C112.542 36.1804 111.523 36.0346 110.583 35.6056C110.168 35.4146 109.732 35.428 109.295 35.4414C108.272 35.4732 107.238 35.6223 106.23 35.5201C104.608 35.3559 103.017 35.562 101.415 35.6743C100.812 35.7179 100.286 35.9407 99.8267 36.3312C99.2319 36.8356 98.5532 37.0132 97.789 36.8372C96.6496 36.5741 95.5218 36.234 94.3689 36.0664C93.3501 35.9189 92.3614 35.7011 91.3727 35.4213C90.364 35.1347 89.3837 35.0777 88.4989 35.8854C88.209 36.1485 87.6896 36.2491 87.269 36.2625C85.9535 36.306 84.6347 36.3211 83.321 36.2608C79.9612 36.1083 76.5997 36.1418 73.2383 36.1234C72.5127 36.12 71.7837 36.239 71.0581 36.3144C70.4649 36.3747 69.9303 36.5741 69.4947 37.0098C68.9685 37.536 68.3317 37.8896 67.6363 38.1409C67.0783 38.342 66.5153 38.466 65.9221 38.2951C65.0792 38.0521 64.2045 37.8829 63.3984 37.5511C62.3846 37.1338 61.4278 37.0668 60.4509 37.5813C59.0115 37.8259 57.5335 37.6114 56.1007 37.9851C55.6885 38.0923 55.226 38.0488 54.7887 38.022C52.5767 37.8846 50.4519 37.3902 48.4528 36.4116C47.5328 35.9608 46.6178 35.5017 45.6929 35.0643C45.0309 34.751 44.349 34.4627 43.6066 34.4225C41.5405 34.3086 39.5615 33.7573 37.6126 33.1356C36.1966 32.6832 34.7673 32.4603 33.2977 32.467C31.6907 32.4737 30.0819 32.5122 28.4749 32.5826C27.8532 32.6094 27.3841 32.9797 27.1528 33.5646C26.9384 34.1075 26.7439 34.6638 26.6065 35.2302C26.0854 37.3601 25.591 39.4966 25.0883 41.6298C23.9488 46.4675 22.786 51.3003 21.6783 56.1464C19.6909 64.84 17.7605 73.5487 15.7597 82.2389C14.7408 86.6595 14.0504 91.1386 13.2192 95.5927C12.4685 99.616 11.6877 103.634 10.989 107.668C10.4159 110.979 9.6735 114.267 9.4255 117.63C9.36015 118.53 9.54281 119.379 10.0673 120.128C10.57 120.846 11.071 121.566 11.6089 122.257C12.0932 122.877 12.2674 123.582 12.13 124.314C11.9859 125.078 12.1586 125.75 12.4116 126.444C12.559 126.853 12.1804 127.336 11.7614 127.349C11.0325 127.373 10.3002 127.366 9.57458 127.428C9.23776 127.456 9.06017 127.703 9.06352 127.974C9.0652 128.117 9.07525 128.284 9.15066 128.396C9.56121 129.016 10.1394 129.471 10.7309 129.903C11.6743 130.593 12.6445 131.25 13.5745 131.959C13.789 132.121 13.8879 132.44 14.0286 132.693C14.2213 133.04 14.1225 133.61 13.8444 133.896C13.6248 134.122 13.3634 134.24 13.0601 134.218C12.6244 134.188 12.1804 134.188 11.7581 134.094C10.6169 133.836 9.48584 133.532 8.34971 133.253C7.90732 133.144 7.18004 133.729 7.11133 134.25C6.66895 137.581 6.25507 140.914 6.09421 144.277C5.96853 146.903 5.65011 149.52 5.42891 152.143C5.35518 153.016 5.26471 153.894 5.27812 154.769C5.2932 155.789 5.12223 156.81 5.31158 157.83C5.36185 158.103 5.86791 158.713 6.14608 158.755C6.57841 158.819 7.00907 158.911 7.44476 158.94C9.05847 159.05 10.6588 158.822 12.2641 158.733C13.722 158.653 15.1681 158.601 16.6226 158.343C18.3419 158.038 20.1132 158.026 21.8643 157.919C23.0323 157.849 24.1851 157.75 25.3464 157.547C26.9249 157.272 28.542 157.175 30.1473 157.096C32.4849 156.982 34.8259 156.954 37.135 156.501C37.5623 156.418 38.0081 156.431 38.4471 156.399C40.344 156.262 42.2509 156.287 44.1462 156.173C46.0414 156.059 47.9249 155.739 49.8335 155.793C49.9793 155.796 50.1268 155.798 50.2726 155.781C54.7869 155.268 59.3281 155.384 63.8559 155.189C64.5848 155.157 65.3356 155.161 66.0343 154.982C67.3296 154.648 68.6367 154.606 69.9538 154.608C80.0533 154.618 90.1511 154.625 100.251 154.643C100.98 154.643 101.709 154.722 102.436 154.789C102.565 154.801 102.684 154.938 102.806 155.017C102.712 155.095 102.629 155.23 102.526 155.246C101.953 155.338 101.377 155.459 100.8 155.466C98.1661 155.494 95.5319 155.491 92.8977 155.494C85.7256 155.506 78.5536 155.514 71.3832 155.531C69.7762 155.535 68.1759 155.521 66.6058 156.037C65.9305 156.258 65.1613 156.22 64.4323 156.24C61.215 156.33 57.9976 156.397 54.7802 156.48C54.3412 156.491 53.8788 156.454 53.4716 156.58C51.6132 157.153 49.7029 156.966 47.8093 157.081C45.1869 157.242 42.5392 157.155 39.9553 157.768C39.6737 157.835 39.3754 157.84 39.0839 157.859C34.9968 158.123 30.9466 158.752 26.8713 159.141C25.8541 159.238 24.847 159.462 23.8282 159.548C22.0787 159.695 20.3511 160.042 18.5882 160.052C18.0051 160.056 17.4002 160.072 16.8455 160.225C14.5565 160.858 12.1787 160.52 10.2801 160.895L10.2952 160.892ZM85.4943 17.0186C85.5312 16.8661 85.6384 16.4237 85.4139 16.0216C84.7017 14.7581 83.9678 13.508 83.2305 12.2596C83.1769 12.1708 82.9758 12.0652 82.9222 12.097C82.644 12.268 82.5988 12.5411 82.6189 12.8645C82.6658 13.6052 83.3176 14.1532 83.2556 14.919C83.2271 15.2574 83.0529 15.4602 82.773 15.4837C82.3424 15.5189 81.9134 15.2558 81.4844 15.4317C80.8862 15.6764 80.7605 16.2897 80.5057 16.7874C80.241 17.3035 80.0366 17.8531 79.7986 18.3843C78.9675 20.2443 78.1246 22.0977 77.3018 23.9611C77.0036 24.6347 76.6365 25.2631 76.1137 25.7759C74.9508 26.9204 74.2252 28.3514 73.4561 29.7557C73.3186 30.007 73.2433 30.2986 73.1762 30.5785C73.0505 31.1063 73.3622 31.909 73.8599 32.033C74.1398 32.1017 74.4045 32.2759 74.6844 32.2927C76.8661 32.4217 79.0395 32.5206 81.1124 31.5655C81.7659 31.2638 82.4965 31.118 83.2037 30.9454C83.77 30.8063 84.3448 30.7963 84.928 30.9337C86.7679 31.3677 88.6129 31.785 90.4595 32.1905C91.3158 32.3782 92.1889 32.4268 93.0636 32.3329C93.2027 32.3178 93.4004 32.2709 93.459 32.1721C93.5931 31.9458 93.8042 31.6241 93.7322 31.4364C93.0535 29.6551 91.9928 28.0867 90.8617 26.5685C89.0335 24.1152 87.3963 21.5363 85.7775 18.944C85.4558 18.4295 85.305 17.8916 85.4961 17.0169L85.4943 17.0186ZM76.04 2.76334C75.9093 2.40306 75.6697 2.29748 75.3379 2.48181C73.3488 3.57773 71.9211 5.15961 71.1821 7.32797C71.1369 7.46203 71.1201 7.61283 71.1184 7.75695C71.1184 7.89603 71.1234 8.04854 71.1771 8.17422C71.343 8.56131 71.5726 8.59146 71.8491 8.29486C72.4557 7.64134 73.1796 7.18387 74.0409 6.91743C74.2872 6.84035 74.5922 6.60072 74.6642 6.37115C75.0094 5.2501 75.7954 4.33181 76.0668 3.1873C76.0987 3.05659 76.0518 2.90745 76.0417 2.7667L76.04 2.76334Z" fill="#8DC0FF"/>
<path d="M72.6791 79.2556C73.8404 79.145 74.8995 80.0147 75.0754 81.2061C75.2162 82.1512 74.5157 83.4733 73.1567 83.5655C71.8698 83.6543 70.8409 82.8634 70.7939 81.677C70.742 80.3699 71.5246 79.3662 72.6791 79.2556Z" fill="#8DC0FF"/>
<path d="M141.75 145.44C142.437 145.75 142.996 146.149 143.02 147.012C143.032 147.445 143.11 147.875 143.169 148.306C143.228 148.736 143.234 149.187 143.377 149.588C144.014 151.387 144.045 153.281 144.297 155.141C144.31 155.245 144.169 155.429 144.059 155.476C143.804 155.583 143.457 155.483 143.417 155.206C143.032 152.49 142.38 149.814 142.189 147.067C142.15 146.498 141.944 145.938 141.815 145.375L141.748 145.44H141.75Z" fill="#8DC0FF"/>
<path d="M73.2892 117.681C74.2544 117.567 75.3085 118.526 75.2113 119.462C75.1359 120.183 74.6248 120.845 73.9595 121.029C73.3747 121.192 72.8485 121.059 72.3877 120.644C71.8632 120.17 71.6889 119.352 71.9805 118.695C72.2318 118.13 72.6759 117.824 73.2892 117.679V117.681Z" fill="#8DC0FF"/>
<path d="M75.2214 107.715C75.3353 108.465 74.6399 109.329 73.7534 109.542C73.006 109.721 72.0291 109.033 71.8515 108.203C71.6688 107.349 72.2419 106.413 73.0596 106.232C74.1254 105.996 75.0571 106.636 75.2214 107.715Z" fill="#8DC0FF"/>
<path d="M70.6312 39.7461L70.7183 39.9924L70.4854 39.9639L70.6312 39.7461Z" fill="#8DC0FF"/>
<path d="M137.906 119.901C138.464 123.529 139.015 127.159 139.558 130.789C140.103 134.433 140.64 138.078 141.172 141.724C141.47 143.774 141.767 145.825 142.06 147.876C142.098 148.146 142.44 148.293 142.678 148.228C142.966 148.149 143.069 147.879 143.03 147.609C142.511 143.976 141.983 140.343 141.448 136.712C140.912 133.068 140.367 129.423 139.814 125.78C139.504 123.732 139.191 121.683 138.876 119.637C138.834 119.369 138.497 119.219 138.258 119.285C137.971 119.364 137.865 119.633 137.906 119.903V119.901Z" fill="#8DC0FF"/>
<path d="M143.627 154.799C138.135 154.4 132.631 154.728 127.144 155.018C124.41 155.162 121.675 155.297 118.937 155.325C116.199 155.354 113.457 155.236 110.721 155.045C107.651 154.831 104.581 154.566 101.503 154.527C100.856 154.519 100.856 155.524 101.503 155.533C104.276 155.568 107.043 155.784 109.808 155.985C112.544 156.183 115.28 156.341 118.025 156.335C123.503 156.329 128.966 155.856 134.439 155.682C137.502 155.585 140.57 155.583 143.628 155.804C143.9 155.824 144.131 155.56 144.131 155.302C144.131 155.013 143.9 154.819 143.628 154.799H143.627Z" fill="#8DC0FF"/>
<path d="M95.7692 73.4804C95.4751 74.6872 95.5825 77.377 94.2939 78.8012C92.3762 80.9233 89.4538 83.4342 86.989 83.4009C84.514 83.3677 81.0086 80.9412 79.8938 78.6273C78.5233 75.779 78.5489 71.8671 79.0654 68.5866C79.8784 63.3988 83.0183 61.0875 87.4032 61.2639C91.5913 61.4326 94.5955 64.3423 95.47 69.1722C95.6668 70.2537 95.6311 71.3736 95.7692 73.4779V73.4804ZM92.6703 73.2426C92.297 72.9537 91.9237 72.6622 91.553 72.3733C91.4865 71.5884 91.7064 70.5835 91.3024 70.0619C89.9166 68.2747 88.3109 66.6562 86.7895 64.9738C85.5162 66.7074 84.1586 68.3898 83.0182 70.2077C82.6449 70.8009 82.6859 71.7622 82.7881 72.5216C83.2075 75.6716 82.6731 80.256 87.145 79.8853C89.1572 79.7165 90.8396 75.5796 92.6728 73.2452L92.6703 73.2426Z" fill="#8DC0FF"/>
<path d="M47.2865 73.4115C45.3203 76.5666 43.9627 80.4811 41.2243 82.6698C38.2584 85.0399 34.2748 84.2627 31.5032 81.0027C28.1052 77.0064 27.8904 68.7657 31.1044 64.5291C33.6254 61.2052 37.0797 60.2489 40.7717 61.9262C45.259 63.9665 46.2025 68.1393 46.0874 72.6572C46.4888 72.9078 46.8877 73.1584 47.2891 73.4115H47.2865ZM33.1243 72.5243C33.2981 73.7797 33.1345 75.0734 33.6714 75.9223C34.6711 77.505 36.0825 78.8268 37.32 80.2561C38.6905 78.9777 40.9047 77.891 41.2473 76.38C41.8482 73.7413 41.6641 70.76 41.0734 68.0856C40.7998 66.843 38.7979 65.1631 37.5859 65.1683C36.328 65.1759 34.6993 66.7561 33.9322 68.06C33.1907 69.3206 33.3416 71.1078 33.1217 72.5243H33.1243Z" fill="#8DC0FF"/>
<path d="M101.133 76.6638C102.419 77.4334 103.621 78.5763 105.009 78.8831C106.93 79.3101 109.21 79.6374 110.885 78.9342C111.639 78.6172 112.025 74.6874 111.312 74.1811C109.857 73.1481 107.546 73.0996 105.585 73.0765C104.161 73.0612 102.726 73.7362 101.297 74.1018C101.164 72.7518 100.829 71.3865 100.931 70.0544C101.637 60.7756 102.207 60.3359 112.309 61.6168C113.258 61.737 114.081 62.8211 114.963 63.4603C114.035 64.0356 113.153 64.9944 112.171 65.1069C109.99 65.3575 107.758 65.1862 105.321 65.1862C105.022 66.7203 104.764 68.0549 104.621 68.7836C107.832 69.387 110.893 69.566 113.593 70.6476C114.853 71.1538 115.804 73.3016 116.219 74.8842C117.206 78.6709 114.516 82.5266 110.594 83.4649C105.431 84.6999 102.1 82.8667 101.138 76.6638H101.133Z" fill="#8DC0FF"/>
<path d="M50.2316 69.0828C50.6637 63.6572 53.2308 61.3918 56.5266 61.5401C59.3135 61.6654 63.118 62.9771 64.4169 65.0532C65.478 66.7484 64.0922 70.6936 62.7141 72.9999C61.3308 75.3163 58.6155 76.8377 56.4856 78.7067L57.0507 80.0925C59.1806 80.0925 61.3309 79.9314 63.4326 80.1718C64.261 80.2664 64.9871 81.2507 65.7618 81.8311C64.9513 82.3578 64.1587 83.309 63.3303 83.3422C59.2266 83.4982 55.11 83.4138 49.6384 83.4138C50.9143 81.1664 51.51 79.5453 52.5813 78.3462C54.7956 75.8661 57.5595 73.8257 59.5027 71.1692C60.4666 69.8498 60.1189 67.5691 60.3644 65.7257C58.4442 66.0376 56.478 66.191 54.6166 66.7203C53.3689 67.0731 52.2694 67.9578 50.2316 69.0879V69.0828Z" fill="#8DC0FF"/>
<path d="M50.9555 118.77C56.1382 121.355 61.7479 125.425 63.2078 115.517C61.9243 115.99 61.0141 116.451 60.0476 116.66C56.0436 117.535 52.7555 116.514 50.9734 112.592C49.424 109.179 51.0271 105.037 54.351 103.211C57.8155 101.309 62.1698 102.286 64.5042 105.489C67.3959 109.455 67.1326 118.404 64.0133 122.109C60.2777 126.547 53.4101 125.292 50.9555 118.77ZM59.7715 104.533C58.9916 104.479 58.2093 104.426 57.4294 104.375C56.1638 106.121 53.8805 107.898 53.9316 109.606C53.9777 111.212 56.4374 113.927 57.928 113.991C59.5362 114.06 62.3513 111.802 62.6172 110.22C62.901 108.532 60.8198 106.446 59.7715 104.533Z" fill="#8DC0FF"/>
<path d="M115.929 114.178C115.374 116.116 115.287 118.813 113.94 120.511C112.439 122.403 109.749 124.54 107.658 124.459C105.331 124.369 101.764 122.339 101.112 120.37C99.8901 116.673 99.8466 112.347 100.312 108.402C100.757 104.646 103.541 102.235 107.637 102.306C111.713 102.375 113.942 104.884 114.932 108.599C115.377 110.266 115.551 112.004 115.932 114.178H115.929ZM112.48 114.543C112.48 112.843 112.59 112.186 112.462 111.577C111.831 108.629 111.485 105.172 107.433 105.203C103.638 105.231 103.342 108.573 102.644 111.319C102.49 111.928 102.475 112.577 102.455 113.211C102.301 118.332 104.592 122.5 107.622 122.027C112.518 121.265 112.048 117.003 112.48 114.541V114.543Z" fill="#8DC0FF"/>
<path d="M78.8629 113.566C79.3257 111.352 79.1519 108.872 80.2973 107.466C82.0309 105.341 84.6414 102.71 86.9579 102.631C89.2488 102.552 93.1096 104.965 93.6772 107.008C94.7946 111.04 94.8687 115.76 93.8562 119.815C93.3423 121.879 89.5377 124.382 87.2187 124.384C84.9022 124.387 82.1382 121.881 80.4149 119.782C79.1749 118.268 79.318 115.62 78.8629 113.564V113.566ZM92.2837 113.456C92.2045 108.243 90.182 104.817 87.0806 105.249C82.0743 105.944 82.376 110.097 82.2993 113.699C82.1868 118.982 84.2143 122.214 87.2877 122.093C90.2203 121.981 92.3553 118.286 92.2812 113.456H92.2837Z" fill="#8DC0FF"/>
<path d="M40.9882 106.364C38.3496 107.652 36.8845 108.368 35.4194 109.084C36.1865 104.914 39.0527 103.49 42.737 102.378V124.259C42.1541 124.292 41.5712 124.326 40.9882 124.356V106.361V106.364Z" fill="#8DC0FF"/>
</svg>
