<svg width="864" height="536" viewBox="0 0 864 536" fill="none" xmlns="http://www.w3.org/2000/svg">
<path d="M111.799 205.27C112.177 204.804 112.549 204.344 112.956 203.841C113.204 204.01 113.368 204.097 113.503 204.216C113.871 204.539 114.156 204.441 114.543 204.173C115.935 203.213 117.366 202.307 118.782 201.381C119.334 201.02 119.861 200.614 120.441 200.307C122.07 199.445 123.718 198.62 125.365 197.792C125.57 197.688 125.831 197.692 126.033 197.584C126.401 197.387 126.778 197.181 127.089 196.909C127.649 196.42 128.11 195.804 128.712 195.381C129.328 194.949 130.041 194.625 130.754 194.365C131.485 194.098 132.264 193.961 133.024 193.775C133.955 193.546 134.871 193.575 135.831 193.708C136.489 193.8 137.206 193.505 137.89 193.353C138.913 193.125 139.931 192.874 140.948 192.624C141.363 192.522 141.766 192.376 142.183 192.291C143.557 192.008 144.933 191.736 146.312 191.477C147.081 191.333 147.894 191.329 148.621 191.074C149.82 190.652 151.1 190.846 152.305 190.411C153.167 190.1 154.144 190.104 155.071 189.981C156.199 189.833 157.327 189.679 158.46 189.572C159.042 189.516 159.633 189.556 160.22 189.555C161.96 189.552 163.706 189.629 165.44 189.525C167.207 189.42 168.93 189.571 170.655 189.913C170.991 189.979 171.443 190.023 171.688 189.854C172.099 189.569 172.363 189.699 172.753 189.846C174.404 190.468 176.108 190.961 177.733 191.644C179.613 192.434 181.562 193.024 183.458 193.763C184.518 194.176 185.505 194.803 186.586 195.124C188.458 195.678 189.857 196.956 191.434 197.972C193.028 198.999 194.655 199.974 196.252 200.995C196.983 201.463 197.694 201.965 198.384 202.491C200.111 203.805 201.923 205.032 203.513 206.499C205.187 208.045 206.778 209.726 208.152 211.541C209.28 213.03 210.049 214.793 210.941 216.453C211.078 216.709 211.048 217.069 211.049 217.381C211.057 219.478 211.034 221.575 211.062 223.67C211.074 224.582 210.614 225.31 210.279 226.094C210.193 226.297 210.162 226.524 210.077 226.85H213.549C213.733 227.693 213.311 228.117 212.731 228.439C211.974 228.859 211.195 229.239 210.442 229.668C209.686 230.099 209.115 230.623 209.303 231.652C209.416 232.268 209.062 232.582 208.491 232.362C207.43 231.95 206.624 232.124 205.943 233.053C205.744 233.324 205.39 233.485 205.122 233.683C203.584 233.029 203.521 232.825 204.356 231.413C204.04 230.958 203.658 230.559 203.456 230.083C203.014 229.045 203.506 228.201 204.6 227.99C204.793 227.953 204.993 227.96 205.192 227.953C206.72 227.897 207.533 227.235 208.109 225.834C209.141 223.324 209.052 220.801 208.153 218.329C207.573 216.734 206.535 215.395 205.131 214.351C204.124 213.602 203.19 212.753 202.257 211.911C200.714 210.521 199.244 209.046 197.657 207.712C196.795 206.987 195.748 206.484 194.791 205.869C193.247 204.876 191.608 204.046 190.204 202.813C189.422 202.124 188.602 201.368 187.351 201.354C186.704 201.346 186.064 200.831 185.419 200.549C184.885 200.313 184.349 200.081 183.814 199.849C183.778 199.834 183.724 199.843 183.701 199.818C182.85 198.906 181.559 198.726 180.62 197.952C179.661 197.161 178.656 196.424 177.691 195.641C177.368 195.379 177.114 195.033 176.804 194.753C176.581 194.551 176.34 194.303 176.066 194.231C174.356 193.781 172.635 193.377 170.918 192.954C169.44 192.59 167.987 192.221 166.428 192.173C164.35 192.11 162.287 191.654 160.207 191.526C158.841 191.442 157.459 191.633 156.084 191.712C155.534 191.745 154.985 191.791 154.439 191.862C153.705 191.958 152.928 191.967 152.255 192.229C151.357 192.579 150.432 192.417 149.538 192.61C147.901 192.964 146.261 193.308 144.619 193.636C143.622 193.835 142.612 193.972 141.618 194.186C140.47 194.434 139.329 194.713 138.195 195.02C135.68 195.701 133.435 197.022 131.087 198.091C129.596 198.769 128.221 199.7 126.745 200.418C125.451 201.047 124.021 201.418 122.777 202.125C121.543 202.828 120.319 203.551 119.074 204.24C118.717 204.438 118.393 204.812 118.209 205.183C117.871 205.858 117.399 206.308 116.698 206.58C115.021 207.231 114.333 208.83 113.355 210.146C112.908 210.745 112.47 211.353 112.067 211.982C111.689 212.571 111.295 213.166 111.03 213.808C110.63 214.779 110.33 215.791 109.998 216.789C109.913 217.045 109.837 217.313 109.815 217.581C109.661 219.506 109.523 221.433 109.379 223.359C109.257 224.982 109.327 226.579 109.99 228.104C110.08 228.31 110.208 228.663 110.119 228.758C109.551 229.355 110.053 229.871 110.212 230.385C110.454 231.172 110.793 231.928 111.063 232.707C111.548 234.099 112.426 235.185 113.632 236.002C114.852 236.829 115.74 237.94 116.597 239.125C117.534 240.421 118.616 241.591 119.94 242.564C120.97 243.323 121.743 244.422 122.68 245.32C123.382 245.992 124.117 246.649 124.919 247.19C125.866 247.829 126.934 248.285 127.886 248.918C128.927 249.609 129.923 250.376 130.882 251.176C131.608 251.781 132.329 252.337 133.2 252.748C134.87 253.537 136.554 254.268 138.33 254.792C140.673 255.485 142.989 256.271 145.341 256.927C146.316 257.199 147.361 257.387 148.367 257.352C150.707 257.274 152.611 258.249 154.486 259.467C155.016 259.811 155.726 259.958 156.37 260.024C157.39 260.127 158.435 260.002 159.45 260.126C160.562 260.261 161.682 260.473 162.74 260.83C163.581 261.114 164.33 261.666 165.174 262.128C166.126 261.503 167.142 261.394 168.249 261.888C168.609 262.048 169.138 262.02 169.528 261.893C171.082 261.388 172.515 261.678 173.954 262.328C174.313 262.491 174.807 262.322 175.223 262.396C176.575 262.635 177.937 262.852 179.264 263.196C180.791 263.593 182.313 263.887 183.899 263.901C184.675 263.909 185.45 264.093 186.224 264.203C186.793 264.285 187.225 264.205 187.699 263.74C188.589 262.864 189.562 261.977 191.027 262.533C191.312 262.641 191.648 262.628 191.963 262.637C193.147 262.676 193.827 263.304 194.094 264.43C194.131 264.583 194.132 264.78 194.23 264.877C194.928 265.573 194.876 266.465 194.852 267.322C194.831 268.048 195.025 268.563 195.611 269.051C196.642 269.909 197.301 271.004 197.197 272.436C197.178 272.701 197.266 272.984 197.354 273.242C197.677 274.188 197.823 275.12 197.63 276.142C197.511 276.766 197.741 277.451 197.782 278.111C197.866 279.511 198.337 280.88 198 282.318C197.85 282.956 197.921 283.645 197.888 284.366H197.034C196.987 284.409 196.899 284.449 196.879 284.512C196.499 285.657 196.148 286.812 195.739 287.947C195.621 288.278 195.533 288.538 195.564 288.928C195.634 289.835 194.955 290.557 193.97 290.858C193.517 290.997 193.054 291.103 192.605 291.255C192.385 291.329 192.056 291.429 192.005 291.591C191.738 292.445 191.003 292.453 190.338 292.688C189.939 292.829 189.613 293.245 189.317 293.592C188.829 294.164 188.384 294.545 187.501 294.299C186.907 294.134 186.199 294.414 185.543 294.427C185.122 294.436 184.7 294.316 184.277 294.262C184.047 294.234 183.77 294.133 183.588 294.22C182.251 294.863 180.744 294.788 179.371 295.253C177.806 295.782 176.209 295.699 174.599 295.654C174.038 295.639 173.469 295.853 172.904 295.967C172.79 295.99 172.682 296.055 172.568 296.067C171.283 296.199 170 296.407 168.714 296.43C167.294 296.455 165.901 296.582 164.502 296.828C163.111 297.073 161.695 297.18 160.29 297.347C160.25 297.352 160.204 297.334 160.172 297.349C158.101 298.391 155.954 297.373 153.845 297.563C153.238 297.618 152.591 297.226 151.963 297.038C151.742 296.972 151.52 296.837 151.303 296.844C148.431 296.952 145.597 296.194 142.717 296.463C141.992 296.53 141.357 296.422 140.759 295.869C140.358 295.498 139.725 295.35 139.173 295.177C137.562 294.671 135.932 294.23 134.232 294.143C133.301 293.471 132.145 293.589 131.12 293.257C130.47 293.045 129.929 292.662 129.125 292.879C128.656 293.005 128.029 292.569 127.482 292.367C126.979 292.182 126.546 291.751 125.932 291.977C125.844 292.009 125.704 291.931 125.6 291.879C124.231 291.216 122.87 290.535 121.494 289.887C120.745 289.535 119.969 289.238 119.208 288.91C117.835 288.318 116.462 287.726 115.093 287.125C113.975 286.634 112.847 286.158 111.752 285.616C111.306 285.396 110.948 285.003 110.53 284.719C110.217 284.506 109.874 284.339 109.54 284.158C109.337 284.049 109.084 283.999 108.926 283.847C108.039 282.998 106.912 282.653 105.782 282.327C104.725 282.024 103.653 281.775 102.587 281.507C102.435 281.469 102.264 281.409 102.122 281.443C101.029 281.702 100.135 281.131 99.1724 280.797C95.4121 279.493 92.0544 277.373 88.5269 275.599C88.0733 275.371 87.6577 275.052 87.2612 274.729C83.5603 271.721 79.5472 269.21 75.2633 267.123C74.8204 266.907 74.4073 266.631 74 266.396C74.2018 265.839 74.4999 265.895 74.8181 266.02C76.0315 266.496 77.2533 266.952 78.4572 267.452C80.7179 268.39 82.9275 269.401 85.0646 270.632C87.6601 272.126 90.4634 273.259 93.1906 274.518C93.7689 274.786 94.3138 275.239 95.2305 275.134C94.8612 274.629 94.5703 274.274 94.3257 273.889C93.928 273.264 93.5183 272.64 93.1918 271.978C92.7763 271.137 92.8107 271.119 93.7 270.376C95.2981 271.521 96.9307 272.667 98.5407 273.848C100.202 275.066 101.968 276.045 103.982 276.565C104.5 276.7 104.974 277.019 105.453 277.281C107.105 278.184 108.762 279.075 110.391 280.017C111.293 280.537 112.166 281.068 112.779 282.003C113.331 282.846 114.428 283.008 115.283 283.47C115.76 283.727 116.291 283.889 116.804 284.075C117.222 284.226 117.571 284.396 118.115 284.297C118.722 284.188 119.478 284.471 120.064 284.782C121.36 285.469 122.813 285.603 124.157 286.103C125.552 286.622 126.953 287.125 128.367 287.59C129.7 288.028 131.052 288.403 132.392 288.817C132.654 288.898 132.899 289.029 133.152 289.134C134.742 289.8 136.432 290.055 138.113 290.349C138.449 290.408 138.768 290.575 139.091 290.703C139.905 291.026 140.753 290.989 141.607 291.06C144.872 291.331 148.109 291.923 151.405 291.875C151.936 291.866 152.479 292.086 153.001 292.25C154.363 292.679 155.739 292.315 157.106 292.339C158.646 292.366 160.19 292.289 161.73 292.214C163.844 292.112 165.983 292.129 168.059 291.785C169.358 291.568 170.637 291.581 171.923 291.467C172.772 291.393 173.609 291.186 174.456 291.066C176.789 290.735 179.128 290.445 181.456 290.087C183.252 289.811 185.039 289.476 186.823 289.125C187.32 289.028 187.8 288.809 188.264 288.594C188.664 288.409 188.813 288.022 189.035 287.64C189.646 286.583 189.177 285.274 189.939 284.295C189.957 282.336 190.305 280.345 189.175 278.525C188.516 277.463 187.986 276.334 187.984 275.036C187.983 274.361 187.615 273.932 187.028 273.666C185.064 272.773 183.112 271.849 181.126 271.01C180.162 270.603 179.105 270.041 178.135 270.116C176.906 270.211 175.876 269.627 174.713 269.611C174.073 269.603 173.4 269.383 172.81 269.11C172.106 268.785 171.458 268.533 170.677 268.83C170.503 268.897 170.237 268.724 170.014 268.66C169.678 268.563 169.311 268.325 169.012 268.392C168.207 268.572 167.543 268.347 166.873 267.957C166.644 267.824 166.353 267.746 166.087 267.739C165.294 267.719 164.518 267.759 163.867 267.132C163.679 266.952 163.27 266.991 162.96 266.952C162.138 266.847 161.368 266.657 160.709 266.085C160.394 265.812 159.963 265.652 159.561 265.506C157.803 264.868 156.046 264.224 154.27 263.646C153.54 263.409 152.753 263.354 152.003 263.169C151.522 263.05 150.948 262.968 150.615 262.656C149.878 261.964 149.003 261.762 148.077 261.565C147.507 261.444 146.949 261.221 146.416 260.977C144.559 260.131 142.728 259.223 140.858 258.405C140.155 258.098 139.369 257.982 138.627 257.756C136.947 257.247 135.253 256.804 133.678 255.97C132.623 255.412 131.428 255.122 130.349 254.602C129.874 254.374 129.362 253.945 129.164 253.479C128.747 252.497 127.808 252.231 127.076 251.707C125.899 250.865 124.624 250.163 123.42 249.357C122.606 248.813 121.843 248.193 121.058 247.606C120.497 247.184 120.034 246.664 119.543 246.171C118.767 245.392 117.719 244.879 116.776 244.273C116.558 244.133 116.235 244.127 116.063 243.956C114.9 242.809 113.523 241.89 112.594 240.485C112.137 239.795 111.441 239.369 110.509 239.12C109.46 238.841 108.458 238.108 107.633 237.358C106.901 236.692 106.828 235.576 106.781 234.622C106.724 233.498 106.568 232.542 105.876 231.552C105.056 230.379 104.632 228.947 104.817 227.431C104.85 227.161 104.847 226.86 104.756 226.609C104.229 225.145 104.49 223.63 104.451 222.138C104.445 221.901 104.557 221.547 104.731 221.441C105.4 221.035 105.509 220.335 105.538 219.726C105.603 218.333 105.99 217.027 106.334 215.701C106.629 214.567 106.81 213.405 107.123 212.277C107.341 211.487 107.656 210.717 107.999 209.971C108.568 208.737 109.195 207.531 109.798 206.314C109.938 206.032 110.057 205.734 110.231 205.475C110.642 204.867 110.784 204.847 111.804 205.27H111.799ZM193.968 282.981C194.79 281.972 194.784 281.802 193.968 281.438V282.981Z" fill="#8DC0FF"/>
<path d="M575.697 250.692C575.06 252.727 574.594 254.642 573.858 256.447C573.007 258.532 572.324 260.712 570.897 262.537C570.498 263.046 570.378 263.764 570.065 264.352C569.455 265.498 568.771 266.605 568.177 267.76C567.934 268.232 567.751 268.78 567.716 269.305C567.672 269.975 567.529 270.512 566.99 270.967C566.263 271.578 566.001 272.452 565.804 273.354C565.695 273.847 565.618 274.409 565.33 274.789C564.112 276.389 563.157 278.104 562.436 279.992C561.564 282.28 560.425 284.446 558.67 286.223C558.225 286.673 558.104 287.228 558.135 287.855C558.195 289.088 557.86 290.252 557.427 291.389C557.331 291.64 557.181 291.881 557.016 292.097C556.278 293.065 555.141 293.05 554.277 292.139C553.996 291.842 553.579 291.652 553.194 291.48C552.715 291.265 552.411 290.957 552.406 290.416C552.392 288.845 552.267 287.262 552.798 285.742C552.921 285.389 553.093 284.95 553.379 284.777C554.088 284.349 554.412 283.682 554.646 282.984C555.443 280.611 556.259 278.24 556.915 275.829C557.241 274.636 557.218 273.35 557.384 272.11C557.524 271.065 557.625 270.004 557.895 268.99C558.176 267.933 559.037 267.322 560 266.881C560.56 266.625 561.13 266.39 561.779 266.111C561.86 266.426 561.932 266.635 561.969 266.852C562.097 267.6 562.023 268.419 562.928 268.822C563.159 268.926 563.267 269.305 563.494 269.652C563.677 269.375 563.829 269.202 563.917 269.002C564.554 267.527 565.083 266.025 565.496 264.461C566.463 260.81 567.902 257.336 570.005 254.176C571.513 251.911 572.289 249.361 573.038 246.792C573.136 246.453 573.269 246.124 573.354 245.783C573.423 245.505 573.443 245.215 573.484 244.931C573.399 244.89 573.312 244.848 573.227 244.808C572.451 245.716 571.681 246.627 570.901 247.531C570.413 248.098 569.884 248.631 569.43 249.222C569.082 249.676 568.736 249.647 568.258 249.367C568.772 247.873 569.442 246.475 570.321 245.156C571.061 244.047 571.644 242.834 572.36 241.708C572.992 240.714 573.708 239.775 574.39 238.814C574.687 238.396 574.691 238.399 574.578 237.566C574.393 237.616 574.201 237.633 574.046 237.716C573.565 237.971 572.979 238.191 572.633 237.733C572.335 237.337 572.191 236.703 572.241 236.201C572.296 235.642 572.621 235.098 572.881 234.574C572.999 234.338 573.214 234.117 573.438 233.973C574.729 233.151 576.073 232.405 577.321 231.524C577.945 231.084 578.538 230.486 578.915 229.829C580.411 227.219 581.432 224.392 582.495 221.587C582.578 221.368 582.644 221.139 582.75 220.93C583.565 219.317 583.927 217.565 584.39 215.838C584.65 214.866 584.763 213.844 585.394 212.969C585.663 212.597 585.607 212 585.729 211.512C585.841 211.068 585.889 210.55 586.155 210.216C586.51 209.774 586.615 209.344 586.621 208.809C586.628 208.266 586.757 207.724 586.797 207.179C586.818 206.874 586.819 206.545 586.732 206.258C586.373 205.072 586.337 203.943 587.058 202.854C587.218 202.61 587.292 202.251 587.268 201.956C587.176 200.82 587.531 199.785 587.873 198.735C587.98 198.406 587.977 198.04 588.031 197.693C588.253 196.296 588.479 194.901 588.702 193.506C588.733 193.311 588.769 193.118 588.785 192.922C588.922 191.357 589.036 189.791 589.2 188.23C589.252 187.733 589.47 187.257 589.551 186.762C589.599 186.464 589.525 186.146 589.505 185.811C588.726 185.645 588.307 186.039 587.86 186.535C586.666 187.863 585.6 189.32 584.095 190.348C583.694 190.622 583.346 190.981 583.004 191.331C582.104 192.255 580.995 192.797 579.807 193.25C579.2 193.48 578.691 193.957 578.098 194.239C577.723 194.417 577.256 194.564 576.861 194.508C575.764 194.353 574.878 194.813 574.169 195.489C573.237 196.378 572.07 196.842 571.03 197.528C568.796 198.999 566.561 200.469 564.341 201.962C563.047 202.832 561.777 203.742 560.503 204.643C559.774 205.158 559.063 205.699 558.333 206.212C558.11 206.368 557.854 206.57 557.604 206.584C556.202 206.67 555.299 207.731 554.192 208.352C552.483 209.309 550.917 210.52 549.278 211.604C548.194 212.322 547.09 213.01 545.988 213.7C544.632 214.549 543.69 215.847 542.5 216.874C542.221 217.115 541.853 217.249 541.536 217.45C541.078 217.739 540.558 217.976 540.192 218.357C538.9 219.702 537.435 220.832 535.965 221.964C535.653 222.204 535.275 222.443 535.113 222.775C534.59 223.839 533.628 224.532 532.956 225.469C532.484 226.126 531.881 226.694 531.306 227.273C530.858 227.723 530.31 227.817 529.707 227.471C529.214 228.167 528.782 228.825 528.301 229.444C527.577 230.375 526.792 231.258 526.082 232.197C525.346 233.171 524.682 234.199 523.955 235.18C523.737 235.474 523.407 235.686 523.134 235.941C522.934 236.127 522.73 236.311 522.553 236.519C521.847 237.345 521.138 238.172 520.455 239.017C520.089 239.47 519.693 239.926 519.451 240.446C519.119 241.158 518.519 241.59 518.022 242.14C516.941 243.338 515.929 244.599 514.892 245.837C514.717 246.046 514.559 246.271 514.288 246.623C513.907 245.897 513.497 245.289 513.252 244.62C511.744 240.523 510.245 236.422 508.803 232.302C508.13 230.378 507.688 228.371 506.967 226.466C506.105 224.188 505.159 221.928 504.064 219.754C502.789 217.222 501.333 214.779 499.919 212.319C499.314 211.265 498.636 210.251 497.949 209.245C497.387 208.421 496.218 208.154 495.264 208.427C493.562 208.914 492.322 210.031 491.16 211.267C490.574 211.891 489.986 212.528 489.508 213.232C488.964 214.034 488.555 214.926 488.063 215.764C487.311 217.041 486.548 218.313 485.769 219.574C485.442 220.103 485.005 220.57 484.72 221.117C484.349 221.833 483.618 222.097 483.103 222.593C482.329 223.339 481.785 224.334 481.195 225.256C480.858 225.782 480.656 226.392 480.336 226.93C479.732 227.942 478.971 228.864 478.701 230.057C478.642 230.312 478.443 230.544 478.28 230.767C476.986 232.543 476.106 234.485 475.682 236.66C475.444 237.882 475.056 239.091 474.59 240.247C474.215 241.18 473.688 242.07 473.115 242.901C471.989 244.541 471.164 246.272 470.725 248.237C470.429 249.564 469.761 250.805 469.309 252.101C468.991 253.016 468.537 253.957 468.532 254.888C468.525 256.267 467.917 257.381 467.45 258.576C467.337 258.863 467.25 259.161 467.091 259.633C468.351 258.972 468.272 257.455 469.385 256.859C470.028 257 470.114 257.55 469.987 258.038C469.582 259.591 469.632 261.173 469.582 262.749C469.581 262.789 469.575 262.829 469.568 262.867C469.317 264.207 468.901 265.498 468.733 266.878C468.555 268.345 468.097 269.877 466.905 271.006C467.071 271.385 467.199 271.71 467.352 272.022C467.852 273.045 468.341 274.073 468.873 275.077C469.088 275.482 469.34 275.91 469.683 276.196C471.249 277.493 472.005 279.138 471.916 281.158C471.881 281.976 471.997 282.738 472.484 283.405C472.977 284.08 472.986 284.712 472.35 285.317C473.062 287.189 474.223 288.712 475.532 290.152C476.051 290.721 476.609 291.243 476.97 291.989C477.361 292.802 476.93 293.447 476.89 294.161C476.85 294.869 477.178 295.64 476.458 296.267C476.176 296.512 476.15 297.049 475.985 297.516C474.891 297.678 473.865 297.563 473.138 296.615C472.593 295.905 471.784 295.935 470.925 295.667C470.753 296.109 470.535 296.556 470.406 297.025C470.127 298.029 469.633 298.194 468.871 297.526C468.494 297.196 468.043 296.949 467.674 296.612C467.216 296.194 466.693 295.788 466.396 295.264C465.137 293.038 463.999 290.756 463.477 288.215C463.314 287.419 463.028 286.649 462.799 285.868C462.776 285.792 462.754 285.716 462.747 285.637C462.611 284.154 462.494 282.67 462.339 281.19C462.246 280.293 462.039 279.406 461.989 278.509C461.924 277.326 461.961 276.138 461.956 274.951C461.953 274.493 461.956 274.034 461.956 273.49C460.38 274.537 460.144 276.44 458.745 277.556C458.109 276.165 458.078 274.924 458.374 273.491C458.678 272.019 459.344 270.786 459.954 269.48C460.968 267.309 461.958 265.123 462.859 262.902C463.302 261.813 463.546 260.637 463.838 259.49C464.195 258.087 464.589 256.726 465.368 255.457C465.929 254.544 466.191 253.437 466.523 252.397C466.877 251.291 467.097 250.138 467.483 249.044C468.014 247.542 468.605 246.058 469.247 244.6C469.892 243.135 470.617 241.704 471.337 240.273C471.473 240.003 471.747 239.798 471.967 239.574C473.184 238.338 473.995 236.865 474.492 235.217C474.594 234.877 474.575 234.499 474.61 234.14C474.531 234.122 474.451 234.105 474.372 234.087C473.446 235.275 472.519 236.462 471.538 237.722C471.013 236.495 471.057 234.84 471.523 233.94C472.582 231.9 473.874 230.039 475.502 228.4C476.108 227.791 476.586 227.051 477.094 226.351C477.786 225.394 478.433 224.404 479.132 223.451C480.436 221.67 481.781 219.919 483.069 218.127C483.385 217.688 483.569 217.15 483.78 216.643C484.503 214.907 485.219 213.168 485.922 211.423C486.163 210.824 486.46 210.29 487.089 209.964C488.131 210.735 487.204 211.911 487.693 212.909C487.926 212.688 488.116 212.525 488.288 212.344C489.559 211 490.771 209.595 492.109 208.321C493.472 207.024 495.217 206.574 497.039 206.863C498.623 207.115 499.798 208.142 500.662 209.481C501.708 211.101 502.756 212.722 503.758 214.368C505.617 217.427 507.287 220.575 508.479 223.974C509.244 226.159 510.185 228.287 511.137 230.401C511.683 231.613 512.422 232.737 513.056 233.911C513.768 235.228 514.275 236.602 514.498 238.108C514.632 239.01 515.097 239.864 515.489 240.95C515.96 240.419 516.394 240.02 516.721 239.548C518.567 236.863 521.062 234.745 523.086 232.219C523.506 231.695 523.965 231.196 524.341 230.644C525.64 228.74 527.274 227.126 528.824 225.443C529.93 224.242 530.781 222.903 531.327 221.365C531.365 221.258 531.441 221.166 531.52 221.033H532.401C532.464 221.372 532.523 221.699 532.588 222.052C532.734 222.042 532.89 222.08 532.949 222.021C533.843 221.131 534.712 220.217 535.611 219.334C536.593 218.369 537.6 217.429 538.597 216.478C539.332 215.777 539.991 214.96 540.825 214.404C541.823 213.738 542.733 213.02 543.491 212.096C543.637 211.918 543.844 211.772 544.051 211.663C545.219 211.043 546.476 210.556 547.549 209.802C548.993 208.787 550.786 208.377 552.052 207.044C552.607 206.46 553.423 206.131 554.092 205.645C555.426 204.676 556.7 203.62 558.074 202.715C559.248 201.941 560.532 201.335 561.76 200.639C562.686 200.116 563.618 199.599 564.509 199.022C565.304 198.508 566.034 197.897 566.818 197.365C567.754 196.728 568.718 196.132 569.671 195.519C570.99 194.667 572.286 193.779 573.633 192.975C574.775 192.294 575.975 191.708 577.152 191.084C577.395 190.955 577.674 190.879 577.895 190.718C579.036 189.889 580.165 189.044 581.296 188.201C583.255 186.743 585.211 185.282 587.172 183.826C587.552 183.543 587.922 183.232 588.34 183.022C589.073 182.655 589.824 182.313 590.597 182.044C591.034 181.892 591.372 182.148 591.439 182.629C591.504 183.098 591.556 183.573 591.568 184.046C591.672 188.193 591.767 192.339 591.859 196.486C591.871 197 591.846 197.516 591.864 198.029C591.936 200.123 591.628 202.172 591.155 204.205C591.093 204.47 591.085 204.758 591.108 205.03C591.256 206.804 590.651 208.447 590.157 210.087C589.265 213.049 588.247 215.975 587.279 218.914C586.713 220.63 586.154 222.35 585.569 224.059C584.96 225.84 584.292 227.602 583.707 229.392C583.319 230.579 583.116 231.832 582.677 232.998C581.621 235.791 581.697 238.712 581.487 241.614C581.41 242.68 580.942 243.726 580.602 244.765C580.091 246.336 579.667 247.921 579.608 249.581C579.576 250.491 578.939 251.068 578.419 251.666C577.983 252.164 577.44 252.092 576.812 251.642C576.436 251.372 576.102 251.044 575.694 250.696L575.697 250.692ZM466.656 261.658C466.151 261.764 465.907 261.979 466.202 262.494C466.357 262.356 466.501 262.284 466.553 262.17C466.624 262.016 466.626 261.829 466.656 261.657V261.658Z" fill="#8DC0FF"/>
<path d="M253.953 326.627C254.727 326.749 255.464 326.7 255.761 327.478C255.513 328.393 254.958 328.823 253.986 329.061C252.582 329.405 251.222 329.91 249.748 329.779C249.292 329.738 248.846 329.59 248.392 329.506C248.124 329.456 247.851 329.421 247.579 329.403C246.405 329.326 245.231 329.212 244.055 329.2C243.235 329.192 242.411 329.393 241.591 329.377C241.067 329.368 240.412 329.292 240.047 328.977C238.9 327.991 237.449 327.911 236.131 327.436C234.014 326.673 231.902 325.898 229.799 325.097C228.083 324.443 226.841 323.133 225.608 321.859C224.343 320.554 223.106 319.207 222.002 317.768C219.202 314.119 217.599 309.959 216.799 305.436C216.513 303.82 215.836 302.273 215.321 300.7C214.977 299.648 214.592 298.608 214.249 297.556C214.145 297.241 214.119 296.902 214.025 296.407C215.054 296.854 214.87 297.999 215.868 298.506C215.721 297.899 215.633 297.463 215.507 297.038C215.004 295.333 214.491 293.632 213.978 291.93C213.477 290.265 212.962 288.604 212.477 286.933C212.344 286.473 212.076 285.975 212.541 285.446C213.901 287.838 215.226 290.166 216.639 292.65C216.805 292.279 216.932 292.091 216.974 291.885C217.218 290.685 217.454 289.482 217.668 288.276C217.764 287.732 217.847 287.179 217.857 286.629C217.896 284.244 218.445 281.975 219.29 279.756C219.51 279.179 219.556 278.528 219.632 277.906C219.774 276.73 219.878 275.551 220 274.375C220.122 273.197 220.253 272.019 220.372 270.841C220.531 269.272 220.631 267.694 220.86 266.135C220.961 265.451 221.24 264.762 221.572 264.15C222.283 262.84 222.605 262.783 223.893 263.523C224.561 263.47 224.816 262.941 225.031 262.443C226.739 258.496 229.322 255.179 232.352 252.175C233.051 251.483 233.709 250.748 234.529 249.88V251.397C234.944 251.242 235.235 251.171 235.49 251.032C237.297 250.051 239.048 248.952 240.912 248.098C242.734 247.263 244.66 246.647 246.56 245.999C247.067 245.826 247.653 245.853 248.204 245.848C249.068 245.84 249.935 245.929 250.798 245.896C253.82 245.779 256.749 246.372 259.452 247.594C262.258 248.86 264.431 250.903 265.892 253.771C267.293 256.522 267.519 259.511 268.262 262.395C268.438 263.077 268.641 263.761 268.914 264.41C269.757 266.409 270.729 268.341 271.361 270.442C271.747 271.727 271.824 272.862 271.416 274.108C271.221 274.7 271.198 275.352 271.121 275.979C271.02 276.793 271.099 277.624 270.613 278.384C270.427 278.675 270.512 279.154 270.512 279.547C270.51 282.434 270.569 285.323 270.503 288.209C270.465 289.862 270.304 291.521 270.066 293.158C269.793 295.033 269.349 296.882 269.021 298.75C268.532 301.541 267.582 304.185 266.373 306.72C265.67 308.192 265.034 309.751 263.683 310.844C262.303 311.962 261.725 313.587 261.251 315.211C261.031 315.966 260.642 316.513 260.017 316.852C259.049 317.378 258.597 318.271 258.102 319.164C256.92 321.293 255.717 323.41 254.526 325.534C254.341 325.865 254.174 326.207 253.954 326.627H253.953ZM265.51 302.895L265.731 302.983C265.921 302.722 266.218 302.485 266.282 302.195C266.529 301.089 266.71 299.969 266.899 298.851C267.063 297.887 267.093 296.886 267.379 295.963C267.874 294.361 267.546 292.668 268.047 291.083C268.047 286.538 268.058 281.991 268.039 277.446C268.035 276.741 267.936 276.03 267.812 275.334C267.488 273.512 267.127 271.695 266.777 269.876C266.569 268.798 266.395 267.713 266.123 266.651C266 266.174 265.571 265.773 265.465 265.295C265.106 263.675 264.073 262.407 263.359 260.972C262.784 259.821 262.216 258.604 262.003 257.353C261.858 256.503 261.535 256.022 260.921 255.538C259.911 254.739 258.948 253.884 258.305 252.725C258.005 252.184 257.726 251.546 257.028 251.4C255.887 251.161 254.741 250.916 253.585 250.784C251.744 250.574 250.077 251.473 248.306 251.753C247.287 251.914 246.332 252.454 245.34 252.799C244.091 253.232 242.807 253.576 241.589 254.079C240.726 254.435 239.9 254.925 239.14 255.473C238.412 255.996 237.818 256.704 237.115 257.267C236.462 257.789 235.758 258.227 235.839 259.227C235.852 259.388 235.663 259.564 235.568 259.735C234.963 260.832 234.323 261.911 233.766 263.033C233.403 263.767 232.877 264.262 232.209 264.725C230.941 265.604 229.894 266.802 228.317 267.232C228.123 267.285 228.009 267.803 227.943 268.123C227.835 268.655 227.817 269.204 227.724 269.739C227.657 270.119 227.515 270.486 227.432 270.865C227.124 272.28 226.701 273.665 226.577 275.128C226.489 276.164 226.106 277.172 225.922 278.204C225.724 279.314 225.036 280.1 224.113 280.519C223.543 280.778 223.252 281.147 222.936 281.582C222.731 281.864 222.611 282.253 222.345 282.438C221.77 282.836 221.655 283.364 221.694 283.984C221.743 284.77 221.85 285.557 221.842 286.342C221.817 288.631 221.74 290.92 221.702 293.209C221.694 293.64 221.793 294.071 221.811 294.503C221.851 295.445 221.908 296.386 221.889 297.328C221.874 298.114 221.679 298.902 221.71 299.684C221.789 301.634 221.413 303.604 222.08 305.537C222.423 306.531 222.471 307.623 222.75 308.643C223.429 311.128 225.03 313.143 226.312 315.314C226.551 315.718 227.174 315.927 227.656 316.147C228.188 316.389 228.784 316.491 229.312 316.739C230.486 317.292 231.681 317.824 232.784 318.499C233.87 319.165 235.238 319.248 236.176 320.195C236.243 320.261 236.414 320.21 236.52 320.253C236.77 320.351 237.039 320.437 237.251 320.593C238.751 321.704 239.537 321.699 241.042 320.506C240.905 320.208 240.764 319.899 240.621 319.589C241.095 318.96 241.717 318.696 242.488 318.813C243.219 318.924 243.972 318.979 244.67 319.2C245.525 319.472 246.365 319.834 247.153 320.263C247.79 320.611 248.145 321.153 248.15 321.997C248.155 322.922 248.432 323.847 248.61 324.768C248.647 324.956 248.747 325.141 248.858 325.301C249.285 325.921 249.858 325.969 250.311 325.376C250.645 324.94 250.866 324.419 251.18 323.968C252.393 322.233 253.269 320.236 255.069 318.956C255.19 318.871 255.278 318.728 255.356 318.598C255.7 318.028 255.989 317.416 256.387 316.887C257.078 315.968 257.821 315.096 257.787 313.844C257.782 313.664 257.963 313.487 257.998 313.297C258.058 312.965 258.152 312.609 258.093 312.288C257.917 311.353 258.215 310.561 258.781 309.871C259.566 308.916 260.178 307.883 260.595 306.714C261.135 305.2 261.677 303.679 262.358 302.226C262.829 301.219 263.536 300.321 264.257 299.186C264.7 299.942 265.112 300.442 265.295 301.015C265.483 301.604 265.446 302.265 265.508 302.894L265.51 302.895Z" fill="#8DC0FF"/>
<path d="M615.453 240.487C615.453 241.055 615.473 241.622 615.448 242.188C615.404 243.159 615.466 243.233 616.408 243.439C616.704 243.503 616.996 243.639 617.256 243.797C619.05 244.884 620.106 246.628 621.165 248.335C622.372 250.281 623.544 252.259 624.577 254.302C625.912 256.942 627.234 259.602 627.973 262.496C628.07 262.878 628.14 263.311 628.371 263.604C629.07 264.493 629.081 265.594 629.355 266.602C629.621 267.58 629.683 268.615 629.829 269.625C630.089 271.421 630.344 273.219 630.602 275.017C630.63 275.213 630.679 275.408 630.679 275.604C630.659 280.111 630.635 284.62 630.608 289.127C630.603 289.838 630.608 290.552 630.565 291.262C630.45 293.152 630.438 295.06 630.145 296.923C629.851 298.788 629.303 300.616 628.797 302.441C628.526 303.42 628.303 303.476 627.242 303.523C626.193 303.571 625.205 303.36 624.226 303.029C623.104 302.649 621.991 302.224 620.843 301.951C618.846 301.476 617.111 300.448 615.342 299.494C613.884 298.708 612.47 297.837 611.048 296.984C610.507 296.66 609.973 296.315 609.482 295.923C607.855 294.623 606.023 293.769 604.007 293.275C603.189 293.075 602.386 292.812 601.445 292.539C601.286 295.085 601.383 297.382 602.015 299.744C602.465 301.424 602.902 303.246 602.338 305.102C602.083 305.94 602.294 306.91 602.212 307.813C602.094 309.099 601.895 310.377 601.744 311.661C601.604 312.86 601.478 314.06 601.352 315.261C601.253 316.196 601.166 317.132 601.072 318.069C600.932 319.473 601.321 320.723 602.174 321.836C602.246 321.93 602.34 322.016 602.384 322.122C603.204 324.124 604.092 326.101 604.8 328.142C605.141 329.125 605.217 330.223 605.27 331.277C605.369 333.225 606.297 334.703 607.665 335.985C607.949 336.253 608.221 336.539 608.463 336.844C609.591 338.266 611.449 338.668 613.13 337.882C613.579 337.672 614.086 337.586 614.569 337.455C614.832 337.384 615.132 337.396 615.362 337.273C616.785 336.513 618.221 335.773 619.595 334.931C620.528 334.359 621.371 333.638 622.245 332.972C623.776 331.806 625.305 330.638 626.825 329.458C627.411 329.002 627.927 328.441 628.549 328.046C630.597 326.741 632.229 324.992 633.838 323.217C634.337 322.667 634.716 322.007 635.15 321.399C635.311 321.174 635.444 320.918 635.642 320.732C636.994 319.454 637.957 317.872 639.063 316.401C639.587 315.703 640.099 315.025 640.953 314.667C641.257 314.54 641.507 314.229 641.718 313.952C642.385 313.081 643.029 312.193 643.662 311.296C643.999 310.819 644.327 310.387 644.996 310.726C645.232 311.909 644.746 312.999 643.581 313.66C643.079 313.947 642.668 314.221 642.463 314.795C642.363 315.073 642.123 315.359 641.868 315.511C640.63 316.251 639.876 317.358 639.209 318.602C638.811 319.342 638.141 319.937 637.585 320.591C637.356 320.86 637.056 321.081 636.875 321.378C635.598 323.478 633.663 325.031 632.222 327C631.75 327.645 630.997 328.084 630.373 328.618C629.984 328.951 629.597 329.284 629.209 329.616C628.01 330.64 626.826 331.683 625.608 332.682C624.42 333.656 623.131 334.513 622.008 335.553C620.741 336.726 619.156 337.343 617.77 338.277C616.424 339.185 614.898 339.515 613.477 340.155C613.093 340.329 612.649 340.405 612.226 340.446C611.639 340.504 611.06 340.451 610.607 340.995C610.481 341.147 609.99 341.156 609.768 341.039C608.938 340.599 608.063 340.18 607.367 339.569C606.363 338.685 605.347 337.742 604.621 336.637C603.899 335.539 603.494 334.224 603.011 332.979C602.031 330.455 601.074 327.921 600.142 325.379C599.615 323.943 599.123 322.501 599.123 320.923C599.123 320.202 598.817 319.482 598.658 318.76C598.559 318.309 598.404 317.854 598.4 317.399C598.377 314.393 598.467 311.384 598.354 308.383C598.292 306.72 598.162 305.081 598.358 303.411C598.504 302.162 598.355 300.882 598.403 299.618C598.43 298.878 598.602 298.144 598.673 297.405C598.722 296.897 598.733 296.381 598.716 295.871C598.701 295.399 598.493 294.897 598.601 294.466C599.129 292.353 597.839 290.787 597.085 289.052C596.264 287.165 594.647 286.111 593.018 285.052C592.325 284.601 591.653 284.112 591.012 283.589C590.115 282.859 590.107 282.249 590.994 281.22C592.596 281.7 594.248 282.194 595.9 282.69C596.089 282.747 596.271 282.853 596.461 282.87C597.413 282.95 597.957 282.309 597.724 281.381C597.667 281.156 597.563 280.928 597.426 280.743C596.465 279.457 595.818 278.024 595.399 276.485C594.952 274.85 594.514 273.213 594.102 271.569C593.978 271.072 593.972 270.554 594.614 270.071C595.687 272.568 595.793 275.372 597.518 277.508C597.995 277.326 597.846 276.992 597.789 276.705C597.443 274.961 597.062 273.223 596.746 271.473C596.58 270.554 596.433 269.605 597.065 268.643C597.758 269.283 598.431 269.789 598.65 270.754C599.138 272.912 599.715 275.048 600.26 277.192C600.287 277.299 600.367 277.392 600.558 277.739C600.742 276.897 600.932 276.279 601.001 275.646C601.078 274.941 601.078 274.224 601.056 273.512C600.996 271.547 601.268 269.63 601.777 267.737C601.857 267.44 601.832 267.108 601.818 266.793C601.755 265.455 602.272 264.241 602.688 263.022C602.961 262.221 603.455 261.491 603.885 260.749C604.818 259.136 605.321 257.351 606.019 255.643C607.106 252.99 608.215 250.336 609.854 247.948C610.299 247.302 610.594 246.555 610.985 245.869C611.277 245.357 611.639 244.884 611.919 244.366C612.332 243.605 612.876 243.233 613.805 243.226C614.878 243.218 615.055 242.87 614.988 241.799C614.961 241.356 615.044 240.907 615.076 240.461C615.201 240.468 615.326 240.476 615.449 240.483L615.453 240.487ZM626.141 298.112C626.324 297.77 626.656 297.417 626.694 297.032C626.839 295.599 627.307 294.296 628.003 293.051C628.15 292.787 628.235 292.47 628.271 292.169C628.419 290.923 628.533 289.674 628.67 288.429C628.691 288.235 628.799 288.05 628.809 287.858C628.873 286.606 629.033 285.345 628.948 284.103C628.81 282.098 628.501 280.106 628.277 278.106C628.124 276.741 627.994 275.372 627.848 274.005C627.836 273.89 627.766 273.782 627.74 273.668C627.541 272.788 627.32 271.912 627.154 271.025C626.828 269.287 626.556 267.54 625.843 265.898C625.577 265.285 625.196 264.61 625.25 263.997C625.358 262.784 624.844 261.783 624.552 260.692C624.321 259.83 623.796 259.251 623.213 258.651C622.726 258.15 622.237 257.617 621.9 257.013C620.86 255.158 619.827 253.292 618.92 251.37C618.369 250.203 617.269 249.627 616.482 248.726C616.341 248.564 615.972 248.572 615.704 248.557C615.394 248.541 615.08 248.602 614.769 248.6C613.864 248.593 613.686 248.712 613.306 249.606C613.247 249.746 613.194 249.908 613.09 250.009C611.806 251.255 610.867 252.732 610.118 254.343C609.29 256.122 608.485 257.913 607.585 259.655C607.158 260.483 606.561 261.211 606.429 262.182C606.346 262.793 606.173 263.393 606.022 263.994C605.629 265.561 604.773 266.989 605.237 268.779C605.577 270.088 605.206 271.471 604.641 272.78C603.541 275.324 603.135 278.035 602.966 280.788C602.924 281.451 602.798 282.111 602.679 282.766C602.577 283.33 602.569 283.837 602.97 284.324C603.463 284.921 603.892 285.572 604.458 286.352C605.351 286.57 606.569 286.632 607.388 287.527C608.49 288.73 609.64 289.923 610.535 291.276C611.723 293.072 613.369 293.881 615.394 294.165C615.622 294.197 615.871 294.239 616.061 294.357C616.832 294.835 617.668 295.257 618.318 295.871C618.846 296.371 619.372 296.432 620.014 296.474C621.108 296.543 622.225 296.591 623.278 296.861C624.206 297.098 625.058 297.626 626.142 298.114L626.141 298.112Z" fill="#8DC0FF"/>
<path d="M381.012 305.494C381.348 304.313 381.697 303.352 381.885 302.359C382.108 301.185 383.001 300.415 384.13 300.74C384.979 300.983 385.813 301.25 386.635 301.68C388.601 302.709 390.706 303.151 392.84 301.935C393.52 301.548 394.319 301.368 394.991 300.969C396.167 300.272 397.333 299.542 398.418 298.714C400.6 297.049 402.594 295.15 405.082 293.877C406.029 293.394 406.747 292.459 407.556 291.715C408.163 291.154 408.771 290.589 409.337 289.987C409.902 289.384 410.447 288.756 410.932 288.089C411.087 287.876 411.066 287.501 411.045 287.205C411.001 286.58 410.892 285.959 410.833 285.334C410.791 284.892 410.976 284.555 411.413 284.416C411.863 284.274 412.04 284.602 412.225 284.921C412.691 285.728 413.263 286.296 414.311 285.891C414.753 285.72 415.001 286.031 415.08 286.403C415.16 286.784 415.156 287.186 415.158 287.58C415.165 288.451 415.177 289.321 415.146 290.19C415.078 292.112 415.546 293.937 416.098 295.75C416.189 296.048 416.281 296.352 416.313 296.659C416.352 297.028 416.287 297.384 415.84 297.493C415.357 297.611 415.087 297.374 414.954 296.937C414.631 295.88 414.315 294.822 413.99 293.765C413.912 293.514 413.81 293.269 413.658 292.85C413.386 293.143 413.168 293.296 413.065 293.508C412.805 294.04 412.612 294.604 412.361 295.14C412.229 295.42 412.071 295.715 411.848 295.918C411.705 296.046 411.382 296.108 411.211 296.034C411.046 295.963 410.879 295.68 410.879 295.489C410.878 295.027 410.973 294.564 411.043 293.981C410.8 294.081 410.613 294.11 410.493 294.214C409.633 294.97 408.748 295.703 407.946 296.517C406.306 298.183 404.283 299.435 402.815 301.286C402.632 301.516 402.31 301.673 402.02 301.774C400.651 302.246 399.272 302.688 397.896 303.14C397.821 303.165 397.735 303.176 397.674 303.22C395.992 304.388 393.836 304.341 392.1 305.393C391.713 305.628 391.204 305.698 390.74 305.761C390.135 305.844 389.601 305.941 389.228 306.528C389.107 306.719 388.678 306.746 388.382 306.787C387.332 306.93 386.209 306.861 385.247 307.225C384.193 307.622 383.043 307.172 382.063 307.787C381.969 307.847 381.768 307.71 381.616 307.704C380.993 307.678 380.369 307.647 379.746 307.656C378.982 307.666 378.21 307.786 377.456 307.715C377.127 307.684 376.799 307.329 376.529 307.063C375.884 306.432 375.253 305.783 374.656 305.107C374.322 304.728 374.08 304.271 373.775 303.865C372.838 302.617 371.884 301.383 370.725 300.325C369.612 299.309 369.19 297.876 368.488 296.61C367.305 294.479 366.012 292.407 364.888 290.246C363.748 288.054 362.276 286.046 361.477 283.658C361.101 282.531 360.242 281.57 359.652 280.508C359.057 279.437 358.353 278.463 357.493 277.588C355.621 275.679 353.426 274.401 350.751 274.018C350.595 273.995 350.425 273.99 350.291 273.92C348.327 272.91 346.144 273.064 344.052 272.74C343.459 272.649 343.457 272.664 343.037 271.896C343.939 270.941 345.111 270.763 346.354 270.71C347.012 270.681 347.672 270.567 348.315 270.423C349.264 270.209 350.188 269.816 351.145 269.724C351.812 269.66 352.527 269.933 353.198 270.132C353.871 270.331 354.536 270.583 355.17 270.887C356.019 271.293 356.807 271.305 357.635 270.83C357.962 270.642 358.367 270.522 358.745 270.501C359.4 270.463 359.794 270.114 359.97 269.555C360.407 268.167 360.792 266.762 361.197 265.363C361.597 263.981 361.736 262.508 362.649 261.306C363.009 260.833 363.583 260.512 363.615 259.792C363.624 259.6 363.969 259.372 364.205 259.25C365.185 258.745 366.161 258.223 367.181 257.811C368.069 257.452 368.856 257.045 369.464 256.252C369.802 255.81 370.356 255.339 370.867 255.263C371.995 255.095 373.124 254.663 374.307 255.024C374.585 255.109 374.977 255.088 375.227 254.952C376.208 254.416 377.279 254.228 378.344 253.981C378.716 253.894 379.166 253.73 379.376 253.449C379.798 252.88 380.365 252.893 380.942 252.816C381.487 252.745 382.029 252.651 382.57 252.549C383.27 252.416 383.922 252.381 384.65 252.627C385.33 252.857 386.127 252.764 386.874 252.779C388.135 252.805 388.442 253.027 388.43 254.289C388.42 255.359 388.818 255.918 389.784 256.476C391.061 257.214 392.375 257.569 393.781 257.776C394.085 257.822 394.373 258.019 394.673 258.036C395.164 258.065 395.706 258.121 396.142 257.95C396.695 257.732 397.137 257.702 397.545 258.125C398.418 259.029 399.456 259.778 400.03 260.96C400.447 261.817 401.213 262.336 402.102 262.623C402.79 262.845 403.039 263.244 403.19 263.969C403.501 265.469 403.63 266.951 403.162 268.404C402.73 269.745 402.165 271.045 401.589 272.332C401.442 272.662 401.05 272.895 400.743 273.138C400.278 273.506 399.766 273.815 399.32 274.204C398.83 274.633 398.27 274.824 397.664 275.041C396.483 275.465 395.346 276.042 394.248 276.656C393.776 276.921 393.342 277.105 392.811 277.072C390.762 276.946 388.714 276.784 386.662 276.706C384.454 276.622 382.243 276.624 380.034 276.567C379.325 276.549 378.566 276.61 377.92 276.379C376.176 275.758 374.406 276.028 372.639 276.017C371.89 276.012 371.138 275.988 370.394 275.914C369.351 275.812 369.181 275.838 368.723 276.783C368.346 277.561 367.84 278.091 367.034 278.486C365.686 279.146 365.128 281.298 365.769 282.68C366.999 285.331 368.096 288.032 368.887 290.852C369.077 291.527 369.388 292.171 369.663 292.82C370.169 294.01 370.537 295.293 371.24 296.355C372.211 297.821 373.462 299.101 374.548 300.495C375.144 301.26 375.636 302.106 376.201 302.897C376.495 303.309 376.772 303.843 377.19 304.037C378.358 304.578 379.595 304.971 381.011 305.5L381.012 305.494ZM364.399 272.364C364.908 273.033 365.558 273.562 366.502 273.627C367.934 273.726 369.359 274.233 370.795 273.525C371.247 273.302 371.879 273.181 372.342 273.314C372.866 273.464 373.243 273.351 373.693 273.195C374.167 273.032 374.725 272.753 375.146 272.874C375.859 273.077 376.356 272.803 376.933 272.547C377.747 272.186 378.553 271.693 379.509 272.2C379.682 272.293 379.974 272.231 380.188 272.164C381.769 271.672 383.134 271.826 384.213 273.264C384.789 274.032 385.76 274.249 386.382 273.806C386.693 273.586 386.865 273.166 387.131 272.792C387.479 272.731 387.955 272.759 388.31 272.566C389.897 271.702 391.691 271.63 393.38 271.174C393.816 271.057 394.294 271.092 394.754 271.07C395.818 271.019 397.195 270.033 397.531 268.978C397.852 267.968 398.134 266.94 398.331 265.9C398.565 264.67 397.725 263.707 396.584 263.782C396.475 264.408 397.051 265.031 396.566 265.843C395.851 264.968 395.206 264.194 394.577 263.407C393.923 262.586 392.711 262.377 392.205 261.346C392.976 260.567 393.823 261.259 394.658 261.107C393.463 260.377 392.274 260.076 391.065 260.104C390.678 260.112 390.284 260.013 389.899 259.931C387.937 259.511 386.026 258.831 384.009 258.707C382.887 258.64 381.756 258.695 380.507 258.695C380.076 257.983 379.332 258.215 378.581 258.289C376.068 258.538 373.605 259.047 371.167 259.679C370.147 259.943 369.162 260.381 368.132 260.561C366.814 260.79 366.034 261.579 365.447 262.665C365.091 263.325 364.817 264.034 364.419 264.666C364.021 265.299 363.882 265.897 364.012 266.66C364.114 267.263 364.418 267.668 364.755 268.097C365.288 268.776 365.427 269.485 365.084 270.309C364.817 270.952 364.639 271.632 364.399 272.364Z" fill="#8DC0FF"/>
<path d="M746.235 262.015C747.492 262.124 748.821 262.3 750.155 262.336C750.997 262.358 751.798 262.044 752.705 262.255C753.358 262.407 754.144 262.061 754.855 261.878C756.438 261.47 757.986 261.42 759.593 261.874C760.316 262.078 761.177 261.989 761.934 261.832C763.037 261.604 764.024 261.957 765.047 262.184C765.236 262.225 765.427 262.369 765.601 262.344C767.047 262.142 768.545 262.765 769.958 262.067C770.026 262.034 770.114 262.027 770.191 262.032C771.379 262.103 772.568 262.174 773.755 262.252C774.108 262.276 774.459 262.35 774.811 262.35C778.364 262.357 781.917 262.353 785.47 262.356C786.055 262.356 786.641 262.275 787.173 262.68C787.363 262.825 787.703 262.786 787.977 262.803C788.647 262.849 789.316 262.879 790 263.023C789.551 263.101 789.099 263.163 788.655 263.263C787.781 263.459 786.905 263.649 786.044 263.89C784.536 264.312 783.035 264.707 781.442 264.669C780.509 264.647 779.542 264.475 778.648 264.961C778.523 265.028 778.331 265.019 778.183 264.989C777.23 264.797 776.283 264.589 775.239 264.366C775.125 265.488 774.208 265.569 773.336 265.772C771.424 266.217 769.524 266.705 767.618 267.176C767.542 267.195 767.469 267.243 767.394 267.25C765.765 267.408 764.134 267.56 762.505 267.72C762.156 267.755 761.81 267.812 761.463 267.867C761.04 267.934 760.62 268.01 760.198 268.082C759.663 268.175 759.13 268.311 758.59 268.349C758.048 268.387 757.473 268.427 756.961 268.291C755.329 267.861 753.757 268.066 752.19 268.564C751.862 268.669 751.53 268.827 751.196 268.836C750.44 268.858 750.034 269.324 749.788 269.919C749.299 271.105 748.878 272.32 748.428 273.523C748.387 273.632 748.271 273.753 748.293 273.841C748.703 275.425 747.749 276.861 747.818 278.417C747.886 279.957 747.815 281.503 747.844 283.045C747.86 283.832 747.965 284.618 748.02 285.405C748.047 285.797 748.122 286.203 748.057 286.583C747.704 288.629 747.697 290.665 748.085 292.705C748.122 292.897 748.181 293.12 748.122 293.291C747.582 294.812 748.152 296.234 748.471 297.681C748.538 297.984 748.579 298.329 748.502 298.62C748.027 300.414 748.309 302.24 748.234 304.05C748.186 305.186 748.383 306.34 747.887 307.442C747.767 307.709 747.837 308.066 747.837 308.382C747.834 310.202 747.859 312.023 747.822 313.842C747.811 314.371 747.57 314.895 747.55 315.427C747.53 315.96 747.537 316.545 747.735 317.025C748.205 318.162 748.604 319.303 748.579 320.544C748.569 321.049 748.451 321.552 748.379 322.055C748.333 322.366 748.212 322.683 748.247 322.984C748.422 324.501 747.954 325.951 747.805 327.433C747.76 327.889 747.547 328.342 747.346 328.765C747.071 329.338 746.745 329.426 745.586 329.305C745.447 327.857 745.312 326.378 745.162 324.901C744.944 322.754 744.706 320.608 744.497 318.46C744.437 317.832 744.369 317.19 744.437 316.569C744.583 315.244 744.388 313.983 744.014 312.717C743.817 312.05 743.771 311.339 743.651 310.648C743.619 310.465 743.568 310.287 743.526 310.105C743.444 310.098 743.362 310.092 743.279 310.085C743.137 310.83 742.948 311.57 742.863 312.322C742.702 313.767 742.621 315.219 742.467 316.665C742.393 317.349 741.82 317.829 741.104 317.91C739.034 318.146 738.03 317.319 737.494 315.24C737.386 314.821 737.307 314.395 737.205 313.975C737.012 313.191 737.581 310.434 738.074 309.78C738.67 308.991 739.345 308.924 740.372 309.597C740.746 308.845 740.912 308.066 740.942 307.239C741.085 303.369 741.27 299.502 741.371 295.632C741.397 294.619 741.18 293.6 741.071 292.585C741.058 292.467 741.007 292.355 740.997 292.237C740.859 290.67 740.758 289.098 740.579 287.535C740.469 286.574 740.354 285.586 740.033 284.683C739.668 283.659 739.762 282.693 739.938 281.684C740.023 281.193 740.083 280.683 740.054 280.188C740.009 279.406 739.842 278.63 739.795 277.848C739.738 276.868 739.75 275.903 739.499 274.922C739.324 274.244 739.502 273.439 739.662 272.723C739.778 272.213 739.756 271.809 739.474 271.384C738.993 270.661 738.525 269.929 738.063 269.194C737.585 268.431 736.93 267.873 736.084 267.585C734.975 267.208 733.845 266.891 732.729 266.534C731.95 266.285 731.145 266.08 730.412 265.729C729.089 265.095 727.713 264.958 726.28 265.006C725.301 265.038 724.314 265.107 723.362 264.701C723.057 264.57 722.658 264.665 722.303 264.643C721.752 264.608 721.105 264.733 720.669 264.487C719.451 263.798 718.064 264.004 716.801 263.587C716.304 263.423 715.673 263.446 715.161 263.591C713.384 264.094 711.576 263.946 709.795 263.832C708.638 263.758 707.604 264.033 706.566 264.368C705.704 264.646 704.878 264.643 703.965 264.447C703.765 264.63 703.538 264.838 703.213 265.135C703.144 265.009 703.074 264.917 703.042 264.814C702.786 263.993 702.514 263.175 702.289 262.346C702.016 261.339 702.643 259.771 703.524 259.291C703.927 259.993 704.33 260.699 704.65 261.256C705.534 261.256 706.33 261.084 706.999 261.3C707.823 261.565 708.628 261.645 709.444 261.57C710.248 261.495 711.046 261.288 711.831 261.081C713.121 260.74 714.412 260.787 715.715 260.954C717.357 261.164 719.002 261.356 720.645 261.56C722.525 261.794 724.397 262.09 726.283 262.252C727.885 262.391 729.495 262.561 731.108 262.118C731.673 261.963 732.337 262.15 732.953 262.207C733.84 262.289 734.726 262.397 735.611 262.488C735.807 262.508 736.006 262.494 736.203 262.503C737.857 262.583 739.509 262.68 741.164 262.737C742.11 262.77 742.514 262.375 742.567 261.406C742.599 260.815 742.55 260.219 742.574 259.626C742.589 259.234 742.617 258.827 742.741 258.463C742.829 258.206 743.046 257.907 743.283 257.81C743.705 257.633 744.061 257.902 744.263 258.271C744.897 259.435 745.504 260.614 746.239 262.011L746.235 262.015Z" fill="#8DC0FF"/>
<path d="M674.889 237.851C675.14 236.55 675.393 235.405 675.576 234.249C676.189 230.379 677.065 226.568 678.135 222.803C678.401 221.87 678.576 220.839 679.59 220.329C679.726 220.26 679.876 220.216 680.02 220.16C681.243 220.909 681.904 222.123 682.573 223.252C683.915 225.52 685.129 227.867 686.313 230.224C686.69 230.975 686.746 231.881 687.055 232.674C687.507 233.836 688.058 234.96 688.564 236.101C689.33 237.826 690.067 239.566 690.865 241.275C691.462 242.555 692.138 243.798 692.779 245.059C692.867 245.233 692.983 245.4 693.033 245.584C693.225 246.299 693.649 246.693 694.395 246.878C695.765 247.219 696.842 248.193 697.412 249.34C698.041 250.605 698.385 252.008 697.518 253.576C696.75 254.968 696.326 256.692 697.641 258.202C697.84 258.431 697.97 258.733 698.09 259.019C700.163 263.972 702.246 268.922 704.293 273.886C706.795 279.951 709.311 286.01 711.308 292.27C711.924 294.203 711.817 296.156 711.769 298.146C711.234 298.222 710.781 298.287 710.169 298.374C709.477 297.196 708.727 295.998 708.055 294.757C706.873 292.575 705.732 290.37 704.59 288.166C704.209 287.431 703.9 286.66 703.517 285.927C702.718 284.397 701.889 282.88 701.444 281.195C701.405 281.048 701.332 280.888 701.225 280.782C700.424 279.987 700.302 278.887 699.981 277.897C699.416 276.153 698.954 274.376 698.478 272.603C698.042 270.979 697.679 269.334 697.219 267.717C696.855 266.438 696.376 265.193 695.982 263.921C695.844 263.48 695.709 263 695.743 262.551C695.83 261.414 695.495 260.378 695.143 259.333C694.968 258.816 694.773 258.294 694.683 257.76C694.414 256.164 693.522 254.845 692.812 253.449C692.628 253.087 692.26 252.816 691.97 252.509C691.55 252.063 691.183 251.534 690.687 251.199C689.715 250.542 688.68 249.98 687.655 249.409C686.621 248.833 685.592 248.238 684.516 247.75C682.457 246.818 680.372 245.938 678.282 245.078C677.826 244.891 677.298 244.878 676.668 244.759C676.486 245.532 676.326 246.209 676.168 246.886C676.043 247.416 675.919 247.948 675.798 248.48C675.572 249.469 675.342 250.456 675.129 251.447C675.081 251.674 675.046 251.924 675.092 252.147C675.474 254.007 674.98 255.813 674.778 257.637C674.761 257.792 674.672 257.942 674.67 258.095C674.645 259.909 674.645 261.718 674.273 263.515C674.006 264.81 674.702 266.03 674.801 267.307C674.829 267.657 674.906 268.008 674.882 268.352C674.831 269.094 674.67 269.833 674.66 270.574C674.631 272.986 674.636 275.4 674.654 277.813C674.665 279.188 674.572 280.557 674.965 281.926C675.206 282.766 675.185 283.673 675.105 284.603C674.99 285.941 675.333 287.32 675.483 288.68C675.487 288.717 675.512 288.756 675.538 288.785C676.575 289.966 676.312 291.359 676.135 292.715C676.077 293.161 675.832 293.596 675.616 294.007C675.375 294.466 674.961 294.554 674.501 294.344C673.112 293.707 671.725 293.079 670.668 291.905C669.841 290.985 669.734 290.098 670.696 289.368C671.49 288.765 671.611 288.059 671.612 287.208C671.615 282.461 671.565 277.713 671.644 272.967C671.7 269.614 672.022 266.265 672.055 262.912C672.081 260.332 672.432 257.796 672.702 255.247C673.036 252.106 673.463 248.975 673.853 245.841C673.887 245.566 673.928 245.292 673.977 245.02C674.166 243.987 674.072 243.09 673.061 242.45C672.682 242.211 672.446 241.747 672.093 241.511C670.778 240.934 669.461 240.355 668.04 239.731C667.901 240.074 667.736 240.341 667.689 240.628C667.584 241.29 667.514 241.961 667.469 242.629C667.298 245.153 667.109 247.676 666.996 250.203C666.952 251.182 667.121 252.17 667.136 253.156C667.152 254.12 666.991 254.332 666.092 254.621C665.607 254.776 665.095 254.851 664.591 254.946C663.394 255.171 662.196 255.387 660.997 255.6C660.608 255.669 660.213 255.784 659.828 255.76C658.477 255.674 657.17 256.383 655.746 255.723C655.039 255.395 654.035 255.703 653.165 255.729C652.261 255.755 651.389 255.735 650.479 255.503C648.959 255.116 647.386 254.903 645.823 254.733C645.097 254.653 644.342 254.886 643.6 254.901C642.987 254.913 642.357 254.88 641.767 254.733C641.477 254.66 641.124 254.328 641.035 254.039C640.436 252.082 640.408 250.126 641.492 248.32C641.812 247.788 642.434 247.439 643.012 246.921C643.978 248.296 644.568 249.558 644.16 251.108C643.968 251.838 644.15 252.047 644.934 252.18C646.63 252.467 648.34 252.415 649.967 251.964C651.084 251.655 652.035 251.923 653.069 252.13C654.416 252.401 655.788 252.562 657.15 252.763C657.303 252.785 657.487 252.801 657.619 252.739C658.711 252.226 659.87 252.458 661.004 252.396C661.386 252.375 661.766 252.252 662.141 252.152C662.783 251.983 663.436 251.834 664.056 251.599C664.348 251.488 664.629 251.236 664.809 250.973C664.953 250.763 664.963 250.446 664.986 250.172C665.145 248.251 665.29 246.327 665.445 244.406C665.575 242.798 665.691 241.188 665.856 239.582C665.919 238.97 666.07 238.359 666.239 237.765C666.578 236.568 668.042 235.846 669.222 236.207C671.029 236.758 672.852 237.263 674.893 237.854L674.889 237.851ZM680.698 226.218C679.559 228.281 679.656 230.338 679.249 232.274C678.994 233.489 679.054 234.761 678.493 235.927C678.194 236.549 678.038 237.24 677.82 237.9C677.429 239.077 677.71 239.822 678.803 240.442C681.072 241.73 683.329 243.041 685.624 244.282C686.836 244.937 688.114 245.471 689.372 246.04C689.55 246.121 689.782 246.085 690.119 246.115C689.951 245.696 689.856 245.4 689.719 245.127C689.155 244.007 688.494 242.929 688.021 241.773C686.061 236.977 683.953 232.252 681.538 227.666C681.307 227.226 681.04 226.804 680.698 226.217V226.218Z" fill="#8DC0FF"/>
<path d="M314.808 245.55C315.121 245.286 315.264 245.216 315.331 245.102C316.985 242.303 318.395 239.405 319.13 236.208C319.467 234.739 319.938 233.315 321.061 232.199C321.39 231.873 321.603 231.423 321.839 231.013C322.687 229.544 323.519 228.069 324.362 226.598C324.683 226.038 325.373 225.477 326.173 225.163C326.232 225.519 326.326 225.842 326.333 226.169C326.355 227.078 326.358 227.988 326.337 228.897C326.295 230.621 326.888 232.068 328.19 233.204C329.883 234.68 330.977 236.633 332.317 238.388C332.504 238.632 332.593 238.955 332.704 239.25C333.222 240.61 333.709 241.984 334.262 243.329C334.418 243.706 334.699 244.141 335.04 244.308C335.69 244.623 336.054 245.178 336.132 245.757C336.277 246.843 336.245 247.957 336.209 249.057C336.194 249.545 336.03 250.042 335.861 250.509C335.718 250.907 335.531 251.322 335.256 251.633C334.814 252.131 334.762 252.65 334.831 253.278C334.977 254.612 335.011 255.959 335.157 257.294C335.315 258.738 335.549 260.173 335.75 261.612C335.891 262.623 336.043 263.634 336.171 264.646C336.339 265.976 336.473 267.31 336.646 268.639C336.931 270.83 337.217 273.019 337.547 275.203C337.609 275.611 337.801 276.059 338.073 276.364C338.574 276.928 338.79 277.579 338.929 278.284C339.013 278.71 339.15 279.135 339.17 279.565C339.281 281.979 340.718 283.724 342.126 285.48C342.566 286.029 342.895 286.583 342.744 287.312C342.723 287.418 342.639 287.511 342.591 287.594C342.487 287.608 342.399 287.651 342.338 287.626C341.248 287.171 341.139 287.297 340.868 288.395C340.523 289.797 340.016 291.159 339.528 292.698C338.603 292.428 337.807 292.192 337.007 291.967C336.784 291.904 336.552 291.855 336.322 291.834C335.433 291.753 334.882 291.26 334.73 290.422C334.627 289.85 334.44 289.288 334.381 288.712C334.256 287.525 334.675 286.442 335.287 285.474C335.73 284.774 335.67 284.253 335.16 283.674C334.983 283.475 334.789 283.223 334.756 282.975C334.593 281.734 334.478 280.486 334.353 279.241C334.262 278.318 334.444 277.44 334.811 276.594C335.29 275.49 335.206 274.365 334.935 273.232C334.881 273.002 334.77 272.772 334.77 272.543C334.768 270.885 334.617 269.244 334.378 267.599C334.067 265.463 333.902 263.306 333.673 261.158C333.668 261.119 333.658 261.08 333.655 261.04C333.54 259.204 333.421 257.367 333.265 255.532C333.107 253.686 332.925 251.864 332.527 250.058C332.241 248.759 331.978 247.455 331.694 246.156C331.646 245.939 331.598 245.691 331.462 245.529C331.088 245.083 330.705 244.633 330.261 244.259C328.908 243.12 328.013 241.592 326.867 240.278C325.956 239.233 325.164 238.04 324.693 236.686C324.608 236.438 324.43 236.223 324.239 235.899C323.754 236.367 323.352 236.782 322.921 237.165C322.487 237.549 321.996 237.871 321.584 238.277C321.32 238.536 321.06 238.868 320.963 239.215C320.541 240.71 320.26 242.248 319.774 243.719C319.308 245.136 318.63 246.457 317.507 247.531C316.599 248.399 315.828 249.411 314.992 250.355C314.81 250.559 314.638 250.789 314.414 250.935C313.609 251.458 313.041 251.228 312.87 250.283C312.498 248.226 312.183 246.159 311.806 244.101C311.594 242.937 311.312 241.787 311.05 240.634C311.029 240.538 310.911 240.464 310.746 240.274C310.235 240.957 309.757 241.598 309.239 242.29C308.483 242.141 308.229 241.612 308.286 240.792C308.371 239.563 308.05 238.414 307.73 237.217C307.255 235.439 306.182 234.057 305.316 232.532C304.776 231.581 304.164 230.67 303.585 229.74C303.544 229.674 303.483 229.591 303.494 229.527C303.698 228.294 302.791 227.639 302.023 227.059C301.334 226.539 300.429 226.279 299.591 225.99C298.994 225.783 298.464 225.454 297.693 225.671C296.764 225.933 296.281 226.475 296.022 227.27C295.728 228.177 295.305 228.975 294.709 229.725C293.881 230.766 293.087 231.824 292.007 232.631C291.801 232.785 291.681 233.074 291.565 233.321C291.128 234.252 290.389 234.893 289.552 235.435C289.068 235.748 288.687 236.084 288.657 236.73C288.643 237.027 288.499 237.358 288.315 237.598C287.413 238.769 287.416 240.171 287.212 241.535C286.973 243.127 286.559 244.685 285.835 246.132C285.472 246.859 285.279 247.585 285.292 248.401C285.311 249.54 285.343 250.668 284.978 251.801C284.682 252.715 284.707 253.729 284.538 254.689C284.357 255.721 284.114 256.744 283.902 257.771C283.863 257.961 283.776 258.17 283.818 258.344C284.282 260.282 283.372 262.056 283.173 263.913C283.118 264.422 283.02 264.929 283.004 265.439C282.977 266.348 282.99 267.258 282.997 268.168C283.011 270.062 282.675 271.903 282.313 273.755C282.139 274.65 281.908 275.567 282.151 276.549C282.344 277.335 282.171 278.206 282.244 279.03C282.371 280.441 282.477 281.864 282.747 283.252C283.244 285.812 283.844 288.351 284.422 290.894C284.535 291.392 284.669 291.91 284.921 292.344C285.612 293.537 285.331 294.757 285.202 296.013C284.243 296.165 283.786 295.543 283.311 294.974C282.884 294.462 282.432 293.96 282.085 293.396C281.806 292.941 281.609 292.413 281.481 291.892C281.304 291.176 281.196 290.439 281.114 289.705C280.957 288.303 280.848 286.896 280.702 285.492C280.531 283.854 280.344 282.217 280.159 280.581C280.116 280.19 280.018 279.8 280.01 279.407C279.973 277.475 279.478 275.601 279.299 273.691C279.13 271.895 279.048 270.108 279.455 268.282C279.776 266.843 280.049 265.391 280.473 263.977C280.811 262.849 281.221 261.741 281.546 260.609C281.674 260.164 281.671 259.679 281.71 259.21C282.029 255.354 282.24 251.492 282.853 247.663C283.134 245.91 283.288 244.129 283.359 242.356C283.404 241.243 283.698 240.267 284.275 239.354C284.636 238.783 284.849 238.204 284.972 237.514C285.166 236.415 285.79 235.45 286.768 234.836C287.507 234.373 287.953 233.717 288.403 233.007C289.354 231.507 290.279 229.974 291.393 228.599C292.302 227.475 293.341 226.343 294.559 225.608C295.773 224.877 296.802 223.898 298.069 223.255C298.716 222.928 299.322 222.821 299.995 223.058C300.106 223.097 300.219 223.197 300.323 223.186C301.833 223.033 303.147 223.736 304.52 224.159C305.107 224.339 305.69 224.643 306.176 225.02C307.616 226.136 308.754 227.544 309.806 229.022C310.032 229.341 310.308 229.626 310.541 229.942C310.911 230.448 311.366 230.923 311.606 231.488C312.355 233.25 313.028 235.046 313.718 236.833C314.517 238.903 314.963 241.031 314.809 243.266C314.762 243.954 314.802 244.648 314.802 245.558L314.808 245.55ZM325.246 229.761C325.755 229.366 325.557 229.051 325.266 228.654C324.848 228.996 324.792 229.294 325.246 229.761Z" fill="#8DC0FF"/>
<path d="M262.332 163.083C262.75 163.044 262.979 163.01 263.208 163.005C263.717 162.995 264.227 163.003 264.889 163.003V166.399C265.724 166.454 266.412 166.5 267.159 166.549V168.309C266.422 168.356 265.734 168.401 264.934 168.452C264.934 169.731 264.934 170.947 264.934 172.164C264.934 172.994 264.92 173.825 264.939 174.655C264.966 175.829 265.154 176.007 266.345 176.054C266.579 176.063 266.814 176.055 267.137 176.055V177.844C266.073 178.214 265.016 178.148 263.974 177.884C263.183 177.685 262.653 177.164 262.535 176.33C262.446 175.707 262.381 175.074 262.374 174.445C262.354 172.475 262.367 170.505 262.367 168.452C261.737 168.452 261.202 168.436 260.668 168.458C260.323 168.473 259.98 168.577 259.634 168.582C258.099 168.604 257.086 169.298 256.635 170.78C256.454 171.373 256.392 172.02 256.38 172.645C256.346 174.34 256.368 176.037 256.368 177.778C255.514 178.064 254.719 177.945 253.861 177.868V166.585H256.122C256.156 167.054 256.193 167.551 256.238 168.183C256.473 167.945 256.65 167.774 256.819 167.595C257.892 166.449 259.094 165.813 260.728 166.394C261.173 166.551 261.723 166.417 262.33 166.417V163.083H262.332Z" fill="#8DC0FF"/>
<path d="M228 166.529H230.255C230.296 166.924 230.333 167.269 230.373 167.658C230.503 167.607 230.626 167.591 230.699 167.522C232.886 165.421 236.532 165.794 238.245 168.299C239.722 170.459 239.674 174.26 238.143 176.387C236.662 178.443 233.519 178.906 231.363 177.382C231.138 177.223 230.939 177.03 230.647 176.786C230.351 177.702 230.53 178.593 230.498 179.462C230.466 180.322 230.491 181.182 230.491 182.117H228V166.53V166.529ZM236.856 172.217C236.749 171.025 236.515 169.922 235.657 169.044C234.365 167.723 232.044 167.86 231.125 169.408C230.111 171.118 230.083 172.954 230.997 174.722C231.598 175.885 232.654 176.368 233.966 176.242C235.205 176.123 236.001 175.397 236.411 174.286C236.652 173.631 236.714 172.91 236.855 172.218L236.856 172.217Z" fill="#8DC0FF"/>
<path d="M243.634 169.94H241.331C241.34 168.531 241.939 167.499 243.1 166.916C245.154 165.884 247.3 165.858 249.395 166.803C250.587 167.341 251.119 168.377 251.119 169.682C251.119 171.383 251.116 173.083 251.124 174.784C251.126 175.21 251.165 175.637 251.189 176.107C251.592 176.205 251.921 176.286 252.271 176.372V177.885C250.477 178.574 249.643 178.381 248.673 177.045C247.659 177.742 246.534 178.204 245.292 178.226C244.591 178.239 243.86 178.189 243.19 177.999C241.619 177.553 240.835 176.425 240.852 174.84C240.87 173.207 241.626 172.169 243.244 171.733C244.155 171.487 245.105 171.387 246.04 171.227C246.585 171.133 247.138 171.077 247.675 170.948C248.258 170.808 248.663 170.456 248.706 169.807C248.747 169.203 248.417 168.7 247.797 168.414C246.186 167.673 244.559 168.265 243.634 169.941V169.94ZM248.558 172.426C247.695 172.548 246.994 172.629 246.301 172.752C245.722 172.855 245.135 172.958 244.581 173.148C243.748 173.433 243.314 174.096 243.38 174.834C243.438 175.488 243.971 176.056 244.832 176.16C245.482 176.24 246.181 176.233 246.81 176.074C248.052 175.761 248.537 175.038 248.557 173.757C248.564 173.329 248.557 172.901 248.557 172.424L248.558 172.426Z" fill="#8DC0FF"/>
<path d="M267.812 166.527H270.56C271.535 169.288 272.504 172.028 273.471 174.769C273.543 174.765 273.614 174.76 273.685 174.757C274.614 172.044 275.541 169.332 276.49 166.559H279.015C278.964 166.813 278.947 167.047 278.87 167.258C277.435 171.15 275.992 175.04 274.551 178.93C274.482 179.115 274.401 179.296 274.324 179.477C273.151 182.246 272.063 182.84 268.955 182.336V180.341C269.153 180.341 269.344 180.326 269.533 180.343C271.316 180.502 272.498 178.982 271.87 177.278C270.927 174.721 269.94 172.179 268.975 169.63C268.6 168.64 268.231 167.647 267.812 166.529V166.527Z" fill="#8DC0FF"/>
<path d="M491.37 349.212C491.314 348.513 491.238 347.928 490.557 347.406C488.167 345.578 485.411 344.786 482.544 344.266C481.31 344.042 480.063 343.861 478.815 343.773C477.755 343.698 476.631 343.514 475.665 344.349C475.775 344.895 476.071 345.261 476.421 345.569C476.836 345.934 477.147 346.223 477.501 346.446C478.093 346.817 478.982 347.333 480.177 347.886C481.966 348.125 483.756 348.366 485.546 348.605C486.97 348.782 488.11 348.788 488.889 348.762C489.965 348.725 490.843 348.607 491.944 349.007C492.473 349.2 492.874 349.446 493.124 349.62C486.467 349.51 481.356 348.794 478.73 347.968C478.73 347.968 476.822 346.759 474.654 345.156C474.402 344.969 474.193 344.442 474.271 344.158C474.352 343.86 474.772 343.591 475.102 343.448C475.451 343.297 475.868 343.272 476.257 343.257C481.275 343.046 486.149 343.521 490.523 346.35C491.591 347.041 492.718 347.553 494.076 347.443C494.282 347.177 494.521 346.956 494.653 346.684C497.148 341.573 499.632 336.457 502.11 331.336C502.127 331.299 502.032 331.206 501.936 331.059C501.363 331.705 500.821 332.35 500.242 332.962C499.322 333.934 498.243 334.134 497.075 333.454C496.262 332.982 495.518 332.386 494.764 331.818C493.594 330.939 493.458 329.544 494.201 328.198C494.541 327.584 495.028 327.047 495.489 326.512C496.104 325.798 496.76 325.119 497.527 324.285C497.08 323.959 496.738 323.692 496.379 323.452C495.666 322.974 494.848 322.609 494.241 322.023C492.375 320.219 492.201 319.472 492.757 316.937C492.958 316.021 493.309 315.687 494.208 315.749C496.089 315.88 497.969 316.032 499.843 316.244C500.863 316.359 500.858 316.441 502.433 315.806C502.211 315.163 502.043 314.485 501.749 313.867C501.317 312.961 501.321 312.041 501.428 311.08C501.517 310.288 501.908 309.767 502.622 309.461C503.438 309.111 504.286 308.947 505.155 309.158C506.679 309.529 508.201 309.908 509.476 310.918C510.093 311.408 510.729 311.879 511.387 312.308C512.77 313.214 513.705 314.396 513.994 316.086C514.111 316.768 514.431 317.415 514.702 318.206C515.161 318.034 515.517 317.928 515.849 317.768C516.535 317.441 517.232 317.44 517.905 317.727C519.932 318.593 521.928 319.512 523.698 320.877C524.665 321.622 525.162 322.502 524.953 323.732C524.769 324.819 524.591 325.908 524.374 326.99C524.231 327.7 523.738 328.103 523.038 328.098C522.101 328.091 521.162 328.016 520.231 327.918C518.918 327.78 517.622 327.43 516.162 327.509C515.912 328.223 515.667 328.87 515.459 329.53C515.054 330.81 514.725 332.118 514.26 333.375C513.932 334.258 513.486 335.111 512.987 335.911C512.458 336.759 511.815 336.817 511.01 336.14C509.491 334.86 508.161 333.413 507.32 331.568C506.83 330.491 506.333 329.418 505.742 328.129C501.876 333.803 499.047 339.833 496.182 345.985C496.521 346.252 497.067 346.641 497.799 346.986C499.331 347.709 500.685 347.767 501.054 347.793C505.044 348.075 512.288 352.885 512.15 353.164C512.124 353.215 511.825 353.155 510.568 352.629C505.947 349.698 501.948 348.375 500.224 348.469C499.246 348.523 498.224 348.709 498.224 348.709C497.174 348.901 496.303 349.164 495.653 349.395C495.475 349.997 495.824 350.255 496.156 350.403C496.648 350.621 497.199 350.888 497.706 350.854C500.993 350.629 504.045 351.75 507.234 352.438C507.886 351.786 508.652 351.566 509.53 352.093C509.868 352.295 510.219 352.625 510.568 352.631C512.192 352.657 512.998 353.842 513.915 354.888C514.383 355.422 514.883 355.934 515.301 356.505C515.749 357.119 515.854 357.8 515.28 358.622C514.861 358.273 514.424 357.979 514.074 357.601C512.465 355.856 510.28 355.121 508.22 354.171C508.018 354.078 507.758 354.105 507.524 354.098C505.763 354.047 504.129 353.586 502.629 352.635C501.673 352.03 500.706 351.831 499.508 352.042C498.052 352.296 496.542 352.033 495.24 351.142C494.992 350.972 494.712 350.851 494.508 350.741C493.686 350.976 493.517 351.637 493.279 352.201C491.983 355.261 490.655 358.309 489.446 361.405C486.712 368.408 484.057 375.441 481.331 382.447C480.885 383.591 480.733 384.693 480.915 385.911C481.244 388.103 481.464 390.312 481.75 392.693C482.187 392.799 482.69 393.017 483.2 393.032C487.352 393.157 491.511 392.955 495.662 393.278C497.13 393.392 498.615 393.295 500.117 393.295C500.298 394.093 500.312 394.841 500.641 395.402C500.987 395.991 501.6 396.442 502.156 396.88C503.17 397.68 503.652 398.654 503.464 399.974C503.343 400.814 503.046 401.558 502.274 401.904C500.581 402.663 499.929 404.187 499.409 405.772C497.289 412.233 494.957 418.624 493.201 425.203C492.612 427.407 492.078 429.626 491.487 431.962C491.06 431.91 490.729 431.762 490.489 431.855C487.693 432.948 484.654 432.899 481.806 433.771C479.896 434.355 477.939 434.183 475.983 433.815C473.678 433.382 471.332 433.221 468.994 433.286C468.187 433.308 467.38 433.807 466.599 434.15C466.251 434.303 465.993 434.658 465.65 434.833C464.867 435.233 464.03 434.896 463.811 434.035C463.631 433.328 463.409 432.772 462.806 432.255C462.002 431.565 462.195 430.615 463.065 429.906C463.233 429.768 463.397 429.623 463.64 429.417C462.007 426.992 461.852 424.227 461.702 421.463C461.655 420.59 461.64 419.732 462.007 418.896C462.345 418.122 462.199 417.368 461.784 416.629C460.277 413.946 460.155 411.07 460.693 408.117C460.82 407.414 460.932 406.729 460.6 406.081H459.912C459.718 404.765 459.822 403.617 460.419 402.381C461.029 401.119 461.571 399.801 462.122 398.5C462.614 397.336 463.332 396.49 464.461 395.966C467.472 394.569 470.55 393.416 473.911 393.263C474.381 393.242 474.85 393.174 475.315 393.105C475.996 393.003 476.47 392.602 476.709 391.965C477.65 389.445 478.607 386.929 479.475 384.382C479.668 383.819 479.623 383.121 479.513 382.517C477.88 373.534 475.542 364.756 472.253 356.225C469.479 349.031 466.074 342.177 462.06 335.627C460.411 332.937 458.609 330.339 456.819 327.74C456.387 327.114 455.724 326.65 455.206 326.147C454.342 326.479 453.63 326.748 452.923 327.032C452.875 327.051 452.863 327.165 452.796 327.327C453.113 327.6 453.454 327.894 453.847 328.234C453.716 328.395 453.612 328.652 453.448 328.702C452.398 329.021 451.335 329.294 450.32 329.57C448.843 329.195 447.855 328.201 447.029 327.149C446.079 327.259 445.75 327.855 445.467 328.538C444.931 329.84 444.09 330.84 442.862 331.153C441.401 330.84 440.12 330.565 438.715 330.263C437.859 328.384 438.298 326.483 438.935 324.592C439.311 323.475 439.836 322.388 439.43 320.983C439.107 320.974 438.75 320.962 438.392 320.956C435.362 320.903 432.464 320.435 430.092 318.292C429.448 317.71 428.775 317.161 428.142 316.568C426.246 314.785 426.779 311.896 429.234 311.084C430.637 310.621 432.103 310.363 433.639 310.695C435.031 310.995 436.383 311.348 437.669 311.963C438.661 312.439 439.627 312.419 440.604 311.713C440.604 310.62 440.595 309.521 440.614 308.423C440.617 308.292 440.764 308.162 440.844 308.033C443.053 307.83 447.637 308.598 449.581 309.523V313.773C451.483 314.329 453.509 314.285 455.352 315.366C455.69 316.364 455.456 317.273 454.623 318.046C453.934 318.685 453.161 319.262 452.921 320.494C454.617 322.769 456.47 325.12 458.174 327.578C459.925 330.104 461.576 332.705 463.186 335.324C464.742 337.854 466.19 340.452 467.65 342.962C468.254 342.873 468.207 342.5 468.269 342.215C468.611 340.671 468.885 339.108 469.295 337.581C469.664 336.208 470.118 334.851 470.644 333.53C471.61 331.105 473.204 329.2 475.451 327.847C477.954 326.34 479.939 325.225 483.41 324.763C483.456 325.116 483.601 325.488 483.532 325.815C483.111 327.825 482.641 329.823 482.19 331.828C481.888 333.167 481.287 334.333 480.38 335.374C478.67 337.337 477.007 339.344 475.345 341.35C474.641 342.201 473.964 343.077 473.318 343.973C472.392 345.257 471.485 346.552 469.964 347.379C470.464 349.375 471.446 351.09 472.106 352.921C472.748 354.708 473.496 356.458 474.126 358.25C474.78 360.115 475.364 362.006 475.951 363.893C476.539 365.782 477.133 367.669 477.652 369.578C478.15 371.409 478.577 373.261 478.991 375.114C479.421 377.042 479.799 378.983 480.258 381.202C480.638 380.763 480.944 380.549 481.056 380.259C482.931 375.384 484.725 370.478 486.652 365.626C488.607 360.703 490.688 355.829 492.708 350.931C492.766 350.792 492.75 350.622 492.775 350.418C492.757 350.333 492.589 349.567 491.928 349.302C491.714 349.216 491.511 349.209 491.366 349.22L491.37 349.212ZM515.46 325.112C515.754 325.219 516.062 325.298 516.34 325.437C518.054 326.289 519.956 326.39 521.777 326.792C523.038 327.071 523.607 326.55 523.986 325.28C524.344 324.076 524.048 323.106 523.114 322.32C522.637 321.918 522.159 321.493 521.619 321.193C520.457 320.548 519.248 319.99 518.07 319.374C516.952 318.788 515.999 318.933 515.187 319.907C515.665 320.925 515.844 321.975 515.726 323.057C515.65 323.757 515.578 324.456 515.505 325.156C514.749 325.155 514.508 325.856 514.069 326.264C513.039 327.22 511.913 327.805 510.463 327.677C509.463 327.589 508.468 327.723 507.395 327.888C507.589 329.637 508.199 331.099 509.211 332.301C509.987 333.223 510.607 334.436 511.919 334.711C512.798 334.328 513.067 333.557 513.375 332.838C514.434 330.364 515.358 327.849 515.46 325.111V325.112ZM462.115 406.005C462.043 407.669 462.282 409.206 462.832 410.615C462.944 410.903 463.028 411.22 463.041 411.527C463.122 413.471 464.02 415.383 463.284 417.366C463.207 417.572 463.279 417.837 463.291 418.073C463.469 421.71 464.073 425.289 464.742 428.859C464.865 429.518 465.104 430.142 465.808 430.274C466.846 430.469 467.328 431.261 467.836 432.123C469.124 431.779 470.345 431.936 471.58 432.093C472.582 432.221 473.615 432.219 474.625 432.148C476.575 432.011 478.521 431.803 480.465 431.585C481.472 431.472 482.532 431.437 483.46 431.079C485.319 430.363 487.258 430.156 489.185 429.837C489.631 429.763 490.078 429.704 490.533 429.637C490.658 429.23 490.774 428.938 490.837 428.635C491.365 426.164 491.869 423.689 492.42 421.225C492.504 420.849 492.516 420.214 493.326 420.452C493.265 420.941 493.206 421.408 493.147 421.874C493.607 421.411 493.761 420.904 493.921 420.399C495.525 415.355 497.129 410.312 498.736 405.268C498.897 404.76 499.212 404.247 498.72 403.826C496.115 404.574 493.556 405.301 491.001 406.043C488.745 406.7 486.469 407.301 484.246 408.062C481.382 409.041 478.452 409.399 475.466 409.204C471.456 408.942 467.57 408.063 463.843 406.512C463.351 406.307 462.818 406.206 462.114 406.003L462.115 406.005ZM501.505 398.175C500.239 397.251 499.12 396.399 497.958 395.61C497.654 395.403 497.22 395.329 496.84 395.307C494.571 395.176 492.301 395.051 490.031 394.981C488.309 394.927 486.578 395.141 484.872 394.7C483.938 394.458 483.022 394.658 482.14 394.882C482.015 395.717 482.088 396.511 482.36 397.263C483.047 397.574 483.729 398.016 484.474 398.194C486.193 398.602 487.901 399.278 489.705 398.289C490.51 397.849 491.495 397.722 492.415 397.537C492.651 397.489 493.037 397.683 493.2 397.889C493.491 398.26 493.293 398.659 492.953 398.905C492.385 399.319 491.821 399.782 491.183 400.048C489.663 400.683 488.114 401.259 486.549 401.775C485.185 402.224 485.142 402.151 484.799 400.549C484.771 400.414 484.619 400.307 484.397 400.026C482.108 400.03 479.701 400.204 477.291 400.36C476.087 400.437 475.275 400.986 475.04 402.202C474.092 402.202 473.232 402.235 472.376 402.192C471.63 402.155 471.217 401.732 471.109 401.026C470.972 400.135 471.227 399.502 471.923 399.261C472.578 399.035 473.268 398.911 473.813 398.776C474.239 397.494 474.619 396.348 475.014 395.157C474.681 395.059 474.468 394.945 474.253 394.941C470.868 394.897 467.788 396.05 464.76 397.412C463.53 397.965 462.831 398.933 462.417 400.211C461.702 402.416 462.534 404.399 464.643 405.176C469.641 407.019 474.777 407.947 480.113 407.419C481.049 407.326 481.997 407.227 482.9 406.986C487.528 405.747 492.159 404.516 496.757 403.169C499.802 402.277 499.777 402.191 501.021 399.335C501.145 399.052 501.259 398.764 501.505 398.173V398.175ZM429.224 315.129C429.707 315.817 430.233 316.344 430.491 316.982C430.881 317.947 431.604 318.44 432.431 318.942C433.764 319.752 435.197 319.994 436.71 319.979C438.181 319.966 440.008 318.659 440.343 317.191C440.66 315.8 441.515 314.987 442.741 314.509C444.567 313.795 446.436 313.274 448.374 313.854C449.054 312.855 449.18 311.887 448.932 311.047C447.763 309.627 446.368 309.226 444.829 309.095C444.056 309.03 443.295 308.814 442.528 308.67C442.059 308.582 441.572 308.497 441.243 308.962C440.929 309.405 441.058 309.872 441.283 310.309C441.644 311.009 442.054 311.685 442.383 312.399C442.529 312.715 442.528 313.1 442.63 313.642C441.901 313.552 441.325 313.601 440.854 313.399C439.602 312.864 438.271 312.726 436.966 312.662C435.624 312.596 434.309 312.448 433.051 312.041C431.277 311.467 429.828 312.313 428.353 312.995C427.911 313.2 427.837 313.767 428.402 314.146C428.793 313.864 429.184 313.584 429.865 313.094C429.592 313.963 429.433 314.468 429.225 315.129H429.224ZM469.017 345.331C470.533 344.72 471.623 343.652 472.571 342.37C473.555 341.04 474.576 339.735 475.624 338.455C477.219 336.502 478.874 334.598 480.46 332.637C481.46 331.399 481.872 329.694 481.762 327.742C481.545 327.742 481.319 327.708 481.105 327.747C478.889 328.156 477.044 329.374 475.175 330.537C473.383 331.654 472.077 333.207 471.256 335.152C469.957 338.232 469.316 341.485 468.874 344.783C468.855 344.922 468.947 345.074 469.018 345.33L469.017 345.331ZM493.47 316.94C493.193 319.269 494.082 320.739 495.683 321.805C496.395 322.279 497.248 322.53 498.008 322.938C498.664 323.29 499.786 323.139 499.883 324.09C499.998 325.207 498.737 325.184 498.122 325.714C497.057 326.634 496.008 327.578 495.014 328.573C494.587 329 494.591 329.601 495.014 330.085C495.734 330.914 496.429 331.779 497.241 332.508C498 333.188 498.822 333.102 499.514 332.352C500.575 331.2 501.578 329.992 502.754 328.638C500.598 327.222 500.31 325.154 500.395 322.947C500.41 322.552 500.422 322.156 500.434 321.761C500.475 320.4 500.955 319.306 502.236 318.673C502.333 318.625 502.346 318.404 502.429 318.177C499.606 317.11 496.681 316.965 493.469 316.941L493.47 316.94ZM501.154 322.851C501.177 323.244 501.167 323.642 501.228 324.029C501.362 324.897 501.588 325.726 502.388 326.251C503.151 326.752 503.926 326.877 504.822 326.582C506.452 326.045 508.149 325.99 509.852 326.025C510.315 326.034 510.785 325.948 511.243 325.857C512.8 325.549 513.892 324.578 514.728 323.279C515.141 322.639 514.994 322.036 514.326 321.699C513.771 321.421 513.188 321.169 512.588 321.017C509.533 320.235 506.416 320.226 503.299 320.383C501.793 320.459 501.087 321.349 501.154 322.852V322.851ZM513.592 319.475C513.479 317.491 513.21 315.88 512.042 314.735C510.178 312.908 508.075 311.359 505.526 310.615C504.877 310.425 504.135 310.395 503.461 310.485C502.491 310.615 502.151 311.23 502.459 312.2C503.099 314.217 503.892 316.194 503.715 318.301C505.365 319.029 506.952 318.488 508.485 318.692C510.098 318.906 511.702 319.182 513.592 319.476V319.475ZM446.971 323.1C448.746 320.223 448.782 319.92 448.569 317.197C448.488 316.151 448.035 315.428 447.241 314.805C445.524 314.415 444.085 315.362 442.555 315.864C442.349 315.932 442.177 316.139 442.013 316.306C441.12 317.217 441.026 318.285 441.165 319.532C441.439 321.987 443.142 323.579 445.537 323.369C445.999 323.328 446.454 323.2 446.971 323.1ZM439.306 328.52C439.99 329.226 440.908 329.44 441.848 329.522C442.667 329.594 443.409 329.34 443.903 328.619C444.646 327.535 445.369 326.437 446.176 325.232C445.125 324.88 444.182 324.696 443.375 324.255C442.52 323.789 441.797 323.078 441.009 322.469C439.72 324.58 439.139 326.667 439.306 328.519V328.52ZM454.1 316.816C453.937 315.664 452.944 315.507 452.205 315.217C451.292 314.859 450.28 314.571 449.145 315.13C449.264 316.37 449.379 317.585 449.505 318.899C451.186 318.269 453.033 318.406 454.101 316.815L454.1 316.816ZM480.027 386.856C478.964 388.377 477.912 391.289 477.816 392.984C478.821 393.228 479.769 393.205 480.726 392.493C480.619 390.588 480.616 388.715 480.027 386.856ZM451.78 326.111C451.371 324.906 450.772 323.909 450.053 322.996C449.534 322.338 448.394 322.551 448.166 323.335C448.016 323.848 447.92 324.415 447.969 324.941C448.064 325.99 448.839 326.565 449.701 326.961C450.52 327.339 451.201 327.055 451.78 326.111ZM480.807 397.515C480.428 396.825 480.224 396.418 479.99 396.03C479.376 395.017 478.403 394.888 477.363 395.009C476.842 395.07 476.591 395.488 476.448 395.949C476.328 396.34 476.391 396.673 476.727 396.988C477.154 397.389 477.507 397.871 478.004 398.45C478.785 398.189 479.646 397.902 480.807 397.517V397.515ZM502.191 400.576C502.164 400.511 502.152 400.411 502.105 400.391C502.048 400.366 501.964 400.407 501.89 400.42C501.933 400.513 501.975 400.605 502.018 400.696C502.076 400.656 502.133 400.615 502.191 400.576Z" fill="#8DC0FF"/>
<path d="M640.3 148.13C639.265 149.096 638.014 149.635 636.563 149.795C632.952 150.193 629.357 150.755 625.738 151.026C623.145 151.22 620.524 151.075 617.917 151.021C617.319 151.01 616.725 150.754 616.033 150.588C615.215 152.143 614.857 153.859 614.715 155.564C614.551 157.522 614.627 159.511 614.739 161.478C614.819 162.905 615.368 164.242 615.982 165.539C616.613 166.872 617.411 167.956 618.989 168.309C619.824 168.495 620.615 168.913 621.399 169.282C622.686 169.887 623.922 170.611 625.236 171.147C626.464 171.648 627.767 171.971 629.104 172.393C629.16 172.691 629.265 172.994 629.267 173.296C629.28 181.335 628.764 189.375 629.479 197.571C628.862 197.583 628.414 197.626 627.972 197.595C626.478 197.492 624.986 197.284 623.492 197.268C622.339 197.254 621.397 197.79 620.8 198.994C622.735 199.808 624.708 199.963 626.647 200.219C628.128 200.415 629.625 200.33 631.121 200.269C633.886 200.159 636.655 200.163 639.423 200.116C640.197 200.103 641 200.176 641.794 199.465C641.382 199.228 641.091 198.945 640.763 198.892C638.895 198.585 637.022 198.29 635.14 198.077C633.802 197.926 632.489 197.733 631.296 197.304C630.689 196.013 631.226 194.85 631.237 193.685C631.248 192.606 631.15 191.526 631.252 190.44C631.772 192.313 631.305 194.267 631.739 196.212C632.984 196.804 634.307 196.936 635.643 197.027C638.494 197.219 641.293 197.676 643.954 198.775C644.245 198.895 644.578 198.986 644.793 199.193C644.994 199.388 645.193 199.738 645.154 199.983C645.117 200.219 644.804 200.543 644.564 200.593C643.717 200.769 642.852 200.891 641.989 200.947C637.027 201.268 632.058 201.738 627.089 201.461C624.825 201.335 622.59 200.669 620.346 200.229C619.388 200.041 618.827 199.095 619.806 198.042C621.015 196.742 622.419 195.723 624.366 195.972C624.914 196.042 625.465 196.081 626.013 196.142C626.866 196.237 627.718 196.363 628.505 196.179C628.643 195.952 628.793 195.82 628.793 195.687C628.804 188.423 628.802 181.159 628.802 174.04C628.561 173.794 628.473 173.62 628.349 173.589C626.032 173.002 623.9 171.987 621.784 170.902C620.663 170.327 619.462 169.901 618.278 169.458C617.349 169.111 616.613 168.577 616.129 167.7C614.888 165.459 613.95 163.136 614.032 160.507C614.064 159.48 614.099 158.446 614.029 157.422C613.849 154.837 614.545 152.405 615.263 149.978C615.644 148.687 615.84 148.558 617.291 148.535C619.026 148.508 620.762 148.593 622.495 148.549C623.596 148.522 624.725 148.477 625.784 148.212C627.666 147.743 629.54 147.704 631.433 147.955C632.54 148.102 633.611 148.086 634.719 147.856C635.948 147.6 637.22 147.562 638.472 147.408C639.399 147.294 640.322 147.148 641.355 147C642.109 148.817 642.442 150.664 642.496 152.538C642.578 155.462 642.556 158.389 642.535 161.316C642.521 163.309 642.101 165.238 641.389 167.097C640.953 168.234 640.188 169.098 639.193 169.823C637.568 171.003 635.678 171.611 633.896 172.448C633.467 172.648 633.004 172.78 632.59 173.006C632.005 173.325 631.64 173.85 631.574 174.515C631.52 175.048 631.563 175.592 631.563 176.246C630.748 175.695 631.34 175.111 631.274 174.602C631.195 173.983 631.255 173.347 631.255 172.572C632.762 171.954 634.294 171.35 635.803 170.694C636.669 170.318 637.517 169.889 638.342 169.43C639.796 168.619 640.702 167.363 641.183 165.782C641.806 163.733 642.23 161.653 642.217 159.497C642.206 157.678 642.3 155.853 642.189 154.04C642.09 152.393 641.806 150.754 641.542 149.122C641.446 148.523 640.96 148.216 640.304 148.127L640.3 148.13ZM630.107 149.511C626.582 148.818 623.575 148.976 620.585 149.629C620.023 149.751 619.316 149.774 618.984 150.612C620.648 151.093 622.291 150.934 623.869 150.733C625.782 150.49 627.777 150.547 630.107 149.512V149.511Z" fill="#8DC0FF"/>
<path d="M631.366 192.17C631.162 191.199 630.909 189.778 630.773 188.044C630.665 186.662 630.656 185.4 630.812 182.162C630.896 180.409 631.026 178.13 631.234 175.449L631.556 175.779C631.341 178.252 631.207 180.385 631.119 182.082C630.95 185.343 630.965 186.776 631.113 188.349C631.222 189.515 631.378 190.475 631.499 191.131L631.366 192.169V192.17Z" fill="#8DC0FF"/>
</svg>
