<svg width="864" height="536" viewBox="0 0 864 536" fill="none" xmlns="http://www.w3.org/2000/svg">
<path d="M111.799 205.27C112.177 204.804 112.549 204.344 112.956 203.841C113.204 204.01 113.368 204.097 113.503 204.216C113.871 204.539 114.156 204.441 114.543 204.173C115.935 203.213 117.366 202.307 118.782 201.381C119.334 201.02 119.861 200.614 120.441 200.307C122.07 199.445 123.718 198.62 125.365 197.792C125.57 197.688 125.831 197.692 126.033 197.584C126.401 197.387 126.778 197.181 127.089 196.909C127.649 196.42 128.11 195.804 128.712 195.381C129.328 194.949 130.041 194.625 130.754 194.365C131.485 194.098 132.264 193.961 133.024 193.775C133.955 193.546 134.871 193.575 135.831 193.708C136.489 193.8 137.206 193.505 137.89 193.353C138.913 193.125 139.931 192.874 140.948 192.624C141.363 192.522 141.766 192.376 142.183 192.291C143.557 192.008 144.933 191.736 146.312 191.477C147.081 191.333 147.894 191.329 148.621 191.074C149.82 190.652 151.1 190.846 152.305 190.411C153.167 190.1 154.144 190.104 155.071 189.981C156.199 189.833 157.327 189.679 158.46 189.572C159.042 189.516 159.633 189.556 160.22 189.555C161.96 189.552 163.706 189.629 165.44 189.525C167.207 189.42 168.93 189.571 170.655 189.913C170.991 189.979 171.443 190.023 171.688 189.854C172.099 189.569 172.363 189.699 172.753 189.846C174.404 190.468 176.108 190.961 177.733 191.644C179.613 192.434 181.562 193.024 183.458 193.763C184.518 194.176 185.505 194.803 186.586 195.124C188.458 195.678 189.857 196.956 191.434 197.972C193.028 198.999 194.655 199.974 196.252 200.995C196.983 201.463 197.694 201.965 198.384 202.491C200.111 203.805 201.923 205.032 203.513 206.499C205.187 208.045 206.778 209.726 208.152 211.541C209.28 213.03 210.049 214.793 210.941 216.453C211.078 216.709 211.048 217.069 211.049 217.381C211.057 219.478 211.034 221.575 211.062 223.67C211.074 224.582 210.614 225.31 210.279 226.094C210.193 226.297 210.162 226.524 210.077 226.85H213.549C213.733 227.693 213.311 228.117 212.731 228.439C211.974 228.859 211.195 229.239 210.442 229.668C209.686 230.099 209.115 230.623 209.303 231.652C209.416 232.268 209.062 232.582 208.491 232.362C207.43 231.95 206.624 232.124 205.943 233.053C205.744 233.324 205.39 233.485 205.122 233.683C203.584 233.029 203.521 232.825 204.356 231.413C204.04 230.958 203.658 230.559 203.456 230.083C203.014 229.045 203.506 228.201 204.6 227.99C204.793 227.953 204.993 227.96 205.192 227.953C206.72 227.897 207.533 227.235 208.109 225.834C209.141 223.324 209.052 220.801 208.153 218.329C207.573 216.734 206.535 215.395 205.131 214.351C204.124 213.602 203.19 212.753 202.257 211.911C200.714 210.521 199.244 209.046 197.657 207.712C196.795 206.987 195.748 206.484 194.791 205.869C193.247 204.876 191.608 204.046 190.204 202.813C189.422 202.124 188.602 201.368 187.351 201.354C186.704 201.346 186.064 200.831 185.419 200.549C184.885 200.313 184.349 200.081 183.814 199.849C183.778 199.834 183.724 199.843 183.701 199.818C182.85 198.906 181.559 198.726 180.62 197.952C179.661 197.161 178.656 196.424 177.691 195.641C177.368 195.379 177.114 195.033 176.804 194.753C176.581 194.551 176.34 194.303 176.066 194.231C174.356 193.781 172.635 193.377 170.918 192.954C169.44 192.59 167.987 192.221 166.428 192.173C164.35 192.11 162.287 191.654 160.207 191.526C158.841 191.442 157.459 191.633 156.084 191.712C155.534 191.745 154.985 191.791 154.439 191.862C153.705 191.958 152.928 191.967 152.255 192.229C151.357 192.579 150.432 192.417 149.538 192.61C147.901 192.964 146.261 193.308 144.619 193.636C143.622 193.835 142.612 193.972 141.618 194.186C140.47 194.434 139.329 194.713 138.195 195.02C135.68 195.701 133.435 197.022 131.087 198.091C129.596 198.769 128.221 199.7 126.745 200.418C125.451 201.047 124.021 201.418 122.777 202.125C121.543 202.828 120.319 203.551 119.074 204.24C118.717 204.438 118.393 204.812 118.209 205.183C117.871 205.858 117.399 206.308 116.698 206.58C115.021 207.231 114.333 208.83 113.355 210.146C112.908 210.745 112.47 211.353 112.067 211.982C111.689 212.571 111.295 213.166 111.03 213.808C110.63 214.779 110.33 215.791 109.998 216.789C109.913 217.045 109.837 217.313 109.815 217.581C109.661 219.506 109.523 221.433 109.379 223.359C109.257 224.982 109.327 226.579 109.99 228.104C110.08 228.31 110.208 228.663 110.119 228.758C109.551 229.355 110.053 229.871 110.212 230.385C110.454 231.172 110.793 231.928 111.063 232.707C111.548 234.099 112.426 235.185 113.632 236.002C114.852 236.829 115.74 237.94 116.597 239.125C117.534 240.421 118.616 241.591 119.94 242.564C120.97 243.323 121.743 244.422 122.68 245.32C123.382 245.992 124.117 246.649 124.919 247.19C125.866 247.829 126.934 248.285 127.886 248.918C128.927 249.609 129.923 250.376 130.882 251.176C131.608 251.781 132.329 252.337 133.2 252.748C134.87 253.537 136.554 254.268 138.33 254.792C140.673 255.485 142.989 256.271 145.341 256.927C146.316 257.199 147.361 257.387 148.367 257.352C150.707 257.274 152.611 258.249 154.486 259.467C155.016 259.811 155.726 259.958 156.37 260.024C157.39 260.127 158.435 260.002 159.45 260.126C160.562 260.261 161.682 260.473 162.74 260.83C163.581 261.114 164.33 261.666 165.174 262.128C166.126 261.503 167.142 261.394 168.249 261.888C168.609 262.048 169.138 262.02 169.528 261.893C171.082 261.388 172.515 261.678 173.954 262.328C174.313 262.491 174.807 262.322 175.223 262.396C176.575 262.635 177.937 262.852 179.264 263.196C180.791 263.593 182.313 263.887 183.899 263.901C184.675 263.909 185.45 264.093 186.224 264.203C186.793 264.285 187.225 264.205 187.699 263.74C188.589 262.864 189.562 261.977 191.027 262.533C191.312 262.641 191.648 262.628 191.963 262.637C193.147 262.676 193.827 263.304 194.094 264.43C194.131 264.583 194.132 264.78 194.23 264.877C194.928 265.573 194.876 266.465 194.852 267.322C194.831 268.048 195.025 268.563 195.611 269.051C196.642 269.909 197.301 271.004 197.197 272.436C197.178 272.701 197.266 272.984 197.354 273.242C197.677 274.188 197.823 275.12 197.63 276.142C197.511 276.766 197.741 277.451 197.782 278.111C197.866 279.511 198.337 280.88 198 282.318C197.85 282.956 197.921 283.645 197.888 284.366H197.034C196.987 284.409 196.899 284.449 196.879 284.512C196.499 285.657 196.148 286.812 195.739 287.947C195.621 288.278 195.533 288.538 195.564 288.928C195.634 289.835 194.955 290.557 193.97 290.858C193.517 290.997 193.054 291.103 192.605 291.255C192.385 291.329 192.056 291.429 192.005 291.591C191.738 292.445 191.003 292.453 190.338 292.688C189.939 292.829 189.613 293.245 189.317 293.592C188.829 294.164 188.384 294.545 187.501 294.299C186.907 294.134 186.199 294.414 185.543 294.427C185.122 294.436 184.7 294.316 184.277 294.262C184.047 294.234 183.77 294.133 183.588 294.22C182.251 294.863 180.744 294.788 179.371 295.253C177.806 295.782 176.209 295.699 174.599 295.654C174.038 295.639 173.469 295.853 172.904 295.967C172.79 295.99 172.682 296.055 172.568 296.067C171.283 296.199 170 296.407 168.714 296.43C167.294 296.455 165.901 296.582 164.502 296.828C163.111 297.073 161.695 297.18 160.29 297.347C160.25 297.352 160.204 297.334 160.172 297.349C158.101 298.391 155.954 297.373 153.845 297.563C153.238 297.618 152.591 297.226 151.963 297.038C151.742 296.972 151.52 296.837 151.303 296.844C148.431 296.952 145.597 296.194 142.717 296.463C141.992 296.53 141.357 296.422 140.759 295.869C140.358 295.498 139.725 295.35 139.173 295.177C137.562 294.671 135.932 294.23 134.232 294.143C133.301 293.471 132.145 293.589 131.12 293.257C130.47 293.045 129.929 292.662 129.125 292.879C128.656 293.005 128.029 292.569 127.482 292.367C126.979 292.182 126.546 291.751 125.932 291.977C125.844 292.009 125.704 291.931 125.6 291.879C124.231 291.216 122.87 290.535 121.494 289.887C120.745 289.535 119.969 289.238 119.208 288.91C117.835 288.318 116.462 287.726 115.093 287.125C113.975 286.634 112.847 286.158 111.752 285.616C111.306 285.396 110.948 285.003 110.53 284.719C110.217 284.506 109.874 284.339 109.54 284.158C109.337 284.049 109.084 283.999 108.926 283.847C108.039 282.998 106.912 282.653 105.782 282.327C104.725 282.024 103.653 281.775 102.587 281.507C102.435 281.469 102.264 281.409 102.122 281.443C101.029 281.702 100.135 281.131 99.1724 280.797C95.4121 279.493 92.0544 277.373 88.5269 275.599C88.0733 275.371 87.6577 275.052 87.2612 274.729C83.5603 271.721 79.5472 269.21 75.2633 267.123C74.8204 266.907 74.4073 266.631 74 266.396C74.2018 265.839 74.4999 265.895 74.8181 266.02C76.0315 266.496 77.2533 266.952 78.4572 267.452C80.7179 268.39 82.9275 269.401 85.0646 270.632C87.6601 272.126 90.4634 273.259 93.1906 274.518C93.7689 274.786 94.3138 275.239 95.2305 275.134C94.8612 274.629 94.5703 274.274 94.3257 273.889C93.928 273.264 93.5183 272.64 93.1918 271.978C92.7763 271.137 92.8107 271.119 93.7 270.376C95.2981 271.521 96.9307 272.667 98.5407 273.848C100.202 275.066 101.968 276.045 103.982 276.565C104.5 276.7 104.974 277.019 105.453 277.281C107.105 278.184 108.762 279.075 110.391 280.017C111.293 280.537 112.166 281.068 112.779 282.003C113.331 282.846 114.428 283.008 115.283 283.47C115.76 283.727 116.291 283.889 116.804 284.075C117.222 284.226 117.571 284.396 118.115 284.297C118.722 284.188 119.478 284.471 120.064 284.782C121.36 285.469 122.813 285.603 124.157 286.103C125.552 286.622 126.953 287.125 128.367 287.59C129.7 288.028 131.052 288.403 132.392 288.817C132.654 288.898 132.899 289.029 133.152 289.134C134.742 289.8 136.432 290.055 138.113 290.349C138.449 290.408 138.768 290.575 139.091 290.703C139.905 291.026 140.753 290.989 141.607 291.06C144.872 291.331 148.109 291.923 151.405 291.875C151.936 291.866 152.479 292.086 153.001 292.25C154.363 292.679 155.739 292.315 157.106 292.339C158.646 292.366 160.19 292.289 161.73 292.214C163.844 292.112 165.983 292.129 168.059 291.785C169.358 291.568 170.637 291.581 171.923 291.467C172.772 291.393 173.609 291.186 174.456 291.066C176.789 290.735 179.128 290.445 181.456 290.087C183.252 289.811 185.039 289.476 186.823 289.125C187.32 289.028 187.8 288.809 188.264 288.594C188.664 288.409 188.813 288.022 189.035 287.64C189.646 286.583 189.177 285.274 189.939 284.295C189.957 282.336 190.305 280.345 189.175 278.525C188.516 277.463 187.986 276.334 187.984 275.036C187.983 274.361 187.615 273.932 187.028 273.666C185.064 272.773 183.112 271.849 181.126 271.01C180.162 270.603 179.105 270.041 178.135 270.116C176.906 270.211 175.876 269.627 174.713 269.611C174.073 269.603 173.4 269.383 172.81 269.11C172.106 268.785 171.458 268.533 170.677 268.83C170.503 268.897 170.237 268.724 170.014 268.66C169.678 268.563 169.311 268.325 169.012 268.392C168.207 268.572 167.543 268.347 166.873 267.957C166.644 267.824 166.353 267.746 166.087 267.739C165.294 267.719 164.518 267.759 163.867 267.132C163.679 266.952 163.27 266.991 162.96 266.952C162.138 266.847 161.368 266.657 160.709 266.085C160.394 265.812 159.963 265.652 159.561 265.506C157.803 264.868 156.046 264.224 154.27 263.646C153.54 263.409 152.753 263.354 152.003 263.169C151.522 263.05 150.948 262.968 150.615 262.656C149.878 261.964 149.003 261.762 148.077 261.565C147.507 261.444 146.949 261.221 146.416 260.977C144.559 260.131 142.728 259.223 140.858 258.405C140.155 258.098 139.369 257.982 138.627 257.756C136.947 257.247 135.253 256.804 133.678 255.97C132.623 255.412 131.428 255.122 130.349 254.602C129.874 254.374 129.362 253.945 129.164 253.479C128.747 252.497 127.808 252.231 127.076 251.707C125.899 250.865 124.624 250.163 123.42 249.357C122.606 248.813 121.843 248.193 121.058 247.606C120.497 247.184 120.034 246.664 119.543 246.171C118.767 245.392 117.719 244.879 116.776 244.273C116.558 244.133 116.235 244.127 116.063 243.956C114.9 242.809 113.523 241.89 112.594 240.485C112.137 239.795 111.441 239.369 110.509 239.12C109.46 238.841 108.458 238.108 107.633 237.358C106.901 236.692 106.828 235.576 106.781 234.622C106.724 233.498 106.568 232.542 105.876 231.552C105.056 230.379 104.632 228.947 104.817 227.431C104.85 227.161 104.847 226.86 104.756 226.609C104.229 225.145 104.49 223.63 104.451 222.138C104.445 221.901 104.557 221.547 104.731 221.441C105.4 221.035 105.509 220.335 105.538 219.726C105.603 218.333 105.99 217.027 106.334 215.701C106.629 214.567 106.81 213.405 107.123 212.277C107.341 211.487 107.656 210.717 107.999 209.971C108.568 208.737 109.195 207.531 109.798 206.314C109.938 206.032 110.057 205.734 110.231 205.475C110.642 204.867 110.784 204.847 111.804 205.27H111.799ZM193.968 282.981C194.79 281.972 194.784 281.802 193.968 281.438V282.981Z" fill="#8DC0FF"/>
<path d="M575.697 250.692C575.06 252.727 574.594 254.642 573.858 256.447C573.007 258.532 572.324 260.712 570.897 262.537C570.498 263.046 570.378 263.764 570.065 264.352C569.455 265.498 568.771 266.605 568.177 267.76C567.934 268.232 567.751 268.78 567.716 269.305C567.672 269.975 567.529 270.512 566.99 270.967C566.263 271.578 566.001 272.452 565.804 273.354C565.695 273.847 565.618 274.409 565.33 274.789C564.112 276.389 563.157 278.104 562.436 279.992C561.564 282.28 560.425 284.446 558.67 286.223C558.225 286.673 558.104 287.228 558.135 287.855C558.195 289.088 557.86 290.252 557.427 291.389C557.331 291.64 557.181 291.881 557.016 292.097C556.278 293.065 555.141 293.05 554.277 292.139C553.996 291.842 553.579 291.652 553.194 291.48C552.715 291.265 552.411 290.957 552.406 290.416C552.392 288.845 552.267 287.262 552.798 285.742C552.921 285.389 553.093 284.95 553.379 284.777C554.088 284.349 554.412 283.682 554.646 282.984C555.443 280.611 556.259 278.24 556.915 275.829C557.241 274.636 557.218 273.35 557.384 272.11C557.524 271.065 557.625 270.004 557.895 268.99C558.176 267.933 559.037 267.322 560 266.881C560.56 266.625 561.13 266.39 561.779 266.111C561.86 266.426 561.932 266.635 561.969 266.852C562.097 267.6 562.023 268.419 562.928 268.822C563.159 268.926 563.267 269.305 563.494 269.652C563.677 269.375 563.829 269.202 563.917 269.002C564.554 267.527 565.083 266.025 565.496 264.461C566.463 260.81 567.902 257.336 570.005 254.176C571.513 251.911 572.289 249.361 573.038 246.792C573.136 246.453 573.269 246.124 573.354 245.783C573.423 245.505 573.443 245.215 573.484 244.931C573.399 244.89 573.312 244.848 573.227 244.808C572.451 245.716 571.681 246.627 570.901 247.531C570.413 248.098 569.884 248.631 569.43 249.222C569.082 249.676 568.736 249.647 568.258 249.367C568.772 247.873 569.442 246.475 570.321 245.156C571.061 244.047 571.644 242.834 572.36 241.708C572.992 240.714 573.708 239.775 574.39 238.814C574.687 238.396 574.691 238.399 574.578 237.566C574.393 237.616 574.201 237.633 574.046 237.716C573.565 237.971 572.979 238.191 572.633 237.733C572.335 237.337 572.191 236.703 572.241 236.201C572.296 235.642 572.621 235.098 572.881 234.574C572.999 234.338 573.214 234.117 573.438 233.973C574.729 233.151 576.073 232.405 577.321 231.524C577.945 231.084 578.538 230.486 578.915 229.829C580.411 227.219 581.432 224.392 582.495 221.587C582.578 221.368 582.644 221.139 582.75 220.93C583.565 219.317 583.927 217.565 584.39 215.838C584.65 214.866 584.763 213.844 585.394 212.969C585.663 212.597 585.607 212 585.729 211.512C585.841 211.068 585.889 210.55 586.155 210.216C586.51 209.774 586.615 209.344 586.621 208.809C586.628 208.266 586.757 207.724 586.797 207.179C586.818 206.874 586.819 206.545 586.732 206.258C586.373 205.072 586.337 203.943 587.058 202.854C587.218 202.61 587.292 202.251 587.268 201.956C587.176 200.82 587.531 199.785 587.873 198.735C587.98 198.406 587.977 198.04 588.031 197.693C588.253 196.296 588.479 194.901 588.702 193.506C588.733 193.311 588.769 193.118 588.785 192.922C588.922 191.357 589.036 189.791 589.2 188.23C589.252 187.733 589.47 187.257 589.551 186.762C589.599 186.464 589.525 186.146 589.505 185.811C588.726 185.645 588.307 186.039 587.86 186.535C586.666 187.863 585.6 189.32 584.095 190.348C583.694 190.622 583.346 190.981 583.004 191.331C582.104 192.255 580.995 192.797 579.807 193.25C579.2 193.48 578.691 193.957 578.098 194.239C577.723 194.417 577.256 194.564 576.861 194.508C575.764 194.353 574.878 194.813 574.169 195.489C573.237 196.378 572.07 196.842 571.03 197.528C568.796 198.999 566.561 200.469 564.341 201.962C563.047 202.832 561.777 203.742 560.503 204.643C559.774 205.158 559.063 205.699 558.333 206.212C558.11 206.368 557.854 206.57 557.604 206.584C556.202 206.67 555.299 207.731 554.192 208.352C552.483 209.309 550.917 210.52 549.278 211.604C548.194 212.322 547.09 213.01 545.988 213.7C544.632 214.549 543.69 215.847 542.5 216.874C542.221 217.115 541.853 217.249 541.536 217.45C541.078 217.739 540.558 217.976 540.192 218.357C538.9 219.702 537.435 220.832 535.965 221.964C535.653 222.204 535.275 222.443 535.113 222.775C534.59 223.839 533.628 224.532 532.956 225.469C532.484 226.126 531.881 226.694 531.306 227.273C530.858 227.723 530.31 227.817 529.707 227.471C529.214 228.167 528.782 228.825 528.301 229.444C527.577 230.375 526.792 231.258 526.082 232.197C525.346 233.171 524.682 234.199 523.955 235.18C523.737 235.474 523.407 235.686 523.134 235.941C522.934 236.127 522.73 236.311 522.553 236.519C521.847 237.345 521.138 238.172 520.455 239.017C520.089 239.47 519.693 239.926 519.451 240.446C519.119 241.158 518.519 241.59 518.022 242.14C516.941 243.338 515.929 244.599 514.892 245.837C514.717 246.046 514.559 246.271 514.288 246.623C513.907 245.897 513.497 245.289 513.252 244.62C511.744 240.523 510.245 236.422 508.803 232.302C508.13 230.378 507.688 228.371 506.967 226.466C506.105 224.188 505.159 221.928 504.064 219.754C502.789 217.222 501.333 214.779 499.919 212.319C499.314 211.265 498.636 210.251 497.949 209.245C497.387 208.421 496.218 208.154 495.264 208.427C493.562 208.914 492.322 210.031 491.16 211.267C490.574 211.891 489.986 212.528 489.508 213.232C488.964 214.034 488.555 214.926 488.063 215.764C487.311 217.041 486.548 218.313 485.769 219.574C485.442 220.103 485.005 220.57 484.72 221.117C484.349 221.833 483.618 222.097 483.103 222.593C482.329 223.339 481.785 224.334 481.195 225.256C480.858 225.782 480.656 226.392 480.336 226.93C479.732 227.942 478.971 228.864 478.701 230.057C478.642 230.312 478.443 230.544 478.28 230.767C476.986 232.543 476.106 234.485 475.682 236.66C475.444 237.882 475.056 239.091 474.59 240.247C474.215 241.18 473.688 242.07 473.115 242.901C471.989 244.541 471.164 246.272 470.725 248.237C470.429 249.564 469.761 250.805 469.309 252.101C468.991 253.016 468.537 253.957 468.532 254.888C468.525 256.267 467.917 257.381 467.45 258.576C467.337 258.863 467.25 259.161 467.091 259.633C468.351 258.972 468.272 257.455 469.385 256.859C470.028 257 470.114 257.55 469.987 258.038C469.582 259.591 469.632 261.173 469.582 262.749C469.581 262.789 469.575 262.829 469.568 262.867C469.317 264.207 468.901 265.498 468.733 266.878C468.555 268.345 468.097 269.877 466.905 271.006C467.071 271.385 467.199 271.71 467.352 272.022C467.852 273.045 468.341 274.073 468.873 275.077C469.088 275.482 469.34 275.91 469.683 276.196C471.249 277.493 472.005 279.138 471.916 281.158C471.881 281.976 471.997 282.738 472.484 283.405C472.977 284.08 472.986 284.712 472.35 285.317C473.062 287.189 474.223 288.712 475.532 290.152C476.051 290.721 476.609 291.243 476.97 291.989C477.361 292.802 476.93 293.447 476.89 294.161C476.85 294.869 477.178 295.64 476.458 296.267C476.176 296.512 476.15 297.049 475.985 297.516C474.891 297.678 473.865 297.563 473.138 296.615C472.593 295.905 471.784 295.935 470.925 295.667C470.753 296.109 470.535 296.556 470.406 297.025C470.127 298.029 469.633 298.194 468.871 297.526C468.494 297.196 468.043 296.949 467.674 296.612C467.216 296.194 466.693 295.788 466.396 295.264C465.137 293.038 463.999 290.756 463.477 288.215C463.314 287.419 463.028 286.649 462.799 285.868C462.776 285.792 462.754 285.716 462.747 285.637C462.611 284.154 462.494 282.67 462.339 281.19C462.246 280.293 462.039 279.406 461.989 278.509C461.924 277.326 461.961 276.138 461.956 274.951C461.953 274.493 461.956 274.034 461.956 273.49C460.38 274.537 460.144 276.44 458.745 277.556C458.109 276.165 458.078 274.924 458.374 273.491C458.678 272.019 459.344 270.786 459.954 269.48C460.968 267.309 461.958 265.123 462.859 262.902C463.302 261.813 463.546 260.637 463.838 259.49C464.195 258.087 464.589 256.726 465.368 255.457C465.929 254.544 466.191 253.437 466.523 252.397C466.877 251.291 467.097 250.138 467.483 249.044C468.014 247.542 468.605 246.058 469.247 244.6C469.892 243.135 470.617 241.704 471.337 240.273C471.473 240.003 471.747 239.798 471.967 239.574C473.184 238.338 473.995 236.865 474.492 235.217C474.594 234.877 474.575 234.499 474.61 234.14C474.531 234.122 474.451 234.105 474.372 234.087C473.446 235.275 472.519 236.462 471.538 237.722C471.013 236.495 471.057 234.84 471.523 233.94C472.582 231.9 473.874 230.039 475.502 228.4C476.108 227.791 476.586 227.051 477.094 226.351C477.786 225.394 478.433 224.404 479.132 223.451C480.436 221.67 481.781 219.919 483.069 218.127C483.385 217.688 483.569 217.15 483.78 216.643C484.503 214.907 485.219 213.168 485.922 211.423C486.163 210.824 486.46 210.29 487.089 209.964C488.131 210.735 487.204 211.911 487.693 212.909C487.926 212.688 488.116 212.525 488.288 212.344C489.559 211 490.771 209.595 492.109 208.321C493.472 207.024 495.217 206.574 497.039 206.863C498.623 207.115 499.798 208.142 500.662 209.481C501.708 211.101 502.756 212.722 503.758 214.368C505.617 217.427 507.287 220.575 508.479 223.974C509.244 226.159 510.185 228.287 511.137 230.401C511.683 231.613 512.422 232.737 513.056 233.911C513.768 235.228 514.275 236.602 514.498 238.108C514.632 239.01 515.097 239.864 515.489 240.95C515.96 240.419 516.394 240.02 516.721 239.548C518.567 236.863 521.062 234.745 523.086 232.219C523.506 231.695 523.965 231.196 524.341 230.644C525.64 228.74 527.274 227.126 528.824 225.443C529.93 224.242 530.781 222.903 531.327 221.365C531.365 221.258 531.441 221.166 531.52 221.033H532.401C532.464 221.372 532.523 221.699 532.588 222.052C532.734 222.042 532.89 222.08 532.949 222.021C533.843 221.131 534.712 220.217 535.611 219.334C536.593 218.369 537.6 217.429 538.597 216.478C539.332 215.777 539.991 214.96 540.825 214.404C541.823 213.738 542.733 213.02 543.491 212.096C543.637 211.918 543.844 211.772 544.051 211.663C545.219 211.043 546.476 210.556 547.549 209.802C548.993 208.787 550.786 208.377 552.052 207.044C552.607 206.46 553.423 206.131 554.092 205.645C555.426 204.676 556.7 203.62 558.074 202.715C559.248 201.941 560.532 201.335 561.76 200.639C562.686 200.116 563.618 199.599 564.509 199.022C565.304 198.508 566.034 197.897 566.818 197.365C567.754 196.728 568.718 196.132 569.671 195.519C570.99 194.667 572.286 193.779 573.633 192.975C574.775 192.294 575.975 191.708 577.152 191.084C577.395 190.955 577.674 190.879 577.895 190.718C579.036 189.889 580.165 189.044 581.296 188.201C583.255 186.743 585.211 185.282 587.172 183.826C587.552 183.543 587.922 183.232 588.34 183.022C589.073 182.655 589.824 182.313 590.597 182.044C591.034 181.892 591.372 182.148 591.439 182.629C591.504 183.098 591.556 183.573 591.568 184.046C591.672 188.193 591.767 192.339 591.859 196.486C591.871 197 591.846 197.516 591.864 198.029C591.936 200.123 591.628 202.172 591.155 204.205C591.093 204.47 591.085 204.758 591.108 205.03C591.256 206.804 590.651 208.447 590.157 210.087C589.265 213.049 588.247 215.975 587.279 218.914C586.713 220.63 586.154 222.35 585.569 224.059C584.96 225.84 584.292 227.602 583.707 229.392C583.319 230.579 583.116 231.832 582.677 232.998C581.621 235.791 581.697 238.712 581.487 241.614C581.41 242.68 580.942 243.726 580.602 244.765C580.091 246.336 579.667 247.921 579.608 249.581C579.576 250.491 578.939 251.068 578.419 251.666C577.983 252.164 577.44 252.092 576.812 251.642C576.436 251.372 576.102 251.044 575.694 250.696L575.697 250.692ZM466.656 261.658C466.151 261.764 465.907 261.979 466.202 262.494C466.357 262.356 466.501 262.284 466.553 262.17C466.624 262.016 466.626 261.829 466.656 261.657V261.658Z" fill="#8DC0FF"/>
<path d="M253.953 326.627C254.727 326.749 255.465 326.7 255.761 327.478C255.513 328.393 254.959 328.823 253.986 329.061C252.583 329.405 251.222 329.91 249.749 329.779C249.293 329.738 248.846 329.59 248.393 329.506C248.125 329.456 247.852 329.421 247.58 329.403C246.405 329.326 245.231 329.212 244.056 329.2C243.235 329.192 242.411 329.393 241.592 329.377C241.067 329.368 240.413 329.292 240.047 328.977C238.9 327.991 237.449 327.911 236.132 327.436C234.015 326.673 231.902 325.898 229.8 325.097C228.084 324.443 226.842 323.133 225.608 321.859C224.344 320.554 223.107 319.207 222.002 317.768C219.203 314.119 217.6 309.959 216.8 305.436C216.513 303.82 215.837 302.273 215.321 300.7C214.977 299.648 214.592 298.608 214.249 297.556C214.146 297.241 214.12 296.902 214.026 296.407C215.054 296.854 214.87 297.999 215.869 298.506C215.721 297.899 215.634 297.463 215.508 297.038C215.004 295.333 214.491 293.632 213.978 291.93C213.477 290.265 212.962 288.604 212.478 286.933C212.345 286.473 212.076 285.975 212.542 285.446C213.901 287.838 215.226 290.166 216.639 292.65C216.805 292.279 216.933 292.091 216.974 291.885C217.219 290.685 217.455 289.482 217.669 288.276C217.765 287.732 217.848 287.179 217.857 286.629C217.897 284.244 218.445 281.975 219.291 279.756C219.51 279.179 219.557 278.528 219.633 277.906C219.775 276.73 219.878 275.551 220.001 274.375C220.123 273.197 220.253 272.019 220.372 270.841C220.531 269.272 220.631 267.694 220.86 266.135C220.961 265.451 221.24 264.762 221.573 264.15C222.284 262.84 222.606 262.783 223.894 263.523C224.561 263.47 224.816 262.941 225.031 262.443C226.74 258.496 229.322 255.179 232.352 252.175C233.052 251.483 233.709 250.748 234.53 249.88V251.397C234.944 251.242 235.235 251.171 235.49 251.032C237.297 250.051 239.049 248.952 240.913 248.098C242.734 247.263 244.66 246.647 246.561 245.999C247.068 245.826 247.653 245.853 248.204 245.848C249.069 245.84 249.935 245.929 250.798 245.896C253.82 245.779 256.749 246.372 259.453 247.594C262.258 248.86 264.431 250.903 265.893 253.771C267.294 256.522 267.519 259.511 268.263 262.395C268.438 263.077 268.641 263.761 268.915 264.41C269.758 266.409 270.73 268.341 271.362 270.442C271.748 271.727 271.825 272.862 271.416 274.108C271.222 274.7 271.199 275.352 271.122 275.979C271.021 276.793 271.099 277.624 270.614 278.384C270.427 278.675 270.513 279.154 270.513 279.547C270.51 282.434 270.57 285.323 270.503 288.209C270.465 289.862 270.305 291.521 270.066 293.158C269.793 295.033 269.349 296.882 269.021 298.75C268.532 301.541 267.582 304.185 266.374 306.72C265.671 308.192 265.034 309.751 263.683 310.844C262.304 311.962 261.725 313.587 261.252 315.211C261.032 315.966 260.643 316.513 260.018 316.852C259.049 317.378 258.598 318.271 258.103 319.164C256.92 321.293 255.718 323.41 254.527 325.534C254.341 325.865 254.174 326.207 253.954 326.627H253.953ZM265.511 302.895L265.731 302.983C265.921 302.722 266.218 302.485 266.282 302.195C266.529 301.089 266.711 299.969 266.9 298.851C267.064 297.887 267.093 296.886 267.379 295.963C267.874 294.361 267.547 292.668 268.048 291.083C268.048 286.538 268.059 281.991 268.04 277.446C268.036 276.741 267.936 276.03 267.813 275.334C267.489 273.512 267.128 271.695 266.777 269.876C266.57 268.798 266.395 267.713 266.123 266.651C266.001 266.174 265.571 265.773 265.465 265.295C265.107 263.675 264.074 262.407 263.359 260.972C262.784 259.821 262.217 258.604 262.003 257.353C261.858 256.503 261.535 256.022 260.922 255.538C259.911 254.739 258.948 253.884 258.306 252.725C258.005 252.184 257.726 251.546 257.028 251.4C255.887 251.161 254.742 250.916 253.585 250.784C251.745 250.574 250.078 251.473 248.306 251.753C247.288 251.914 246.333 252.454 245.34 252.799C244.091 253.232 242.808 253.576 241.59 254.079C240.726 254.435 239.9 254.925 239.14 255.473C238.412 255.996 237.819 256.704 237.116 257.267C236.463 257.789 235.759 258.227 235.839 259.227C235.852 259.388 235.664 259.564 235.569 259.735C234.963 260.832 234.323 261.911 233.766 263.033C233.403 263.767 232.877 264.262 232.21 264.725C230.942 265.604 229.895 266.802 228.318 267.232C228.123 267.285 228.009 267.803 227.944 268.123C227.836 268.655 227.818 269.204 227.724 269.739C227.658 270.119 227.515 270.486 227.432 270.865C227.124 272.28 226.702 273.665 226.577 275.128C226.489 276.164 226.107 277.172 225.923 278.204C225.725 279.314 225.036 280.1 224.113 280.519C223.544 280.778 223.253 281.147 222.937 281.582C222.731 281.864 222.611 282.253 222.346 282.438C221.771 282.836 221.656 283.364 221.695 283.984C221.744 284.77 221.85 285.557 221.842 286.342C221.817 288.631 221.74 290.92 221.702 293.209C221.695 293.64 221.793 294.071 221.811 294.503C221.852 295.445 221.909 296.386 221.89 297.328C221.874 298.114 221.679 298.902 221.71 299.684C221.79 301.634 221.413 303.604 222.081 305.537C222.424 306.531 222.471 307.623 222.75 308.643C223.43 311.128 225.03 313.143 226.312 315.314C226.551 315.718 227.174 315.927 227.656 316.147C228.188 316.389 228.784 316.491 229.313 316.739C230.487 317.292 231.681 317.824 232.784 318.499C233.871 319.165 235.239 319.248 236.177 320.195C236.243 320.261 236.414 320.21 236.521 320.253C236.77 320.351 237.04 320.437 237.251 320.593C238.752 321.704 239.538 321.699 241.042 320.506C240.906 320.208 240.764 319.899 240.622 319.589C241.096 318.96 241.718 318.696 242.488 318.813C243.22 318.924 243.973 318.979 244.671 319.2C245.526 319.472 246.365 319.834 247.153 320.263C247.791 320.611 248.146 321.153 248.151 321.997C248.155 322.922 248.432 323.847 248.61 324.768C248.647 324.956 248.748 325.141 248.858 325.301C249.286 325.921 249.858 325.969 250.312 325.376C250.645 324.94 250.866 324.419 251.181 323.968C252.393 322.233 253.269 320.236 255.069 318.956C255.19 318.871 255.278 318.728 255.357 318.598C255.701 318.028 255.989 317.416 256.387 316.887C257.078 315.968 257.821 315.096 257.787 313.844C257.782 313.664 257.964 313.487 257.998 313.297C258.059 312.965 258.153 312.609 258.093 312.288C257.918 311.353 258.216 310.561 258.782 309.871C259.567 308.916 260.178 307.883 260.595 306.714C261.135 305.2 261.678 303.679 262.358 302.226C262.83 301.219 263.536 300.321 264.258 299.186C264.701 299.942 265.113 300.442 265.296 301.015C265.483 301.604 265.446 302.265 265.508 302.894L265.511 302.895Z" fill="#8DC0FF"/>
<path d="M615.453 240.487C615.453 241.055 615.473 241.622 615.448 242.188C615.404 243.159 615.466 243.233 616.408 243.439C616.704 243.503 616.996 243.639 617.256 243.797C619.05 244.884 620.106 246.628 621.165 248.335C622.372 250.281 623.544 252.259 624.577 254.302C625.912 256.942 627.234 259.602 627.973 262.496C628.07 262.878 628.14 263.311 628.371 263.604C629.07 264.493 629.081 265.594 629.355 266.602C629.621 267.58 629.683 268.615 629.829 269.625C630.089 271.421 630.344 273.219 630.602 275.017C630.63 275.213 630.679 275.408 630.679 275.604C630.659 280.111 630.635 284.62 630.608 289.127C630.603 289.838 630.608 290.552 630.565 291.262C630.45 293.152 630.438 295.06 630.145 296.923C629.851 298.788 629.303 300.616 628.797 302.441C628.526 303.42 628.303 303.476 627.242 303.523C626.193 303.571 625.205 303.36 624.226 303.029C623.104 302.649 621.991 302.224 620.843 301.951C618.846 301.476 617.111 300.448 615.342 299.494C613.884 298.708 612.47 297.837 611.048 296.984C610.507 296.66 609.973 296.315 609.482 295.923C607.855 294.623 606.023 293.769 604.007 293.275C603.189 293.075 602.386 292.812 601.445 292.539C601.286 295.085 601.383 297.382 602.015 299.744C602.465 301.424 602.902 303.246 602.338 305.102C602.083 305.94 602.294 306.91 602.212 307.813C602.094 309.099 601.895 310.377 601.744 311.661C601.604 312.86 601.478 314.06 601.352 315.261C601.253 316.196 601.166 317.132 601.072 318.069C600.932 319.473 601.321 320.723 602.174 321.836C602.246 321.93 602.34 322.016 602.384 322.122C603.204 324.124 604.092 326.101 604.8 328.142C605.141 329.125 605.217 330.223 605.27 331.277C605.369 333.225 606.297 334.703 607.665 335.985C607.949 336.253 608.221 336.539 608.463 336.844C609.591 338.266 611.449 338.668 613.13 337.882C613.579 337.672 614.086 337.586 614.569 337.455C614.832 337.384 615.132 337.396 615.362 337.273C616.785 336.513 618.221 335.773 619.595 334.931C620.528 334.359 621.371 333.638 622.245 332.972C623.776 331.806 625.305 330.638 626.825 329.458C627.411 329.002 627.927 328.441 628.549 328.046C630.597 326.741 632.229 324.992 633.838 323.217C634.337 322.667 634.716 322.007 635.15 321.399C635.311 321.174 635.444 320.918 635.642 320.732C636.994 319.454 637.957 317.872 639.063 316.401C639.587 315.703 640.099 315.025 640.953 314.667C641.257 314.54 641.507 314.229 641.718 313.952C642.385 313.081 643.029 312.193 643.662 311.296C643.999 310.819 644.327 310.387 644.996 310.726C645.232 311.909 644.746 312.999 643.581 313.66C643.079 313.947 642.668 314.221 642.463 314.795C642.363 315.073 642.123 315.359 641.868 315.511C640.63 316.251 639.876 317.358 639.209 318.602C638.811 319.342 638.141 319.937 637.585 320.591C637.356 320.86 637.056 321.081 636.875 321.378C635.598 323.478 633.663 325.031 632.222 327C631.75 327.645 630.997 328.084 630.373 328.618C629.984 328.951 629.597 329.284 629.209 329.616C628.01 330.64 626.826 331.683 625.608 332.682C624.42 333.656 623.131 334.513 622.008 335.553C620.741 336.726 619.156 337.343 617.77 338.277C616.424 339.185 614.898 339.515 613.477 340.155C613.093 340.329 612.649 340.405 612.226 340.446C611.639 340.504 611.06 340.451 610.607 340.995C610.481 341.147 609.99 341.156 609.768 341.039C608.938 340.599 608.063 340.18 607.367 339.569C606.363 338.685 605.347 337.742 604.621 336.637C603.899 335.539 603.494 334.224 603.011 332.979C602.031 330.455 601.074 327.921 600.142 325.379C599.615 323.943 599.123 322.501 599.123 320.923C599.123 320.202 598.817 319.482 598.658 318.76C598.559 318.309 598.404 317.854 598.4 317.399C598.377 314.393 598.467 311.384 598.354 308.383C598.292 306.72 598.162 305.081 598.358 303.411C598.504 302.162 598.355 300.882 598.403 299.618C598.43 298.878 598.602 298.144 598.673 297.405C598.722 296.897 598.733 296.381 598.716 295.871C598.701 295.399 598.493 294.897 598.601 294.466C599.129 292.353 597.839 290.787 597.085 289.052C596.264 287.165 594.647 286.111 593.018 285.052C592.325 284.601 591.653 284.112 591.012 283.589C590.115 282.859 590.107 282.249 590.994 281.22C592.596 281.7 594.248 282.194 595.9 282.69C596.089 282.747 596.271 282.853 596.461 282.87C597.413 282.95 597.957 282.309 597.724 281.381C597.667 281.156 597.563 280.928 597.426 280.743C596.465 279.457 595.818 278.024 595.399 276.485C594.952 274.85 594.514 273.213 594.102 271.569C593.978 271.072 593.972 270.554 594.614 270.071C595.687 272.568 595.793 275.372 597.518 277.508C597.995 277.326 597.846 276.992 597.789 276.705C597.443 274.961 597.062 273.223 596.746 271.473C596.58 270.554 596.433 269.605 597.065 268.643C597.758 269.283 598.431 269.789 598.65 270.754C599.138 272.912 599.715 275.048 600.26 277.192C600.287 277.299 600.367 277.392 600.558 277.739C600.742 276.897 600.932 276.279 601.001 275.646C601.078 274.941 601.078 274.224 601.056 273.512C600.996 271.547 601.268 269.63 601.777 267.737C601.857 267.44 601.832 267.108 601.818 266.793C601.755 265.455 602.272 264.241 602.688 263.022C602.961 262.221 603.455 261.491 603.885 260.749C604.818 259.136 605.321 257.351 606.019 255.643C607.106 252.99 608.215 250.336 609.854 247.948C610.299 247.302 610.594 246.555 610.985 245.869C611.277 245.357 611.639 244.884 611.919 244.366C612.332 243.605 612.876 243.233 613.805 243.226C614.878 243.218 615.055 242.87 614.988 241.799C614.961 241.356 615.044 240.907 615.076 240.461C615.201 240.468 615.326 240.476 615.449 240.483L615.453 240.487ZM626.141 298.112C626.324 297.77 626.656 297.417 626.694 297.032C626.839 295.599 627.307 294.296 628.003 293.051C628.15 292.787 628.235 292.47 628.271 292.169C628.419 290.923 628.533 289.674 628.67 288.429C628.691 288.235 628.799 288.05 628.809 287.858C628.873 286.606 629.033 285.345 628.948 284.103C628.81 282.098 628.501 280.106 628.277 278.106C628.124 276.741 627.994 275.372 627.848 274.005C627.836 273.89 627.766 273.782 627.74 273.668C627.541 272.788 627.32 271.912 627.154 271.025C626.828 269.287 626.556 267.54 625.843 265.898C625.577 265.285 625.196 264.61 625.25 263.997C625.358 262.784 624.844 261.783 624.552 260.692C624.321 259.83 623.796 259.251 623.213 258.651C622.726 258.15 622.237 257.617 621.9 257.013C620.86 255.158 619.827 253.292 618.92 251.37C618.369 250.203 617.269 249.627 616.482 248.726C616.341 248.564 615.972 248.572 615.704 248.557C615.394 248.541 615.08 248.602 614.769 248.6C613.864 248.593 613.686 248.712 613.306 249.606C613.247 249.746 613.194 249.908 613.09 250.009C611.806 251.255 610.867 252.732 610.118 254.343C609.29 256.122 608.485 257.913 607.585 259.655C607.158 260.483 606.561 261.211 606.429 262.182C606.346 262.793 606.173 263.393 606.022 263.994C605.629 265.561 604.773 266.989 605.237 268.779C605.577 270.088 605.206 271.471 604.641 272.78C603.541 275.324 603.135 278.035 602.966 280.788C602.924 281.451 602.798 282.111 602.679 282.766C602.577 283.33 602.569 283.837 602.97 284.324C603.463 284.921 603.892 285.572 604.458 286.352C605.351 286.57 606.569 286.632 607.388 287.527C608.49 288.73 609.64 289.923 610.535 291.276C611.723 293.072 613.369 293.881 615.394 294.165C615.622 294.197 615.871 294.239 616.061 294.357C616.832 294.835 617.668 295.257 618.318 295.871C618.846 296.371 619.372 296.432 620.014 296.474C621.108 296.543 622.225 296.591 623.278 296.861C624.206 297.098 625.058 297.626 626.142 298.114L626.141 298.112Z" fill="#8DC0FF"/>
<path d="M381.012 305.494C381.348 304.313 381.697 303.352 381.885 302.359C382.108 301.185 383.001 300.415 384.13 300.74C384.979 300.983 385.814 301.25 386.635 301.68C388.602 302.709 390.707 303.151 392.84 301.935C393.521 301.548 394.32 301.368 394.992 300.969C396.167 300.272 397.333 299.542 398.418 298.714C400.601 297.049 402.594 295.15 405.083 293.877C406.029 293.394 406.747 292.459 407.556 291.715C408.164 291.154 408.772 290.589 409.337 289.987C409.902 289.384 410.447 288.756 410.933 288.089C411.087 287.876 411.067 287.501 411.046 287.205C411.002 286.58 410.892 285.959 410.833 285.334C410.791 284.892 410.977 284.555 411.414 284.416C411.864 284.274 412.041 284.602 412.226 284.921C412.691 285.728 413.263 286.296 414.312 285.891C414.754 285.72 415.002 286.031 415.08 286.403C415.161 286.784 415.156 287.186 415.158 287.58C415.166 288.451 415.177 289.321 415.147 290.19C415.079 292.112 415.547 293.937 416.099 295.75C416.189 296.048 416.282 296.352 416.314 296.659C416.353 297.028 416.288 297.384 415.84 297.493C415.358 297.611 415.087 297.374 414.954 296.937C414.631 295.88 414.315 294.822 413.99 293.765C413.913 293.514 413.811 293.269 413.659 292.85C413.387 293.143 413.169 293.296 413.065 293.508C412.805 294.04 412.613 294.604 412.361 295.14C412.229 295.42 412.071 295.715 411.848 295.918C411.706 296.046 411.383 296.108 411.212 296.034C411.047 295.963 410.879 295.68 410.879 295.489C410.878 295.027 410.973 294.564 411.043 293.981C410.801 294.081 410.613 294.11 410.493 294.214C409.634 294.97 408.748 295.703 407.947 296.517C406.307 298.183 404.284 299.435 402.815 301.286C402.632 301.516 402.31 301.673 402.021 301.774C400.652 302.246 399.272 302.688 397.896 303.14C397.821 303.165 397.736 303.176 397.674 303.22C395.993 304.388 393.837 304.341 392.101 305.393C391.714 305.628 391.204 305.698 390.74 305.761C390.136 305.844 389.601 305.941 389.229 306.528C389.107 306.719 388.679 306.746 388.382 306.787C387.332 306.93 386.209 306.861 385.247 307.225C384.193 307.622 383.044 307.172 382.063 307.787C381.969 307.847 381.769 307.71 381.617 307.704C380.993 307.678 380.37 307.647 379.747 307.656C378.982 307.666 378.21 307.786 377.456 307.715C377.127 307.684 376.8 307.329 376.529 307.063C375.884 306.432 375.254 305.783 374.657 305.107C374.323 304.728 374.081 304.271 373.776 303.865C372.839 302.617 371.884 301.383 370.725 300.325C369.613 299.309 369.19 297.876 368.488 296.61C367.306 294.479 366.013 292.407 364.889 290.246C363.749 288.054 362.276 286.046 361.477 283.658C361.101 282.531 360.243 281.57 359.652 280.508C359.058 279.437 358.354 278.463 357.494 277.588C355.622 275.679 353.426 274.401 350.751 274.018C350.596 273.995 350.426 273.99 350.292 273.92C348.328 272.91 346.144 273.064 344.052 272.74C343.46 272.649 343.457 272.664 343.037 271.896C343.939 270.941 345.111 270.763 346.354 270.71C347.012 270.681 347.672 270.567 348.316 270.423C349.265 270.209 350.188 269.816 351.145 269.724C351.813 269.66 352.527 269.933 353.198 270.132C353.871 270.331 354.536 270.583 355.17 270.887C356.019 271.293 356.808 271.305 357.635 270.83C357.963 270.642 358.368 270.522 358.745 270.501C359.401 270.463 359.795 270.114 359.971 269.555C360.408 268.167 360.792 266.762 361.197 265.363C361.597 263.981 361.736 262.508 362.649 261.306C363.009 260.833 363.584 260.512 363.616 259.792C363.624 259.6 363.97 259.372 364.206 259.25C365.185 258.745 366.161 258.223 367.181 257.811C368.069 257.452 368.857 257.045 369.464 256.252C369.803 255.81 370.356 255.339 370.868 255.263C371.996 255.095 373.125 254.663 374.308 255.024C374.585 255.109 374.977 255.088 375.228 254.952C376.208 254.416 377.279 254.228 378.344 253.981C378.716 253.894 379.166 253.73 379.376 253.449C379.799 252.88 380.365 252.893 380.942 252.816C381.487 252.745 382.03 252.651 382.57 252.549C383.271 252.416 383.922 252.381 384.65 252.627C385.331 252.857 386.127 252.764 386.874 252.779C388.135 252.805 388.443 253.027 388.431 254.289C388.42 255.359 388.819 255.918 389.784 256.476C391.062 257.214 392.375 257.569 393.782 257.776C394.086 257.822 394.373 258.019 394.674 258.036C395.164 258.065 395.707 258.121 396.142 257.95C396.696 257.732 397.137 257.702 397.546 258.125C398.418 259.029 399.456 259.778 400.031 260.96C400.448 261.817 401.213 262.336 402.103 262.623C402.79 262.845 403.039 263.244 403.19 263.969C403.501 265.469 403.631 266.951 403.163 268.404C402.731 269.745 402.166 271.045 401.59 272.332C401.443 272.662 401.051 272.895 400.743 273.138C400.279 273.506 399.766 273.815 399.321 274.204C398.83 274.633 398.27 274.824 397.664 275.041C396.483 275.465 395.347 276.042 394.249 276.656C393.776 276.921 393.343 277.105 392.812 277.072C390.763 276.946 388.714 276.784 386.663 276.706C384.454 276.622 382.244 276.624 380.034 276.567C379.325 276.549 378.566 276.61 377.921 276.379C376.176 275.758 374.406 276.028 372.639 276.017C371.89 276.012 371.139 275.988 370.394 275.914C369.352 275.812 369.182 275.838 368.724 276.783C368.346 277.561 367.84 278.091 367.034 278.486C365.686 279.146 365.128 281.298 365.77 282.68C367 285.331 368.097 288.032 368.887 290.852C369.077 291.527 369.388 292.171 369.664 292.82C370.17 294.01 370.538 295.293 371.241 296.355C372.212 297.821 373.462 299.101 374.549 300.495C375.145 301.26 375.636 302.106 376.201 302.897C376.496 303.309 376.772 303.843 377.19 304.037C378.359 304.578 379.596 304.971 381.011 305.5L381.012 305.494ZM364.399 272.364C364.909 273.033 365.558 273.562 366.502 273.627C367.934 273.726 369.36 274.233 370.795 273.525C371.248 273.302 371.879 273.181 372.343 273.314C372.866 273.464 373.244 273.351 373.694 273.195C374.167 273.032 374.725 272.753 375.147 272.874C375.859 273.077 376.357 272.803 376.934 272.547C377.747 272.186 378.553 271.693 379.509 272.2C379.683 272.293 379.975 272.231 380.188 272.164C381.77 271.672 383.134 271.826 384.213 273.264C384.789 274.032 385.76 274.249 386.383 273.806C386.694 273.586 386.866 273.166 387.132 272.792C387.48 272.731 387.956 272.759 388.311 272.566C389.897 271.702 391.691 271.63 393.381 271.174C393.816 271.057 394.295 271.092 394.754 271.07C395.818 271.019 397.195 270.033 397.532 268.978C397.852 267.968 398.135 266.94 398.332 265.9C398.566 264.67 397.725 263.707 396.584 263.782C396.476 264.408 397.052 265.031 396.566 265.843C395.851 264.968 395.207 264.194 394.577 263.407C393.923 262.586 392.711 262.377 392.205 261.346C392.977 260.567 393.824 261.259 394.658 261.107C393.464 260.377 392.274 260.076 391.065 260.104C390.678 260.112 390.284 260.013 389.899 259.931C387.938 259.511 386.026 258.831 384.009 258.707C382.887 258.64 381.757 258.695 380.508 258.695C380.077 257.983 379.332 258.215 378.582 258.289C376.068 258.538 373.606 259.047 371.167 259.679C370.147 259.943 369.163 260.381 368.132 260.561C366.814 260.79 366.034 261.579 365.448 262.665C365.092 263.325 364.817 264.034 364.42 264.666C364.022 265.299 363.883 265.897 364.012 266.66C364.114 267.263 364.418 267.668 364.756 268.097C365.289 268.776 365.428 269.485 365.084 270.309C364.817 270.952 364.639 271.632 364.399 272.364Z" fill="#8DC0FF"/>
<path d="M746.235 262.015C747.492 262.124 748.821 262.3 750.155 262.336C750.997 262.358 751.798 262.044 752.705 262.255C753.358 262.407 754.144 262.061 754.855 261.878C756.438 261.47 757.986 261.42 759.593 261.874C760.316 262.078 761.177 261.989 761.934 261.832C763.037 261.604 764.024 261.957 765.047 262.184C765.236 262.225 765.427 262.369 765.601 262.344C767.047 262.142 768.545 262.765 769.958 262.067C770.026 262.034 770.114 262.027 770.191 262.032C771.379 262.103 772.568 262.174 773.755 262.252C774.108 262.276 774.459 262.35 774.811 262.35C778.364 262.357 781.917 262.353 785.47 262.356C786.055 262.356 786.641 262.275 787.173 262.68C787.363 262.825 787.703 262.786 787.977 262.803C788.647 262.849 789.316 262.879 790 263.023C789.551 263.101 789.099 263.163 788.655 263.263C787.781 263.459 786.905 263.649 786.044 263.89C784.536 264.312 783.035 264.707 781.442 264.669C780.509 264.647 779.542 264.475 778.648 264.961C778.523 265.028 778.331 265.019 778.183 264.989C777.23 264.797 776.283 264.589 775.239 264.366C775.125 265.488 774.208 265.569 773.336 265.772C771.424 266.217 769.524 266.705 767.618 267.176C767.542 267.195 767.469 267.243 767.394 267.25C765.765 267.408 764.134 267.56 762.505 267.72C762.156 267.755 761.81 267.812 761.463 267.867C761.04 267.934 760.62 268.01 760.198 268.082C759.663 268.175 759.13 268.311 758.59 268.349C758.048 268.387 757.473 268.427 756.961 268.291C755.329 267.861 753.757 268.066 752.19 268.564C751.862 268.669 751.53 268.827 751.196 268.836C750.44 268.858 750.034 269.324 749.788 269.919C749.299 271.105 748.878 272.32 748.428 273.523C748.387 273.632 748.271 273.753 748.293 273.841C748.703 275.425 747.749 276.861 747.818 278.417C747.886 279.957 747.815 281.503 747.844 283.045C747.86 283.832 747.965 284.618 748.02 285.405C748.047 285.797 748.122 286.203 748.057 286.583C747.704 288.629 747.697 290.665 748.085 292.705C748.122 292.897 748.181 293.12 748.122 293.291C747.582 294.812 748.152 296.234 748.471 297.681C748.538 297.984 748.579 298.329 748.502 298.62C748.027 300.414 748.309 302.24 748.234 304.05C748.186 305.186 748.383 306.34 747.887 307.442C747.767 307.709 747.837 308.066 747.837 308.382C747.834 310.202 747.859 312.023 747.822 313.842C747.811 314.371 747.57 314.895 747.55 315.427C747.53 315.96 747.537 316.545 747.735 317.025C748.205 318.162 748.604 319.303 748.579 320.544C748.569 321.049 748.451 321.552 748.379 322.055C748.333 322.366 748.212 322.683 748.247 322.984C748.422 324.501 747.954 325.951 747.805 327.433C747.76 327.889 747.547 328.342 747.346 328.765C747.071 329.338 746.745 329.426 745.586 329.305C745.447 327.857 745.312 326.378 745.162 324.901C744.944 322.754 744.706 320.608 744.497 318.46C744.437 317.832 744.369 317.19 744.437 316.569C744.583 315.244 744.388 313.983 744.014 312.717C743.817 312.05 743.771 311.339 743.651 310.648C743.619 310.465 743.568 310.287 743.526 310.105C743.444 310.098 743.362 310.092 743.279 310.085C743.137 310.83 742.948 311.57 742.863 312.322C742.702 313.767 742.621 315.219 742.467 316.665C742.393 317.349 741.82 317.829 741.104 317.91C739.034 318.146 738.03 317.319 737.494 315.24C737.386 314.821 737.307 314.395 737.205 313.975C737.012 313.191 737.581 310.434 738.074 309.78C738.67 308.991 739.345 308.924 740.372 309.597C740.746 308.845 740.912 308.066 740.942 307.239C741.085 303.369 741.27 299.502 741.371 295.632C741.397 294.619 741.18 293.6 741.071 292.585C741.058 292.467 741.007 292.355 740.997 292.237C740.859 290.67 740.758 289.098 740.579 287.535C740.469 286.574 740.354 285.586 740.033 284.683C739.668 283.659 739.762 282.693 739.938 281.684C740.023 281.193 740.083 280.683 740.054 280.188C740.009 279.406 739.842 278.63 739.795 277.848C739.738 276.868 739.75 275.903 739.499 274.922C739.324 274.244 739.502 273.439 739.662 272.723C739.778 272.213 739.756 271.809 739.474 271.384C738.993 270.661 738.525 269.929 738.063 269.194C737.585 268.431 736.93 267.873 736.084 267.585C734.975 267.208 733.845 266.891 732.729 266.534C731.95 266.285 731.145 266.08 730.412 265.729C729.089 265.095 727.713 264.958 726.28 265.006C725.301 265.038 724.314 265.107 723.362 264.701C723.057 264.57 722.658 264.665 722.303 264.643C721.752 264.608 721.105 264.733 720.669 264.487C719.451 263.798 718.064 264.004 716.801 263.587C716.304 263.423 715.673 263.446 715.161 263.591C713.384 264.094 711.576 263.946 709.795 263.832C708.638 263.758 707.604 264.033 706.566 264.368C705.704 264.646 704.878 264.643 703.965 264.447C703.765 264.63 703.538 264.838 703.213 265.135C703.144 265.009 703.074 264.917 703.042 264.814C702.786 263.993 702.514 263.175 702.289 262.346C702.016 261.339 702.643 259.771 703.524 259.291C703.927 259.993 704.33 260.699 704.65 261.256C705.534 261.256 706.33 261.084 706.999 261.3C707.823 261.565 708.628 261.645 709.444 261.57C710.248 261.495 711.046 261.288 711.831 261.081C713.121 260.74 714.412 260.787 715.715 260.954C717.357 261.164 719.002 261.356 720.645 261.56C722.525 261.794 724.397 262.09 726.283 262.252C727.885 262.391 729.495 262.561 731.108 262.118C731.673 261.963 732.337 262.15 732.953 262.207C733.84 262.289 734.726 262.397 735.611 262.488C735.807 262.508 736.006 262.494 736.203 262.503C737.857 262.583 739.509 262.68 741.164 262.737C742.11 262.77 742.514 262.375 742.567 261.406C742.599 260.815 742.55 260.219 742.574 259.626C742.589 259.234 742.617 258.827 742.741 258.463C742.829 258.206 743.046 257.907 743.283 257.81C743.705 257.633 744.061 257.902 744.263 258.271C744.897 259.435 745.504 260.614 746.239 262.011L746.235 262.015Z" fill="#8DC0FF"/>
<path d="M674.889 237.851C675.14 236.55 675.393 235.405 675.576 234.249C676.189 230.379 677.065 226.568 678.135 222.803C678.401 221.87 678.576 220.839 679.59 220.329C679.726 220.26 679.876 220.216 680.02 220.16C681.243 220.909 681.904 222.123 682.573 223.252C683.915 225.52 685.129 227.867 686.313 230.224C686.69 230.975 686.746 231.881 687.055 232.674C687.507 233.836 688.058 234.96 688.564 236.101C689.33 237.826 690.067 239.566 690.865 241.275C691.462 242.555 692.138 243.798 692.779 245.059C692.867 245.233 692.983 245.4 693.033 245.584C693.225 246.299 693.649 246.693 694.395 246.878C695.765 247.219 696.842 248.193 697.412 249.34C698.041 250.605 698.385 252.008 697.518 253.576C696.75 254.968 696.326 256.692 697.641 258.202C697.84 258.431 697.97 258.733 698.09 259.019C700.163 263.972 702.246 268.922 704.293 273.886C706.795 279.951 709.311 286.01 711.308 292.27C711.924 294.203 711.817 296.156 711.769 298.146C711.234 298.222 710.781 298.287 710.169 298.374C709.477 297.196 708.727 295.998 708.055 294.757C706.873 292.575 705.732 290.37 704.59 288.166C704.209 287.431 703.9 286.66 703.517 285.927C702.718 284.397 701.889 282.88 701.444 281.195C701.405 281.048 701.332 280.888 701.225 280.782C700.424 279.987 700.302 278.887 699.981 277.897C699.416 276.153 698.954 274.376 698.478 272.603C698.042 270.979 697.679 269.334 697.219 267.717C696.855 266.438 696.376 265.193 695.982 263.921C695.844 263.48 695.709 263 695.743 262.551C695.83 261.414 695.495 260.378 695.143 259.333C694.968 258.816 694.773 258.294 694.683 257.76C694.414 256.164 693.522 254.845 692.812 253.449C692.628 253.087 692.26 252.816 691.97 252.509C691.55 252.063 691.183 251.534 690.687 251.199C689.715 250.542 688.68 249.98 687.655 249.409C686.621 248.833 685.592 248.238 684.516 247.75C682.457 246.818 680.372 245.938 678.282 245.078C677.826 244.891 677.298 244.878 676.668 244.759C676.486 245.532 676.326 246.209 676.168 246.886C676.043 247.416 675.919 247.948 675.798 248.48C675.572 249.469 675.342 250.456 675.129 251.447C675.081 251.674 675.046 251.924 675.092 252.147C675.474 254.007 674.98 255.813 674.778 257.637C674.761 257.792 674.672 257.942 674.67 258.095C674.645 259.909 674.645 261.718 674.273 263.515C674.006 264.81 674.702 266.03 674.801 267.307C674.829 267.657 674.906 268.008 674.882 268.352C674.831 269.094 674.67 269.833 674.66 270.574C674.631 272.986 674.636 275.4 674.654 277.813C674.665 279.188 674.572 280.557 674.965 281.926C675.206 282.766 675.185 283.673 675.105 284.603C674.99 285.941 675.333 287.32 675.483 288.68C675.487 288.717 675.512 288.756 675.538 288.785C676.575 289.966 676.312 291.359 676.135 292.715C676.077 293.161 675.832 293.596 675.616 294.007C675.375 294.466 674.961 294.554 674.501 294.344C673.112 293.707 671.725 293.079 670.668 291.905C669.841 290.985 669.734 290.098 670.696 289.368C671.49 288.765 671.611 288.059 671.612 287.208C671.615 282.461 671.565 277.713 671.644 272.967C671.7 269.614 672.022 266.265 672.055 262.912C672.081 260.332 672.432 257.796 672.702 255.247C673.036 252.106 673.463 248.975 673.853 245.841C673.887 245.566 673.928 245.292 673.977 245.02C674.166 243.987 674.072 243.09 673.061 242.45C672.682 242.211 672.446 241.747 672.093 241.511C670.778 240.934 669.461 240.355 668.04 239.731C667.901 240.074 667.736 240.341 667.689 240.628C667.584 241.29 667.514 241.961 667.469 242.629C667.298 245.153 667.109 247.676 666.996 250.203C666.952 251.182 667.121 252.17 667.136 253.156C667.152 254.12 666.991 254.332 666.092 254.621C665.607 254.776 665.095 254.851 664.591 254.946C663.394 255.171 662.196 255.387 660.997 255.6C660.608 255.669 660.213 255.784 659.828 255.76C658.477 255.674 657.17 256.383 655.746 255.723C655.039 255.395 654.035 255.703 653.165 255.729C652.261 255.755 651.389 255.735 650.479 255.503C648.959 255.116 647.386 254.903 645.823 254.733C645.097 254.653 644.342 254.886 643.6 254.901C642.987 254.913 642.357 254.88 641.767 254.733C641.477 254.66 641.124 254.328 641.035 254.039C640.436 252.082 640.408 250.126 641.492 248.32C641.812 247.788 642.434 247.439 643.012 246.921C643.978 248.296 644.568 249.558 644.16 251.108C643.968 251.838 644.15 252.047 644.934 252.18C646.63 252.467 648.34 252.415 649.967 251.964C651.084 251.655 652.035 251.923 653.069 252.13C654.416 252.401 655.788 252.562 657.15 252.763C657.303 252.785 657.487 252.801 657.619 252.739C658.711 252.226 659.87 252.458 661.004 252.396C661.386 252.375 661.766 252.252 662.141 252.152C662.783 251.983 663.436 251.834 664.056 251.599C664.348 251.488 664.629 251.236 664.809 250.973C664.953 250.763 664.963 250.446 664.986 250.172C665.145 248.251 665.29 246.327 665.445 244.406C665.575 242.798 665.691 241.188 665.856 239.582C665.919 238.97 666.07 238.359 666.239 237.765C666.578 236.568 668.042 235.846 669.222 236.207C671.029 236.758 672.852 237.263 674.893 237.854L674.889 237.851ZM680.698 226.218C679.559 228.281 679.656 230.338 679.249 232.274C678.994 233.489 679.054 234.761 678.493 235.927C678.194 236.549 678.038 237.24 677.82 237.9C677.429 239.077 677.71 239.822 678.803 240.442C681.072 241.73 683.329 243.041 685.624 244.282C686.836 244.937 688.114 245.471 689.372 246.04C689.55 246.121 689.782 246.085 690.119 246.115C689.951 245.696 689.856 245.4 689.719 245.127C689.155 244.007 688.494 242.929 688.021 241.773C686.061 236.977 683.953 232.252 681.538 227.666C681.307 227.226 681.04 226.804 680.698 226.217V226.218Z" fill="#8DC0FF"/>
<path d="M314.808 245.55C315.121 245.286 315.264 245.216 315.331 245.102C316.985 242.303 318.395 239.405 319.13 236.208C319.467 234.739 319.938 233.315 321.061 232.199C321.39 231.873 321.603 231.423 321.839 231.013C322.687 229.544 323.519 228.069 324.362 226.598C324.683 226.038 325.373 225.477 326.173 225.163C326.232 225.519 326.326 225.842 326.333 226.169C326.355 227.078 326.358 227.988 326.337 228.897C326.295 230.621 326.888 232.068 328.19 233.204C329.883 234.68 330.977 236.633 332.317 238.388C332.504 238.632 332.593 238.955 332.704 239.25C333.222 240.61 333.709 241.984 334.262 243.329C334.418 243.706 334.699 244.141 335.04 244.308C335.69 244.623 336.054 245.178 336.132 245.757C336.277 246.843 336.245 247.957 336.209 249.057C336.194 249.545 336.03 250.042 335.861 250.509C335.718 250.907 335.531 251.322 335.256 251.633C334.814 252.131 334.762 252.65 334.831 253.278C334.977 254.612 335.011 255.959 335.157 257.294C335.315 258.738 335.549 260.173 335.75 261.612C335.891 262.623 336.043 263.634 336.171 264.646C336.339 265.976 336.473 267.31 336.646 268.639C336.931 270.83 337.217 273.019 337.547 275.203C337.609 275.611 337.801 276.059 338.073 276.364C338.574 276.928 338.79 277.579 338.929 278.284C339.013 278.71 339.15 279.135 339.17 279.565C339.281 281.979 340.718 283.724 342.126 285.48C342.566 286.029 342.895 286.583 342.744 287.312C342.723 287.418 342.639 287.511 342.591 287.594C342.487 287.608 342.399 287.651 342.338 287.626C341.248 287.171 341.139 287.297 340.868 288.395C340.523 289.797 340.016 291.159 339.528 292.698C338.603 292.428 337.807 292.192 337.007 291.967C336.784 291.904 336.552 291.855 336.322 291.834C335.433 291.753 334.882 291.26 334.73 290.422C334.627 289.85 334.44 289.288 334.381 288.712C334.256 287.525 334.675 286.442 335.287 285.474C335.73 284.774 335.67 284.253 335.16 283.674C334.983 283.475 334.789 283.223 334.756 282.975C334.593 281.734 334.478 280.486 334.353 279.241C334.262 278.318 334.444 277.44 334.811 276.594C335.29 275.49 335.206 274.365 334.935 273.232C334.881 273.002 334.77 272.772 334.77 272.543C334.768 270.885 334.617 269.244 334.378 267.599C334.067 265.463 333.902 263.306 333.673 261.158C333.668 261.119 333.658 261.08 333.655 261.04C333.54 259.204 333.421 257.367 333.265 255.532C333.107 253.686 332.925 251.864 332.527 250.058C332.241 248.759 331.978 247.455 331.694 246.156C331.646 245.939 331.598 245.691 331.462 245.529C331.088 245.083 330.705 244.633 330.261 244.259C328.908 243.12 328.013 241.592 326.867 240.278C325.956 239.233 325.164 238.04 324.693 236.686C324.608 236.438 324.43 236.223 324.239 235.899C323.754 236.367 323.352 236.782 322.921 237.165C322.487 237.549 321.996 237.871 321.584 238.277C321.32 238.536 321.06 238.868 320.963 239.215C320.541 240.71 320.26 242.248 319.774 243.719C319.308 245.136 318.63 246.457 317.507 247.531C316.599 248.399 315.828 249.411 314.992 250.355C314.81 250.559 314.638 250.789 314.414 250.935C313.609 251.458 313.041 251.228 312.87 250.283C312.498 248.226 312.183 246.159 311.806 244.101C311.594 242.937 311.312 241.787 311.05 240.634C311.029 240.538 310.911 240.464 310.746 240.274C310.235 240.957 309.757 241.598 309.239 242.29C308.483 242.141 308.229 241.612 308.286 240.792C308.371 239.563 308.05 238.414 307.73 237.217C307.255 235.439 306.182 234.057 305.316 232.532C304.776 231.581 304.164 230.67 303.585 229.74C303.544 229.674 303.483 229.591 303.494 229.527C303.698 228.294 302.791 227.639 302.023 227.059C301.334 226.539 300.429 226.279 299.591 225.99C298.994 225.783 298.464 225.454 297.693 225.671C296.764 225.933 296.281 226.475 296.022 227.27C295.728 228.177 295.305 228.975 294.709 229.725C293.881 230.766 293.087 231.824 292.007 232.631C291.801 232.785 291.681 233.074 291.565 233.321C291.128 234.252 290.389 234.893 289.552 235.435C289.068 235.748 288.687 236.084 288.657 236.73C288.643 237.027 288.499 237.358 288.315 237.598C287.413 238.769 287.416 240.171 287.212 241.535C286.973 243.127 286.559 244.685 285.835 246.132C285.472 246.859 285.279 247.585 285.292 248.401C285.311 249.54 285.343 250.668 284.978 251.801C284.682 252.715 284.707 253.729 284.538 254.689C284.357 255.721 284.114 256.744 283.902 257.771C283.863 257.961 283.776 258.17 283.818 258.344C284.282 260.282 283.372 262.056 283.173 263.913C283.118 264.422 283.02 264.929 283.004 265.439C282.977 266.348 282.99 267.258 282.997 268.168C283.011 270.062 282.675 271.903 282.313 273.755C282.139 274.65 281.908 275.567 282.151 276.549C282.344 277.335 282.171 278.206 282.244 279.03C282.371 280.441 282.477 281.864 282.747 283.252C283.244 285.812 283.844 288.351 284.422 290.894C284.535 291.392 284.669 291.91 284.921 292.344C285.612 293.537 285.331 294.757 285.202 296.013C284.243 296.165 283.786 295.543 283.311 294.974C282.884 294.462 282.432 293.96 282.085 293.396C281.806 292.941 281.609 292.413 281.481 291.892C281.304 291.176 281.196 290.439 281.114 289.705C280.957 288.303 280.848 286.896 280.702 285.492C280.531 283.854 280.344 282.217 280.159 280.581C280.116 280.19 280.018 279.8 280.01 279.407C279.973 277.475 279.478 275.601 279.299 273.691C279.13 271.895 279.048 270.108 279.455 268.282C279.776 266.843 280.049 265.391 280.473 263.977C280.811 262.849 281.221 261.741 281.546 260.609C281.674 260.164 281.671 259.679 281.71 259.21C282.029 255.354 282.24 251.492 282.853 247.663C283.134 245.91 283.288 244.129 283.359 242.356C283.404 241.243 283.698 240.267 284.275 239.354C284.636 238.783 284.849 238.204 284.972 237.514C285.166 236.415 285.79 235.45 286.768 234.836C287.507 234.373 287.953 233.717 288.403 233.007C289.354 231.507 290.279 229.974 291.393 228.599C292.302 227.475 293.341 226.343 294.559 225.608C295.773 224.877 296.802 223.898 298.069 223.255C298.716 222.928 299.322 222.821 299.995 223.058C300.106 223.097 300.219 223.197 300.323 223.186C301.833 223.033 303.147 223.736 304.52 224.159C305.107 224.339 305.69 224.643 306.176 225.02C307.616 226.136 308.754 227.544 309.806 229.022C310.032 229.341 310.308 229.626 310.541 229.942C310.911 230.448 311.366 230.923 311.606 231.488C312.355 233.25 313.028 235.046 313.718 236.833C314.517 238.903 314.963 241.031 314.809 243.266C314.762 243.954 314.802 244.648 314.802 245.558L314.808 245.55ZM325.246 229.761C325.755 229.366 325.557 229.051 325.266 228.654C324.848 228.996 324.792 229.294 325.246 229.761Z" fill="#8DC0FF"/>
<path d="M466.332 244.083C466.75 244.044 466.979 244.01 467.208 244.005C467.717 243.995 468.227 244.003 468.889 244.003V247.399C469.724 247.454 470.412 247.5 471.159 247.549V249.309C470.422 249.356 469.734 249.401 468.934 249.452C468.934 250.731 468.934 251.947 468.934 253.164C468.934 253.994 468.92 254.825 468.939 255.655C468.966 256.829 469.154 257.007 470.345 257.054C470.579 257.063 470.814 257.055 471.137 257.055V258.844C470.073 259.214 469.016 259.148 467.974 258.884C467.183 258.685 466.653 258.164 466.535 257.33C466.446 256.707 466.381 256.074 466.374 255.445C466.354 253.475 466.367 251.505 466.367 249.452C465.737 249.452 465.202 249.436 464.668 249.458C464.323 249.473 463.98 249.577 463.634 249.582C462.099 249.604 461.086 250.298 460.635 251.78C460.454 252.373 460.392 253.02 460.38 253.645C460.346 255.34 460.368 257.037 460.368 258.778C459.514 259.064 458.719 258.945 457.861 258.868V247.585H460.122C460.156 248.054 460.193 248.551 460.238 249.183C460.473 248.945 460.65 248.774 460.819 248.595C461.892 247.449 463.094 246.813 464.728 247.394C465.173 247.551 465.723 247.417 466.33 247.417V244.083H466.332Z" fill="#8DC0FF"/>
<path d="M432 247.529H434.255C434.296 247.924 434.333 248.269 434.373 248.658C434.503 248.607 434.626 248.591 434.699 248.522C436.886 246.421 440.532 246.794 442.245 249.299C443.722 251.459 443.674 255.26 442.143 257.387C440.662 259.443 437.519 259.906 435.363 258.382C435.138 258.223 434.939 258.03 434.647 257.786C434.351 258.702 434.53 259.593 434.498 260.462C434.466 261.322 434.491 262.182 434.491 263.117H432V247.53V247.529ZM440.856 253.217C440.749 252.025 440.515 250.922 439.657 250.044C438.365 248.723 436.044 248.86 435.125 250.408C434.111 252.118 434.083 253.954 434.997 255.722C435.598 256.885 436.654 257.368 437.966 257.242C439.205 257.123 440.001 256.397 440.411 255.286C440.652 254.631 440.714 253.91 440.855 253.218L440.856 253.217Z" fill="#8DC0FF"/>
<path d="M447.634 250.94H445.33C445.34 249.531 445.938 248.499 447.099 247.916C449.154 246.884 451.299 246.858 453.395 247.803C454.587 248.341 455.119 249.377 455.119 250.682C455.119 252.383 455.115 254.083 455.123 255.784C455.126 256.21 455.165 256.637 455.189 257.107C455.591 257.205 455.92 257.286 456.27 257.372V258.885C454.476 259.574 453.643 259.381 452.673 258.045C451.659 258.742 450.533 259.204 449.291 259.226C448.591 259.239 447.859 259.189 447.19 258.999C445.619 258.553 444.834 257.425 444.852 255.84C444.87 254.207 445.626 253.169 447.243 252.733C448.155 252.487 449.105 252.387 450.039 252.227C450.584 252.133 451.138 252.077 451.674 251.948C452.257 251.808 452.662 251.456 452.706 250.807C452.746 250.203 452.416 249.7 451.797 249.414C450.185 248.673 448.559 249.265 447.634 250.941V250.94ZM452.558 253.426C451.694 253.548 450.994 253.629 450.3 253.752C449.721 253.855 449.135 253.958 448.58 254.148C447.748 254.433 447.313 255.096 447.38 255.834C447.438 256.488 447.971 257.056 448.832 257.16C449.481 257.24 450.181 257.233 450.81 257.074C452.052 256.761 452.536 256.038 452.556 254.757C452.564 254.329 452.556 253.901 452.556 253.424L452.558 253.426Z" fill="#8DC0FF"/>
<path d="M471.812 247.527H474.56C475.535 250.288 476.504 253.028 477.471 255.769C477.543 255.765 477.614 255.76 477.685 255.757C478.614 253.044 479.541 250.332 480.49 247.559H483.015C482.964 247.813 482.947 248.047 482.87 248.258C481.435 252.15 479.992 256.04 478.551 259.93C478.482 260.115 478.401 260.296 478.324 260.477C477.151 263.246 476.063 263.84 472.955 263.336V261.341C473.153 261.341 473.344 261.326 473.533 261.343C475.316 261.502 476.498 259.982 475.87 258.278C474.927 255.721 473.94 253.179 472.975 250.63C472.6 249.64 472.231 248.647 471.812 247.529V247.527Z" fill="#8DC0FF"/>
<path d="M266.37 152.212C266.314 151.513 266.238 150.928 265.557 150.406C263.167 148.578 260.411 147.786 257.544 147.266C256.31 147.042 255.063 146.861 253.815 146.773C252.755 146.698 251.631 146.514 250.665 147.349C250.775 147.895 251.071 148.261 251.421 148.569C251.836 148.934 252.147 149.223 252.501 149.446C253.093 149.817 253.982 150.333 255.177 150.886C256.966 151.125 258.756 151.366 260.546 151.605C261.97 151.782 263.11 151.788 263.889 151.762C264.965 151.725 265.843 151.607 266.944 152.007C267.473 152.2 267.874 152.446 268.124 152.62C261.467 152.51 256.356 151.794 253.73 150.968C253.73 150.968 251.822 149.759 249.654 148.156C249.402 147.969 249.193 147.442 249.271 147.158C249.352 146.86 249.772 146.591 250.102 146.448C250.451 146.297 250.868 146.272 251.257 146.257C256.275 146.046 261.149 146.521 265.523 149.35C266.591 150.041 267.718 150.553 269.076 150.443C269.282 150.177 269.521 149.956 269.653 149.684C272.148 144.573 274.632 139.457 277.11 134.336C277.127 134.299 277.032 134.206 276.936 134.059C276.363 134.705 275.821 135.35 275.242 135.962C274.322 136.934 273.243 137.134 272.075 136.454C271.262 135.982 270.518 135.386 269.764 134.818C268.594 133.939 268.458 132.544 269.201 131.198C269.541 130.584 270.028 130.047 270.489 129.512C271.104 128.798 271.76 128.119 272.527 127.285C272.08 126.959 271.738 126.692 271.379 126.452C270.666 125.974 269.848 125.609 269.241 125.023C267.375 123.219 267.201 122.472 267.757 119.937C267.958 119.021 268.309 118.687 269.208 118.749C271.089 118.88 272.969 119.032 274.843 119.244C275.863 119.359 275.858 119.441 277.433 118.806C277.211 118.163 277.043 117.485 276.749 116.867C276.317 115.961 276.321 115.041 276.428 114.08C276.517 113.288 276.908 112.767 277.622 112.461C278.438 112.111 279.286 111.947 280.155 112.158C281.679 112.529 283.201 112.908 284.476 113.918C285.093 114.408 285.729 114.879 286.387 115.308C287.77 116.214 288.705 117.396 288.994 119.086C289.111 119.768 289.431 120.415 289.702 121.206C290.161 121.034 290.517 120.928 290.849 120.768C291.535 120.441 292.232 120.44 292.905 120.727C294.932 121.593 296.928 122.512 298.698 123.877C299.665 124.622 300.162 125.502 299.953 126.732C299.769 127.819 299.591 128.908 299.374 129.99C299.231 130.7 298.738 131.103 298.038 131.098C297.101 131.091 296.162 131.016 295.231 130.918C293.918 130.78 292.622 130.43 291.162 130.509C290.912 131.223 290.667 131.87 290.459 132.53C290.054 133.81 289.725 135.118 289.26 136.375C288.932 137.258 288.486 138.111 287.987 138.911C287.458 139.759 286.815 139.817 286.01 139.14C284.491 137.86 283.161 136.413 282.32 134.568C281.83 133.491 281.333 132.418 280.742 131.129C276.876 136.803 274.047 142.833 271.182 148.985C271.521 149.252 272.067 149.641 272.799 149.986C274.331 150.709 275.685 150.767 276.054 150.793C280.044 151.075 287.288 155.885 287.15 156.164C287.124 156.215 286.825 156.155 285.568 155.629C280.947 152.698 276.948 151.375 275.224 151.469C274.246 151.523 273.224 151.709 273.224 151.709C272.174 151.901 271.303 152.164 270.653 152.395C270.475 152.997 270.824 153.255 271.156 153.403C271.648 153.621 272.199 153.888 272.706 153.854C275.993 153.629 279.045 154.75 282.234 155.438C282.886 154.786 283.652 154.566 284.53 155.093C284.868 155.295 285.219 155.625 285.568 155.631C287.192 155.657 287.998 156.842 288.915 157.888C289.383 158.422 289.883 158.934 290.301 159.505C290.749 160.119 290.854 160.8 290.28 161.622C289.861 161.273 289.424 160.979 289.074 160.601C287.465 158.856 285.28 158.121 283.22 157.171C283.018 157.078 282.758 157.105 282.524 157.098C280.763 157.047 279.129 156.586 277.629 155.635C276.673 155.03 275.706 154.831 274.508 155.042C273.052 155.296 271.542 155.033 270.24 154.142C269.992 153.972 269.712 153.851 269.508 153.741C268.686 153.976 268.517 154.637 268.279 155.201C266.983 158.261 265.655 161.309 264.446 164.405C261.712 171.408 259.057 178.441 256.331 185.447C255.885 186.591 255.733 187.693 255.915 188.911C256.244 191.103 256.464 193.312 256.75 195.693C257.187 195.799 257.69 196.017 258.2 196.032C262.352 196.157 266.511 195.955 270.662 196.278C272.13 196.392 273.615 196.295 275.117 196.295C275.298 197.093 275.312 197.841 275.641 198.402C275.987 198.991 276.6 199.442 277.156 199.88C278.17 200.68 278.652 201.654 278.464 202.974C278.343 203.814 278.046 204.558 277.274 204.904C275.581 205.663 274.929 207.187 274.409 208.772C272.289 215.233 269.957 221.624 268.201 228.203C267.612 230.407 267.078 232.626 266.487 234.962C266.06 234.91 265.729 234.762 265.489 234.855C262.693 235.948 259.654 235.899 256.806 236.771C254.896 237.355 252.939 237.183 250.983 236.815C248.678 236.382 246.332 236.221 243.994 236.286C243.187 236.308 242.38 236.807 241.599 237.15C241.251 237.303 240.993 237.658 240.65 237.833C239.867 238.233 239.03 237.896 238.811 237.035C238.631 236.328 238.409 235.772 237.806 235.255C237.002 234.565 237.195 233.615 238.065 232.906C238.233 232.768 238.397 232.623 238.64 232.417C237.007 229.992 236.852 227.227 236.702 224.463C236.655 223.59 236.64 222.732 237.007 221.896C237.345 221.122 237.199 220.368 236.784 219.629C235.277 216.946 235.155 214.07 235.693 211.117C235.82 210.414 235.932 209.729 235.6 209.081H234.912C234.718 207.765 234.822 206.617 235.419 205.381C236.029 204.119 236.571 202.801 237.122 201.5C237.614 200.336 238.332 199.49 239.461 198.966C242.472 197.569 245.55 196.416 248.911 196.263C249.381 196.242 249.85 196.174 250.315 196.105C250.996 196.003 251.47 195.602 251.709 194.965C252.65 192.445 253.607 189.929 254.475 187.382C254.668 186.819 254.623 186.121 254.513 185.517C252.88 176.534 250.542 167.756 247.253 159.225C244.479 152.031 241.074 145.177 237.06 138.627C235.411 135.937 233.609 133.339 231.819 130.74C231.387 130.114 230.724 129.65 230.206 129.147C229.342 129.479 228.63 129.748 227.923 130.032C227.875 130.051 227.863 130.165 227.796 130.327C228.113 130.6 228.454 130.894 228.847 131.234C228.716 131.395 228.612 131.652 228.448 131.702C227.398 132.021 226.335 132.294 225.32 132.57C223.843 132.195 222.855 131.201 222.029 130.149C221.079 130.259 220.75 130.855 220.467 131.538C219.931 132.84 219.09 133.84 217.862 134.153C216.401 133.84 215.12 133.565 213.715 133.263C212.859 131.384 213.298 129.483 213.935 127.592C214.311 126.475 214.836 125.388 214.43 123.983C214.107 123.974 213.75 123.962 213.392 123.956C210.362 123.903 207.464 123.435 205.092 121.292C204.448 120.71 203.775 120.161 203.142 119.568C201.246 117.785 201.779 114.896 204.234 114.084C205.637 113.621 207.103 113.363 208.639 113.695C210.031 113.995 211.383 114.348 212.669 114.963C213.661 115.439 214.627 115.419 215.604 114.713C215.604 113.62 215.595 112.521 215.614 111.423C215.617 111.292 215.764 111.162 215.844 111.033C218.053 110.83 222.637 111.598 224.581 112.523V116.773C226.483 117.329 228.509 117.285 230.352 118.366C230.69 119.364 230.456 120.273 229.623 121.046C228.934 121.685 228.161 122.262 227.921 123.494C229.617 125.769 231.47 128.12 233.174 130.578C234.925 133.104 236.576 135.705 238.186 138.324C239.742 140.854 241.19 143.452 242.65 145.962C243.254 145.873 243.207 145.5 243.269 145.215C243.611 143.671 243.885 142.108 244.295 140.581C244.664 139.208 245.118 137.851 245.644 136.53C246.61 134.105 248.204 132.2 250.451 130.847C252.954 129.34 254.939 128.225 258.41 127.763C258.456 128.116 258.601 128.488 258.532 128.815C258.111 130.825 257.641 132.823 257.19 134.828C256.888 136.167 256.287 137.333 255.38 138.374C253.67 140.337 252.007 142.344 250.345 144.35C249.641 145.201 248.964 146.077 248.318 146.973C247.392 148.257 246.485 149.552 244.964 150.379C245.464 152.375 246.446 154.09 247.106 155.921C247.748 157.708 248.496 159.458 249.126 161.25C249.78 163.115 250.364 165.006 250.951 166.893C251.539 168.782 252.133 170.669 252.652 172.578C253.15 174.409 253.577 176.261 253.991 178.114C254.421 180.042 254.799 181.983 255.258 184.202C255.638 183.763 255.944 183.549 256.056 183.259C257.931 178.384 259.725 173.478 261.652 168.626C263.607 163.703 265.688 158.829 267.708 153.931C267.766 153.792 267.75 153.622 267.775 153.418C267.757 153.333 267.589 152.567 266.928 152.302C266.714 152.216 266.511 152.209 266.366 152.22L266.37 152.212ZM290.46 128.112C290.754 128.219 291.062 128.298 291.34 128.437C293.054 129.289 294.956 129.39 296.777 129.792C298.038 130.071 298.607 129.55 298.986 128.28C299.344 127.076 299.048 126.106 298.114 125.32C297.637 124.918 297.159 124.493 296.619 124.193C295.457 123.548 294.248 122.99 293.07 122.374C291.952 121.788 290.999 121.933 290.187 122.907C290.665 123.925 290.844 124.975 290.726 126.057C290.65 126.757 290.578 127.456 290.505 128.156C289.749 128.155 289.508 128.856 289.069 129.264C288.039 130.22 286.913 130.805 285.463 130.677C284.463 130.589 283.468 130.723 282.395 130.888C282.589 132.637 283.199 134.099 284.211 135.301C284.987 136.223 285.607 137.436 286.919 137.711C287.798 137.328 288.067 136.557 288.375 135.838C289.434 133.364 290.358 130.849 290.46 128.111V128.112ZM237.115 209.005C237.043 210.669 237.282 212.206 237.832 213.615C237.944 213.903 238.028 214.22 238.041 214.527C238.122 216.471 239.02 218.383 238.284 220.366C238.207 220.572 238.279 220.837 238.291 221.073C238.469 224.71 239.073 228.289 239.742 231.859C239.865 232.518 240.104 233.142 240.808 233.274C241.846 233.469 242.328 234.261 242.836 235.123C244.124 234.779 245.345 234.936 246.58 235.093C247.582 235.221 248.615 235.219 249.625 235.148C251.575 235.011 253.521 234.803 255.465 234.585C256.472 234.472 257.532 234.437 258.46 234.079C260.319 233.363 262.258 233.156 264.185 232.837C264.631 232.763 265.078 232.704 265.533 232.637C265.658 232.23 265.774 231.938 265.837 231.635C266.365 229.164 266.869 226.689 267.42 224.225C267.504 223.849 267.516 223.214 268.326 223.452C268.265 223.941 268.206 224.408 268.147 224.874C268.607 224.411 268.761 223.904 268.921 223.399C270.525 218.355 272.129 213.312 273.736 208.268C273.897 207.76 274.212 207.247 273.72 206.826C271.115 207.574 268.556 208.301 266.001 209.043C263.745 209.7 261.469 210.301 259.246 211.062C256.382 212.041 253.452 212.399 250.466 212.204C246.456 211.942 242.57 211.063 238.843 209.512C238.351 209.307 237.818 209.206 237.114 209.003L237.115 209.005ZM276.505 201.175C275.239 200.251 274.12 199.399 272.958 198.61C272.654 198.403 272.22 198.329 271.84 198.307C269.571 198.176 267.301 198.051 265.031 197.981C263.309 197.927 261.578 198.141 259.872 197.7C258.938 197.458 258.022 197.658 257.14 197.882C257.015 198.717 257.088 199.511 257.36 200.263C258.047 200.574 258.729 201.016 259.474 201.194C261.193 201.602 262.901 202.278 264.705 201.289C265.51 200.849 266.495 200.722 267.415 200.537C267.651 200.489 268.037 200.683 268.2 200.889C268.491 201.26 268.293 201.659 267.953 201.905C267.385 202.319 266.821 202.782 266.183 203.048C264.663 203.683 263.114 204.259 261.549 204.775C260.185 205.224 260.142 205.151 259.799 203.549C259.771 203.414 259.619 203.307 259.397 203.026C257.108 203.03 254.701 203.204 252.291 203.36C251.087 203.437 250.275 203.986 250.04 205.202C249.092 205.202 248.232 205.235 247.376 205.192C246.63 205.155 246.217 204.732 246.109 204.026C245.972 203.135 246.227 202.502 246.923 202.261C247.578 202.035 248.268 201.911 248.813 201.776C249.239 200.494 249.619 199.348 250.014 198.157C249.681 198.059 249.468 197.945 249.253 197.941C245.868 197.897 242.788 199.05 239.76 200.412C238.53 200.965 237.831 201.933 237.417 203.211C236.702 205.416 237.534 207.399 239.643 208.176C244.641 210.019 249.777 210.947 255.113 210.419C256.049 210.326 256.997 210.227 257.9 209.986C262.528 208.747 267.159 207.516 271.757 206.169C274.802 205.277 274.777 205.191 276.021 202.335C276.145 202.052 276.259 201.764 276.505 201.173V201.175ZM204.224 118.129C204.707 118.817 205.233 119.344 205.491 119.982C205.881 120.947 206.604 121.44 207.431 121.942C208.764 122.752 210.197 122.994 211.71 122.979C213.181 122.966 215.008 121.659 215.343 120.191C215.66 118.8 216.515 117.987 217.741 117.509C219.567 116.795 221.436 116.274 223.374 116.854C224.054 115.855 224.18 114.887 223.932 114.047C222.763 112.627 221.368 112.226 219.829 112.095C219.056 112.03 218.295 111.814 217.528 111.67C217.059 111.582 216.572 111.497 216.243 111.962C215.929 112.405 216.058 112.872 216.283 113.309C216.644 114.009 217.054 114.685 217.383 115.399C217.529 115.715 217.528 116.1 217.63 116.642C216.901 116.552 216.325 116.601 215.854 116.399C214.602 115.864 213.271 115.726 211.966 115.662C210.624 115.596 209.309 115.448 208.051 115.041C206.277 114.467 204.828 115.313 203.353 115.995C202.911 116.2 202.837 116.767 203.402 117.146C203.793 116.864 204.184 116.584 204.865 116.094C204.592 116.963 204.433 117.468 204.225 118.129H204.224ZM244.017 148.331C245.533 147.72 246.623 146.652 247.571 145.37C248.555 144.04 249.576 142.735 250.624 141.455C252.219 139.502 253.874 137.598 255.46 135.637C256.46 134.399 256.872 132.694 256.762 130.742C256.545 130.742 256.319 130.708 256.105 130.747C253.889 131.156 252.044 132.374 250.175 133.537C248.383 134.654 247.077 136.207 246.256 138.152C244.957 141.232 244.316 144.485 243.874 147.783C243.855 147.922 243.947 148.074 244.018 148.33L244.017 148.331ZM268.47 119.94C268.193 122.269 269.082 123.739 270.683 124.805C271.395 125.279 272.248 125.53 273.008 125.938C273.664 126.29 274.786 126.139 274.883 127.09C274.998 128.207 273.737 128.184 273.122 128.714C272.057 129.634 271.008 130.578 270.014 131.573C269.587 132 269.591 132.601 270.014 133.085C270.734 133.914 271.429 134.779 272.241 135.508C273 136.188 273.822 136.102 274.514 135.352C275.575 134.2 276.578 132.992 277.754 131.638C275.598 130.222 275.31 128.154 275.395 125.947C275.41 125.552 275.422 125.156 275.434 124.761C275.475 123.4 275.955 122.306 277.236 121.673C277.333 121.625 277.346 121.404 277.429 121.177C274.606 120.11 271.681 119.965 268.469 119.941L268.47 119.94ZM276.154 125.851C276.177 126.244 276.167 126.642 276.228 127.029C276.362 127.897 276.588 128.726 277.388 129.251C278.151 129.752 278.926 129.877 279.822 129.582C281.452 129.045 283.149 128.99 284.852 129.025C285.315 129.034 285.785 128.948 286.243 128.857C287.8 128.549 288.892 127.578 289.728 126.279C290.141 125.639 289.994 125.036 289.326 124.699C288.771 124.421 288.188 124.169 287.588 124.017C284.533 123.235 281.416 123.226 278.299 123.383C276.793 123.459 276.087 124.349 276.154 125.852V125.851ZM288.592 122.475C288.479 120.491 288.21 118.88 287.042 117.735C285.178 115.908 283.075 114.359 280.526 113.615C279.877 113.425 279.135 113.395 278.461 113.485C277.491 113.615 277.151 114.23 277.459 115.2C278.099 117.217 278.892 119.194 278.715 121.301C280.365 122.029 281.952 121.488 283.485 121.692C285.098 121.906 286.702 122.182 288.592 122.476V122.475ZM221.971 126.1C223.746 123.223 223.782 122.92 223.569 120.197C223.488 119.151 223.035 118.428 222.241 117.805C220.524 117.415 219.085 118.362 217.555 118.864C217.349 118.932 217.177 119.139 217.013 119.306C216.12 120.217 216.026 121.285 216.165 122.532C216.439 124.987 218.142 126.579 220.537 126.369C220.999 126.328 221.454 126.2 221.971 126.1ZM214.306 131.52C214.99 132.226 215.908 132.44 216.848 132.522C217.667 132.594 218.409 132.34 218.903 131.619C219.646 130.535 220.369 129.437 221.176 128.232C220.125 127.88 219.182 127.696 218.375 127.255C217.52 126.789 216.797 126.078 216.009 125.469C214.72 127.58 214.139 129.667 214.306 131.519V131.52ZM229.1 119.816C228.937 118.664 227.944 118.507 227.205 118.217C226.292 117.859 225.28 117.571 224.145 118.13C224.264 119.37 224.379 120.585 224.505 121.899C226.186 121.269 228.033 121.406 229.101 119.815L229.1 119.816ZM255.027 189.856C253.964 191.377 252.912 194.289 252.816 195.984C253.821 196.228 254.769 196.205 255.726 195.493C255.619 193.588 255.616 191.715 255.027 189.856ZM226.78 129.111C226.371 127.906 225.772 126.909 225.053 125.996C224.534 125.338 223.394 125.551 223.166 126.335C223.016 126.848 222.92 127.415 222.969 127.941C223.064 128.99 223.839 129.565 224.701 129.961C225.52 130.339 226.201 130.055 226.78 129.111ZM255.807 200.515C255.428 199.825 255.224 199.418 254.99 199.03C254.376 198.017 253.403 197.888 252.363 198.009C251.842 198.07 251.591 198.488 251.448 198.949C251.328 199.34 251.391 199.673 251.727 199.988C252.154 200.389 252.507 200.871 253.004 201.45C253.785 201.189 254.646 200.902 255.807 200.517V200.515ZM277.191 203.576C277.164 203.511 277.152 203.411 277.105 203.391C277.048 203.366 276.964 203.407 276.89 203.42C276.933 203.513 276.975 203.605 277.018 203.696C277.076 203.656 277.133 203.615 277.191 203.576Z" fill="#8DC0FF"/>
<path d="M535.3 289.13C534.265 290.096 533.014 290.635 531.563 290.795C527.952 291.193 524.357 291.755 520.738 292.026C518.145 292.22 515.524 292.075 512.917 292.021C512.319 292.01 511.725 291.754 511.033 291.588C510.215 293.143 509.857 294.859 509.715 296.564C509.551 298.522 509.627 300.511 509.739 302.478C509.819 303.905 510.368 305.242 510.982 306.539C511.613 307.872 512.411 308.956 513.989 309.309C514.824 309.495 515.615 309.913 516.399 310.282C517.686 310.887 518.922 311.611 520.236 312.147C521.464 312.648 522.767 312.971 524.104 313.393C524.16 313.691 524.265 313.994 524.267 314.296C524.28 322.335 523.764 330.375 524.479 338.571C523.862 338.583 523.414 338.626 522.972 338.595C521.478 338.492 519.986 338.284 518.492 338.268C517.339 338.254 516.397 338.79 515.8 339.994C517.735 340.808 519.708 340.963 521.647 341.219C523.128 341.415 524.625 341.33 526.121 341.269C528.886 341.159 531.655 341.163 534.423 341.116C535.197 341.103 536 341.176 536.794 340.465C536.382 340.228 536.091 339.945 535.763 339.892C533.895 339.585 532.022 339.29 530.14 339.077C528.802 338.926 527.489 338.733 526.296 338.304C525.689 337.013 526.226 335.85 526.237 334.685C526.248 333.606 526.15 332.526 526.252 331.44C526.772 333.313 526.305 335.267 526.739 337.212C527.984 337.804 529.307 337.936 530.643 338.027C533.494 338.219 536.293 338.676 538.954 339.775C539.245 339.895 539.578 339.986 539.793 340.193C539.994 340.388 540.193 340.738 540.154 340.983C540.117 341.219 539.804 341.543 539.564 341.593C538.717 341.769 537.852 341.891 536.989 341.947C532.027 342.268 527.058 342.738 522.089 342.461C519.825 342.335 517.59 341.669 515.346 341.229C514.388 341.041 513.827 340.095 514.806 339.042C516.015 337.742 517.419 336.723 519.366 336.972C519.914 337.042 520.465 337.081 521.013 337.142C521.866 337.237 522.718 337.363 523.505 337.179C523.643 336.952 523.793 336.82 523.793 336.687C523.804 329.423 523.802 322.159 523.802 315.04C523.561 314.794 523.473 314.62 523.349 314.589C521.032 314.002 518.9 312.987 516.784 311.902C515.663 311.327 514.462 310.901 513.278 310.458C512.349 310.111 511.613 309.577 511.129 308.7C509.888 306.459 508.95 304.136 509.032 301.507C509.064 300.48 509.099 299.446 509.029 298.422C508.849 295.837 509.545 293.405 510.263 290.978C510.644 289.687 510.84 289.558 512.291 289.535C514.026 289.508 515.762 289.593 517.495 289.549C518.596 289.522 519.725 289.477 520.784 289.212C522.666 288.743 524.54 288.704 526.433 288.955C527.54 289.102 528.611 289.086 529.719 288.856C530.948 288.6 532.22 288.562 533.472 288.408C534.399 288.294 535.322 288.148 536.355 288C537.109 289.817 537.442 291.664 537.496 293.538C537.578 296.462 537.556 299.389 537.535 302.316C537.521 304.309 537.101 306.238 536.389 308.097C535.953 309.234 535.188 310.098 534.193 310.823C532.568 312.003 530.678 312.611 528.896 313.448C528.467 313.648 528.004 313.78 527.59 314.006C527.005 314.325 526.64 314.85 526.574 315.515C526.52 316.048 526.563 316.592 526.563 317.246C525.748 316.695 526.34 316.111 526.274 315.602C526.195 314.983 526.255 314.347 526.255 313.572C527.762 312.954 529.294 312.35 530.803 311.694C531.669 311.318 532.517 310.889 533.342 310.43C534.796 309.619 535.702 308.363 536.183 306.782C536.806 304.733 537.23 302.653 537.217 300.497C537.206 298.678 537.3 296.853 537.189 295.04C537.09 293.393 536.806 291.754 536.542 290.122C536.446 289.523 535.96 289.216 535.304 289.127L535.3 289.13ZM525.107 290.511C521.582 289.818 518.575 289.976 515.585 290.629C515.023 290.751 514.316 290.774 513.984 291.612C515.648 292.093 517.291 291.934 518.869 291.733C520.782 291.49 522.777 291.547 525.107 290.512V290.511Z" fill="#8DC0FF"/>
<path d="M526.366 333.17C526.162 332.199 525.909 330.778 525.773 329.044C525.665 327.662 525.656 326.4 525.812 323.162C525.896 321.409 526.026 319.13 526.234 316.449L526.556 316.779C526.341 319.252 526.207 321.385 526.119 323.082C525.95 326.343 525.965 327.776 526.113 329.349C526.222 330.515 526.378 331.475 526.499 332.131L526.366 333.169V333.17Z" fill="#8DC0FF"/>
</svg>
