<svg width="482" height="521" viewBox="0 0 482 521" fill="none" xmlns="http://www.w3.org/2000/svg">
<path d="M269.601 363.028C272.055 364.839 273.194 367.265 272.376 370.099C271.617 372.757 268.988 374.394 265.687 374.306C262.999 374.248 260.371 372.699 259.553 370.537C258.472 367.703 259.553 364.927 262.211 363.203C260.517 361.45 259.436 359.113 260.195 357.243C260.955 355.373 263.379 353.941 265.745 353.883C267.878 353.824 270.419 355.022 271.266 356.483C272.493 358.645 271.792 361.246 269.572 363.028H269.601ZM269.28 359.2C269.28 357.36 267.79 355.84 265.921 355.84C264.051 355.84 262.561 357.331 262.561 359.2C262.561 361.07 264.051 362.561 265.921 362.561C267.79 362.561 269.28 361.07 269.28 359.2ZM269.981 368.375C269.981 366.125 268.141 364.284 265.891 364.284C263.642 364.284 261.802 366.125 261.802 368.375C261.802 370.625 263.642 372.465 265.891 372.465C268.141 372.465 269.981 370.625 269.981 368.375Z" fill="#8DC0FF"/>
<path d="M277.692 328.697C279.62 327.85 281.753 327.178 283.856 327.178C285.55 327.178 287.916 329.457 288.413 331.327C289.493 335.388 287.741 338.952 284.528 339.975C280.701 341.202 276.641 339.683 275.648 335.33C273.953 327.879 275.91 319.961 282.512 319.903C285.433 319.873 288.383 321.773 287.887 325.191C286.777 325.279 285.462 324.052 284.411 322.737C283.681 321.802 280.584 322.036 279.679 323.029C278.656 324.168 277.926 326.272 277.692 328.668V328.697ZM286.485 333.781C286.485 331.356 284.528 329.398 282.103 329.398C279.679 329.398 277.722 331.356 277.722 333.781C277.722 336.206 279.679 338.164 282.103 338.164C284.528 338.164 286.485 336.206 286.485 333.781Z" fill="#8DC0FF"/>
<path d="M233.304 400.426C233.275 405.043 230.441 408.227 225.972 408.14C221.999 408.052 219.02 404.926 219.02 400.456C219.02 395.985 221.941 392.83 225.972 392.801C230.324 392.742 233.333 395.898 233.275 400.456L233.304 400.426ZM230.763 400.134C230.616 396.774 228.455 394.729 225.914 394.904C223.168 395.109 221.561 397.563 221.532 400.426C221.503 403.611 223.518 406.299 226.439 406.065C229.01 405.861 230.879 403.29 230.763 400.163V400.134Z" fill="#8DC0FF"/>
<path d="M233.77 331.94C233.945 336.731 230.995 339.945 226.672 340.004C222.348 340.062 219.281 336.702 219.486 331.94C219.661 327.557 222.582 324.723 226.701 324.694C230.82 324.664 233.624 327.645 233.77 331.94ZM231.258 332.319C231.258 329.222 229.271 326.768 226.701 326.797C224.13 326.826 222.173 329.193 222.027 331.969C221.852 335.212 223.604 337.958 226.701 337.929C229.213 337.929 231.287 335.504 231.258 332.349V332.319Z" fill="#8DC0FF"/>
<path d="M269.577 405.45L269.664 407.554C269.664 408.109 267.503 408.284 267.503 407.729L267.327 403.317L258.623 403.259C258.564 402.85 258.798 400.571 259.294 399.899L268.992 387.072C270.161 392.361 269.635 396.597 269.81 401.155L272.381 401.593C272.79 401.652 272.235 403.317 271.826 403.376L270.073 403.58C269.606 403.639 269.606 404.983 269.635 405.421L269.577 405.45ZM267.619 401.243L267.181 391.893L260.58 401.097L267.619 401.243Z" fill="#8DC0FF"/>
<path d="M233.544 366.183C233.661 370.799 230.74 373.955 226.679 374.072C222.093 374.189 219.26 370.945 219.318 366.154C219.347 361.713 222.415 358.674 226.679 358.703C230.652 358.733 233.456 361.8 233.573 366.154L233.544 366.183ZM231.032 366.563C231.09 363.028 228.987 360.661 225.949 360.865C223.554 361.041 221.889 363.378 221.801 366.183C221.684 369.222 223.291 371.734 226.008 371.968C228.724 372.202 230.973 370.069 231.032 366.563Z" fill="#8DC0FF"/>
<path d="M245.678 395.372L238.521 395.43L238.463 407.819L236.067 407.789L236.213 393.181L248.073 393.298V407.819L245.649 407.848L245.678 395.372Z" fill="#8DC0FF"/>
<path d="M246.236 327.382L239.167 327.149L238.905 339.595L236.568 339.537L236.655 325.074L248.632 325.162L248.515 339.683L246.12 339.712L246.236 327.382Z" fill="#8DC0FF"/>
<path d="M246.069 361.391L238.795 361.186L238.707 373.574L236.341 373.837L236.458 359.199L248.376 359.258L248.23 373.633L245.864 373.72L246.069 361.391Z" fill="#8DC0FF"/>
<path d="M212.58 407.146L210.243 407.584L210.331 395.167L204.985 395.079L205.19 392.946L217.166 393.034C217.692 393.034 217.955 395.225 217.692 394.992L212.668 395.254L212.58 407.117V407.146Z" fill="#8DC0FF"/>
<path d="M265.948 339.974L266.007 325.629L261.012 325.453V323.875C264.371 323.233 265.072 322.298 268.256 319.376L268.344 339.332L265.948 339.974Z" fill="#8DC0FF"/>
<path d="M212.847 373.429L210.452 373.575L210.539 361.1L205.398 361.041L205.515 358.938L218.514 359.084L217.316 361.304L212.935 361.07L212.847 373.429Z" fill="#8DC0FF"/>
<path d="M213.026 339.449H210.66L210.835 327.324L204.759 325.921C209.725 324.46 213.435 324.811 218.459 325.366C217.699 327.265 216.005 327.382 213.289 326.856L213.026 339.449Z" fill="#8DC0FF"/>
<path d="M253.635 276.601C253.635 277.127 251.385 277.39 251.356 276.864L251.415 257.288L254.628 257.902C256.614 256.967 259.477 256.47 261.609 257.551C263.742 258.632 265.202 261.467 265.261 264.184C265.348 267.252 264.092 270.261 261.551 271.517C259.156 272.686 256.293 272.102 253.839 270.319L253.605 276.601H253.635ZM262.748 264.534C262.807 261.087 260.85 258.808 257.899 258.925C255.417 259.041 253.722 261.466 253.635 264.155C253.518 267.427 254.978 269.823 257.987 270.056C260.762 270.261 262.69 268.099 262.748 264.534Z" fill="#8DC0FF"/>
<path d="M236.522 271.049C235.529 270.377 234.974 267.455 235.382 266.287C236.551 262.898 241.78 264.037 245.051 262.138C245.635 260.297 243.824 258.661 242.276 258.661C239.443 258.661 235.032 263.92 235.85 261.057C235.996 260.589 236.434 259.245 236.785 258.807C238.917 256.178 244.117 255.622 247.154 258.515L247.447 267.368C247.476 268.303 248.206 269.939 248.849 271.166C249.053 271.283 247.242 272.335 246.833 272.013L244.788 270.436C242.714 271.926 239.005 272.715 236.492 271.049H236.522ZM240.67 269.997C242.656 269.734 244.409 268.946 244.73 267.923C245.022 267.046 245.022 264.768 244.876 264.388L239.443 265.44C238.625 265.586 237.544 267.426 237.69 268.215C237.836 269.004 239.823 270.085 240.67 269.968V269.997Z" fill="#8DC0FF"/>
<path d="M211.916 259.013C208.44 261.263 208.791 267.427 211.507 269.21C212.88 270.115 216.035 269.619 216.765 268.45L217.963 266.463C218.196 266.054 219.861 266.376 220.124 266.522C219.482 270.554 216.152 272.307 212.53 271.81C208.907 271.313 206.775 268.216 206.833 264.213C206.892 260.649 208.791 257.464 211.858 256.763C215.48 255.945 219.336 257.172 220.066 261.35C217.554 262.723 215.684 256.588 211.887 259.042L211.916 259.013Z" fill="#8DC0FF"/>
<path d="M228.763 270.495C228.763 270.992 226.922 271.635 226.455 271.547V259.071L221.255 259.013L221.314 256.909L234.517 257.143C233.612 259.714 231.713 259.393 228.938 259.071L228.763 270.495Z" fill="#8DC0FF"/>
<path d="M274.098 259.364L273.981 271.781H271.615L271.527 259.276C269.19 259.481 267.613 259.919 265.919 257.611L278.012 257.085L279.881 259.335H274.127L274.098 259.364Z" fill="#8DC0FF"/>
<path d="M353.696 441.271L353.638 448.195L351.155 448.137L351.33 428.006L354.193 429.116C356.354 427.86 359.392 427.188 361.992 428.737C366.257 431.308 366.111 439.752 362.021 442.118C359.1 443.813 356.179 443.112 353.667 441.271H353.696ZM362.664 435.048C362.576 431.629 360.502 429.671 357.64 429.876C355.215 430.051 353.638 432.622 353.579 435.369C353.55 438.641 355.42 441.125 358.428 440.979C361.116 440.833 362.751 438.408 362.664 435.048Z" fill="#8DC0FF"/>
<path d="M402.796 442.351C402.65 443.081 400.517 442.877 399.875 442.234L394.12 436.215L393.536 442.731L391.813 442.964C391.287 443.052 391.52 441.153 391.433 440.627L390.673 436.04L385.065 442.146C384.539 442.731 382.64 442.877 381.735 442.701L388.453 435.105L382.494 428.18C384.218 428.239 385.766 428.823 386.525 429.67L391.228 434.871L391.404 428.502H393.653L393.887 434.813L400.488 428.063L402.036 428.911L396.632 435.163L402.825 442.322L402.796 442.351Z" fill="#8DC0FF"/>
<path d="M417.36 443.112H406.026L405.763 447.261C405.5 447.377 403.806 447.699 403.777 447.377L403.543 444.982C403.309 442.527 404.186 441.622 405.529 439.693C407.487 436.888 407.311 432.506 407.37 428.474H417.856V439.985C418.674 441.008 419.755 442.235 419.96 443.258C420.222 444.777 419.96 447.29 418.09 447.962L417.331 443.053L417.36 443.112ZM415.607 440.979L415.49 430.46L409.969 430.548L408.246 441.008L415.607 440.95V440.979Z" fill="#8DC0FF"/>
<path d="M324.572 441.914C323.345 441.212 322.79 438.291 323.403 436.917C325.156 433.061 332.108 435.077 333.101 432.301C333.569 431.045 331.115 429.35 330.034 429.467C327.055 429.759 323.286 434.492 323.783 432.155C323.871 431.717 324.25 430.256 324.542 429.847C326.587 427.013 332.868 426.282 335.263 429.847L335.438 439.167L337.191 442.381C335.905 442.848 334.299 442.469 332.955 441.592C330.355 442.352 327.522 443.608 324.572 441.914ZM332.838 435.456L327.551 436.128C326.733 436.245 325.536 437.998 325.565 438.817C325.594 439.635 327.376 440.891 328.194 440.832C329.596 440.716 331.436 440.219 332.137 439.576C332.838 438.933 333.13 436.362 332.838 435.486V435.456Z" fill="#8DC0FF"/>
<path d="M426.982 441.357C430.312 442.672 430.955 439.341 434.197 438.581C434.665 438.464 434.197 440.276 433.905 440.743C432.24 443.636 428.267 444.22 425.23 442.935C422.425 441.737 421.052 438.172 421.403 434.841C421.841 430.839 424.879 428.18 428.384 428.238C432.445 428.326 435.161 431.803 434.781 436.565L423.769 436.653C424.12 439.136 425.142 440.597 427.011 441.357H426.982ZM432.386 434.491C431.86 431.365 429.786 430.137 427.566 430.342C425.668 430.546 424.09 432.475 423.973 434.403L432.415 434.491H432.386Z" fill="#8DC0FF"/>
<path d="M465.602 443.462L463.294 443.491L463.178 431.833L456.459 443.141L453.188 443.287L453.304 428.736L455.583 428.795L455.846 440.19L462.535 429.058L465.719 428.853L465.602 443.462Z" fill="#8DC0FF"/>
<path d="M368.803 442.351C367.606 441.709 366.905 438.816 367.313 437.618C368.686 433.674 373.798 435.368 377.128 433.119C377.391 431.453 375.785 429.788 374.733 429.846C371.111 430.051 371.286 431.424 368.131 432.739C367.722 432.914 368.073 430.986 368.365 430.518C370.351 427.509 376.223 426.399 379.29 429.934L379.465 437.793C379.494 439.342 380.02 440.657 380.867 442.468C381.218 442.381 379.582 443.52 379.202 443.228L376.895 441.592C374.762 442.907 371.549 443.812 368.803 442.381V442.351ZM373.419 441.066C376.661 440.569 377.42 438.728 377.07 435.631L371.082 436.596C370.176 436.742 369.358 439.371 369.942 440.043C370.527 440.715 372.425 441.241 373.419 441.095V441.066Z" fill="#8DC0FF"/>
<path d="M474.229 441.737C476.945 442.819 483.226 436.42 481.765 439.4L481.035 440.949C479.516 444.046 475.543 444.455 472.593 443.315C469.643 442.176 468.27 438.903 468.591 435.397C468.971 431.015 472.272 428.005 476.595 428.648C480.13 429.174 482.496 433.147 481.911 437.004L470.957 436.946C471.191 439.166 472.184 440.919 474.229 441.708V441.737ZM479.574 434.871C478.961 431.015 476.741 430.547 474.433 430.781C472.944 430.956 471.483 432.622 470.899 434.784L479.574 434.842V434.871Z" fill="#8DC0FF"/>
<path d="M449.697 442.907L447.273 443.491L447.214 436.713L439.795 436.45V443.257L437.37 443.111L437.458 428.736L439.882 428.648L439.795 434.492L447.214 434.58L447.302 428.736L449.668 428.795L449.697 442.907Z" fill="#8DC0FF"/>
<path d="M320.255 442.234L317.86 442.351L317.948 435.661H310.528L310.44 442.293L308.045 442.205L308.104 427.889L310.411 427.918L310.616 433.586L317.918 433.703L318.006 427.976L320.343 428.006L320.255 442.234Z" fill="#8DC0FF"/>
<path d="M341.671 430.08L341.642 442.615L339.217 442.41L339.276 427.977H349.178L349.12 430.08H341.671Z" fill="#8DC0FF"/>
<path d="M216.997 447.261L214.748 447.378V440.863C211.506 442.791 208.322 442.119 206.861 439.139C203.677 432.711 208.03 426.166 210.512 426.751L214.923 427.803V421.725L217.26 421.638V427.832C218.925 427.277 220.619 426.722 221.7 426.838C225.352 427.247 227.572 433.5 225.293 438.73C223.862 442.061 220.561 442.966 217.202 440.98L216.968 447.232L216.997 447.261ZM214.836 437.999L214.748 430.461C214.748 429.439 212.119 428.416 211.184 428.708C210.366 428.942 208.818 430.257 208.672 431.075C207.737 435.896 208.526 439.782 211.798 440.162C212.674 440.278 214.865 438.964 214.865 437.999H214.836ZM222.577 438.964C224.242 435.458 224.242 432.448 222.401 429.497C221.7 428.358 217.698 428.767 217.523 430.14C217.056 433.295 217.056 436.013 217.611 439.022C217.874 440.366 221.963 440.278 222.577 438.964Z" fill="#8DC0FF"/>
<path d="M261.521 441.33C260.352 440.57 260.002 437.269 260.732 436.188C263.127 432.711 269.612 434.523 270.138 431.864C270.488 430.023 268.122 428.825 266.808 429.088C265.026 429.468 264.325 430.052 262.28 432.097L260.907 430.257C263.741 426.4 268.823 425.933 272.329 429.059L272.533 437.064C272.562 438.496 273.147 440.015 273.964 441.652C274.198 441.71 272.504 442.733 272.124 442.47L269.846 440.804C267.743 442.265 264.383 443.229 261.491 441.33H261.521ZM266.486 440.308C269.262 439.957 270.634 438.087 270.079 434.756L264.062 435.954C263.244 436.1 262.397 438.642 262.981 439.227C263.565 439.811 265.406 440.454 266.486 440.308Z" fill="#8DC0FF"/>
<path d="M241.566 441.184L239.317 442.031L238.937 430.519L232.131 441.855L229.064 441.68L229.21 427.13C229.911 427.13 231.547 427.597 231.547 428.123L231.722 438.525L238.031 428.152C238.47 427.451 240.427 427.188 241.537 427.247V441.184H241.566Z" fill="#8DC0FF"/>
<path d="M257.402 441.973L255.094 442.002V435.223L247.645 435.194L247.529 441.768L245.221 441.681L245.309 427.861L247.645 427.247L247.616 433.178H255.094L255.153 427.335L257.489 427.393L257.402 441.973Z" fill="#8DC0FF"/>
<path d="M286.322 429.729L280.889 429.671L279.837 439.576C279.749 440.365 278.435 441.767 277.763 442.118C277.091 442.468 274.988 442.03 274.579 441.329C274.229 440.744 276.799 439.634 277.442 439.225C278.172 436.274 278.347 431.599 278.406 427.509L288.688 427.655L288.6 442.03L286.263 442.088L286.322 429.671V429.729Z" fill="#8DC0FF"/>
<path d="M292.852 446.005L294.079 443.201L292.648 440.016C292.356 439.344 294.517 438.964 295.715 439.139C295.832 441.185 297.205 444.808 292.852 446.005Z" fill="#8DC0FF"/>
<path d="M295.07 238.181L284.379 237.831C284.028 238.064 283.386 239.788 283.386 240.314V242.155C283.444 242.593 282.013 242.769 281.721 242.418C279.588 239.642 281.721 236.691 283.123 234.617C284.992 231.783 284.788 226.991 284.963 223.339L295.42 223.427L295.508 235.318C298.02 237.159 298.342 240.899 296.063 242.798C295.274 242.564 295.011 241.308 295.07 238.181ZM293.025 235.902L293.084 225.501L287.504 225.413L285.839 235.786L292.996 235.902H293.025Z" fill="#8DC0FF"/>
<path d="M319.636 237.947C317.971 238.035 316.715 237.742 316.16 237.187L310.464 231.285L309.909 238.151H307.835L307.455 231.052L300.941 237.742L298.049 237.918L304.855 230.263L298.955 223.426C300.62 223.455 302.08 223.922 302.723 224.653L307.777 230.087L307.835 223.835L310.026 223.689L310.405 230L315.956 223.981C316.335 223.543 318.585 223.689 318.906 223.835L312.947 230.38L319.607 237.976L319.636 237.947Z" fill="#8DC0FF"/>
<path d="M350.757 238.677L350.348 227.545L346.463 237.421C346.317 237.801 345.236 238.677 344.944 238.531C344.506 238.297 343.688 237.538 343.483 237.041L339.686 227.487L339.423 238.239H337.028L337.203 223.747L340.708 224.039L345.032 235.463L349.442 224.098L352.948 223.806L353.035 237.07C352.977 237.304 351.925 238.034 350.728 238.648L350.757 238.677Z" fill="#8DC0FF"/>
<path d="M210.331 236.077L210.156 242.681L207.906 242.388L208.082 222.959L210.974 223.543C213.106 222.667 216.261 221.965 218.393 223.251C220.788 224.683 222.045 227.575 221.869 230.731C221.723 233.273 220.321 236.077 218.627 236.925C216.027 238.24 213.486 237.86 210.331 236.048V236.077ZM219.386 230.292C219.445 226.728 217.342 224.128 214.07 224.624C211.733 224.975 210.156 227.721 210.273 230.497C210.389 233.273 212.142 235.639 214.8 235.727C217.458 235.815 219.357 233.477 219.416 230.292H219.386Z" fill="#8DC0FF"/>
<path d="M252.214 236.837C251.162 236.048 250.841 232.892 251.571 231.87C254.142 228.247 260.217 230.233 260.977 227.662C261.473 225.968 259.166 224.507 257.851 224.741C254.697 225.325 255.281 226.581 252.068 227.691C251.571 227.867 252.068 225.705 252.389 225.237C254.463 222.432 259.955 221.527 263.08 224.682L263.314 232.366C263.343 233.681 263.986 235.639 264.745 237.012C265.096 237.246 263.46 238.706 263.051 238.327L260.743 236.165C259.02 237.888 255.368 239.291 252.184 236.837H252.214ZM261.152 230.642L255.982 231.256C254.901 231.373 253.499 233.184 253.616 234.09C253.733 234.996 255.748 236.281 256.654 236.106C258.114 235.843 259.808 235.288 260.305 234.558C260.802 233.827 261.006 232.191 261.152 230.642Z" fill="#8DC0FF"/>
<path d="M330.818 235.785L332.425 233.652C332.687 233.302 334.323 234.149 334.265 234.354C333.155 237.977 329.328 239.145 326.261 238.415C322.551 237.538 320.886 234.12 321.12 230.234C321.354 226.348 324.245 223.339 327.926 223.309C332.074 223.251 334.674 226.523 334.674 231.52L323.603 231.782C323.69 233.126 324.479 235.142 325.677 235.961C326.758 236.72 329.883 236.516 330.818 235.814V235.785ZM332.22 229.62C331.694 226.815 329.942 225.384 327.868 225.384C325.794 225.384 324.07 226.815 323.544 229.445L332.22 229.62Z" fill="#8DC0FF"/>
<path d="M233.52 234.909C234.835 233.36 236.383 232.63 237.143 233.214C236.208 237.597 231.885 238.502 228.701 237.626C224.728 236.545 223.443 232.483 224.085 228.539C224.728 224.595 228.087 222.199 231.826 222.666C235.565 223.134 237.639 226.669 237.376 230.993H226.335C226.539 232.483 227.298 234.47 228.233 235.142C229.489 236.019 232.615 235.96 233.491 234.909H233.52ZM234.922 228.919C234.718 225.705 232.352 224.478 229.781 224.799C228.321 224.975 226.802 226.786 226.364 228.861L234.922 228.919Z" fill="#8DC0FF"/>
<path d="M242.37 225.209V235.873C242.37 236.311 242.575 237.451 242.253 237.509L240.734 237.743C240.267 237.831 239.946 236.574 239.946 236.049L240.121 222.988L250.14 223.368V224.654L242.37 225.238V225.209Z" fill="#8DC0FF"/>
<path d="M267.748 241.775L269.121 238.619L267.573 236.107C267.164 235.435 268.945 234.558 270.494 234.646C271.107 236.983 271.574 240.489 267.748 241.775Z" fill="#8DC0FF"/>
<path d="M238.994 293.022C241.185 291.328 243.843 290.597 246.239 291.532C248.809 292.526 250.24 295.506 250.299 298.369C250.386 303.307 247.349 306.287 243.055 306.141C238.556 305.966 236.19 302.547 236.453 297.609C236.628 294.132 236.424 288.961 240.396 287.12L249.861 285.017C249.802 287.033 247.904 288.114 245.684 288.231C242.5 287.88 239.082 289.165 238.994 293.051V293.022ZM247.845 298.164C247.67 294.863 245.713 292.847 243.025 293.051C240.63 293.227 238.994 295.769 238.877 298.427C238.731 301.7 240.601 304.359 243.58 304.096C246.151 303.862 247.991 301.32 247.845 298.164Z" fill="#8DC0FF"/>
<path d="M271.87 304.622V311.488L269.387 311.4L269.562 291.211L272.571 292.234C274.761 291.153 277.77 290.539 280.165 291.883C284.343 294.22 284.459 302.986 280.37 305.323C277.537 306.93 274.732 306.404 271.899 304.651L271.87 304.622ZM280.867 298.311C280.691 294.483 278.471 292.964 275.813 293.139C273.447 293.285 271.694 295.564 271.753 298.545C271.753 300.122 272.688 302.635 273.768 303.512C274.849 304.388 277.712 304.33 278.793 303.599C279.961 302.81 280.954 300.005 280.867 298.311Z" fill="#8DC0FF"/>
<path d="M220.856 297.406C221.177 302.227 218.519 305.412 214.634 305.821C210.136 306.288 206.747 303.162 206.63 298.487C206.543 294.134 209.113 290.774 213.29 290.54C217.059 290.336 220.535 292.819 220.827 297.406H220.856ZM218.373 298.137C218.315 294.514 216.153 292.468 213.32 292.673C210.486 292.877 209.026 295.507 209.142 298.429C209.259 301.643 211.07 303.98 214.05 303.776C216.533 303.6 218.402 301.321 218.373 298.137Z" fill="#8DC0FF"/>
<path d="M266.579 298.428C266.579 303.015 263.658 306.229 259.451 306.229C255.245 306.229 252.265 302.986 252.295 298.428C252.324 293.87 255.333 290.831 259.451 290.831C263.57 290.831 266.579 294.016 266.579 298.428ZM264.037 298.165C263.862 294.746 261.788 292.643 258.663 293.052C256.472 293.344 254.865 295.827 254.807 298.428C254.719 301.554 256.618 304.125 259.334 304.125C262.343 304.125 264.213 301.554 264.037 298.165Z" fill="#8DC0FF"/>
<path d="M288.677 296.616C288.735 297.931 296.476 295.301 297.791 300.414C298.375 302.693 296.885 305.995 294.11 306.024L286.135 306.112L286.34 291.649C286.924 291.532 288.472 291.328 288.472 291.649L288.589 294.045L288.706 296.616H288.677ZM292.474 298.983C290.137 298.924 288.677 299.304 288.531 300.181C288.356 301.174 288.268 303.774 289.173 303.833L292.883 304.067C293.993 304.125 295.687 302.43 295.512 301.203C295.395 300.327 293.672 299.012 292.474 298.983Z" fill="#8DC0FF"/>
<path d="M229.628 305.001C229.628 305.556 227.35 305.585 227.35 305.03L227.292 293.226L222.238 292.934C222.238 292.934 222.413 291.123 222.413 290.947L234.799 291.035L235.003 293.139L229.658 293.197V305.001H229.628Z" fill="#8DC0FF"/>
<path d="M300.29 291.451L300.147 306.088L302.572 306.112L302.715 291.474L300.29 291.451Z" fill="#8DC0FF"/>
<path d="M20.4063 306.22C21.3703 308.149 24.233 309.843 26.4822 307.71C27.7091 306.571 28.4977 303.503 28.4101 301.692C26.044 303.152 23.9409 303.854 21.8669 303.24C19.1211 302.422 17.6313 300.026 17.5729 297.134C17.4853 293.803 19.4424 291.261 22.1298 290.53C25.1093 289.712 28.8191 290.589 29.9875 293.92C31.6233 298.565 31.5357 303.912 28.9943 308.382C28.0888 309.989 25.2261 310.807 23.4443 310.72C21.9545 310.661 18.8874 309.259 18.5661 307.798L18.0695 305.665C17.9526 305.168 20.2019 305.782 20.4356 306.22H20.4063ZM28.4685 296.841C28.4685 294.446 26.5114 292.488 24.1161 292.488C21.7208 292.488 19.7637 294.446 19.7637 296.841C19.7637 299.237 21.7208 301.195 24.1161 301.195C26.5114 301.195 28.4685 299.237 28.4685 296.841Z" fill="#8DC0FF"/>
<path d="M19.2328 271.189L23.001 274.403C23.8774 275.134 26.8861 274.111 27.3242 273.088C28.0253 271.54 28.6679 269.056 28.9893 267.449C26.8277 268.881 24.7245 269.758 22.3 269.261C19.8755 268.764 18.0644 266.281 17.8307 263.622C17.4802 259.619 19.9923 256.727 23.4976 256.259C27.0029 255.792 30.2161 257.72 30.888 261.752C31.998 268.53 30.6251 275.864 25.6592 276.536C22.5045 276.974 20.1092 275.922 18.2981 273.322L19.2036 271.189H19.2328ZM28.6972 262.833C28.6972 260.437 26.74 258.48 24.3447 258.48C21.9495 258.48 19.9923 260.437 19.9923 262.833C19.9923 265.229 21.9495 267.186 24.3447 267.186C26.74 267.186 28.6972 265.229 28.6972 262.833Z" fill="#8DC0FF"/>
<path d="M166.388 396.387C169.105 403.34 168.082 413.712 161.043 413.8C159.261 413.8 156.252 412.953 155.522 411.083C152.834 404.304 153.419 393.786 160.458 393.289C162.532 393.143 165.541 394.137 166.388 396.357V396.387ZM164.782 408.132L164.606 398.198C164.606 396.825 161.744 395.189 160.488 395.393C156.398 396.036 156.281 402.435 157.128 408.833C157.304 410.236 159.787 411.843 161.072 411.784C162.357 411.726 164.811 409.739 164.782 408.161V408.132Z" fill="#8DC0FF"/>
<path d="M167.319 329.244C169.247 336.666 168.195 345.489 161.827 345.723C159.491 345.811 156.54 344.847 155.693 342.363C154.174 337.98 154.233 333.013 155.781 328.66C156.686 326.118 159.491 325.125 161.857 325.212C163.96 325.3 166.647 326.673 167.319 329.274V329.244ZM165.245 340.142L165.187 330.559C165.187 328.835 162.645 327.141 161.097 327.287C156.745 327.637 156.862 334.036 157.533 340.493C157.709 342.188 160.25 343.795 161.798 343.678C162.996 343.59 165.245 341.603 165.245 340.142Z" fill="#8DC0FF"/>
<path d="M69.5054 293.834C71.9299 300.905 70.9952 310.751 64.2475 310.985C62.2319 311.043 59.2232 310.167 58.3761 308.005C55.6887 301.197 56.5943 290.679 63.6341 290.503C65.7957 290.445 68.6875 291.497 69.5054 293.834ZM67.6359 295.558C67.4607 294.126 64.9778 292.432 63.6633 292.548C59.3693 292.958 59.1064 299.648 60.1872 306.164C60.4209 307.625 62.9038 309.115 64.2183 308.969C68.3078 308.53 68.3662 301.986 67.6359 295.558Z" fill="#8DC0FF"/>
<path d="M68.576 410.09C67.7581 412.34 64.7786 413.129 62.8507 413.1C55.5772 412.983 54.8469 401.559 58.0017 395.277C59.8419 391.596 66.5896 391.596 68.3715 395.306C70.5039 399.747 70.3286 405.123 68.5468 410.061L68.576 410.09ZM67.1154 408.454L66.8817 397.527C66.8817 396.212 64.1359 394.576 62.9091 394.663C58.5859 395.014 58.5859 401.588 59.4038 408.074C59.5498 409.272 61.8283 411.171 62.9675 411.084C64.2528 410.996 65.7133 409.856 67.1446 408.454H67.1154Z" fill="#8DC0FF"/>
<path d="M69.8271 259.941C72.164 267.099 71.1416 276.8 64.3063 276.946C62.1447 276.975 59.2528 276.011 58.4349 273.586C56.9159 269.086 56.9451 264.148 58.581 259.62C59.3404 257.516 62.3784 256.377 64.2186 256.406C66.3218 256.464 69.0676 257.662 69.8271 259.912V259.941ZM67.7531 261.256C67.5195 259.853 64.9781 258.305 63.6928 258.48C59.691 259.006 59.1652 265.931 60.5089 272.329C60.7718 273.586 63.1963 274.959 64.3355 274.9C68.3958 274.725 68.8339 267.859 67.7531 261.227V261.256Z" fill="#8DC0FF"/>
<path d="M69.805 364.305C70.769 372.019 69.8926 378.943 63.6123 379.06C60.2531 379.118 57.4196 377.161 56.9815 373.275C56.6017 370.032 56.6601 366.058 57.4196 362.844C58.1791 359.63 61.4215 358.345 64.3134 358.637C66.9716 358.929 69.3668 360.916 69.805 364.276V364.305ZM67.176 373.772V363.75C67.2052 362.523 64.7515 360.682 63.5247 360.595C62.2978 360.507 59.9025 362.114 59.7273 363.399C58.6465 370.558 58.7925 377.161 63.5831 377.044C64.7515 377.044 67.176 375.233 67.176 373.772Z" fill="#8DC0FF"/>
<path d="M167.015 433.026C167.979 440.564 167.131 447.634 161.085 447.81C158.719 447.868 155.739 446.904 154.921 444.333C153.548 440.125 153.607 435.363 154.834 431.185C155.739 428.176 159.011 427.065 161.727 427.416C164.298 427.737 166.635 429.899 167.015 433.026ZM164.444 432.558C164.21 430.864 161.844 429.315 160.413 429.432C156.119 429.753 155.973 436.503 156.995 443.076C157.2 444.362 159.77 445.94 160.997 445.823C165.087 445.443 165.291 438.84 164.473 432.558H164.444Z" fill="#8DC0FF"/>
<path d="M69.4319 328.075C71.4183 334.678 70.8341 343.794 65.0503 344.846C61.8663 345.401 58.5071 344.262 57.6308 340.697C56.6084 336.548 56.6668 331.844 58.1274 327.637C58.8284 325.621 61.7787 324.511 63.6482 324.481C65.7222 324.481 68.7601 325.679 69.4612 328.075H69.4319ZM67.3288 329.39C67.1243 328.134 64.8166 326.556 63.6482 326.556C62.4798 326.556 60.1721 328.192 59.9968 329.448C59.0037 336.256 59.2082 343.005 63.6482 343.064C68.0882 343.122 68.4388 336.285 67.358 329.419L67.3288 329.39Z" fill="#8DC0FF"/>
<path d="M69.2456 441.381C68.7782 445.208 66.0616 447.107 62.8484 447.107C59.6352 447.107 56.4805 445.179 56.4805 441.381V432.615C56.4805 429.46 59.0218 427.123 61.5339 426.801C64.5134 426.392 67.9895 427.152 68.8659 430.687C69.6545 433.901 69.6545 438.05 69.2456 441.381ZM66.4998 431.388C66.2953 430.249 63.9876 428.671 62.8484 428.7C58.496 428.759 58.3207 435.333 59.1094 442.024C59.2847 443.397 61.5632 445.121 62.8192 445.15C67.1716 445.208 67.7558 438.313 66.4998 431.388Z" fill="#8DC0FF"/>
<path d="M167.136 363.662C168.83 371.141 167.954 379.468 161.761 379.76C159.921 379.848 156.708 379.118 155.86 377.248C153.085 371.141 153.786 360.331 159.599 359.396C162.9 358.841 166.318 360.039 167.136 363.662ZM164.653 363.691C164.419 362.493 161.703 361.061 160.505 361.324C155.481 362.347 155.393 377.657 161.089 377.744C165.383 377.832 166.055 370.732 164.653 363.691Z" fill="#8DC0FF"/>
<path d="M30.6891 330.647C31.2149 338.039 30.8059 344.525 24.8177 344.73C22.8898 344.788 19.8811 344.174 18.9463 342.188C17.2521 338.623 17.3982 334.503 17.7487 330.676C18.0992 326.848 20.699 324.277 24.1751 324.277C27.6512 324.277 30.397 326.615 30.6891 330.676V330.647ZM28.2938 339.763L28.0017 329.186C27.9725 327.93 25.3727 326.235 24.1459 326.293C19.7642 326.41 19.5014 333.159 20.4945 339.85C20.699 341.136 23.0651 342.918 24.2043 342.743C25.5188 342.538 26.8625 341.34 28.2938 339.792V339.763Z" fill="#8DC0FF"/>
<path d="M47.7511 274.782C51.0227 274.724 52.3664 272.883 52.3664 270.721C52.3664 265.9 43.7492 267.419 47.9556 265.053C50.2632 264.848 51.5777 263.446 51.6361 261.751C51.6654 260.32 50.0588 258.567 48.4522 258.479C46.1737 258.362 44.6548 259.677 44.3334 261.985L41.8797 262.978C41.8797 261.43 42.4347 259.268 43.3695 258.245C44.5671 256.93 46.9916 256.258 48.9195 256.404C51.198 256.551 53.418 258.099 53.9146 259.94C54.4988 262.014 53.5056 264.118 51.899 265.871C54.4112 267.332 55.4043 269.903 54.6156 272.591C53.2427 277.12 46.7287 277.909 43.4571 275.571C42.2887 274.753 41.2663 271.977 41.3832 270.633C41.3832 270.312 43.4571 270.02 43.5447 270.341L43.9537 272.007C44.2166 273.146 46.2614 274.841 47.7511 274.811V274.782Z" fill="#8DC0FF"/>
<path d="M0.758947 412.221C1.08027 405.706 6.42585 404.975 10.749 400.797C11.6546 399.921 11.8591 397.233 11.2456 396.268C10.5446 395.158 8.38297 394.252 7.03927 394.34C4.11819 394.574 2.86213 401.878 1.83975 399.395C0.554471 396.181 3.38792 392.733 6.39664 392.295C9.08403 391.915 12.1804 392.908 13.378 395.187C17.3215 402.55 7.33138 404.303 3.15423 410.001L13.8162 410.322V412.397L0.729736 412.192L0.758947 412.221Z" fill="#8DC0FF"/>
<path d="M151.334 441.878C150.926 445.384 148.355 447.05 146.106 447.517C143.185 448.101 139.416 447.225 138.628 444.42L138.073 442.462C137.927 441.907 140.001 442.141 140.293 442.638C141.082 443.894 143.243 445.881 144.645 445.735C146.807 445.53 148.676 443.894 148.852 441.411C148.968 439.921 148.004 437.583 146.982 436.94C143.448 434.632 141.14 438.693 138.569 437.846L140.526 427.562L150.283 427.708L150.341 429.782L142.221 429.724L141.374 434.924C143.857 434.223 146.252 433.931 148.326 434.924C150.4 435.918 151.685 438.956 151.364 441.878H151.334Z" fill="#8DC0FF"/>
<path d="M145.688 377.512C147.733 377.366 149.544 375.087 149.427 373.392C149.018 368.6 142.796 370.383 143.526 368.922C144.52 366.906 148.784 368.133 148.668 364.481C148.609 362.786 147.178 361.238 144.987 361.179C143.556 361.15 141.715 362.786 141.394 363.896L140.897 365.591C140.751 366.058 138.882 365.036 138.911 364.451C139.086 361.91 142.27 358.024 146.301 359.192C148.142 359.718 150.216 360.829 150.829 362.494C151.676 364.744 150.683 366.993 148.872 368.279C151.209 370.09 152.523 372.662 151.676 375.408C150.917 377.862 148.083 379.557 145.162 379.586C141.073 379.586 138.122 377.19 138.327 373.071H140.722C141.014 375.671 142.154 377.745 145.688 377.482V377.512Z" fill="#8DC0FF"/>
<path d="M98.3852 412.982C98.9986 405.999 104.607 405.561 108.638 401.325C109.368 400.565 109.456 397.76 108.959 396.825C108.375 395.744 106.068 394.897 104.578 395.072C102.007 395.364 102.592 398.578 100.079 400.185C99.6704 400.448 99.0862 398.87 99.1447 398.403C99.6412 395.364 101.978 393.144 104.578 392.939C107.557 392.705 110.654 393.874 111.559 396.884C113.896 404.509 104.052 405.123 101.043 410.762L111.53 410.966V413.012L98.356 412.953L98.3852 412.982Z" fill="#8DC0FF"/>
<path d="M0.865723 378.213C1.3331 374.795 3.02732 372.633 5.80235 370.587L10.9142 366.877C11.9366 366.146 11.9366 362.991 11.3232 361.997C10.7098 361.004 8.60659 360.186 7.08763 360.303C4.07891 360.537 5.01366 364.598 2.55995 365.445C2.06337 365.62 1.42073 364.072 1.56678 363.517C2.32626 360.595 4.22497 358.754 6.53262 358.316C9.27844 357.79 12.55 358.784 13.7477 361.325C17.3406 368.922 7.14605 370.383 3.34864 376.022L14.0982 376.285V378.389L0.865723 378.184V378.213Z" fill="#8DC0FF"/>
<path d="M98.791 378.944C98.9079 371.669 105.889 371.347 109.073 366.848C110.446 364.89 109.132 361.939 107.437 361.296C105.071 360.391 102.705 361.676 101.975 364.189C101.8 364.803 101.157 365.708 100.748 366.088C100.339 366.468 99.2584 364.54 99.4044 363.897C99.901 361.589 102.384 359.193 104.633 358.93C107.496 358.608 110.563 359.719 111.673 362.465C114.506 369.477 105.509 371.026 101.216 376.519L111.585 377.132L111.673 379.061L98.791 378.944Z" fill="#8DC0FF"/>
<path d="M46.9961 410.907C50.0048 410.732 51.3777 408.862 51.4653 406.875C51.6406 402.58 44.9513 403.223 45.5063 402.288C45.7108 401.937 46.4703 401.236 46.9669 401.207C48.5151 401.09 50.8227 399.658 50.7059 398.022C50.5598 395.919 49.3037 394.633 46.7916 394.545C45.039 394.487 43.3155 396.824 43.1987 398.373C43.1111 398.899 41.0079 398.899 40.9202 398.431C41.0079 394.662 44.1918 391.74 48.3398 392.588C50.1216 392.968 52.3709 394.399 52.8675 395.889C53.6269 398.168 52.663 400.535 50.6767 401.791C53.4225 403.398 54.5325 405.911 53.5977 408.979C52.8967 411.287 50.3261 412.514 47.6095 413.011C43.4908 413.77 40.2776 409.709 40.3944 407.167C40.3944 406.846 41.9718 405.969 42.1179 406.262L43.0526 408.365C43.4908 409.388 45.4771 410.995 46.9961 410.907Z" fill="#8DC0FF"/>
<path d="M98.9033 344.934C99.2246 341.194 101.182 339.149 104.015 337.104L108.806 333.656C109.711 333.013 110.062 330.208 109.565 329.215C108.923 327.9 106.849 326.878 105.242 326.936C102.087 327.082 102.876 331.465 100.656 332.049C100.101 332.195 99.3707 330.53 99.546 329.945C100.481 326.761 102.701 325.095 105.388 324.832C107.929 324.599 111.143 325.972 111.99 328.514C114.473 335.964 105.359 336.987 101.386 342.48C106.235 342.976 108.777 342.597 113.187 344.116C107.959 345.197 104.629 344.934 98.9033 344.905V344.934Z" fill="#8DC0FF"/>
<path d="M0.637939 446.29C0.637939 442.579 2.71191 440.651 5.3993 438.664L10.5404 434.866C11.4752 434.194 11.4752 430.834 10.7741 429.899C10.073 428.964 8.05749 428.292 6.71379 428.409C3.88034 428.672 3.47139 433.317 3.2377 433.317H1.71874C0.316621 433.317 1.42663 427.065 6.33405 426.364C9.13829 425.955 12.2054 426.977 13.3446 429.548C16.7331 437.028 6.743 438.489 2.88717 444.099L12.4683 444.303C12.4683 444.303 13.0525 445.18 13.8996 446.378L0.637939 446.261V446.29Z" fill="#8DC0FF"/>
<path d="M1.42254 344.321C1.13044 337.338 7.67366 336.783 11.5003 332.458C12.2013 331.669 12.0845 328.719 11.5003 327.842C10.8576 326.849 8.72525 326.118 7.32313 326.293C4.25599 326.673 5.01547 330.939 3.23361 331.377C2.62019 331.523 1.71465 329.741 1.91913 329.011C2.70782 326.352 4.811 324.482 7.29392 324.161C9.77684 323.839 13.0777 324.92 14.1292 327.491C17.2548 335.088 7.35234 336.403 3.64257 341.896L14.1877 342.684V343.882L1.42254 344.321Z" fill="#8DC0FF"/>
<path d="M52.0151 308.121L51.7522 310.517C51.6938 311.013 49.6783 310.341 49.7075 309.874L49.7951 305.813L40.915 305.725C41.0027 304.848 41.4408 302.832 42.025 302.014L50.2917 290.503C50.6422 290.444 52.2488 291.116 52.2488 291.467L52.0736 303.475L54.6149 303.913C55.0239 303.972 54.8486 305.316 54.4689 305.462L52.5702 306.192C52.132 306.368 52.1028 307.624 52.0444 308.179L52.0151 308.121ZM49.9412 303.709L49.7075 294.009L43.1059 303.621L49.9412 303.709Z" fill="#8DC0FF"/>
<path d="M98.6379 447.166C97.8492 444.244 99.9816 441.673 102.523 439.832L108.19 435.713C109.241 434.924 109.329 431.739 108.599 430.716C107.869 429.694 105.59 428.846 104.1 429.139C102.844 429.402 101.325 431.943 101.267 433.346C101.238 434.047 98.9008 434.047 98.8716 433.229C98.8716 430.687 101.325 427.298 103.808 427.064C106.846 426.743 110.118 427.561 111.257 430.629C114.032 438.021 104.13 439.306 100.8 444.77L111.666 445.413V446.552L98.6672 447.166H98.6379Z" fill="#8DC0FF"/>
<path d="M51.7609 442.346C49.9499 443.31 52.6665 447.868 48.8983 446.611V442.2L39.3171 441.469L48.6938 427.416C48.8983 427.123 50.3004 426.714 51.1183 426.539L51.2059 439.599C52.4036 439.833 54.4191 440.973 53.8349 441.265L51.7609 442.346ZM48.9859 439.775L48.8107 430.162L42.0922 439.862L48.9859 439.775Z" fill="#8DC0FF"/>
<path d="M149.001 410.819V412.893C149.03 413.449 147.102 413.302 146.868 413.098L146.781 408.628L138.018 408.482C138.076 407.284 138.66 405.092 139.449 404.07L148.358 392.354C149.556 397.554 149.059 401.762 149.059 406.319L151.396 406.641C151.834 406.699 151.98 408.335 151.542 408.452L149.381 408.949C148.942 409.037 148.972 410.381 148.972 410.848L149.001 410.819ZM147.102 406.582L146.576 397.204L140.208 406.349L147.102 406.582Z" fill="#8DC0FF"/>
<path d="M51.7036 342.305V344.087C51.7328 344.496 50.6812 344.525 49.8049 344.554L49.3667 339.879C45.5985 339.792 43.6414 339.821 39.844 339.12L49.0162 325.68C49.5128 324.979 51.5575 324.394 51.762 324.774L51.8789 337.571L53.9528 337.951C54.3033 338.01 54.5662 339.354 54.2741 339.47L52.0833 340.289C51.6452 340.464 51.6452 341.837 51.6452 342.305H51.7036ZM49.6588 337.776L49.5128 328.105L42.8527 337.659L49.6588 337.776Z" fill="#8DC0FF"/>
<path d="M145.403 345.08L145.432 330.851L139.823 330.296L147.71 324.803L147.798 345.08H145.403Z" fill="#8DC0FF"/>
<path d="M121.546 379.236V364.744L116.901 364.51C116.434 364.51 116.463 362.757 116.784 362.816C122.13 362.786 121.254 358.491 123.941 358.901V377.863C123.883 378.155 122.831 378.768 121.546 379.236Z" fill="#8DC0FF"/>
<path d="M8.4414 310.136L8.61666 296.141L2.80371 295.265L10.8075 289.83L10.8951 310.078L8.4414 310.136Z" fill="#8DC0FF"/>
<path d="M23.2379 446.553L23.3547 432.236L18.3013 432.002L18.3597 430.483C21.6897 429.811 22.3908 428.905 25.604 426.013L25.6916 445.939L23.2671 446.582L23.2379 446.553Z" fill="#8DC0FF"/>
<path d="M23.5454 412.485V398.052L18.1414 397.935L19.1345 396.182C22.3185 395.744 22.8735 394.4 25.9114 391.595V411.959L23.5454 412.485Z" fill="#8DC0FF"/>
<path d="M23.7152 378.417L23.832 364.042H19.3628C19.0999 364.013 18.5157 363.253 18.4864 362.961C18.3404 361.646 21.4075 363.37 26.0813 357.585L26.2565 377.803L23.7152 378.417Z" fill="#8DC0FF"/>
<path d="M121.815 344.962L121.756 330.792L115.564 330.003L121.114 327.373C122.019 326.234 122.808 325.357 124.181 324.656V344.29L121.815 344.962Z" fill="#8DC0FF"/>
<path d="M121.012 446.962L121.041 432.792L115.404 432.295L123.466 426.539L123.408 446.991L121.012 446.962Z" fill="#8DC0FF"/>
<path d="M8.78248 276.302L8.72406 262.014L2.73584 260.933C6.9422 258.976 7.90615 259.356 9.89249 255.791L11.2362 257.369L11.0609 275.162C11.1193 275.454 10.3599 275.863 8.72406 276.302H8.78248Z" fill="#8DC0FF"/>
<path d="M47.4355 378.535V364.277L42.3529 364.014C41.4765 361.676 44.9526 363.459 49.7724 357.907L49.8308 377.746L47.4063 378.506L47.4355 378.535Z" fill="#8DC0FF"/>
<path d="M121.227 413.011L121.314 398.87L115.268 398.023C119.649 395.978 120.088 395.89 123.622 392.384L123.71 412.719L121.227 413.011Z" fill="#8DC0FF"/>
<path d="M80.8614 335.806L80.8523 338.085L89.0021 338.118L89.0112 335.839L80.8614 335.806Z" fill="#8DC0FF"/>
<path d="M81.6018 233.62L81.5833 235.928L89.7328 235.993L89.7513 233.685L81.6018 233.62Z" fill="#8DC0FF"/>
<path d="M80.5534 369.781L80.5327 372.06L88.6822 372.134L88.7029 369.855L80.5534 369.781Z" fill="#8DC0FF"/>
<path d="M89.2842 301.809H80.9883V304.029H89.2842V301.809Z" fill="#8DC0FF"/>
<path d="M80.1041 437.945L80.1008 440.253L88.2214 440.264L88.2246 437.956L80.1041 437.945Z" fill="#8DC0FF"/>
<path d="M88.5574 403.866H80.3491V406.116H88.5574V403.866Z" fill="#8DC0FF"/>
<path d="M80.5564 269.085C82.4843 267.274 87.5962 267.274 89.5533 268.384C90.0207 268.647 88.9107 270.254 88.3265 270.166L80.5564 269.085Z" fill="#8DC0FF"/>
<path d="M128.569 296.609C129.591 304.351 128.715 311.217 122.347 311.422C118.988 311.539 115.745 309.435 115.745 305.549V297.018C115.745 293.395 118.608 291.116 121.588 290.94C125.093 290.765 128.014 292.547 128.54 296.609H128.569ZM125.765 295.528C125.531 294.33 123.077 292.694 121.88 292.898C120.828 293.073 118.725 294.68 118.52 295.82C117.294 302.832 117.761 309.523 122.376 309.347C126.612 309.201 127.021 302.218 125.765 295.528Z" fill="#8DC0FF"/>
<path d="M167.391 294.886C169.611 302.307 168.56 311.51 161.812 311.686C159.884 311.744 156.759 310.692 156.028 308.559C154.451 304.06 154.509 299.122 155.97 294.594C156.729 292.227 159.68 291.117 161.812 291.175C163.944 291.233 166.719 292.548 167.391 294.886ZM165.463 306.193L165.522 296.756C165.522 295.178 163.302 293.279 161.87 293.25C160.702 293.25 158.248 294.564 158.015 295.821C156.642 302.92 157.08 309.757 161.812 309.67C163.039 309.67 165.434 307.595 165.434 306.193H165.463Z" fill="#8DC0FF"/>
<path d="M146.483 309.376C148.732 308.909 150.076 306.805 149.842 304.964C149.608 303.124 148.089 301.751 145.373 301.721C144.088 301.838 143.942 299.968 145.198 299.851C147.476 299.559 148.966 298.274 149.083 296.754C149.199 295.03 147.797 293.307 145.723 293.19C144.088 293.102 142.393 294.68 141.809 295.907L140.991 297.66C140.816 298.011 139.239 297.222 139.297 296.842C139.531 295.556 140.495 292.985 141.546 292.226C142.715 291.349 145.636 290.94 147.155 291.232C149.433 291.7 151.273 293.57 151.566 295.469C151.887 297.572 150.631 299.442 148.878 300.523C151.799 301.604 152.851 304.234 152.267 306.98C151.741 309.493 149.375 310.954 146.687 311.568C142.802 312.473 139.18 309.055 138.888 306.484C138.83 306.075 140.173 304.497 140.378 304.818L141.517 306.834C142.393 308.412 144.029 309.902 146.541 309.406L146.483 309.376Z" fill="#8DC0FF"/>
<path d="M99.3367 310.807C99.3951 303.737 106.464 303.181 109.502 298.886C110.963 296.812 109.707 294.007 107.808 293.218C105.588 292.312 103.368 293.627 102.433 296.052L101.703 297.951C101.527 298.361 99.7456 297.367 99.804 296.958C100.038 295.147 101.469 292.05 103.017 291.494C105.12 290.735 108.363 290.676 110.232 291.845C112.102 293.014 112.949 295.906 112.511 298.098C111.576 303.006 104.77 303.59 101.615 308.587L112.365 308.908L112.277 310.953L99.3951 310.778L99.3367 310.807Z" fill="#8DC0FF"/>
<path d="M19.4358 237.326C21.1592 238.64 22.9119 240.276 24.1679 240.569C25.424 240.861 28.1114 239.108 28.3159 237.822L28.9877 233.235C26.8553 235.076 25.015 235.894 22.1232 235.193C20.3997 234.784 18.3842 232.271 18.0921 230.138C17.5955 226.223 19.2605 223.535 22.5029 222.541C25.3072 221.694 29.1922 222.366 30.4483 225.785C32.0256 230.109 32.0549 235.719 29.718 239.809C27.498 243.695 21.7434 243.403 19.0853 240.014C18.6471 239.429 18.91 236.946 19.4358 237.326ZM23.204 233.118C27.5272 234.053 29.0753 230.664 28.5788 227.888C28.1406 225.317 25.6869 223.272 22.5905 224.733C21.4805 225.259 20.5166 227.713 20.4582 229.028C20.3997 230.255 21.7726 232.826 23.1748 233.118H23.204Z" fill="#8DC0FF"/>
<path d="M70.2157 239.08C69.5439 241.797 66.3891 242.937 64.3444 242.907C62.2996 242.878 59.2617 241.768 58.5314 239.343C57.3338 235.311 57.4214 230.753 58.3562 226.721C59.1156 223.478 62.3288 222.28 65.0746 222.455C71.2673 222.864 72.1729 231.279 70.2157 239.08ZM68.0834 227.451C67.9081 226.166 65.6004 224.325 64.4028 224.413C63.322 224.471 61.1312 225.903 60.8683 227.071C59.3493 233.616 59.9335 240.716 64.3444 240.891C68.7552 241.067 68.9597 234.259 68.0834 227.451Z" fill="#8DC0FF"/>
<path d="M54.9595 237.005C54.9595 241.008 51.4834 242.674 48.7084 242.761C45.32 242.878 42.136 240.804 42.1944 236.918L42.282 228.006C42.3112 224.208 45.5244 222.28 48.7376 222.309C51.9508 222.338 55.0179 224.267 55.0179 228.094V237.005H54.9595ZM52.3598 237.736V227.539C52.4182 226.195 50.0229 224.354 48.7376 224.325C44.2099 224.237 43.6841 231.133 44.9694 238.086C45.2031 239.372 47.5984 240.774 48.7376 240.804C49.8768 240.833 52.3598 239.021 52.3598 237.736Z" fill="#8DC0FF"/>
<path d="M8.89409 242.03L9.04015 227.772L4.27878 227.655C3.75299 227.655 3.98667 225.931 4.65852 225.902C6.61565 225.756 8.60198 224.12 11.231 221.402L11.4062 241.971L8.89409 242.03Z" fill="#8DC0FF"/>
<path d="M118.558 273.205C119.376 273.965 120.778 275.104 121.713 275.309C124.05 275.834 126.621 272.621 126.533 268.209C124.284 269.67 122.297 270.488 119.814 269.933C117.594 269.436 115.754 266.777 115.55 264.323C115.228 260.262 117.624 257.486 121.012 256.96C124.576 256.405 127.906 258.246 128.607 262.336C129.746 268.822 128.548 276.039 123.729 277.12C121.158 277.704 117.565 276.74 116.601 274.52L115.9 272.884C115.725 272.504 116.893 271.686 117.215 271.949L118.558 273.176V273.205ZM120.545 267.654C122.706 268.647 125.423 267.215 125.89 265.462C126.299 263.972 126.036 261.664 125.335 260.554C124.43 259.093 121.538 258.567 120.077 259.443C117.244 261.167 117.215 266.105 120.545 267.654Z" fill="#8DC0FF"/>
<path d="M168.268 271.363C168.268 275.337 165.318 277.353 162.485 277.586C159.184 277.879 156.204 276.213 155.562 272.356C154.977 268.85 155.036 264.614 155.971 261.137C156.818 258.128 159.943 257.017 162.397 257.193C165.347 257.397 168.21 259.501 168.239 262.948V271.334L168.268 271.363ZM165.669 272.064V262.16C165.669 260.874 163.069 259.179 161.813 259.179C160.557 259.179 158.045 260.962 158.045 262.306V272.415C158.015 273.847 160.557 275.57 161.842 275.57C163.273 275.57 165.669 273.817 165.669 272.035V272.064Z" fill="#8DC0FF"/>
<path d="M150.691 272.767C149.231 273.556 150.37 277.033 149.844 277.062L148.384 277.179C148.033 277.179 147.858 275.952 147.829 275.572L147.712 272.65L138.043 271.949L147.361 258.158C147.683 257.691 149.085 257.223 149.99 257.048L150.165 270.02C151.071 270.225 153.349 271.335 152.794 271.627L150.662 272.796L150.691 272.767ZM147.858 270.371V260.554L141.139 270.196L147.858 270.342V270.371Z" fill="#8DC0FF"/>
<path d="M106.404 276.828L106.52 262.686L100.503 261.751C104.797 259.735 105.264 259.619 108.77 256.171L108.857 276.536L106.374 276.857L106.404 276.828Z" fill="#8DC0FF"/>
<path d="M116.535 237.997C119.924 239.429 119.865 241.27 122.348 241.27C123.663 241.27 126.029 239.487 126.204 238.172L126.73 233.819C124.451 235.718 122.991 236.419 120.362 235.952C118.376 235.601 116.331 233.293 115.922 230.956C115.221 226.807 117.382 223.681 121.092 222.95C124.802 222.22 128.278 224.265 128.95 228.531C130.118 235.981 128.453 243.315 122.436 243.286C116.418 243.256 115.805 237.676 116.535 237.968V237.997ZM126.701 229.466C126.701 227.07 124.773 225.141 122.377 225.141C119.982 225.141 118.054 227.07 118.054 229.466C118.054 231.861 119.982 233.79 122.377 233.79C124.773 233.79 126.701 231.861 126.701 229.466Z" fill="#8DC0FF"/>
<path d="M168.073 239.137C167.138 242.848 164.071 243.754 161.121 243.52C158.667 243.345 156.126 241.124 155.746 238.027C154.899 231.161 155.366 224.12 160.42 223.272C163.516 222.746 166.788 223.506 167.898 226.778C169.095 230.372 169.095 235.164 168.102 239.108L168.073 239.137ZM165.765 227.947C165.561 226.691 163.166 225.025 161.968 225.142C160.887 225.259 158.696 226.808 158.492 227.918C157.294 234.433 157.645 241.329 161.822 241.562C166.466 241.825 166.875 235.105 165.765 227.918V227.947Z" fill="#8DC0FF"/>
<path d="M145.142 241.386C148.706 241.532 149.903 239.896 150.312 237.909C150.838 235.309 148.355 233.527 146.077 233.614C145.638 233.614 144.207 232.855 144.441 232.592C144.674 232.329 145.376 231.832 145.755 231.715L148.881 230.576C149.582 230.313 149.582 228.18 149.319 227.099C149.027 225.872 146.252 224.732 144.996 225.2C143.477 225.784 142.542 227.391 141.87 229.378H139.504C140.001 227.625 140.673 225.58 141.549 224.674C144.149 221.957 150.517 222.775 151.773 226.281C152.445 228.121 151.364 230.868 150.254 232.358C152.006 234.169 153.379 236.507 152.591 239.341C152.006 241.445 149.407 243.373 146.427 243.461C144.733 243.519 142.396 242.847 141.169 241.883C139.884 240.831 139.154 238.406 139.417 236.682C142.542 236.215 141.549 241.269 145.113 241.386H145.142Z" fill="#8DC0FF"/>
<path d="M106.682 241.269L106.828 228.589L100.752 227.888L105.951 225.141L109.106 222.453V242.905L106.857 242.818C106.536 242.818 106.682 241.737 106.682 241.298V241.269Z" fill="#8DC0FF"/>
<path d="M153.606 521H151.59L151.327 514.689C147.997 516.646 144.58 515.74 143.294 512.41C141.25 507.18 143.236 501.219 146.654 500.606C147.793 500.401 149.896 500.956 151.503 501.541L151.619 495.317H153.869L153.956 501.599C155.534 501.044 157.316 500.46 158.426 500.606C162.048 501.073 164.238 507.326 161.931 512.585C160.529 515.799 156.994 516.734 153.986 514.747L153.606 521ZM151.327 512.205L151.415 504.346C151.415 503.294 148.786 502.154 147.822 502.476C144.93 503.411 144.492 507.092 145.339 511.299C145.544 512.264 146.975 513.549 147.793 513.87C148.611 514.192 151.327 513.228 151.327 512.234V512.205ZM160.178 505.31C160.032 504.287 158.338 502.68 157.345 502.476C156.498 502.3 154.161 503.294 154.044 504.17C153.723 506.303 153.752 510.686 154.132 512.643C154.278 513.374 156.556 514.075 157.286 513.9C160.149 513.286 160.762 509.605 160.178 505.281V505.31Z" fill="#8DC0FF"/>
<path d="M52.18 512.06C51.4205 514.28 48.3826 515.128 46.5131 515.099C44.5268 515.099 41.6641 513.842 40.9338 511.534C38.597 504.113 39.8238 494.588 46.5131 494.588C48.441 494.588 51.5374 495.727 52.2676 497.802C53.845 502.36 53.8742 507.181 52.18 512.06ZM50.4274 499.613C50.2521 498.298 47.7692 496.662 46.4839 496.692C45.1986 496.721 42.8618 498.62 42.8618 499.993L42.8033 509.723C42.8033 511.271 45.1402 513.053 46.4839 513.112C51.0116 513.287 51.3329 506.596 50.4274 499.613Z" fill="#8DC0FF"/>
<path d="M67.9802 497.743C70.58 505.018 69.47 515.069 62.8683 515.244C60.7359 515.302 57.6688 514.25 56.8509 512.001C55.1566 507.18 55.1566 501.979 57.3182 497.246C58.0777 495.58 61.1741 494.675 62.8975 494.733C64.4457 494.792 67.3668 495.989 68.0094 497.743H67.9802ZM66.1107 499.554C65.9062 498.298 63.4525 496.691 62.2257 496.808C61.1449 496.895 58.9541 498.502 58.7788 499.612C57.6688 506.157 57.844 512.936 62.1088 513.228C66.6949 513.549 67.2791 506.595 66.1107 499.554Z" fill="#8DC0FF"/>
<path d="M0 514.455C0.496584 507.618 5.90058 507.005 10.1362 502.885C10.9541 502.067 11.0125 499.35 10.4283 498.386C9.84404 497.421 7.53639 496.311 6.36796 496.486C5.19953 496.662 3.62214 498.532 3.21319 499.671L2.62897 501.366C2.51213 501.716 1.05159 501.775 0.963957 501.424C0.204476 497.918 2.39529 494.996 5.78374 494.5C8.35429 494.12 11.4214 494.967 12.6191 497.217C14.7515 501.249 12.3562 504.96 8.76325 506.888C6.33875 508.173 4.73215 509.255 2.45371 512.059L13.028 512.644L12.9112 514.572L0 514.484V514.455Z" fill="#8DC0FF"/>
<path d="M15.678 514.486C16.1161 510.775 18.2777 508.671 21.1696 506.539L25.8433 503.062C26.7781 502.36 26.8073 499.293 26.1647 498.328C25.522 497.364 23.3896 496.488 22.0167 496.605C19.1541 496.838 18.5698 501.455 18.5698 501.455H16.379C16.233 498.475 17.9564 495.582 20.8191 494.793C23.857 493.946 27.6836 494.968 28.7936 498.27C31.3058 505.662 21.8707 506.714 18.2193 512.265L29.1734 512.703L27.9465 514.749L15.678 514.486Z" fill="#8DC0FF"/>
<path d="M128.558 514.776C127.389 514.104 126.776 511.095 127.301 509.809C128.733 506.391 133.903 507.764 136.941 505.748C137.759 503.469 135.247 502.096 133.523 502.388C132.355 502.593 130.661 503.82 129.784 504.755C129.463 505.047 127.769 505.573 127.827 505.134C127.886 504.696 128.149 502.943 128.47 502.563C130.223 500.343 136.182 499.028 138.957 502.213L139.395 512.059L141.118 515.77C139.073 515.653 138.022 515.244 136.62 514.046C134.692 515.39 131.683 516.5 128.558 514.776ZM132.676 513.637C134.517 513.432 136.561 512.497 136.649 511.475L136.883 507.998L131.508 509.02C130.632 509.196 129.522 510.949 129.58 511.767C129.638 512.585 131.595 513.754 132.676 513.637Z" fill="#8DC0FF"/>
<path d="M189.204 511.358L191.366 511.446C190.314 515.478 186.634 516.676 182.953 515.77C179.594 514.952 177.812 511.3 178.221 507.385C178.63 503.47 181.551 500.49 185.64 500.752C189.379 500.986 192.008 504.785 191.599 509.138H180.558C180.821 511.329 182.018 513.199 183.537 513.725C185.845 514.485 188.036 513.579 189.204 511.358ZM189.233 506.976C188.941 504.522 187.159 502.827 184.91 502.798C182.807 502.769 181.084 504.58 180.675 506.976H189.233Z" fill="#8DC0FF"/>
<path d="M210.409 515.449C209.27 514.923 208.686 511.767 209.153 510.54C210.76 506.479 218.296 508.436 218.822 505.69C219.172 503.849 216.748 502.651 215.375 502.885C212.921 503.294 208.598 508.232 209.62 505.223C209.766 504.755 210.263 503.353 210.701 502.856C212.483 500.811 218.062 499.817 221.013 502.797L221.305 511.68C221.334 512.585 221.947 514.105 222.502 515.682C222.473 516.617 219.377 515.741 218.559 514.835C216.339 515.828 213.564 516.997 210.409 515.478V515.449ZM213.914 514.251C215.784 514.134 217.77 513.549 218.208 512.615C218.617 511.709 218.822 509.751 218.88 508.699L213.651 509.517C212.804 509.664 211.461 511.037 211.344 511.855C211.227 512.673 212.98 514.309 213.914 514.251Z" fill="#8DC0FF"/>
<path d="M107.552 506.157C108.049 506.596 111.934 501.395 115.673 504.112C117.834 505.69 117.893 509.313 116.578 510.891C114.592 513.316 111.087 512.877 109.275 510.92C108.896 510.511 107.873 509.488 107.523 509.78L105.945 511.066C103.959 512.673 100.746 513.111 98.964 511.124C97.4743 509.43 97.4743 505.982 99.4314 504.2C101.155 502.651 104.193 503.236 106.15 504.93L107.552 506.128V506.157ZM106.53 508.144C104.981 506.771 103.433 505.719 101.856 505.427C100.804 505.252 99.5482 507.706 99.8403 508.612C100.103 509.4 101.797 510.861 102.528 510.452L106.559 508.144H106.53ZM111.233 509.897C112.021 510.569 114.329 510.569 114.855 509.722C115.439 508.787 115.468 506.274 114.533 505.865C111.7 504.58 108.866 507.852 109.217 508.173L111.233 509.926V509.897Z" fill="#8DC0FF"/>
<path d="M250.474 515.888L248.195 515.946L248.049 504.639L241.506 515.391C241.068 515.946 238.76 516.092 238.088 515.83L238.205 502.214C238.205 501.834 240.279 501.601 240.454 501.776L240.659 512.908L247.173 502.185C247.552 501.542 250.24 501.484 250.532 501.776L250.474 515.859V515.888Z" fill="#8DC0FF"/>
<path d="M203.798 503.294L196.642 503.353L196.554 515.361C196.408 515.77 194.276 515.682 194.159 515.244L194.246 501.22L206.252 501.278L206.106 515.828H203.711L203.798 503.323V503.294Z" fill="#8DC0FF"/>
<path d="M171.915 502.886L171.623 515.566L169.403 515.449V502.856C166.832 503.265 164.788 504.084 163.648 501.045H177.64C176.881 504.317 174.369 503.119 171.886 502.915L171.915 502.886Z" fill="#8DC0FF"/>
<path d="M230.918 515.624L228.552 515.975V503.616L223.82 503.382C223.294 503.382 223.44 501.278 224.17 501.278L235.767 501.687L235.913 503.177L230.947 503.703V515.595L230.918 515.624Z" fill="#8DC0FF"/>
<path d="M87.7999 506.011H79.6208V508.29H87.7999V506.011Z" fill="#8DC0FF"/>
<path d="M36.462 236.187C37.045 236.118 37.6818 236.698 37.6231 237.264C37.5775 237.699 37.2687 238.099 36.8669 238.21C36.5136 238.308 36.1958 238.228 35.9174 237.977C35.6005 237.691 35.4952 237.197 35.6714 236.8C35.8232 236.459 36.0915 236.273 36.462 236.186V236.187Z" fill="#8DC0FF"/>
<path d="M37.6286 230.165C37.6974 230.617 37.2773 231.14 36.7418 231.268C36.2903 231.377 35.7001 230.961 35.5928 230.46C35.4825 229.943 35.8287 229.378 36.3227 229.269C36.9665 229.126 37.5294 229.513 37.6286 230.165Z" fill="#8DC0FF"/>
<path d="M36.462 272.785C37.045 272.716 37.6818 273.295 37.6231 273.861C37.5775 274.297 37.2687 274.697 36.8669 274.808C36.5136 274.906 36.1958 274.826 35.9174 274.575C35.6005 274.288 35.4952 273.794 35.6714 273.397C35.8232 273.056 36.0915 272.871 36.462 272.784V272.785Z" fill="#8DC0FF"/>
<path d="M37.6286 266.763C37.6974 267.215 37.2773 267.738 36.7418 267.866C36.2903 267.974 35.7001 267.558 35.5928 267.057C35.4825 266.541 35.8287 265.976 36.3227 265.866C36.9665 265.724 37.5294 266.11 37.6286 266.763Z" fill="#8DC0FF"/>
<path d="M36.462 305.824C37.045 305.755 37.6818 306.334 37.6231 306.9C37.5775 307.336 37.2687 307.736 36.8669 307.847C36.5136 307.945 36.1958 307.865 35.9174 307.614C35.6005 307.328 35.4952 306.833 35.6714 306.437C35.8232 306.095 36.0915 305.91 36.462 305.823V305.824Z" fill="#8DC0FF"/>
<path d="M37.6286 299.802C37.6974 300.254 37.2773 300.777 36.7418 300.905C36.2903 301.014 35.7001 300.597 35.5928 300.096C35.4825 299.58 35.8287 299.015 36.3227 298.906C36.9665 298.763 37.5294 299.15 37.6286 299.802Z" fill="#8DC0FF"/>
<path d="M36.462 340.895C37.045 340.826 37.6818 341.406 37.6231 341.972C37.5775 342.407 37.2687 342.807 36.8669 342.918C36.5136 343.016 36.1958 342.936 35.9174 342.685C35.6005 342.399 35.4952 341.905 35.6714 341.508C35.8232 341.167 36.0915 340.981 36.462 340.894V340.895Z" fill="#8DC0FF"/>
<path d="M37.6286 334.873C37.6974 335.325 37.2773 335.848 36.7418 335.977C36.2903 336.085 35.7001 335.669 35.5928 335.168C35.4825 334.651 35.8287 334.086 36.3227 333.977C36.9665 333.834 37.5294 334.221 37.6286 334.873Z" fill="#8DC0FF"/>
<path d="M36.462 372.41C37.045 372.341 37.6818 372.92 37.6231 373.486C37.5775 373.922 37.2687 374.322 36.8669 374.433C36.5136 374.531 36.1958 374.451 35.9174 374.2C35.6005 373.913 35.4952 373.419 35.6714 373.022C35.8232 372.681 36.0915 372.496 36.462 372.409V372.41Z" fill="#8DC0FF"/>
<path d="M37.6286 366.388C37.6974 366.84 37.2773 367.363 36.7418 367.491C36.2903 367.599 35.7001 367.183 35.5928 366.682C35.4825 366.166 35.8287 365.601 36.3227 365.491C36.9665 365.349 37.5294 365.735 37.6286 366.388Z" fill="#8DC0FF"/>
<path d="M33.921 403.924C34.504 403.855 35.1408 404.434 35.082 405C35.0365 405.435 34.7277 405.835 34.3259 405.947C33.9726 406.045 33.6547 405.965 33.3764 405.714C33.0595 405.427 32.9542 404.933 33.1304 404.536C33.2822 404.195 33.5505 404.01 33.921 403.923V403.924Z" fill="#8DC0FF"/>
<path d="M35.0878 397.902C35.1566 398.355 34.7365 398.877 34.201 399.006C33.7495 399.114 33.1594 398.698 33.0521 398.197C32.9417 397.68 33.2879 397.115 33.7819 397.006C34.4257 396.863 34.9886 397.25 35.0878 397.902Z" fill="#8DC0FF"/>
<path d="M31.3799 441.538C31.963 441.469 32.5997 442.048 32.541 442.614C32.4955 443.049 32.1867 443.449 31.7848 443.561C31.4316 443.659 31.1137 443.579 30.8353 443.328C30.5185 443.041 30.4132 442.547 30.5893 442.15C30.7412 441.809 31.0094 441.624 31.3799 441.537V441.538Z" fill="#8DC0FF"/>
<path d="M32.5468 435.515C32.6156 435.968 32.1955 436.49 31.66 436.619C31.2085 436.727 30.6184 436.311 30.5111 435.81C30.4007 435.294 30.7469 434.729 31.2409 434.619C31.8847 434.477 32.4476 434.863 32.5468 435.515Z" fill="#8DC0FF"/>
<path d="M133.523 236.187C134.106 236.118 134.743 236.698 134.684 237.264C134.639 237.699 134.33 238.099 133.928 238.21C133.575 238.308 133.257 238.228 132.979 237.977C132.662 237.691 132.557 237.197 132.733 236.8C132.884 236.459 133.153 236.273 133.523 236.186V236.187Z" fill="#8DC0FF"/>
<path d="M134.69 230.165C134.759 230.617 134.339 231.14 133.803 231.268C133.352 231.377 132.762 230.961 132.654 230.46C132.544 229.943 132.89 229.378 133.384 229.269C134.028 229.126 134.591 229.513 134.69 230.165Z" fill="#8DC0FF"/>
<path d="M133.523 272.785C134.106 272.716 134.743 273.295 134.684 273.861C134.639 274.297 134.33 274.697 133.928 274.808C133.575 274.906 133.257 274.826 132.979 274.575C132.662 274.288 132.557 273.794 132.733 273.397C132.884 273.056 133.153 272.871 133.523 272.784V272.785Z" fill="#8DC0FF"/>
<path d="M134.69 266.763C134.759 267.215 134.339 267.738 133.803 267.866C133.352 267.974 132.762 267.558 132.654 267.057C132.544 266.541 132.89 265.976 133.384 265.866C134.028 265.724 134.591 266.11 134.69 266.763Z" fill="#8DC0FF"/>
<path d="M133.523 305.824C134.106 305.755 134.743 306.334 134.684 306.9C134.639 307.336 134.33 307.736 133.928 307.847C133.575 307.945 133.257 307.865 132.979 307.614C132.662 307.328 132.557 306.833 132.733 306.437C132.884 306.095 133.153 305.91 133.523 305.823V305.824Z" fill="#8DC0FF"/>
<path d="M134.69 299.802C134.759 300.254 134.339 300.777 133.803 300.905C133.352 301.014 132.762 300.597 132.654 300.096C132.544 299.58 132.89 299.015 133.384 298.906C134.028 298.763 134.591 299.15 134.69 299.802Z" fill="#8DC0FF"/>
<path d="M132.507 340.895C133.09 340.826 133.727 341.406 133.668 341.972C133.623 342.407 133.314 342.807 132.912 342.918C132.559 343.016 132.241 342.936 131.963 342.685C131.646 342.399 131.54 341.905 131.717 341.508C131.868 341.167 132.137 340.981 132.507 340.894V340.895Z" fill="#8DC0FF"/>
<path d="M133.674 334.873C133.743 335.325 133.323 335.848 132.787 335.977C132.336 336.085 131.746 335.669 131.638 335.168C131.528 334.651 131.874 334.086 132.368 333.977C133.012 333.834 133.575 334.221 133.674 334.873Z" fill="#8DC0FF"/>
<path d="M130.474 372.41C131.057 372.341 131.694 372.92 131.635 373.486C131.59 373.922 131.281 374.322 130.879 374.433C130.526 374.531 130.208 374.451 129.93 374.2C129.613 373.913 129.507 373.419 129.684 373.022C129.835 372.681 130.104 372.496 130.474 372.409V372.41Z" fill="#8DC0FF"/>
<path d="M131.641 366.388C131.71 366.84 131.289 367.363 130.754 367.491C130.303 367.599 129.712 367.183 129.605 366.682C129.495 366.166 129.841 365.601 130.335 365.491C130.979 365.349 131.542 365.735 131.641 366.388Z" fill="#8DC0FF"/>
<path d="M131.491 406.467C132.074 406.398 132.71 406.977 132.652 407.543C132.606 407.978 132.297 408.378 131.895 408.49C131.542 408.588 131.224 408.508 130.946 408.257C130.629 407.97 130.524 407.476 130.7 407.079C130.852 406.738 131.12 406.553 131.491 406.466V406.467Z" fill="#8DC0FF"/>
<path d="M132.658 400.444C132.726 400.897 132.306 401.419 131.771 401.548C131.319 401.656 130.729 401.24 130.622 400.739C130.512 400.222 130.858 399.657 131.352 399.548C131.996 399.405 132.558 399.792 132.658 400.444Z" fill="#8DC0FF"/>
<path d="M132.509 441.03C133.092 440.961 133.729 441.54 133.67 442.106C133.624 442.542 133.316 442.942 132.914 443.053C132.56 443.151 132.243 443.071 131.964 442.82C131.647 442.534 131.542 442.039 131.718 441.643C131.87 441.301 132.138 441.116 132.509 441.029V441.03Z" fill="#8DC0FF"/>
<path d="M133.165 435.008C133.234 435.46 132.814 435.983 132.279 436.111C131.827 436.22 131.237 435.803 131.13 435.302C131.019 434.786 131.366 434.221 131.86 434.112C132.503 433.969 133.066 434.356 133.165 435.008Z" fill="#8DC0FF"/>
<path d="M34.9373 512.19C35.5204 512.121 36.1571 512.7 36.0984 513.266C36.0529 513.702 35.7441 514.102 35.3422 514.213C34.9889 514.311 34.6711 514.231 34.3927 513.98C34.0759 513.694 33.9706 513.2 34.1467 512.803C34.2986 512.462 34.5668 512.276 34.9373 512.189V512.19Z" fill="#8DC0FF"/>
<path d="M36.1041 506.169C36.173 506.621 35.7529 507.144 35.2174 507.272C34.7659 507.381 34.1757 506.965 34.0684 506.463C33.9581 505.947 34.3043 505.382 34.7983 505.273C35.4421 505.13 36.0049 505.517 36.1041 506.169Z" fill="#8DC0FF"/>
<path d="M362.766 103.275L355.105 93.4639L351.677 89.7574C350.072 89.4487 348.697 88.7857 347.428 87.8853C347.23 87.5469 347.19 87.2461 347.303 87.0106C347.627 86.3338 348.552 86.9156 348.858 86.4367C348.979 86.2468 348.594 86.0667 348.51 85.938C347.117 83.7592 345.381 82.095 343.688 80.1873L340.952 77.1041C340.601 76.7083 340.293 75.7129 340.609 75.3686C341.183 74.7709 341.717 75.7565 342.136 75.9326C342.997 76.2927 343.895 76.6707 344.623 77.4049L350.821 83.6425C352.49 84.2757 353.934 85.1385 355.28 86.2705C356.133 86.4169 356.479 87.3629 357.1 87.7112L360.316 89.514L363.052 90.5054L370.018 92.7376C371.028 93.0622 371.846 93.0938 372.877 93.1374L376.809 93.3036L376.964 89.0212L377.101 85.0673L377.282 81.343L377.871 73.4629L378.125 70.3896C378.215 69.323 378.133 68.4562 378.465 67.4074C378.699 66.6653 378.501 65.6362 379.144 65.0386C379.787 64.441 380.091 63.5861 379.529 62.749C377.98 64.2589 378.364 65.8737 377.506 67.2293C377.502 66.6059 377.46 66.2477 377.159 65.6402L369.827 71.9134C368.217 73.2907 366.45 74.3534 364.57 75.3231C361.765 76.7677 357.96 77.0249 357.974 75.9049L358.13 63.8948L360.068 51.95C360.521 49.1636 361.217 46.5653 362.182 43.9313C362.788 42.277 363.798 40.6483 365.361 39.7578C367.699 38.424 370.403 38.0915 373.041 38.2202L375.771 38.3528C377.401 38.4319 379.185 38.5388 380.565 39.5183C381.248 40.0032 381.361 41.2123 381.496 41.9544L381.828 43.7651C382.016 44.7922 381.758 45.9281 382.427 46.8978L384.873 36.0889C385.012 36.8923 385.06 37.6562 384.911 38.426L383.972 43.2427L383.162 51.3167L383.464 53.262L382.584 61.055C382.417 62.5254 383.829 63.3901 382.93 65.3691C382.272 66.8176 381.514 68.4265 381.472 70.0512C381.407 72.4813 381.403 74.7591 380.591 77.1239C380.315 77.9254 380.234 79.2394 380.204 80.0507C381.746 82.0435 380.47 83.9532 380.835 85.0178C381.302 86.3734 381.131 87.5944 381.127 89.0034V90.4678L380.835 93.551C380.801 93.9151 380.95 94.3069 381.135 94.491C381.32 94.675 381.701 94.7819 382.054 94.8115L388.802 95.3795C390.144 95.4923 391.329 95.5635 392.653 95.429L396.626 95.0253C399.186 94.766 401.535 94.3881 404.024 93.64C408.219 92.3755 412.352 91.196 416.704 90.7429C415.86 91.4454 414.975 91.9936 414.052 92.2983L406.256 94.861L399.296 96.3947L393.787 96.8716L389.33 96.8775L385.316 96.6777C383.867 96.6045 382.35 96.3017 380.964 96.9508C381.067 99.5847 381.216 102.068 380.885 104.518C380.591 106.693 381.359 108.656 382.231 110.659L383.555 113.702L384.841 116.342C385.246 117.173 385.145 117.54 385.028 118.365C384.911 119.19 385.721 120.049 385.917 120.803C385.24 121.232 384.077 121.828 383.519 121.228L380.383 117.858C380.091 118.321 380.394 118.596 380.442 118.992L377.627 117.769L374.226 114.09L369.311 108.929C368.475 108.053 368.168 107.025 367.06 106.313C366.701 106.084 366.498 105.478 365.902 105.345C364.664 105.072 363.606 104.344 362.762 103.266L362.766 103.275ZM374.498 66.7602L377.822 63.5089C381.05 59.4224 380.5 57.7324 380.351 53.1908L380.077 44.907L379.551 41.62C379.209 39.4807 375.402 39.4966 372.607 39.2809C371.024 39.1582 369.516 39.5381 367.995 40.021C365.551 40.7948 364.195 42.9043 363.365 45.2513C362.019 49.0528 361.384 52.8385 360.57 56.8023C359.5 62.0108 358.76 67.0729 359.008 72.4061C359.056 73.4213 358.633 74.3672 359.127 75.5051C360.979 75.3508 363.002 75.1133 364.602 74.1852L366.98 72.8059L374.496 66.7602H374.498ZM372.428 103.911L377.474 108.248L376.841 102.694C376.575 100.368 375.831 98.2133 376.176 95.7951L373.073 95.3518C371.048 95.3419 369.281 94.8293 367.407 94.206L363.5 92.9078C362.548 92.5912 361.859 92.2607 361.021 91.5938L358.704 91.0714C357.908 90.2125 356.802 89.5694 355.508 90.0582L360.443 94.9461L363.909 98.1243C364.515 98.6804 364.973 99.2424 365.557 99.7925L367.27 101.409C367.834 100.665 367.856 101.886 369.762 102.603C369.917 102.66 370.139 103.103 370.236 103.038L370.661 102.749C371.352 102.741 371.936 103.489 372.428 103.911Z" fill="#8DC0FF"/>
<path d="M58.2558 118.208C59.1485 123.176 60.1721 127.783 60.7117 132.673L61.6024 140.748L61.5647 141.581C61.5587 141.722 60.3586 142.523 59.5571 142.274C58.8807 142.063 58.9045 141.324 58.843 140.748L57.8452 131.368L56.9624 125.944L52.9394 103.633L51.3703 87.8026L50.9815 71.1274L50.916 64.2305L50.8367 46.6087L44.2626 46.2281C38.8808 45.9173 33.7906 44.7934 28.4584 43.9823C22.9853 43.1493 17.7106 42.4758 12.3367 41.2224L4.39979 39.3711C3.75508 39.2217 2.84852 38.8191 3.08855 37.9802C3.23138 37.478 4.18952 37.6872 4.62197 37.7909L13.8363 40.0048L20.1406 41.2184L37.5894 43.9026C42.0607 44.5901 46.3932 45.0385 50.916 45.0803L51.1343 23.9732L51.5052 12.3057C51.6342 8.25649 51.9377 4.33278 51.8504 0.389154C52.136 -0.23258 53.0148 0.026476 53.3838 0.239699C53.7528 0.452922 54.2229 0.309445 54.4491 0.518682C54.7764 0.823571 54.7863 1.17629 54.7922 1.67646C54.824 4.73532 54.7407 7.61084 54.6454 10.6757L54.0404 30.0351L53.9273 45.0783L58.4125 44.9249L66.2542 43.6356L73.5047 41.7265L87.6863 37.8945C92.6793 36.8084 97.6723 36.7786 102.651 38.0659C102.05 38.9885 101.035 38.9765 100.108 38.8929L95.7541 38.5043C91.2451 38.58 87.0832 39.7079 82.7627 40.8876L67.615 45.0225C64.7763 45.7977 61.9356 46.0348 59.0215 46.3975L53.9134 47.0332L53.9075 71.9205L54.0245 78.357L54.209 88.0119L54.9767 96.5428L55.7008 104.014L58.2538 118.208H58.2558Z" fill="#8DC0FF"/>
<path d="M282.392 52.2285C278.341 43.5638 274.981 35.048 271.555 25.8136C271.014 29.2814 271.48 32.8466 271.319 36.4037L271.456 40.8502L271.754 55.3033L271.874 60.3076L272.767 77.7441L274.207 93.8349L275.681 106.398C275.132 106.833 274.261 107.168 273.728 106.871C272.898 106.406 273.105 105.525 273.026 104.733L270.642 80.6681L269.753 62.9L269.381 47.6827L269.333 24.3823L269.492 18.1414C270.23 17.8734 270.777 18.1354 271.484 18.3558L273.298 24.7655C276.491 33.9145 279.776 42.9167 283.984 51.6647L285.396 54.2611C287.509 59.055 289.823 63.6206 292.499 68.1246C293.468 69.7544 294.301 71.1975 294.912 73.0039L295.956 76.0966L302.595 91.6354C302.735 91.963 302.997 92.2131 303.234 92.362C303.694 90.9168 303.765 89.6524 303.887 88.2728L304.28 83.7767L304.949 76.6524L304.456 72.1185L305.838 60.7205C305.6 57.8322 305.685 55.0849 305.944 52.2046C305.985 50.5848 306.292 49.0484 306.037 47.4425C305.709 45.5786 306.083 43.671 307.223 42.1365L308.858 31.2029C309.135 29.3549 309.199 27.6219 309.706 25.7858L310.732 22.0579C310.892 21.4822 311.307 21.2698 311.626 20.8569C312.467 19.7652 312.177 17.8476 313.251 17.79L313.146 19.9895C313.112 20.6783 313.438 21.0693 313.49 21.5457C313.711 23.5347 313.207 25.4344 312.911 27.3817L311.751 34.9904C311.584 36.0941 311.739 37.432 311.236 38.4305C310.746 39.3992 310.342 40.1455 310.339 41.3127C310.333 42.9881 309.811 44.5781 309.473 46.188L308.494 50.8528C308.192 52.29 307.929 53.6299 307.917 55.1226L307.893 57.735C307.885 58.5965 307.71 59.2297 307.671 60.123L307.41 65.9014L307.372 70.465C307.36 71.8287 306.825 72.5731 306.296 73.7205C305.725 74.9591 305.95 76.7675 305.91 78.1471L305.743 84.0089L304.955 91.4905L304.243 98.2913C304.657 99.8813 304.76 101.445 304.844 103.091C305.098 104.719 305.04 106.265 304.967 107.756C304.525 107.742 304.239 107.802 303.982 107.671C303.771 107.563 302.184 102.984 301.919 101.017C300.218 100.526 301.31 98.2774 300.299 96.1038L298.776 92.8245C298.022 91.2007 297.019 89.6028 296.931 87.7229C296.878 86.5637 296.977 85.5037 296.436 84.3801C295.939 83.3499 295.674 81.8055 294.92 80.9281C293.649 79.4513 292.534 78.1054 292.141 76.1581L291.588 73.4168L288.971 66.7172L286.403 62.0286L285.452 60.8495L282.792 56.5221C283.154 55.2497 282.223 53.9654 282.392 52.2344V52.2285Z" fill="#8DC0FF"/>
<path d="M200.169 92.3676L199.41 87.9638C199.201 86.7582 199.285 85.4733 199.269 84.2816L199.219 80.2347C199.191 78.004 199.04 75.8804 198.795 73.6517L198.179 68.0482C198.03 66.686 197.96 65.4646 197.406 64.1361C195.082 58.5723 196.495 55.5385 196.237 54.3905C195.577 51.4519 195.283 48.5411 195.271 45.547L195.251 40.8299C195.247 39.7611 195.177 38.7836 194.982 37.8219C194.43 38.6666 194.581 39.4538 194.471 40.3144L193.456 48.1981L192.726 55.0389C192.607 56.1532 192.221 57.0514 192.068 58.0984L190.843 66.4362C190.796 66.7554 190.65 66.9914 190.368 66.9933C190.181 66.9933 189.917 66.7633 189.798 66.5175L186.148 58.949L178.197 45.3309L173.897 38.4089L167.842 28.8992C166.448 26.7102 165.553 24.3902 163.794 22.2884L164.536 31.8001L165.267 42.2218C166.697 56.403 167.788 70.4296 168.378 84.6386L168.605 90.0834L168.712 99.2599C168.17 99.3016 167.673 99.4027 167.293 99.2778C166.689 99.0775 166.605 98.3578 166.595 97.7927L166.422 87.1865L165.152 63.1348L163.39 40.5503L162.939 32.6388L162.174 22.7842L162.108 17.8172C162.571 17.7418 163.311 17.8172 163.643 18.1225L169.365 28.7862L177.523 42.1802L184.529 54.5194C186.374 57.7672 188.084 60.9477 189.65 64.4077C189.929 64.3919 190.12 64.0806 190.138 63.7653L190.462 58.4969L191.35 53.2008C191.611 51.6443 192.108 50.2999 192.326 48.7969L193.068 43.7228C194.122 40.0883 193.432 37.1418 193.903 34.5642C194.384 31.9369 194.957 29.4207 195.839 26.8569C195.877 26.7498 195.813 26.502 195.794 26.3929C195.772 26.264 196.01 26.2045 196.12 26.2819C196.209 26.3433 196.378 26.5773 196.362 26.7181C196.126 28.8318 196.569 30.7135 197.209 32.6983C198.4 36.3864 198.106 43.6396 198.066 48.204L198.827 55.259L198.984 58.1103L199.139 63.9636C199.157 64.6437 199.654 65.2921 199.461 66.0376C199.235 66.912 199.72 67.6814 199.789 68.4904L200.068 71.7165L200.463 82.5943L200.666 86.3815C200.949 91.6479 202.223 96.603 204.219 101.449L205.811 106.741C204.559 106.315 204.092 105.355 203.601 104.431L202.358 102.095C202.203 101.804 201.734 101.721 201.465 101.552C200.674 99.8072 200.215 98.1159 200.006 96.1945C199.941 95.5977 199.362 94.7728 199.63 94.1839C199.899 93.595 200.296 93.1568 200.161 92.3736L200.169 92.3676Z" fill="#8DC0FF"/>
<path d="M243.482 66.0848L243.579 67.9918C244.076 68.2481 244.877 68.8977 245.463 68.7129C246.335 68.4388 246.268 67.2926 246.151 66.5516L245.604 63.1428C245.36 61.6132 244.63 60.028 243.317 59.0447C242.733 58.8599 241.419 59.1142 240.996 59.5234L240.787 62.4138L240.159 63.4646C241.832 63.9453 241.357 65.7292 243.482 66.0828V66.0848Z" fill="#8DC0FF"/>
<path d="M234.638 136.045C235.024 136.069 235.578 135.187 235.401 134.869L232.778 130.161C232.5 127.219 232.76 123.985 233.525 121.153L235.427 114.13L238.686 102.643L242.571 89.3192L243.825 83.2921C244.137 81.7943 244.248 80.1992 244.197 78.7014C244.179 78.1769 243.145 78.3776 242.782 78.465C242.182 78.606 241.667 78.8682 241.566 79.6708L240.866 85.1336L238.213 95.811L233.068 113.505L231.083 120.93C230.779 122.066 230.429 122.966 230.404 124.162L230.264 130.718L232.957 135.316C233.251 135.68 234.07 136.008 234.632 136.043L234.638 136.045Z" fill="#8DC0FF"/>
<path d="M126.329 127.361C125.743 126.731 125.556 125.73 125.336 124.846C123.797 118.684 122.577 112.615 121.5 106.32L120.071 94.0788L119.922 89.8257L119.668 85.7733L119.549 68.9457C120.453 68.7749 121.158 69.0172 121.86 69.2854L121.959 84.2894L122.426 94.4721L123.766 106.202C124.57 113.254 126.341 119.997 128.008 126.872C127.716 127.374 126.699 127.754 126.333 127.361H126.329Z" fill="#8DC0FF"/>
<path d="M124.526 61.717C123.661 62.158 122.95 62.1858 121.95 62.2355C120.514 62.309 118.956 62.6149 117.644 61.8163C117.183 61.5362 116.7 61.0138 116.146 60.831C115.506 59.1823 114.657 56.3753 115.222 55.8668C115.603 55.5231 116.174 56.0098 117.01 55.9641L118.608 59.5696L126.416 57.6884C127.073 57.5295 127.832 57.9049 128.568 58.1394C127.598 59.7703 126.181 60.8668 124.526 61.715V61.717ZM123.818 60.0643L120.49 60.7397C121.736 61.0257 122.874 60.6026 123.818 60.0643Z" fill="#8DC0FF"/>
</svg>
