<svg width="37" height="65" viewBox="0 0 37 65" fill="none" xmlns="http://www.w3.org/2000/svg">
<path d="M22.0255 64.5114C17.9735 65.0315 13.3608 64.1458 8.77788 62.9594C7.79196 62.7048 7.09042 60.8088 7.67818 60.0477C8.41221 59.0997 9.3196 58.3575 10.3976 57.8564C10.8147 57.6614 11.305 57.5423 11.7627 57.545C13.6452 57.5531 15.5276 57.5829 17.4047 57.694C17.8516 57.721 18.2173 58.2411 18.1144 58.6338C17.9871 59.1268 17.5023 59.3353 17.0012 59.3353C15.59 59.3326 14.1761 59.2866 12.7676 59.338C12.3288 59.3543 11.8846 59.5899 11.4675 59.7795C10.9827 60.0017 10.8039 60.4377 10.9773 60.9686C11.0315 61.1392 11.2265 61.3451 11.3971 61.3884C14.6068 62.2471 17.8652 62.6398 21.1832 62.3093C23.7509 62.052 26.3621 62.3337 28.8892 61.6593C29.0029 61.6295 29.1572 61.3424 29.1193 61.2367C29.0489 61.039 28.8674 60.7628 28.7022 60.7384C27.0716 60.519 25.4275 60.3916 23.8024 60.1397C22.8679 59.9935 22.0202 59.5547 21.4703 58.7286C21.362 58.5661 21.297 58.2573 21.3837 58.1164C21.4866 57.9458 21.7953 57.7562 21.9687 57.7941C23.3419 58.0948 24.6881 58.5336 26.0695 58.7584C27.2261 58.9453 28.4206 58.8776 29.5961 58.9561C31.9769 59.1159 34.1899 59.8473 36.2755 60.9876C36.7549 61.2503 36.8632 61.662 36.8415 62.1956C36.8226 62.6858 36.6519 63.0244 36.0831 63.168C35.6307 63.2845 35.1757 63.4226 34.7153 63.4632C32.1367 63.6961 29.5528 63.9074 26.9715 64.1214C25.563 64.2379 24.1545 64.3435 22.0255 64.5087V64.5114Z" fill="#8DC0FF"/>
<path d="M23.6156 0.80377C26.6492 0.4977 29.0002 0.283677 31.3459 0.0128183C32.1774 -0.0819821 32.6487 0.362241 33.1173 0.909375C33.4586 1.31025 33.613 1.74904 33.399 2.20409C33.3475 2.31243 32.9548 2.33953 32.7544 2.28265C32.0231 2.07408 31.3242 2.22574 30.6904 2.52639C28.9515 3.35251 27.1368 3.75884 25.2164 3.79134C23.3231 3.82114 21.4541 4.06221 19.5987 4.47391C18.2065 4.77998 16.7845 4.73662 15.3652 4.64994C14.6935 4.60932 14.4334 4.44139 14.7205 4.04865C14.8316 3.89426 15.1404 3.85631 15.3679 3.81839C15.8744 3.73172 16.2536 3.49878 16.5001 3.07353C16.1372 2.79725 15.7661 2.53457 15.4194 2.23933C15.2542 2.09849 15.0619 1.90884 15.0239 1.71653C14.9373 1.28045 15.2487 1.01228 15.823 0.890397C17.2233 0.592452 18.6371 0.614169 20.0564 0.66834C21.4703 0.722512 22.8843 0.779395 23.6183 0.806481L23.6156 0.80377Z" fill="#8DC0FF"/>
<path d="M0.990286 20.4081C1.69452 20.4893 2.36899 20.6789 2.85925 21.218C3.32783 21.738 3.7395 22.3095 4.17287 22.8648C4.76063 23.6151 5.47571 24.1893 6.35329 24.5793C8.91561 25.7224 11.4915 26.8491 14.0213 28.0598C15.0885 28.569 16.18 28.9537 17.3176 29.2245C17.8864 29.36 18.1817 29.6308 18.1059 30.2131C18.0463 30.6574 17.7239 30.9743 17.2093 30.9824C16.0257 30.9987 14.8474 30.7847 13.7992 30.2592C11.0744 28.8995 8.3035 27.6536 5.50554 26.4537C4.39502 25.977 3.62576 25.0993 3.04341 24.0511C2.36627 22.8268 1.67284 21.6134 0.984863 20.3945V20.4108L0.990286 20.4081Z" fill="#8DC0FF"/>
<path d="M1.02393 6.81888C1.95297 5.69752 1.72541 4.13738 2.47569 2.95915C2.71675 2.58265 3.04179 2.14927 3.42912 1.99488C4.73736 1.48025 6.10792 1.33941 7.50555 1.66444C8.19082 1.82424 9.04129 2.63414 8.84086 3.04855C8.65126 3.43588 8.36957 3.82316 8.02828 4.08047C7.67075 4.35133 7.21032 4.5274 6.76882 4.63574C5.65018 4.91202 4.43399 4.94456 3.41556 5.41856C2.6084 5.79506 1.90964 6.45861 1.03206 6.78905C1.03206 6.79447 1.02393 6.81888 1.02393 6.81888Z" fill="#8DC0FF"/>
<path d="M0.988116 20.3933C0.611623 15.8754 0.603532 11.3602 1.02336 6.83147C1.02607 6.82063 1.03421 6.7935 1.03421 6.78809C1.36736 11.3223 1.47566 15.8618 0.990828 20.4041V20.3906L0.988116 20.3933Z" fill="#8DC0FF"/>
<path d="M30.352 26.8294C29.8157 27.1924 29.2659 27.5337 28.7486 27.9183C27.4864 28.8609 26.0697 29.2943 24.5015 29.251L24.6721 29.4324C24.905 29.0641 25.0513 28.544 25.3872 28.3571C26.3677 27.8073 27.4105 27.3522 28.456 26.9324C29.0952 26.6751 29.7778 26.7482 30.4306 26.9974L30.352 26.8267V26.8294Z" fill="#8DC0FF"/>
<path d="M33.7574 20.773L33.4351 20.7812L33.5894 20.3369L33.7574 20.773Z" fill="#8DC0FF"/>
<path d="M24.5015 29.2461C24.3877 29.7066 24.1142 30.0153 23.6943 30.1995C23.2122 30.4081 22.8384 30.3485 22.6461 29.9557C22.5973 29.8582 22.6813 29.6117 22.7815 29.5386C22.9467 29.4194 23.1743 29.3327 23.3775 29.33C23.8054 29.3273 24.2334 29.3869 24.6695 29.4248C24.6749 29.4303 24.5041 29.2461 24.5041 29.2461H24.5015Z" fill="#8DC0FF"/>
<path d="M30.4306 26.9937C30.4794 26.0538 30.5281 25.1166 30.5769 24.1768L30.4983 24.2498C30.4387 25.0949 30.3763 25.9373 30.333 26.8014C30.352 26.823 30.4306 26.9909 30.4306 26.9909V26.9937Z" fill="#8DC0FF"/>
<path d="M30.577 24.1768C30.6989 24.2716 30.8207 24.3663 30.9426 24.4611C30.8017 24.388 30.661 24.3175 30.5093 24.2471C30.4985 24.2498 30.577 24.1768 30.577 24.1768Z" fill="#8DC0FF"/>
<path d="M17.4137 29.9076C18.0882 37.321 18.1531 44.7885 17.9121 52.2263C17.8796 53.261 17.839 54.2984 17.7903 55.333C17.7415 56.3677 17.69 57.416 17.4652 58.4399L18.2643 58.5482C18.3997 55.9804 18.4754 53.4127 18.489 50.8423C18.4917 50.3195 17.6791 50.3195 17.6764 50.8423C17.6628 53.4127 17.5871 55.9804 17.4517 58.5482C17.4273 59.0032 18.1504 59.1034 18.2506 58.6565C18.6461 56.8688 18.6272 54.9945 18.6949 53.1743C18.7626 51.3542 18.8086 49.3904 18.8303 47.4971C18.8736 43.7322 18.833 39.9646 18.6569 36.2051C18.5594 34.1032 18.4186 32.0041 18.2263 29.9076C18.1803 29.3903 17.365 29.3849 17.4137 29.9076Z" fill="#8DC0FF"/>
<path d="M16.0213 30.9567C16.6118 31.3874 17.3648 31.9562 17.3702 32.7607C17.3702 33.2211 18.0393 33.3105 18.1693 32.869C18.4564 31.8776 18.0095 30.7753 17.113 30.2661C16.834 30.1063 16.3762 30.3798 16.517 30.7238C16.6931 31.1572 16.7716 31.6149 16.8773 32.07C16.9829 32.525 17.1318 32.9367 17.3079 33.3538C17.6275 34.1231 18.0798 34.9735 17.9634 35.8322C17.9336 36.0515 18.0149 36.2656 18.2478 36.3333C18.4374 36.3874 18.719 36.2655 18.7488 36.0489C18.8815 35.0575 18.5376 34.1854 18.1584 33.2915C17.9715 32.8527 17.7955 32.4113 17.6844 31.9454C17.5734 31.4795 17.4921 30.9703 17.3025 30.5071L16.7067 30.9648C17.2944 31.298 17.5788 32.0022 17.3892 32.6496L18.1882 32.7579C18.1828 31.6285 17.2754 30.8647 16.4385 30.2525C16.2597 30.1225 15.9861 30.2227 15.8832 30.3988C15.7613 30.6019 15.8534 30.8267 16.0295 30.954L16.0213 30.9567Z" fill="#8DC0FF"/>
<path d="M24.9123 28.7618C24.311 29.0327 23.7097 29.3008 23.1057 29.5717C22.6859 29.7613 22.9837 30.4547 23.4198 30.3138C24.1782 30.0673 24.9394 29.8236 25.6978 29.5771L25.4811 28.7943C24.9475 29.0055 24.4139 29.2168 23.8803 29.4254C23.428 29.6042 22.8591 29.7423 22.4881 30.0674C22.117 30.3924 22.0384 30.8799 21.9409 31.3268C21.8272 31.8496 21.7405 32.3805 21.6674 32.9114C21.3641 35.1757 21.3125 37.4753 21.1852 39.7532C20.9252 44.3794 20.668 49.0031 20.408 53.6293C20.2969 55.6228 20.11 58.4073 22.3256 59.3878C22.7997 59.5963 23.214 58.8975 22.7346 58.6862C20.909 57.8791 21.1149 55.5389 21.2043 53.9002C21.3261 51.7225 21.4481 49.5447 21.5699 47.367C21.6918 45.1893 21.811 43.055 21.9329 40.899C22.0547 38.7429 22.1333 36.6384 22.3094 34.5148C22.4042 33.361 22.5288 32.1855 22.8348 31.0695C22.8944 30.8582 22.9567 30.7066 23.1571 30.5901C23.4063 30.4465 23.7042 30.3626 23.9724 30.2569C24.5466 30.0294 25.1235 29.8019 25.6978 29.5771C26.1718 29.3902 25.9903 28.629 25.4811 28.7943C24.7227 29.0407 23.9616 29.2845 23.2032 29.531L23.5174 30.2731C24.1187 30.0023 24.72 29.7341 25.324 29.4633C25.8007 29.2493 25.3862 28.5478 24.9149 28.7618H24.9123Z" fill="#8DC0FF"/>
<path d="M29.781 27.3823C30.6938 26.7729 31.0188 25.7626 31.4522 24.8092C31.9885 23.6228 32.8064 22.5909 33.2614 21.3612C33.7165 20.1315 33.8411 18.8205 33.9277 17.5285C34.0252 16.1174 34.1093 14.7062 34.1825 13.2923C34.2691 11.6617 34.334 10.0285 34.3557 8.39793C34.3611 7.87517 33.5486 7.87517 33.5431 8.39793C33.5079 11.1282 33.3454 13.853 33.1748 16.5751C33.0935 17.8536 33.0394 19.1455 32.7116 20.3915C32.3839 21.6374 31.7203 22.5909 31.1217 23.6662C30.8183 24.2106 30.5935 24.7875 30.3362 25.3536C30.1087 25.8574 29.8406 26.3667 29.3693 26.6809C28.9359 26.9707 29.3421 27.6749 29.7782 27.3823H29.781Z" fill="#8DC0FF"/>
<path d="M29.0841 27.7882C30.0944 26.4068 31.056 24.9902 31.9661 23.5411C32.7949 22.2166 33.6751 20.8515 33.8024 19.2534L33.2878 19.6461C33.1849 19.6082 33.2742 19.6651 33.2661 19.7437C33.258 19.8358 33.258 19.9252 33.2444 20.0145C33.2146 20.2312 33.1606 20.4452 33.0983 20.6538C32.971 21.0763 32.784 21.4745 32.5646 21.8591C32.115 22.6419 31.5435 23.3407 30.9666 24.0287C30.6334 24.4268 31.205 25.0064 31.5409 24.6029C32.2993 23.6955 33.0738 22.7637 33.5695 21.6803C33.9 20.9571 34.5906 19.2697 33.5018 18.8634C33.2364 18.7632 33.0062 19.0151 32.9872 19.2561C32.868 20.7702 31.9092 22.1083 31.1237 23.3542C30.257 24.7275 29.3414 26.0709 28.3798 27.3819C28.071 27.8044 28.7754 28.2107 29.0814 27.7909L29.0841 27.7882Z" fill="#8DC0FF"/>
<path d="M32.7466 1.96116C33.3344 4.89455 33.5863 7.88209 33.5077 10.8724C33.4942 11.3951 34.3068 11.3951 34.3203 10.8724C34.4016 7.80896 34.1307 4.74828 33.5294 1.74446C33.4265 1.23254 32.6437 1.44924 32.7466 1.96116Z" fill="#8DC0FF"/>
<path d="M15.5853 3.80805C12.1021 3.89202 8.61614 3.72684 5.15457 3.31785C4.63723 3.25555 4.63994 4.07083 5.15457 4.13042C8.61614 4.53942 12.1021 4.70188 15.5853 4.62062C16.1081 4.60708 16.1081 3.79451 15.5853 3.80805Z" fill="#8DC0FF"/>
<path d="M4.12757 3.74007C2.38595 4.98872 1.09937 6.76555 0.4764 8.81866L1.25915 9.03536C1.49209 8.14424 1.72505 7.25315 1.95799 6.36202L1.17517 6.14532C0.178411 11.4352 0.340937 16.9038 1.66002 22.1233L2.40217 21.8091C1.99588 20.9152 1.58959 20.0241 1.1833 19.1303C0.993703 18.7131 0.289474 19.0083 0.441154 19.4444C1.12372 21.4 2.17464 23.1931 3.54789 24.7424C3.89459 25.1352 4.46884 24.5583 4.12214 24.1682C2.8464 22.7273 1.85778 21.048 1.22397 19.2278L0.481823 19.542C0.88811 20.4358 1.2944 21.3269 1.70069 22.2207C1.8957 22.6514 2.55389 22.3399 2.44283 21.9066C1.15897 16.8334 0.988314 11.5029 1.95799 6.35931C2.05279 5.85281 1.30789 5.63069 1.17517 6.14261C0.942232 7.03374 0.709338 7.92483 0.4764 8.81595C0.34368 9.32245 1.10747 9.53103 1.25915 9.03265C1.81712 7.19352 2.971 5.56026 4.53656 4.4389C4.9591 4.13825 4.55281 3.43129 4.12757 3.73736V3.74007Z" fill="#8DC0FF"/>
<path d="M3.99757 23.5158C2.92497 22.0775 2.23429 20.409 1.97698 18.6322C1.94447 18.4155 1.67088 18.2964 1.47586 18.3478C1.24292 18.4129 1.16165 18.6295 1.19145 18.8489C1.45689 20.6826 2.1855 22.4405 3.29331 23.9248C3.42332 24.1008 3.64544 24.1902 3.84858 24.071C4.02193 23.9708 4.12758 23.6918 3.99486 23.5158H3.99757Z" fill="#8DC0FF"/>
<path d="M1.19982 19.7295C0.365581 14.9462 0.863997 9.98133 2.59207 5.44716C2.77897 4.9569 1.99344 4.74562 1.80926 5.23046C0.027008 9.90547 -0.441548 15.0193 0.417073 19.9435C0.506456 20.4581 1.28921 20.2387 1.19982 19.7268V19.7295Z" fill="#8DC0FF"/>
<path d="M6.04437 2.15741C9.93661 1.95427 13.8342 1.84859 17.7346 1.83504C18.2573 1.83504 18.2573 1.01976 17.7346 1.02247C13.8369 1.0333 9.93931 1.1417 6.04437 1.34484C5.52432 1.37193 5.52162 2.1845 6.04437 2.15741Z" fill="#8DC0FF"/>
</svg>
