<svg width="37" height="51" viewBox="0 0 37 51" fill="none" xmlns="http://www.w3.org/2000/svg">
<path d="M10.6232 32.0488C10.4755 33.566 10.2477 35.9778 9.22578 36.5296C7.9771 37.2027 6.90348 35.1612 6.21165 33.8593C5.72019 32.934 5.16651 32.1512 4.39558 31.4432C3.99798 31.0782 3.80815 30.4399 3.85561 29.9145C3.93576 29.0462 4.66662 28.5334 5.51559 28.6642C6.76744 28.8573 7.16292 30.442 8.38629 30.0928C9.31964 29.8258 9.58751 26.7715 9.11082 24.9462C9.02645 24.6213 8.80498 24.366 8.41899 24.2362L8.15533 26.3009C8.05725 27.0658 7.53943 27.8054 6.77587 27.9605C5.87628 28.1441 5.01781 27.8402 4.24582 27.3665C2.64384 26.3853 1.41203 24.9367 0.549344 23.2729C0.0884709 22.3846 -0.0275383 21.491 0.00515518 20.4992C0.07687 18.3332 0.131711 13.4715 1.96887 12.9567C3.80604 12.4418 4.5274 15.1554 6.31184 16.5502C6.71049 16.8614 7.11757 17.1948 7.09332 17.7635C7.06379 18.4609 6.65565 19.1076 6.04396 19.4452C5.77398 19.595 5.49028 19.4727 5.28674 19.2595C4.78579 18.7383 3.97689 17.9376 3.69108 17.985C3.30931 18.0483 3.04671 20.4074 3.28505 21.6007C3.52445 22.795 4.73833 23.6053 5.92584 23.5304C6.79169 23.4755 6.97836 21.5353 7.15132 20.3273C7.21144 19.9084 7.35803 19.3366 7.65543 19.0433C8.55292 18.9093 9.33862 19.3577 10.0125 19.939C11.2696 21.0225 12.1629 22.5186 12.5057 24.1687C12.7873 25.5244 12.4719 26.877 11.8328 28.0808C11.1557 29.3553 10.7624 30.6119 10.6221 32.0499L10.6232 32.0488Z" fill="#8DC0FF"/>
<path d="M15.2279 8.46949C13.8675 7.51994 13.6312 5.82131 12.9679 6.07558C13.3011 7.20659 13.7019 8.48953 14.6342 9.27449C15.9388 10.3728 17.1906 11.5386 17.5998 13.2794C17.8149 14.1931 17.7285 15.2049 17.6314 16.1376C17.5861 16.5691 17.2233 16.7812 16.8036 16.759C15.7679 16.7432 15.016 15.8664 14.9843 14.8388C14.3853 13.2172 13.415 11.8699 12.2908 10.5711C11.5294 9.69123 11.7076 8.14031 10.0961 7.26251C9.84301 7.1243 9.43908 6.87319 9.2714 6.64319C8.85166 6.06714 9.01723 5.28851 9.37581 4.71984C10.1626 3.47067 12.218 1.99993 12.797 2.66039L14.6574 4.77999L14.0847 3.247C13.7652 2.39241 16.4355 0.623087 17.797 0.0871229C18.3971 -0.149208 19.051 0.111395 19.3399 0.673736C19.5888 1.15906 19.6437 1.68975 19.6827 2.25525C19.7829 3.70911 20.886 5.14714 21.3406 7.00086C21.6506 8.26269 21.6527 9.80624 20.6129 10.0278C19.7428 10.2124 19.0394 8.68472 18.6565 7.58747L17.4817 4.22292C17.3794 3.93067 17.2665 3.68589 16.9386 3.45062C16.9565 4.13851 17.1368 4.73884 17.372 5.38347L18.8095 9.33041C19.3051 10.6935 19.013 12.1505 18.2347 12.1854C18.0533 12.1938 17.6705 12.0039 17.5924 11.8351L16.9491 10.4519C16.5526 9.59839 15.9947 9.0044 15.2279 8.46949Z" fill="#8DC0FF"/>
<path d="M11.2379 19.6099L9.68551 18.3565C9.17929 17.9482 8.68994 17.6992 8.02236 17.5673C7.73339 17.0314 7.4961 16.4363 7.16916 15.9035C6.44885 14.7293 4.59798 13.6014 3.24067 12.1402C2.88842 11.7614 2.803 11.2508 2.98334 10.7792C3.46003 9.52683 4.21726 8.41375 5.20966 7.54122C5.78865 7.03269 6.40667 6.82274 7.16178 6.95251C8.23434 7.13609 9.15292 7.65517 10.0008 8.32513C11.6703 9.64394 11.4151 11.3499 12.2672 12.3828C13.2966 13.6289 14.8268 14.4222 14 15.587L12.687 17.4376C11.8633 18.5992 12.0194 19.2238 11.741 19.6236C11.6777 19.7133 11.3413 19.6943 11.2369 19.6099H11.2379ZM11.2168 15.5849C11.4046 15.1703 11.2295 14.6501 10.9226 14.3684C10.5292 14.0066 10.2909 13.5814 10.101 13.0739C9.43978 11.3046 8.55495 11.4966 8.05294 10.9174C5.61464 8.10356 5.71905 10.6568 8.29551 12.9726L9.7509 14.2809C10.7001 15.1333 10.4459 15.4245 10.7971 15.7147C10.872 15.7759 11.1683 15.6894 11.2158 15.5849H11.2168Z" fill="#8DC0FF"/>
<path d="M34.5803 21.9206C33.4909 21.9807 32.4911 18.1351 32.0608 16.5567C31.4027 17.2889 31.4702 18.8335 30.6824 18.8915C30.4915 18.9052 30.0844 18.6499 30.0507 18.4568C29.8556 17.3649 30.3175 16.6242 29.4295 15.8825C29.2734 15.7528 28.9865 15.3814 28.9981 15.1851L29.0793 13.7988C29.1236 13.0392 29.7954 12.6752 30.5284 12.6889C31.2614 12.7026 32.0903 12.7321 32.7674 12.4104C33.8463 11.8987 34.4833 11.0346 35 10.9882C35.4208 10.9502 35.926 12.1962 35.7573 13.2966C35.6444 14.0362 34.96 14.1322 34.9389 14.4455C34.8935 15.1187 37.4004 15.7306 36.1137 18.3904C35.8975 18.8367 35.7773 19.285 35.7151 19.7778C35.5948 20.7284 35.2647 21.8815 34.5803 21.9195V21.9206Z" fill="#8DC0FF"/>
<path d="M31.7337 5.40951C31.8824 5.27341 32.1218 5.09194 32.2599 5.10354C33.0382 5.17001 34.6761 7.39933 35.2856 8.56411C35.525 9.02094 35.4575 9.49782 35.0462 9.86392C34.077 10.7238 32.8969 11.5457 31.5691 11.8136C30.7497 11.9793 29.8944 11.9265 29.0349 11.9856C28.1532 11.1405 28.0794 10.0106 26.5185 9.41869C25.3637 8.97979 24.172 8.83103 22.9243 8.81521C22.3348 8.80782 21.9657 8.20222 21.9361 7.66309C21.875 6.53735 21.6967 5.4496 21.1272 4.47579C20.4027 3.23717 20.0167 2.8373 20.4618 0.951931C20.5483 0.585829 20.8847 0.338949 21.2295 0.319958L23.0414 0.221833C24.4103 0.147979 25.1485 0.909733 26.0882 0.982531C27.6174 1.1007 29.2637 1.82129 29.3955 3.18442L29.5442 4.71845C29.5843 5.13203 29.1772 5.783 28.9726 6.17336C28.7796 6.54157 28.2745 6.73148 27.9064 6.56373L26.664 5.99717C25.6611 5.54033 24.521 5.37891 24.3523 6.01299C24.3186 6.13854 24.579 6.39281 24.7172 6.39386C27.396 6.4118 28.8925 8.01759 30.1085 6.9024L31.7347 5.41057L31.7337 5.40951ZM26.9098 3.1728L25.5683 3.05148L24.0475 2.92803C23.8777 2.91432 23.6056 3.01666 23.5655 3.15065C23.5255 3.28464 23.7164 3.64863 23.8577 3.66023L25.3437 3.78473L26.8106 3.90079C26.9583 3.91239 27.2631 3.73093 27.2662 3.58849C27.2694 3.46611 27.05 3.18546 26.9087 3.1728H26.9098Z" fill="#8DC0FF"/>
<path d="M16.233 43.1784L16.4797 44.7663C16.5272 45.0733 16.2878 45.4352 16.0389 45.5259C15.2964 45.7981 14.7312 44.9266 14.3979 44.0172C13.898 42.6519 13.5763 41.3036 13.2789 39.8677C13.1049 39.0279 12.8877 37.9496 12.4321 37.8926C12.0081 37.8399 12.7906 40.4374 13.1239 41.4893C13.4804 42.6129 14.1195 44.4234 13.551 44.7251C12.8803 45.0807 10.3576 42.4473 9.64046 40.7719C9.27662 39.9225 9.77546 38.935 9.87987 38.0868C10.1593 36.5759 10.674 35.197 11.3732 33.8634L11.7002 33.6207C11.7708 33.568 11.9765 33.7684 12.0229 33.8486L12.7537 35.1189C13.0648 34.4342 11.9912 33.5068 12.2401 32.7261C12.6883 31.3281 13.6491 28.9659 14.7839 28.2695C15.1973 28.7717 15.462 29.1885 15.7099 29.754C16.9796 32.6469 18.0037 35.5884 18.9497 38.6132C19.2756 39.6546 18.8621 40.3477 19.4232 41.4249C20.3207 43.1499 21.1486 44.8211 21.9343 46.6052L22.5301 48.2321C22.5649 48.326 22.5291 48.5961 22.4764 48.6647C22.1737 49.0561 20.4536 48.8482 19.6004 48.5032C18.6691 48.1266 18.493 46.3594 18.2621 45.4225C17.7073 43.1658 16.3036 40.8795 15.8744 39.0848C15.5232 37.6151 15.2226 36.2119 14.6331 34.8151C14.5487 34.6156 14.3768 34.4416 14.1585 34.3097C14.2555 35.2117 14.3821 35.9936 14.6035 36.8545L16.234 43.1763L16.233 43.1784Z" fill="#8DC0FF"/>
<path d="M22.6301 27.935C23.6014 27.8865 24.0401 30.521 24.2099 31.8925C24.5527 34.6589 25.0093 37.3313 25.7845 40.0069C26.0186 40.8172 26.2559 41.5948 26.6461 42.3343C27.6016 44.149 28.2512 46.0639 28.2713 48.1455C28.2766 48.6435 28.2017 49.2417 27.8484 49.5804C27.1565 50.2409 25.003 50.2957 24.1234 49.3673C23.6942 48.9147 23.3704 48.2964 23.1911 47.6803C22.7798 46.2665 22.2335 44.9857 21.6282 43.6468L20.2434 40.5851C19.5738 37.5465 18.7353 34.623 17.6406 31.71C16.8486 29.602 15.0737 27.7684 14.5569 25.9463C14.0654 24.2171 14.0032 23.0059 12.6216 21.6269C11.5987 20.6056 13.227 18.3193 14.7689 17.3033C15.4818 16.8338 15.8878 17.7749 16.8771 17.5143C18.0382 17.2084 19.2289 16.9182 19.6043 18.0461C20.4902 20.7069 21.2506 23.353 21.8802 26.0929C21.9962 26.5951 21.856 27.0646 21.4415 27.359L20.0262 28.3666C19.2953 28.8878 19.0412 29.7571 19.5084 30.6054C20.2529 31.9569 20.9205 33.3074 21.3793 34.8192L21.9878 36.8238C22.0173 36.9219 22.2726 37.1298 22.3611 37.0802C22.4497 37.0306 22.5679 36.9103 22.6807 36.7837C22.6311 35.5725 22.3401 34.4668 21.6419 33.4951C20.8868 32.4433 20.5619 31.1688 20.292 29.8806C20.1095 29.0122 21.3624 27.9994 22.628 27.9361L22.6301 27.935ZM18.2017 26.2712C18.7153 25.8999 18.9157 25.0706 18.6067 24.6211C17.8621 23.5408 17.2209 22.5174 16.7748 21.2756C16.6619 20.9601 16.4742 20.5761 16.2422 20.3345C16.143 20.2311 15.9152 20.6457 15.9669 20.8029C16.3023 21.8305 16.6978 22.7474 17.2272 23.68C17.6775 24.4745 17.9022 25.3143 18.2027 26.2702L18.2017 26.2712Z" fill="#8DC0FF"/>
<path d="M31.2327 31.9565C31.2949 33.8746 31.1684 35.6302 31.4267 37.446L31.9889 41.3939L32.0384 43.1C32.0511 43.5378 31.7537 44.0083 31.4647 44.2046C30.081 45.1457 27.8336 43.2983 27.3411 41.6261L25.757 36.2485C25.5366 35.4994 25.3932 34.7345 25.312 33.9685L24.9682 30.7095C24.8648 29.7314 24.4725 28.8251 24.0085 27.9684C23.3767 26.8026 23.0224 25.6326 22.784 24.3243C22.4603 22.5518 21.1198 21.2045 21.2232 19.4405C21.2327 19.2759 21.3329 19.0238 21.4278 18.932C21.9593 18.4234 23.5149 19.7306 25.3004 18.4319L28.0393 16.44C28.208 16.3176 28.7322 16.3439 28.9072 16.4368C29.0992 16.5381 29.2953 16.8757 29.3196 17.1584L29.4894 19.0997C29.5432 19.7148 29.9387 20.2444 30.5366 20.4375L31.3983 19.5829C31.9456 19.3118 32.4982 19.8309 32.5636 20.3679C32.6153 21.4799 33.0118 22.4738 33.7501 23.2756C34.231 24.4467 33.8513 25.5629 33.2671 26.6328L32.1882 28.6068C32.1281 28.7175 31.8517 28.8705 31.7252 28.8842C31.1652 28.9433 31.1747 27.7342 30.8456 27.0242C30.4966 26.2698 29.4662 24.9658 29.1139 25.1093C28.6404 25.3023 28.8545 26.6929 27.1903 27.3291C27.7387 28.8558 28.7522 29.9551 30.0452 30.7939C30.4776 31.0745 31.0102 31.4586 31.2316 31.9544L31.2327 31.9565ZM27.5415 23.034C27.5678 22.7207 27.2103 22.4527 27.0163 22.2153C26.7294 21.864 26.5923 21.3755 26.3571 20.9629C26.1662 20.6295 25.2951 20.8785 25.2804 21.2309L25.8446 23.1142C26.1019 23.5583 27.1755 23.4972 27.5415 23.034Z" fill="#8DC0FF"/>
</svg>
