<svg width="30" height="88" viewBox="0 0 30 88" fill="none" xmlns="http://www.w3.org/2000/svg">
<path d="M10.1819 18.2714C10.3478 18.0334 10.6025 17.8173 10.6628 17.5559C10.8254 16.8454 10.9779 16.1198 11.0013 15.3959C11.0767 13.0599 11.184 10.7173 10.8991 8.38806C10.7684 7.32566 10.9527 6.37718 11.504 5.45554C11.7168 5.10029 11.7638 4.62942 11.8241 4.20212C11.9481 3.33745 11.9481 2.44932 12.1492 1.60476C12.419 0.465281 14.0662 -0.241868 14.956 0.0765171C16.005 0.451876 16.7239 1.09033 16.8948 2.22144C16.9819 2.79788 17.0004 3.38604 17.0507 3.96751C17.1009 4.55736 17.2551 5.10198 17.6103 5.59632C18.1181 6.30682 18.5923 7.04076 19.0682 7.77304C19.2375 8.03446 19.2576 8.33442 19.1369 8.62264C18.6811 9.7085 18.3828 10.8145 18.4046 12.0126C18.418 12.7348 18.3929 13.4973 18.1834 14.1793C17.6908 15.7779 17.8969 17.3581 18.1013 18.9517C18.1583 19.3908 18.7833 20.0996 19.2308 20.1968C19.9429 20.351 20.6869 20.3979 21.369 20.6358C23.1586 21.2575 24.9784 21.8105 26.681 22.6567C27.0664 22.8477 27.3764 23.2415 27.3378 23.7091C27.1351 26.2126 27.6881 28.6541 27.9327 31.1191C28.1204 33.0059 28.4421 34.8861 28.8074 36.7495C29.2364 38.9396 29.2464 41.1164 28.7521 43.2763C28.4203 44.7225 28.3684 46.1569 28.4522 47.6265C28.5762 49.815 28.608 52.0034 28.3014 54.1902C28.1606 55.1973 28.231 56.2312 28.1506 57.2501C28.1204 57.6221 27.8774 57.7763 27.7081 57.6523C27.6009 57.5735 27.487 57.4177 27.4836 57.2937C27.4132 53.6423 27.2423 49.9926 27.3915 46.3412C27.4819 44.1377 27.3428 41.9642 26.7446 39.826C26.3458 38.4034 26.2251 36.9673 26.5301 35.4893C26.6759 34.7855 26.6793 34.0315 26.6273 33.3092C26.4614 30.9733 26.4464 28.639 26.5285 26.3014C26.5553 25.5021 26.0727 24.9491 25.4175 24.5452C24.6684 24.0827 23.8775 23.7108 23.0279 23.4695C21.6237 23.069 20.206 22.712 18.8185 22.2562C17.9405 21.968 17.3322 21.2977 17.1143 20.3962C16.8395 19.2584 16.687 18.0954 16.8864 16.9191C17.1311 15.4813 17.1663 14.0101 17.6153 12.6025C17.7444 12.1986 17.7226 11.7344 17.7075 11.3004C17.6757 10.3671 17.3087 9.6331 16.4306 9.17731C15.0482 8.46011 13.6255 8.44671 12.1827 8.8958C11.9498 8.96786 11.7269 9.27951 11.628 9.53086C11.4722 9.93303 11.3532 10.3738 11.3432 10.8011C11.3063 12.4081 11.313 14.0168 11.3147 15.6238C11.3147 16.904 11.323 16.904 10.1082 18.2228L10.1819 18.2731V18.2714ZM15.8927 5.04668C15.8609 4.72327 15.824 4.30265 15.7737 3.88373C15.757 3.74464 15.7168 3.60724 15.6749 3.47151C15.4788 2.85317 14.5136 2.43928 13.9489 2.7275C13.3591 3.02913 13.0708 3.48324 13.1412 4.07979C13.2082 4.63948 13.3038 5.19581 13.411 5.74879C13.5501 6.45929 14.3109 6.79276 15.0683 6.47772C15.4721 6.31015 15.7738 6.03702 15.8257 5.56615C15.8408 5.42706 15.8609 5.28798 15.8894 5.04836L15.8927 5.04668Z" fill="#8DC0FF"/>
<path d="M16.357 87.3897C14.7517 87.3897 13.1447 87.3947 11.5393 87.3897C8.91015 87.3813 6.29101 87.3059 3.70204 86.7546C2.70835 86.5435 1.67445 86.53 0.660644 86.4044C0.538317 86.3893 0.389187 86.2485 0.333888 86.1296C0.25513 85.9586 0.436105 85.7291 0.793031 85.6855C1.95933 85.5414 3.14239 85.5766 4.27852 85.8397C6.7217 86.4044 9.19504 86.453 11.6784 86.453C13.138 86.453 14.5992 86.453 16.0587 86.453C19.7084 86.458 23.3581 86.4211 27.0028 86.6675C27.4519 86.6976 27.9211 86.6155 28.1909 86.2519C28.4121 85.9536 28.5629 85.7793 28.821 85.967C28.8763 86.0072 28.8176 86.2435 28.7707 86.3742C28.7221 86.5083 28.6417 86.6457 28.5378 86.7412C28.4339 86.8367 28.2914 86.9222 28.154 86.9456C26.5688 87.2154 24.9702 87.3361 23.3632 87.3428C21.0272 87.3528 18.6913 87.3445 16.3553 87.3445V87.3897H16.357Z" fill="#8DC0FF"/>
<path d="M10.1084 18.2243C10.2743 18.6164 10.4637 18.9985 10.5977 19.4007C10.7687 19.9118 10.4721 20.6038 10.0163 20.8552C9.76828 20.9926 9.53368 21.1937 9.26725 21.254C7.59824 21.6311 5.92585 21.9897 4.24846 22.3265C3.49271 22.4773 2.85261 22.2108 2.33984 21.6361V21.6478C3.86809 21.3076 5.31927 20.7061 6.87265 20.4363C7.70045 20.2922 8.48634 19.9 9.28733 19.6101C9.88724 19.394 10.1403 18.9164 10.2039 18.2964C10.1822 18.2729 10.1084 18.2227 10.1084 18.2227V18.2243Z" fill="#8DC0FF"/>
<path d="M0.576775 48.5238C0.301958 47.324 0.380736 46.2533 0.596903 45.1758C0.905234 45.4891 0.759422 45.8829 0.781206 46.2382C0.826451 46.9604 0.863321 47.686 0.576775 48.5238Z" fill="#8DC0FF"/>
<path d="M2.33986 21.6367C2.7789 23.1583 2.62975 24.7117 2.5778 26.26C2.57445 26.3689 2.50576 26.4762 2.46722 26.5851C2.21251 26.4393 2.17898 26.1997 2.1639 25.878C2.10525 24.467 2.45548 23.0745 2.33986 21.6568C2.33986 21.6501 2.33986 21.6384 2.33986 21.6384V21.6367Z" fill="#8DC0FF"/>
<path d="M1.69922 36.1716C1.69084 36.3006 1.65398 36.5084 1.57857 36.5352C1.36743 36.6106 1.23839 36.4129 1.27358 36.0526C1.29872 35.7895 1.3289 35.5181 1.41771 35.2734C1.54507 34.9165 1.74614 35.4544 1.7009 36.1732L1.69922 36.1716Z" fill="#8DC0FF"/>
<path d="M10.842 16.4943C10.6225 17.0356 10.3209 17.5132 10.0243 18.0125C9.72768 18.5119 9.72266 19.08 9.78299 19.6598C9.79639 19.7955 9.88856 19.9111 10.0343 19.9111C10.16 19.9111 10.2991 19.7955 10.2857 19.6598C10.2572 19.39 10.2254 19.1118 10.2572 18.8403C10.2891 18.5689 10.4013 18.356 10.5438 18.1315C10.8504 17.6506 11.1135 17.1562 11.328 16.6284C11.3783 16.5027 11.2727 16.3519 11.1521 16.3184C11.008 16.2782 10.894 16.367 10.842 16.4943Z" fill="#8DC0FF"/>
<path d="M2.00104 25.6833C2.25072 29.5643 1.57036 33.41 1.27209 37.2675C1.1883 38.3567 1.13471 39.4493 1.13974 40.5435H1.64245C1.53186 38.9131 1.55362 37.2759 1.70611 35.6488C1.73627 35.327 1.23356 35.3287 1.2034 35.6488C1.05091 37.2759 1.02914 38.9131 1.13974 40.5435C1.16152 40.8636 1.64413 40.8703 1.64245 40.5435C1.6257 36.6592 2.35459 32.8269 2.52552 28.9543C2.57411 27.8651 2.57413 26.7725 2.50375 25.6833C2.48364 25.3616 1.98093 25.3599 2.00104 25.6833Z" fill="#8DC0FF"/>
<path d="M1.1697 39.9572C0.757476 41.9998 0.455825 44.0643 0.26647 46.1406C0.241334 46.4187 0.72062 46.4891 0.760837 46.2076C1.01387 44.4296 1.26687 42.65 1.5199 40.8721C1.56514 40.5537 1.15294 40.4314 1.03564 40.7381C0.546328 42.0183 0.289959 43.3723 0.25477 44.7413C0.217904 46.1891 0.346937 47.6436 0.425695 49.0881C0.469264 49.8991 0.512796 50.7119 0.556365 51.5229C0.573122 51.8446 1.07584 51.8463 1.05908 51.5229C0.981995 50.1053 0.90661 48.6893 0.829527 47.2717C0.752444 45.854 0.675358 44.4749 0.909958 43.0907C1.03899 42.3316 1.24508 41.5893 1.5199 40.8687L1.03564 40.7347C0.782604 42.5126 0.529566 44.2922 0.276534 46.0701L0.770861 46.1372C0.956865 44.1062 1.25347 42.087 1.65732 40.0879C1.721 39.7728 1.23673 39.6371 1.17306 39.9538L1.1697 39.9572Z" fill="#8DC0FF"/>
<path d="M0.46425 51.1443C0.606686 55.0604 0.680389 58.9782 0.687092 62.8977C0.693795 66.8172 0.633497 70.735 0.506143 74.6512C0.434087 76.8447 0.341897 79.0382 0.227949 81.2317C0.211192 81.5551 0.713905 81.5534 0.730662 81.2317C0.933423 77.3189 1.07086 73.4011 1.13957 69.4832C1.20827 65.5654 1.20991 61.646 1.14288 57.7281C1.10601 55.533 1.0474 53.3378 0.966963 51.1443C0.955233 50.8225 0.45252 50.8209 0.46425 51.1443Z" fill="#8DC0FF"/>
<path d="M0.350554 81.5115C0.233254 83.038 0.117656 84.5663 0.000356502 86.0929C-0.00634634 86.1917 0.0824418 86.3191 0.18466 86.3358C0.610291 86.3995 1.02923 86.4129 1.45654 86.3576C1.67103 86.3291 1.78834 86.1029 1.63417 85.9287C1.37779 85.6404 0.978953 85.5315 0.610297 85.6388C0.300291 85.7292 0.43268 86.2152 0.744362 86.123C0.95215 86.0627 1.13815 86.123 1.28058 86.2839L1.45822 85.8549C1.07951 85.9035 0.697437 85.9069 0.320403 85.8499L0.504747 86.0929C0.622047 84.5663 0.737645 83.038 0.854944 81.5115C0.88008 81.1881 0.377367 81.1897 0.352231 81.5115H0.350554Z" fill="#8DC0FF"/>
<path d="M27.4064 57.7903C28.0649 61.5205 28.5358 65.2807 28.8173 69.0578C29.0988 72.8349 29.1927 76.6153 29.0988 80.3957C29.072 81.4598 29.0301 82.5238 28.9732 83.5879C28.9463 84.1057 28.9145 84.6235 28.8793 85.1413C28.8559 85.4949 28.8425 85.9842 28.519 86.207L28.8978 86.4249C29.191 82.6411 29.2765 78.8406 29.1491 75.0468C29.0218 71.2697 28.6531 67.5179 28.147 63.7743C27.8622 61.673 27.6091 59.5532 27.7667 57.4301H27.2639C27.4449 59.3839 27.7281 61.3278 28.1152 63.2515L28.5995 63.1174C28.3934 62.5661 28.1873 62.0131 27.9812 61.4618C27.8655 61.1535 27.4499 61.2775 27.4968 61.5959C27.6778 62.856 27.8605 64.1145 28.0415 65.3746C28.0867 65.693 28.5727 65.5573 28.5258 65.2406C28.3448 63.9804 28.1621 62.722 27.9812 61.4618L27.4968 61.5959C27.703 62.1472 27.9091 62.7002 28.1152 63.2515C28.2275 63.5531 28.6648 63.4375 28.5995 63.1174C28.2224 61.2373 27.9426 59.3387 27.7667 57.4301C27.7365 57.1083 27.2874 57.105 27.2639 57.4301C27.1232 59.3136 27.3075 61.1987 27.5505 63.0671C27.7935 64.9356 28.0532 66.8224 28.2359 68.7093C28.5978 72.4729 28.7503 76.2583 28.6933 80.0387C28.6615 82.1702 28.5609 84.3001 28.3967 86.4249C28.3816 86.6092 28.6229 86.7466 28.7754 86.6427C29.4524 86.1786 29.3837 85.215 29.4273 84.4894C29.4859 83.5225 29.5329 82.554 29.568 81.5854C29.6367 79.6483 29.6569 77.7078 29.625 75.7707C29.5647 71.8797 29.3049 67.9921 28.8458 64.1279C28.5894 61.9629 28.271 59.8062 27.8923 57.6597C27.837 57.3413 27.3511 57.477 27.4081 57.7937L27.4064 57.7903Z" fill="#8DC0FF"/>
<path d="M27.4581 56.6062C27.4162 57.4173 27.4413 58.2283 27.5335 59.0343C27.5653 59.3091 27.9323 59.3828 28.0278 59.1013C28.3915 58.0155 28.2708 56.8023 27.7145 55.8035C27.5569 55.5203 27.123 55.7734 27.2805 56.0566C27.7748 56.943 27.8653 58.0054 27.5435 58.9673L28.0379 59.0343C27.9474 58.2283 27.9222 57.4173 27.9625 56.6062C27.9792 56.2828 27.4765 56.2845 27.4597 56.6062H27.4581Z" fill="#8DC0FF"/>
<path d="M28.127 63.7883C28.3934 65.5696 28.6615 67.3525 28.928 69.1338C28.9698 69.4153 29.4307 69.3466 29.4223 69.0668C29.3837 67.8787 29.1743 66.7024 28.7906 65.578C28.7185 65.3685 28.3465 65.3115 28.3063 65.578C28.0516 67.2671 28.0449 68.9679 28.2845 70.6587C28.3231 70.9302 28.6934 70.8615 28.7688 70.6587C29.1726 69.5762 29.1223 68.3881 28.6682 67.3308C28.5643 67.0911 28.2024 67.2269 28.199 67.4581C28.1856 68.9964 28.3851 70.533 28.7872 72.0194C28.871 72.3311 29.3569 72.1987 29.2715 71.8853C28.8794 70.4409 28.6884 68.9545 28.7018 67.4581L28.2326 67.5855C28.633 68.5188 28.6364 69.5795 28.2828 70.5263H28.7671C28.5409 68.9327 28.5476 67.3039 28.7889 65.712H28.3046C28.6733 66.7962 28.8827 67.9223 28.9179 69.0668L29.4123 68.9998C29.1458 67.2185 28.8777 65.4355 28.6113 63.6542C28.5627 63.3358 28.0784 63.4716 28.127 63.7883Z" fill="#8DC0FF"/>
</svg>
