<svg width="47" height="57" viewBox="0 0 47 57" fill="none" xmlns="http://www.w3.org/2000/svg">
<path d="M0.00167735 35.6798C0.00167735 34.3644 0.00167735 33.0489 0.00167735 31.7352C0.00502877 27.065 0.0284904 26.7398 0.673639 20.3805C0.74737 19.6549 0.738972 18.9209 0.779189 18.192C0.874705 16.4409 1.05739 14.7032 1.35902 12.9706C1.78465 10.5274 1.94884 8.04393 2.41972 5.60242C2.58394 4.75116 2.51355 3.85631 2.61912 2.98829C2.67106 2.56266 2.86213 2.14539 3.20062 1.83706C3.30284 1.7449 3.44023 1.69298 3.55585 1.61254C3.86586 1.3947 4.07868 1.46844 4.31495 1.74158C4.70204 2.18732 5.17964 2.51747 5.79797 2.57444C6.23366 2.61466 6.66931 2.67996 7.10667 2.68834C11.3445 2.76039 15.5774 2.67997 19.7968 2.23758C20.3766 2.17725 20.9615 2.13876 21.5446 2.12033C23.6175 2.05498 25.6015 1.62593 27.4699 0.712667C28.5457 0.186494 29.6768 -0.0112399 30.8666 0.000490078C32.3278 0.0138958 33.7907 -0.0279643 35.2402 0.201608C35.5217 0.246852 35.8183 0.347405 36.0529 0.504922C36.4132 0.746224 36.7483 1.04453 36.8623 1.49529C36.9327 1.77514 37.0114 2.06166 37.0231 2.3482C37.1069 4.25181 37.0483 6.14202 36.5824 8.00708C36.192 9.57387 36.0713 11.1725 36.1518 12.7878C36.1786 13.3341 36.6696 13.8637 37.2611 13.919C37.4052 13.9324 37.5493 13.9777 37.6934 13.9793C40.393 13.986 42.8546 14.8859 45.2392 16.0304C45.9212 16.3588 46.392 16.9302 46.4875 17.7144C46.7808 20.1057 46.3619 22.3612 45.209 24.4877C44.6259 25.5635 43.8835 26.4114 42.6217 26.6443C41.7487 26.8052 40.9225 27.1051 40.1651 27.5475C39.5166 27.9262 39.0524 28.4977 39.0089 29.2953C38.9067 31.1939 38.9217 33.0773 39.2183 34.9742C39.5803 37.2834 39.7261 39.6194 39.6758 41.9637C39.6272 44.1539 39.6155 46.344 39.582 48.5342C39.5752 49.0017 39.339 49.3954 39.0072 49.6703C37.8811 50.5969 36.6645 51.4113 35.6289 52.4519C34.9972 53.087 34.2298 53.459 33.3617 53.7037C30.8348 54.4175 28.3313 55.2218 25.6937 55.4598C25.2613 55.4983 24.8256 55.6106 24.4151 55.7564C22.0322 56.5993 19.5522 56.7719 17.0671 56.7116C14.1531 56.6412 11.2289 56.5691 8.36681 55.857C7.43679 55.6257 6.76149 55.2906 6.61906 54.2299C6.53862 53.6249 6.14649 53.1541 5.51475 53.0167C4.49257 52.7972 3.58937 52.3832 2.80178 51.6778C2.48507 51.3946 2.06951 51.2153 1.6841 51.0159C1.42604 50.8818 1.14785 50.7813 0.869684 50.6958C0.371998 50.5433 0.209446 50.111 0.14912 49.6987C0.0435505 48.9798 0.0100624 48.2459 0.00838673 47.5169C-0.00334324 43.5723 0.00335469 39.626 0.00335469 35.6814H0L0.00167735 35.6798ZM8.84105 7.91151C9.13095 7.94 9.42754 7.94001 9.71073 8.00201C11.559 8.40418 13.4342 8.71925 15.2423 9.26051C16.6733 9.68949 18.1077 9.75146 19.5606 9.76821C20.3046 9.77827 21.0218 9.5286 21.5178 8.94378C22.6824 7.57305 24.1168 6.66317 25.811 6.05154C27.5923 5.40807 29.2713 4.51659 30.9185 3.57651C31.1665 3.43575 31.4028 3.25979 31.6072 3.06373C31.6877 2.98665 31.7061 2.80231 31.691 2.67328C31.6776 2.55431 31.6106 2.39675 31.5168 2.33978C30.8297 1.93258 30.0807 2.03986 29.4104 2.29289C27.9123 2.85593 26.4695 3.56142 24.9145 3.98538C24.0665 4.21662 23.2287 4.43949 22.3423 4.44284C17.8229 4.46463 13.3336 5.08459 8.81593 5.14659C8.67182 5.14827 8.5277 5.19186 8.38526 5.21532C7.76525 5.31921 7.33962 5.65942 7.12848 6.25765C6.57885 6.05656 6.0359 5.83532 5.47957 5.65937C5.2081 5.57391 4.90482 5.52033 4.6233 5.54212C4.31162 5.56558 4.02504 5.75495 3.95968 6.01636C3.46535 8.0004 3.06488 10.0028 2.85709 12.0405C2.7532 13.0576 2.67776 14.0832 2.49176 15.087C2.14489 16.9621 2.00584 18.8523 1.90027 20.7525C1.77794 22.941 1.77795 25.1361 1.39923 27.3079C1.27523 28.02 1.3305 28.7675 1.3305 29.4981C1.32548 34.7632 1.3238 40.0282 1.33218 45.295C1.33218 46.0239 1.38415 46.7545 1.43777 47.4835C1.48302 48.0934 1.79634 48.6078 2.20187 49.0251C2.60404 49.439 3.05985 49.8395 3.56592 50.1076C4.72551 50.7226 5.93033 51.2538 7.11674 51.8202C7.906 52.1972 8.79077 52.4553 9.46441 52.9815C10.6894 53.9383 12.0802 54.3137 13.5481 54.364C16.7621 54.4746 19.9778 54.5617 23.1901 54.2249C24.6631 54.0707 26.0573 53.7439 27.366 53.0183C28.2575 52.524 29.2261 52.1671 30.1377 51.7046C30.9604 51.2873 31.7899 51.1734 32.6797 51.4197C33.1221 51.542 33.5461 51.413 33.9449 51.2153C34.8783 50.7545 35.6759 50.1344 36.2707 49.2664C36.7651 48.5441 37.2711 47.8303 37.7822 47.1215C38.1375 46.6288 38.3084 46.0658 38.3185 45.481C38.3671 42.8518 38.4307 40.2327 38.1107 37.6001C37.7236 34.4096 37.6298 31.1872 37.7605 27.9664C37.7789 27.5308 37.856 27.0951 37.933 26.6644C38.0738 25.8718 38.5899 25.3724 39.3055 25.0976C39.8467 24.8881 40.4181 24.7474 40.9829 24.605C41.5476 24.4625 42.1307 24.3838 42.6887 24.2196C42.9568 24.1408 43.2317 23.9682 43.4194 23.7604C44.4449 22.6393 45.0012 21.3122 44.971 19.7823C44.9593 19.174 44.6376 18.668 44.1617 18.2909C43.3523 17.6491 42.4558 17.133 41.447 16.9135C40.0244 16.6018 38.6134 16.1896 37.1254 16.2499C36.5489 16.2734 35.9658 16.156 35.386 16.094C34.8648 16.0404 34.3202 15.3969 34.2984 14.9026C34.2431 13.7212 34.4694 12.5784 34.7157 11.4339C35.1447 9.42971 35.3692 7.40046 35.4597 5.35442C35.4731 5.05447 34.947 4.53499 34.6118 4.46461C33.7237 4.27525 32.8573 4.35572 32.0379 4.70762C30.0237 5.56893 28.033 6.48885 26.0154 7.34514C24.514 7.98191 23.103 8.71426 22.1713 10.1286C22.0926 10.2475 21.9686 10.3363 21.858 10.4318C21.0285 11.1339 20.0482 11.4993 19.0076 11.2178C16.4672 10.5307 13.9151 9.91741 11.3328 9.40967C10.629 9.27059 9.9554 8.92873 9.30523 8.60364C9.09073 8.4964 8.99522 8.14946 8.84441 7.91151H8.84105Z" fill="#8DC0FF"/>
<path d="M33.779 19.4632C33.7992 19.3208 33.8259 19.1783 33.8377 19.0342C33.8762 18.5265 34.5448 17.8512 34.9839 17.9098C36.4233 18.1025 37.8627 18.2902 39.2972 18.5165C40.1819 18.6555 41.0114 19.6895 41.1337 20.7184C41.1672 21.0066 40.8237 21.7589 40.6076 21.8695C39.1849 22.6018 37.7119 23.2151 36.182 23.681C36.0446 23.7229 35.8921 23.7061 35.7497 23.7313C35.2822 23.8151 34.5231 23.3358 34.3706 22.8783C34.0019 21.769 33.7137 20.6479 33.7807 19.4632H33.779ZM36.9277 22.0019C36.8741 22.0036 37.6717 21.7857 38.3822 21.2478C38.7123 20.9965 38.7174 20.4201 38.3772 20.1955C37.6198 19.6978 36.8003 19.5906 35.929 19.7632C35.6039 19.8268 35.2067 20.3228 35.2185 20.7133C35.2268 20.9881 35.2788 21.2663 35.3592 21.5294C35.4531 21.8427 35.691 21.9885 36.9277 22.0019Z" fill="#8DC0FF"/>
<path d="M7.55765 17.9566C7.51408 18.6068 7.52078 19.4915 7.38673 20.3528C7.0918 22.2397 7.11188 24.135 7.10015 26.0335C7.08339 28.6611 7.05827 31.2885 7.02978 33.9144C7.02643 34.211 6.86388 34.4539 6.61085 34.6416C6.54382 34.5109 6.44832 34.3886 6.41816 34.2495C6.35951 33.9663 6.30586 33.6781 6.30418 33.3899C6.26397 27.6958 6.2288 22.0017 6.20199 16.306C6.19864 15.7279 6.14333 15.1313 6.40306 14.585C6.45166 14.4828 6.57733 14.394 6.68793 14.3471C7.00464 14.2164 7.23756 14.3438 7.35821 14.694C7.70006 15.6877 7.53084 16.7149 7.55765 17.9532V17.9566Z" fill="#8DC0FF"/>
<path d="M15.7186 25.7213C15.8158 28.9605 15.9146 31.8745 15.9716 34.7886C15.9783 35.1154 15.675 35.2678 15.4404 35.1589C15.3248 35.1053 15.184 34.9528 15.1773 34.8405C15.0952 33.2402 14.993 31.6399 14.9796 30.0379C14.9444 25.666 14.817 21.2924 15.0868 16.9221C15.0952 16.7998 15.251 16.6876 15.3382 16.5703C15.422 16.6725 15.5661 16.768 15.5778 16.8786C15.6431 17.4534 15.7085 18.0298 15.7119 18.6079C15.7253 21.088 15.7169 23.5697 15.7169 25.7247L15.7186 25.7213Z" fill="#8DC0FF"/>
<path d="M24.4756 19.921C24.5611 18.944 24.6415 17.937 24.7437 16.9315C24.7555 16.8109 24.8661 16.6701 24.9716 16.5947C25.1627 16.4589 25.347 16.6165 25.3604 17.0136C25.404 18.3123 25.4442 19.6143 25.4291 20.913C25.4207 21.6319 25.3906 22.3726 25.2113 23.0613C24.8426 24.4756 24.7555 25.9117 24.6868 27.3561C24.6717 27.6762 24.5779 27.9242 24.3114 28.0951C24.2511 27.9695 24.1405 27.8437 24.1388 27.7164C24.1103 26.2719 24.0969 24.8274 24.0818 23.3813C24.0684 22.2217 24.1254 21.0689 24.4773 19.9193L24.4756 19.921Z" fill="#8DC0FF"/>
<path d="M25.3971 37.6166C25.377 37.9015 25.377 38.1897 25.3301 38.4696C25.3083 38.5936 25.1893 38.8031 25.1206 38.7997C24.8709 38.7913 24.7453 38.5618 24.7319 38.2099C24.7269 38.0674 24.6984 37.9249 24.6933 37.7825C24.6833 37.3602 24.6414 36.9179 24.9966 36.5995C25.2011 36.4152 25.3904 36.871 25.3971 37.6166Z" fill="#8DC0FF"/>
<path d="M7.05664 6.13672C7.69341 6.77014 8.32849 7.40357 8.96358 8.03531C7.90453 7.82585 7.26946 7.19409 7.05664 6.13672Z" fill="#8DC0FF"/>
<path d="M5.39047 5.22124C6.80812 6.7076 8.42185 8.00287 10.1797 9.06695L10.4327 8.63296C8.89775 7.837 7.45998 6.86504 6.15125 5.73394L5.84626 6.12946C7.64933 7.08127 9.24963 8.35315 10.8349 9.62334C11.0812 9.82107 11.4247 9.50099 11.1901 9.26807C9.71382 7.79847 8.09172 6.48132 6.35233 5.33514C6.15124 5.20276 5.85468 5.47595 6.00884 5.67871C7.38125 7.48512 9.40884 8.54245 11.475 9.36355C12.0782 9.60318 12.6899 9.82442 13.3015 10.0423C13.6065 10.1512 13.7389 9.66521 13.4356 9.55796C10.9019 8.65308 8.13194 7.64762 6.44282 5.42563L6.09929 5.7692C7.80349 6.89193 9.38872 8.18222 10.8349 9.62334L11.1901 9.26807C9.57139 7.97107 7.9409 6.66731 6.09929 5.6954C5.85799 5.56804 5.5698 5.89487 5.79434 6.09092C7.13491 7.25052 8.6045 8.25088 10.178 9.06695C10.4645 9.21609 10.7092 8.80221 10.431 8.63296C8.70839 7.589 7.13323 6.32384 5.74407 4.86597C5.51952 4.63137 5.16593 4.98664 5.38879 5.22124H5.39047Z" fill="#8DC0FF"/>
<path d="M24.1924 26.6833C24.3365 29.4818 24.4823 32.2803 24.6264 35.0804C24.6683 35.8847 24.7102 36.6873 24.7504 37.4917C24.7671 37.8134 25.2615 37.8168 25.2531 37.4917C25.233 36.6655 25.0303 35.8663 24.8577 35.0636C24.6851 34.2609 24.5493 33.4013 24.4706 32.5601C24.3147 30.8961 24.3499 29.2121 24.5811 27.5565C24.5996 27.4207 24.5476 27.2883 24.4052 27.2464C24.2879 27.2129 24.1153 27.2883 24.0952 27.4224C23.8606 29.0981 23.8086 30.7939 23.9595 32.4797C24.0332 33.3125 24.1538 34.142 24.3214 34.9614C24.489 35.7808 24.7286 36.6304 24.7487 37.4917H25.2514C25.1073 34.6932 24.9616 31.8948 24.8174 29.0947C24.7756 28.2904 24.7337 27.4877 24.6934 26.6833C24.6767 26.3616 24.174 26.3599 24.1907 26.6833H24.1924Z" fill="#8DC0FF"/>
</svg>
