<svg width="58" height="43" viewBox="0 0 58 43" fill="none" xmlns="http://www.w3.org/2000/svg">
<path d="M21.5014 5.41497C21.3388 7.59675 21.1042 10.2075 20.2831 12.7428C19.6816 14.5995 18.7063 16.1948 17.349 17.5672C16.5262 18.3984 15.6481 19.1742 14.817 19.997C13.9573 20.8483 13.5066 21.9257 13.2535 23.0837C13.1295 23.6534 13.0809 24.2399 13.0156 24.8214C12.8212 26.5658 12.657 28.3119 12.4442 30.0546C12.2112 31.97 12.4308 33.8451 12.8765 35.7034C12.9452 35.9883 13.1647 36.2028 13.4664 36.295C14.021 36.4659 14.5774 36.6871 15.1471 36.7491C16.7457 36.9251 18.351 37.0306 19.9547 37.1613C21.5885 37.2954 23.09 37.8282 24.4825 38.6812C24.6065 38.7566 24.707 38.8688 24.821 38.961C25.0623 39.1554 25.2282 39.8659 25.1109 40.1759C24.8344 40.9132 24.2931 41.3808 23.5625 41.5886C22.4314 41.9103 21.2601 42.0326 20.0888 42.0276C17.7361 42.0176 15.4152 42.2555 13.1211 42.7633C11.5225 43.1185 9.92391 43.0247 8.32528 42.7398C6.53227 42.4197 4.999 41.6606 3.88968 40.1642C3.71708 39.9313 3.46235 39.7336 3.36181 39.4755C3.26629 39.2309 3.21772 38.8622 3.34004 38.6628C3.56291 38.2975 3.91646 38.0109 4.22982 37.7059C4.87496 37.0776 5.64244 36.6754 6.53392 36.5262C7.11036 36.429 7.69353 36.3687 8.26829 36.2648C8.94696 36.1425 9.49491 35.4621 9.52508 34.6879C9.56529 33.6658 9.60214 32.642 9.59209 31.6198C9.56863 28.9822 9.66584 26.3564 10.1166 23.7489C10.2155 23.1792 10.1903 22.5843 10.1954 22.0011C10.1987 21.547 10.016 21.1499 9.67923 20.8449C9.46306 20.6489 9.22345 20.478 8.98215 20.3121C7.03665 18.9682 5.40452 17.3058 3.97011 15.4341C3.25794 14.5057 2.48205 13.6226 1.80339 12.6725C1.11802 11.7157 0.64883 10.6533 0.425961 9.47358C0.042223 7.44764 -0.0985154 5.41501 0.0707314 3.36059C0.132733 2.59479 0.677342 1.91279 1.37276 1.82733C2.82393 1.6497 4.27844 1.4972 5.72961 1.31455C7.47067 1.09503 9.21339 0.880514 10.9478 0.614076C13.7026 0.191797 16.4843 0.176689 19.2559 0.000739837C19.3984 -0.00763872 19.5425 0.0577369 19.6882 0.0661155C20.2211 0.0996297 20.8361 0.602382 20.997 1.06991C21.4327 2.33674 21.5181 3.6421 21.5014 5.40998V5.41497ZM15.3901 2.10209C13.3792 2.26128 11.1941 2.26797 9.03578 2.72041C7.76057 2.98853 6.4334 3.01703 5.13137 3.15612C4.26335 3.24996 3.39533 3.34216 2.52899 3.44773C2.0866 3.50135 1.41464 4.21184 1.40291 4.6492C1.3828 5.37478 1.35933 6.10204 1.39117 6.82762C1.44982 8.16149 1.86707 9.38308 2.5206 10.5561C3.30651 11.9637 4.25834 13.249 5.22857 14.5242C6.92774 16.7596 8.99554 18.571 11.4806 19.8932C11.6029 19.9585 11.7488 20.0037 11.8845 20.0071C12.0253 20.0104 12.2146 19.9987 12.3034 19.9132C12.7173 19.5127 13.0826 19.0603 13.5082 18.6716C14.0461 18.1806 14.6393 17.7533 15.1806 17.2656C15.7219 16.7797 16.2447 16.2686 16.7491 15.7424C17.7729 14.6767 18.4918 13.4215 19.0196 12.0441C20.0301 9.41323 20.2798 6.67177 20.2446 3.88507C20.2429 3.74263 20.191 3.6019 20.1725 3.45779C20.1072 2.95843 19.5039 2.3585 19.0465 2.2546C17.8902 1.99152 16.7223 2.14737 15.3934 2.10045L15.3901 2.10209ZM18.5103 39.2895C16.0687 39.1823 13.7563 39.2275 11.4739 38.8622C11.2008 38.8186 10.8992 38.8823 10.621 38.9426C9.9172 39.0951 9.21172 39.2476 8.52301 39.4537C8.20965 39.5476 8.09569 39.8358 8.17612 40.1223C8.20796 40.2379 8.29846 40.3938 8.39565 40.4256C9.94736 40.9417 11.5611 40.9601 13.086 40.5178C14.76 40.0335 16.4374 39.7134 18.1651 39.5911C18.2388 39.5861 18.3058 39.4722 18.5103 39.2895ZM11.0684 33.5921C11.0684 33.3139 11.0919 33.1715 11.0617 33.0408C11.0349 32.9185 10.9494 32.7106 10.8941 32.7106C10.6662 32.714 10.5791 32.9369 10.616 33.2871C10.6294 33.4228 10.5657 33.6339 10.6327 33.6859C10.8372 33.8451 10.2171 34.5523 11.0232 34.2741C11.0416 33.9993 11.06 33.7262 11.0684 33.5921Z" fill="#8DC0FF"/>
<path d="M46.9623 41.6462C45.4106 41.4836 43.5523 41.7635 41.6906 42.2109C39.544 42.727 37.3555 42.7186 35.1654 42.4489C34.7062 42.3919 34.0795 41.7417 34.0963 41.2323C34.1097 40.8 34.1381 40.3509 34.2688 39.9454C34.4029 39.5331 34.6911 39.1679 35.1503 39.0539C36.5629 38.7054 37.9755 38.3618 39.3965 38.0518C39.8389 37.9546 40.3819 37.2726 40.4506 36.7816C40.593 35.7695 40.717 34.7573 40.6416 33.7318C40.5879 33.0045 40.5243 32.2773 40.4841 31.55C40.4774 31.416 40.5679 31.2769 40.6131 31.1395C40.7136 31.1898 40.8913 31.2249 40.9047 31.292C41.1828 32.7113 41.2582 34.1609 41.6872 35.5617C41.9436 36.3963 41.8079 37.2994 41.6906 38.1691C41.6269 38.6416 41.3403 39.0019 40.9432 39.1678C40.2729 39.446 39.5591 39.6186 38.8637 39.8331C38.2638 40.0174 37.8716 40.3727 38.0459 40.5872C38.247 40.8335 38.5218 40.8955 38.8351 40.8938C40.9063 40.8821 42.8703 40.376 44.8007 39.6722C45.1744 39.5365 45.3118 39.3723 45.1442 39.064C45.0772 38.9416 44.9867 38.8227 44.8811 38.7355C44.4304 38.3702 43.9427 38.0435 43.5205 37.6497C43.2054 37.3564 42.949 36.9978 42.8887 36.5319C42.515 33.638 42.071 30.7524 42.0542 27.8249C42.0509 27.2435 42.0961 26.6603 42.1229 26.0788C42.1397 25.7035 42.572 25.2209 42.9206 25.1773C43.2105 25.1421 43.497 25.0818 43.7869 25.0684C45.2481 25.0048 46.6859 24.797 48.0968 24.4015C48.2057 24.3713 48.4035 24.4434 48.4772 24.5355C48.623 24.7165 48.5091 24.9712 48.1672 25.1019C47.765 25.2544 47.3394 25.3751 46.9138 25.4237C45.9033 25.541 44.8778 25.5393 43.8874 25.8259C43.559 25.9214 43.135 26.4844 43.197 26.8229C43.249 27.106 43.2473 27.406 43.3445 27.6708C43.6478 28.5036 43.7735 29.3583 43.8087 30.2414C43.8724 31.8433 43.9545 33.447 44.0818 35.0456C44.1153 35.4645 44.3282 35.8684 44.7756 36.0795C45.4358 36.3895 46.0843 36.723 46.7345 37.0531C47.9125 37.6547 49.1257 38.1138 50.468 38.211C50.8869 38.2411 51.2941 38.4674 51.7013 38.6182C52.0046 38.7305 52.5559 39.3689 52.4989 39.5817C52.4252 39.8566 52.3296 40.1498 52.1587 40.3727C51.6041 41.0983 50.8584 41.5658 49.9468 41.6328C49.0771 41.6965 48.199 41.6462 46.9623 41.6462Z" fill="#8DC0FF"/>
<path d="M36.925 24.8388C37.8634 24.9813 38.8504 24.7601 39.7453 25.2008C39.8475 25.2511 39.9396 25.4353 39.9346 25.5526C39.9296 25.6532 39.7938 25.8124 39.6899 25.8342C38.8605 26.0135 38.0712 25.8694 37.3456 25.4354C37.1077 25.2929 37.0205 25.0265 37.0306 24.7266C37.0255 24.7316 36.9233 24.8388 36.9233 24.8388H36.925Z" fill="#8DC0FF"/>
<path d="M33.8032 22.8026C34.2523 22.7104 34.6729 22.8076 35.0332 23.069C35.737 23.5801 36.414 24.1264 36.92 24.8486C36.925 24.8436 37.0256 24.738 37.0323 24.7313C36.3218 25.0011 35.6699 24.8838 35.1555 24.3191C34.6913 23.8097 34.2875 23.2466 33.8568 22.707L33.8049 22.8042L33.8032 22.8026Z" fill="#8DC0FF"/>
<path d="M56.6762 18.1489C56.5757 18.0819 56.4399 18.0366 56.3796 17.9428C56.1249 17.549 56.1534 17.125 56.3293 16.7127C56.4852 16.3474 56.9292 16.138 57.3967 16.2151C57.5241 16.2369 57.7151 16.3592 57.7369 16.4665C57.8743 17.1217 57.2895 18.0199 56.6762 18.1489Z" fill="#8DC0FF"/>
<path d="M33.1478 12.9186C33.2986 13.1968 32.997 13.48 32.3719 13.666C32.0552 13.7598 31.8424 13.666 31.7435 13.3493C31.6497 13.0409 31.7502 12.7812 32.0569 12.6991C32.3049 12.6338 32.583 12.6472 32.8411 12.6773C32.95 12.6908 33.0455 12.8332 33.1461 12.9186H33.1478Z" fill="#8DC0FF"/>
<path d="M43.3761 13.8945L43.5169 13.9967L43.2336 13.9934L43.3761 13.8945Z" fill="#8DC0FF"/>
<path d="M33.7966 19.7779C33.6525 19.4293 33.4766 19.4042 33.3174 19.7277C33.2939 19.7746 33.4464 19.9087 33.5184 20.0025C33.6106 19.9288 33.7011 19.8534 33.7933 19.7863C33.7933 19.7947 33.7966 19.7779 33.7966 19.7779Z" fill="#8DC0FF"/>
<path d="M33.8549 22.7045C33.518 21.7409 33.4929 20.7707 33.7946 19.7837C33.7946 19.7753 33.7946 19.792 33.7929 19.7837C33.813 20.2043 33.8029 20.6349 33.8633 21.0572C33.9437 21.632 33.9655 22.1984 33.8147 22.7815C33.8029 22.8 33.8565 22.7027 33.8565 22.7027L33.8549 22.7045Z" fill="#8DC0FF"/>
<path d="M31.6361 13.7274C31.5925 15.8656 31.6763 18.044 32.0265 20.1554C32.174 21.0402 32.427 21.9434 32.9214 22.7009C33.471 23.5437 34.2703 24.1218 35.1634 24.5575C36.261 25.0937 37.4005 25.5579 38.5299 26.0237C38.8953 26.1745 39.3745 25.8612 39.4583 25.4976C39.5588 25.0586 39.3225 24.7318 38.9321 24.5693C38.054 24.2073 37.1659 23.8302 36.2409 23.4046C35.8505 23.2253 35.4634 23.0326 35.1048 22.798C35.0562 22.7661 35.0093 22.7344 34.9624 22.7009C34.9355 22.6807 34.8132 22.5919 34.9205 22.674C34.8484 22.617 34.778 22.5584 34.7093 22.4964C34.6239 22.4193 34.5434 22.3388 34.4664 22.2534C34.4362 22.2215 34.4077 22.1864 34.3792 22.1545C34.2385 21.9953 34.458 22.2719 34.3356 22.1009C34.2217 21.9417 34.1178 21.7758 34.0273 21.6016C33.9821 21.5144 33.9418 21.4239 33.8999 21.3368C33.8446 21.2229 33.9603 21.501 33.8866 21.305C33.8631 21.243 33.8396 21.1809 33.8178 21.1189C33.6838 20.7402 33.5899 20.3481 33.5179 19.9543C33.481 19.7549 33.4509 19.5555 33.4224 19.3561C33.4442 19.5136 33.4224 19.3628 33.419 19.3242C33.4123 19.2689 33.4056 19.2137 33.3989 19.1584C33.3838 19.0277 33.3687 18.8953 33.3553 18.7629C33.3 18.2418 33.2565 17.7206 33.2213 17.1978C33.1459 16.0432 33.1207 14.8853 33.1442 13.7274C33.1526 13.3336 32.7923 12.9549 32.3901 12.9733C31.988 12.9917 31.6444 13.3051 31.6361 13.7274Z" fill="#8DC0FF"/>
<path d="M56.1755 16.8844C56.0632 17.047 55.9493 17.2078 55.832 17.3654C55.7733 17.4441 55.713 17.5228 55.6544 17.6016C55.584 17.6937 55.7247 17.5145 55.651 17.6049C55.6091 17.6552 55.5689 17.7088 55.5287 17.7591C55.2756 18.0758 55.0109 18.3825 54.7361 18.6807C54.1948 19.2689 53.6133 19.8202 52.9983 20.3313C52.8559 20.4503 52.7085 20.566 52.5627 20.6816C52.6716 20.5961 52.5811 20.6682 52.5593 20.685C52.5158 20.7185 52.4722 20.752 52.4286 20.7838C52.3314 20.8559 52.2342 20.9279 52.137 20.9983C51.817 21.2278 51.4885 21.449 51.1551 21.6568C50.4764 22.0808 49.7709 22.4595 49.0437 22.7896C48.9348 22.8398 48.8242 22.8868 48.7136 22.9354C48.6868 22.9471 48.5795 22.9907 48.7136 22.9354C48.6532 22.9605 48.5929 22.9857 48.5309 23.0108C48.3281 23.0929 48.1237 23.1717 47.9176 23.2454C47.4853 23.4012 47.0462 23.5404 46.6022 23.6627C46.2218 23.7683 45.9503 24.2022 46.076 24.591C46.2017 24.9797 46.5954 25.2294 47.0043 25.1172C50.2736 24.214 53.2899 22.3992 55.6259 19.9392C56.3029 19.2254 56.9212 18.4546 57.4809 17.6452C57.7054 17.3201 57.5513 16.7939 57.2111 16.6129C56.8274 16.4102 56.4201 16.5358 56.1788 16.8827L56.1755 16.8844Z" fill="#8DC0FF"/>
<path d="M57.3299 16.4334C55.9625 15.6894 54.4896 15.1431 52.9647 14.8281C51.4398 14.5131 49.7708 14.4779 48.152 14.5198C46.5048 14.5617 44.8475 14.6036 43.2388 14.1847C42.4412 13.9769 41.6586 13.7322 40.8476 13.5814C40.0366 13.4306 39.2456 13.3418 38.4379 13.2681C36.5142 13.0938 34.5788 12.9966 32.65 13.1139C32.3249 13.134 32.3283 13.5898 32.65 13.6166C35.4686 13.8478 38.2888 14.0791 41.1073 14.3121C41.9083 14.3774 42.711 14.4444 43.512 14.5097C43.8388 14.5365 43.8254 14.0472 43.512 14.007C41.8413 13.7959 40.1706 13.5847 38.4999 13.3719V13.8746C39.7098 13.7908 40.9247 13.8998 42.0977 14.2131C42.6708 14.3673 43.2254 14.5801 43.7952 14.746C44.3649 14.9119 44.9296 14.9974 45.5161 15.0091C46.1026 15.0208 46.7008 14.9756 47.294 14.9723C47.8872 14.9689 48.4805 14.989 49.072 15.0309C50.245 15.1164 51.4113 15.2973 52.5558 15.5671C53.8511 15.8721 55.1213 16.2911 56.3429 16.8223C56.4786 16.8809 56.5976 16.8524 56.6864 16.7318C56.7752 16.6111 56.9043 16.5474 57.0484 16.5374C57.2729 16.5206 57.4204 16.1838 57.1757 16.0682C55.8201 15.4331 54.3873 14.9873 52.9077 14.7561C52.591 14.7058 52.4553 15.1901 52.7737 15.2404C54.2081 15.465 55.6073 15.8872 56.921 16.5022L57.0484 16.033C56.7116 16.0565 56.4518 16.2056 56.2524 16.4771L56.5959 16.3866C54.3991 15.4314 52.0715 14.8197 49.687 14.5801C48.4939 14.4595 47.3092 14.4645 46.1127 14.498C45.4877 14.5148 44.871 14.498 44.261 14.3489C43.6511 14.1997 43.1115 13.9836 42.5334 13.811C41.2297 13.4222 39.8556 13.2731 38.4999 13.3686C38.1698 13.392 38.1832 13.8311 38.4999 13.8713C40.1706 14.0824 41.8413 14.2936 43.512 14.5064V14.0037C40.6935 13.7724 37.8732 13.5412 35.0547 13.3083C34.2537 13.2429 33.451 13.1759 32.65 13.1105V13.6132C34.3358 13.511 36.0249 13.573 37.709 13.7054C38.5284 13.7691 39.3495 13.8428 40.1623 13.9685C40.975 14.0942 41.7491 14.2835 42.5317 14.5064C43.3142 14.7293 44.0918 14.8985 44.8995 14.9756C45.7072 15.0527 46.5299 15.0527 47.3443 15.0359C48.9547 15.0041 50.5634 14.9287 52.162 15.1851C53.8813 15.4616 55.5453 16.0296 57.0735 16.8624C57.3584 17.0166 57.6114 16.5826 57.3265 16.4285L57.3299 16.4334Z" fill="#8DC0FF"/>
<path d="M46.8635 23.4086C46.1145 23.8057 45.3973 24.2615 44.722 24.7742C44.6214 24.8496 44.5644 24.9636 44.6197 25.0876C44.675 25.2116 44.7907 25.2586 44.9163 25.2334C45.4928 25.1144 46.0592 24.9569 46.6139 24.7625C46.9205 24.6553 46.7982 24.2196 46.4798 24.2782C46.1614 24.3369 45.8363 24.4307 45.528 24.5531C45.4023 24.6033 45.3135 24.7207 45.352 24.8631C45.3856 24.9837 45.5347 25.0893 45.662 25.039C45.9704 24.9167 46.2871 24.8245 46.6139 24.7642L46.4798 24.28C45.9251 24.4743 45.3587 24.6302 44.7823 24.7508L44.9767 25.2099C45.652 24.6972 46.3675 24.2397 47.1182 23.8443C47.4048 23.6934 47.1501 23.2595 46.8652 23.4103L46.8635 23.4086Z" fill="#8DC0FF"/>
<path d="M33.0101 18.9512C33.1409 19.216 33.2716 19.4824 33.4023 19.7472C33.4978 19.9399 33.729 20.2465 33.6452 20.4694L34.0659 20.3588C33.9268 20.2247 33.7927 20.089 33.662 19.9482C33.4593 19.732 33.1409 20.0069 33.2665 20.2532C33.595 20.8934 33.719 21.6457 33.8983 22.3361C33.9787 22.6494 34.4647 22.5171 34.3826 22.2021C34.1916 21.4648 34.0508 20.6822 33.6989 19.9985L33.3034 20.3035C33.4341 20.4442 33.5699 20.58 33.7073 20.7141C33.8447 20.8481 34.0625 20.7777 34.1279 20.6034C34.2502 20.2783 34.0642 19.9633 33.9234 19.6784C33.7626 19.3517 33.6017 19.0249 33.4408 18.6981C33.2984 18.4082 32.8644 18.663 33.0068 18.9512H33.0101Z" fill="#8DC0FF"/>
<path d="M39.554 25.7224C39.6948 27.9645 40.0266 30.1949 40.5477 32.38C40.6232 32.695 41.1074 32.561 41.032 32.246C40.5209 30.1027 40.1941 27.9209 40.0551 25.7224C40.0349 25.4007 39.5322 25.399 39.5523 25.7224H39.554Z" fill="#8DC0FF"/>
<path d="M38.9642 25.9833C39.2943 26.1492 39.4469 26.5062 39.5792 26.8313C39.6262 26.9469 39.7217 27.0306 39.8557 27.0105C39.9697 26.9938 40.0853 26.8898 40.0736 26.7642C40.0501 26.4977 40.0099 26.2313 39.9445 25.9715C39.8876 25.7453 39.8088 25.5174 39.6446 25.3465C39.4804 25.1756 39.2357 25.0533 39.0195 24.9461C38.79 24.8338 38.5537 24.7383 38.3107 24.6612C38.1984 24.626 38.0878 24.5875 37.9705 24.6244C37.8382 24.6646 37.7628 24.7969 37.7644 24.9309C37.7678 25.132 37.9119 25.3566 38.0191 25.5192C38.2621 25.8845 38.5872 26.181 38.8687 26.5162C39.219 26.9334 39.4502 27.4378 39.6781 27.9288C39.7351 28.0511 39.9127 28.083 40.0216 28.0193C40.1473 27.9456 40.1691 27.7998 40.1121 27.6758C39.854 27.1195 39.5842 26.5765 39.1804 26.1106C39.0061 25.9096 38.8185 25.7219 38.6459 25.5192C38.5671 25.427 38.495 25.3314 38.4297 25.2309C38.3945 25.1756 38.361 25.117 38.3308 25.0583C38.3157 25.0282 38.3057 24.9946 38.2889 24.9661C38.2688 24.9326 38.2805 24.874 38.2638 24.9578L38.1985 25.0684L38.2152 25.0466L38.1046 25.1119L38.1415 25.1036H38.0074C38.2152 25.1438 38.4264 25.2293 38.6191 25.3164C38.8118 25.4035 39.0195 25.5007 39.1938 25.6264C39.3446 25.7337 39.3983 25.8827 39.4452 26.0553C39.5072 26.2899 39.5491 26.5279 39.5709 26.7692L40.0652 26.7022C39.8842 26.2565 39.6714 25.7806 39.2189 25.5543C38.9307 25.4086 38.676 25.8425 38.9659 25.9883L38.9642 25.9833Z" fill="#8DC0FF"/>
</svg>
