<svg width="94" height="100" viewBox="0 0 94 100" fill="none" xmlns="http://www.w3.org/2000/svg">
<path d="M19.3574 14.1118C20.0595 13.9275 20.7783 13.7901 21.4604 13.5488C22.1424 13.3058 22.7724 12.912 23.4528 12.664C25.7385 11.8329 26.0049 11.9501 28.1062 12.6355C30.5092 13.4214 31.8766 16.2584 31.4392 18.167C31.3454 18.5776 31.1644 18.9848 31.2901 19.4155C31.3286 19.5462 31.4392 19.6769 31.5498 19.7606C32.1447 20.2097 32.8334 20.431 33.5624 20.5449C35.9754 20.9203 37.8823 22.2072 39.558 23.8946C40.0809 24.4208 40.421 25.0592 40.5534 25.7999C40.7595 26.9679 40.2954 27.8879 39.2581 28.2532C37.6109 28.833 35.9486 29.3591 34.2175 29.6557C32.3491 29.9741 30.4774 30.2456 28.5939 30.4366C28.2437 30.4718 28.0627 30.6544 28.0157 30.9611C27.9722 31.2476 28.0225 31.5191 28.2101 31.7722C28.2956 31.8895 28.3894 32.0034 28.49 32.1073C33.3613 37.1964 37.2875 42.9592 40.654 49.1241C40.9321 49.6335 41.2807 50.1044 41.6125 50.582C41.6895 50.6926 41.8236 50.7814 41.9493 50.84C43.0083 51.3444 44.24 51.1819 45.299 51.765C46.1821 52.251 47.0569 52.7973 48.0757 53.0068C48.379 53.0688 49.004 52.7688 49.1448 52.4236C49.3626 51.884 49.6492 51.3561 49.7698 50.7948C50.2273 48.6599 50.9194 46.5787 51.2394 44.4137C51.2813 44.1272 51.3852 43.849 51.4305 43.5608C51.526 42.9592 51.3668 42.4045 51.0283 41.9102C50.6194 41.3103 50.1955 40.7204 49.7598 40.139C49.5838 39.9044 49.3057 39.8005 48.9973 39.7754C48.9973 39.7703 49.0409 39.7754 49.0409 39.7754C49.9106 39.4352 50.7585 39.7536 51.6181 39.839C51.9198 39.8692 52.1912 39.6631 52.3236 39.41C52.8716 38.3661 53.1246 37.2132 53.3609 36.0821C54.1954 32.0822 55.2025 28.1225 56.099 24.1359C56.6134 21.8486 57.3357 19.635 58.192 17.4616C58.4684 16.7578 59.0114 16.2953 59.7504 16.0355C61.5618 15.3971 63.4503 15.2061 65.3388 15.0301C65.7511 14.9916 66.1951 15.1792 66.6074 15.3183C66.8772 15.4088 67.1369 15.5714 67.3631 15.7507C71.8389 19.273 76.3416 22.7635 80.5275 26.6361C80.742 26.8338 80.9515 27.0366 81.1593 27.2427C81.7876 27.8627 82.3121 28.5514 82.6724 29.3692C83.083 30.3009 83.5723 31.194 83.8253 32.1978C83.9694 32.7675 84.395 33.2065 84.8977 33.5366C85.0184 33.6154 85.1474 33.6892 85.2832 33.7394C87.4096 34.5337 89.0116 35.9949 90.389 37.7427C90.932 38.4314 91.5034 39.0983 92.0011 39.8189C92.4988 40.5394 92.8858 41.312 92.983 42.2202C93.2461 44.6919 93.3651 47.1719 93.4372 49.6537C93.4539 50.2284 93.3098 50.8099 93.2344 51.3863C93.1908 51.7131 93.0065 51.9008 92.7602 52.0516C92.4318 52.251 91.8821 52.1957 91.557 51.8924C90.9035 51.2858 90.2985 50.6524 90.5516 49.6402L90.4661 49.7274C90.7527 49.6955 91.0392 49.6654 91.3258 49.6302C91.9642 49.5514 92.2106 49.3688 92.2625 48.9297C92.3295 48.3516 92.4418 47.7735 92.4435 47.1954C92.4485 45.8816 92.425 44.5662 92.3546 43.2541C92.3329 42.8318 92.229 42.3509 91.9944 42.0141C90.994 40.5763 89.9617 39.1603 88.8792 37.7829C88.1536 36.8596 87.2387 36.1256 86.178 35.5894C85.1374 35.0632 84.1236 34.4784 83.0612 34.0025C82.3624 33.6908 81.605 33.8182 80.9598 34.212C80.199 34.6761 79.6344 35.3565 79.2758 36.1759C78.6842 37.5265 78.3541 38.9459 78.2854 40.4205C78.2234 41.7326 78.1899 43.0446 78.1212 44.355C78.1161 44.4673 77.9536 44.593 77.8346 44.6634C77.7911 44.6902 77.6151 44.5997 77.5833 44.5276C77.471 44.2646 77.3487 43.9914 77.3118 43.7116C77.0386 41.6672 77.2012 39.6245 77.4425 37.5936C77.6536 35.8022 78.3826 34.222 79.7198 32.972C80.251 32.4759 80.8325 32.0352 81.3804 31.5543C81.739 31.241 81.8027 30.4047 81.5229 29.9372C81.3737 29.6875 81.248 29.4127 81.0537 29.205C80.556 28.6721 80.0549 28.1359 79.5036 27.6616C76.6231 25.1883 73.7794 22.6697 70.7363 20.3874C69.5683 19.511 68.4691 18.5458 67.2961 17.6761C66.5772 17.1415 65.7243 16.9002 64.8144 17.0242C63.6564 17.1817 62.5019 17.361 61.3507 17.5521C61.0675 17.599 60.791 17.7163 60.5229 17.8302C59.9732 18.0631 59.4822 18.4084 59.2275 18.9513C58.3562 20.8097 57.7479 22.7635 57.2804 24.7543C56.1425 29.582 55.0349 34.4181 53.9256 39.2525C53.763 39.963 53.6709 40.6903 53.5217 41.4058C53.3642 42.1599 53.5033 42.8234 53.9323 43.477C54.2792 44.0065 54.1837 44.583 53.7949 45.0907C53.7078 45.2047 53.6106 45.3219 53.4933 45.404C52.4778 46.1246 52.0136 47.1183 51.7907 48.3382C51.4774 50.0592 50.9964 51.7483 50.5943 53.4542C50.4853 53.9167 50.8624 54.6506 51.3416 54.9254C53.1162 55.9376 54.9042 56.9262 56.657 57.9735C57.2971 58.3556 57.7026 58.9874 57.8484 59.7397C57.9322 60.1704 57.9674 60.6128 57.7345 61.0166C57.5166 61.3937 57.2653 61.754 57.0508 62.1327C56.8363 62.5114 56.5833 62.8834 56.4593 63.2939C56.1643 64.2725 55.8962 65.2612 55.6901 66.2616C55.422 67.5603 55.412 68.8858 55.6382 70.1861C56.1426 73.0801 56.1627 76.0025 56.2381 78.9216C56.2565 79.6505 56.1895 80.3812 56.1962 81.1118C56.2062 82.0451 55.8258 82.8026 55.2075 83.4661C55.1086 83.5734 55.0114 83.684 54.9143 83.7912C55.3533 81.9278 55.5192 80.0443 55.3935 78.1323C55.2796 76.3796 55.2041 74.6268 54.931 72.8857C54.6813 71.2954 54.5473 69.6901 54.554 68.0747C54.559 66.7526 54.6461 65.4489 54.9779 64.1586C55.2695 63.0291 55.479 61.8779 55.722 60.7351C55.7739 60.4921 55.3768 59.7699 55.1086 59.6225C54.3378 59.1952 53.5569 58.7829 52.6487 58.7645C51.9181 58.7494 51.1875 58.7544 50.4585 58.7896C49.8151 58.8198 49.4129 59.2404 49.0995 59.7582C49.0241 59.8839 48.9353 60.0095 48.8968 60.1469C47.9115 63.6693 47.6568 63.9743 49.056 66.88C49.3727 67.5385 49.6559 68.2138 49.9458 68.8858C51.164 71.706 52.332 74.5463 53.3659 77.4403C53.9557 79.0942 54.5339 80.7548 54.8556 82.4858C54.9344 82.9081 54.8992 83.3522 54.9159 83.7862C55.2494 83.7778 55.4672 83.9387 55.5477 84.2721C55.6248 84.5939 55.7856 84.8536 56.0571 84.862C56.3788 84.872 56.6771 84.8871 56.8195 85.1335C57.2519 85.8859 57.7914 86.6165 58.0361 87.4309C58.6662 89.5356 59.7973 91.409 60.6251 93.4215C60.7357 93.6897 60.8061 93.9745 60.8831 94.2594C60.8714 94.2694 60.9736 94.1773 60.9736 94.1773C60.5212 94.2896 60.1039 94.1957 59.7922 93.8589C58.9946 92.9959 58.3344 92.0424 57.9557 90.913C57.7244 90.2226 57.4127 89.5574 57.2167 88.8569C56.9603 87.9436 56.4643 87.3236 55.5326 87.032C55.1237 86.9047 54.7517 86.6399 54.6176 86.1741C54.5372 85.8942 54.4652 85.6144 54.3847 85.3345C53.5804 82.5344 52.7559 79.7377 51.7069 77.0197C50.5541 74.0335 49.4414 71.0257 47.8763 68.2172C47.7322 67.9591 47.449 67.8184 47.139 67.8234C47.0401 67.8251 46.9094 67.9826 46.8541 68.0982C46.6061 68.6227 46.3966 69.1656 46.1369 69.6834C46.0078 69.9398 45.8202 70.1761 45.6141 70.3755C45.5403 70.4459 45.3242 70.4073 45.1918 70.3637C45.0879 70.3302 44.9538 70.2247 44.9354 70.1308C44.8784 69.851 44.7963 69.546 44.8566 69.2796C45.1717 67.8586 45.5487 66.451 45.8604 65.03C45.9861 64.4569 45.8939 63.867 45.7129 63.304C45.2655 61.9098 44.6539 60.5944 43.8445 59.3677C43.5731 58.9572 43.1809 58.7628 42.7654 58.7142C40.8751 58.4913 38.9766 58.5081 37.0981 58.8148C35.5162 59.0711 33.9478 59.4096 32.3743 59.7196C32.2369 59.7464 32.1145 59.852 31.9771 59.8922C31.4191 60.0581 31.146 60.829 31.4862 61.3015C32.0794 62.1293 32.6491 62.9772 33.2758 63.7799C34.7219 65.6299 35.8681 67.6508 36.8166 69.7907C37.2875 70.8564 37.7533 71.9238 38.2024 73.0097C38.1856 73.0281 38.2694 72.9494 38.2694 72.9494C37.641 72.9795 37.14 72.7751 36.8266 72.197C36.6876 71.9406 36.4898 71.7127 36.3775 71.4463C35.2431 68.7266 33.5691 66.3353 31.8615 63.9592C31.0102 62.7745 30.226 61.5411 29.415 60.3262C28.8352 59.4599 28.5168 58.488 28.3392 57.4759C28.0342 55.7365 28.0124 53.9854 28.2788 52.2376C28.3894 51.5103 28.6441 50.8166 29.0765 50.2167C29.2373 49.9938 29.4971 49.8011 29.7535 49.6939C30.2964 49.4693 30.8829 49.3956 31.4711 49.4257C32.9323 49.5012 34.3885 49.6218 35.8011 50.0357C36.5066 50.2418 37.2204 50.3558 37.9561 50.3842C38.6565 50.4111 39.0721 49.9234 38.8056 49.3352C38.685 49.0688 38.6079 48.7806 38.4655 48.5293C34.0617 40.8361 28.4514 34.165 21.5492 28.5933C20.9845 28.1375 20.3527 27.7605 19.7294 27.3851C19.4411 27.2108 19.1512 27.2796 18.977 27.4823C18.7792 27.7119 18.7239 28.0001 18.8362 28.3017C19.344 29.6691 19.8684 31.0315 20.3745 32.3989C20.8806 33.7679 21.4034 35.1336 21.8609 36.5194C22.1357 37.3522 22.2597 38.2286 22.2077 39.1134C22.191 39.3983 22.139 39.7033 22.0167 39.9563C21.829 40.3467 21.5659 40.6735 21.0884 40.7958C19.5852 41.1813 18.5463 40.4305 17.6666 39.3849C17.199 38.8286 16.8706 38.1533 16.7148 37.4294C16.3444 35.7185 15.8283 34.036 15.7009 32.2749C15.6574 31.6884 15.4278 31.1404 15.1128 30.6411C15.039 30.5221 14.9117 30.3964 14.7843 30.3595C14.5263 30.2841 14.2196 30.3595 14.0453 30.6159C13.1438 31.9431 12.2875 33.3021 11.3743 34.6225C11.0458 35.0984 10.6286 35.5207 10.208 35.9212C9.36007 36.7289 7.89214 36.7691 6.9705 36.0854C5.60647 35.0733 4.86749 33.6875 4.529 32.0654C4.40332 31.4622 4.60272 30.8807 5.02668 30.4584C5.54112 29.9473 6.09578 29.4546 6.70574 29.0642C8.05972 28.1995 9.46731 27.422 10.8313 26.5741C11.3206 26.2691 11.7563 25.8753 12.1937 25.4949C12.2658 25.4329 12.2574 25.2184 12.2138 25.0995C12.1753 24.9939 12.0379 24.8481 11.9457 24.8498C10.6386 24.8716 9.34665 25.1279 8.03625 25.1162C7.15985 25.1078 6.27509 25.1648 5.41042 25.066C3.22027 24.8146 1.56968 23.7522 0.689936 21.6626C0.463715 21.1264 0.20733 20.5834 0.10176 20.017C-0.248463 18.1352 0.29949 16.5483 1.83612 15.3619C3.13814 14.3548 4.63455 13.8136 6.25664 13.5924C7.44807 13.4315 8.58588 13.5102 9.6131 14.2274C9.85105 14.3933 10.1259 14.5073 10.389 14.6313C10.8196 14.8357 11.3307 14.5877 11.3743 14.1906C11.5653 12.4261 11.329 10.6867 11.0341 8.96237C10.6638 6.794 10.5046 4.61222 10.4141 2.42207C10.3957 1.99811 10.5314 1.56579 10.6101 1.14016C10.6671 0.831832 10.8665 0.624039 11.1648 0.506739C11.4346 0.40117 11.6926 0.245343 11.9708 0.186694C13.4253 -0.11661 14.8849 -0.037873 16.3092 0.332459C16.6863 0.431326 16.9779 0.858639 17.308 1.13513C18.3486 4.01903 19.3691 6.90962 20.1282 9.88233C20.3427 10.7219 20.3829 11.615 20.4265 12.4881C20.4667 13.2874 20.0528 13.8638 19.3222 14.209C19.3708 14.9262 19.2166 15.5144 18.4223 15.7188C18.1123 16.4846 18.0771 16.503 17.3013 16.3589C17.623 16.3455 17.6381 16.3908 17.3582 16.488C17.3767 16.4159 17.3934 16.3439 17.4119 16.2718C17.5141 15.6937 17.9632 15.6317 18.424 15.5848C18.3687 15.2144 18.1827 14.8994 18.3921 14.4754C18.6418 13.966 19.039 14.1956 19.3724 14.1068L19.3574 14.1118ZM12.0948 28.1074C11.7697 28.6084 11.257 28.8799 10.7744 29.1899C9.44721 30.0478 8.11502 30.8974 6.79288 31.7655C6.34714 32.057 6.31866 32.8513 6.7091 33.3021C7.70447 34.4516 9.12714 34.398 9.98678 33.1429C10.637 32.1944 11.2452 31.2158 11.8502 30.2372C12.259 29.577 12.2523 28.8816 11.9222 28.2012C12.0161 28.2331 12.1116 28.2649 12.2054 28.2984C12.1434 28.3235 12.0814 28.3487 12.0194 28.3738C12.0445 28.285 12.068 28.1962 12.0932 28.1074H12.0948ZM24.9257 22.4921C24.1884 22.5272 22.5864 22.5876 20.9861 22.6931C20.5588 22.7216 20.1349 22.8657 19.721 22.9981C19.6104 23.0333 19.5166 23.2059 19.4663 23.3349C19.3674 23.5913 19.4227 23.8963 19.6875 24.0689C21.0264 24.9453 22.6082 25.3927 23.8617 26.43C25.3028 27.6231 27.0003 27.8778 28.8033 27.7337C29.3848 27.6868 29.9679 27.6583 30.5511 27.6516C32.7714 27.6231 34.8627 27.0131 36.9221 26.259C37.0579 26.2105 37.1718 26.1082 37.3025 26.0446C37.7014 25.8535 37.7885 25.2637 37.507 24.9688C36.8836 24.3152 36.1061 23.8796 35.28 23.6399C33.0429 22.9914 30.7941 22.3513 28.4162 22.4837C27.5449 22.5323 26.6668 22.4921 24.9257 22.4921ZM14.3101 2.78237C13.8493 2.84772 13.4186 2.88792 12.9963 2.97338C12.3445 3.10576 11.7094 3.9386 11.7915 4.57369C12.1066 7.01018 12.4216 9.44666 12.5171 11.9049C12.9075 13.3041 13.0131 14.7503 13.236 16.1763C13.2863 16.4997 13.4404 16.731 13.6884 16.8097C13.9867 16.9036 14.2984 16.8181 14.4408 16.5282C15.153 15.072 16.1584 13.8622 17.3951 12.8282C17.7269 12.5518 18.0252 12.2334 18.3201 11.9167C18.6251 11.5882 18.8194 11.1894 18.7558 10.7386C18.4089 8.28707 17.6498 5.95783 16.5656 3.73584C16.3696 3.33534 15.9976 3.08902 15.5602 2.99183C15.1396 2.89799 14.7106 2.84772 14.3084 2.78237H14.3101ZM31.5749 57.6384C32.4832 57.5043 33.6528 57.4206 34.7756 57.1458C36.4831 56.7285 38.2057 56.5375 39.9535 56.4872C40.2434 56.4788 40.535 56.4554 40.8232 56.4235C40.9656 56.4084 41.1031 56.3397 41.2455 56.3263C41.6175 56.2894 41.9309 55.7767 41.837 55.3427C41.641 54.4378 41.1416 53.7407 40.287 53.3788C38.2544 52.5191 36.024 52.5124 33.9159 51.9594C33.2205 51.7768 32.4849 51.7332 31.7643 51.6628C31.4811 51.6343 31.1745 51.6612 30.9013 51.7399C30.6332 51.8187 30.2947 51.9326 30.159 52.1421C29.2457 53.548 28.8771 55.0645 29.5122 56.6866C29.6663 57.0787 29.9931 57.4122 30.4707 57.4876C30.7555 57.5329 31.0404 57.5647 31.5766 57.6367L31.5749 57.6384ZM7.58214 22.7166C8.3915 22.6446 9.26286 22.5792 10.1292 22.4853C10.5615 22.4384 10.9889 22.3413 11.4162 22.2575C11.8569 22.1703 12.197 21.9022 12.5355 21.6257C12.807 21.4029 12.9494 20.7594 12.802 20.436C11.996 18.6563 10.6604 17.3426 9.07184 16.2752C8.46021 15.8629 7.74635 15.692 6.9906 15.8797C6.14437 16.0908 5.28306 16.2567 4.45693 16.5265C3.91232 16.7041 3.40625 17.0142 2.90019 17.2957C2.23996 17.6643 1.8311 18.2525 1.5345 18.9362C1.4105 19.2211 1.38535 19.4858 1.46076 19.7841C1.81098 21.1867 2.71923 22.0346 4.07153 22.4468C5.20096 22.7903 6.35384 22.8674 7.58214 22.7166ZM20.1667 19.7037C22.9099 19.3183 25.7033 18.6396 28.3911 17.5604C28.6492 17.4566 28.8536 17.2236 29.0865 17.0544C29.4032 16.8231 29.3915 16.2718 29.0564 15.9551C27.9085 14.8743 26.5478 14.5542 25.0598 14.9882C23.3874 15.4758 21.8357 16.2383 20.4332 17.2856C19.85 17.7213 19.3021 18.1989 18.977 18.8558C18.8262 19.1591 18.9569 19.4624 19.2015 19.5428C19.4679 19.6299 19.7612 19.64 20.1701 19.702L20.1667 19.7037ZM16.6008 31.3784C16.5924 31.3231 16.6729 31.752 16.7097 32.1844C16.8304 33.6422 17.2862 35.023 17.7001 36.4105C17.8676 36.9736 18.2212 37.436 18.6753 37.8198C19.0306 38.1181 19.4277 38.2085 19.8768 38.1449C20.3745 38.0745 20.7197 37.6723 20.6175 37.2802C19.8165 34.1835 18.4391 31.3046 17.2577 28.352C17.2091 28.2297 17.07 28.1124 16.946 28.0604C16.822 28.0085 16.6444 28.0001 16.522 28.0504C16.4115 28.0956 16.3059 28.233 16.2606 28.352C15.9322 29.2385 16.3863 30.0512 16.6008 31.3784ZM46.3212 56.5559C46.5759 56.5207 46.9965 56.4755 47.4104 56.3967C47.5093 56.3783 47.6366 56.2576 47.6618 56.1621C47.6953 56.0331 47.697 55.832 47.6182 55.7482C46.6195 54.6841 45.3895 54.0373 43.9467 53.8144C43.8495 53.7993 43.7054 53.9284 43.625 54.0256C43.5462 54.1228 43.4842 54.2619 43.4792 54.3859C43.4591 54.8383 43.7322 55.1835 43.9518 55.5454C44.2618 56.0565 44.6941 56.3917 45.3057 56.457C45.5889 56.4872 45.8704 56.5123 46.3212 56.5559ZM47.2579 59.6308C47.2311 59.4918 47.2328 59.3376 47.1708 59.2152C47.1088 59.0946 47.0016 58.9656 46.8809 58.9103C46.5944 58.7762 46.3229 58.8449 46.1319 59.0862C46.0514 59.1885 45.9911 59.3292 45.9743 59.4582C45.9107 59.9392 46.1201 60.2676 46.5659 60.4268C46.9429 60.5609 47.2596 60.1956 47.2579 59.6308Z" fill="#8DC0FF"/>
<path d="M90.5517 49.6402C90.2401 49.7324 89.9753 49.6754 89.7424 49.4911C89.4022 49.2196 89.0788 48.9129 88.7035 48.7035C88.4169 48.5426 88.1237 48.6666 87.9829 48.923C87.4835 49.8346 87.8639 50.964 87.269 51.8538C87.1953 51.9644 87.0612 52.0348 86.954 52.1203C86.6742 52.3431 86.4161 52.3079 86.1999 52.003C85.9486 51.6494 85.6704 51.3075 85.471 50.9255C84.9985 50.0222 84.5795 49.0922 84.1137 48.1874C83.9143 47.802 83.6462 47.45 83.4149 47.0814C83.2088 46.7513 82.505 46.6608 82.2872 46.9256C81.5314 47.8455 81.0304 48.8644 80.9097 50.0709C80.8092 51.0796 80.9667 52.1085 80.6315 53.1005C80.5126 53.4524 80.3484 53.5881 79.978 53.5178C79.6999 53.4641 79.3982 53.3837 79.2675 53.1139C79.0799 52.7268 78.9441 52.3046 78.8603 51.8823C78.6894 51.026 78.5403 50.1647 78.433 49.2983C78.3442 48.5761 78.5738 48.2108 79.3547 48.6515C79.4183 48.6884 79.6379 48.5828 79.6898 48.4906C80.3199 47.3495 80.7941 46.1179 81.6085 45.0823C81.7844 44.8594 82.0157 44.6767 82.2335 44.4874C82.4715 44.2813 83.2507 44.4137 83.4333 44.655C83.8757 45.2381 84.2276 45.8665 84.5192 46.5385C84.6918 46.9356 84.9448 47.2975 85.1744 47.6696C85.3453 47.946 85.5749 48.1304 85.8212 48.1053C86.1329 48.0734 86.3055 47.8371 86.4396 47.5472C86.8116 46.7496 86.577 45.8079 87.0696 45.0387C87.2707 44.7253 87.4785 44.6583 87.7885 44.9013C87.9008 44.9884 88.0449 45.0571 88.117 45.1711C88.8861 46.4027 89.6619 47.631 90.3909 48.8878C90.5199 49.109 90.4445 49.4475 90.4646 49.7307L90.5501 49.6435L90.5517 49.6402Z" fill="#8DC0FF"/>
<path d="M61.2872 96.4564C61.5603 96.4966 61.8854 96.4547 62.0949 96.5921C62.5976 96.9222 62.859 97.4551 63.0366 98.0231C63.1355 98.3365 62.7015 99.0001 62.3815 99.0118C61.9491 99.0252 61.5051 99.1023 61.0861 99.0336C60.2248 98.8945 59.3685 98.6985 58.5206 98.4856C56.2383 97.9142 53.9409 97.6696 51.5798 97.8572C49.5438 98.0198 47.4978 98.0416 45.4551 98.0969C45.0261 98.1086 44.5938 97.9997 44.1631 97.9343C43.8866 97.8924 43.3672 97.3026 43.3303 97.0093C43.1694 95.709 42.9683 94.4103 43.1359 93.0949C43.1544 92.9558 43.1946 92.7916 43.2867 92.6977C43.4526 92.5285 43.6302 92.6625 43.7459 93.0379C44.0508 94.0215 43.7358 95.0856 44.1531 96.0592C44.2938 96.3877 44.7563 96.8485 45.0931 96.8786C45.3814 96.9038 45.6746 96.9792 45.9578 96.9557C46.975 96.8736 47.9938 96.7949 49.0042 96.6491C50.4537 96.4413 51.8965 96.2703 53.3628 96.4681C53.7917 96.5267 54.2392 96.5133 54.6732 96.4731C55.7071 96.3742 56.7041 96.5234 57.6995 96.7965C58.2592 96.949 58.8491 96.9859 59.4272 97.073C60.2047 97.192 60.8616 96.9708 61.3827 96.3726L61.2822 96.458L61.2872 96.4564Z" fill="#8DC0FF"/>
<path d="M38.0503 76.6579C38.7876 76.5993 39.4411 76.7166 39.8081 77.4707C39.8684 77.5947 39.9925 77.6869 40.0528 77.8109C40.4248 78.5649 40.8236 79.3072 41.1403 80.0848C41.5173 81.0081 41.6514 81.9767 41.4 82.967L41.4922 82.8899C41.1721 82.8866 40.8755 82.8044 40.7398 82.5631C40.0913 81.4153 39.7193 80.1585 39.3088 78.9118C39.039 78.0957 38.791 77.2327 38.119 76.6077L38.0503 76.6579Z" fill="#8DC0FF"/>
<path d="M41.3998 82.965C41.5992 83.1661 41.9093 83.3353 41.978 83.5732C42.3399 84.825 42.6466 86.0935 42.9582 87.3587C43.0839 87.8664 42.8644 88.6372 42.6449 88.5535C42.4153 88.4663 42.2746 88.2585 42.1556 87.9535C41.673 86.7303 41.3378 85.4735 41.244 84.1564C41.2122 83.709 41.316 83.2984 41.487 82.8912C41.4903 82.8879 41.3982 82.965 41.3982 82.965H41.3998Z" fill="#8DC0FF"/>
<path d="M38.1189 76.6073C38.0284 75.922 37.9363 75.2366 37.8491 74.5512C37.7771 73.9798 37.9095 73.457 38.2429 72.9643C38.258 72.9493 38.1742 73.028 38.191 73.0096C38.3183 73.4 38.439 73.8039 38.5362 74.2161C38.7406 75.0791 38.63 75.8902 38.0703 76.6375C38.0485 76.6576 38.1173 76.6073 38.1173 76.6073H38.1189Z" fill="#8DC0FF"/>
<path d="M39.6806 38.9509C39.079 38.9995 38.8562 38.8772 38.8511 38.4616C38.8478 38.1382 39.0003 37.9589 39.2265 38.0108C39.3321 38.036 39.4661 38.165 39.4913 38.2705C39.5516 38.5236 39.5549 38.7884 39.5817 39.0498L39.6806 38.9509Z" fill="#8DC0FF"/>
<path d="M61.3856 96.3707C60.6248 95.7675 60.4371 95.0486 60.9616 94.1839C60.9717 94.1755 60.8694 94.266 60.8795 94.2559C61.4107 94.9078 61.7743 95.5999 61.2917 96.4511C61.2867 96.4562 61.3856 96.3707 61.3856 96.3707Z" fill="#8DC0FF"/>
<path d="M48.3154 37.9355C48.5567 38.5471 48.798 39.1605 49.0393 39.7755C49.0393 39.7788 48.9975 39.7721 48.9958 39.7755C49.1013 39.1069 48.8198 38.5505 48.4679 38.0143L48.3154 37.9338V37.9355Z" fill="#8DC0FF"/>
<path d="M39.5815 39.05C40.0055 39.2343 40.2636 39.5276 40.2116 40.0219L40.3055 39.9616C39.7877 39.8208 39.6033 39.4706 39.6771 38.9561C39.6804 38.9528 39.5815 39.0517 39.5815 39.0517V39.05Z" fill="#8DC0FF"/>
<path d="M40.2114 40.0217C40.7007 40.2814 41.1917 40.5411 41.681 40.7992L41.5972 40.6283C41.3224 40.1155 40.8398 39.9948 40.312 39.9563C40.3053 39.9597 40.2131 40.0217 40.2131 40.0217H40.2114Z" fill="#8DC0FF"/>
<path d="M41.6816 40.7993C41.5995 40.7792 41.5157 40.759 41.4336 40.7406C41.5392 40.9869 41.5877 40.9467 41.5877 40.625C41.5978 40.6284 41.6816 40.7993 41.6816 40.7993Z" fill="#8DC0FF"/>
<path d="M48.4676 38.0159C48.3871 38.0276 48.305 38.0393 48.2246 38.0511C48.3855 38.2572 48.4223 38.222 48.3251 37.9421C48.3151 37.9371 48.4676 38.0159 48.4676 38.0159Z" fill="#8DC0FF"/>
<path d="M36.8298 71.7529C37.7096 73.6632 38.4016 75.6573 38.9077 77.6983L39.826 77.3112C39.4959 76.7096 39.1674 76.1081 38.8373 75.5065C38.5592 74.9987 37.7833 75.3489 37.919 75.8935C39.1138 80.6978 42.1033 84.924 42.7752 89.8774C42.9545 91.2029 42.9478 92.5635 42.6646 93.8739C42.6077 94.1387 42.7434 94.4168 43.0165 94.4922C43.2679 94.5609 43.5779 94.4085 43.6349 94.1404C44.7442 89.0093 42.1368 84.2218 40.2516 79.6321C39.7154 78.3267 39.2311 76.9962 38.8909 75.6254L37.9727 76.0125C38.3028 76.6141 38.6312 77.2157 38.9613 77.8172C39.2395 78.325 40.0153 77.9748 39.8796 77.4302C39.3518 75.3037 38.6161 73.2342 37.6995 71.2434C37.5856 70.9971 37.2303 70.9351 37.0125 71.0625C36.7594 71.2099 36.7176 71.5032 36.8315 71.7495L36.8298 71.7529Z" fill="#8DC0FF"/>
<path d="M55.3169 83.3589C54.9164 84.3894 55.074 85.6362 55.7124 86.5377C55.8632 86.7522 56.1581 86.8745 56.3994 86.7187C56.6407 86.5628 56.691 86.2897 56.5804 86.0316C56.557 85.9746 56.5519 85.9663 56.567 86.0031C56.5536 85.9696 56.5402 85.9361 56.5251 85.9026C56.505 85.8523 56.4849 85.8021 56.4648 85.7518C56.4195 85.6345 56.3743 85.5172 56.3324 85.3982C56.2503 85.1703 56.1766 84.9391 56.1095 84.7045C55.9721 84.2286 55.8649 83.746 55.7845 83.2583C55.7426 82.9986 55.4057 82.8293 55.1661 82.9064C54.8846 82.9969 54.769 83.2466 54.8142 83.5248C54.9851 84.5671 55.2935 85.5691 55.709 86.5377L56.5771 86.0299C56.5067 85.9294 56.4413 85.8272 56.3827 85.72C56.3542 85.6663 56.3274 85.611 56.3006 85.5557C56.2503 85.4502 56.3157 85.6077 56.2805 85.5071C56.2402 85.3915 56.2 85.2776 56.1699 85.1586C56.1548 85.0999 56.1414 85.0396 56.1313 84.9793C56.1263 84.9491 56.1213 84.919 56.1162 84.8888C56.123 84.9391 56.123 84.9458 56.1196 84.9089C56.0978 84.6776 56.0995 84.4548 56.1196 84.2236C56.1246 84.1867 56.123 84.1934 56.1162 84.2436C56.1213 84.2135 56.1263 84.1833 56.1313 84.1531C56.1431 84.0928 56.1548 84.0342 56.1699 83.9738C56.2 83.8549 56.2386 83.7393 56.2821 83.6253C56.3777 83.379 56.1766 83.0623 55.9302 83.007C55.642 82.9416 55.4141 83.0958 55.3119 83.3589H55.3169Z" fill="#8DC0FF"/>
<path d="M59.8277 93.609C60.488 94.9914 61.0677 96.4074 61.5721 97.8552L62.4904 97.4681C62.343 97.1481 62.1955 96.8297 62.048 96.5096C61.9341 96.2633 61.5788 96.2013 61.361 96.3287C61.1079 96.4761 61.0661 96.7694 61.18 97.0157C61.3275 97.3358 61.4749 97.6541 61.6224 97.9742C61.8604 98.4886 62.7284 98.125 62.5407 97.5871C62.0095 96.0589 61.3928 94.5608 60.6957 93.1013C60.5784 92.8566 60.2282 92.7912 60.0087 92.9203C59.7573 93.0661 59.7104 93.3627 59.8277 93.6073V93.609Z" fill="#8DC0FF"/>
<path d="M89.7626 48.9449C89.9704 49.7576 90.3189 50.5401 90.7898 51.2339C90.9373 51.4517 91.2389 51.569 91.4768 51.4149C91.693 51.2758 91.8153 50.959 91.6578 50.7278C91.4366 50.4027 91.2439 50.0609 91.0814 49.704C91.063 49.6637 91.0412 49.6218 91.0261 49.5799C91.0713 49.7056 91.0127 49.5448 91.0026 49.5213C90.9674 49.4325 90.9339 49.342 90.9021 49.2498C90.8367 49.0621 90.7797 48.8711 90.7295 48.6767C90.6641 48.422 90.3659 48.2427 90.1111 48.3248C89.8564 48.4069 89.6905 48.67 89.7592 48.9432L89.7626 48.9449Z" fill="#8DC0FF"/>
<path d="M77.228 43.2356C77.4173 45.9687 77.7391 48.6917 78.1848 51.393C78.2284 51.6611 78.5619 51.8102 78.8032 51.7449C79.088 51.6661 79.1986 51.3947 79.155 51.1266C78.7227 48.5125 78.4177 45.8799 78.2334 43.2356C78.215 42.9642 78.0156 42.7329 77.7307 42.7329C77.4726 42.7329 77.2095 42.9642 77.228 43.2356Z" fill="#8DC0FF"/>
<path d="M50.8877 39.7218C50.2359 39.5794 49.7382 39.1453 49.2271 38.7013C48.644 38.1969 48.0457 37.6908 47.2967 37.4596C45.497 36.9032 43.8079 38.0561 42.0651 38.2924C41.0563 38.4298 40.0358 38.2723 39.0991 37.8835C38.8477 37.7797 38.5461 37.9958 38.4808 38.2354C38.402 38.5236 38.5796 38.7499 38.8327 38.8538C39.7024 39.2141 40.6609 39.3816 41.6026 39.3381C42.5444 39.2945 43.4275 39.0113 44.3189 38.7281C45.0747 38.4885 45.9209 38.2019 46.7253 38.3544C47.419 38.4851 47.9418 38.9141 48.473 39.3749C49.1115 39.9279 49.7734 40.506 50.623 40.692C50.8877 40.7507 51.1659 40.6133 51.2413 40.3401C51.31 40.0888 51.1558 39.7804 50.8894 39.7218H50.8877Z" fill="#8DC0FF"/>
<path d="M39.6053 39.0296C40.1449 40.5243 41.5793 41.3421 43.0288 41.7711C43.8566 42.0174 44.7179 42.2067 45.5776 42.3022C46.4372 42.3978 47.3304 42.3022 48.2001 42.0844C49.2105 41.8314 50.2159 41.5582 51.223 41.2935C51.5364 41.2114 51.4023 40.7271 51.089 40.8092C50.2629 41.0254 49.4367 41.2415 48.6106 41.4577C47.7845 41.6739 46.9869 41.8716 46.1306 41.8398C45.2743 41.8079 44.5018 41.6337 43.7092 41.4342C42.9584 41.2466 42.2127 41.0069 41.5525 40.5947C40.8923 40.1825 40.3494 39.6178 40.0879 38.8939C39.979 38.5923 39.4931 38.7229 39.6037 39.0279L39.6053 39.0296Z" fill="#8DC0FF"/>
</svg>
