<svg width="72" height="93" viewBox="0 0 72 93" fill="none" xmlns="http://www.w3.org/2000/svg">
<path d="M51.6454 72.0637C51.9554 71.7285 52.0911 71.3414 52.0124 70.8839C51.9504 70.527 51.7493 70.3444 51.4007 70.3913C50.9734 70.4499 50.5361 70.4968 50.1255 70.6225C46.9115 71.6011 43.6321 72.3586 40.4449 73.4327C40.0327 73.5718 39.592 73.6673 39.158 73.6924C36.8204 73.8282 34.4693 73.9522 32.1686 73.4159C30.7493 73.0858 29.2998 72.8345 27.9441 72.2547C27.6827 72.1424 27.3777 72.129 27.0912 72.0787C26.5868 71.9899 25.8797 72.5412 26.012 73.1394C26.0422 73.2785 25.9919 73.4411 26.0372 73.5718C26.7108 75.5307 26.9622 77.5231 26.808 79.6027C26.7225 80.7572 26.8968 81.9369 27.0275 83.0965C27.1415 84.112 27.4531 85.1107 27.5101 86.1262C27.6056 87.7717 28.4988 88.8174 29.8209 89.6033C30.0672 89.7491 30.3471 89.8882 30.6253 89.925C32.2205 90.1395 33.8175 90.3071 35.4329 90.0842C36.8807 89.8831 38.3402 89.7642 39.7881 89.5631C40.6544 89.4424 41.509 89.238 42.367 89.0553C43.3657 88.8442 44.3627 88.618 45.3598 88.3951C45.9697 88.2577 46.4071 87.9259 46.5763 87.2975C46.9551 85.8866 47.3254 84.4723 47.7225 83.068C47.7996 82.7949 47.9655 82.5368 48.1364 82.3073C48.2001 82.2235 48.4012 82.2134 48.5369 82.2201C48.8184 82.2335 49.1016 82.4296 49.0782 82.7379C48.9089 85.0856 48.3023 87.3377 47.4645 89.5279C47.3706 89.7709 47.0992 90.0222 46.8512 90.1161C46.1708 90.3758 45.4704 90.5987 44.7582 90.7545C43.1881 91.098 41.5978 91.3611 40.031 91.7164C38.7223 92.0146 37.4236 92.0582 36.1199 91.7566C34.8296 91.4583 33.5259 91.3494 32.2055 91.3243C31.0107 91.3025 29.8796 91.4533 28.8239 92.0599C28.5893 92.194 28.2592 92.2275 27.981 92.204C27.7062 92.1822 27.3861 92.0951 27.1817 91.9242C26.4963 91.3494 26.1377 90.5518 25.8595 89.7223C25.8143 89.5899 25.8059 89.4173 25.8528 89.2883C26.1545 88.4454 26.3706 87.6109 25.8646 86.7663C25.4071 84.7622 25.0703 82.7497 25.4507 80.6885C25.5596 80.0987 25.4557 79.539 25.2211 78.9826C24.4653 77.1997 24.1503 75.3363 24.3631 73.4076C24.4469 72.6552 24.3045 71.9648 24.0833 71.2627C23.7565 70.2254 23.9392 69.2501 24.4788 68.3151C24.7653 67.8191 24.8809 67.2108 25.4691 66.9041C26.0288 67.4638 25.8964 68.2598 26.1494 68.9317C26.4259 69.6607 26.9069 70.222 27.6023 70.4784C29.5193 71.1872 31.4782 71.7117 33.5209 71.9933C36.6143 72.4222 39.6305 72.1809 42.6267 71.3816C44.3175 70.9309 46.0183 70.5186 47.7058 70.0612C48.9709 69.7176 50.2361 69.3658 51.4761 68.9401C52.0174 68.7541 52.5268 68.4257 52.991 68.0788C53.6126 67.6146 53.8774 66.8991 53.8691 66.1601C53.8624 65.5619 53.4451 65.1078 52.9608 64.7391C52.3693 64.29 51.7308 63.9616 50.9952 63.8309C49.4117 63.5494 47.8264 63.3298 46.2077 63.3667C44.8956 63.3969 43.5819 63.3265 42.2681 63.3198C41.9816 63.3198 41.6967 63.4069 41.4085 63.4388C41.0549 63.479 40.8538 64.1057 41.0432 64.4861C41.2526 64.905 41.6012 65.1631 42.0033 65.3256C43.1143 65.7747 44.2706 65.8367 45.4436 65.6155C46.1574 65.4798 46.8646 65.2938 47.5835 65.2066C47.8767 65.1714 48.108 65.4178 48.2135 65.6725C48.3442 65.9892 48.2688 66.2556 48.0057 66.455C47.6589 66.7181 47.3388 67.0432 46.9517 67.2208C46.1574 67.5845 45.3347 67.8878 44.5102 68.176C43.6439 68.4776 42.8244 68.4793 42.0503 67.8308C41.7369 67.5677 41.266 67.4052 40.8521 67.3666C40.1299 67.2996 39.3943 67.3784 38.6653 67.3717C37.4638 67.3616 36.3864 67.7068 35.3424 68.305C34.5515 68.7575 33.6801 68.7156 32.8322 68.3184C32.3948 68.114 32.1636 67.1035 32.5171 66.7935C32.9545 66.4098 33.4472 66.0881 33.8694 65.6892C34.0689 65.5032 34.1845 65.2117 34.2951 64.9519C34.4744 64.5364 34.3537 64.0688 34.0337 63.7672C33.8074 63.5544 33.5393 63.4673 33.226 63.5343C32.7987 63.6264 32.3781 63.7454 31.9491 63.8259C29.6081 64.2682 27.4934 65.1748 25.7322 66.8203C25.6283 66.9159 25.4775 66.9611 25.3484 67.0298C25.4289 66.7516 25.5143 66.4752 25.5898 66.1953C25.8696 65.1664 26.4611 64.3973 27.4196 63.8979C29.2311 62.9545 31.1129 62.2423 33.1589 62.0228C33.732 61.9608 34.3085 61.8854 34.8715 61.7681C35.4614 61.6441 35.9507 61.2939 36.2255 60.771C36.6947 59.8762 37.0499 58.9227 37.5292 58.0346C37.7252 57.671 38.119 57.4146 38.4223 57.1113C38.4223 57.3945 38.4726 57.6894 38.4089 57.9575C38.1827 58.9261 37.9096 59.8846 37.68 60.8515C37.6599 60.9369 37.8124 61.0945 37.918 61.1715C38.2631 61.4195 38.8882 61.1967 38.9385 60.8531C39.0457 60.1326 38.977 59.4338 38.7189 58.7568C38.5162 58.2273 38.2816 57.7095 38.4358 57.1197C38.3268 56.8549 38.1107 56.5834 38.1274 56.3287C38.1559 55.9215 37.6783 54.71 37.4789 52.7444C37.4186 52.1495 37.4856 52.483 37.432 49.8337C37.3918 47.8496 37.3666 47.6888 37.2695 47.424C36.936 46.5241 36.3378 45.9728 36.5707 45.3143C36.5824 45.2824 36.7248 44.887 36.8891 44.8987C37.4353 44.9389 38.1978 49.5253 38.7776 51.0553C38.8279 51.186 38.9452 51.4759 39.1865 51.5429C39.4412 51.6133 39.7009 51.4038 39.9891 51.1659C40.3745 50.8475 40.8437 50.447 41.3749 49.9694C40.9326 51.1575 40.636 52.1713 40.4399 52.912C40.4399 52.912 39.463 56.6303 39.9539 59.7773C39.9975 60.0572 40.1399 60.3219 40.2422 60.5917C40.4097 61.0341 40.7784 61.3374 41.1856 61.4229C42.7541 61.753 44.346 61.8653 45.953 61.7848C46.6769 61.748 47.4058 61.7664 48.1297 61.8033C49.7233 61.8854 51.3186 61.9775 52.9089 62.1099C53.1652 62.1317 53.5121 62.316 53.6294 62.5305C54.1254 63.4304 54.7957 64.1778 55.471 64.9402C56.4379 66.0328 56.3374 67.2409 55.4945 68.0872C53.2691 70.3209 53.4149 71.0398 52.7748 71.4671C52.3609 71.7453 51.9654 71.9329 51.6336 72.0653L51.6454 72.0637ZM38.5698 64.4174C38.3201 63.67 37.3951 63.4103 36.8572 63.9465C36.7667 64.037 36.6863 64.2079 36.7047 64.3269C36.7852 64.8598 37.3599 65.3156 37.8878 65.3038C38.2916 65.2954 38.6888 64.776 38.5681 64.4174H38.5698Z" fill="#8DC0FF"/>
<path d="M45.9248 28.0094C46.5214 27.9675 47.076 28.1418 47.6374 28.3127C48.9914 28.7249 49.236 28.3127 49.732 27.3508C51.0022 24.8842 52.1769 22.3656 53.3549 19.852C53.4555 19.6392 53.3248 19.2974 53.251 19.0309C53.1756 18.7527 53.0382 18.493 52.9293 18.2249L53.0181 18.3388C53.1187 18.0791 53.1773 17.7926 53.3281 17.5663C53.6415 17.0971 54.0101 16.6631 54.3453 16.2073C54.8296 15.5454 54.7056 14.8886 54.3067 14.2417C54.233 14.1211 54.1492 14.0055 54.0755 13.8848C53.494 12.9414 53.4957 12.923 52.3914 13.0922C51.9708 13.1576 51.5619 13.2397 51.1866 12.9548L51.2519 13.0285C50.9654 12.3834 50.89 11.6444 50.1778 11.2104C49.4304 10.7546 48.8489 10.096 48.3479 9.36543C47.81 8.58119 47.7933 7.3311 48.4066 6.5033C48.5658 6.28881 48.8489 6.10953 49.1087 6.03915C49.5226 5.9252 49.9633 5.8833 50.3939 5.8699C51.5552 5.83136 52.7265 6.02238 53.871 5.73919C54.109 5.68054 54.4358 5.39733 54.4642 5.18284C54.5815 4.3232 54.5732 3.4485 54.6553 2.58215C54.7709 1.38067 55.9523 0.579671 57.189 0.814271C58.3435 1.03379 59.4394 1.39574 60.4164 2.06434C61.0163 2.47489 61.6229 2.88042 62.1943 3.32784C62.8914 3.87412 63.441 4.53602 63.6957 5.41744C63.7745 5.68891 63.9253 5.95703 64.1046 6.17822C64.2806 6.39439 64.5085 6.6273 64.7598 6.71109C65.5776 6.98088 66.4824 6.86694 67.2767 7.311C68.1632 7.80534 69.1083 8.19746 69.9897 8.70017C70.4891 8.98505 70.9717 9.34866 71.3521 9.77597C71.7308 10.2016 72.0307 10.7345 71.843 11.3964C71.3839 11.5237 70.9398 11.4517 70.6516 11.1098C69.7786 10.0793 68.6156 9.49444 67.4292 8.95487C67.0522 8.78394 66.5914 8.78731 66.1657 8.73704C65.8272 8.69682 65.5893 8.85098 65.4888 9.15429C65.1653 10.1396 65.1084 11.1417 65.4519 12.1253C65.5357 12.3666 65.8088 12.6414 66.0484 12.7118C67.1578 13.0285 68.2838 13.2849 69.4082 13.548C69.7082 13.6184 69.9746 13.4994 70.2176 13.3033C70.9063 12.7487 71.3571 12.003 71.8581 11.2958C71.6654 12.1337 71.4794 12.9732 71.275 13.8077C71.1493 14.3188 70.5477 14.783 70.0215 14.8031C69.5926 14.8199 69.1619 14.8567 68.7346 14.84C68.0191 14.8115 67.3035 14.7394 66.588 14.7026C65.9261 14.6674 65.6295 14.8199 65.1419 15.4382C64.8754 15.775 64.6123 16.1118 64.3476 16.4503L64.4599 16.5743C64.4264 15.9929 64.4012 15.4114 64.3576 14.8316C64.3158 14.2954 63.9337 13.9099 63.56 14.0524C62.4674 14.4696 61.338 14.7026 60.1818 14.8517C59.6707 14.9171 59.3959 15.3511 59.4679 15.7532C59.6187 16.5978 60.2706 17.3267 60.041 18.2567L59.9673 18.3238C59.6472 18.3405 59.3825 18.2433 59.2048 18.0071C58.7725 17.4289 58.367 16.8324 57.9162 16.2693C57.7269 16.0314 57.3884 16.028 57.1571 16.2861C56.2774 17.2597 55.5501 18.3522 54.9485 19.5118C53.7454 21.8344 52.6076 24.1888 51.4496 26.5348C51.2167 27.0073 51.4295 27.7731 51.8602 28.0965C52.0914 28.2691 52.3328 28.4317 52.5707 28.5959C52.8841 28.8104 53.4923 28.8724 53.365 29.3483C53.251 29.7689 52.6746 29.7839 52.2573 29.861C51.9456 29.918 51.6826 30.0135 51.5418 30.2448C51.4781 30.3503 51.4681 30.5213 51.5016 30.6453C51.5368 30.7743 51.634 30.962 51.7362 30.9854C52.2992 31.1162 52.8673 31.2552 53.4404 31.2971C54.8932 31.401 56.3377 31.515 57.7386 31.959C58.315 32.1417 58.8948 32.0445 59.4327 31.7881C60.1633 31.4396 60.8286 31.5535 61.4771 31.9926C62.8177 32.9008 63.9571 34.0051 64.7883 35.4026C64.9458 35.6691 64.9207 35.969 64.7749 36.1986C64.5939 36.4835 64.3208 36.5471 64.0024 36.4064C63.8734 36.3494 63.741 36.2924 63.6254 36.212C63.3874 36.0444 63.1662 35.8551 62.9283 35.6875C61.6045 34.7591 60.1751 34.0956 58.5748 33.7722C57.4403 33.5426 56.2858 33.3465 55.2669 32.7181C54.7609 32.4064 54.1693 32.3327 53.5845 32.3461C52.4115 32.3746 51.2804 32.2322 50.1594 31.8384C49.9667 31.7714 49.7756 31.7512 49.5896 31.7781C49.1003 31.8484 48.7903 32.2556 48.6646 32.4198C48.177 33.0516 46.6672 35.9774 44.7837 40.0326C44.7652 39.8416 44.7418 39.4813 44.7837 39.0355C45.0468 36.2572 47.3894 35.4831 47.6877 32.8455C47.7363 32.4199 47.8368 31.525 47.4279 30.595C47.3308 30.3755 47.2453 30.2414 46.7174 29.3583C46.3756 28.7852 46.0991 28.3194 45.9198 28.0161L45.9248 28.0094ZM57.2225 9.3805C57.3079 9.3738 56.7332 9.39391 56.1634 9.46764C55.8869 9.50451 55.6238 9.64862 55.3541 9.73911C55.0558 9.83965 54.9184 10.0608 54.8044 10.3574C54.5883 10.9238 54.6218 11.4869 54.7491 12.0499C54.9251 12.8258 55.9774 13.6083 56.6829 13.4407C58.2329 13.0754 59.8098 13.0051 61.3866 12.8861C62.4658 12.804 63.2584 12.2242 63.7544 11.254C63.9102 10.9473 63.87 10.706 63.6639 10.4781C63.369 10.148 63.0305 9.88991 62.5998 9.79104C61.0464 9.43077 59.4696 9.32688 57.2191 9.38218L57.2225 9.3805ZM59.5651 7.70982C59.5651 7.70982 59.5651 7.70143 59.5651 7.69808C60.4281 7.74165 61.2911 7.7869 62.1541 7.82879C62.4289 7.8422 62.8813 7.17863 62.826 6.83511C62.7356 6.26034 62.5831 5.7107 62.1826 5.26161C61.2073 4.17073 60.0243 3.35129 58.7239 2.71452C58.2145 2.46484 57.633 2.3576 57.075 2.22019C56.3712 2.04424 55.6071 2.75977 55.6724 3.43341C55.7864 4.59635 56.326 5.64033 56.5421 6.77143C56.6226 7.19036 57.0566 7.56571 57.4085 7.58582C58.1274 7.62939 58.8462 7.66793 59.5651 7.70815V7.70982ZM51.1866 6.877C50.6453 6.91889 50.2163 6.95407 49.7873 6.98591C49.2092 7.0278 48.8959 7.6696 49.1372 8.27286C49.355 8.81747 49.6315 9.31514 50.0873 9.68715C50.8782 10.3323 51.7731 10.7663 52.7952 10.9004C53.0969 10.9406 53.4169 10.8149 53.5108 10.5233C53.7269 9.84634 53.8761 9.14757 54.0302 8.45215C54.1459 7.93268 53.7085 7.23391 53.2125 7.15515C52.5053 7.04288 51.7932 6.95911 51.1866 6.877Z" fill="#8DC0FF"/>
<path d="M12.191 3.68792C12.3066 3.77338 12.4088 3.89571 12.5379 3.9376C13.5232 4.26604 14.4968 4.18895 15.4536 3.80689C15.7938 3.67116 16.0653 2.99584 15.8642 2.71265C15.6195 2.36578 15.405 1.99713 15.152 1.65696C14.9241 1.35198 14.9057 1.13916 15.1486 0.978291C15.3866 0.820774 15.6815 0.736982 15.948 0.887796C16.1775 1.0185 16.4473 1.24305 16.5076 1.47429C16.6517 2.0189 16.6819 2.59535 16.7556 3.15839C16.8143 3.61754 17.0757 3.95604 17.4561 4.16885C17.9504 4.44534 18.5051 4.62632 18.7967 5.17092C17.9203 5.13573 17.064 5.16756 16.2764 5.64514C15.8843 5.88309 15.5022 5.77586 15.085 5.57645C13.5316 4.83244 12.2966 5.59656 11.147 6.53495C10.8169 6.80474 10.7197 7.25383 10.6812 7.70795C10.5773 8.91949 11.0767 9.96514 11.5191 11.046C11.1303 11.2102 10.6376 11.2655 10.3494 11.5386C9.7076 12.1452 9.26857 12.9127 9.16803 13.8226C9.11775 14.2834 9.28533 14.6806 9.60204 15.009C10.1735 15.6022 11.4286 15.619 12.0033 15.0693C12.4323 14.6588 12.7524 14.1779 13.0171 13.6534C13.2031 13.2864 13.0925 12.7485 12.7289 12.5038C12.1273 12.0983 11.4638 11.7565 11.4001 10.9086C14.0728 11.3711 14.5839 10.9923 15.6044 8.91781C15.7335 8.6564 15.8374 8.36651 16.0267 8.15537C16.211 7.94926 16.4674 7.76827 16.7272 7.68113C17.4058 7.45324 18.1783 7.54037 18.7732 7.01085C19.0279 6.78463 19.1754 6.57014 19.0748 6.26013C18.9424 5.84959 18.79 5.44406 18.6458 5.03686C18.9341 5.02345 19.2256 4.97319 19.5105 5.00335C20.5595 5.11227 21.1075 5.97025 20.6651 6.8148C20.397 7.3259 20.0702 7.80346 19.792 8.30953C19.4871 8.86419 19.5105 9.43728 19.8691 9.95005C20.5344 10.9019 21.2365 11.8268 21.9185 12.7669C23.4551 14.8817 24.9683 17.0115 26.3055 19.262C26.6139 19.7798 26.7295 20.3311 26.6122 20.926L26.6993 20.8489C26.3826 20.8824 26.0793 20.8288 25.9184 20.6009C25.0789 19.4145 24.2511 18.2197 23.4384 17.0165C22.7865 16.0513 22.1112 15.1079 21.2616 14.3019C21.079 14.1293 20.2143 14.0874 20.0183 14.265C19.911 14.3622 19.7971 14.4661 19.73 14.5901C19.3513 15.2889 18.7347 15.5938 17.9839 15.7313C16.9014 15.929 15.9949 15.5318 15.1051 14.9856C14.7666 14.7778 14.1415 14.8984 13.8935 15.1531C13.6924 15.3592 13.5132 15.5871 13.3121 15.7949C13.111 16.0027 12.9032 16.2072 12.6853 16.3965C12.2195 16.802 11.6447 16.9394 11.0616 16.8925C10.4851 16.8456 9.91707 16.6864 9.34901 16.5607C8.62342 16.3999 8.20114 15.7899 8.2246 14.9453C8.25309 13.9265 8.28158 12.9077 8.67202 11.9391C8.83624 11.5319 8.90494 11.108 8.84629 10.6639C8.80775 10.3606 8.70889 10.0606 8.42067 9.95005C7.88611 9.74394 7.32475 9.60486 6.77344 9.44734C6.35004 9.32557 5.98027 8.95356 5.66412 8.33131C5.59877 8.20396 5.48649 8.10174 5.37925 8.00288C5.36081 8.01963 5.31055 8.07159 5.31055 8.07159C5.59374 8.41511 5.96239 8.60111 6.40143 8.63295C7.83751 8.73516 8.91331 8.07494 9.57354 6.8768C10.0645 5.987 10.6091 5.19271 11.3883 4.54421C11.7134 4.27442 11.9631 3.91414 12.2463 3.59575L12.1994 3.6896L12.191 3.68792ZM16.4507 11.4247C16.1105 11.2956 15.5977 11.8017 15.6497 12.2123C15.7251 12.8155 16.0502 13.2462 16.5864 13.5109C16.7003 13.5679 16.8595 13.5646 16.9919 13.5478C17.2785 13.5126 17.4863 13.3333 17.5348 13.0317C17.632 12.4251 17.1143 11.676 16.4523 11.4247H16.4507Z" fill="#8DC0FF"/>
<path d="M26.607 20.9259C26.9271 20.9075 27.1785 21.013 27.3762 21.2326C28.1604 22.1022 28.4788 23.2887 29.3351 24.1047C29.4289 24.1952 29.6099 24.2438 29.7423 24.2287C29.8529 24.217 29.9937 24.1064 30.0456 24.0008C30.5014 23.0876 30.8231 22.1291 30.989 21.1169C31.1784 19.954 31.671 18.8933 32.1872 17.851C32.7787 16.6596 33.6216 15.6658 34.7041 14.8816C36.3731 13.6734 38.1879 12.7853 40.2021 12.3161C40.9042 12.1536 41.6616 12.8758 41.4941 13.5963C41.1656 15.0106 40.8774 16.4384 40.4719 17.8292C40.2725 18.5129 39.939 19.2033 39.5033 19.7663C38.3488 21.2627 37.1054 22.6904 35.9005 24.1466C35.619 24.4868 35.4297 24.8739 35.3693 25.3179L35.5 25.2208C35.2152 25.6179 35.0459 26.129 34.4779 26.2413L34.5667 26.1206C33.8679 26.8495 33.1406 27.5533 32.4804 28.3158C32.0967 28.7565 31.8989 29.3095 32.1051 29.9194C32.5307 31.1879 32.7133 31.8314 32.7753 31.9672C33.0418 32.557 33.3602 33.4468 33.5596 34.7438C33.2412 34.3366 32.7184 33.6412 32.1352 32.7363C29.4926 28.6291 29.7289 27.8969 28.3247 25.1068C27.8136 24.0913 27.2321 23.111 26.7193 22.0955C26.5233 21.7085 26.5853 21.2661 26.6925 20.8472L26.6054 20.9242L26.607 20.9259ZM31.5303 26.1173C31.8369 26.1642 32.1168 26.0972 32.3531 25.8944C33.3618 25.0331 33.9534 23.8333 34.8214 22.8563C35.7883 21.7688 36.7535 20.6779 37.6868 19.5619C38.2465 18.8933 38.7777 18.1962 39.257 17.4672C39.4882 17.117 39.5938 16.673 39.7061 16.2574C39.8133 15.8602 39.5318 15.1397 39.2804 15.1078C39.0023 15.0727 38.6906 15.0106 38.4409 15.0978C37.1975 15.5351 36.0614 16.1837 35.0074 16.9729C34.0623 17.6817 33.3116 18.5514 32.7804 19.6172C32.0967 20.9879 31.4633 22.9301 31.1214 25.0079C31.0778 25.2727 31.1817 25.571 31.2588 25.8424C31.289 25.9497 31.4364 26.0251 31.5286 26.1139L31.5303 26.1173Z" fill="#8DC0FF"/>
<path d="M2.60092 8.00762C1.93063 7.44123 1.22851 6.90834 0.600116 6.30006C0.0387533 5.7588 -0.103679 5.05334 0.068919 4.28084C0.313573 3.19665 0.901752 2.48615 2.01107 2.13927C3.17234 1.77564 4.29338 1.67008 5.44962 2.08063C5.86185 2.22641 6.29418 2.32696 6.69468 2.49956C6.97452 2.62021 7.09182 2.8967 6.99798 3.16649C6.96111 3.27373 6.77009 3.38098 6.63938 3.39606C6.20873 3.4413 5.77136 3.46979 5.33735 3.45806C4.75421 3.44298 4.17106 3.36589 3.58791 3.35416C2.71319 3.33741 1.93231 4.31769 2.15183 5.1656C2.29761 5.72696 2.51546 6.2699 2.67968 6.82791C2.81038 7.2703 2.67968 7.68755 2.4987 8.0914L2.59924 8.00762H2.60092Z" fill="#8DC0FF"/>
<path d="M64.3525 16.4431C64.5016 17.9428 63.9704 19.2248 63.0756 20.386C62.7589 20.7983 61.9797 20.9239 61.549 20.6391C60.9491 20.2436 60.4029 19.7845 60.0878 19.1293C59.9739 18.893 60.0074 18.588 59.9739 18.3132L60.0459 18.2478C60.6509 18.1272 61.0581 18.5377 61.534 18.7857C62.0803 19.0706 62.5561 18.9181 62.9265 18.3618C63.2298 17.906 63.4711 17.4083 63.7995 16.9743C63.9453 16.7816 64.2386 16.6995 64.4648 16.5654L64.3508 16.4414L64.3525 16.4431Z" fill="#8DC0FF"/>
<path d="M12.2379 3.59401C11.6765 4.07829 11.0549 4.35312 10.2958 4.17382C9.88856 4.07663 9.52828 3.60575 9.61207 3.2639C9.67909 2.99076 9.72602 2.71259 9.79137 2.43944C9.92375 1.88981 10.0695 1.34186 10.1952 0.790551C10.3092 0.289514 10.5337 0.0783747 11.013 0.0163734C11.5777 -0.0573578 12.2245 0.130323 12.1223 0.331408C11.9832 0.602873 11.7318 0.725211 11.4302 0.782185C11.2995 0.80732 11.1638 0.896133 11.0649 0.991649C10.8588 1.19106 10.7499 1.45915 10.7951 1.74738C10.9309 2.6221 11.2677 3.36948 12.1759 3.71132C12.1943 3.69121 12.2413 3.59569 12.2413 3.59569L12.2379 3.59401Z" fill="#8DC0FF"/>
<path d="M35.3692 25.3214C36.4417 25.6348 37.551 25.5008 38.6436 25.5845C39.3474 25.6382 39.9758 25.8811 40.5623 26.2565C40.584 26.2364 40.6075 26.2163 40.631 26.1995C41.9095 25.2209 45.1353 27.3273 47.1763 28.8455C43.1043 27.1714 40.0143 26.1811 39.0172 26.0554C38.0872 25.9381 37.3449 26.2314 37.3449 26.2314C37.1388 26.3135 36.8505 26.4257 36.6578 26.6385C36.1618 27.1832 36.3244 28.331 36.9947 29.4839C38.0839 31.3557 39.7663 32.3879 40.9678 33.0314C41.6934 33.4201 42.0553 33.6145 42.4508 33.6648C43.6154 33.8123 44.2371 33.1269 46.6652 32.1734C47.1478 31.9841 48.299 31.5484 48.3107 31.5769C48.3375 31.6422 42.8999 35.679 39.6892 33.9178C37.308 32.6125 35.4463 27.8065 34.8162 27.1429C34.7743 27.0994 34.5917 26.9184 34.5314 26.6335C34.4979 26.4727 34.5079 26.3001 34.5649 26.1191L34.4761 26.2397C34.5448 26.0772 34.6855 25.8091 34.962 25.5745C35.1078 25.4521 35.2503 25.37 35.3676 25.3164L35.3692 25.3214Z" fill="#8DC0FF"/>
<path d="M45.9097 37.5837C45.8979 38.016 45.9935 38.4869 45.856 38.874C45.2126 40.6921 43.9725 43.2627 43.9725 43.2627C43.5235 44.0821 42.9252 45.2702 42.332 46.8202C42.3555 46.7415 42.3974 46.6024 42.4477 46.4298C42.5884 45.9505 42.9135 44.8094 43.3307 42.9091C43.4799 42.2288 43.3844 42.3645 43.5117 42.0578C44.0714 40.7123 44.5674 39.3382 45.2997 38.0696C45.4405 37.825 45.7002 37.6926 46.0102 37.639C45.9767 37.6206 45.9432 37.6005 45.9097 37.582V37.5837Z" fill="#8DC0FF"/>
<path d="M37.2295 46.3604C37.0217 46.1878 36.7 46.0554 36.6229 45.8376C36.0883 44.3244 35.4884 42.2683 35.4884 42.2683C35.1382 40.1938 34.7109 38.9152 34.8215 38.8834C34.8969 38.8616 35.0812 39.4833 35.8437 40.6596C35.899 40.7434 35.9291 40.7736 35.9459 40.8154C36.4469 42.0773 36.9044 43.5502 36.9044 43.5502C37.0117 44.4869 37.1206 45.4237 37.2278 46.3604H37.2295Z" fill="#8DC0FF"/>
<path d="M42.2747 48.0159C42.0837 48.8252 41.596 49.5341 41.276 50.3015C41.2676 50.32 41.2173 50.3669 41.1604 50.4423C40.7465 50.9718 40.6174 51.4578 40.6074 51.4544C40.594 51.4494 40.8872 50.6199 41.0263 50.196C41.5877 48.48 41.41 47.9656 41.8306 46.8563C42.0234 46.3519 42.3736 45.6347 43.0623 44.8555C42.7573 46.0553 42.4942 47.0825 42.2747 48.0159Z" fill="#8DC0FF"/>
<path d="M33.9014 37.1333C33.4523 36.3994 32.9731 35.7911 32.8625 34.8225C32.8055 34.3249 32.8658 33.9042 32.9245 33.6294C33.0116 33.5708 33.1608 33.487 33.2781 33.5406C33.3535 33.5741 33.3853 33.6495 33.397 33.6747C33.7339 34.4455 34.2651 35.1526 34.4226 35.9788C34.8482 38.2125 36.3429 41.512 36.1284 41.5924C36.0614 41.6175 35.8419 41.3243 35.1398 39.8061C34.7342 38.6046 34.2617 37.7232 33.9014 37.1317V37.1333Z" fill="#8DC0FF"/>
<path d="M50.3738 17.372C49.9213 17.5261 49.5611 17.3586 49.2678 17.0284C48.9779 16.7033 48.8053 16.3196 48.8606 15.8722C48.9142 15.4365 49.1304 15.0863 49.494 14.8333L49.3918 14.7227C49.6918 15.3561 50.0185 15.9778 50.2749 16.6279C50.3688 16.8659 50.2967 17.1692 50.3001 17.4423L50.3721 17.372H50.3738Z" fill="#8DC0FF"/>
<path d="M51.6655 72.0508C51.7393 72.463 51.7962 72.8786 51.8917 73.2858C51.9739 73.6293 51.942 73.8522 51.7158 73.9293C51.6856 73.9393 51.5566 73.7952 51.5516 73.7164C51.5415 73.5807 51.5834 73.4399 51.6169 73.3042C51.7208 72.8937 51.808 72.4848 51.6454 72.0659L51.6638 72.0508H51.6655Z" fill="#8DC0FF"/>
<path d="M50.7456 77.286L50.6736 76.9375L50.9316 76.9945L50.7456 77.286Z" fill="#8DC0FF"/>
<path d="M2.5 8.09078C3.00606 7.86288 3.52386 7.85784 4.06176 7.97011C4.45053 8.05054 4.8527 8.06564 5.27498 8.09245C5.30011 8.07402 5.35038 8.02207 5.36882 8.00531C5.25989 8.04553 5.12919 8.09748 5.00351 8.15781C4.17906 8.54825 3.38645 8.50299 2.61562 7.99357C2.60054 8.00698 2.5 8.09078 2.5 8.09078Z" fill="#8DC0FF"/>
<path d="M52.9307 18.2227C52.8251 18.7656 52.6022 18.9851 52.1917 18.9332C51.756 18.8795 51.4393 18.6634 51.2801 18.2428L51.1729 18.3433C51.7878 18.2143 52.4028 18.2428 53.0195 18.3383L52.9307 18.2243V18.2227Z" fill="#8DC0FF"/>
<path d="M44.1115 27.1234C44.3562 27.1352 44.6025 27.1318 44.8455 27.1603C45.3767 27.2189 45.7487 27.4938 45.9247 28.0099L45.9984 27.8892C45.7118 27.8658 45.4169 27.8758 45.1388 27.8121C44.7031 27.7116 44.3528 27.4804 44.2339 27.0078L44.1099 27.1251L44.1115 27.1234Z" fill="#8DC0FF"/>
<path d="M51.2799 18.2447C50.7314 18.143 50.4292 17.8531 50.3733 17.375L50.3013 17.4454C51.1006 17.5727 51.109 17.5828 51.1726 18.3452L51.2799 18.2447Z" fill="#8DC0FF"/>
<path d="M49.4941 14.8324C49.536 14.2761 49.7823 13.9259 50.3906 13.9376L50.3034 13.8438C50.1526 14.6581 50.1493 14.6615 49.3918 14.7218L49.4941 14.8324Z" fill="#8DC0FF"/>
<path d="M50.3884 13.9384C50.4554 13.4313 50.7425 13.1274 51.2497 13.0269L51.1844 12.9531C51.1458 13.7156 51.1173 13.7441 50.3013 13.8446L50.3884 13.9384Z" fill="#8DC0FF"/>
<path d="M1.91405 6.94842C2.56255 7.44443 3.2144 7.9438 3.9316 8.33591C4.68735 8.74981 5.48667 8.97604 6.32452 9.15869C6.63956 9.2274 6.77026 8.7649 6.45858 8.67441C5.23196 8.31413 4.02041 7.89855 2.83066 7.42935C2.52903 7.31037 2.39833 7.79633 2.69661 7.91363C3.88636 8.38283 5.09623 8.79842 6.32452 9.15869L6.45858 8.67441C5.63916 8.49511 4.85827 8.27893 4.12264 7.86671C3.43057 7.47962 2.79883 6.99535 2.16876 6.51442C1.91238 6.31836 1.66102 6.75404 1.91573 6.94842H1.91405Z" fill="#8DC0FF"/>
<path d="M2.42634 7.70849C2.45316 7.86098 2.38948 7.99335 2.46154 8.14584C2.53359 8.29833 2.65759 8.35364 2.80338 8.40726C3.19047 8.5497 3.58091 8.71392 3.98475 8.80105C4.70028 8.95522 5.52976 8.77424 6.15816 9.21998L6.41118 8.78598C6.19334 8.67035 5.98555 8.53964 5.79452 8.3838C5.61689 8.23969 5.47278 8.06541 5.30521 7.91459C5.13764 7.76378 4.92315 7.73194 4.69693 7.72356C4.42882 7.71351 4.1607 7.71853 3.89091 7.72356C3.56415 7.73026 3.57085 8.20281 3.89091 8.22627C4.54612 8.27319 5.16278 8.51115 5.69398 8.89656C5.95539 9.08759 6.20675 8.65024 5.94701 8.46256C5.34376 8.0252 4.63158 7.77718 3.89091 7.72356V8.22627C4.13724 8.22125 4.38357 8.21622 4.6299 8.2246C4.71536 8.22627 4.82596 8.21622 4.90639 8.24806C4.98683 8.2799 5.04213 8.36537 5.0991 8.42569C5.40576 8.74408 5.76771 9.01219 6.15816 9.21998C6.44805 9.37415 6.67259 8.97198 6.41118 8.78598C5.83473 8.3771 5.11754 8.4257 4.44893 8.36537C4.08195 8.33186 3.74178 8.21456 3.39825 8.09055C3.23739 8.0319 3.04468 7.99167 2.89722 7.90789C2.89387 7.90621 2.90728 7.9481 2.92236 7.90789C2.93241 7.88275 2.92738 7.83751 2.92906 7.8107C2.93408 7.73027 2.92905 7.65486 2.91397 7.5761C2.857 7.25771 2.37272 7.39345 2.4297 7.71016L2.42634 7.70849Z" fill="#8DC0FF"/>
<path d="M6.4047 3.3231C7.58272 3.59791 8.77248 3.82916 9.96726 4.01684C10.2856 4.06711 10.4063 3.64818 10.1013 3.53256C9.47795 3.29461 8.82275 3.16056 8.17257 3.01645C7.5224 2.87234 6.8119 2.71816 6.13156 2.56735L6.06454 3.0617C7.38667 3.10694 8.7641 3.16559 9.96894 3.7722L10.222 3.33819C8.65518 2.65115 6.96271 2.42827 5.28029 2.21713C4.96023 2.17691 4.96359 2.67963 5.28029 2.71985C6.86719 2.91925 8.49096 3.12537 9.96894 3.7722C10.2588 3.89955 10.5169 3.48566 10.222 3.33819C8.93168 2.68969 7.48219 2.6059 6.06454 2.55898C5.78469 2.54893 5.71934 2.99131 5.9975 3.05331C6.67784 3.20245 7.35818 3.3516 8.03852 3.50241C8.71886 3.65322 9.34222 3.78057 9.96726 4.01852L10.1013 3.53424C8.90486 3.34656 7.71678 3.11531 6.53875 2.84049C6.22372 2.76676 6.08967 3.25104 6.4047 3.32477V3.3231Z" fill="#8DC0FF"/>
<path d="M11.7552 3.86874C11.8306 3.88717 11.9061 3.90392 11.9781 3.92738C11.9965 3.93409 12.0167 3.94079 12.0351 3.94749C12.0502 3.95252 12.0653 3.96258 12.0418 3.95085C12.0787 3.96928 12.1122 3.98773 12.1474 4.00951C12.1675 4.02292 12.1624 4.02459 12.1474 4.00951C12.1608 4.02124 12.1742 4.03297 12.1859 4.04637C12.1943 4.05475 12.2244 4.09328 12.1943 4.05306C12.2027 4.06479 12.211 4.07654 12.2177 4.08827C12.2177 4.08827 12.2479 4.14523 12.2328 4.11506C12.2177 4.0849 12.2412 4.14356 12.2412 4.14356C12.2496 4.17204 12.2412 4.15863 12.2412 4.13852C12.2412 4.16031 12.2412 4.18042 12.2412 4.20053L12.7104 4.07317C12.397 3.5051 11.7485 3.14148 11.1 3.17835C10.9978 3.18337 10.9107 3.237 10.8705 3.33252C10.8353 3.4163 10.8453 3.54534 10.9224 3.60734C11.3145 3.91734 11.7066 4.22902 12.0988 4.53902C12.201 4.62113 12.3551 4.64627 12.454 4.53902C12.5378 4.44853 12.5646 4.27091 12.454 4.18377C12.0619 3.87377 11.6698 3.56209 11.2777 3.25209L11.1 3.68106C11.1654 3.67771 11.2307 3.67771 11.2961 3.68106C11.3129 3.68106 11.3296 3.68442 11.348 3.68609C11.3129 3.68274 11.3263 3.68274 11.3531 3.68609C11.3832 3.69112 11.4134 3.69782 11.4436 3.70452C11.5106 3.7196 11.5776 3.73971 11.6413 3.76484C11.6547 3.76987 11.6664 3.77489 11.6798 3.77992C11.6296 3.75981 11.6765 3.77992 11.6865 3.78327C11.7184 3.79836 11.7485 3.81344 11.7787 3.8302C11.8357 3.86204 11.891 3.89723 11.9446 3.93577C11.9647 3.95085 11.9597 3.94918 11.9446 3.93577C11.958 3.9475 11.9714 3.95755 11.9848 3.96928C12.0116 3.99106 12.0368 4.01453 12.0619 4.03966C12.0837 4.06145 12.1055 4.08324 12.1256 4.1067C12.1373 4.1201 12.149 4.13183 12.1591 4.14523C12.1742 4.16367 12.1859 4.17875 12.1641 4.15027C12.206 4.20556 12.2429 4.2642 12.2764 4.32453C12.3283 4.41837 12.4574 4.47367 12.5596 4.44016C12.6702 4.40497 12.7355 4.31282 12.7439 4.19719C12.759 3.98605 12.6467 3.76987 12.4842 3.63917C12.3099 3.49841 12.1021 3.43473 11.886 3.38445C11.7586 3.35429 11.6078 3.42468 11.5759 3.56041C11.5475 3.68944 11.6145 3.8369 11.7519 3.87042L11.7552 3.86874Z" fill="#8DC0FF"/>
<path d="M11.5458 0.544872C12.3417 0.502979 13.141 0.553238 13.9202 0.720809C14.5386 0.85319 15.1536 1.06936 15.5725 1.56537L15.8775 1.16991C15.1971 0.697358 14.4213 0.417522 13.6002 0.318655C13.3086 0.283465 13.2734 0.732547 13.5331 0.812982C14.1749 1.01239 14.9072 1.24365 15.2575 1.86701L15.6529 1.56202C14.2872 0.454375 12.449 0.0404807 10.7414 0.479517C10.4281 0.559951 10.5604 1.04423 10.8755 0.9638C12.3953 0.573359 14.0761 0.926924 15.2977 1.91727C15.5105 2.08987 15.8406 1.87706 15.6931 1.6123C15.2742 0.868283 14.4397 0.566648 13.6689 0.327021L13.6019 0.821368C14.3325 0.910181 15.0212 1.18498 15.6244 1.60391C15.8741 1.77651 16.102 1.41288 15.9294 1.20845C15.4736 0.667192 14.7933 0.399082 14.118 0.248268C13.2768 0.0605884 12.4054 -0.00308698 11.5458 0.0404815C11.224 0.0572386 11.2223 0.559952 11.5458 0.543195V0.544872Z" fill="#8DC0FF"/>
<path d="M17.6959 4.88969C18.2003 5.10419 18.6729 5.39073 19.0884 5.74934C19.2996 5.93031 19.628 5.7041 19.4839 5.44437C18.9979 4.57467 17.9942 4.31159 17.0725 4.21608C16.7927 4.18759 16.7257 4.66181 17.0055 4.7104C17.5568 4.80592 18.0998 4.945 18.6276 5.13101C19.0382 5.27512 19.6582 5.42594 19.6867 5.95379C19.7034 6.27552 20.2078 6.2772 20.1894 5.95379C20.1726 5.66054 20.0603 5.37566 19.8442 5.17122C19.6146 4.95506 19.3012 4.84949 19.013 4.73722C18.4081 4.5043 17.7797 4.33504 17.1396 4.22444L17.0725 4.71879C17.8149 4.79587 18.6578 4.99528 19.0499 5.6974L19.4454 5.39241C18.9963 5.00532 18.4969 4.68694 17.9506 4.45401C17.8266 4.40039 17.6808 4.41716 17.6071 4.54451C17.5451 4.65008 17.5719 4.83442 17.6976 4.88804L17.6959 4.88969Z" fill="#8DC0FF"/>
<path d="M26.0773 20.4097C26.2666 21.0112 26.4912 21.5994 26.7459 22.1775L27.1799 21.9245C26.8749 21.3447 26.5716 20.7632 26.2666 20.1834L25.8326 20.4365C26.099 20.8018 26.3655 21.1688 26.6319 21.5341C26.8012 21.767 27.1413 21.6279 27.0911 21.3397C27.0022 20.8202 26.8162 20.3209 26.5481 19.8667C26.3839 19.5886 25.9499 19.8416 26.1141 20.1198C26.3604 20.5387 26.523 20.9928 26.6068 21.4721L27.0659 21.2777C26.7995 20.9124 26.533 20.5454 26.2666 20.1801C26.1862 20.0712 26.0488 20.0159 25.9231 20.0896C25.7974 20.1633 25.7689 20.3125 25.8326 20.4331C26.1376 21.0129 26.4409 21.5944 26.7459 22.1742C26.8095 22.2948 26.9771 22.33 27.0894 22.2647C27.2167 22.1893 27.2352 22.0452 27.1799 21.9212C26.9436 21.3849 26.7392 20.8336 26.5615 20.2739C26.4643 19.9673 25.9784 20.098 26.0773 20.408V20.4097Z" fill="#8DC0FF"/>
<path d="M42.0891 25.7973C40.7703 25.38 39.3845 25.2762 38.0171 25.4672C37.7188 25.5091 37.8227 25.9381 38.0841 25.9615C39.1432 26.0537 40.2357 26.1525 41.2009 26.6352L41.3953 26.176C41.2512 26.1475 41.1088 26.1107 40.973 26.0537C40.8474 26.0001 40.7049 26.0168 40.6295 26.1442C40.5675 26.2497 40.5943 26.4357 40.72 26.4877C40.8976 26.5631 41.0736 26.6234 41.2629 26.6603C41.526 26.7122 41.7271 26.3369 41.4573 26.2011C40.4067 25.6767 39.2404 25.5593 38.0858 25.4588L38.1528 25.9531C39.428 25.7755 40.7317 25.8962 41.9584 26.2833C42.2684 26.3804 42.3991 25.8962 42.0924 25.799L42.0891 25.7973Z" fill="#8DC0FF"/>
<path d="M46.7877 27.9158C45.6717 27.3009 44.4518 26.9221 43.2386 26.5518C42.9252 26.4563 42.8063 26.9255 43.1045 27.0361C43.8318 27.3042 44.554 27.584 45.2712 27.8773C45.6131 28.0164 45.9549 28.1555 46.2934 28.3046C46.595 28.437 46.8799 28.5845 47.0877 28.8492C47.2955 29.114 47.6407 28.7453 47.4429 28.494C47.2268 28.2175 46.9235 28.0398 46.6068 27.8974C46.2599 27.7399 45.9063 27.5991 45.5527 27.4533C44.7869 27.1383 44.0144 26.8384 43.2386 26.5518L43.1045 27.0361C44.2775 27.393 45.4539 27.755 46.533 28.3498C46.8162 28.5057 47.0709 28.0717 46.7861 27.9158H46.7877Z" fill="#8DC0FF"/>
<path d="M38.2951 57.5867C38.466 56.8176 38.5934 56.0417 38.6822 55.2592C38.6973 55.1234 38.5549 55.0078 38.4308 55.0078C38.2817 55.0078 38.1946 55.1234 38.1795 55.2592C38.0957 55.9965 37.97 56.7288 37.8092 57.4527C37.779 57.585 37.8494 57.7241 37.9851 57.7627C38.1108 57.7979 38.265 57.7208 38.2951 57.5867Z" fill="#8DC0FF"/>
<path d="M51.4328 12.4693C51.2132 12.9268 50.7893 13.2083 50.3972 13.5049C49.9833 13.8182 49.5928 14.1551 49.3918 14.6477C48.9008 15.8576 49.6448 17.0675 50.4659 17.9137L50.8211 17.5584C50.5195 17.2518 50.0201 17.0842 49.9012 16.6351C49.8291 16.3637 49.8006 16.0754 49.752 15.7989C49.7034 15.5224 49.628 15.2309 49.685 14.9544C49.7353 14.7064 49.8794 14.6427 50.0654 14.507C50.2782 14.3511 50.2883 14.1366 50.3486 13.902C50.4542 13.4898 50.8731 13.2468 51.2803 13.2871C51.602 13.3189 51.6003 12.8162 51.2803 12.7843C50.7709 12.7324 50.2598 13.0089 49.9983 13.4462C49.9296 13.5619 49.8777 13.6926 49.8492 13.8249C49.8224 13.949 49.8325 14.0579 49.7185 14.1316C49.4705 14.2941 49.2996 14.4651 49.2141 14.76C49.1287 15.0549 49.1739 15.3834 49.2242 15.69C49.2828 16.0369 49.3264 16.3921 49.4052 16.734C49.4688 17.0088 49.6129 17.2384 49.8291 17.4193C50.0453 17.6003 50.2732 17.7227 50.4625 17.9154C50.6904 18.1466 51.044 17.793 50.8178 17.5601C50.0989 16.8194 49.3247 15.6414 49.9682 14.6125C50.4508 13.8383 51.4545 13.5736 51.8634 12.7257C52.0025 12.4358 51.5702 12.1811 51.4294 12.4727L51.4328 12.4693Z" fill="#8DC0FF"/>
<path d="M50.7743 18.0398C50.9218 18.2325 51.0692 18.4218 51.2753 18.5542C51.4815 18.6866 51.7127 18.7302 51.9456 18.7553C52.192 18.7821 52.4433 18.7804 52.6863 18.7235C52.7969 18.6983 52.9042 18.6581 53.0064 18.6095C53.0617 18.5844 53.1153 18.5559 53.1672 18.5224C53.2024 18.5006 53.2594 18.4386 53.2946 18.4269H53.1605C53.3046 18.4537 53.4437 18.6665 53.5108 18.7838L53.7286 18.4051C53.4638 18.3799 53.2041 18.3347 52.946 18.271C52.6327 18.1939 52.4986 18.6782 52.812 18.7553C53.1253 18.8324 53.4203 18.8776 53.7286 18.9061C53.9246 18.9245 54.0336 18.6816 53.9464 18.5274C53.8191 18.3062 53.6096 18.0515 53.365 17.9577C53.2008 17.8957 53.0851 17.9677 52.9544 18.0582C52.8455 18.1336 52.7282 18.1889 52.6008 18.2224C52.3512 18.2894 52.0629 18.2794 51.8116 18.2241C51.5418 18.1654 51.3776 17.9928 51.2133 17.78C51.1312 17.6728 50.9972 17.6158 50.8698 17.6895C50.7643 17.7515 50.6956 17.9258 50.7793 18.0331L50.7743 18.0398Z" fill="#8DC0FF"/>
<path d="M64.4782 15.5713C64.19 16.4159 63.9017 17.2621 63.6118 18.1067C63.5063 18.4133 63.9922 18.5457 64.0961 18.2407C64.3843 17.3962 64.6726 16.5499 64.9625 15.7054C65.068 15.3987 64.5821 15.2664 64.4782 15.5713Z" fill="#8DC0FF"/>
<path d="M61.0883 18.3466C60.4833 18.2293 59.9773 17.931 59.5818 17.4551C59.5114 17.3713 59.3673 17.363 59.2768 17.4166C59.1779 17.4752 59.1361 17.5909 59.1612 17.6998C59.2332 18.0148 59.3991 18.2963 59.5734 18.5645C59.7561 18.846 59.9404 19.1275 60.1247 19.4073C60.1985 19.5213 60.3476 19.5682 60.4682 19.4978C60.5889 19.4274 60.6291 19.2699 60.5587 19.1543C60.2655 18.6734 59.999 18.179 59.7577 17.6713L59.4142 18.0148C59.6455 18.1908 59.9035 18.4321 60.113 18.6683C60.3224 18.9046 60.5018 19.1576 60.6693 19.4459C60.738 19.5632 60.8972 19.6051 61.0128 19.5364C61.1285 19.4676 61.172 19.3101 61.1033 19.1928C60.738 18.5611 60.2487 18.0198 59.6673 17.5808C59.5801 17.5155 59.4343 17.5473 59.3623 17.6193C59.2785 17.7031 59.2751 17.8221 59.3237 17.9243C59.565 18.4321 59.8315 18.9281 60.1247 19.4073L60.5587 19.1543C60.3811 18.8811 60.2018 18.608 60.0242 18.3365C59.8616 18.0869 59.7108 17.8506 59.6472 17.5674L59.2265 17.812C59.6622 18.3349 60.2873 18.7035 60.9559 18.8326C61.0883 18.8577 61.2273 18.7957 61.2659 18.6566C61.2994 18.5343 61.224 18.3734 61.0899 18.3466H61.0883Z" fill="#8DC0FF"/>
<path d="M47.297 32.2854C47.612 32.2653 47.9287 32.2435 48.2437 32.2234C48.3744 32.215 48.5018 32.1145 48.4951 31.972C48.4884 31.8296 48.3845 31.7291 48.2437 31.7207C47.9186 31.7023 47.6137 31.8179 47.3238 31.9486C47.2567 31.9788 47.1897 32.0106 47.121 32.0408C47.0892 32.0558 47.0573 32.0692 47.0255 32.0843C47.0087 32.091 46.9937 32.0977 46.9769 32.1061C47.0087 32.0927 46.9585 32.1145 46.9534 32.1162C46.8847 32.143 46.816 32.1681 46.7456 32.1899C46.7121 32.2 46.6803 32.2083 46.6468 32.2167C46.6267 32.2217 46.6049 32.2268 46.5848 32.2301C46.5781 32.2301 46.5211 32.2402 46.563 32.2351L46.7808 32.6139C46.7658 32.6356 46.7808 32.6122 46.7892 32.6038C46.8026 32.587 46.8177 32.572 46.8328 32.5552C46.8562 32.5301 46.8814 32.5066 46.9065 32.4848C46.9149 32.4781 46.9518 32.4496 46.9266 32.4681C46.94 32.458 46.9551 32.448 46.9685 32.4396C47.0004 32.4178 47.0339 32.3994 47.0691 32.3826C47.0724 32.3809 47.1143 32.3608 47.0976 32.3675C47.0808 32.3742 47.1227 32.3575 47.1277 32.3558C47.1646 32.3424 47.2014 32.3323 47.2383 32.3223C47.2551 32.3189 47.2718 32.3156 47.2886 32.3122C47.3037 32.3089 47.3254 32.3072 47.2986 32.3105C47.3405 32.3055 47.3841 32.3039 47.426 32.3039C47.5567 32.3039 47.684 32.1882 47.6773 32.0525C47.6706 31.9168 47.5667 31.8011 47.426 31.8011C46.992 31.7995 46.6015 32.0123 46.3485 32.3591C46.2429 32.5033 46.382 32.7613 46.5663 32.7379C46.8948 32.696 47.1864 32.5653 47.4846 32.4279C47.6271 32.3625 47.6991 32.3273 47.855 32.2787C47.9237 32.2569 47.9924 32.2402 48.0628 32.2284C48.0359 32.2335 48.0544 32.2284 48.0711 32.2284C48.0879 32.2284 48.1047 32.2251 48.1214 32.2251C48.1633 32.2234 48.2052 32.2251 48.2488 32.2251V31.7224C47.9337 31.7425 47.617 31.7643 47.302 31.7844C47.1713 31.7927 47.0439 31.8933 47.0506 32.0357C47.0557 32.1648 47.1612 32.2971 47.302 32.2871L47.297 32.2854Z" fill="#8DC0FF"/>
<path d="M49.2225 82.5867C49.2493 82.1225 49.2862 81.6583 49.3348 81.1942C49.3582 80.9763 49.3834 80.7585 49.4102 80.5406C49.4303 80.3814 49.4202 80.4619 49.4152 80.4971C49.4219 80.4434 49.4303 80.3881 49.437 80.3345C49.4537 80.2105 49.4722 80.0882 49.494 79.9642C49.5258 79.7731 49.566 79.5821 49.623 79.3961C49.6364 79.3492 49.6532 79.3039 49.6682 79.2587C49.6766 79.2369 49.7269 79.1297 49.6749 79.2386C49.7202 79.1448 49.7688 79.0543 49.8258 78.9654C49.8559 78.9185 49.8878 78.8733 49.9196 78.828C49.9012 78.8532 49.8325 78.9336 49.9246 78.823C49.9816 78.7543 50.0403 78.6873 50.0989 78.6203C50.2263 78.4778 50.3569 78.3404 50.4793 78.1946C51.039 77.5327 51.3322 76.777 51.4612 75.9257C51.4948 75.6995 51.5249 75.4733 51.5517 75.2471C51.5635 75.1549 51.5735 75.0644 51.5853 74.9722C51.5903 74.927 51.597 74.8801 51.602 74.8348C51.5819 75.0024 51.6104 74.7762 51.6121 74.7611C51.6724 74.3556 51.7646 73.9601 51.8986 73.573C51.9355 73.4674 51.974 73.3635 52.0159 73.2596C52.0226 73.2446 52.0813 73.1021 52.0494 73.1775C52.0176 73.2529 52.0947 73.077 52.1014 73.0636C52.2002 72.8474 52.3058 72.6363 52.4181 72.4268C52.6477 71.9962 52.9007 71.5789 53.1537 71.1617C53.3582 70.8232 53.2392 70.3188 52.8839 70.1294C52.5287 69.9401 52.0712 70.0389 51.8517 70.3992C51.3825 71.1734 50.9334 71.9493 50.5899 72.7871C50.2464 73.625 50.1425 74.4444 50.0336 75.3141C50.0285 75.3593 50.0218 75.4062 50.0168 75.4515C50.0352 75.3074 50.0201 75.428 50.0168 75.4565C50.0034 75.547 49.99 75.6375 49.9732 75.728C49.938 75.9274 49.8945 76.1268 49.8375 76.3212C49.809 76.4184 49.7738 76.5105 49.7403 76.6061C49.7017 76.715 49.7939 76.5105 49.7369 76.6094C49.7152 76.648 49.6984 76.6898 49.6766 76.7301C49.6297 76.8189 49.5777 76.906 49.5191 76.9898C49.494 77.0266 49.4672 77.0635 49.4403 77.0987C49.5057 77.0132 49.447 77.0853 49.4119 77.1289C49.132 77.4607 48.827 77.764 48.5773 78.1209C48.3277 78.4778 48.1685 78.9152 48.078 79.3475C47.8585 80.4049 47.7747 81.5092 47.7127 82.585C47.6892 82.9788 48.0763 83.3558 48.4668 83.3391C48.8941 83.3206 49.1957 83.0073 49.2208 82.585L49.2225 82.5867Z" fill="#8DC0FF"/>
<path d="M25.3251 65.4084C24.7755 66.4976 24.4889 67.7075 24.5342 68.9291C24.5476 69.3229 24.871 69.7016 25.2883 69.6831C25.7055 69.6647 26.0574 69.3514 26.0423 68.9291C26.0323 68.6677 26.0373 68.4063 26.0591 68.1449C26.0658 68.0711 26.0742 67.9957 26.0825 67.922C26.0993 67.7628 26.0557 68.0728 26.0859 67.9002C26.1094 67.7712 26.1295 67.6421 26.158 67.5148C26.2133 67.2601 26.2853 67.0071 26.3724 66.7607C26.3909 66.7071 26.411 66.6551 26.4311 66.6032C26.4462 66.5647 26.5199 66.3284 26.4613 66.5244C26.4981 66.4021 26.5719 66.2831 26.6288 66.1692C26.8065 65.8173 26.7327 65.3364 26.359 65.1369C26.0155 64.956 25.5178 65.0314 25.3268 65.4067L25.3251 65.4084Z" fill="#8DC0FF"/>
</svg>
