<svg width="500" height="519" viewBox="0 0 500 519" fill="none" xmlns="http://www.w3.org/2000/svg">
<path d="M308.911 151.568C311.104 151.546 313.298 151.539 315.491 151.494C316.218 151.479 316.944 151.373 317.668 151.289C318.192 151.229 318.787 150.633 318.851 150.15C318.869 150.006 318.945 149.865 318.948 149.723C319.003 147.233 319.258 144.759 319.545 142.286C319.729 140.689 319.722 139.07 319.875 137.468C320.302 132.947 320.185 128.398 320.635 123.878C320.651 123.732 320.671 123.587 320.669 123.441C320.587 118.742 321.329 114.1 321.656 109.43C321.84 106.806 322.288 104.202 322.598 101.586C322.683 100.861 322.754 100.125 322.73 99.3977C322.705 98.6336 322.351 98.0002 321.651 97.6148C321.267 97.4036 320.892 97.1657 320.486 97.0031C314.913 94.7711 309.282 92.7484 303.439 91.2805C297.033 89.6718 290.528 88.6949 284.025 87.666C283.162 87.5303 282.275 87.5052 281.399 87.4968C276.568 87.4466 271.735 87.4197 266.904 87.3811C265.438 87.3694 263.985 87.4918 262.53 87.7029C257.315 88.457 252.097 89.191 246.874 89.8747C245.125 90.1026 243.415 90.5097 241.711 90.9086C233.306 92.8775 224.9 94.8548 216.582 97.1791C213.197 98.1242 209.856 99.215 206.56 100.42C203.951 101.373 201.442 102.592 199.088 104.095C197.719 104.968 196.487 105.987 195.562 107.349C195.152 107.952 194.743 108.571 194.133 109.001C193.771 109.258 193.364 109.434 192.908 109.362C192.418 109.286 191.839 108.654 191.767 108.165C191.745 108.021 191.691 107.884 191.668 107.739C191.646 107.595 191.634 107.448 191.634 107.302C191.641 106.278 191.649 105.253 191.663 104.229C191.688 102.233 192.439 100.51 193.752 99.0508C195.619 96.978 197.736 95.1699 199.957 93.4891C200.777 92.8691 201.677 92.3765 202.62 91.9676C205.32 90.803 207.783 89.2178 210.263 87.6627C210.521 87.5001 210.645 87.232 210.675 86.9404C210.709 86.6254 210.538 86.4378 210.176 86.3741C208.447 86.0691 206.717 85.7641 204.988 85.4591C204.844 85.434 204.7 85.4089 204.556 85.3821C203.168 85.1207 202.173 84.3113 201.466 83.1266C201.243 82.7529 201.05 82.3473 200.923 81.9334C200.795 81.5195 200.683 81.0704 200.712 80.6465C200.82 79.0428 200.985 77.4425 201.142 75.8422C201.171 75.5523 201.258 75.2691 201.318 74.9826C201.635 73.4946 202.727 72.6852 204.046 72.4892C205.355 72.2948 206.665 72.3299 207.976 72.5896C211.275 73.2398 214.581 73.8582 217.888 74.4732C218.218 74.5352 218.469 74.3676 218.528 74.1112C218.556 73.9855 218.511 73.8062 218.432 73.7023C218.26 73.4711 218.062 73.2516 217.844 73.0656C215.506 71.0698 213.16 69.0841 210.821 67.09C210.6 66.9006 210.387 66.6945 210.204 66.4683C209.64 65.7746 209.202 65.0172 209.268 64.0788C209.35 62.9108 209.449 61.7445 209.563 60.5798C209.591 60.295 209.712 60.0185 209.789 59.737C209.915 59.2795 210.588 58.7751 211.098 58.7031C212.435 58.5154 213.728 58.7282 214.99 59.1321C215.684 59.3549 216.349 59.6733 217.02 59.9666C218.369 60.5581 219.605 61.3071 220.684 62.336C221.955 63.5475 223.27 64.7122 224.601 65.86C227.704 68.5378 230.888 71.1067 234.541 73.0253C234.661 73.089 234.854 73.1158 234.97 73.0639C235.251 72.9365 235.397 72.6785 235.385 72.3735C235.374 72.0853 235.374 71.7769 235.271 71.5138C234.739 70.1364 234 68.8713 232.992 67.7887C231.897 66.6107 230.764 65.4662 229.636 64.3184C229.329 64.005 228.962 63.752 228.657 63.437C227.913 62.6678 227.484 61.7813 227.622 60.667C227.781 59.3616 227.885 58.0512 228.039 56.7458C228.118 56.0722 228.889 55.4622 229.601 55.4539C229.892 55.4505 230.196 55.3868 230.474 55.4438C231.476 55.6533 232.505 55.8024 233.457 56.1543C236.339 57.2218 239.142 58.4886 241.835 59.9733C243.399 60.8363 244.605 62.1014 245.497 63.6682C246.371 65.2048 247.094 66.785 247.402 68.5462C247.553 69.4058 247.874 70.2353 248.111 71.0799C248.236 71.5273 248.54 71.8407 248.887 72.1088C249.599 72.6618 250.403 73.0086 251.316 72.9734C257.317 72.7388 263.321 72.9097 269.322 72.8578C271.222 72.841 273.124 72.9198 275.006 72.4908C275.708 72.3299 276.462 72.3685 277.193 72.3601C278.949 72.34 280.71 72.4104 282.463 72.3283C286.907 72.1205 291.19 73.0975 295.483 74.0074C296.053 74.128 296.602 74.3475 297.157 74.5335C297.99 74.8116 298.801 75.2021 299.654 75.3646C301.852 75.7852 303.8 76.7605 305.705 77.8698C306.588 78.3843 307.52 78.8132 308.42 79.2992C308.932 79.5774 309.489 79.822 309.913 80.2058C311.347 81.5028 313.106 82.2702 314.749 83.212C316.394 84.1571 318.182 84.8174 320.005 85.3955C321.673 85.9233 323.29 86.6389 324.883 87.3712C326.759 88.2342 328.724 88.7771 330.71 89.2815C331.844 89.5697 332.982 89.8461 334.101 90.183C335.3 90.5449 336.085 91.3845 336.541 92.5323C336.757 93.0752 336.962 93.6282 337.114 94.1913C337.267 94.7526 337.424 95.3291 337.45 95.9039C337.503 97.0735 337.507 98.2465 337.461 99.4161C337.433 100.142 337.326 100.874 337.168 101.585C336.917 102.727 336.612 103.858 336.3 104.985C336.065 105.831 335.821 106.677 335.521 107.5C334.457 110.419 334.004 113.449 333.89 116.532C333.825 118.286 333.865 120.046 333.448 121.768C333.349 124.838 332.895 127.893 333.041 130.973C333.096 132.143 333.041 133.331 333.238 134.477C333.731 137.361 334.05 140.268 334.525 143.154C334.889 145.362 335.668 147.38 336.752 149.309C337.044 149.827 337.371 150.361 337.894 150.612C339.01 151.147 339.745 152.005 340.312 153.059C340.548 153.498 341.005 153.61 341.429 153.63C342.891 153.701 344.358 153.8 345.816 153.728C347.427 153.649 349.034 153.627 350.644 153.642C350.937 153.646 351.236 153.674 351.522 153.63C353.845 153.273 356.191 153.33 358.527 153.222C358.672 153.215 358.815 153.178 358.961 153.161C359.664 153.079 360.34 152.419 360.413 151.732C360.475 151.15 360.563 150.571 360.584 149.987C360.66 147.94 360.584 145.889 360.801 143.844C360.844 143.437 360.708 142.953 360.506 142.587C359.247 140.327 359.019 137.884 359.038 135.358C359.076 129.648 359.105 123.937 359.024 118.228C358.986 115.558 359.423 112.986 360.068 110.429C360.171 110.022 360.479 109.665 360.708 109.294C360.784 109.174 360.896 109.063 361.017 108.984C362.403 108.065 363.046 106.531 364.055 105.3C364.227 105.088 364.147 104.772 363.981 104.492C363.452 103.595 362.679 102.908 361.93 102.216C359.804 100.252 358.652 97.7605 357.917 95.0325C357.804 94.6135 357.732 94.1678 357.729 93.7355C357.716 91.6861 357.732 89.6366 357.741 87.5873C357.744 86.8399 358.021 86.1596 358.247 85.4641C358.528 84.5978 359.026 83.9007 359.758 83.3679C361.938 81.7826 364.368 80.7286 367.048 80.5795C370.696 80.375 374.35 80.1203 378.013 80.5493C379.753 80.752 381.521 80.732 383.275 80.7705C384.738 80.8024 386.204 80.7538 387.667 80.7739C389.43 80.799 391.164 80.7437 392.87 80.1605C393.683 79.8824 394.6 79.8304 395.471 79.817C398.839 79.7668 402.201 79.9108 405.535 80.4337C406.258 80.5476 406.981 80.6985 407.71 80.7286C409.763 80.8124 411.789 81.0554 413.787 81.5497C414.507 81.729 415.246 81.6385 415.957 81.429C418.343 80.7286 420.736 80.0616 423.152 79.4668C426.569 78.6256 430.026 78.0206 433.505 77.533C434.595 77.3805 435.51 77.8045 436.211 78.6658C436.395 78.892 436.595 79.1098 436.759 79.3511C437.168 79.9578 437.58 80.5644 437.955 81.1928C439.155 83.202 440.296 85.248 441.545 87.2254C442.647 88.9731 443.366 90.8834 444.186 92.7602C445.03 94.6956 443.519 97.2544 441.905 97.8577C441.084 98.1643 440.278 98.518 439.457 98.8263C437.402 99.5971 435.343 100.355 433.285 101.117C431.837 101.326 431.011 102.327 430.272 103.456C429.148 105.174 429.674 107.669 430.741 108.775C431.249 109.301 431.812 109.784 432.253 110.36C434.326 113.08 434.349 112.622 435.552 116.468C435.874 117.497 435.908 118.467 435.581 119.474C435.49 119.753 435.423 120.039 435.36 120.324C435.197 121.053 435.231 121.777 435.442 122.492C435.566 122.913 435.695 123.334 435.829 123.751C436.011 124.317 436.305 124.828 436.745 125.225C437.942 126.303 439.147 127.372 440.367 128.423C441.372 129.291 442.25 130.266 442.981 131.37C444.353 133.443 445.806 135.466 446.805 137.766C447.034 138.298 447.403 138.769 447.715 139.263C447.792 139.385 447.896 139.494 447.993 139.601C450.091 141.927 451.493 144.623 452.34 147.633C452.539 148.342 452.728 149.041 452.737 149.78C452.742 150.219 452.737 150.658 452.747 151.097C452.792 152.938 452.137 154.53 451.017 155.958C450.463 156.665 449.794 157.22 448.926 157.486C448.088 157.744 447.244 157.987 446.393 158.198C445.969 158.304 445.524 158.376 445.09 158.381C442.703 158.401 440.459 157.825 438.361 156.687C438.108 156.55 437.858 156.364 437.684 156.139C437.417 155.799 437.102 155.432 437.012 155.03C436.69 153.607 436.445 152.166 436.196 150.728C436.147 150.447 436.187 150.145 436.218 149.855C436.248 149.565 436.347 149.28 436.363 148.99C436.566 145.733 436.519 145.361 433.815 143.506C431.884 142.184 430.038 140.739 427.998 139.578C427.482 139.285 426.767 139.407 426.49 139.92C425.511 141.74 424.198 143.31 422.881 144.88C422.406 145.446 421.89 145.951 421.243 146.318C419.46 147.328 417.686 148.352 415.901 149.357C415.006 149.862 414.08 150.292 413.078 150.554C411.908 150.86 411.01 151.591 410.127 152.385C409.028 153.374 408.208 154.594 407.213 155.666C406.809 156.1 406.343 156.442 405.775 156.637C405.222 156.824 404.669 157.015 404.126 157.23C403.545 157.459 403.171 157.919 403.007 158.497C402.765 159.341 402.604 160.204 402.626 161.092C402.638 161.582 403.065 162.289 403.602 162.411C404.666 162.654 405.379 163.334 406.085 164.109C406.901 165.005 407.424 165.989 407.662 167.182C407.838 168.073 407.92 168.921 407.477 169.739C406.981 170.656 406.65 171.594 406.717 172.663C406.764 173.409 406.487 174.099 406.127 174.748C405.914 175.131 405.679 175.503 405.488 175.896C404.979 176.943 405.537 178.094 406.608 178.24C407.042 178.299 407.476 178.396 407.911 178.412C412.012 178.563 416.086 179.038 420.156 179.512C422.346 179.768 424.518 179.849 426.721 179.587C428.754 179.347 430.81 179.326 432.856 179.197C434.611 179.086 436.352 178.892 438.086 178.58C440.117 178.215 442.068 177.613 443.959 176.816C445.985 175.963 447.951 174.994 449.846 173.873C455.275 170.662 460.41 167.031 465.363 163.135C465.822 162.775 466.245 162.366 466.665 161.96C467.094 161.546 467.371 161.03 467.552 160.466C467.641 160.187 467.733 159.903 467.756 159.614C467.915 157.731 468.906 156.34 470.325 155.19C470.665 154.916 470.945 154.565 471.278 154.282C472.872 152.928 473.976 151.219 474.906 149.372C475.575 148.044 475.945 146.675 475.969 145.165C476.032 140.92 476.178 136.677 476.301 132.434C476.322 131.704 476.344 130.968 476.428 130.243C476.842 126.593 476.714 122.931 476.709 119.273C476.709 118.836 476.678 118.394 476.612 117.961C476.458 116.941 476.168 115.96 475.587 115.091C475.017 114.239 474.414 113.408 473.866 112.544C472.74 110.767 471.278 109.444 469.33 108.549C467.074 107.513 464.953 106.198 462.649 105.234C461.34 104.686 460.602 103.492 460.509 102.121C460.289 98.9068 460.264 95.6793 460.581 92.4703C461.258 85.6116 461.385 78.7362 461.352 71.8541C461.338 69.2165 461.09 66.5973 460.67 63.9866C460.066 60.2296 459.542 56.4609 459.289 52.6587C459.173 50.9076 458.918 49.1666 458.789 47.4172C458.66 45.666 458.597 43.9099 458.521 42.1554C458.32 37.4702 458.364 32.7865 458.82 28.118C458.99 26.3719 459.213 24.6208 459.565 22.9049C460.008 20.7499 460.718 18.6519 461.737 16.7047C464.215 11.9658 467.562 7.9508 471.949 4.83063C474.013 3.3627 476.25 2.35563 478.747 1.92665C482.211 1.33177 485.688 0.808938 489.202 0.701692C491.26 0.639691 493.286 0.457042 495.296 0.0347627C495.573 -0.0222115 495.885 -0.00547235 496.161 0.0582047C496.433 0.121882 496.773 0.222457 496.924 0.426894C497.976 1.85292 498.631 3.4549 498.956 5.20099C499.042 5.65846 498.976 6.07066 498.815 6.47786C498.708 6.74765 498.547 6.99735 498.402 7.25206C497.952 8.03462 497.326 8.62779 496.511 9.02326C494.926 9.79241 493.281 10.399 491.571 10.8263C489.301 11.3944 487.023 11.934 484.75 12.492C483.612 12.7702 482.479 13.0617 481.343 13.3449C480.076 13.66 479.397 14.5531 478.993 15.7227C478.866 16.0931 479.087 16.6846 479.431 16.8405C479.697 16.9611 479.95 17.1136 480.222 17.2158C481.452 17.6834 482.687 18.1408 483.92 18.5983C484.892 18.9569 485.743 19.5065 486.561 20.1416C487.607 20.9543 488.537 21.881 489.455 22.8278C491.697 25.1436 494.071 27.317 496.645 29.2642C497.12 29.6228 497.487 30.0602 497.822 30.5478C498.66 31.7744 499.201 33.0999 499.357 34.5879C499.511 36.0542 498.849 37.1232 497.738 37.9611C497.116 38.4303 496.401 38.4906 495.657 38.251C494.675 37.9343 493.765 37.4668 492.875 36.954C491.099 35.9318 489.349 34.8627 487.551 33.8791C485.758 32.8988 483.987 31.8498 481.958 31.3991C481.852 31.3756 481.683 31.4812 481.597 31.5733C481.515 31.6622 481.47 31.8146 481.468 31.9386C481.468 32.0743 481.5 32.2369 481.579 32.3408C481.846 32.6876 482.1 33.0597 482.43 33.3378C483.781 34.4706 485.041 35.6738 486.003 37.1752C486.313 37.6595 486.74 38.1086 487.208 38.442C488.461 39.3352 488.942 40.7713 489.778 41.9543C489.939 42.1822 489.988 42.4973 490.051 42.7805C490.179 43.3519 490.291 43.9266 490.392 44.5031C490.522 45.2588 490.328 45.9509 489.924 46.5894C489.768 46.8357 489.609 47.0854 489.418 47.3049C488.605 48.2383 487.607 48.689 486.295 48.1059C485.081 47.5663 483.969 46.8726 482.893 46.1101C480.974 44.7511 478.89 43.682 476.813 42.5978C476.299 42.328 475.728 42.1688 475.18 41.961C474.774 41.8069 474.239 42.0549 474.077 42.4102C473.764 43.0922 473.681 43.8161 473.68 44.5467C473.678 45.1432 473.901 45.6778 474.268 46.1637C474.813 46.886 475.478 47.4573 476.339 47.7221C478.288 48.322 480.185 49.1163 482.259 49.2537C482.69 49.2822 483.076 49.5403 483.275 49.9827C483.394 50.2491 483.486 50.5457 483.669 50.7619C484.672 51.9466 484.739 53.4396 485.029 54.8539C485.081 55.1036 484.937 55.4287 484.805 55.6767C484.027 57.1396 482.899 58.259 481.413 59.003C480.497 59.4605 479.565 59.8894 478.66 60.3704C477.093 61.2015 475.454 61.7931 473.688 62.021C473.254 62.0763 472.832 62.2086 472.405 62.3109C471.697 62.4784 471.272 63.0901 471.191 63.9346C471.052 65.3992 471.128 66.8587 471.245 68.3199C471.28 68.7573 471.332 69.1963 471.419 69.6253C472.183 73.3957 471.883 77.2096 471.875 81.0101C471.875 81.729 471.684 82.4579 471.52 83.1667C471.287 84.1638 470.972 85.1424 470.737 86.1395C470.431 87.4482 470.454 88.7569 470.922 90.0305C471.173 90.7158 471.413 91.4112 471.751 92.0547C472.227 92.9596 472.767 93.8343 473.319 94.694C474.826 97.0299 476.351 99.3558 477.877 101.68C478.925 103.274 480.068 104.788 481.438 106.129C482.063 106.741 482.652 107.399 483.191 108.09C484.994 110.397 486.802 112.701 488.537 115.059C489.663 116.589 490.646 118.214 491.429 119.965C492.092 121.452 492.53 122.988 492.862 124.564C492.981 125.132 493.036 125.723 493.041 126.306C493.061 128.649 493.051 130.992 493.048 133.334C493.048 134.217 492.888 135.074 492.666 135.93C492.29 137.363 491.712 138.686 490.876 139.911C489.964 141.247 488.91 142.458 487.803 143.631C487.504 143.948 487.152 144.246 487.05 144.692C486.988 144.967 486.903 145.322 487.02 145.535C487.442 146.296 487.943 147.011 488.421 147.742C489.028 148.669 488.999 149.687 488.793 150.703C488.709 151.119 488.51 151.548 488.253 151.886C486.836 153.749 485.453 155.648 483.927 157.418C482.202 159.417 480.671 161.56 479.037 163.626C478.668 164.094 478.444 164.626 478.204 165.161C477.966 165.692 477.758 166.28 477.375 166.694C476.438 167.703 476.036 168.899 475.694 170.198C475.312 171.653 474.298 172.767 473.135 173.684C472.103 174.496 470.913 175.116 469.93 175.979C469.058 176.743 468.421 177.769 467.6 178.598C465.514 180.71 463.108 182.332 460.251 183.242C459.138 183.595 458.059 184.065 456.941 184.401C455.624 184.797 454.575 185.479 453.856 186.684C453.645 187.039 453.255 187.347 452.876 187.533C450.645 188.629 448.507 189.898 446.196 190.851C443.629 191.91 441.159 193.202 438.644 194.387C438.106 194.64 437.619 194.97 437.238 195.418C436.548 196.229 435.681 196.726 434.674 197.023C433.692 197.313 432.712 197.614 431.735 197.923C429.359 198.674 427.056 199.607 424.808 200.676C424.31 200.912 423.971 201.611 424.117 202.151C424.384 203.139 424.608 204.145 424.957 205.105C425.31 206.082 425.449 207.089 425.624 208.098C425.749 208.825 425.801 209.549 425.687 210.279C425.666 210.424 425.651 210.571 425.624 210.713C425.188 213.011 425.708 215.064 427.181 216.883C427.455 217.222 427.64 217.633 427.891 217.993C429.937 220.917 431.132 224.21 432.038 227.62C432.261 228.461 432.41 229.349 432.417 230.215C432.451 234.607 432.441 238.999 432.407 243.393C432.402 244.115 432.265 244.849 432.09 245.555C431.599 247.542 431.217 249.555 430.602 251.514C429.677 254.46 429.248 257.496 429.066 260.578C428.891 263.502 428.722 266.424 428.841 269.355C428.865 269.946 428.985 270.515 429.242 271.051C429.557 271.711 429.833 272.393 430.203 273.021C430.736 273.926 430.926 274.925 431.179 275.919C431.581 277.504 430.961 278.789 430.069 279.989C429.726 280.452 429.23 280.798 428.814 281.211C428.493 281.531 428.313 281.938 428.308 282.382C428.283 285.309 428.263 288.237 428.27 291.166C428.27 291.748 428.38 292.329 428.454 292.909C428.546 293.634 428.719 294.355 428.737 295.082C428.824 298.321 429.543 301.463 430.18 304.615C430.586 306.624 431.072 308.617 431.489 310.623C432.504 315.492 433.486 320.369 434.336 325.27C434.736 327.583 435.227 329.868 436.006 332.085C436.248 332.772 436.479 333.496 436.89 334.083C438.006 335.675 438.493 337.513 439.095 339.309C439.232 339.72 439.308 340.167 439.318 340.601C439.366 342.795 439.517 344.992 439.098 347.17C438.988 347.743 438.91 348.328 438.88 348.911C438.745 351.54 438.631 354.171 438.51 356.802C438.49 357.241 438.517 357.687 438.448 358.117C437.799 362.173 437.944 366.295 437.397 370.357C437.364 373.728 436.864 377.063 436.569 380.413C436.506 381.142 436.464 381.872 436.444 382.605C436.332 386.7 435.903 390.785 436.033 394.889C435.732 397.807 435.706 400.734 435.705 403.663C435.159 407.43 435.202 411.249 434.745 415.023C434.674 415.603 434.502 416.171 434.443 416.752C434.322 417.947 433.846 419.006 433.303 420.05C432.549 421.496 431.532 422.689 430.292 423.772C427.747 425.99 425.089 428.048 422.251 429.866C418.638 432.18 415.655 435.198 412.769 438.315C411.781 439.383 410.911 440.566 410.167 441.841C409.358 443.23 408.444 444.561 407.558 445.905C407.149 446.526 406.876 447.195 406.725 447.919C406.427 449.356 406.254 450.808 406.289 452.279C406.306 453.015 406.37 453.738 406.651 454.429C406.988 455.257 407.092 456.123 407.095 457.008C407.099 457.74 407.114 458.472 407.116 459.205C407.116 460.681 407.384 462.115 407.776 463.531C408.146 464.869 408.971 465.856 410.135 466.576C410.259 466.653 410.385 466.734 410.517 466.791C411.992 467.432 413.468 468.067 414.944 468.706C415.223 468.827 415.501 468.79 415.801 468.736C416.374 468.632 416.955 468.548 417.537 468.522C418.135 468.493 418.71 468.659 419.162 469.063C421.128 470.816 423.092 472.572 425.037 474.346C427.423 476.523 429.986 478.48 432.697 480.22C434.562 481.416 436.202 482.849 437.789 484.369C438.093 484.659 438.012 485.309 437.644 485.46C437.376 485.569 437.087 485.627 436.817 485.731C436.332 485.92 436.164 486.366 436.42 486.785C436.725 487.283 437.06 487.762 437.352 488.266C437.57 488.642 437.799 489.027 437.923 489.439C438.176 490.279 438.329 491.149 438.58 491.988C438.887 493.015 438.776 494.011 438.488 495.011C438.277 495.742 437.885 496.328 437.236 496.742C436.99 496.898 436.724 497.059 436.551 497.282C436.385 497.498 436.211 497.815 436.243 498.061C436.355 498.929 436.563 499.784 436.717 500.647C436.879 501.56 436.685 502.388 436.075 503.103C435.696 503.547 435.334 504.006 434.942 504.437C434.614 504.797 433.699 504.89 433.305 504.605C432.833 504.263 432.392 503.876 431.916 503.537C431.556 503.279 431.123 503.07 430.691 503.205C429.704 503.514 428.722 503.711 427.677 503.606C426.951 503.532 426.212 503.579 425.483 503.531C425.049 503.502 424.597 503.457 424.194 503.306C422.824 502.795 421.458 502.26 420.256 501.399C419.424 500.802 418.557 500.244 417.775 499.586C416.98 498.917 416.128 498.384 415.179 497.976C414.645 497.744 414.098 497.49 413.641 497.136C411.672 495.613 409.53 494.326 407.585 492.788C405.406 491.065 403.095 489.508 401.096 487.551C400.054 486.532 398.759 485.808 397.391 485.235C395.907 484.613 394.444 483.938 392.986 483.256C389.996 481.855 387.593 479.729 385.743 477.029C384.339 474.98 383.103 472.813 381.801 470.695C381.33 469.929 381.122 469.078 381.1 468.185C381.075 467.161 381.083 466.135 381.07 465.11C381.03 462.134 381.757 459.314 382.771 456.547C383.129 455.568 383.637 454.653 384.359 453.94C386.57 451.756 388.225 449.181 389.874 446.582C390.893 444.978 392.016 443.435 393.152 441.91C395.179 439.19 396.731 436.217 398.011 433.09C398.843 431.059 399.675 429.028 400.523 427.002C401.892 423.728 403.783 420.789 406.236 418.222C407.045 417.374 407.848 416.529 408.555 415.588C410.241 413.34 411.568 410.897 412.379 408.218C413.354 404.994 414.784 401.931 415.658 398.671C415.96 397.549 416.426 396.451 416.952 395.41C418.355 392.639 419.157 389.678 419.824 386.675C420.3 384.532 420.798 382.398 421.388 380.28C421.976 378.169 422.413 376.014 422.917 373.879C423.051 373.309 423.249 372.748 423.315 372.17C423.626 369.41 423.948 366.648 424.178 363.88C424.37 361.549 424.427 359.207 424.578 356.872C424.625 356.147 424.784 355.426 424.898 354.706C425.151 353.104 425.205 351.49 424.895 349.901C424.669 348.742 424.573 347.587 424.578 346.414C424.583 344.795 424.333 343.215 423.958 341.638C423.177 338.361 422.12 335.163 421.191 331.929C420.786 330.518 420.176 329.183 419.484 327.891C418.448 325.955 417.388 324.032 416.319 322.115C415.6 320.828 414.693 319.698 413.564 318.728C411.007 316.531 408.337 314.485 405.586 312.541C405.235 312.293 404.808 312.134 404.396 311.995C403.811 311.799 403.238 311.916 402.717 312.226C402.469 312.374 402.222 312.553 402.036 312.771C401.562 313.327 401.075 313.882 400.676 314.49C398.91 317.19 397.343 319.997 396.227 323.036C395.672 324.548 395.117 326.059 394.563 327.571C393.701 329.92 393.205 332.35 392.922 334.832C392.508 338.465 392.182 342.103 391.991 345.759C391.816 349.115 391.426 352.47 390.839 355.783C389.485 363.421 390.389 361.196 386.875 368.681C384.503 373.73 382.617 378.96 380.964 384.269C379.181 389.996 377.685 395.811 376.314 401.654C375.277 406.078 374.58 410.557 374.213 415.087C374.131 416.109 374.089 417.131 373.861 418.136C373.764 418.562 373.72 419.004 373.7 419.442C373.571 422.218 373.456 424.995 373.333 427.772C373.295 428.648 373.306 429.533 373.192 430.401C372.904 432.586 372.847 434.781 372.904 436.976C373.015 441.226 372.663 445.462 372.571 449.705C372.559 450.287 372.524 450.888 372.365 451.443C371.999 452.725 371.988 454.048 371.792 455.349C371.18 459.407 370.925 463.494 370.925 467.598C370.925 469.065 370.897 470.529 370.637 471.975C370.376 473.426 370.411 474.891 370.422 476.355C370.431 477.401 370.61 478.438 371.178 479.298C372.244 480.91 372.891 482.686 373.479 484.498C373.89 485.763 374.486 486.928 375.255 488.008C376.11 489.207 377.062 490.292 378.308 491.124C379.155 491.688 379.976 492.333 380.68 493.066C381.992 494.431 383.094 496.002 384.676 497.102C385.864 498.396 387.041 499.7 388.242 500.98C389.346 502.156 390.628 503.137 391.888 504.135C392.805 504.861 393.789 505.503 394.722 506.21C395.067 506.471 395.424 506.768 395.654 507.127C396.602 508.608 397.422 510.156 397.783 511.904C397.698 513.102 398.197 514.2 398.377 515.353C398.444 515.782 398.432 516.226 398.43 516.663C398.429 517.382 397.778 518.163 397.148 518.232C397.003 518.248 396.86 518.285 396.714 518.297C392.229 518.654 387.976 517.769 383.925 515.86C382.602 515.237 381.289 514.585 380.004 513.888C379.207 513.456 378.377 513.231 377.487 513.233C374.836 513.233 372.274 512.512 369.65 512.286C369.223 512.249 368.807 512.053 368.388 511.926C364.893 510.852 361.439 509.632 357.843 508.906C352.638 507.303 347.715 505.109 343.258 501.939C343.02 501.769 342.762 501.614 342.565 501.401C341.144 499.864 339.308 498.941 337.522 497.94C336.756 497.511 336 497.066 335.259 496.595C334.891 496.36 334.547 496.077 334.232 495.775C333.585 495.154 333.079 494.418 333.049 493.496C332.999 492.035 332.955 490.567 333.032 489.109C333.109 487.64 333.572 486.23 334.075 484.856C334.732 483.06 335.668 481.401 336.831 479.88C337.637 478.827 338.584 477.899 339.693 477.175C341.284 476.136 342.854 475.067 344.561 474.204C346.912 473.014 349.158 471.632 351.319 470.117C352.402 469.358 353.411 468.518 354.368 467.608C354.81 467.188 355.071 466.673 355.2 466.097C355.487 464.81 355.748 463.52 355.758 462.192C355.778 459.699 356.092 457.232 356.382 454.759C356.672 452.291 356.745 449.799 356.967 447.322C357.226 444.41 357.434 441.484 357.865 438.595C358.384 435.125 359.12 431.686 359.752 428.232C359.963 427.081 360.142 425.925 360.338 424.77C361.219 419.576 361.952 414.359 362.501 409.121C362.761 406.651 362.858 404.163 363.017 401.683C363.074 400.806 362.966 399.898 363.162 399.057C363.634 397.031 363.514 394.981 363.604 392.939C363.721 390.308 363.852 387.674 364.097 385.053C364.259 383.298 364.336 381.55 364.343 379.793C364.351 377.743 364.417 375.699 364.556 373.651C364.705 371.464 364.683 369.259 364.591 367.069C364.541 365.888 364.502 364.718 364.765 363.579C365.131 361.993 365.157 360.395 365.228 358.784C365.357 355.864 365.555 352.944 365.908 350.037C366.367 346.258 366.893 342.493 367.723 338.775C367.85 338.205 367.932 337.623 368.009 337.044C368.73 331.681 369.447 326.319 370.159 320.955C370.216 320.523 370.31 320.075 370.26 319.651C369.868 316.31 369.937 312.93 369.363 309.599C368.966 307.29 368.839 304.947 368.854 302.598C368.867 300.548 368.82 298.497 368.831 296.448C368.846 293.225 368.97 290.008 369.546 286.826C369.573 286.682 369.596 286.536 369.606 286.39C369.813 283.451 370.491 280.612 371.404 277.822C371.507 277.511 371.421 277.219 371.173 277.033C370.954 276.869 370.679 276.906 370.406 277.088C370.285 277.17 370.173 277.266 370.059 277.358C369.945 277.45 369.844 277.568 369.717 277.633C369.182 277.908 368.619 278.067 368.051 277.757C367.361 277.38 366.924 276.752 366.944 275.992C366.981 274.682 367.15 273.373 367.287 272.066C367.349 271.475 367.592 270.94 367.946 270.461C368.293 269.99 368.623 269.504 368.995 269.055C370.024 267.808 370.959 266.501 371.634 265.027C372.19 263.81 373.037 262.801 373.945 261.843C374.243 261.528 374.573 261.177 374.96 261.023C376.566 260.39 377.462 259.058 378.375 257.727C378.458 257.608 378.513 257.469 378.571 257.337C378.754 256.926 378.808 256.491 378.742 256.055C378.699 255.768 378.615 255.478 378.493 255.215C376.877 251.765 375.589 248.186 374.293 244.608C373.995 243.782 373.658 242.971 373.357 242.146C373.102 241.453 372.78 240.801 372.299 240.238C371.914 239.787 371.614 239.289 371.435 238.726C370.501 235.797 369.575 232.866 368.645 229.937C368.464 229.366 368.45 228.789 368.586 228.208C369.327 225.032 369.187 221.81 369.095 218.591C369.079 217.999 368.943 217.425 368.656 216.907C367.805 215.37 366.939 213.842 366.076 212.314C364.78 210.018 363.569 207.684 362.51 205.267C362.155 204.455 361.92 203.617 361.665 202.779C361.493 202.209 361.38 201.606 361.566 201.048C362.054 199.58 361.39 198.439 360.502 197.447C359.53 196.359 358.431 195.381 357.337 194.409C355.794 193.038 353.994 192.056 352.159 191.148C351.566 191.299 351.174 191.756 350.693 192.076C350.301 192.336 349.865 192.314 349.441 192.167C348.893 191.977 348.362 191.743 347.809 191.568C347.511 191.475 347.204 191.629 347.122 191.954C346.944 192.659 346.849 193.387 346.694 194.097C346.529 194.856 346.069 195.418 345.391 195.766C345.149 195.89 344.803 195.976 344.558 195.902C343.013 195.434 341.62 194.617 340.198 193.879C339.822 193.685 339.487 193.343 339.239 192.995C338.819 192.401 338.442 191.766 338.12 191.114C337.667 190.196 337.312 189.233 336.861 188.314C336.442 187.46 334.189 182.585 333.812 181.564C333.15 179.771 332.789 179.101 333.959 176.983C334.381 176.217 334.197 175.673 333.535 175.039C333.324 174.837 333.109 174.635 332.898 174.433C331.526 173.114 330.164 171.787 328.778 170.48C327.176 168.968 325.748 167.303 324.327 165.627C322.413 163.368 320.91 160.883 320.019 158.041C319.846 157.488 319.617 156.942 319.328 156.441C319.201 156.218 318.874 156.097 318.62 155.961C318.497 155.896 318.335 155.879 318.191 155.883C316.29 155.924 314.39 155.961 312.49 156.028C311.907 156.048 311.329 156.167 310.745 156.216C310.016 156.278 309.286 156.368 308.557 156.35C306.36 156.298 304.17 156.425 301.975 156.499C298.612 156.611 295.243 156.583 291.877 156.605C288.658 156.627 285.44 156.821 282.22 156.727C280.038 157.091 277.845 157.019 275.649 156.917C275.212 156.896 274.763 156.9 274.336 156.98C272.449 157.335 270.545 157.226 268.643 157.265C265.424 157.33 262.205 157.391 258.986 157.429C254.743 157.481 250.5 157.62 246.256 157.592C245.671 157.588 245.069 157.516 244.501 157.619C241.311 158.193 238.061 157.692 234.868 158.167C234.581 158.208 234.283 158.185 233.99 158.187C227.989 158.25 221.988 158.286 215.989 158.391C213.355 158.438 210.724 158.579 208.088 158.544C207.361 158.534 206.632 158.664 205.905 158.731C205.321 158.785 204.737 158.906 204.157 158.879C200.641 158.71 197.137 159.112 193.623 159.076C190.113 159.041 186.6 159.192 183.088 159.256C182.064 159.274 181.039 159.283 180.013 159.284C179.428 159.284 178.842 159.244 178.257 159.257C176.503 159.303 174.748 159.415 172.994 159.407C171.238 159.398 169.483 159.249 167.727 159.219C166.854 159.204 165.957 159.219 165.106 159.393C163.213 159.78 161.314 159.755 159.422 159.549C154.311 158.991 149.195 159.011 144.076 159.313C142.461 159.408 140.854 159.336 139.255 159.154C137.504 158.952 135.749 158.887 133.993 158.916C128.919 158.999 124.237 159.03 123.019 159.1C112.232 159.723 0.00167571 159.663 0 159.028C0 158.601 50.7573 159.105 79.1321 158.185C79.1321 158.185 112.97 157.087 116.596 158.535C116.745 158.596 117.898 159.138 118.954 158.664C119.141 158.58 119.25 158.46 119.311 158.458C120.772 158.423 122.238 158.332 123.698 158.403C127.94 158.604 132.187 158.523 136.431 158.587C136.577 158.589 136.725 158.596 136.87 158.582C142.429 158.1 147.992 158.507 153.552 158.518C155.749 158.523 157.942 158.58 160.136 158.398C160.865 158.337 161.599 158.326 162.329 158.334C170.822 158.436 179.309 158.153 187.8 158.036C189.116 158.017 190.431 157.91 191.747 157.846C194.377 157.717 197.007 157.543 199.639 157.474C203.004 157.386 206.372 157.424 209.737 157.327C213.541 157.218 217.348 157.354 221.149 157.089C222.022 157.029 222.905 157.086 223.783 157.086C224.368 157.086 224.969 157.171 225.537 157.071C228.875 156.482 232.257 156.848 235.612 156.566C238.085 156.358 240.583 156.432 243.072 156.407C246.73 156.369 250.39 156.36 254.049 156.325C254.926 156.317 255.802 156.245 256.68 156.219C257.704 156.189 258.728 156.174 259.752 156.162C260.63 156.152 261.526 156.266 262.384 156.132C264.858 155.742 267.345 155.866 269.828 155.77C272.171 155.68 274.51 155.666 276.851 155.631C280.214 155.579 283.577 155.465 286.942 155.395C287.966 155.373 288.991 155.422 290.015 155.423C290.893 155.423 291.785 155.499 292.648 155.375C294.69 155.08 296.73 155.063 298.781 155.197C299.217 155.226 299.671 155.241 300.095 155.157C302.127 154.755 304.178 154.916 306.224 154.872C310.028 154.792 313.83 154.639 317.633 154.515C317.777 154.51 317.921 154.468 318.065 154.455C318.356 154.428 318.827 153.868 318.866 153.525C318.935 152.906 318.564 152.163 318.15 152.092C317.369 151.96 316.677 151.794 316.423 151.836C315.268 152.025 313.128 152.049 308.919 151.576L308.911 151.568ZM368.432 202.908C368.149 203.047 368.097 203.015 368.299 202.841C368.321 202.823 368.45 202.93 368.529 202.978C368.288 203.546 368.365 204.069 368.794 204.508C369.022 204.743 369.318 204.733 369.538 204.498C369.608 204.423 369.593 204.217 369.548 204.098C369.342 203.551 368.904 203.208 368.43 202.908H368.432ZM416.841 214.197C416.582 214.524 416.538 214.896 416.59 215.297C416.634 215.647 416.791 215.794 417.063 215.669C417.135 215.635 417.17 215.452 417.17 215.338C417.166 214.935 417.014 214.579 416.763 214.264C416.644 213.282 416.536 212.3 416.401 211.322C416.362 211.047 416.263 210.772 416.146 210.517C416.029 210.264 415.866 210.026 415.695 209.804C415.615 209.698 415.477 209.596 415.352 209.576C415.127 209.541 414.939 209.728 414.872 210.063C414.574 211.573 415.068 212.85 416.092 213.936C416.255 214.107 416.598 214.105 416.841 214.199V214.197ZM470.596 17.2778C469.841 17.0432 469.179 17.1421 468.607 17.7453C467.594 18.8128 466.741 19.9975 465.997 21.2593C464.569 23.679 463.652 26.2814 463.314 29.0782C462.821 33.1585 462.87 37.2489 463.086 41.341C463.309 45.5738 463.599 49.7983 464.063 54.0161C464.4 57.0692 464.892 60.0973 465.291 63.1404C465.73 66.4868 465.94 69.8298 465.916 73.1963C465.893 76.5594 465.874 79.9209 465.824 83.2841C465.809 84.3046 465.769 85.3351 465.611 86.3423C465.251 88.6598 465.201 91.0007 465.025 93.3316C464.969 94.0572 465.028 94.7912 465.053 95.5201C465.068 95.9826 465.328 96.3361 465.645 96.6462C465.749 96.7467 465.874 96.8288 466 96.9009C466.253 97.045 466.501 97.2226 466.776 97.298C467.034 97.3684 467.346 97.3918 467.597 97.3164C467.91 97.2209 467.915 96.9378 467.785 96.5926C467.317 95.3643 466.744 94.1611 466.583 92.844C466.389 91.2521 466.156 89.6585 466.357 88.0381C466.464 87.1717 466.464 86.2886 466.467 85.4122C466.474 83.9409 466.625 82.4948 467.046 81.0805C467.595 79.2339 467.686 77.3353 467.573 75.43C467.488 73.9721 467.327 72.5176 467.185 71.0631C467.099 70.1917 466.937 69.3237 466.893 68.4507C466.699 64.5044 466.759 60.5631 467.196 56.6319C467.228 56.342 467.292 56.0554 467.352 55.7689C467.508 55.0349 467.833 54.3898 468.41 53.8988C468.852 53.5201 469.353 53.2034 469.755 52.7895C469.931 52.6085 470.065 52.2097 469.992 51.9851C469.244 49.7179 469.294 47.3853 469.308 45.046C469.33 41.2388 469.856 37.4701 470.162 33.6864C470.209 33.1116 470.4 32.5435 470.563 31.9838C470.73 31.4057 470.786 30.8243 470.581 30.2646C470.211 29.2525 470.305 28.2688 470.588 27.2584C470.789 26.5412 470.707 25.8072 470.461 25.1017C470.268 24.5504 470.035 24.0125 469.856 23.4579C469.769 23.1847 469.673 22.8646 469.733 22.6015C470.065 21.1621 469.878 19.6908 470.045 18.243C470.097 17.7923 470.369 17.4437 470.672 17.1421C470.333 17.2058 470.276 17.1471 470.503 16.9678C470.534 17.07 470.566 17.1722 470.598 17.2745L470.596 17.2778ZM367.525 485.813C367.515 485.813 367.505 485.813 367.495 485.813C367.495 482.886 367.492 479.958 367.495 477.031C367.497 475.714 367.542 474.405 367.765 473.096C367.936 472.094 367.939 471.059 367.964 470.036C368.001 468.428 367.86 466.802 368.035 465.21C368.321 462.581 368.276 459.95 368.321 457.318C368.333 456.587 368.309 455.835 368.474 455.134C368.913 453.274 369.003 451.366 369.338 449.499C369.831 446.746 370.019 443.986 369.978 441.197C369.963 440.175 369.918 439.125 370.119 438.134C370.533 436.102 370.484 434.059 370.495 432.013C370.5 430.987 370.49 429.963 370.496 428.94C370.516 426.307 370.543 423.68 370.711 421.045C370.878 418.42 370.937 415.785 371.198 413.165C371.344 411.71 371.453 410.249 371.657 408.801C372.21 404.89 372.718 400.969 373.692 397.131C374.339 394.579 375.069 392.047 375.683 389.487C377.15 383.359 379.079 377.373 381.236 371.459C382.236 368.718 384.145 364.046 385.263 361.755C386.623 358.97 387.573 356.07 387.924 352.98C388.17 350.8 388.408 348.616 388.728 346.446C389.221 343.111 389.373 339.755 389.527 336.395C389.723 332.147 390.241 327.958 391.545 323.874C392.882 319.683 394.558 315.633 396.307 311.608C397.009 309.993 398.011 308.538 399.154 307.194C399.437 306.861 399.766 306.566 400.091 306.271C400.533 305.867 401.063 305.621 401.654 305.535C403.462 305.274 405.147 305.54 406.645 306.675C407.695 307.469 408.771 308.228 409.839 309.001C411.499 310.2 413.143 311.425 414.832 312.583C415.946 313.346 416.808 314.303 417.488 315.455C418.753 317.597 420.077 319.705 421.305 321.868C422.534 324.033 423.615 326.282 424.39 328.652C425.255 331.293 426.061 333.955 426.827 336.628C427.309 338.314 427.688 340.03 427.888 341.779C428.404 346.302 428.235 350.84 428.201 355.374C427.752 357.827 428.08 360.351 427.521 362.798C427.423 363.218 427.472 363.672 427.459 364.111C427.353 367.622 427.068 371.118 426.619 374.6C426.431 376.054 426.177 377.489 425.825 378.911C424.593 383.881 423.38 388.857 422.189 393.837C421.882 395.12 421.553 396.389 421.034 397.607C419.256 401.785 417.788 406.076 416.407 410.4C416.096 411.375 415.759 412.343 415.409 413.305C414.402 416.068 413.138 418.694 411.283 421.009C410.185 422.378 409.2 423.84 408.062 425.174C405.755 427.877 404.017 430.902 402.68 434.178C402.127 435.532 401.547 436.876 400.986 438.228C399.861 440.938 398.514 443.528 396.855 445.955C395.369 448.13 393.901 450.315 392.435 452.503C391.701 453.598 390.945 454.68 390.278 455.813C389.237 457.586 388.1 459.28 386.732 460.818C386.236 461.376 385.95 462.048 385.73 462.752C385.599 463.171 385.44 463.583 385.34 464.011C385.063 465.182 385.088 466.301 385.722 467.401C386.968 469.564 388.348 471.622 390.062 473.45C391.697 475.196 393.609 476.476 395.913 477.173C396.892 477.47 397.857 477.823 398.807 478.202C399.354 478.42 399.895 478.621 400.481 478.695C402.38 478.931 404.173 479.544 405.932 480.265C407.286 480.82 408.652 481.346 409.978 481.962C411.033 482.453 412.035 483.06 413.061 483.615C413.376 483.784 414.023 483.37 414.013 482.978C414.006 482.698 413.986 482.385 413.86 482.145C413.242 480.967 412.344 479.997 411.422 479.055C410.296 477.904 409.17 476.753 408.012 475.635C406.715 474.383 405.602 473.054 405.686 471.102C405.421 470.268 405.173 469.428 404.888 468.6C404.217 466.646 403.863 464.641 403.841 462.576C403.838 462.283 403.831 461.991 403.834 461.698C403.855 460.374 403.746 459.076 403.335 457.799C403.159 457.252 403.107 456.647 403.104 456.068C403.09 452.116 403.099 448.163 403.116 444.212C403.119 443.321 403.342 442.478 403.824 441.712C404.682 440.35 405.582 439.012 406.372 437.611C407.744 435.173 409.43 432.993 411.301 430.912C414.06 427.842 417.108 425.151 420.528 422.848C422.348 421.624 424.09 420.283 425.858 418.983C427.4 417.848 428.714 416.471 429.959 415.028C430.544 414.351 430.899 413.552 431.105 412.687C431.174 412.402 431.207 412.11 431.261 411.822C431.614 409.95 431.336 408.012 431.882 406.158C431.963 405.884 431.958 405.579 431.971 405.287C432.074 402.802 432.216 400.317 432.256 397.832C432.313 394.174 432.256 390.512 432.625 386.864C432.668 386.429 432.677 385.986 432.663 385.547C432.558 381.879 433.066 378.244 433.273 374.595C433.466 371.238 433.853 367.893 434.044 364.532C434.168 362.347 434.185 360.143 434.637 357.978C434.787 357.269 434.773 356.524 434.788 355.793C434.862 352.281 435.107 348.78 435.48 345.288C435.572 344.42 435.557 343.534 435.517 342.659C435.497 342.235 435.42 341.726 435.17 341.414C434.14 340.12 433.763 338.53 433.069 337.086C432.239 335.358 431.735 333.531 431.361 331.66C430.79 328.791 430.167 325.932 429.6 323.061C429.26 321.341 428.977 319.606 428.68 317.877C428.013 313.981 427.175 310.122 426.197 306.294C425.614 304.019 425.171 301.731 425.088 299.379C425.061 298.648 425.088 297.897 424.922 297.197C424.546 295.607 424.581 294 424.576 292.393C424.565 288.44 424.573 284.488 424.556 280.535C424.553 279.659 424.511 278.781 424.434 277.908C424.395 277.47 424.206 277.036 423.844 276.772C422.783 275.999 421.716 275.228 420.612 274.519C419.077 273.534 417.408 273.122 415.583 273.511C414.725 273.693 413.864 273.863 412.999 274.003C412.719 274.049 412.404 274.042 412.134 273.958C409.904 273.266 407.555 272.981 405.4 272.023C404.584 271.659 403.705 271.565 402.822 271.575C401.21 271.59 399.603 271.678 398.015 271.983C397.286 272.123 396.572 272.088 395.84 271.952C394.978 271.793 394.102 271.713 393.231 271.61C392.649 271.542 392.049 271.559 391.486 271.421C390.784 271.25 390.115 270.945 389.423 270.727C389.147 270.64 388.797 270.689 388.614 270.92C386.663 273.377 384.2 275.168 381.425 276.572C380.904 276.837 380.398 277.135 379.897 277.437C379.522 277.663 379.148 277.899 378.799 278.164C377.373 279.248 376.247 280.587 375.584 282.26C375.099 283.481 374.613 284.708 374.365 286.013C373.873 288.604 373.442 291.211 373.363 293.845C373.254 297.502 373.256 301.165 373.528 304.818C373.799 308.469 374.387 312.081 375.026 315.682C375.408 317.842 375.954 319.973 376.142 322.165C376.165 322.448 376.137 322.767 376.026 323.023C375.378 324.506 374.577 325.892 373.323 326.963C372.99 327.247 372.629 327.504 372.329 327.819C372.137 328.022 371.959 328.291 371.899 328.561C371.604 329.843 371.336 331.127 371.235 332.447C371.104 334.195 370.967 335.951 370.684 337.679C370 341.865 369.209 346.034 368.504 350.216C368.261 351.656 368.048 353.107 368.065 354.578C368.08 355.897 368.006 357.204 367.75 358.508C367.467 359.942 367.606 361.42 367.316 362.87C366.828 365.311 366.629 367.788 366.692 370.285C366.723 371.454 366.736 372.634 366.612 373.794C366.423 375.548 366.443 377.301 366.438 379.055C366.431 381.105 366.438 383.154 366.434 385.204C366.431 386.958 366.426 388.706 366.103 390.452C365.918 391.447 365.994 392.493 365.958 393.515C365.913 394.831 365.953 396.154 365.813 397.46C365.67 398.775 365.64 400.087 365.635 401.403C365.63 402.721 365.578 404.027 365.263 405.324C365.094 406.024 365.067 406.775 365.08 407.502C365.144 410.881 364.75 414.22 364.289 417.557C363.949 420.02 363.478 422.47 363.252 424.943C363.013 427.576 362.584 430.168 361.992 432.733C361.333 435.591 360.931 438.491 360.574 441.388C360.003 446.027 359.628 450.69 359.49 455.367C359.468 456.098 359.512 456.844 359.385 457.556C359.1 459.154 359.09 460.761 359.106 462.37C359.12 463.846 358.862 465.284 358.629 466.727C358.289 468.833 357.307 470.588 355.685 471.974C355.018 472.543 354.347 473.115 353.634 473.621C352.323 474.552 350.978 475.434 349.652 476.344C348.447 477.172 347.242 478.003 346.049 478.847C345.208 479.442 344.449 480.126 343.869 480.989C343.457 481.604 342.909 482.083 342.334 482.544C341.537 483.186 340.726 483.821 339.992 484.533C338.257 486.215 337.188 488.266 336.823 490.661C336.706 491.425 336.892 492.139 337.59 492.573C339.085 493.498 340.508 494.525 341.92 495.569C342.862 496.265 343.837 496.913 344.789 497.595C346.82 499.046 349 500.241 351.224 501.359C352.042 501.769 352.908 501.922 353.712 501.339C354.332 500.89 355.003 500.67 355.753 500.673C357.813 500.682 359.83 500.9 361.781 501.655C362.731 502.024 363.745 502.235 364.742 502.461C365.308 502.589 365.898 502.634 366.481 502.658C367.069 502.681 367.634 502.532 368.179 502.292C368.678 502.073 369.03 501.317 368.926 500.851C368.73 499.97 368.194 499.264 367.822 498.475C367.569 497.94 367.381 497.402 367.389 496.798C367.44 493.139 367.478 489.481 367.522 485.822L367.525 485.813ZM396.619 250.738C396.776 251.675 396.624 252.841 396.562 254.007C396.428 256.502 396.641 258.977 397.122 261.422C397.304 262.354 397.996 262.914 398.883 263.205C399.156 263.296 399.461 263.389 399.736 263.358C401.797 263.118 403.811 263.669 405.855 263.708C406.427 263.72 407.008 263.897 407.561 264.073C408.397 264.338 409.215 264.66 410.035 264.971C410.867 265.288 411.737 265.363 412.617 265.407C413.487 265.449 414.046 265.127 414.348 264.37C414.562 263.828 414.723 263.262 414.985 262.748C415.363 262.004 416.578 261.685 417.282 262.101C417.659 262.324 418.061 262.525 418.38 262.815C419.353 263.699 420.293 264.621 421.243 265.531C421.666 265.935 422.078 266.347 422.5 266.749C422.879 267.11 423.718 267.244 424.137 266.982C424.514 266.748 424.821 266.409 424.923 265.975C425.022 265.553 425.044 265.109 425.061 264.673C425.143 262.627 425.213 260.581 425.282 258.535C425.416 254.569 426.056 250.683 427.115 246.862C427.311 246.158 427.532 245.459 427.707 244.75C428.352 242.112 428.676 239.365 428.677 236.511C428.677 235.487 428.677 234.463 428.67 233.439C428.657 231.36 428.173 229.389 427.318 227.497C426.713 226.158 425.997 224.887 425.121 223.71C424.953 223.486 424.697 223.32 424.461 223.157C424.367 223.092 424.189 223.057 424.099 223.104C423.982 223.164 423.836 223.323 423.839 223.437C423.856 224.019 423.908 224.6 423.963 225.182C424.02 225.783 423.871 226.339 423.633 226.881C423.425 227.352 422.718 227.769 422.207 227.727C420.843 227.616 419.657 227.147 418.747 226.078C417.515 224.632 416.31 223.157 415.016 221.768C413.998 220.674 413.232 219.466 412.769 218.051C412.496 217.219 412.213 216.387 411.916 215.563C410.728 212.257 409.947 208.828 408.883 205.487C408.798 205.219 408.761 204.894 408.828 204.626C409.11 203.495 409.436 202.373 409.75 201.251C409.818 201.001 410.504 200.49 410.774 200.495C411.503 200.51 412.23 200.545 412.959 200.557C413.351 200.564 413.775 200.138 413.788 199.706C413.825 198.539 413.869 197.371 413.86 196.203C413.857 195.6 413.569 195.077 413.155 194.642C412.751 194.218 412.344 193.797 411.915 193.402C409.971 191.61 407.613 190.375 405.57 188.71C405.019 188.261 404.274 188.055 403.633 187.704C403.251 187.495 402.868 187.264 402.544 186.975C401.782 186.293 401.024 185.603 400.332 184.854C400.051 184.549 399.779 184.088 399.778 183.696C399.768 181.801 399.424 179.907 399.736 178.007C399.804 177.585 399.768 177.142 399.749 176.71C399.744 176.588 399.664 176.425 399.566 176.36C399.298 176.18 399.013 176.175 398.752 176.293C398.186 176.547 397.842 177.047 397.576 177.55C397.167 178.322 396.835 179.14 396.532 179.961C396.009 181.373 395.176 182.543 393.963 183.433C393.477 183.79 393.117 184.217 392.922 184.795C392.646 185.626 392.314 186.441 392.058 187.279C391.714 188.396 391.444 189.538 391.094 190.652C390.876 191.347 390.605 192.031 390.291 192.688C389.829 193.66 388.741 194.241 387.759 193.886C386.742 193.519 385.76 193.541 384.782 193.997C384.651 194.057 384.505 194.094 384.361 194.122C383.465 194.302 382.605 194.186 381.831 193.702C381.212 193.316 380.609 192.897 380.043 192.44C378.679 191.337 377.566 189.923 376.046 189.025C374.54 188.133 372.943 187.393 371.401 186.558C369.087 185.305 366.78 184.038 364.482 182.753C363.824 182.384 363.147 182.191 362.398 182.196C361.96 182.2 361.521 182.146 361.082 182.136C359.529 182.102 358.269 181.454 357.221 180.335C356.221 179.269 355.138 178.272 354.215 177.144C350.959 173.168 347.145 169.759 343.341 166.339C343.234 166.244 343.11 166.16 342.981 166.094C342.857 166.032 342.716 165.999 342.582 165.96C342.225 165.86 341.971 165.984 341.905 166.341C341.644 167.763 342.133 169.253 341.535 170.649C341.575 171.254 341.775 171.785 342.261 172.175C347.284 176.212 352.523 179.942 358.089 183.2C360.866 184.825 363.671 186.402 366.438 188.044C370.493 190.452 374.094 193.407 377.157 197.013C378.675 198.803 380.043 200.698 381.351 202.638C385.197 208.346 388.616 214.31 391.913 220.344C392.614 221.626 393.236 222.955 393.829 224.29C394.184 225.088 394.491 225.921 394.687 226.77C395.047 228.335 395.598 229.867 395.654 231.491C395.709 233.133 396.609 234.559 396.8 236.162C396.835 236.452 396.847 236.752 396.927 237.031C397.226 238.044 397.197 239.045 396.894 240.054C396.207 242.331 396.103 244.65 396.369 247.004C396.5 248.166 396.528 249.339 396.617 250.74L396.619 250.738ZM392.555 152.384C393.365 152.384 393.949 152.354 394.529 152.397C394.807 152.417 395.077 152.571 395.347 152.677C395.65 152.796 395.826 153.024 395.846 153.342C395.863 153.597 395.692 153.813 395.355 153.894C394.789 154.028 394.209 154.111 393.639 154.234C393.351 154.296 392.996 155.036 393.096 155.333C393.42 156.3 393.718 157.277 394.079 158.23C394.501 159.351 394.595 160.506 394.524 161.679C394.489 162.259 394.407 162.842 394.291 163.412C394.226 163.738 394.244 164.005 394.546 164.176C394.653 164.236 394.861 164.233 394.965 164.166C395.578 163.773 396.188 163.427 396.946 163.35C397.52 163.293 398.083 163.107 398.643 162.947C398.921 162.869 399.194 162.743 399.442 162.592C399.959 162.279 400.362 161.836 400.418 161.223C400.52 160.062 400.552 158.894 400.621 157.728C400.666 156.938 401.101 156.37 401.698 155.909C401.926 155.733 402.175 155.562 402.442 155.46C403.826 154.927 404.981 154.023 406.157 153.161C406.624 152.819 407.067 152.422 407.449 151.986C408.312 151.001 408.883 149.743 409.994 148.999C411.082 148.272 412.268 147.69 413.404 147.033C413.91 146.742 414.405 146.43 414.894 146.111C415.137 145.952 415.368 145.768 415.585 145.574C416.019 145.18 416.448 144.769 416.655 144.208C417.22 142.681 417.929 141.267 419.286 140.258C419.623 140.007 419.854 139.596 420.085 139.229C420.553 138.489 420.994 137.73 421.434 136.972C421.654 136.593 421.85 136.201 422.056 135.816C422.303 135.355 422.194 134.638 421.8 134.197C421.51 133.872 421.227 133.535 420.903 133.245C420.469 132.857 419.99 132.516 419.544 132.139C418.975 131.657 418.584 131.04 418.328 130.346C417.974 129.386 417.664 128.416 417.507 127.397C417.391 126.643 416.912 126.063 416.349 125.591C415.792 125.123 415.194 124.698 414.582 124.307C413.845 123.836 413.048 123.458 412.324 122.968C411.571 122.46 411.075 121.725 410.956 120.812C410.826 119.799 410.693 118.776 410.7 117.758C410.708 116.312 410.206 115.24 408.915 114.514C408.272 114.152 407.871 113.504 407.499 112.87C406.896 111.842 406.051 111.042 405.1 110.348C404.386 109.829 403.635 109.377 402.717 109.345C401.529 109.301 400.419 108.976 399.34 108.495C398.796 108.252 398.197 108.272 397.624 108.443C396.647 108.735 395.667 109.02 394.71 109.37C394.477 109.455 394.226 109.76 394.172 110.007C394.047 110.571 394.062 111.166 393.976 111.741C393.78 113.078 393.237 114.256 392.279 115.225C391.766 115.743 391.221 116.23 390.732 116.768C390.546 116.973 390.404 117.269 390.363 117.544C390.03 119.747 389.618 121.584 389.127 123.054C389.082 123.188 389.023 123.329 389.025 123.466C389.028 123.607 389.082 123.754 389.14 123.887C389.447 124.57 390.053 125.013 390.523 125.564C391.198 126.36 391.674 127.258 391.856 128.284C391.96 128.873 391.848 129.472 391.402 129.906C390.881 130.412 390.28 130.834 389.76 131.342C389.569 131.528 389.428 131.846 389.412 132.113C389.368 132.838 389.363 133.572 389.415 134.298C389.594 136.778 389.611 139.261 389.583 141.745C389.576 142.326 389.497 142.908 389.428 143.486C389.326 144.347 388.56 145.118 387.718 145.23C387.573 145.248 387.428 145.254 387.282 145.26C386.99 145.277 386.697 145.272 386.407 145.309C385.65 145.404 385.227 146.192 385.485 146.936C385.933 148.225 386.769 149.235 387.796 150.069C388.699 150.803 389.68 151.449 390.667 152.069C391.017 152.29 391.483 152.357 391.907 152.424C392.187 152.469 392.487 152.389 392.55 152.384H392.555ZM390.251 164.866H390.295C390.295 164.72 390.295 164.574 390.295 164.429C390.295 161.392 390.223 161.387 388.317 158.837C387.446 157.671 386.394 156.648 385.167 155.829C384.819 155.596 384.266 155.643 384.028 155.981C383.776 156.338 383.52 156.689 383.274 157.047C382.897 157.597 381.318 157.634 380.822 157.201C380.493 156.916 380.173 156.622 379.865 156.315C379.347 155.802 378.858 155.259 378.32 154.768C378.116 154.582 377.809 154.505 377.549 154.379C377.211 154.217 376.572 154.51 376.467 154.842C375.579 157.66 375.631 160.605 375.378 163.499C375.136 166.262 374.791 169.01 374.486 171.763C374.307 173.374 373.834 174.904 372.929 176.278C372.691 176.64 372.433 177.022 372.469 177.476C372.49 177.749 372.564 178.081 372.738 178.268C373.246 178.813 373.946 179.056 374.618 179.348C375.45 179.709 376.237 179.902 377.135 179.492C377.491 179.329 377.992 179.431 378.416 179.492C378.694 179.53 378.949 179.721 379.222 179.822C379.495 179.922 379.773 180.014 380.058 180.076C380.646 180.204 381.233 180.182 381.727 179.805C382.305 179.364 382.848 178.875 383.406 178.407C384.348 178.201 384.874 177.583 385.211 176.708C385.737 175.341 386.504 174.098 387.305 172.873C388.024 171.773 388.696 170.644 389.385 169.526C389.933 168.635 390.203 167.656 390.244 166.619C390.268 166.036 390.25 165.451 390.25 164.868L390.251 164.866ZM323.596 146.854C323.596 148.34 323.548 148.93 323.606 149.51C323.722 150.668 323.831 151.834 324.064 152.972C324.277 154.011 324.867 154.381 325.966 154.431C326.112 154.438 326.261 154.452 326.405 154.431C327.704 154.235 329.002 154.033 330.301 153.828C330.628 153.776 330.97 153.252 330.924 152.816C330.847 152.087 330.768 151.368 331.043 150.656C331.258 150.101 331.3 149.523 331.209 148.932C330.705 145.607 330.222 142.277 329.699 138.954C329.47 137.505 329.314 136.057 329.322 134.588C329.341 131.221 329.324 127.853 329.332 124.486C329.334 123.608 329.346 122.729 329.401 121.854C329.619 118.352 330.1 114.873 330.194 111.357C330.244 109.469 330.482 107.565 331.04 105.727C331.38 104.607 331.637 103.465 331.938 102.334C332.203 101.345 332.489 100.361 332.751 99.3709C332.999 98.4308 332.577 97.7354 331.517 97.4154C330.82 97.2042 330.105 97.0534 329.389 96.9194C329.111 96.8674 328.786 96.8757 328.526 96.9746C328.278 97.0701 327.937 97.288 327.895 97.5025C327.415 99.9423 327.219 102.429 326.812 104.877C326.115 109.072 325.758 113.299 325.408 117.524C325.095 121.314 325.016 125.123 324.815 128.924C324.535 134.185 324.429 139.457 323.766 144.694C323.637 145.708 323.607 146.735 323.598 146.859L323.596 146.854ZM372.507 86.23C371.404 86.23 370.526 86.2233 369.648 86.23C367.267 86.2518 365.023 86.8047 362.897 87.8973C361.87 88.4251 361.389 89.2161 361.328 90.3304C361.271 91.3928 361.526 92.3698 362.136 93.2361C363.4 95.0308 364.685 96.8071 366.074 98.5113C367.575 100.355 369.437 101.749 371.379 103.061C372.123 103.564 372.973 103.808 373.863 103.827C374.117 103.832 374.417 103.644 374.627 103.465C375.21 102.965 375.346 102.201 375.619 101.536C376.023 100.554 376.651 99.7747 377.44 99.1028C377.774 98.8196 378.132 98.5632 378.489 98.3068C379.595 97.5142 380.79 97.035 382.186 97.2729C382.33 97.298 382.478 97.293 382.623 97.3097C384.314 97.5024 384.56 96.787 384.644 95.7078C384.78 93.9584 384.842 92.2022 384.943 90.4494C385.01 89.2898 384.485 88.5156 383.454 88.0162C382.794 87.6962 382.142 87.3795 381.424 87.2052C378.419 86.478 375.378 86.1077 372.507 86.23ZM353.295 154.852C351.391 154.852 350.517 154.83 349.642 154.857C348.187 154.902 346.733 154.983 345.278 155.038C344.93 155.051 344.712 155.185 344.635 155.516C344.57 155.792 344.603 156.095 344.839 156.288C345.513 156.843 346.225 157.352 346.909 157.895C348.973 159.536 350.912 161.293 352.146 163.683C352.693 164.745 353.484 165.632 354.411 166.312C355.708 167.264 356.844 168.395 358.124 169.355C358.946 169.97 359.824 170.486 360.811 170.786C361.236 170.915 361.667 170.867 362.057 170.632C362.334 170.466 362.513 170.208 362.461 169.913C362.361 169.347 362.217 168.787 362.066 168.231C361.002 164.293 361.025 165.034 361.022 160.923C361.022 159.903 361.018 158.882 360.998 157.863C360.99 157.428 360.936 156.992 360.896 156.556C360.812 155.616 360.112 154.854 359.254 154.822C358.091 154.778 356.925 154.75 355.76 154.761C354.595 154.775 353.432 154.847 353.295 154.852ZM375.951 125.896C375.931 125.896 375.909 125.897 375.889 125.899C375.863 125.609 375.805 125.316 375.82 125.028C375.922 122.946 375.632 120.967 374.51 119.146C374.213 118.665 374.164 118.037 373.972 117.487C373.777 116.937 373.588 116.378 373.318 115.865C373.045 115.349 372.643 114.906 372.09 114.665C370.329 113.899 368.477 113.512 366.565 113.465C365.843 113.447 365.116 113.544 364.395 113.616C363.917 113.663 363.534 113.996 363.406 114.384C362.855 116.041 362.317 117.712 362.253 119.481C362.238 119.915 362.272 120.352 362.312 120.786C362.397 121.727 363.641 122.752 364.497 122.462C365.922 121.98 367.356 121.946 368.819 122.062C369.598 122.124 370.226 122.476 370.609 123.146C370.967 123.776 371.163 124.507 371.562 125.105C372.614 126.68 373.729 128.212 374.841 129.745C375.022 129.994 375.339 130.035 375.624 129.991C375.927 129.944 376.11 129.745 376.098 129.39C376.06 128.225 376.004 127.06 375.954 125.896H375.951ZM432.239 84.4822C431.832 84.5224 431.095 84.5241 430.391 84.6766C427.415 85.3251 424.447 86.0155 421.48 86.7025C421.202 86.7662 420.947 86.9304 420.677 87.0377C420.06 87.2823 419.869 87.9811 420.283 88.4218C421.874 90.1076 423.786 91.4749 425.166 93.3685C425.25 93.4841 425.364 93.583 425.48 93.6684C428.372 95.8385 428.4 96.0413 431.767 94.7174C432.301 94.508 432.878 94.2549 433.27 93.8595C434.401 92.72 435.785 91.9056 436.972 90.8416C437.246 90.5952 437.382 89.9517 437.243 89.6434C436.523 88.0464 435.557 86.6003 434.495 85.2179C434.125 84.7353 433.609 84.4889 432.99 84.4788C432.844 84.4772 432.7 84.4788 432.238 84.4788L432.239 84.4822ZM481.138 128.022C481.088 128.022 481.036 128.022 480.986 128.019C480.91 131.069 480.828 134.118 480.765 137.168C480.756 137.599 480.83 138.033 480.894 138.46C480.912 138.581 481.008 138.71 481.103 138.794C481.358 139.013 481.639 139.025 481.914 138.844C483.984 137.473 485.793 135.804 487.479 133.993C487.677 133.78 487.851 133.547 488.029 133.317C488.392 132.848 488.619 132.305 488.714 131.734C488.976 130.147 488.999 128.547 488.702 126.965C488.57 126.259 488.341 125.556 488.042 124.902C487.682 124.113 487.248 123.349 486.769 122.625C485.483 120.684 484.079 118.834 482.489 117.13C482.392 117.026 482.269 116.919 482.139 116.877C482.021 116.84 481.862 116.862 481.745 116.912C481.628 116.962 481.472 117.061 481.447 117.167C481.343 117.582 481.224 118.01 481.219 118.434C481.179 121.629 481.162 124.827 481.14 128.022H481.138ZM367.405 154.416C367.405 154.428 367.406 154.44 367.408 154.453C366.681 154.53 365.953 154.612 365.226 154.686C364.666 154.743 364.085 155.273 364.021 155.782C363.929 156.508 363.817 157.231 363.74 157.959C363.488 160.342 363.867 162.641 364.842 164.812C365.499 166.275 366.258 167.7 367.079 169.077C367.604 169.957 368.378 170.652 369.387 171.021C369.769 171.16 370.339 171.029 370.583 170.744C371.071 170.173 371.351 169.509 371.52 168.789C372.296 165.506 372.584 162.146 373.104 158.823C373.125 158.681 373.132 158.517 373.08 158.388C372.975 158.125 372.847 157.865 372.686 157.635C372.613 157.53 372.438 157.485 372.303 157.434C371.428 157.101 370.801 156.551 370.644 155.578C370.62 155.435 370.56 155.298 370.508 155.162C370.32 154.679 369.627 154.212 369.147 154.254C368.566 154.304 367.986 154.364 367.405 154.421V154.416ZM384.622 136.679C385.239 136.96 385.656 137.426 386.256 137.502C386.518 137.535 386.848 137.379 386.92 137.091C387.53 134.671 387.49 132.191 387.555 129.721C387.58 128.786 387.954 128.026 388.617 127.414C389.023 127.039 388.954 126.623 388.788 126.241C388.554 125.703 388.173 125.185 387.537 125.157C385.175 125.054 382.943 124.466 380.787 123.53C380.249 123.297 379.686 123.826 379.694 124.475C379.744 128.024 380.793 131.35 382.002 134.633C382.141 135.012 382.499 135.36 382.841 135.605C383.428 136.027 384.081 136.359 384.624 136.677L384.622 136.679ZM366.969 152.962C367.828 152.893 368.691 152.856 369.544 152.737C369.792 152.702 370.114 152.484 370.218 152.263C370.595 151.46 370.734 150.579 370.416 149.743C370.005 148.669 369.476 147.64 368.991 146.594C368.608 145.768 367.927 145.259 367.133 144.866C366.778 144.69 366.257 144.823 366.012 145.203C365.7 145.686 365.33 146.148 365.122 146.673C364.425 148.437 364.117 150.277 364.308 152.174C364.33 152.395 364.608 152.684 364.834 152.776C365.516 153.054 366.248 152.948 366.971 152.96L366.969 152.962ZM241.411 72.6382C241.332 71.7786 241.56 70.6324 241.683 69.4779C241.761 68.7355 241.302 68.0334 240.565 67.834C239.932 67.6614 239.286 68.0351 239.451 68.6853C240.131 71.3932 240.076 74.1531 240.047 76.913C240.032 78.3893 239.792 79.8036 239.028 81.0939C238.956 81.2162 238.914 81.357 238.857 81.4894C238.72 81.8128 238.76 82.096 239.033 82.2384C239.276 82.3657 239.566 82.5015 239.824 82.483C241.279 82.3791 242.673 81.9653 244.062 81.5514C244.196 81.5112 244.422 81.3755 244.411 81.3252C244.354 81.0537 244.305 80.7236 244.124 80.5476C243.71 80.1488 243.224 79.8237 242.762 79.4752C241.894 78.82 241.431 77.9486 241.415 76.8661C241.394 75.5607 241.41 74.2553 241.41 72.6382H241.411ZM416.396 93.1791C416.374 93.0367 416.399 92.8608 416.322 92.7586C415.709 91.9274 414.896 91.3375 413.969 90.9035C413.44 90.6555 412.867 90.5047 412.29 90.5851C410.713 90.8063 409.153 91.1415 407.72 91.8537C406.561 92.4301 405.445 93.1004 404.341 93.7757C404.133 93.903 404.047 94.2499 403.943 94.5113C403.93 94.5432 404.146 94.7125 404.274 94.7476C405.249 95.0091 406.222 95.2705 407.208 95.4916C407.633 95.5872 408.061 95.5134 408.406 95.1917C408.826 94.8012 409.19 94.2935 409.684 94.0472C412.528 92.6278 412.188 92.3262 415.358 93.4506C415.608 93.5394 415.901 93.5361 416.169 93.5126C416.253 93.5059 416.32 93.2948 416.396 93.1775V93.1791ZM386.675 514.475C386.885 514.475 387.071 514.533 387.168 514.466C388.202 513.744 389.383 513.905 390.533 513.871C390.677 513.866 390.823 513.863 390.965 513.846C391.109 513.829 391.248 513.789 391.392 513.769C391.714 513.727 392.275 513.236 392.327 512.946C392.384 512.626 392.041 512.103 391.682 511.936C389.842 511.075 387.914 510.475 385.945 509.995C385.573 509.905 385.129 510.135 384.904 510.597C384.651 511.115 384.448 511.654 384.209 512.179C384.011 512.611 384.304 513.452 384.738 513.712C385.358 514.084 386.002 514.411 386.677 514.475H386.675ZM328.582 155.681C328.582 155.705 328.582 155.728 328.582 155.752C328.002 155.752 327.419 155.718 326.844 155.767C326.591 155.789 326.338 155.958 326.11 156.1C325.887 156.241 325.994 156.928 326.309 157.307C327.142 158.309 327.982 159.306 328.838 160.286C329.022 160.497 329.279 160.663 329.528 160.801C329.822 160.962 330.125 160.933 330.291 160.71C331.011 159.747 331.234 158.612 331.321 157.448C331.343 157.168 331.231 156.88 331.184 156.593C331.119 156.194 330.671 155.772 330.314 155.757C329.736 155.732 329.16 155.705 328.582 155.68V155.681ZM432.65 134.41C433.002 134.375 433.436 134.341 433.867 134.286C434.202 134.242 434.401 134.055 434.456 133.758C434.508 133.475 434.46 133.185 434.245 132.967C434.048 132.766 433.81 132.516 433.558 132.473C432.64 132.31 431.867 132.642 431.268 133.351C431.19 133.443 431.18 133.611 431.18 133.743C431.18 134.048 431.365 134.247 431.708 134.304C431.993 134.351 432.283 134.37 432.653 134.408L432.65 134.41ZM392.389 91.9458C392.316 91.8218 392.247 91.6961 392.168 91.5771C391.836 91.0761 391.377 90.7678 390.796 90.6035C390.231 90.4443 389.594 90.7343 389.417 91.299C389.333 91.5671 389.301 91.857 389.286 92.1402C389.261 92.6496 389.874 93.2914 390.375 93.2747C391.124 93.2479 391.79 93.0317 392.2 92.3363C392.274 92.2123 392.326 92.0765 392.388 91.9458H392.389ZM399.055 86.3004C398.784 86.364 398.507 86.3992 398.254 86.4964C398.016 86.5869 398.161 87.1482 398.524 87.5655C398.616 87.6711 398.713 87.7716 398.811 87.8722C399.339 88.4151 399.655 88.4905 400.297 88.1705C400.542 88.0482 400.77 87.8805 400.979 87.7046C401.251 87.4767 401.229 87.2236 400.979 86.9656C400.446 86.4193 399.744 86.3758 399.055 86.3004ZM233.688 84.085C234.345 84.2509 234.829 83.9493 235.281 83.579C235.387 83.4918 235.521 83.3511 235.519 83.2355C235.514 82.9255 235.318 82.711 235.023 82.5937C234.251 82.2837 233.698 82.54 233.358 83.408C233.234 83.7247 233.391 83.9694 233.69 84.085H233.688Z" fill="#8DC0FF"/>
</svg>
