<svg width="268" height="422" viewBox="0 0 268 422" fill="none" xmlns="http://www.w3.org/2000/svg">
<path d="M201.743 142.446C201.815 143.609 202.147 144.718 202.424 145.839C202.579 146.471 202.367 146.957 201.752 147.223C201.324 147.409 201.2 147.87 200.879 148.153C200.6 148.398 199.962 148.408 199.689 148.167C199.582 148.071 199.441 148.011 199.347 147.905C197.705 146.064 195.873 144.44 193.842 143.039C193.578 142.856 193.502 142.568 193.573 142.263C193.772 141.415 193.916 140.577 193.616 139.711C193.358 138.964 193.569 138.35 194.157 137.777C194.598 137.348 194.489 136.747 194.32 136.16C193.997 135.046 193.147 134.163 192.969 132.988C192.931 132.727 193.303 132.001 193.579 131.916C193.715 131.874 193.867 131.886 194.008 131.857C194.291 131.802 194.573 131.735 194.853 131.676C194.851 131.676 194.91 131.943 194.91 131.943L194.736 131.777C194.606 131.364 194.571 130.883 194.332 130.552C193.474 129.367 192.555 128.226 191.644 127.083C190.662 125.853 190.364 124.482 190.749 122.961C190.819 122.679 190.912 122.403 191.024 122.135C191.076 122.009 191.2 121.913 191.287 121.801C191.508 121.518 191.766 121.486 192.061 121.706C192.294 121.878 192.564 122.017 192.751 122.228C196.247 126.171 199.727 130.128 203.228 134.067C204.101 135.049 205.147 135.895 205.906 136.951C206.682 138.03 207.607 138.957 208.453 139.962C209.207 140.857 209.986 141.734 210.732 142.637C212.225 144.447 213.601 146.34 214.727 148.405C215.851 150.464 217.128 152.423 218.465 154.35C219.216 155.433 219.898 156.562 220.655 157.64C222.003 159.555 223.323 161.494 224.763 163.337C227.015 166.221 229.344 169.044 231.666 171.873C233.711 174.365 235.675 176.912 237.443 179.611C240.01 183.533 242.5 187.496 244.444 191.777C244.988 192.975 245.639 194.125 246.257 195.288C246.672 196.069 246.977 196.886 247.202 197.738C247.483 198.803 247.244 199.769 246.652 200.662C246.081 201.523 245.362 202.255 244.569 202.909C243.779 203.559 242.947 204.161 242.15 204.804C241.335 205.459 240.73 206.279 240.378 207.269C240.134 207.956 239.908 208.651 239.691 209.349C239.432 210.186 239.234 211.046 238.934 211.869C238.52 213.003 237.773 213.9 236.719 214.501C235.956 214.937 235.147 215.287 234.386 215.725C231.971 217.116 229.657 218.655 227.633 220.589C226.988 221.204 226.478 221.913 226.323 222.823C226.274 223.111 226.215 223.399 226.167 223.688C225.785 225.925 224.536 227.378 222.326 227.989C221.951 228.093 221.709 228.743 221.853 229.087C221.967 229.357 222.045 229.643 222.184 229.898C222.391 230.283 222.631 230.654 222.872 231.021C223.353 231.755 223.822 232.499 224.334 233.212C227.234 237.258 229.991 241.402 232.774 245.527C234.577 248.2 236.541 250.754 238.632 253.204C239.487 254.204 240.424 255.134 241.314 256.103C241.912 256.754 242.607 257.279 243.331 257.785C244.528 258.625 245.687 259.518 246.862 260.391C247.274 260.696 247.943 260.853 248.08 260.664C248.348 260.297 248.435 259.865 248.415 259.427C248.367 258.405 248.323 257.378 248.206 256.362C248.068 255.164 247.514 254.137 246.728 253.234C246.537 253.014 246.324 252.81 246.109 252.61C245.359 251.91 244.574 251.253 243.69 250.724C243.061 250.348 242.414 249.996 241.83 249.561C241.096 249.014 240.657 248.26 240.653 247.317C240.65 246.439 240.672 245.561 241.027 244.731C241.27 244.163 241.669 243.736 242.249 243.562C242.805 243.396 243.398 243.352 243.971 243.238C244.399 243.153 244.822 243.045 245.245 242.935C245.697 242.816 246.267 242.074 246.299 241.628C246.384 240.452 246.29 239.28 246.064 238.132C245.556 235.542 244.9 232.993 243.75 230.597C243.433 229.936 243.205 229.229 242.84 228.599C241.902 226.975 241.903 225.258 242.195 223.49C242.279 222.989 242.85 222.471 243.422 222.439C243.996 222.407 244.601 222.592 245.134 222.278C246.181 221.665 247.331 221.518 248.511 221.457C251.601 221.3 254.585 220.594 257.556 219.778C258.997 219.383 260.264 218.702 261.481 217.871C262.608 217.102 263.408 216.077 263.924 214.84C264.494 213.478 264.795 212.045 264.804 210.565C264.812 209.037 264.254 207.691 263.259 206.562C262.682 205.908 261.993 205.345 261.316 204.789C259.956 203.675 258.506 202.679 257.007 201.764C255.607 200.91 255.1 199.665 255.155 198.063C255.215 196.302 255.43 194.562 255.676 192.824C256.025 190.363 256.465 187.913 256.795 185.45C257.028 183.71 257.203 181.962 257.179 180.198C257.154 178.296 257.166 176.392 257.188 174.489C257.206 172.919 256.537 171.652 255.468 170.584C254.017 169.138 252.516 167.754 250.86 166.527C247.804 164.262 244.784 161.943 241.803 159.578C237.557 156.212 233.535 152.582 229.542 148.923C228.786 148.23 228.064 147.501 227.293 146.826C220.439 140.817 214.487 133.985 208.915 126.798C205.954 122.979 203.091 119.093 200.356 115.108C199.282 113.545 198.236 111.943 196.788 110.668C196.579 110.483 196.394 110.225 196.301 109.964C195.94 108.98 195.255 108.209 194.68 107.365C193.923 106.249 193.018 105.339 191.652 104.987C191.361 104.912 191.206 104.6 191.195 104.283C191.17 103.546 191.084 102.859 190.566 102.252C189.05 100.468 187.567 98.6546 186.079 96.8465C183.381 93.5688 180.693 90.2827 177.988 87.0117C177.057 85.884 176.1 84.778 175.135 83.6787C174.3 82.7286 174.072 81.6176 174.198 80.406C174.288 79.533 174.423 78.665 174.521 77.7936C174.588 77.1987 174.808 76.6742 175.126 76.1699C175.594 75.4275 176.035 74.6684 176.469 73.9059C176.638 73.6093 176.604 73.3178 176.386 73.1536C176.154 72.9776 175.857 72.9759 175.567 73.1066C175.036 73.3446 174.52 73.6178 173.98 73.8339C173.355 74.0836 172.455 73.5859 172.187 72.9374C171.79 71.9755 171.602 70.9751 171.575 69.9462C171.517 67.741 171.031 65.5994 170.664 63.4395C170.537 62.6954 169.868 62.1743 169.097 62.1978C168.665 62.2112 168.221 62.233 167.996 62.7189C167.814 63.1161 167.656 63.5366 167.406 63.8902C167.064 64.3762 166.582 64.7566 165.98 64.8186C164.234 64.9979 162.483 65.1202 160.735 65.2811C160.156 65.3347 159.577 65.4252 159.001 65.519C158.369 65.6229 157.629 66.3686 157.538 66.9936C157.476 67.426 157.399 67.8684 157.427 68.299C157.567 70.3987 158.267 72.2923 159.599 73.9361C159.913 74.3232 160.313 74.3115 160.757 74.2025C161.034 74.1355 161.329 74.1255 161.615 74.1305C161.912 74.1356 162.15 74.3082 162.307 74.588C162.451 74.841 162.631 75.0907 162.701 75.3672C162.919 76.2151 163.039 77.0898 163.299 77.9243C163.559 78.7588 163.953 79.5498 164.261 80.3692C164.47 80.9239 164.536 81.5087 164.38 82.0902C164.107 83.1107 164.15 84.1111 164.465 85.1165C165.079 87.0704 165.622 89.0494 166.282 90.9865C167.465 94.4619 168.39 97.991 168.822 101.644C168.908 102.368 169.065 103.085 169.228 103.797C169.364 104.391 169.276 104.95 169.111 105.518C168.946 106.08 168.769 106.643 168.678 107.219C168.521 108.23 168.358 109.252 169.161 110.123C169.327 110.304 169.134 110.555 168.871 110.795C168.661 110.984 168.439 111.239 168.382 111.501C167.973 113.357 167.651 115.222 167.658 117.141C167.681 123.728 167.664 130.317 167.663 136.904C167.663 138.515 167.668 140.125 167.653 141.735C167.648 142.32 167.606 142.903 167.557 143.486C167.507 144.091 167.22 144.592 166.822 145.042C166.428 145.484 165.995 145.908 165.452 146.117C164.125 146.633 163.857 147.679 163.859 148.936C163.866 152.596 163.787 156.257 163.857 159.915C163.934 164.011 163.47 167.481 162.46 172.086C162.171 173.398 161.667 174.589 160.886 175.674C160.63 176.03 160.331 176.366 160.135 176.754C159.941 177.136 159.753 177.567 159.733 177.984C159.556 181.641 159.519 185.302 159.819 188.954C159.975 190.854 160.414 192.712 160.91 194.549C161.06 195.108 161.307 195.656 161.603 196.156C161.823 196.524 162.208 196.757 162.671 196.841C163.259 196.948 163.845 196.928 164.408 196.777C165.255 196.553 166.078 196.241 166.922 196.003C170.421 195.02 170.218 194.757 174.676 194.81C177.456 194.844 180.231 194.867 182.994 195.224C183.297 195.263 183.488 194.938 183.527 194.633C183.602 194.031 183.399 193.47 183.202 192.932C182.037 189.765 181.122 186.534 180.531 183.209C180.324 182.046 179.812 180.984 179.366 179.901C179.084 179.214 178.937 178.502 178.937 177.763C178.937 175.563 178.776 173.376 178.399 171.208C178.198 170.046 178.183 168.877 178.315 167.709C178.347 167.427 178.424 167.104 178.598 166.901C178.758 166.717 179.068 166.636 179.327 166.576C179.428 166.553 179.597 166.693 179.689 166.799C180.085 167.248 180.271 167.806 180.443 168.362C181.621 172.158 183.381 175.692 185.331 179.134C186.054 180.409 186.756 181.686 187.347 183.028C188.059 184.642 188.691 186.267 188.864 188.044C188.889 188.31 189.093 188.571 189.251 188.813C189.45 189.118 189.7 189.23 189.876 189.091C189.966 189.021 190.022 188.828 190.002 188.706C189.72 186.973 189.45 185.238 189.122 183.514C188.849 182.078 188.555 180.642 188.17 179.233C187.899 178.237 187.729 177.234 187.592 176.22C187.493 175.496 187.505 174.75 187.349 174.04C186.783 171.439 186.821 168.805 186.826 166.171C186.834 162.804 186.855 159.436 186.843 156.069C186.838 154.59 187.039 153.155 187.543 151.761C188.239 149.836 188.907 147.9 189.598 145.972C189.797 145.414 190.129 144.928 190.543 144.509C190.628 144.422 190.831 144.396 190.963 144.422C191.258 144.478 191.478 144.738 191.359 145.011C190.658 146.625 190.085 148.279 189.782 150.01C189.553 151.324 189.006 152.525 188.602 153.775C188.239 154.903 188.029 156.039 188.036 157.222C188.048 159.272 188.039 161.321 188.046 163.37C188.046 163.81 188.029 164.257 188.103 164.686C188.651 167.868 188.653 171.095 188.949 174.298C189.003 174.878 189.102 175.456 189.204 176.031C189.279 176.463 189.402 176.887 189.489 177.316C189.633 178.033 189.715 178.767 189.914 179.469C190.876 182.849 191.498 186.309 192.388 189.704C192.944 191.826 193.609 193.919 194.431 195.96C195.146 197.739 195.505 199.606 195.637 201.513C195.667 201.944 195.58 202.388 195.501 202.818C195.297 203.938 194.293 204.516 193.206 204.243C191.493 203.814 189.936 202.964 188.25 202.466C187.553 202.26 186.865 201.974 186.116 202.046C185.817 202.074 185.553 202.269 185.543 202.56C185.532 202.837 185.673 203.125 185.779 203.396C186.102 204.233 186.22 205.096 186.112 205.982C186.008 206.853 185.921 207.732 185.742 208.59C185.41 210.175 185.315 211.778 185.264 213.39C185.241 214.126 185.303 214.848 185.467 215.567C186.379 219.572 186.9 223.631 187.024 227.736C187.081 229.638 187.093 231.542 187.071 233.444C187.062 234.169 187.004 234.923 186.791 235.61C186.39 236.901 186.298 238.216 186.431 239.523C186.814 243.304 186.902 247.114 187.723 250.856C188.194 253.003 188.713 255.129 189.328 257.237C190.191 260.186 191.056 263.136 191.898 266.09C192.462 268.067 192.87 270.075 192.842 272.144C192.778 276.466 193.77 280.548 195.485 284.496C196.24 286.237 196.777 288.072 197.462 289.846C198.363 292.184 198.928 294.604 199.195 297.085C199.414 299.14 199.952 301.109 200.582 303.061C201.346 305.429 202.055 307.817 202.901 310.154C203.809 312.666 204.109 315.272 204.337 317.896C204.401 318.623 204.334 319.362 204.396 320.09C204.513 321.487 204.126 322.685 203.141 323.692C202.68 324.163 202.712 324.767 202.811 325.341C202.908 325.916 203.091 326.476 203.248 327.039C203.845 329.155 204.254 331.31 204.565 333.484C204.731 334.641 204.837 335.801 205.091 336.952C205.311 337.944 205.333 338.983 204.999 339.987C204.899 340.29 204.696 340.461 204.347 340.446C204.217 340.441 204.079 340.391 203.962 340.327C203.838 340.259 203.689 340.171 203.635 340.054C203.213 339.122 202.787 338.192 202.407 337.244C201.755 335.615 201.14 333.973 200.352 332.398C199.897 331.488 199.597 330.497 199.26 329.532C198.968 328.694 198.813 327.81 198.923 326.937C199.347 323.572 199.076 320.217 198.843 316.861C198.791 316.125 198.789 315.398 199.087 314.704C199.23 314.375 199.464 314.221 199.743 314.334C200.002 314.439 200.22 314.665 200.485 314.744C200.753 314.823 201.056 314.786 201.344 314.806C201.281 315.093 201.207 315.373 201.157 315.656C201.132 315.796 201.086 316.008 201.157 316.076C201.353 316.266 201.366 316.115 201.269 315.674C201.21 315.409 201.318 315.108 201.351 314.823C200.684 313.836 200.435 312.676 200.066 311.575C199.228 309.08 198.435 306.568 197.676 304.048C197.128 302.227 196.649 300.38 196.487 298.478C196.322 296.564 195.823 294.748 195.203 292.94C194.539 291.003 193.871 289.069 193.107 287.167C192.562 285.81 192.063 284.434 191.604 283.046C190.819 280.679 190.315 278.267 190.211 275.749C189.985 270.237 189.936 270.237 188.475 264.965C188.162 263.838 187.85 262.707 187.466 261.602C186.015 257.441 185.087 253.153 184.445 248.808C184.147 246.787 183.992 244.733 183.934 242.69C183.82 238.734 183.525 234.799 182.803 230.905C182.588 229.747 182.528 228.579 182.525 227.409C182.515 222.434 182.521 217.459 182.525 212.484C182.525 211.311 182.642 210.151 182.841 208.992C183.041 207.84 183.212 206.678 183.292 205.513C183.374 204.338 183.895 203.247 183.877 202.066C183.872 201.791 183.694 201.495 183.398 201.411C181.853 200.975 180.296 200.643 178.675 200.546C174.654 200.303 173.105 200.323 169.064 200.89C168.485 200.97 167.904 201.056 167.323 201.082C164.983 201.19 162.652 201.325 160.414 202.111C160.145 202.205 159.832 202.24 159.551 202.208C157.922 202.032 156.363 202.388 154.78 202.701C152.484 203.154 150.172 203.512 147.914 204.144C147.633 204.223 147.355 204.311 147.078 204.405C146.649 204.553 146.232 204.804 146.167 205.253C146.016 206.294 145.624 207.187 144.997 208.04C142.654 211.225 140.585 214.589 138.638 218.029C137.413 220.194 136.208 222.369 134.966 224.524C134.309 225.665 133.597 226.773 132.902 227.892C132.084 229.207 130.98 230.065 129.361 230.154C128.934 230.178 128.495 230.3 128.101 230.468C127.853 230.573 127.566 230.813 127.489 231.054C127.134 232.167 126.754 233.284 126.554 234.431C126.182 236.587 125.723 238.742 125.815 240.956C125.834 241.393 125.849 241.839 125.79 242.271C125.321 245.769 125.507 249.282 125.477 252.791C125.46 254.693 125.421 256.599 125.485 258.499C125.559 260.728 125.126 262.864 124.476 264.969C124.262 265.666 123.984 266.346 123.704 267.022C123.126 268.417 122.159 269.47 120.897 270.303C119.513 271.216 118.013 271.709 116.371 271.787C114.469 271.878 112.57 271.893 110.672 271.68C110.248 271.633 109.807 271.727 109.375 271.767C109.053 271.797 108.832 271.97 108.689 272.25C108.557 272.509 108.373 272.747 108.281 273.019C108.141 273.431 108.038 273.86 107.96 274.291C107.831 275.01 107.634 275.737 107.642 276.457C107.672 278.807 106.94 281.092 107.106 283.449C107.126 283.74 107.116 284.033 107.106 284.327C106.927 290.207 107.691 295.996 108.721 301.766C109.058 303.656 109.658 305.446 110.43 307.192C111.738 310.148 113.303 312.965 115.245 315.542C117.366 318.354 119.261 321.303 120.961 324.378C121.747 325.799 122.678 327.096 123.762 328.294C124.057 328.619 124.349 328.947 124.659 329.257C126.026 330.62 127.013 332.234 127.801 333.981C128.101 334.647 128.359 335.332 128.686 335.982C128.959 336.523 129.44 336.977 130.006 337.058C132.035 337.348 133.939 338.182 135.998 338.335C137.284 338.429 137.654 338.222 137.745 337.071C137.79 336.488 137.82 335.903 137.845 335.318C137.872 334.7 138.158 334.206 138.561 333.767C138.779 333.527 138.861 333.266 138.79 332.957C138.4 331.24 137.87 329.547 136.952 328.054C136.171 326.784 135.682 325.422 135.189 324.051C133.611 319.646 132.102 315.213 130.5 310.816C129.25 307.379 127.905 303.978 126.256 300.707C125.591 299.39 125.076 298.036 125.049 296.529C125.041 296.097 124.929 295.661 124.825 295.235C124.471 293.791 124.53 292.33 124.637 290.87C124.681 290.279 124.917 289.731 125.371 289.322C125.695 289.03 126.075 288.801 126.398 288.509C126.72 288.218 127.08 287.926 127.288 287.556C128.074 286.155 128.904 284.779 129.564 283.304C130.698 280.771 131.767 278.205 133.076 275.752C133.349 275.239 133.513 274.661 133.827 274.177C134.623 272.945 135.308 271.658 135.953 270.343C136.726 268.764 137.567 267.189 138.75 265.9C139.889 264.66 140.473 263.201 140.992 261.683C141.275 260.857 141.478 259.992 141.626 259.129C142.302 255.178 142.445 255.194 145.3 253.043C145.418 252.954 145.528 252.86 145.646 252.771C146.718 251.965 147.521 250.93 148.159 249.763C148.441 249.251 148.675 248.713 148.94 248.192C149.537 247.019 150.091 245.819 150.753 244.683C151.641 243.158 152.313 241.554 152.923 239.898C154.034 236.881 155.212 233.889 156.186 230.82C157.159 227.75 158.171 224.696 158.621 221.493C158.661 221.203 158.709 220.911 158.797 220.633C159.76 217.563 160.687 214.481 161.905 211.499C162.129 210.949 162.528 210.525 163.009 210.17C163.309 209.949 163.958 210.012 164.177 210.31C164.541 210.806 164.734 211.39 164.586 211.961C164.296 213.091 163.871 214.185 163.551 215.307C162.186 220.088 162.183 218.486 162.143 223.899C162.131 225.36 162.039 226.821 161.984 228.282C161.965 228.777 162.188 229.097 162.662 229.261C163.06 229.398 163.547 229.295 163.837 229.725C164.092 230.104 164.15 230.526 164.169 230.964C164.201 231.698 164.179 232.428 163.928 233.129C163.73 233.68 163.549 234.24 163.301 234.768C162.535 236.395 162.341 238.136 162.24 239.892C162.106 242.228 162.098 244.574 161.699 246.89C161.674 247.034 161.669 247.181 161.667 247.327C161.632 250.398 161.53 253.47 161.736 256.54C161.757 256.858 162.029 257.091 162.316 257.086C163.701 257.061 164.44 257.896 164.928 259.038C165.214 259.71 165.451 260.406 165.672 261.103C166.027 262.217 166.357 263.342 166.686 264.464C167.711 267.975 168.591 271.524 169.508 275.063C170.9 280.442 172.021 285.89 173.573 291.229C173.859 292.214 174.014 293.226 173.903 294.265C173.848 294.783 173.067 295.297 172.638 295.046C172.009 294.679 171.381 294.307 170.775 293.908C170.289 293.588 169.829 293.235 169.251 293.086C168.886 292.992 168.655 293.092 168.584 293.426C168.526 293.706 168.442 293.995 168.46 294.275C168.531 295.296 168.655 296.306 168.943 297.3C170.243 301.801 171.813 306.203 173.605 310.531C175.788 315.805 178.314 320.919 180.795 326.052C181.177 326.841 181.556 327.634 181.941 328.421C182.334 329.221 182.578 330.058 182.555 330.955C182.521 332.289 182.821 333.562 183.136 334.846C184.363 339.836 186.092 344.642 188.262 349.296C188.515 349.837 188.914 350.266 189.474 350.509C190.01 350.742 190.536 351.04 191.099 351.161C196.098 352.236 201.041 353.549 206.038 354.628C206.462 354.72 206.908 354.717 207.344 354.762C207.97 354.829 208.401 354.281 208.232 353.619C208.051 352.91 207.915 352.185 207.664 351.503C207.251 350.388 207.119 349.232 206.992 348.067L206.893 348.166C207.106 348.354 207.404 348.503 207.518 348.739C207.957 349.646 208.359 350.574 208.734 351.509C209.056 352.312 209.326 353.136 209.614 353.954C209.986 355.01 210.703 355.62 211.836 355.722C212.409 355.774 213.007 355.747 213.517 356.064C213.756 356.213 213.854 356.499 213.837 356.786C213.817 357.148 213.607 357.326 213.252 357.285C212.826 357.237 212.404 357.15 211.979 357.113C211.498 357.073 211.183 357.344 210.963 357.743C210.824 357.996 210.692 358.252 210.556 358.505L210.651 358.432C210.196 358.341 209.865 358.075 209.656 357.676C209.366 357.13 208.919 356.771 208.352 356.582C207.662 356.349 206.96 356.138 206.251 355.972C203.548 355.338 200.837 354.748 198.137 354.102C196.009 353.592 193.862 353.165 191.761 352.548C191.493 352.469 191.183 352.521 190.893 352.52C190.457 352.516 190.017 352.999 190.119 353.359C190.236 353.778 190.305 354.215 190.469 354.614C191.649 357.446 192.825 360.28 194.052 363.092C194.518 364.161 195.094 365.183 195.652 366.209C195.86 366.589 196.162 366.916 196.421 367.266C196.609 367.519 196.85 367.718 197.132 367.703C198.084 367.65 198.809 367.993 199.394 368.756C199.748 369.215 200.249 369.52 200.803 369.758C203.367 370.855 205.974 371.772 208.798 371.913C209.23 371.934 209.651 372.11 210.083 372.181C210.368 372.228 210.673 372.265 210.953 372.214C212.533 371.929 214.145 371.742 215.673 371.276C217.095 370.844 218.5 370.601 219.973 370.587C220.701 370.58 221.426 370.461 222.153 370.401C222.49 370.373 222.7 370.203 222.74 369.857C222.755 369.723 222.747 369.548 222.671 369.451C222.323 368.989 221.895 368.578 221.595 368.089C221.046 367.196 220.314 366.513 219.452 365.937C219.097 365.699 218.757 365.416 218.593 364.997C218.541 364.866 218.557 364.709 218.542 364.563L218.475 364.647C218.904 364.524 219.368 364.459 219.759 364.657C221.978 365.776 224.179 366.929 226.383 368.075C227.199 368.501 227.455 369.483 227.015 370.324C226.601 371.117 226.078 371.822 225.322 372.298C224.583 372.764 223.794 373.151 223.025 373.57C222.579 373.813 222.309 374.215 222.408 374.607C222.804 376.179 222.966 377.756 222.777 379.38C222.676 380.248 222.708 381.132 222.708 382.011C222.708 383.187 222.497 384.336 222.333 385.496C222.125 386.949 221.363 387.958 219.968 388.351C216.957 389.199 214.375 390.862 211.823 392.566C209.514 394.109 207.261 395.738 204.986 397.333C204.507 397.668 204.026 398.005 203.57 398.37C200.148 401.115 196.709 403.84 193.319 406.625C190.157 409.224 186.994 411.823 183.936 414.546C183.391 415.03 182.851 415.552 182.228 415.913C180.045 417.18 178.29 418.925 176.601 420.756C176.313 421.07 175.926 421.296 175.572 421.546C175.177 421.825 174.257 421.395 174.159 420.89C173.875 419.407 173.906 417.933 174.855 416.701C178.694 411.709 181.963 406.33 185.529 401.154C186.193 400.192 186.771 399.17 187.414 398.194C188.058 397.219 188.681 396.222 189.413 395.316C190.617 393.826 191.597 392.207 192.448 390.503C193.296 388.802 194.104 387.08 195.005 385.407C195.706 384.11 196.178 382.758 196.592 381.344C197.051 379.775 197.323 378.223 197.269 376.6C197.221 375.138 197.162 373.676 197.164 372.214C197.164 371.127 196.798 370.282 196.002 369.505C194.734 368.263 193.955 366.661 193.199 365.079C192.443 363.499 191.79 361.868 191.096 360.258C190.055 357.842 189.031 355.419 187.977 353.009C187.609 352.166 186.959 351.601 186.075 351.308C185.66 351.171 185.263 350.956 184.837 350.871C180.824 350.065 176.869 349.004 172.881 348.086C167.334 346.807 161.784 345.539 156.219 344.339C154.436 343.654 152.499 343.608 150.693 342.995C149.58 342.618 148.399 342.554 147.227 342.583C146.949 342.589 146.7 342.878 146.678 343.156C146.597 344.185 146.757 345.19 147.036 346.184C147.866 349.14 148.682 352.099 149.495 355.06C149.805 356.188 150.066 357.327 150.396 358.45C151.023 360.588 151.122 362.767 150.961 364.969C150.929 365.411 150.859 365.902 150.513 366.163C150.192 366.408 149.728 366.467 149.325 366.602C149.186 366.648 149.042 366.674 148.906 366.701C148.937 366.108 148.757 365.647 148.184 365.389C148.069 365.337 147.99 365.2 147.906 365.103C147.675 364.908 147.655 364.687 147.893 364.481C147.933 364.447 148.156 364.523 148.167 364.576C148.236 364.883 148.084 365.039 147.762 365.032C148.055 365.104 148.25 365.273 148.379 365.528C148.565 365.897 148.767 366.255 148.963 366.619C149.31 368.643 149.346 370.694 149.428 372.739C149.444 373.164 149.346 373.614 149.211 374.024C149.077 374.435 148.855 374.823 148.4 374.994C147.445 375.351 146.488 375.705 145.538 376.072C145.19 376.206 144.91 376.735 144.95 377.149C144.977 377.439 145.002 377.736 145.074 378.017C145.267 378.783 145.116 379.47 144.607 380.057C144.082 380.66 143.928 381.355 144.111 382.094C144.57 383.953 144.697 385.843 144.752 387.746C144.779 388.648 144.617 389.486 144.231 390.294C143.975 390.831 143.899 391.398 143.955 391.998C144.022 392.722 144.074 393.451 144.057 394.176C144.044 394.789 143.707 395.287 143.217 395.642C142.867 395.899 142.478 396.14 142.009 396.043C140.436 395.718 138.864 395.394 137.295 395.046C135.725 394.697 134.17 394.28 132.593 393.967C131.449 393.739 130.279 393.632 129.121 393.464C128.071 393.311 127.097 393.471 126.194 394.074C125.443 394.575 124.572 394.722 123.687 394.766C118.553 395.014 113.455 394.758 108.43 393.585C108.289 393.551 108.153 393.489 108.021 393.427C107.335 393.099 106.796 392.646 106.702 391.828C106.652 391.394 106.602 390.96 106.55 390.526C106.491 390.046 106.184 389.682 105.777 389.56C104.8 389.266 103.803 389.01 102.796 388.852C100.197 388.447 97.5929 388.058 94.9637 387.882C93.5058 387.783 92.0429 387.694 90.5934 387.522C87.6191 387.168 84.9496 386.057 82.6455 384.124C81.9317 383.524 81.5832 382.746 81.6703 381.801C81.7239 381.221 81.7675 380.636 81.8663 380.063C81.9786 379.405 82.7477 378.699 83.356 378.642C90.7912 377.932 98.2363 377.602 105.697 378.17C108.056 378.349 110.365 378.017 112.686 377.744C112.83 377.727 112.981 377.701 113.112 377.639C115.2 376.655 117.401 376.916 119.583 377.074C120.894 377.169 122.197 377.372 123.504 377.515C123.868 377.555 124.091 377.411 124.104 377.146C124.111 377.012 124.077 376.827 123.989 376.745C123.456 376.253 122.926 375.748 122.346 375.313C120.704 374.076 119.293 372.595 117.832 371.165C117.732 371.068 117.668 370.919 117.623 370.783C117.286 369.785 117.252 368.787 117.67 367.799C117.775 367.551 118.528 367.127 118.769 367.177C119.054 367.237 119.364 367.239 119.623 367.356C121.514 368.206 123.561 368.409 125.559 368.823C125.862 368.885 126.487 368.417 126.581 368.142C126.824 367.435 126.804 366.705 126.834 365.979C126.881 364.829 127.4 364.049 128.508 363.682C128.924 363.544 129.364 363.444 129.74 363.229C130.117 363.015 130.39 362.656 130.442 362.187C130.636 360.434 130.63 358.693 130.224 356.959C128.892 351.265 127.72 345.54 126.903 339.747C126.863 339.461 126.77 339.178 126.688 338.898C126.516 338.311 126.162 337.825 125.631 337.562C124.979 337.241 124.29 336.925 123.583 336.796C119.992 336.14 116.463 335.208 112.906 334.404C109.487 333.631 106.069 332.848 102.657 332.046C101.238 331.712 99.8333 331.315 98.4659 330.958L94.6084 329.562C95.4731 329.562 96.7768 329.651 98.4492 330.102C98.538 330.125 98.5866 330.151 98.6418 330.156C100.696 330.298 102.622 331.087 104.654 331.315C107.759 332.136 110.908 332.775 114.042 333.467C116.036 333.908 118.005 334.464 120.027 334.781C120.887 334.916 121.716 335.236 122.569 335.434C123.137 335.566 123.719 335.597 124.304 335.461C124.652 335.379 124.816 335.178 124.676 334.821C124.518 334.42 124.347 334.005 124.091 333.666C123.65 333.085 123.176 332.518 122.646 332.017C121.571 330.998 120.698 329.831 120.009 328.534C118.011 324.775 115.51 321.346 113.12 317.843C112.461 316.876 111.823 315.894 111.195 314.907C109.454 312.172 108.193 309.218 107.213 306.138C106.635 304.321 106.308 302.446 106.005 300.569C105.795 299.271 105.609 297.969 105.435 296.665C105.144 294.488 104.954 292.306 104.989 290.103C105.033 287.323 105.033 284.539 104.989 281.759C104.931 277.939 105.402 274.17 105.983 270.41C106.072 269.837 106.243 269.265 106.449 268.722C106.878 267.593 107.428 267.047 108.723 267.025C109.598 267.01 110.479 267.05 111.347 267.151C113.398 267.387 115.436 267.353 117.465 266.98C119.302 266.641 120.679 265.626 121.618 264.037C122.216 263.022 122.628 261.919 122.752 260.738C122.966 258.7 123.194 256.664 123.198 254.61C123.201 252.853 123.189 251.097 123.211 249.339C123.255 245.827 123.278 242.315 123.38 238.804C123.474 235.572 124.151 232.421 124.932 229.295C125.143 228.447 125.405 227.604 125.723 226.789C125.938 226.24 126.351 225.797 126.971 225.667C127.399 225.576 127.843 225.563 128.275 225.496C128.707 225.429 129.143 225.36 129.565 225.248C130.144 225.094 130.65 224.779 131 224.294C131.427 223.703 131.824 223.086 132.191 222.456C134.249 218.914 136.285 215.358 138.343 211.815C139.372 210.046 140.432 208.293 141.478 206.532C141.661 206.223 141.577 205.659 141.285 205.32C141.096 205.099 140.876 204.905 140.672 204.695C140.35 204.367 140.183 203.941 140.151 203.51C140.014 201.615 139.747 199.733 139.573 197.847C139.385 195.819 139.353 193.761 139.794 191.725C139.977 190.877 139.98 189.982 139.993 189.108C140.025 187.058 140.022 185.009 140.019 182.96C140.019 181.776 140.198 180.627 140.573 179.508C141.225 177.565 141.882 175.628 142.723 173.755C143.563 171.886 144.293 169.971 145.124 168.099C146.267 165.529 146.876 162.826 147.165 160.051C147.606 155.831 148.183 151.632 148.782 147.434C148.97 146.117 148.975 144.814 148.464 143.545C148.302 143.143 148.157 142.701 148.147 142.275C148.121 141.073 147.63 140.023 147.251 138.919C146.87 137.806 146.495 136.71 145.885 135.699C145.485 135.039 145.488 134.305 145.594 133.571C145.656 133.137 145.726 132.698 145.862 132.284C146.512 130.3 146.554 128.278 146.458 126.21C146.323 123.291 146.131 120.368 146.324 117.438C146.41 116.129 146.264 114.807 146.254 113.491C146.249 112.898 146.455 112.345 146.755 111.837C146.746 111.841 146.617 111.64 146.617 111.64L146.663 111.94C146.041 111.827 145.473 112.012 145.056 112.436C143.514 113.997 141.999 115.586 140.498 117.185C139.38 118.376 138.122 119.346 136.583 119.934C136.176 120.09 135.757 120.256 135.404 120.504C135.052 120.75 134.685 121.055 134.485 121.422C133.855 122.579 133.183 123.703 132.471 124.812C131.444 126.414 130.66 128.154 129.968 129.93C129.703 130.61 129.441 131.294 129.16 131.968C128.816 132.787 128.337 133.546 127.68 134.126C124.262 137.136 121.462 140.728 118.315 143.993C116.284 146.101 114.248 148.205 112.178 150.275C111.248 151.205 110.278 152.108 109.239 152.909C108.128 153.767 107.461 154.819 107.275 156.198C107.196 156.778 107.091 157.355 107.01 157.934C106.865 158.977 106.397 159.885 105.827 160.743C105.504 161.229 105.134 161.686 104.75 162.129C103.309 163.788 101.956 165.512 100.685 167.305C99.2351 169.348 97.4069 171.039 95.4681 172.61C95.2435 172.793 94.9704 172.915 94.7173 173.059C94.0387 173.447 92.7886 173.126 92.3663 172.443C92.0597 171.947 91.7312 171.454 91.5017 170.921C88.9563 165.001 86.6672 158.985 85.0803 152.73C84.033 148.602 83.4951 144.395 83.403 140.133C83.3812 139.11 83.3812 138.084 83.3745 137.06C83.3644 135.297 83.1583 133.556 82.7863 131.834C82.6003 130.976 82.4126 130.118 82.2467 129.256C81.61 125.942 81.3267 122.592 81.31 119.219C81.3016 117.463 81.305 115.707 81.2949 113.949C81.2899 113.217 81.2999 112.482 81.2346 111.755C81.0033 109.165 79.9795 106.966 77.9184 105.317C77.4592 104.95 77.0151 104.581 76.6599 104.107C74.7831 101.609 72.2796 99.8158 69.7493 98.0747C67.9412 96.8313 66.0158 95.774 63.9145 95.0769C63.4637 94.9278 62.6577 95.3015 62.4867 95.8092C62.346 96.2231 62.2739 96.6604 62.1365 97.076C61.793 98.12 61.0624 98.8171 60.057 99.1925C58.4097 99.8075 56.7223 100.297 54.9879 100.6C54.564 100.674 54.0831 100.744 53.6909 100.618C52.5213 100.246 51.3801 100.345 50.2323 100.649C49.3726 100.875 48.5314 100.96 47.6366 100.764C46.9311 100.61 46.1838 100.634 45.4548 100.598C45.1649 100.583 44.8683 100.598 44.5801 100.64C43.6568 100.769 42.8943 101.148 42.6011 102.108C42.4503 102.603 42.0665 102.799 41.656 102.918C41.2421 103.037 40.7863 103.11 40.359 103.075C39.0469 102.964 37.7315 102.856 36.4362 102.633C32.1128 101.885 27.7844 101.153 23.4829 100.288C20.4716 99.6818 17.4353 99.2209 14.4257 98.6076C12.269 98.1686 10.1543 97.5955 8.12333 96.7442C6.89504 96.2298 5.7807 95.5528 4.99312 94.4284C4.05807 93.0912 2.75939 92.121 1.55623 91.0552C1.00995 90.5693 0.493821 90.0598 0.120138 89.4147C-0.132895 88.9756 0.024636 88.1512 0.490483 87.8629C0.862491 87.6317 1.22443 87.3686 1.6266 87.2044C2.43932 86.876 3.2688 86.5844 4.1033 86.3146C11.0759 84.0608 17.7905 81.1651 24.428 78.0869C24.5604 78.0249 24.6827 77.9428 24.8134 77.8791C25.4703 77.5524 25.8624 76.7396 25.6395 76.0358C25.42 75.3421 25.1016 74.6801 25.1435 73.9227C25.1687 73.4468 25.3999 73.0765 25.7635 72.8319C26.1221 72.5906 26.5327 72.3944 26.9466 72.2721C27.647 72.066 28.386 71.984 29.0764 71.7527C29.6227 71.5684 30.1221 71.2466 30.6348 70.9684C30.8963 70.826 31.0303 70.5713 31.1258 70.2747C31.3537 69.5692 31.414 68.842 31.4258 68.1114C31.4693 65.4772 31.5163 62.8429 31.533 60.2087C31.5448 58.3034 31.5431 56.4066 31.9989 54.5348C32.277 53.3903 32.272 52.2122 32.2167 51.0392C32.1145 48.8407 32.1262 46.6556 32.6289 44.4889C32.7915 43.7851 32.7898 43.036 32.7982 42.3071C32.825 40.0801 33.3545 37.9586 34.117 35.8908C34.4337 35.0328 35.0905 34.433 35.9854 34.1682C37.9493 33.5884 39.9216 33.0405 41.8839 32.4607C42.3129 32.3333 42.6346 32.0283 42.8625 31.6361C42.9362 31.5105 43.0301 31.3915 43.082 31.2575C43.7623 29.4812 44.4377 27.71 44.4863 25.7645C44.5047 25.0389 44.6924 24.3184 44.7862 23.5944C45.0493 21.5635 45.428 19.5476 45.495 17.4949C45.5101 17.0575 45.5285 16.6084 45.6358 16.1878C46.0346 14.6176 46.1553 13.0174 46.234 11.407C46.2776 10.4921 47.0601 9.68099 47.8762 9.61396C49.3358 9.49666 50.7936 9.44477 52.2498 9.66764C52.7509 9.74472 53.329 10.3128 53.3809 10.8339C53.396 10.978 53.4597 11.1205 53.463 11.2629C53.4832 12.58 53.52 13.8971 53.4966 15.2125C53.4865 15.7923 53.4077 16.3838 53.2603 16.9452C52.4023 20.1977 51.9164 23.5375 50.9361 26.7599C50.7216 27.4687 50.668 28.201 50.7836 28.9316C50.8523 29.3639 50.9629 29.7996 51.2695 30.1331C51.6633 30.5637 52.1141 30.9458 52.4794 31.3982C52.8648 31.8758 53.3374 32.1707 53.9104 32.345C54.4701 32.5159 55.0315 32.6801 55.5778 32.8879C56.1375 33.1024 56.5765 33.4962 56.8865 34.0073C57.3423 34.7597 57.7445 35.5423 57.9372 36.4103C58.3796 38.4077 58.822 40.4069 59.2459 42.4076C59.3364 42.835 59.4001 43.2773 59.3984 43.713C59.3867 45.4826 59.685 47.2237 60.0737 48.9245C60.4675 50.6421 60.3586 52.4318 60.9501 54.1058C61.0004 55.1246 61.059 56.1435 61.0892 57.164C61.0926 57.288 60.9501 57.4153 60.8764 57.541C60.7624 57.4639 60.5815 57.4103 60.5446 57.3064C60.0637 55.939 59.504 54.6219 59.3884 53.1205C59.266 51.5286 58.8019 49.9634 58.4851 48.3849C58.6125 46.5986 57.9405 44.9313 57.6942 43.2003C57.468 41.61 57.0843 40.0432 56.7776 38.4647C56.5497 37.2967 56.0034 36.2595 55.4404 35.2339C55.1522 34.7078 54.6578 34.3877 54.1233 34.1229C53.4547 33.7928 52.7542 33.6386 52.0169 33.5766C51.5862 33.5398 51.1489 33.4526 50.7434 33.3085C50.4836 33.2163 50.2155 33.022 50.053 32.7992C49.5318 32.0836 49.1213 31.296 49.071 30.3961C49.0224 29.5231 48.9537 28.6266 49.0861 27.772C49.309 26.3326 49.5804 24.8814 50.0262 23.499C50.4317 22.2371 50.6378 20.9418 50.9763 19.6733C51.5125 17.6691 51.4673 15.6214 51.5862 13.5837C51.603 13.2988 51.5041 13.0056 51.4622 12.7174C51.3717 12.1074 50.6629 11.7774 50.1502 12.0589C49.2453 12.5566 48.4677 13.2151 47.7086 13.8955C47.5092 14.0731 47.3752 14.3915 47.335 14.6629C47.2478 15.2377 47.2294 15.8242 47.2059 16.4073C47.1691 17.2837 47.1506 18.1618 47.1255 19.0382C46.4318 21.0005 46.6178 23.0867 46.2659 25.0992C46.115 25.9605 46.043 26.8386 45.9827 27.7134C45.8603 29.4762 45.4532 31.172 44.9387 32.8577C44.6052 33.952 43.9584 34.6273 42.8474 34.8452C41.1198 35.1837 39.4357 35.6629 37.8052 36.3315C37.1031 36.6197 36.5618 37.0973 36.1597 37.7257C35.61 38.5887 35.1375 39.4701 34.8627 40.4856C34.246 42.7562 33.7483 45.0285 33.8103 47.3962C33.8405 48.5692 33.76 49.7338 33.3981 50.8683C33.1283 51.7162 33.13 52.5993 33.1367 53.479C33.1501 55.0894 33.1735 56.6981 33.1853 58.3085C33.192 59.1899 33.1199 60.0663 32.8317 60.9058C32.4446 62.0336 32.3625 63.1982 32.3927 64.3712C32.4312 65.8324 32.4915 67.2936 32.5686 68.7548C32.6105 69.5307 33.264 69.906 34.122 69.6915C34.5409 69.586 34.9598 69.4754 35.3855 69.3949C35.5212 69.3698 35.672 69.4352 35.8178 69.4587L35.7508 69.3749C35.6419 69.6329 35.6033 69.9781 35.4123 70.1339C34.8476 70.5914 34.2075 70.9567 33.6226 71.3924C33.0127 71.8465 32.6256 72.4615 32.5988 73.2374C32.5552 74.5528 32.5837 75.8699 32.515 77.1836C32.3407 80.5468 32.5736 83.9033 32.6407 87.2631C32.6574 88.0976 33.3093 88.7042 34.0449 88.5466C36.6356 87.9953 39.2547 87.8529 41.8939 87.9317C42.0397 87.9367 42.1872 87.9317 42.333 87.93C43.95 87.92 45.5369 87.7524 47.0803 87.2094C47.7656 86.9681 48.4895 86.8257 49.2034 86.6766C50.9545 86.3096 52.6956 86.3649 54.4031 86.9095C55.794 87.3535 57.1731 87.8395 58.5622 88.2919C59.1135 88.4712 59.6766 88.6204 60.2379 88.7679C60.568 88.855 60.8496 88.7527 60.9836 88.4628C61.6657 86.9933 62.0745 85.4617 62.0645 83.8228C62.046 80.7529 62.0678 77.6813 62.0511 74.6098C62.0477 74.0283 61.9639 73.4451 61.8852 72.8687C61.8014 72.2554 61.4696 71.7125 60.9434 71.4628C59.4939 70.7758 58.021 70.1289 56.5179 69.5709C55.2259 69.0917 54.2741 68.2538 53.4966 67.1679C53.4178 67.0573 53.4195 66.8881 53.3843 66.7456L53.2972 66.8294C53.582 66.8646 53.8903 66.8412 54.1501 66.9434C54.9662 67.2634 55.7772 67.6003 56.5631 67.9874C57.6423 68.5169 58.8119 68.6074 59.9665 68.7884C60.6619 68.8973 61.0909 68.542 61.1546 67.8868C61.3138 66.2697 61.2316 64.6762 60.8563 63.0893C60.7608 62.6804 60.8328 62.2179 60.8982 61.7906C60.9468 61.4722 61.1897 61.2862 61.4646 61.2443C61.6003 61.2242 61.8299 61.2058 61.8684 61.2728C62.0092 61.5208 62.1751 61.804 62.1784 62.0755C62.1885 63.2669 62.713 64.3527 62.837 65.5123C62.9459 66.5295 62.976 67.555 63.0414 68.5772C63.0682 69.0079 63.7251 69.7284 64.1608 69.8189C64.3032 69.8474 64.4389 69.9161 64.5814 69.9446C64.8679 70.0033 65.1545 70.0753 65.4444 70.0937C67.9445 70.2479 70.3592 70.8361 72.7622 71.4946C73.6084 71.7259 74.4714 71.8918 75.316 72.1314C75.5858 72.2085 75.8522 72.3844 76.0566 72.5805C76.4789 72.9843 76.8777 73.415 77.2497 73.8658C79.4014 76.4547 81.5614 79.037 83.6828 81.6511C84.7 82.9045 85.7037 84.158 86.9789 85.1651C87.2068 85.3444 87.4012 85.5706 87.5872 85.7935C88.162 86.4772 88.6513 87.2262 88.6446 88.1461C88.6345 89.6224 88.9043 91.0434 89.211 92.4812C89.6383 94.4837 89.9315 96.5147 90.275 98.5339C90.3739 99.1103 90.4225 99.6968 90.5348 100.272C90.8163 101.709 91.1012 103.149 91.8921 104.421C92.0061 105.872 91.8452 107.377 92.3563 108.756C92.926 110.291 92.9109 111.919 93.3366 113.469C93.7253 114.88 94.0672 116.306 94.3437 117.743C94.7861 120.042 95.1849 122.351 95.5485 124.663C95.8669 126.688 96.1719 128.717 96.3713 130.754C96.5573 132.665 96.9963 134.513 97.5393 136.335C98.3335 138.997 99.0725 141.683 100.168 144.246C100.277 144.502 100.487 144.727 100.686 144.931C100.929 145.181 101.224 145.201 101.474 144.995C102.965 143.765 104.086 142.243 104.881 140.492C105.117 139.973 105.224 139.371 105.279 138.796C105.392 137.632 105.388 136.455 105.512 135.292C105.573 134.721 105.792 134.163 105.973 133.61C106.139 133.104 106.836 132.606 107.317 132.645C108.188 132.715 109.056 132.836 109.928 132.888C110.38 132.914 110.774 132.68 111.109 132.388C111.329 132.197 111.536 131.983 111.711 131.751C112.063 131.284 112.453 130.83 112.715 130.314C113.261 129.231 114.117 128.449 115.03 127.71C115.598 127.249 116.193 126.822 116.771 126.372C117.582 125.746 118.357 125.085 119.034 124.303C119.992 123.197 121.014 122.151 122.186 121.257C123.241 120.451 124.054 119.398 124.873 118.369C126.425 116.422 127.804 114.349 129.188 112.283C129.269 112.164 129.334 112.017 129.348 111.878C129.374 111.594 129.462 111.247 129.338 111.036C129.217 110.83 128.868 110.658 128.612 110.648C127.446 110.601 126.278 110.621 125.11 110.601C124.912 110.597 124.805 110.475 124.726 110.436C120.845 108.578 93.4438 108.459 92.9696 108.791C92.9579 108.799 92.8389 108.893 92.7166 108.863C92.6345 108.843 92.5724 108.771 92.5724 108.754C92.5724 108.583 98.9519 107.784 106.571 108.281C110.167 108.516 111.964 108.635 128.582 110.108C128.791 110.126 129.284 110.143 129.887 109.997C130.455 109.86 130.975 109.614 131.38 109.143C132.057 108.357 132.533 107.462 132.962 106.53C133.131 106.162 132.885 105.574 132.476 105.486C131.906 105.366 131.327 105.295 130.757 105.17C130.645 105.145 130.522 104.982 130.487 104.86C130.472 104.804 130.651 104.627 130.754 104.615C131.332 104.556 131.92 104.459 132.493 104.509C133.999 104.642 134.966 103.915 135.742 102.718C136.934 100.875 138.197 99.0785 139.392 97.2368C140.667 95.2729 141.907 93.2872 143.144 91.2999C143.762 90.3045 144.29 89.2689 144.669 88.1478C145.327 86.2007 146.333 84.4076 147.294 82.5979C147.578 82.065 148.022 81.6058 148.596 81.4952C149.387 81.3427 149.91 80.9775 150.245 80.2569C151.172 78.2679 152.136 76.2972 153.044 74.2997C153.146 74.0769 153.067 73.7083 152.952 73.4636C152.767 73.0732 152.524 72.6911 152.234 72.3727C151.051 71.074 149.83 69.8106 148.642 68.5169C147.95 67.7628 147.279 66.9853 146.622 66.201C146.237 65.7402 146.073 65.1789 146.021 64.5823C145.956 63.8501 145.966 63.1261 146.106 62.3988C146.204 61.8928 146.773 61.2879 147.279 61.2493C148.007 61.1924 148.736 61.1236 149.464 61.1102C151.221 61.0784 152.978 61.0935 154.735 61.0566C155.988 61.0315 156.931 60.3294 157.788 59.51C157.987 59.3189 158.151 59.0257 158.198 58.7559C158.374 57.7287 158.753 56.8004 159.323 55.9273C159.45 55.7313 159.353 55.3743 159.323 55.0944C159.308 54.9554 159.219 54.823 159.15 54.6939C157.763 52.1167 156.373 49.5411 154.983 46.9655C154.617 46.2885 154.079 45.8428 153.3 45.697C152.561 45.5596 151.938 45.1726 151.385 44.6799C150.363 43.7667 149.156 43.2857 147.812 43.1533C146.773 43.0511 145.813 42.7595 144.907 42.2417C144.017 41.734 143.11 41.2565 142.194 40.7973C141.659 40.5309 141.057 40.4052 140.496 40.6365C139.13 41.1995 137.708 41.496 136.262 41.739C135.829 41.8111 135.523 42.1814 135.37 42.6154C135.226 43.0276 135.12 43.4533 134.971 43.8638C134.871 44.1386 134.053 44.4604 133.827 44.3397C133.57 44.204 133.286 44.1018 133.061 43.9259C131.759 42.9037 130.283 42.3339 128.649 42.1144C128.382 42.0792 128.131 41.8664 127.89 41.7122C127.385 41.3905 127.338 40.6129 127.818 40.2376C128.041 40.0616 128.307 39.8841 128.577 39.8338C128.999 39.7567 129.453 39.7215 129.874 39.7885C130.604 39.9025 131.3 39.9712 132.029 39.7164C132.573 39.5254 133.18 39.517 133.743 39.3679C134.159 39.2573 134.604 39.125 134.939 38.8736C135.873 38.1715 136.773 37.4224 137.644 36.6449C137.828 36.4806 137.914 36.1103 137.904 35.8406C137.889 35.4116 137.813 34.9625 137.659 34.562C136.865 32.4858 136.424 30.3542 136.531 28.1205C136.545 27.834 136.5 27.529 136.411 27.2559C136.273 26.837 136.024 26.4666 135.653 26.2102C134.789 25.612 133.812 25.3087 132.773 25.2668C131.312 25.2082 129.847 25.2199 128.386 25.1613C127.957 25.1445 127.533 24.9903 127.107 24.8931C126.584 24.7741 126.135 24.1055 126.196 23.5643C126.259 22.9962 126.77 22.3778 127.224 22.2974C128.667 22.0444 130.11 21.8349 131.583 21.979C133.636 22.1801 135.677 22.0779 137.703 21.6959C138.294 21.5836 138.809 21.2837 139.201 20.8429C139.685 20.3 140.131 19.7169 140.545 19.1186C140.687 18.9108 140.548 18.5908 140.263 18.4165C139.893 18.1886 139.489 18.0093 139.088 17.835C138.15 17.4278 137.185 17.0793 136.268 16.6285C134.958 15.9834 134.328 14.9143 134.464 13.4212C134.536 12.6353 135.099 11.9751 135.804 11.9348C136.387 11.8996 136.972 11.8695 137.555 11.8561C139.07 11.8193 140.441 12.2432 141.671 13.138C142.021 13.3927 142.339 13.7195 142.795 13.7949C142.938 13.8184 143.087 13.8317 143.229 13.8167C143.544 13.7831 143.757 13.6139 143.816 13.324C143.842 13.1883 143.812 13.0324 143.772 12.895C143.732 12.7559 143.675 12.6068 143.579 12.5029C141.108 9.80671 138.775 6.98146 136.034 4.53995C135.605 4.15788 135.253 3.66524 134.948 3.1709C134.559 2.54084 134.385 1.84039 134.487 1.07291C134.594 0.273596 135.404 -0.230796 136.05 0.106022C136.972 0.585275 137.765 1.22199 138.47 1.9727C139.372 2.93289 140.278 3.88977 141.156 4.87173C142.251 6.09668 143.618 6.9161 145.049 7.67855C147.17 8.80798 149.506 9.03757 151.809 9.41628C154.391 9.84191 156.735 9.41123 158.743 7.55287C159.822 6.55415 161.184 6.76696 162.483 7.0954C162.748 7.16243 163.004 7.36856 163.199 7.573C163.602 7.99528 163.948 8.47452 164.348 8.90015C164.648 9.22021 165.008 9.47828 165.449 9.58385C169.032 10.4385 172.65 10.8473 176.329 10.3931C177.206 10.2859 178.079 10.2692 178.957 10.3664C180.41 10.5273 181.866 10.6613 183.319 10.8356C183.917 10.9076 184.472 10.8071 185.038 10.6312C186.59 10.1536 188.023 9.46988 189.346 8.50969C190.764 7.47913 192.239 6.51893 193.874 5.84697C194.511 5.58556 195.416 6.08326 195.572 6.78203C195.706 7.38528 195.622 7.93159 195.277 8.44604C194.863 9.06437 194.343 9.57711 193.715 9.96588C192.594 10.6579 191.465 11.3349 190.325 11.9951C189.4 12.5297 188.688 13.2117 188.495 14.3194C188.472 14.4585 188.378 14.5858 188.311 14.7165C188.038 15.2511 187.677 15.7286 187.094 15.9146C185.373 16.4609 184.016 17.5686 182.68 18.7131C182.258 19.0734 182.044 19.8375 182.23 20.2798C182.458 20.8194 182.687 21.3573 182.92 21.8953C184.034 24.4675 184.621 27.1838 185.062 29.9337C185.154 30.5051 185.155 31.1066 185.102 31.6847C184.946 33.3688 184.405 34.8267 182.677 35.5422C182.277 35.7081 181.879 35.9327 181.65 36.3315C181.595 36.427 181.605 36.6046 181.657 36.7085C182.057 37.5196 182.781 38.0341 183.44 38.6088C185.544 40.437 189.32 44.5324 190.888 46.6355C191.592 47.5806 192.18 48.586 192.674 49.6517C193.251 50.8934 193.361 52.1888 193.075 53.5092C192.984 53.9265 192.758 54.3186 192.567 54.7091C192.366 55.1163 192.014 55.4178 191.612 55.5737C190.794 55.8904 189.948 56.1636 189.055 56.1485C187.446 56.12 185.814 56.2205 184.234 55.9876C181.482 55.5821 178.694 55.5201 175.959 54.9939C175.631 54.9302 175.425 55.2 175.453 55.4849C175.466 55.6139 175.517 55.7982 175.611 55.8519C176.645 56.44 177.767 56.7333 178.949 56.8288C180.851 56.983 182.714 57.3751 184.567 57.7991C185.316 57.97 185.842 58.476 186.158 59.1865C186.276 59.4546 186.399 59.7211 186.513 59.9892C186.875 60.8337 186.903 61.6917 186.585 62.553C186.069 63.9505 185.288 65.1755 184.147 66.1474C183.143 67.002 182.146 67.8634 181.105 68.6711C180.12 69.4369 179.448 70.3099 179.621 71.6471C179.676 72.0794 179.621 72.5252 179.627 72.9642C179.647 74.4674 179.242 75.8548 178.516 77.1585C178.161 77.797 177.799 78.432 177.457 79.0789C177.146 79.6687 177.368 80.2183 177.66 80.7345C177.801 80.9858 178.029 81.1886 178.21 81.4182C181.65 85.7884 185.189 90.08 188.77 94.3363C191.032 97.0241 193.249 99.7505 195.49 102.457C195.955 103.02 196.411 103.595 196.914 104.122C197.321 104.55 197.718 104.972 197.958 105.517C198.435 106.601 199.178 107.516 199.882 108.447C200.498 109.262 201.232 109.987 201.835 110.81C202.352 111.516 202.714 112.332 203.215 113.049C205.472 116.291 207.669 119.582 210.4 122.463C210.601 122.674 210.799 122.897 210.951 123.143C212.878 126.282 215.392 128.958 217.807 131.7C220.322 134.555 223.032 137.238 225.835 139.815C229.175 142.887 232.576 145.891 235.94 148.936C240.829 153.361 246.016 157.42 251.312 161.339C253.082 162.648 254.746 164.071 256.358 165.566C257.456 166.583 258.235 167.799 258.845 169.142C259.455 170.487 259.88 171.873 259.815 173.378C259.783 174.108 259.833 174.842 259.817 175.573C259.751 178.351 260.025 181.14 259.602 183.905C259.183 186.651 259.078 189.436 258.521 192.169C258.29 193.307 258.076 194.47 258.156 195.655C258.196 196.265 258.381 196.801 258.848 197.205C259.291 197.587 259.748 197.954 260.214 198.309C261.028 198.931 261.843 199.552 262.679 200.146C264.934 201.744 266.26 203.965 267.006 206.572C267.166 207.133 267.316 207.708 267.373 208.288C267.644 211.083 267.398 213.855 266.731 216.568C266.308 218.282 265.514 219.894 264.343 221.218C263.074 222.65 261.496 223.725 259.694 224.443C258.195 225.043 256.656 225.543 255.076 225.823C253.06 226.181 251.073 226.707 249.022 226.87C248.228 226.934 247.718 227.445 247.292 228.073C246.944 228.584 246.786 229.137 246.949 229.725C247.338 231.136 247.824 232.522 248.164 233.941C248.816 236.651 249.256 239.391 249.156 242.198C249.097 243.833 248.827 245.402 248.043 246.849C247.723 247.441 247.857 247.967 248.171 248.49C248.321 248.74 248.499 248.974 248.67 249.212C250.074 251.168 250.788 253.396 251.034 255.749C251.354 258.812 251.314 261.889 250.982 264.955C250.902 265.694 250.58 266.351 250.089 266.919C249.766 267.295 248.876 267.516 248.474 267.311C248.345 267.244 248.194 267.213 248.077 267.13C247.716 266.881 247.346 266.641 247.018 266.355C245.585 265.098 244.115 263.891 242.49 262.888C241.357 262.189 240.414 261.271 239.505 260.312C236.88 257.545 234.485 254.586 232.31 251.459C228.717 246.291 225.192 241.075 221.626 235.889C220.461 234.194 219.504 232.381 218.579 230.555C218.046 229.501 217.778 228.354 217.939 227.15C218.056 226.282 218.132 225.404 218.321 224.551C218.45 223.969 218.842 223.466 219.41 223.252C220.501 222.841 221.629 222.535 222.725 222.136C222.973 222.045 223.256 221.799 223.343 221.56C223.593 220.877 223.742 220.16 223.945 219.462C224.277 218.317 224.836 217.293 225.686 216.454C226.309 215.837 226.941 215.222 227.623 214.674C229.567 213.114 231.606 211.695 233.806 210.512C234.577 210.098 235.315 209.618 236.043 209.131C236.275 208.977 236.486 208.727 236.6 208.472C236.838 207.941 237.014 207.381 237.198 206.827C237.521 205.855 237.8 204.866 238.155 203.906C238.723 202.369 239.579 201.034 240.903 200.013C241.593 199.48 242.222 198.864 242.842 198.249C243.179 197.914 243.215 197.416 243.066 197.012C242.25 194.814 241.247 192.695 240.057 190.676C236.856 185.245 233.372 180.014 229.238 175.229C224.06 169.235 219.466 162.806 215.164 156.163C214.289 154.813 213.51 153.4 212.689 152.016C212.23 151.24 211.675 150.593 210.734 150.38C210.457 150.318 210.16 150.189 209.953 150.003C208.651 148.834 207.265 147.765 206.171 146.357C204.515 144.229 203.949 143.202 202.445 142.649C202.156 142.541 201.909 142.483 201.748 142.449L201.743 142.446ZM137.708 370.185C137.626 369.88 137.669 369.847 137.842 370.083L137.584 370.111C138.06 369.424 137.621 370.269 137.709 370.185H137.708ZM143.062 355.501C143.256 356.01 143.678 356.196 144.169 356.288C144.288 356.31 144.406 356.342 144.523 356.369C144.216 357.19 144.112 358.016 144.457 358.835C144.499 358.514 144.556 358.482 144.627 358.74C144.53 358.74 144.432 358.74 144.335 358.742C144.39 357.944 144.446 357.145 144.469 356.342C143.822 356.401 143.398 356.02 142.995 355.598L142.867 355.447C142.867 355.447 143.063 355.484 143.06 355.499L143.062 355.501ZM196.627 134.042C196.761 134.356 196.72 134.409 196.5 134.198C196.597 134.168 196.693 134.138 196.79 134.108C197.014 134.919 197.241 135.731 197.447 136.534C197.284 136.278 197.313 136.229 197.534 136.388C197.452 136.42 197.37 136.452 197.288 136.484C197.061 135.666 196.837 134.85 196.626 134.042H196.627ZM173.342 26.6107C173.214 26.9961 173.079 27.3782 172.966 27.7669C172.931 27.8909 172.938 28.0418 172.971 28.1675C172.996 28.263 173.109 28.4205 173.159 28.4121C173.384 28.3736 173.412 28.1591 173.327 27.8173C173.228 27.4201 173.206 27.0146 173.35 26.6174C173.077 26.5521 172.891 26.3828 172.769 26.1248C172.616 25.803 172.422 25.7192 172.279 25.9136C172.222 25.9924 172.244 26.1717 172.294 26.2722C172.346 26.3744 172.469 26.4817 172.576 26.5052C172.827 26.5588 173.09 26.5605 173.342 26.6107ZM162.587 28.8427L162.336 28.8998L162.696 28.8931C162.527 29.1796 162.528 29.4711 162.761 29.7057C162.962 29.9102 163.2 30.0845 163.445 30.2353C163.537 30.2922 163.75 30.2989 163.81 30.2353C164.008 30.0292 163.981 29.7325 163.706 29.5197C163.364 29.2566 162.972 29.0606 162.589 28.8427H162.587ZM116.461 385.778C116.634 386.021 116.859 386.155 117.133 386.181C117.135 386.079 117.177 385.912 117.133 385.883C116.887 385.729 116.621 385.746 116.359 385.89C116.255 385.632 116.223 385.288 116.036 385.131C115.127 384.375 114.115 383.835 112.88 383.855C111.575 383.877 110.26 383.953 109.018 383.405C107.858 383.378 106.699 383.348 105.539 383.333C105.402 383.331 105.264 383.416 105.127 383.463C105.204 383.556 105.263 383.706 105.358 383.733C108.292 384.561 111.31 385.013 114.286 385.653C114.985 385.804 115.729 385.749 116.461 385.776V385.778ZM141.218 348.297C141.029 348.052 141.054 347.997 141.294 348.131C141.212 348.173 141.129 348.215 141.046 348.257C141.024 347.674 141.109 347.06 140.962 346.511C140.511 344.815 139.97 343.142 139.189 341.562C138.857 340.89 138.38 340.376 137.614 340.146C135.373 339.476 133.064 339.096 130.802 338.519C130.092 338.338 129.279 339.049 129.381 339.754C129.673 341.778 129.924 343.814 130.311 345.822C130.837 348.55 131.452 351.261 132.074 353.971C132.436 355.549 132.644 357.135 132.645 358.755C132.645 359.777 132.722 360.801 132.776 361.823C132.8 362.256 133.478 362.917 133.934 363.023C135.224 363.323 136.538 363.395 137.852 363.502C138.44 363.551 138.981 363.777 139.506 364.054C140.417 364.535 141.257 365.104 141.986 365.843C142.812 366.683 143.549 367.581 144.092 368.635C144.426 369.28 144.675 369.981 145.222 370.495C145.317 370.586 145.493 370.612 145.636 370.627C146.294 370.698 146.763 370.224 146.651 369.573C146.529 368.854 146.457 368.112 146.209 367.435C145.604 365.783 144.835 364.203 143.784 362.775C143.176 361.951 142.597 361.103 141.966 360.297C140.69 358.668 139.786 356.838 138.939 354.966C137.964 352.811 137.456 350.529 137.012 348.23C136.875 347.519 136.955 346.78 137.153 346.058C137.295 345.539 138.142 345.155 138.551 345.453C139.628 346.234 140.565 347.144 141.218 348.3V348.297ZM187.476 404.76C188.071 404.998 188.628 404.892 189.11 404.505C190.137 403.681 191.151 402.84 192.16 401.995C198 397.109 203.982 392.41 210.268 388.103C212.929 386.28 215.682 384.63 218.703 383.462C218.971 383.358 219.203 383.163 219.454 383.016C219.729 382.855 219.913 382.632 219.942 382.331C220.01 381.605 220.097 380.878 220.112 380.15C220.143 378.688 220.136 377.225 220.134 375.763C220.134 375.102 219.655 374.579 219.1 374.621C218.227 374.684 217.354 374.792 216.481 374.81C215.591 374.828 214.742 374.984 213.899 375.256C213.063 375.526 212.225 375.799 211.367 375.981C210.224 376.224 209.066 376.397 207.908 376.566C207.085 376.687 206.425 376.219 206.295 375.47C206.244 375.184 206.206 374.89 206.196 374.601C206.162 373.629 205.79 372.935 204.78 372.662C203.933 372.434 203.106 372.142 202.269 371.883C201.851 371.754 201.428 371.636 201.008 371.511C200.523 371.365 199.748 371.867 199.721 372.368C199.669 373.391 199.602 374.413 199.6 375.435C199.597 377.63 199.704 379.827 199.63 382.019C199.52 385.333 199.704 384.978 198.157 387.872C197.47 389.159 196.884 390.506 195.788 391.54C195.48 391.83 195.29 392.262 195.092 392.653C193.774 395.264 192.19 397.737 191.056 400.447C190.657 401.397 190.077 402.21 189.127 402.759C188.351 403.208 187.92 404.011 187.614 404.857C187.443 405.258 187.473 405.333 187.659 405.052C187.686 405.011 187.542 404.86 187.476 404.76ZM165.07 285.841C165.018 286.252 165.005 286.398 164.982 286.542C164.958 286.686 164.925 286.828 164.898 286.973C164.842 287.286 164.199 287.789 163.912 287.688C163.656 287.598 163.361 287.462 163.212 287.252C162.785 286.651 162.538 285.947 162.416 285.225C162.026 282.919 161.573 280.618 161.332 278.296C161.151 276.55 160.931 274.809 160.682 273.074C160.514 271.911 160.43 270.752 160.409 269.58C160.382 268.119 160.382 266.651 160.234 265.2C160.04 263.303 159.988 261.406 159.986 259.504C159.986 255.994 159.986 252.481 159.983 248.971C159.983 247.508 160.003 246.043 159.76 244.594C159.713 244.309 159.624 244.024 159.505 243.763C159.462 243.665 159.284 243.6 159.158 243.573C159.036 243.548 158.87 243.548 158.771 243.61C158.115 244.024 157.867 244.746 157.528 245.38C155.939 248.352 154.197 251.216 152.012 253.8C151.247 254.705 150.373 255.456 149.426 256.155C148.794 256.62 148.142 256.83 147.387 256.614C146.416 256.336 145.691 256.746 145.031 257.388C144.498 257.904 144.067 258.48 143.899 259.224C143.675 260.223 143.42 261.215 143.216 262.219C142.738 264.553 141.837 266.686 140.256 268.496C139.484 269.383 138.814 270.336 138.276 271.383C136.005 275.806 133.651 280.184 131.632 284.734C130.39 287.532 129.232 290.393 127.328 292.851C127.164 293.062 127.092 293.399 127.094 293.677C127.109 295.296 127.33 296.856 128.066 298.351C130.004 302.292 131.565 306.394 133.081 310.511C134.092 313.256 135.035 316.026 136.037 318.772C136.488 320.007 136.93 321.256 137.518 322.427C138.376 324.131 139.08 325.886 139.693 327.691C140.634 330.462 141.786 333.153 143.016 335.808C143.63 337.133 144.33 338.419 145.007 339.714C145.215 340.113 145.557 340.438 145.976 340.557C147.378 340.952 148.787 341.336 150.212 341.644C152.208 342.077 154.197 342.532 156.186 342.987C159.17 343.669 162.183 344.23 165.132 345.064C166.759 345.118 168.249 345.817 169.841 346.068C171.423 346.32 172.978 346.75 174.54 347.126C177.809 347.913 181.075 348.718 184.343 349.512C184.484 349.545 184.634 349.544 184.777 349.572C185.186 349.654 185.92 349.421 185.951 349.175C185.988 348.895 186.029 348.6 185.983 348.327C185.817 347.295 185.105 346.489 184.793 345.509C184.438 344.396 184.039 343.293 183.607 342.207C182.411 339.198 181.636 336.089 181.377 332.859C181.269 331.53 180.916 330.268 180.403 329.048C180.063 328.24 179.735 327.419 179.306 326.657C177.796 323.976 176.566 321.159 175.262 318.38C173.338 314.28 171.41 310.174 169.968 305.866C169.737 305.174 169.452 304.497 169.161 303.827C167.758 300.591 166.932 297.176 166.083 293.773C165.836 292.786 165.769 291.752 165.637 290.736C165.6 290.448 165.628 290.151 165.623 289.86C165.605 288.628 166.542 287.909 167.624 288.34C168.434 288.662 169.235 289.007 170.037 289.342C170.413 289.498 170.873 289.035 170.818 288.58C170.766 288.146 170.748 287.703 170.644 287.281C170.153 285.294 169.648 283.311 169.131 281.33C168.134 277.511 167.135 273.694 166.116 269.882C165.928 269.178 165.69 268.479 165.399 267.812C165.168 267.285 164.827 266.804 164.512 266.316C164.323 266.023 164.036 265.981 163.74 266.185C163.639 266.256 163.53 266.38 163.512 266.494C163.239 268.094 163.336 269.693 163.554 271.293C163.671 272.161 163.827 273.034 163.829 273.905C163.835 277.282 164.202 280.617 164.839 283.929C164.977 284.643 165.015 285.376 165.07 285.841ZM166.061 106.038C166.061 106.038 166.046 106.038 166.037 106.036C166.098 105.31 166.163 104.583 166.213 103.858C166.243 103.425 166.326 102.974 166.25 102.557C165.754 99.8258 165.302 97.0861 164.358 94.4552C163.075 90.8742 162.029 87.2212 161.143 83.5229C160.864 82.3582 160.368 81.3277 159.559 80.4412C158.771 79.5782 158.012 78.6884 157.228 77.8221C157.034 77.6093 156.782 77.4501 156.561 77.2591C156.275 77.0111 155.628 77.0697 155.371 77.3478C153.257 79.6503 151.881 82.3917 150.788 85.2723C148.95 90.1168 146.256 94.4384 142.904 98.3495C141.657 99.8041 140.665 101.416 139.584 102.975C139.083 103.695 138.98 104.625 138.348 105.275C137.728 105.914 137.357 106.715 136.923 107.477C136.491 108.238 135.997 108.964 135.551 109.718C135.234 110.254 134.779 110.545 134.18 110.694C133.763 110.8 133.286 110.914 132.982 111.189C131.684 112.359 130.345 113.49 129.369 114.979C127.843 117.31 126.09 119.457 124.056 121.376C122.779 122.579 121.552 123.837 120.327 125.094C119.818 125.615 119.292 126.146 118.91 126.76C117.82 128.501 116.528 130.089 115.315 131.736C115.143 131.969 115.01 132.232 114.863 132.484C114.675 132.801 114.719 133.07 115.02 133.235C115.267 133.369 115.573 133.372 115.833 133.204C116.445 132.811 117.088 132.44 117.623 131.953C119.243 130.476 120.922 129.042 122.38 127.415C123.863 125.757 125.483 124.33 127.38 123.19C127.88 122.89 128.32 122.493 128.811 122.175C129.679 121.61 130.445 120.953 131.027 120.084C131.355 119.593 131.792 119.189 132.32 118.924C133.131 118.517 133.728 117.892 134.246 117.173C134.852 116.33 135.593 115.648 136.508 115.138C136.883 114.931 137.228 114.627 137.51 114.302C138.276 113.419 139.104 112.568 139.6 111.497C139.978 110.679 140.561 110.049 141.17 109.418C141.574 108.997 141.961 108.548 142.286 108.065C142.524 107.712 142.742 107.298 142.809 106.884C143.036 105.51 143.662 104.454 144.843 103.663C145.687 103.098 146.415 102.358 147.197 101.698C147.658 101.309 148.204 101.12 148.796 101.051C148.94 101.034 149.087 101.047 149.233 101.042C150.782 100.991 152.097 100.506 152.923 99.0852C152.992 98.9662 153.143 98.8941 153.252 98.7969C153.533 98.5473 154.185 98.564 154.428 98.8171C154.733 99.1338 155.06 99.4488 155.142 99.8946C155.432 101.473 155.762 103.048 155.946 104.64C156.027 105.339 155.737 106.073 155.717 106.795C155.693 107.668 155.764 108.545 155.822 109.416C155.852 109.845 156.052 110.254 155.958 110.706C155.45 113.176 155.737 115.661 155.834 118.141C155.867 119.018 156.008 119.893 156.001 120.767C155.98 123.249 156.038 125.744 155.019 128.098C154.849 128.492 154.782 128.94 154.721 129.37C154.619 130.094 154.57 130.825 154.478 131.549C154.252 133.31 154.265 135.043 154.879 136.743C155.182 137.583 155.212 138.483 155.063 139.348C154.738 141.231 154.721 143.128 154.647 145.027C154.366 152.333 153.868 159.629 153.729 166.94C153.712 167.825 153.563 168.672 153.248 169.509C152.576 171.297 152.126 173.16 152.095 175.062C152.05 177.986 151.874 180.905 151.802 183.828C151.762 185.433 151.876 187.042 151.914 188.649C151.953 190.256 151.973 191.864 152.022 193.471C152.053 194.544 151.707 195.47 151.045 196.3C150.959 196.407 150.917 196.575 150.919 196.714C150.921 196.849 150.976 197.007 151.061 197.111C151.133 197.2 151.294 197.289 151.393 197.268C152.709 196.992 153.696 196.072 154.847 195.472C154.954 195.417 155.036 195.249 155.063 195.12C155.152 194.695 155.266 194.262 155.271 193.833C155.298 191.346 155.303 188.86 155.298 186.375C155.296 185.466 155.541 184.657 156.045 183.903C156.29 183.538 156.365 183.104 156.36 182.653C156.33 180.459 156.305 178.266 156.298 176.072C156.296 175.489 156.335 174.903 156.402 174.323C156.474 173.716 156.772 173.222 157.325 172.925C157.711 172.718 158.121 172.557 158.507 172.347C159.321 171.907 159.874 171.201 160.092 170.333C160.734 167.779 161.267 165.2 161.263 162.546C161.262 160.937 161.265 159.329 161.267 157.718C161.27 153.916 161.267 150.112 161.287 146.31C161.29 145.583 161.33 144.842 161.468 144.132C161.639 143.249 162.089 142.498 162.905 142.029C163.413 141.739 163.953 141.496 164.427 141.161C164.64 141.01 164.801 140.7 164.859 140.435C165.114 139.282 165.037 138.106 165.039 136.938C165.045 130.795 165.039 124.652 165.049 118.508C165.052 116.901 164.993 115.289 165.372 113.704C165.617 112.679 165.508 111.673 165.166 110.686C165.057 110.373 165.178 110.138 165.335 109.867C165.551 109.495 165.739 109.076 165.803 108.655C165.933 107.789 165.975 106.911 166.052 106.036L166.061 106.038ZM84.0649 117.176C83.8889 121.748 84.5022 126.237 85.5127 130.677C85.9702 132.69 86.2031 134.712 86.1712 136.772C86.1511 138.089 86.1612 139.408 86.1813 140.725C86.193 141.455 86.1913 142.195 86.2969 142.915C86.8013 146.392 87.3811 149.847 88.358 153.239C89.6182 157.609 91.2771 161.827 92.9646 166.038C93.0718 166.306 93.2444 166.548 93.3734 166.809C93.6449 167.359 94.3839 167.545 94.8397 167.198C96.3629 166.038 97.7152 164.701 98.8798 163.189C100.13 161.567 101.323 159.903 102.541 158.258C102.742 157.985 102.789 157.683 102.585 157.455C101.995 156.797 101.608 156.014 101.177 155.257C100.99 154.927 100.274 154.846 100.014 155.123C99.7143 155.443 99.4445 155.791 99.1429 156.11C98.8982 156.366 98.6368 156.391 98.4508 156.182C98.3603 156.081 98.3017 155.929 98.2816 155.791C98.2179 155.349 98.3101 154.925 98.4643 154.506C99.721 151.093 99.3742 152.143 98.5313 149.04C98.3017 148.197 97.9263 147.391 97.6079 146.573C96.4417 143.567 95.5787 140.462 94.6671 137.373C94.2951 136.113 94.0253 134.816 93.8158 133.518C93.4673 131.351 93.1841 129.173 92.9109 126.994C92.3814 122.778 91.6944 118.595 90.5432 114.498C90.1879 113.233 89.8829 111.951 89.6064 110.664C89.4238 109.81 89.3333 108.937 89.2026 108.07C89.0468 107.05 88.7317 106.08 88.3111 105.138C88.1301 104.734 88.0363 104.307 88.0882 103.859C88.1737 103.119 88.0078 102.405 87.8821 101.684C87.4548 99.2326 87.0459 96.7778 86.622 94.3262C86.446 93.3074 86.4092 92.3019 86.6488 91.2797C86.7812 90.715 86.7979 90.1218 86.8365 89.5386C86.9286 88.1595 85.702 86.3716 84.5307 86.1169C83.5973 85.9141 82.9455 85.4081 82.4076 84.6976C80.5559 82.251 78.5685 79.9034 77.0738 77.1988C76.5811 76.3056 75.9544 75.4862 75.3797 74.64C75.0328 74.1289 74.5116 73.8608 73.9335 73.725C73.3654 73.5926 72.784 73.5156 72.2075 73.4351C71.1954 73.2927 70.1347 73.3044 69.1745 72.9977C67.4569 72.4498 65.7209 72.4364 63.963 72.4732C63.6312 72.4799 63.1319 72.9407 63.0732 73.2977C63.0246 73.5859 62.9207 73.8708 62.9207 74.159C62.9191 78.9901 62.9258 83.8211 62.9442 88.6522C62.9442 88.9371 63.0179 89.242 63.1386 89.5001C63.2559 89.7498 63.4318 90.0599 63.6597 90.1537C64.4691 90.4855 65.3103 90.7468 66.1448 91.015C66.8402 91.2395 67.5993 91.3333 68.2344 91.6685C69.5264 92.3488 70.8217 93.0593 71.993 93.9223C74.4714 95.7472 76.8174 97.7463 78.907 100.01C80.194 101.404 81.4173 102.876 82.5014 104.429C83.2538 105.508 83.3292 106.914 83.7549 108.158C83.8973 108.573 84.0029 109.005 84.1989 109.394C84.3229 109.642 84.5759 109.826 84.7821 110.031C85.0686 110.314 85.0251 110.517 84.715 110.75C84.3447 111.028 84.1973 111.469 84.1839 111.908C84.1269 113.662 84.1034 115.418 84.0682 117.175L84.0649 117.176ZM30.9415 82.07C30.9817 82.07 31.0219 82.07 31.0621 82.07C31.0621 79.7324 31.0705 77.3948 31.0538 75.0572C31.0504 74.6248 30.9449 74.1942 30.8879 73.7618C30.841 73.4099 30.303 73.0446 29.9059 73.0916C29.7618 73.1083 29.6043 73.0882 29.4719 73.1368C27.9671 73.6797 26.9449 74.5679 27.1644 76.3592C27.1996 76.6407 27.1192 76.939 27.0723 77.2272C26.9734 77.8389 26.6232 78.2964 26.1255 78.6332C25.7635 78.8762 25.3815 79.0973 24.9877 79.28C20.48 81.3612 15.9824 83.4642 11.3692 85.3075C9.19914 86.1738 7.03748 87.0586 4.88084 87.9568C4.34629 88.1797 3.8419 88.4796 3.3308 88.7578C2.76274 89.0661 2.65382 89.7615 3.04259 90.2223C3.98266 91.34 5.22771 92.1595 6.05719 93.3878C6.74088 94.3982 7.78149 94.9529 8.89583 95.35C11.515 96.2817 14.2045 96.9654 16.9493 97.4044C19.9773 97.8887 23.0154 98.3077 26.0183 98.9495C26.8712 99.1321 27.7526 99.1992 28.624 99.2796C28.9022 99.3047 29.1954 99.2126 29.4769 99.1573C29.7718 99.0986 29.9713 98.9043 30.1087 98.6127C30.4271 97.934 30.4287 97.2 30.4756 96.4778C30.5695 95.0233 30.4237 93.5453 30.8141 92.1176C31.2063 90.6849 31.2079 89.232 31.1476 87.7674C31.0705 85.8705 31.0119 83.972 30.9448 82.0734L30.9415 82.07ZM184.747 52.5054C186.189 52.5054 186.628 52.5222 187.066 52.5021C187.987 52.4602 188.731 52.0296 189.39 51.4112C189.826 51.0024 189.889 50.317 189.516 49.8277C189.249 49.4808 189.008 49.1122 188.72 48.7854C188.041 48.0196 187.3 47.3057 186.655 46.5131C184.143 43.4298 181.072 40.943 178.066 38.3842C177.39 37.8095 176.621 37.3973 175.766 37.1392C175.347 37.0135 174.937 36.8493 174.54 36.6633C174.086 36.4505 173.667 36.5695 173.305 36.8108C172.698 37.2146 172.117 37.6604 171.55 38.1195C170.521 38.954 169.429 39.6394 168.167 40.1035C165.975 40.9079 163.822 41.8195 161.654 42.6841C161.337 42.8098 161.283 43.5471 161.528 43.8336C162.396 44.8558 163.556 45.506 164.626 46.2601C167.84 48.5223 167.936 48.5742 171.616 49.8277C173.414 50.441 175.239 50.9705 177.052 51.5369C179.949 51.9005 182.846 52.2625 184.748 52.5004L184.747 52.5054ZM55.3767 97.3358C55.3767 97.3542 55.3767 97.3709 55.3767 97.3894C56.3972 97.4279 57.416 97.4899 58.4365 97.4882C58.7047 97.4882 59.0281 97.3525 59.2308 97.1732C60.5161 96.0387 60.9451 93.9541 60.2379 92.3522C59.995 91.8025 59.5475 91.4154 59.0633 91.0853C57.597 90.0799 55.9381 89.5152 54.2439 89.0493C52.6771 88.617 51.0768 88.4963 49.4681 88.7393C48.4594 88.8918 47.4506 89.0778 46.4602 89.3191C45.1733 89.6325 43.878 89.79 42.5558 89.7682C41.3879 89.7498 40.2182 89.7498 39.0503 89.7716C38.3213 89.785 37.5907 89.8302 36.8651 89.904C35.8362 90.0079 34.8626 90.3263 33.9745 90.8558C33.3243 91.2429 32.9054 91.8411 32.7295 92.5835C32.4899 93.5923 32.5167 94.6161 32.6624 95.6316C32.7513 96.2466 33.1652 96.6654 33.6947 96.957C33.9477 97.0961 34.2141 97.2336 34.4923 97.3039C35.6234 97.5938 36.7596 97.8686 37.8974 98.1284C38.9246 98.3613 39.8965 98.2591 40.8701 97.7748C41.78 97.3224 42.762 97.0123 43.7205 96.6638C45.1264 96.1527 46.5692 96.0488 48.0337 96.3622C48.7476 96.5147 49.4732 96.637 50.1636 96.8649C51.1506 97.1916 52.1627 97.2821 53.1832 97.3291C53.9121 97.3626 54.6428 97.3358 55.3734 97.3358H55.3767ZM139.764 389.313C139.781 389.027 139.849 388.73 139.802 388.454C139.588 387.163 139.36 385.875 139.097 384.593C138.951 383.884 138.732 383.189 138.539 382.49C138.44 382.129 137.934 381.69 137.607 381.679C136.736 381.645 135.864 381.59 134.995 381.597C133.364 381.608 131.824 381.233 130.343 380.583C129.944 380.409 129.562 380.197 129.167 380.013C128.905 379.891 128.634 379.79 128.369 379.676C127.922 379.485 127.441 379.814 127.462 380.268C127.511 381.275 127.905 382.24 127.707 383.287C127.486 384.457 127.059 385.506 126.373 386.471C126.097 386.86 126.296 387.426 126.692 387.51C127.543 387.693 128.387 387.939 129.249 388.028C131.281 388.236 133.267 388.678 135.254 389.112C136.248 389.328 137.232 389.595 138.227 389.806C138.502 389.865 138.82 389.87 139.083 389.786C139.335 389.705 139.539 389.476 139.764 389.312V389.313ZM148.772 177.041C148.836 176.213 148.92 175.342 148.965 174.469C148.989 174.035 148.953 173.596 148.923 173.162C148.896 172.781 148.71 172.622 148.402 172.674C148.117 172.721 147.784 172.85 147.727 173.137C147.093 176.277 146.438 179.415 145.91 182.574C145.647 184.149 145.637 185.766 145.512 187.363C145.443 188.235 145.466 189.123 145.29 189.972C144.764 192.501 145.423 194.891 146.036 197.29C146.063 197.397 146.247 197.488 146.378 197.543C146.641 197.656 146.911 197.773 147.189 197.828C147.537 197.897 148.152 197.448 148.179 197.144C148.451 194.09 148.384 191.028 148.219 187.975C148.124 186.214 148.112 184.476 148.493 182.755C148.715 181.748 148.767 180.736 148.771 179.714C148.774 178.839 148.771 177.964 148.771 177.043L148.772 177.041ZM159.417 38.7747C160.251 38.6892 160.977 38.639 161.694 38.5318C162.119 38.4681 162.557 38.3658 162.946 38.1848C163.998 37.6972 165.028 37.161 166.062 36.6348C166.186 36.5711 166.299 36.4639 166.386 36.3516C166.47 36.2444 166.543 36.112 166.567 35.9796C166.589 35.8607 166.573 35.7082 166.513 35.6093C166.441 35.4937 166.315 35.3763 166.186 35.3328C161.855 33.8917 161.523 33.4895 158.696 29.7728C158.433 29.4259 158.203 29.0522 157.935 28.7104C157.759 28.4858 157.57 28.2412 157.33 28.1021C157.102 27.9697 156.802 27.9127 156.534 27.911C156.187 27.9077 155.713 28.521 155.753 28.8411C155.79 29.126 155.76 29.4326 155.859 29.6924C156.69 31.8926 157.097 34.1631 157.072 36.5158C157.069 36.8024 157.153 37.0872 157.186 37.3754C157.258 38.0005 158.086 38.7865 158.659 38.7764C158.949 38.7714 159.239 38.7764 159.415 38.7764L159.417 38.7747ZM144.863 26.3962C144.39 26.4398 143.955 26.4749 143.521 26.5219C143.377 26.5369 143.236 26.5839 143.093 26.609C142.343 26.7397 141.818 27.4553 141.941 28.1926C142.375 30.7749 142.891 33.3471 142.938 35.9813C142.944 36.4052 143.202 36.7924 143.548 37.1007C144.102 37.5933 144.749 37.9218 145.413 38.2251C145.676 38.3457 145.964 38.4111 146.244 38.4915C147.294 38.7881 148.399 37.9452 148.343 36.8962C148.335 36.7504 148.365 36.6013 148.34 36.4589C147.878 33.7275 147.64 30.9659 147.224 28.2278C147.181 27.9395 147.115 27.6547 147.062 27.3681C147.005 27.0682 146.455 26.5805 146.128 26.5453C145.696 26.4984 145.263 26.4448 144.863 26.3995V26.3962ZM176.118 29.1628C176.066 29.5466 176.006 29.8348 175.993 30.1264C175.964 30.7346 176.185 31.2659 176.567 31.7317C176.941 32.1875 177.382 32.5729 177.908 32.841C178.305 33.0438 178.774 33.1913 179.16 32.9499C180.15 32.3333 181.12 31.678 182.052 30.9759C182.677 30.505 182.895 29.8331 182.721 29.0338C182.379 27.457 181.916 25.9187 181.239 24.4558C180.998 23.933 180.639 23.4637 180.323 22.9778C180.107 22.646 179.458 22.5806 179.145 22.8169C178.092 23.6095 177.184 24.5613 176.242 25.4729C175.926 25.7796 175.735 26.2002 175.787 26.6627C175.885 27.529 176.014 28.392 176.12 29.1645L176.118 29.1628ZM145.119 22.594C145.411 22.5789 145.706 22.589 145.994 22.5438C146.438 22.4751 146.889 22.2891 147.048 21.8685C147.512 20.6402 147.883 19.375 148.335 18.1417C148.744 17.0307 149.356 16.0453 150.309 15.298C150.879 14.8505 151.497 14.4534 151.874 13.7898C152.053 13.4731 151.854 12.818 151.511 12.6638C150.56 12.2348 149.53 12.2063 148.528 12.0455C148.042 11.9684 147.457 12.4594 147.487 13.1665C147.526 14.0395 147.521 14.9193 147.475 15.7923C147.444 16.3889 147.167 16.91 146.735 17.3356C146.631 17.4379 146.539 17.5602 146.416 17.6356C145.498 18.2087 144.999 19.0667 144.664 20.0671C144.479 20.6167 144.166 21.1227 143.967 21.669C143.853 21.9824 144.002 22.2773 144.29 22.393C144.55 22.4985 144.841 22.5304 145.119 22.5924V22.594ZM168.958 20.9937C168.787 20.7809 168.66 20.4809 168.439 20.3703C166.77 19.5325 165.03 18.8254 163.618 17.5435C163.415 17.3591 163.106 17.2871 162.838 17.1815C162.709 17.1312 162.562 17.1128 162.421 17.1011C162.279 17.0893 162.124 17.0743 161.99 17.1111C160.72 17.4614 159.537 17.9674 158.699 19.0483C158.525 19.2745 158.388 19.5308 158.254 19.7838C158.12 20.0352 158.228 20.8328 158.46 21.0054C158.679 21.1697 158.951 21.3054 159.219 21.3506C159.494 21.3976 159.797 21.3557 160.073 21.292C162.372 20.7641 164.655 20.9233 166.93 21.4378C167.351 21.5333 167.77 21.6355 168.194 21.7076C168.325 21.7293 168.475 21.6824 168.604 21.6338C168.722 21.5886 168.868 21.5216 168.918 21.4227C168.976 21.3038 168.948 21.1412 168.956 20.9971L168.958 20.9937ZM157.54 45.6652C158.378 47.3493 159.323 48.9747 160.393 50.5214C161.052 51.4716 161.821 52.3429 162.741 53.0668C163.093 53.3433 163.48 53.5478 163.919 53.5394C164.814 53.5193 165.62 53.2344 166.24 52.554C166.426 52.3496 166.458 52.0263 166.245 51.7799C164.899 50.2316 163.165 49.1624 161.476 48.0565C160.487 47.4096 159.673 46.6187 158.947 45.7087C158.768 45.4842 158.575 45.2681 158.369 45.0653C158.133 44.8341 157.851 44.747 157.637 44.8961C157.392 45.067 157.391 45.3552 157.541 45.6669L157.54 45.6652ZM108.059 144.006C108.059 144.123 108.051 144.552 108.064 144.981C108.068 145.119 108.111 145.261 108.163 145.392C108.214 145.517 108.269 145.678 108.373 145.74C108.644 145.903 108.939 145.886 109.179 145.702C109.402 145.531 109.648 145.355 109.79 145.124C110.769 143.543 111.726 141.95 112.684 140.358C113.098 139.671 112.683 139.006 111.788 138.908C111.645 138.893 111.503 138.883 111.362 138.87C110.747 138.811 110.199 139.031 109.819 139.466C108.768 140.671 107.888 141.973 108.061 144.006H108.059ZM155.742 18.2104C155.763 17.7881 155.12 17.3071 154.527 17.4764C154.113 17.5954 153.669 17.696 153.315 17.9239C152.466 18.4718 151.68 19.1102 150.986 19.8593C150.532 20.3503 150.589 21.3423 151.125 21.8098C151.924 22.5052 152.838 22.9007 153.907 22.7934C154.341 22.7498 154.84 22.5505 154.976 22.15C155.393 20.9233 155.753 19.6699 155.74 18.2087L155.742 18.2104ZM157.062 235.423C156.573 236.892 156.156 238.132 155.752 239.374C155.663 239.649 155.598 239.935 155.564 240.22C155.549 240.346 155.609 240.512 155.693 240.612C155.852 240.807 156.151 240.81 156.373 240.535C157.759 238.829 158.646 236.834 159.504 234.841C160.095 233.465 160.035 232.003 159.695 230.555C159.611 230.2 159.445 230.015 159.182 230.079C159.061 230.107 158.924 230.211 158.865 230.318C157.952 231.996 157.732 233.915 157.062 235.421V235.423ZM131.454 374.391C130.896 374.433 130.174 374.48 129.453 374.552C129.343 374.564 129.18 374.668 129.15 374.765C129.049 375.071 129.145 375.361 129.41 375.549C129.763 375.799 130.122 376.052 130.511 376.239C131.828 376.873 133.225 377.263 134.661 377.525C134.802 377.55 134.951 377.541 135.095 377.536C135.241 377.531 135.389 377.525 135.529 377.489C135.858 377.411 136.049 377.221 136.072 376.943C136.084 376.804 136.084 376.642 136.022 376.524C135.526 375.579 134.613 375.088 133.778 374.515C133.664 374.436 133.502 374.399 133.361 374.396C132.781 374.383 132.201 374.391 131.456 374.391H131.454ZM152.672 28.0904C152.657 27.948 152.635 27.8055 152.63 27.663C152.606 27.1251 152.102 26.6007 151.509 26.5437C151.226 26.5169 150.936 26.547 150.651 26.5638C150.219 26.5906 149.769 27.0078 149.78 27.3664C149.816 28.6618 149.836 29.9588 149.919 31.2508C149.945 31.6714 150.131 32.0853 150.274 32.4925C150.297 32.5612 150.502 32.6416 150.57 32.6081C151.115 32.3417 151.293 31.7568 151.645 31.3195C152.404 30.3761 152.68 29.2785 152.673 28.0904H152.672ZM179.336 61.184C179.031 61.199 178.744 61.2041 178.458 61.2326C178.317 61.2476 178.179 61.3063 178.04 61.3448C177.685 61.4437 177.275 61.9732 177.288 62.2983C177.335 63.3389 177.657 64.279 178.322 65.0867C178.503 65.3062 178.778 65.3163 179.089 65.1772C180.328 64.6275 181.189 63.6774 181.896 62.5563C182.122 62.1977 181.901 61.7068 181.442 61.6096C180.735 61.4621 180.026 61.3214 179.336 61.1806V61.184ZM173.189 64.1751C173.317 64.8119 173.596 66.2262 173.883 67.6388C173.96 68.0192 174.188 68.1566 174.501 67.9907C174.744 67.8617 175.034 67.7209 175.162 67.503C175.383 67.126 175.413 66.6552 175.279 66.2413C174.925 65.1403 174.542 64.0478 174.116 62.9736C174.024 62.7424 173.717 62.5798 173.482 62.4257C173.238 62.2648 173.047 62.7407 173.189 64.1751ZM154.922 67.3439C154.9 67.0607 154.89 66.7758 154.852 66.4943C154.778 65.958 154.197 65.5223 153.595 65.5659C153.315 65.586 153.035 65.6515 152.764 65.7269C152.075 65.9196 151.926 66.4507 152.392 67.0037C152.851 67.5483 153.285 68.1298 153.984 68.3895C154.277 68.4984 154.58 68.4063 154.716 68.1449C154.84 67.9069 154.859 67.6137 154.924 67.3439H154.922ZM166.238 25.1579C165.891 25.1579 165.637 25.2752 165.494 25.5366C165.32 25.8566 165.451 26.0578 165.751 26.2505C166.471 26.7146 167.163 27.2224 167.998 27.4721C168.306 27.5642 168.586 27.4971 168.769 27.2542C168.94 27.0263 168.928 26.7464 168.747 26.4967C168.581 26.2672 168.412 26.0158 168.186 25.86C167.592 25.4511 166.922 25.2182 166.24 25.1579H166.238ZM103.505 150.174C103.642 150.146 103.815 150.161 103.914 150.084C104.607 149.539 105.184 148.917 105.035 147.936C105.015 147.808 104.909 147.646 104.8 147.597C104.713 147.558 104.525 147.636 104.442 147.719C103.825 148.334 103.406 149.068 103.208 149.916C103.195 149.977 103.401 150.087 103.505 150.174ZM174.237 21.5719C174.542 21.6054 174.795 21.5048 174.982 21.2601C175.269 20.8898 175.193 20.3972 174.825 20.1911C174.434 19.9715 173.945 20.1308 173.814 20.5179C173.69 20.8865 173.908 21.4328 174.237 21.5719ZM139.888 32.4036C139.95 32.2846 140.062 32.164 140.059 32.0467C140.055 31.9244 139.94 31.8071 139.873 31.6865C139.812 31.8054 139.7 31.9278 139.703 32.0451C139.707 32.1657 139.822 32.2846 139.888 32.4036Z" fill="#8DC0FF"/>
<path d="M44.6204 60.6483C44.6455 60.2042 44.7896 59.8071 45.0594 59.4518C45.2974 59.1368 45.8855 58.9357 46.2173 59.0614C46.901 59.3177 47.6534 59.5591 48.0723 60.1489C49.5151 62.1766 51.288 63.8874 53.0475 65.6218C53.3609 65.9301 53.4128 66.3876 53.2871 66.8333L53.3743 66.7495C52.9285 66.8199 52.5297 66.6892 52.1611 66.4495C51.1875 65.8161 50.3932 64.9817 49.6039 64.1438C48.7175 63.2021 47.8495 62.2385 46.9211 61.3386C46.6295 61.0571 46.1805 60.908 45.7766 60.784C45.3711 60.66 44.9337 60.6416 44.5098 60.5779L44.622 60.6499L44.6204 60.6483Z" fill="#8DC0FF"/>
<path d="M42.8775 63.3347C42.8707 63.1923 42.8272 63.0397 42.8607 62.9073C43.1188 61.9036 43.6148 61.0758 44.6185 60.6502L44.5062 60.5781C44.5398 61.8701 43.9248 62.7365 42.7551 63.2341L42.8775 63.333V63.3347Z" fill="#8DC0FF"/>
<path d="M35.8095 69.4649C35.8832 69.2253 35.8849 68.9119 36.0424 68.7595C36.706 68.1143 37.4181 67.5245 38.4537 67.7222L38.3683 67.625C38.318 68.3757 37.7466 68.7243 37.2221 69.1047C36.773 69.4298 36.2803 69.5303 35.7424 69.3811L35.8095 69.4649Z" fill="#8DC0FF"/>
<path d="M40.2185 65.9513C40.3201 65.4709 40.6112 65.1838 41.0915 65.0899L40.9977 64.9844C40.8905 65.4804 40.5978 65.7736 40.1196 65.8641L40.2185 65.9513Z" fill="#8DC0FF"/>
<path d="M41.9858 64.208C42.0076 63.6349 42.2958 63.3349 42.8773 63.3349L42.755 63.2344C42.6729 63.7404 42.4031 64.0555 41.8735 64.1108L41.9858 64.208Z" fill="#8DC0FF"/>
<path d="M38.4556 67.7191C38.5327 67.2242 38.8237 66.9305 39.3286 66.8378L39.2432 66.7422C39.1672 67.2382 38.8762 67.5309 38.3701 67.6203L38.4556 67.7175V67.7191Z" fill="#8DC0FF"/>
<path d="M39.3269 66.8408C39.4218 66.3425 39.7184 66.0471 40.2167 65.9543L40.1178 65.8672C40.0396 66.3744 39.7469 66.667 39.2397 66.7452L39.3252 66.8408H39.3269Z" fill="#8DC0FF"/>
<path d="M41.0897 65.0913C41.1947 64.5886 41.4935 64.2937 41.9862 64.2066L41.8739 64.1094C41.8639 64.6841 41.5773 64.9824 40.9958 64.9841L41.0897 65.0897V65.0913Z" fill="#8DC0FF"/>
<path d="M92.8256 108.379C92.1536 108.379 91.4833 108.402 90.8147 108.453L90.8818 108.947C91.5638 108.831 92.2575 108.85 92.9462 108.843C93.6349 108.836 94.3237 108.776 95.0107 108.704C96.3932 108.56 97.7522 108.463 99.1279 108.719C99.4446 108.778 99.5804 108.293 99.262 108.235C98.5548 108.104 97.8376 108.035 97.1188 108.044C96.3999 108.052 95.7128 108.129 95.0124 108.203C94.3119 108.277 93.6115 108.335 92.9077 108.342C92.2039 108.349 91.4649 108.342 90.7511 108.464C90.4729 108.511 90.5349 108.979 90.8181 108.959C91.4867 108.908 92.1586 108.885 92.8289 108.885C93.1523 108.885 93.1523 108.382 92.8289 108.382L92.8256 108.379Z" fill="#8DC0FF"/>
<path d="M89.3953 108.421C87.108 108.359 84.8206 108.27 82.535 108.153C82.3741 108.144 82.3741 108.396 82.535 108.404C84.8206 108.52 87.108 108.61 89.3953 108.672C89.5579 108.677 89.5562 108.426 89.3953 108.421Z" fill="#8DC0FF"/>
<path d="M60.2681 56.9361C60.625 59.3207 61.2132 61.6734 61.3724 64.0847C61.3908 64.3562 61.5902 64.5874 61.8751 64.5874C62.1331 64.5874 62.3962 64.3579 62.3778 64.0847C62.2136 61.5829 61.607 59.1413 61.2383 56.668C61.1981 56.3999 60.8596 56.2507 60.62 56.3161C60.3318 56.3948 60.2279 56.6647 60.2681 56.9345V56.9361Z" fill="#8DC0FF"/>
<path d="M54.6578 67.0395C53.9339 66.5737 53.3893 65.8683 52.8028 65.2499C52.1694 64.583 51.5125 63.9378 50.8339 63.3144C49.4648 62.0593 48.0069 60.8964 46.4804 59.8373C46.0849 59.5625 45.6727 59.3431 45.175 59.4788C44.7225 59.6011 44.3723 59.9647 44.1612 60.3702C43.9635 60.7506 43.8411 61.1595 43.625 61.5315C43.4289 61.87 43.1943 62.1783 42.9329 62.4682C42.3514 63.1134 41.6728 63.6614 41.0058 64.2127C40.2316 64.8528 39.4591 65.4912 38.685 66.1313C37.8035 66.8603 36.9221 67.5875 36.0424 68.3165C35.3788 68.8644 34.6331 69.5498 33.7249 69.5766C33.0797 69.5967 33.0764 70.6021 33.7249 70.582C34.6448 70.5535 35.4173 70.0877 36.1245 69.538C36.8869 68.9448 37.6209 68.3114 38.3649 67.6948C39.1089 67.0781 39.9116 66.4162 40.6858 65.776C41.3963 65.1895 42.1202 64.6165 42.8072 64.0015C43.4339 63.4418 44.0255 62.8218 44.4578 62.0962C44.6773 61.7275 44.8097 61.3254 44.9957 60.9417C45.0678 60.7926 45.1482 60.6384 45.2755 60.5362C45.3627 60.4658 45.485 60.4172 45.5554 60.444C45.7498 60.5177 45.9274 60.6752 46.095 60.7925C46.281 60.9232 46.4653 61.0539 46.6496 61.188C47.0032 61.4444 47.3517 61.7058 47.6969 61.9739C48.4125 62.5319 49.1096 63.1151 49.7849 63.7217C50.5356 64.3953 51.2612 65.0974 51.96 65.8246C52.6587 66.5519 53.2955 67.3563 54.1501 67.9076C54.378 68.055 54.7048 67.9545 54.8371 67.7266C54.9796 67.4836 54.8857 67.187 54.6562 67.0395H54.6578Z" fill="#8DC0FF"/>
</svg>
