<svg width="469" height="618" viewBox="0 0 469 618" fill="none" xmlns="http://www.w3.org/2000/svg">
<path d="M195.068 0.681122C198.034 -0.540718 200.763 -0.101598 203.285 1.86081C205.063 3.24369 206.66 4.7741 207.717 6.80124C207.953 7.25492 208.209 7.71511 208.543 8.09811C209.111 8.75029 209.777 9.3045 210.683 9.41647C211.363 9.50094 212.048 9.57363 212.732 9.58542C215.476 9.62667 218.22 9.52051 220.962 9.77585C222.153 9.88584 223.363 9.77003 224.565 9.76608C225.25 9.76412 225.96 9.66972 226.619 9.80515C229.342 10.363 232.099 10.0404 234.829 10.2231C237.748 10.4195 240.662 10.3084 243.573 10.4204C246.49 10.5304 249.405 10.5088 252.32 10.5874C255.064 10.6601 257.804 10.7917 260.552 10.7466C261.234 10.7348 261.919 10.8467 262.599 10.9214C263.11 10.9783 263.625 11.1627 264.125 11.1255C268.078 10.8308 272.003 11.4182 275.948 11.4575C280.234 11.5007 284.524 11.4727 288.808 11.7202C289.833 11.7791 290.867 11.7417 291.896 11.7417C293.784 11.7417 295.667 11.7228 297.549 11.9585C298.565 12.0861 299.604 12.0444 300.633 12.0385C302.35 12.0307 304.061 12.0312 305.768 12.2964C306.611 12.428 307.48 12.4154 308.336 12.4311C314.341 12.545 320.348 12.5863 326.351 12.7807C330.635 12.9202 334.927 12.8794 339.2 13.3901C340.891 13.5924 342.626 13.4233 344.341 13.4214C346.056 13.4213 347.779 13.3113 349.486 13.4311C355.491 13.8534 361.494 13.6774 367.494 13.4712C370.074 13.3828 372.628 13.3532 375.2 13.6616C378.291 14.0328 380.598 13.9125 380.853 13.9282C384.843 14.1541 408.89 14.1388 467.662 13.6792C468.108 13.8774 468.554 14.0756 468.999 14.2758C410.784 15.8119 390.118 15.879 385.434 15.4272C377.695 14.6788 375.963 14.683 372.5 14.6889C372.157 14.6889 370.571 14.7008 368.385 14.6733C367.014 14.6556 365.64 14.5844 364.269 14.6001C360.323 14.6413 356.374 14.7061 352.428 14.7749C349.34 14.8279 346.26 14.9148 343.168 14.687C341.122 14.5357 339.053 14.7005 336.994 14.7299C334.936 14.7594 332.88 14.8319 330.824 14.5981C329.804 14.4823 328.769 14.4945 327.74 14.5044C325.679 14.5201 323.622 14.5869 321.585 14.1626C321.086 14.0585 320.56 14.0718 320.047 14.0639C316.103 14.0129 312.155 14.0521 308.212 13.9048C303.755 13.7397 299.29 13.9654 294.836 13.6118C293.642 13.5175 292.436 13.5844 291.234 13.5981C289.688 13.6158 288.152 13.587 286.619 13.3081C285.783 13.1549 284.91 13.1194 284.058 13.1469C281.654 13.2294 279.259 13.0998 276.859 12.9741C273.948 12.8209 271.031 12.9601 268.112 12.8364C264 12.6616 259.878 12.6952 255.763 12.6303C254.907 12.6166 254.03 12.6732 253.196 12.518C251.149 12.135 249.102 12.1825 247.041 12.2885C246.189 12.3318 245.315 12.345 244.474 12.2094C242.594 11.907 240.71 11.9879 238.825 11.9585C234.366 11.8878 229.909 11.7773 225.45 11.687C224.42 11.6654 223.39 11.6401 222.361 11.6479C220.302 11.6656 218.247 11.6964 216.195 11.4057C215.004 11.2369 213.8 11.3038 212.61 11.5454C211.989 11.6712 211.481 12.4864 211.695 13.0815C211.811 13.4037 211.919 13.7301 212.04 14.0503C212.531 15.3309 213.029 16.6075 213.516 17.8901C213.738 18.4716 214.433 19.0244 215.054 19.101C215.563 19.1639 216.072 19.2621 216.582 19.2758C217.782 19.3092 218.985 19.3326 220.185 19.3091C224.473 19.2207 228.761 19.4347 233.051 19.1557C235.265 19.0123 237.504 19.2952 239.734 19.3208C242.822 19.3561 245.912 19.3286 249.002 19.3286H252.537C252.565 19.3462 252.605 19.3734 252.656 19.4067C252.702 19.4372 252.751 19.4646 252.798 19.4936C252.606 19.4935 252.409 19.4942 252.209 19.4936C247.114 19.4779 244.631 19.5033 240.883 19.5112C238.654 19.5171 236.424 19.4347 234.197 19.6684C233.352 19.7568 232.488 19.6274 231.633 19.6255C226.486 19.6078 221.337 19.5913 216.191 19.5874C215.853 19.5874 215.515 19.6955 215.175 19.7407C214.653 19.8116 213.834 20.6012 213.771 21.102C213.749 21.2709 213.678 21.4361 213.666 21.6049C213.562 22.972 213.48 24.3414 213.365 25.7065C213.264 26.9028 212.703 28.0091 212.654 29.2212C212.636 29.6238 212.745 29.8893 213.142 30.0229C213.46 30.131 213.779 30.3384 214.097 30.3344C215.639 30.3148 217.179 30.243 218.721 30.186C221.292 30.0917 223.864 29.9637 226.437 29.9087C228.008 29.8753 229.478 30.2662 230.843 31.1108C232.163 31.9299 233.487 32.7235 234.387 34.0337C234.87 34.7389 235.385 35.4404 235.737 36.2124C236.454 37.7819 237.328 39.2454 238.333 40.644C238.932 41.4789 239.477 42.3529 240.015 43.229C240.82 44.5411 241.657 45.8394 242.367 47.2026C242.999 48.4146 243.461 49.717 244.033 50.9624C244.461 51.8954 244.913 52.8215 245.411 53.7192C245.871 54.5458 246.619 54.8811 247.566 54.7397C247.735 54.7142 247.908 54.7086 248.078 54.6909C249.039 54.5907 249.749 55.0469 250.218 55.8091C250.664 56.5337 251.015 57.3233 251.357 58.1069C251.649 58.7787 251.487 59.4588 251.197 60.0932C251.055 60.3997 250.854 60.6963 250.62 60.9399C249.723 61.869 249.395 62.967 249.535 64.2358C249.664 65.4301 249.719 66.6324 249.89 67.8188C250.259 70.3822 250.126 72.9576 250.092 75.5268C250.067 77.4323 249.487 79.2521 248.843 81.02C248.199 82.7897 247.389 84.5005 246.616 86.2192C246.142 87.2701 245.356 87.7222 244.138 87.5356C243.929 87.5034 243.755 87.4988 243.613 87.5219C243.432 87.7591 243.248 87.9963 243.058 88.2319C243.045 88.3751 243.048 88.5404 243.062 88.728C243.099 89.2328 243.138 89.7418 243.124 90.2466C243.114 90.6 242.904 90.8989 242.588 91.0815C242.294 91.2523 241.985 91.413 241.661 91.5112C240.809 91.7725 240.141 92.2283 239.689 93.0278C238.762 94.672 237.801 96.2968 236.844 97.9233C235.442 100.306 233.804 102.5 231.582 104.189C230.478 105.028 229.543 106.01 228.641 107.053C226.622 109.391 224.567 111.697 222.504 113.996C221.817 114.76 221.071 115.473 220.328 116.186C219.549 116.932 218.621 117.308 217.521 117.161C217.181 117.115 216.841 117.056 216.501 117.023C216.472 117.02 216.443 117.019 216.414 117.017C215.902 117.217 215.358 117.387 214.778 117.524C212.839 118.781 211.105 120.294 209.463 121.915C208.978 122.395 208.538 122.963 208.45 123.67C208.292 124.917 207.683 125.933 206.906 126.864C206.468 127.388 205.924 127.827 205.501 128.363C205.189 128.76 204.935 129.227 204.76 129.701C204.524 130.341 204.348 131.011 204.216 131.683C203.817 133.726 203.178 135.665 201.902 137.346C200.813 139.888 199.317 142.177 197.633 144.357C197.317 144.765 197.29 145.29 197.493 145.808C198.117 147.413 198.901 148.937 199.79 150.407C200.052 150.839 200.376 151.279 200.777 151.57C201.934 152.407 202.619 153.552 203.251 154.793C204.821 157.868 205.882 161.123 206.828 164.423C207.017 165.079 207.149 165.759 207.232 166.438C207.705 170.357 208.122 174.279 208.088 178.237C208.061 181.498 208.089 184.76 208.384 188.009C208.445 188.681 208.557 189.406 208.868 189.99C211.046 194.099 212.566 198.482 214.16 202.825C214.99 205.092 215.948 207.278 217.142 209.368C218.332 211.454 219.472 213.572 220.729 215.619C221.905 217.532 222.581 219.669 223.603 221.653C226.98 228.212 230.271 234.816 233.595 241.403C233.75 241.709 233.931 242.009 234.032 242.333C234.536 243.991 236.318 244.883 236.544 246.753C236.731 248.303 237.716 249.594 238.37 250.987C239.097 252.539 239.936 254.04 240.714 255.568C241.492 257.096 242.255 258.634 243.025 260.168C243.718 261.547 244.413 262.926 245.107 264.307C245.877 265.841 246.642 267.376 247.412 268.91C247.874 269.829 248.3 270.758 248.587 271.758C248.872 272.744 249.232 273.719 249.674 274.644C250.342 276.042 250.948 277.455 251.351 278.954C251.485 279.449 251.684 279.928 251.886 280.4C252.358 281.504 252.962 282.564 253.314 283.704C254.276 286.815 255.593 289.805 256.535 292.918C257.186 295.062 258.219 297.046 258.94 299.156C259.101 299.627 259.433 300.065 259.765 300.45C261.458 302.4 263.312 304.172 265.481 305.604C269.938 308.545 274.58 311.11 279.698 312.729C282.056 313.475 284.244 314.604 286.431 315.732C289.607 316.682 292.866 317.401 296.246 317.816C297.784 317.939 299.328 318.01 300.868 318.017C304.478 318.035 308.063 318.394 311.652 318.671C313.184 318.791 314.714 319.098 316.211 319.459C318.712 320.064 321.208 320.7 323.66 321.472C327.588 322.71 331.437 324.17 335.138 325.997C336.368 326.603 337.613 327.181 338.865 327.745C341.063 328.737 343.145 329.945 345.085 331.355C347.721 333.27 350.279 335.296 352.828 337.325C356.364 340.14 359.074 343.674 361.398 347.506C362.553 349.412 363.925 351.178 364.935 353.175C365.251 353.798 365.819 354.214 366.422 354.56C367.017 354.9 367.641 355.197 368.22 355.562C368.805 355.933 369.327 356.431 369.563 357.081C370.042 358.398 370.83 359.497 371.728 360.543C372.079 360.954 372.107 361.483 372.027 362.003C371.974 362.341 371.927 362.687 371.825 363.013C371.443 364.245 371.685 365.382 372.304 366.472C372.473 366.771 372.624 367.085 372.827 367.358C374.795 369.998 376.065 372.998 377.311 376.011C377.769 377.119 378.218 378.237 378.75 379.309C380.506 382.843 382.32 386.349 384.069 389.885C384.685 391.133 385.486 392.219 386.417 393.241C387.92 394.889 389.364 396.59 390.841 398.262C392.318 399.934 393.76 401.639 395.294 403.255C397.661 405.748 399.895 408.347 401.907 411.136C402.508 411.969 403.077 412.865 403.831 413.539C406.179 415.633 407.706 418.316 409.375 420.903C409.75 421.484 409.582 422.624 408.991 423.29C408.775 423.531 408.468 423.756 408.161 423.842C407.317 424.08 406.456 423.997 405.641 423.691C404.673 423.327 403.763 422.836 402.991 422.137C402.592 421.776 402.197 421.411 401.808 421.04C399.686 419.117 397.888 416.821 395.841 414.795C393.437 412.409 390.9 410.155 388.426 407.843C388.065 406.01 387.508 404.407 385.133 404.248C386.307 406.1 387.485 407.951 388.651 409.81C389.106 410.537 389.533 411.283 389.92 412.049C392.083 416.339 394.232 420.636 396.375 424.936C396.933 426.056 397.068 427.235 396.656 428.431C396.491 428.91 396.3 429.411 395.995 429.804C394.823 431.311 393.375 432.509 391.707 433.444C391.089 433.791 390.429 433.925 389.738 433.947C388.272 433.994 387.107 433.306 386.044 432.393C385.919 432.285 385.802 432.125 385.757 431.97C385.73 431.875 385.705 431.78 385.679 431.685C384.961 431.094 384.423 430.327 384.364 429.58C384.271 428.458 384.005 427.042 384.536 426.233C387.12 422.28 385.438 418.876 383.491 415.466C382.235 413.267 380.895 411.11 379.305 408.467C379.168 408.547 379.074 408.703 379.034 408.938C378.743 410.627 378.486 412.325 378.171 414.012C377.9 415.464 377.051 416.493 375.698 417.084C373.969 417.841 372.262 418.658 370.493 419.306C367.754 420.308 364.951 421.133 362.214 422.137C359.922 422.978 357.848 422.659 355.862 421.332C355.555 421.127 355.349 420.877 355.273 420.52C355.263 420.474 355.252 420.428 355.242 420.381C354.667 419.84 354.248 419.151 354.074 418.368C353.501 415.813 354.398 413.831 356.894 412.808C359.032 411.935 361.24 411.247 363.372 410.363C365.141 409.629 366.835 408.728 368.777 407.791C372.192 398.059 366.581 390.968 362.078 383.165C361.837 383.595 361.618 384.035 361.42 384.485C361.144 386.721 360.85 388.955 360.425 391.17C360.329 391.671 360.309 392.196 360.325 392.707C360.356 393.748 360.57 394.751 361.142 395.643C362.433 397.662 363.753 399.665 365.016 401.7C365.171 401.951 365.139 402.376 365.075 402.698C364.813 404.014 363.8 404.791 362.49 404.679C361.81 404.62 361.12 404.532 360.466 404.349C359.13 403.978 357.926 403.306 356.836 402.463C356.745 402.393 356.655 402.317 356.567 402.237C355.881 401.866 355.34 401.262 354.907 400.394C352.485 395.534 351.039 390.493 351.606 384.847C352.016 380.779 353.958 376.646 351.988 371.757C351.948 371.759 351.908 371.759 351.868 371.76C350.877 371.979 349.879 372.173 348.906 372.454C348.085 372.689 347.311 373.09 346.49 373.328C343.351 374.233 340.291 375.28 337.511 377.08C336.226 377.912 334.772 378.5 333.366 379.126C332.163 379.663 331.009 379.437 330.007 378.594C329.618 378.266 329.226 377.899 328.959 377.473C328.835 377.275 328.716 377.074 328.601 376.87C327.817 376.047 327.069 375.231 326.524 374.294C322.133 366.748 316.66 360.88 310.035 356.719C306.927 355.074 303.715 353.641 300.429 352.398C298.51 351.673 296.494 351.197 294.514 350.637C293.685 350.404 292.827 350.321 291.965 350.449C290.201 350.71 288.507 350.303 286.946 349.608C283.817 348.213 280.624 346.931 277.709 345.092C277.421 344.91 277.159 344.681 276.878 344.485C276.418 344.163 276.324 343.796 276.657 343.214C276.091 342.674 275.535 342.106 274.991 341.508C268.795 334.712 262.01 328.407 255.116 322.298C249.169 317.028 245.21 310.555 242.199 303.435C238.454 294.581 235.322 285.461 231.438 276.676C226.312 265.072 220.838 253.617 215.255 242.226C213.111 237.845 210.655 233.471 205.91 230.754C205.862 230.852 205.809 230.947 205.759 231.04C205.485 233.685 205.233 236.333 204.974 238.979C204.925 239.49 204.969 240.03 204.82 240.509C204.089 242.839 204.128 245.257 203.983 247.646C203.775 251.077 203.358 254.477 202.757 257.86C202.547 259.04 202.397 260.233 202.238 261.423C202.124 262.274 202.103 263.142 201.928 263.977C201.329 266.839 201.022 269.735 200.847 272.65C200.827 272.992 200.808 273.339 200.738 273.673C199.842 277.887 199.761 282.193 199.272 286.454C198.959 289.178 198.879 291.93 198.207 294.614C198.001 295.437 197.971 296.313 197.93 297.169C197.755 300.776 197.278 304.344 196.606 307.887C196.189 310.083 195.928 312.295 195.909 314.531C195.905 315.065 196.209 315.509 196.575 315.874C196.812 316.114 197.117 316.294 197.408 316.475C202.812 319.828 207.904 323.613 212.844 327.609C213.51 328.147 214.201 328.664 214.81 329.261C218.97 333.349 223.3 337.26 227.466 341.342C229.8 343.627 232.443 345.553 235 347.573C240.787 352.144 246.631 356.644 252.426 361.207C254.312 362.692 256.168 364.227 257.948 365.835C262.024 369.521 266.424 372.813 270.629 376.339C272.075 377.551 273.533 378.76 275.057 379.87C279.785 383.317 284.093 387.25 288.319 391.275C291.053 393.878 293.762 396.508 296.459 399.152C297.437 400.112 298.388 401.108 299.28 402.147C304.08 407.749 308.899 413.338 313.427 419.168C315.427 421.742 317.338 424.378 319.185 427.067C320.638 429.182 321.978 431.383 323.654 433.347C324.32 434.127 324.959 434.968 325.412 435.879C326.719 438.494 328.41 440.871 329.877 443.383C331.26 445.752 332.706 448.085 334.109 450.442C334.721 451.471 335.23 452.565 335.776 453.633C337.102 456.23 338.432 458.827 339.743 461.434C340.157 462.257 340.669 463.001 341.254 463.701C349.303 463.997 357.39 464.069 365.43 464.735C367.466 464.903 369.498 464.993 371.525 465.017C371.876 464.969 372.225 464.973 372.571 465.022C379.408 465.025 386.188 464.279 392.876 463.133C401.926 461.584 411.15 460.584 419.882 457.285C422.009 456.481 424.412 456.407 427.437 456.113C427.53 456.085 427.623 456.059 427.716 456.032C429.313 455.556 430.742 455.733 432.211 456.338C432.854 456.604 433.001 457.515 432.451 458.008C432.197 458.236 431.981 458.515 431.702 458.704C431.133 459.085 430.551 459.454 429.942 459.768C428.875 460.32 427.784 460.822 426.709 461.356C425.635 461.89 424.515 462.359 423.509 463.003C420.276 465.076 416.606 465.999 413.007 467.119C410.106 467.559 407.374 468.612 404.596 469.488C403.125 469.953 401.669 470.472 400.215 470.987C397.935 471.794 395.587 472.33 393.175 472.356C390.92 472.379 388.716 472.741 386.571 473.297C384.593 473.81 382.53 474.075 380.67 475.041C379.6 475.597 378.287 475.369 377.214 475.984C376.01 476.675 374.708 477.092 373.347 477.333C370.491 478.565 367.451 479.161 364.436 479.801C361.248 480.479 358.034 481.032 354.828 481.631C353.817 481.82 352.774 481.89 351.787 482.167C347.794 483.291 343.665 483.48 339.589 484.028C338.715 484.146 337.842 483.94 337.129 483.455C336.122 482.769 335.104 482.237 333.87 482.044C332.317 481.801 330.914 481.176 329.934 479.844C329.836 479.713 329.685 479.608 329.537 479.526C329.411 479.455 329.284 479.386 329.157 479.316C328.917 479.191 328.678 479.063 328.439 478.934C328.352 478.89 328.264 478.847 328.176 478.805C327.699 478.581 327.19 478.514 326.683 478.703C325.553 479.121 324.471 479.632 323.481 480.33C322.218 481.217 320.921 482.058 319.678 482.973C318.409 483.908 316.998 484.454 315.48 484.833C314.04 485.193 312.767 484.795 311.504 484.225C311.204 484.09 310.887 483.861 310.712 483.588C310.397 483.098 310.063 482.621 309.724 482.147C308.154 480.849 307.244 479.144 306.308 477.512C301.159 468.514 296.293 459.382 289.728 451.228C287.15 448.026 285.653 443.849 284.11 439.942C282.099 434.856 279.521 430.215 275.69 426.29C268.668 419.107 262.31 411.386 257.271 402.676C255.723 399.999 253.732 397.988 251.356 396.432C250.923 396.231 250.476 396.049 250.014 395.889C248.323 395.303 246.741 394.558 245.304 393.509C244.129 392.995 242.994 392.43 241.896 391.818C241.859 391.81 241.822 391.802 241.785 391.795C240.946 391.64 240.117 391.374 239.326 391.054C238.697 390.801 238.094 390.445 237.55 390.04C236.865 389.53 236.196 388.975 235.617 388.35C234.577 387.23 233.52 386.114 232.554 384.932C230.858 383.372 229.221 381.704 227.612 379.953C223.229 375.187 218.291 370.917 213.266 366.746C212.584 366.21 211.918 365.654 211.263 365.086C209.528 363.657 207.79 362.234 206.067 360.8C205.928 360.685 205.787 360.574 205.643 360.465C204.177 359.6 202.691 358.772 201.159 358.034C200.436 357.716 199.729 357.413 199.069 357.1C198.939 357.047 198.809 356.994 198.679 356.943C198.549 356.892 198.379 356.899 198.206 356.947C197.962 357.075 197.747 357.209 197.556 357.346C197.495 357.422 197.453 357.503 197.441 357.583C197.39 357.917 197.268 358.248 197.262 358.582C197.252 359.094 197.292 359.611 197.347 360.124C197.567 362.17 197.763 364.221 198.044 366.26C198.302 368.128 198.72 369.975 198.948 371.845C199.325 374.917 200.006 377.915 200.831 380.893C201.201 382.221 201.639 383.513 202.183 384.776C204.835 390.92 207.578 397.022 210.617 402.988C211.707 405.127 212.837 407.245 213.488 409.582C213.668 410.235 214.022 410.842 214.327 411.457C216.002 414.839 217.653 418.233 219.383 421.586C220.204 423.18 220.452 424.822 220.279 426.571C220.025 429.132 219.829 431.699 219.269 434.221C219.157 434.72 219.1 435.235 219.057 435.748C218.998 436.445 219.132 437.129 219.428 437.749C219.721 438.364 220.123 438.928 220.467 439.519C220.984 440.407 221.601 441.258 221.98 442.203C222.622 443.798 223.381 445.334 224.11 446.886C224.328 447.348 224.518 447.835 224.628 448.332C224.815 449.182 225.11 449.978 225.615 450.687C227.921 453.92 229.465 457.566 231.26 461.077C231.578 461.697 231.674 462.373 231.837 463.039C232.165 464.382 232.224 465.748 232.317 467.117C232.385 468.16 232.275 469.174 231.991 470.169C231.802 470.827 231.613 471.492 231.369 472.13C230.452 474.535 229.559 476.949 228.563 479.322C227.968 480.742 227.272 482.133 226.498 483.464C224.084 487.617 221.785 491.842 218.937 495.728C218.735 496.005 218.546 496.294 218.369 496.586C216.063 500.407 213.498 504.053 211.005 507.749C208.797 511.024 206.456 514.201 204.138 517.391C200.41 522.526 196.5 527.529 192.661 532.582C192.039 533.401 191.434 534.245 190.725 534.984C188.226 537.587 186.065 540.476 183.724 543.21C182.596 544.527 181.415 545.735 180.031 546.76C177.821 548.399 175.829 550.273 174.049 552.373H170.981C167.072 555.509 163.337 558.937 158.919 562.74C162.381 565.126 165.277 566.866 167.871 568.981C170.507 571.125 172.842 573.639 175.419 576.101C169.016 577.685 164.346 572.564 158.601 572.449C156.405 574.021 157.509 575.899 158.202 577.54C160.589 583.181 163.195 588.729 165.565 594.381C166.744 597.184 167.854 600.074 168.519 603.027C169.906 609.164 168.484 614.291 162.364 617.29C161.734 616.892 160.705 616.62 160.532 616.071C156.775 604.391 148.424 595.763 141.015 586.516C139.576 584.719 137.842 583.158 136.264 581.476C130.733 575.599 125.613 569.443 123.365 560.387C123.307 560.52 123.515 559.22 124.272 558.509C131.45 551.811 135.877 543.293 140.385 534.786C151.429 513.98 164.641 494.59 179.367 476.252C185.787 468.254 188.613 459.683 186.897 449.471C184.025 432.353 180.609 415.246 174.049 399.244C173.253 397.299 172.402 395.36 171.491 393.439C171.394 393.381 171.295 393.324 171.193 393.27C170.598 392.956 170.199 392.335 169.885 391.712C168.414 388.803 166.871 385.928 165.5 382.971C165.366 382.682 165.224 382.397 165.078 382.117C163.291 379.487 161.32 376.966 159.133 374.604C158.59 374.053 158.056 373.494 157.524 372.933C157.309 372.719 157.092 372.506 156.873 372.295C149.597 365.279 144.072 356.98 139.472 347.999C136.039 341.295 134.062 334.464 135.727 326.881C135.93 325.954 135.614 324.91 135.41 323.411C135.04 323.285 134.668 323.16 134.288 323.123C132.24 322.926 130.187 322.755 128.132 322.624C126.078 322.492 124.017 322.437 121.962 322.311C120.249 322.205 118.54 322.046 116.831 321.911C115.425 321.799 114.173 321.265 113.01 320.499C112.429 320.115 111.942 319.649 111.755 318.94C111.635 318.48 111.495 318.024 111.372 317.565C110.101 313.567 113.531 311.853 116.042 309.607C122.342 303.972 128.457 298.129 134.618 292.344C138.767 288.443 140.703 283.554 140.922 277.919C140.94 277.532 140.992 277.15 140.997 276.769C141.098 271.035 141.498 265.326 142.019 259.628C141.981 259.378 141.942 259.127 141.897 258.877C141.742 258.023 141.796 257.161 142.183 256.362C142.254 256.216 142.315 256.067 142.372 255.915C143.277 246.836 144.401 237.776 145.043 228.674C145.315 224.843 145.274 220.981 145.28 217.138C145.297 208.273 145.291 199.407 147.47 190.733C148.944 184.873 148.21 179.394 145.54 173.944C143.731 170.251 142.587 166.234 140.969 161.9C140.609 162.052 140.264 162.214 139.933 162.385C139.487 162.749 139.085 163.161 138.724 163.61C136.145 166.818 133.638 170.076 131.766 173.775C130.528 176.224 129.185 178.621 127.932 181.063C127.297 182.299 126.531 183.395 125.472 184.32C124.975 184.754 124.604 185.387 124.32 185.998C123.52 187.71 122.817 189.457 122.787 191.402C122.768 192.653 122.169 193.694 121.41 194.661C118.977 197.768 116.592 200.914 114.12 203.99C112.72 205.732 111.417 207.537 110.18 209.393C109.514 210.393 108.856 211.399 108.159 212.377C104.255 217.856 101.104 223.753 98.6976 230.019C96.7215 235.162 94.4079 240.12 91.6048 244.856C90.6384 246.488 89.8878 248.188 89.4203 250.044C88.8781 252.203 88.1634 254.323 87.4759 256.442C86.6254 259.072 86.1911 261.777 85.971 264.519C85.751 267.255 85.5721 269.998 85.6527 272.749C85.6841 273.786 85.6485 274.799 85.3539 275.803C85.2105 276.292 85.1107 276.817 85.1185 277.324C85.1597 280.761 84.5903 284.164 84.5707 287.595C84.5608 289.312 84.5643 291.027 84.1419 292.712C84.0182 293.205 83.9671 293.734 83.9808 294.245C84.0652 297.338 83.46 300.399 83.5208 303.491C83.5523 305.054 83.1575 306.551 82.8197 308.058C82.6664 308.745 82.2777 309.307 81.7416 309.765C81.0699 310.339 80.6655 311.034 80.4808 311.925C79.7796 315.3 79.4101 318.697 79.4789 322.148C79.5339 324.892 79.4589 327.637 79.1859 330.375C79.0504 331.737 79.1148 333.12 79.0755 334.491C79.0402 335.691 79.0931 336.907 78.9183 338.087C78.5412 340.647 78.5654 343.216 78.4535 345.788C78.2904 349.553 78.2014 353.329 77.7142 357.077C77.5158 358.607 77.4771 360.157 77.2611 361.683C77.0391 363.241 76.3845 364.631 75.2943 365.8C74.925 366.195 73.7601 366.211 73.4183 365.794C73.2003 365.531 72.9467 365.292 72.7582 365.009C71.778 363.544 70.8068 362.073 69.8294 360.608C69.1366 359.62 68.4102 358.722 67.265 358.517C66.9912 358.638 66.6584 358.73 66.3441 358.83C66.2083 359.112 66.0889 359.405 65.9759 359.697C65.2374 361.618 64.5437 363.557 63.7757 365.466C63.2002 366.896 62.5735 368.311 61.89 369.692C61.5914 370.293 61.1043 370.804 60.68 371.34C60.3206 371.796 59.2481 371.77 58.8216 371.317C58.5859 371.067 58.3188 370.839 58.1224 370.562C56.5823 368.391 54.4957 366.944 52.0677 365.936C51.5924 365.74 51.1505 365.464 50.6771 365.266C47.6677 364.015 44.6604 362.761 41.7826 361.217C41.321 360.97 40.8002 360.968 40.2816 361.011C39.8829 361.045 39.6506 361.223 39.5052 361.551C39.2145 362.201 39.2269 362.893 39.2328 363.571C39.2504 365.299 39.0501 366.985 38.5394 368.647C38.341 369.287 38.3502 369.999 38.307 370.678C38.2935 370.886 38.3142 371.09 38.3617 371.286C39.2428 372.038 39.9074 372.698 40.6341 372.781C43.0326 373.043 45.0342 373.663 46.7328 374.552C47.1674 374.699 47.6012 374.849 48.0365 374.998C49.052 375.345 49.8322 375.982 50.5472 376.73C52.2209 378.482 53.5903 380.459 54.6019 382.653C55.9671 385.617 57.4674 388.507 59.1273 391.316C59.5751 392.074 59.8176 392.885 59.8294 393.757C59.8432 394.787 59.858 395.818 59.805 396.845C59.7284 398.309 59.0216 399.446 57.8333 400.289C57.413 400.587 57.0019 400.902 56.556 401.16C54.1832 402.535 51.8039 403.9 49.4193 405.253C49.1267 405.42 48.7833 405.509 48.4535 405.597C47.9368 405.735 47.3962 405.679 46.9896 405.361C46.1707 404.715 45.5714 403.884 45.2806 402.859C45.1852 402.523 45.1131 402.185 45.058 401.846C44.6877 400.971 44.6231 399.96 44.6507 398.92C44.7143 396.62 45.1597 394.326 45.1771 392.026C45.1916 390.327 44.6382 388.745 43.1371 388.052C42.6615 387.913 42.1601 387.868 41.6253 387.931C41.2718 387.972 40.9313 388.066 40.7152 388.355C39.3775 390.146 38.3271 392.111 37.3587 394.115C37.068 394.716 36.8989 395.431 36.8812 396.099C36.8439 397.466 36.8775 398.845 37.015 400.205C37.1014 401.045 37.3786 401.881 37.6712 402.682C38.0818 403.809 38.6437 404.882 39.0345 406.015C39.7022 407.957 40.7289 409.665 41.9769 411.239C43.3297 412.46 44.9009 413.436 46.6625 414.074C49.61 415.138 52.5248 416.223 55.3451 417.47C55.9975 417.726 56.6521 417.977 57.3128 418.21C59.4499 418.963 61.3968 420.015 63.1351 421.429C63.7256 421.91 64.3172 422.388 64.9134 422.86C65.4035 423.219 65.886 423.592 66.3626 423.978C67.5941 424.904 68.8583 425.784 70.1927 426.573C70.786 426.924 71.1202 427.582 71.1634 428.307C71.2361 429.505 71.2339 430.704 71.0355 431.896C70.9174 432.603 69.8841 433.469 69.1888 433.434C67.4663 433.346 65.7948 432.957 64.1273 432.568C60.7859 431.79 57.4678 430.91 54.1146 430.185C52.107 429.751 50.056 429.499 48.0169 429.226C44.4458 428.749 40.8664 428.326 37.2933 427.861C36.2741 427.727 35.2647 427.509 34.2474 427.356C32.6052 427.108 31.4026 426.228 30.558 424.828C30.2044 424.24 29.8429 423.655 29.5384 423.042C29.0061 421.966 28.5503 420.852 28.0003 419.786C27.093 418.03 26.457 416.201 26.0589 414.305C25.3282 412.462 24.5583 410.516 23.7123 408.398C23.7057 408.409 23.7 408.42 23.6947 408.431C23.4707 408.891 23.2521 409.359 23.1087 409.848C23.0146 410.168 23.0404 410.53 23.0365 410.872C23.0227 411.73 23.0602 412.59 23.0072 413.445C22.9818 413.861 22.9773 414.273 22.9925 414.68C23.3117 416.122 23.633 417.562 23.9789 418.992C24.1122 419.297 24.2574 419.6 24.4173 419.899C26.1756 423.188 27.3834 426.661 28.0453 430.326C28.7127 431.534 29.4727 432.703 30.348 433.825C31.0971 434.565 31.8585 435.293 32.6087 436.033C34.3197 437.718 36.0719 439.366 37.7298 441.105C40.2304 443.725 42.3678 446.613 43.8568 449.949C44.4264 451.225 44.7758 452.54 44.7621 453.93C44.7483 455.13 44.6717 456.329 44.5833 457.527C44.546 458.041 44.338 458.511 44.0062 458.927C43.7116 459.298 43.032 459.531 42.6292 459.323C42.1794 459.089 41.6919 458.88 41.3187 458.55C38.215 455.814 35.5752 452.653 33.0824 449.367C31.01 446.632 28.9788 443.863 26.9261 441.113C23.5376 436.575 20.1784 432.015 16.5306 427.678C15.6329 426.611 14.8592 425.482 14.2484 424.273C13.365 423.094 12.462 421.885 11.5414 420.644C11.7142 422.982 11.51 424.567 11.8031 425.725C12.0654 426.162 12.336 426.595 12.6371 427.002C14.9864 430.185 16.9113 433.635 18.9857 436.992C19.3451 437.573 19.6402 438.197 19.9525 438.806C20.3493 439.58 20.5863 440.406 20.5902 441.276C20.5961 442.647 20.5924 444.02 20.5414 445.391C20.5099 446.259 20.1959 447.059 19.8011 447.832C19.3945 448.626 18.3215 449.033 17.6634 448.597C17.0918 448.218 16.5024 447.86 15.9642 447.438C12.3007 444.556 9.05962 441.267 6.37437 437.443C4.79709 435.196 3.22577 432.945 1.87437 430.55C1.36756 429.653 0.921166 428.733 0.593115 427.747C0.164372 426.456 -0.0369664 425.162 0.0267092 423.833C-0.1015 421.748 0.24998 419.492 0.693701 417.483C3.618 404.341 6.65793 391.222 12.1078 378.808C13.7953 374.965 15.263 371.018 17.0199 366.643C16.3018 366.391 15.5957 366.184 14.9125 365.992C14.552 366.123 14.191 366.253 13.8275 366.374C13.3423 366.538 12.8391 366.651 12.3421 366.775C11.533 366.979 10.5216 366.47 10.2406 365.705C10.0638 365.223 9.93594 364.722 9.75718 364.243C9.69393 364.072 9.62317 363.904 9.54038 363.745C9.18569 363.439 8.8627 363.105 8.57065 362.749C7.83446 362.177 7.31739 361.491 7.26499 360.537C6.84195 359.495 6.61154 358.369 6.57847 357.227C6.25254 356.339 6.36938 355.458 6.63804 354.546C6.82868 353.9 7.05169 353.27 7.30503 352.654C7.78542 351.059 8.4782 349.514 9.36851 348.196C16.9972 336.868 21.4411 324.252 25.5501 311.364C27.8676 304.093 31.1619 297.008 34.9242 290.35C40.1108 281.16 45.9026 272.307 50.6341 262.866C50.6209 262.823 50.6079 262.779 50.5921 262.736C50.2642 261.83 50.516 261.072 51.2445 260.456C51.5057 260.234 51.7538 259.994 51.9974 259.754C52.0936 259.66 52.1859 259.562 52.2777 259.464C52.797 258.346 53.3001 257.218 53.7826 256.08C54.488 254.415 55.2768 252.871 56.3197 251.494C56.9906 250.31 57.8404 249.404 58.9593 248.849C59.3013 248.592 59.6633 248.345 60.0472 248.11C62.1971 246.792 63.5381 244.122 65.2025 242.024C73.6401 231.367 79.1072 219.069 84.6263 206.805C93.7922 186.468 104.062 166.605 111.003 145.314C111.24 144.586 111.627 143.903 111.881 143.181C113.83 137.683 116.246 132.634 119.437 128.329C119.862 127.637 120.303 126.953 120.76 126.279C121.047 125.856 121.375 125.444 121.75 125.098C124.66 122.431 127.661 119.882 131.063 117.845C132.55 116.955 134.157 116.357 135.811 115.897C137.245 115.497 138.64 114.998 140.007 114.431C139.271 108.063 138.954 102.131 137.755 96.3862C136.449 90.11 137.582 84.1918 138.72 78.1352C139.564 73.6332 140.668 69.0268 140.483 64.5132C139.841 48.7531 145.037 34.1604 149.048 19.354C149.472 17.7867 150.257 16.2865 151.198 14.8481C151.851 13.7753 152.539 12.7236 153.188 11.6479C153.359 11.3631 153.481 11.017 153.512 10.687C153.549 10.3021 153.341 9.98241 153.025 9.90182C151.184 9.42645 149.308 9.29403 147.414 9.35886C146.039 9.406 144.674 9.39451 143.313 9.13718C142.643 9.0095 141.948 8.9682 141.264 8.97409C138.862 8.99177 136.463 8.87604 134.063 8.7739C130.808 8.63639 127.544 8.65215 124.285 8.59518C123.429 8.57948 122.565 8.5948 121.716 8.48874C120.176 8.3002 118.636 8.27078 117.092 8.30417C116.578 8.31597 116.051 8.3652 115.55 8.27878C112.828 7.80934 110.079 7.95504 107.337 7.87057C102.195 7.71147 97.0521 7.49122 91.9037 7.5737C91.3892 7.58155 90.8683 7.60912 90.3597 7.55026C86.5901 7.12203 82.8178 7.37487 79.0462 7.47702C78.017 7.50452 76.9896 7.55422 75.9603 7.5444C75.4496 7.54046 74.9407 7.42658 74.43 7.36569C73.992 7.31454 73.527 6.65412 73.6429 6.24753C73.7294 5.94717 73.9096 5.70137 74.2806 5.56979C74.9347 5.33801 75.6244 5.25791 76.306 5.32468C79.5608 5.64093 82.8177 5.55262 86.0785 5.4819C88.1371 5.43672 90.1927 5.42502 92.2494 5.63718C93.4396 5.76087 94.6499 5.70754 95.85 5.69772C97.7376 5.682 99.6255 5.59004 101.494 5.98093C101.992 6.085 102.517 6.11571 103.03 6.11179C108.864 6.07251 114.686 6.4995 120.518 6.49362C123.433 6.49166 126.341 6.82314 129.262 6.75046C129.94 6.73285 130.624 6.9014 131.303 6.978C131.985 7.05264 132.665 7.16736 133.348 7.18307C136.605 7.25968 139.864 7.29099 143.122 7.37546C146.723 7.46778 150.322 7.61519 153.92 7.70358C154.946 7.72912 155.985 7.71514 156.998 7.56784C158.721 7.32034 160.399 7.31209 162.09 7.81491C162.901 8.05653 163.772 8.14369 164.622 8.20065C166.162 8.30279 167.706 8.34792 169.25 8.38132C173.024 8.46382 176.795 8.53629 180.569 8.58932C181.425 8.60111 182.284 8.54574 183.138 8.48093C183.839 8.4279 184.456 8.14158 184.989 7.67819C186.281 6.55068 187.57 5.41697 188.87 4.29929C190.715 2.71612 192.838 1.60041 195.068 0.681122ZM301.869 443.478C301.739 445.748 301.727 447.967 301.851 450.134C301.998 450.796 302.141 451.458 302.272 452.123C302.769 454.645 303.478 457.1 304.544 459.436C305.045 460.532 305.468 461.636 305.713 462.811C306.14 464.85 307.016 466.71 308.175 468.404C309.334 470.099 310.384 471.847 311.386 473.634C311.551 473.927 311.807 474.167 312.017 474.434C312.144 474.595 312.348 474.73 312.58 474.826C315.17 471.772 317.26 469.311 319.704 466.428C313.48 458.418 307.672 450.951 301.869 443.478ZM292.646 443.484C292.164 443.515 291.683 443.543 291.212 443.565C291.565 444.101 291.92 444.634 292.283 445.163C292.344 445.216 292.406 445.269 292.467 445.322C292.525 444.709 292.588 444.096 292.646 443.484ZM289.492 439.937C289.496 440.561 289.656 441.172 290.034 441.755C290.174 441.973 290.316 442.19 290.456 442.408C290.651 441.874 290.827 441.338 290.907 440.786C290.941 440.549 290.028 440.173 289.548 439.861C289.532 439.886 289.511 439.91 289.492 439.937ZM31.3675 360.78C29.1301 360.923 26.9627 361.457 24.8353 362.143C24.3503 362.298 23.95 362.664 23.7005 363.133C23.4609 363.587 23.2073 364.041 23.0423 364.524C20.3787 372.318 17.4181 379.991 14.0199 387.5C12.747 390.311 11.6667 393.22 10.9164 396.219C9.66703 401.211 8.1479 406.127 6.76108 411.08C5.83591 414.387 5.17989 417.753 4.51792 421.118C4.41178 421.659 4.36023 422.212 4.32554 422.768C4.56465 423.839 4.98819 424.961 5.67026 426.146C7.2616 415.484 10.7998 406.308 15.1214 396.193C15.2191 395.815 15.3071 395.434 15.3753 395.046C15.4952 394.363 15.837 393.767 16.2298 393.202C16.3344 393.051 16.4518 392.921 16.5804 392.807C16.8126 392.271 17.0451 391.73 17.2806 391.187C17.349 391.577 17.4148 391.954 17.4789 392.319C17.8286 392.218 18.116 392.312 18.3832 392.528C18.9486 392.987 19.2568 393.606 19.306 394.29C19.4073 395.697 19.2816 398.626 19.0677 401.284C23.0057 401.52 22.5237 396.903 24.4056 395.078C24.4098 395.029 24.4159 394.98 24.4193 394.93C24.4311 394.765 24.5019 394.594 24.5804 394.443C24.9006 393.83 25.3016 393.288 25.9222 392.932C26.3171 392.706 26.9868 392.782 27.3187 393.159C27.5405 393.41 27.772 393.675 27.9076 393.977C28.267 394.767 28.4892 395.624 28.3773 396.478C27.8823 400.267 28.1455 404 29.0589 407.701C29.2632 408.532 29.4953 409.38 29.5287 410.227C29.6132 412.341 30.2808 414.252 31.2806 416.082C31.6775 416.81 31.9704 417.594 32.3675 418.32C34.1415 419.9 36.7985 420.37 40.4867 419.315C39.8934 418.006 39.2956 416.738 38.7054 415.497C37.8335 414.251 37.1218 412.908 36.5609 411.48C35.9343 409.885 35.2923 408.292 34.6166 406.718C34.129 405.584 33.7794 404.421 33.5345 403.234C31.752 397.189 31.8524 391.173 35.7162 385.437C36.938 383.621 37.523 381.366 38.3617 379.356C38.1985 379.271 38.0337 379.191 37.8656 379.119C35.9169 378.286 35.0131 376.742 34.8324 374.708C34.8155 374.519 34.8028 374.329 34.7923 374.139C33.8046 370.053 35.3061 365.274 33.4134 360.974C33.4079 360.973 33.4024 360.971 33.3968 360.97C32.731 360.844 32.0373 360.739 31.3675 360.78ZM272.939 409.566C273.209 410.052 273.485 410.534 273.764 411.014C276.352 413.968 278.719 417.104 281.108 420.221C282.541 422.089 283.921 423.996 285.362 425.856C284.408 416.343 278.549 413.051 272.939 409.566ZM16.8978 413.022C16.5423 414.707 16.5024 416.415 16.6498 418.127C16.6607 418.252 16.6806 418.374 16.7044 418.494C16.8842 418.987 17.1047 419.5 17.3714 420.036C17.6996 420.536 18.0801 420.995 18.4671 421.449C19.0917 416.589 18.9963 413.716 17.3724 410.814C17.2121 411.549 17.0529 412.285 16.8978 413.022ZM48.1361 383.981C48.14 384.047 48.1439 384.113 48.1478 384.179C48.2596 384.474 48.3383 384.787 48.388 385.113C48.5412 386.124 48.5323 387.167 48.7601 388.157C49.3789 390.856 49.3863 393.571 49.1722 396.305C49.1604 396.464 49.2159 396.637 49.265 396.794C49.2783 396.837 49.2948 396.879 49.3148 396.919C51.623 395.37 52.9668 394.465 54.2162 393.626C53.1701 390.026 52.2913 386.836 48.1361 383.975V383.981ZM164.976 326.647C164.425 326.619 163.869 326.636 163.308 326.709C162.856 326.769 162.373 327.348 162.422 327.752C162.666 329.799 163.322 331.748 163.89 333.71C165.41 338.961 166.958 344.202 168.113 349.551C168.619 351.897 169.39 354.157 170.524 356.287C171.247 357.644 171.922 359.026 172.612 360.401C173.761 362.693 174.92 364.978 176.035 367.286C176.328 367.893 176.491 368.566 176.682 369.218C176.888 369.923 176.201 371.108 175.492 371.249C174.822 371.383 174.138 371.44 173.466 371.564C172.855 371.676 172.393 372.491 172.55 373.149C172.671 373.658 172.794 374.168 172.919 374.676C174.187 375.362 176.652 375.178 179.129 375.618C176.072 360.725 173.292 346.901 170.345 333.106C169.958 331.285 169.108 329.28 167.825 328.014C167.199 327.399 166.298 327.063 164.976 326.647ZM288.816 338.866C287.902 338.989 286.944 339.219 285.855 339.382C286.063 339.745 286.261 340.09 286.45 340.419C286.864 340.936 287.237 341.491 287.561 342.09C288.052 343 288.691 343.788 289.417 344.531C291.274 346.428 293.509 347.587 296.073 348.174C297.072 348.404 298.056 348.712 299.062 348.911C303.633 349.812 307.867 351.688 312.123 353.476C313.379 354.002 314.532 354.77 315.73 355.428C317.598 357.194 319.828 358.517 321.676 360.314C323.026 361.626 324.465 362.844 325.868 364.099C327.661 365.702 329.309 367.427 330.641 369.451C331.193 370.288 331.839 371.066 332.469 371.852C338.974 368.533 344.445 364.445 349.029 357.911C345.769 355.171 343.128 352.321 339.938 350.385C337.611 348.971 335.243 347.679 332.833 346.514C330.716 345.64 328.59 344.785 326.44 344.001C319.798 341.577 312.987 340.026 305.863 340.197C304.15 340.238 302.437 340.276 300.726 340.268C299.528 340.264 298.322 340.268 297.137 340.117C294.42 339.773 291.695 339.433 289.01 338.903C288.945 338.89 288.881 338.878 288.816 338.866ZM72.3568 243.614C71.9446 243.742 71.5106 243.809 71.1332 243.891C68.3527 248.047 65.8375 252.375 63.1136 256.57C62.4516 257.589 62.0837 258.717 62.0169 259.953C61.9521 261.157 61.6264 262.31 61.265 263.46C60.4439 266.085 59.4499 268.639 58.1947 271.082C56.8629 273.673 55.533 276.27 54.0853 278.796C50.6752 284.746 47.2099 290.666 43.5287 296.455C42.242 298.48 41.0591 300.57 39.8314 302.632C37.0106 307.368 34.8481 312.399 33.1214 317.623C32.2611 320.225 31.4552 322.848 30.6361 325.464C28.5873 332.004 26.6522 338.586 23.6585 344.786C23.6059 344.894 23.6098 345.033 23.6166 345.166C25.8254 345.194 27.2637 345.431 28.5677 345.115C31.228 344.459 33.7962 344.282 36.2992 344.49C37.5379 344.5 38.7784 344.561 40.0199 344.652C40.6897 344.701 41.3639 344.931 41.9945 345.18C42.9491 345.559 43.8701 346.023 44.7992 346.463C47.392 347.694 49.9842 348.925 52.5765 350.155C54.3264 350.843 56.1501 351.496 58.0414 352.258C59.8098 348.438 60.8794 345.074 62.7923 342.283C63.2241 341.654 63.6899 341.049 64.1791 340.458C64.3233 340.228 64.4718 339.999 64.6263 339.773C65.0346 338.696 65.9 338.1 66.8177 337.56C67.9998 336.341 69.2272 335.125 70.4154 333.833C70.6408 331.262 71.0043 328.598 71.0794 325.922C71.3915 314.797 71.6985 303.671 71.8314 292.546C71.8563 290.452 71.9515 288.459 72.4837 286.63C72.5039 286.313 72.5866 285.971 72.7464 285.706C72.7977 285.62 72.85 285.535 72.9017 285.451C73.3103 284.485 73.8756 283.573 74.6595 282.726C74.6682 282.713 74.6772 282.701 74.6859 282.688C74.8258 282.483 75.0243 282.303 75.2357 282.153C75.5407 281.872 75.8724 281.599 76.2347 281.334C77.5119 280.404 78.3158 278.173 78.4603 276.462C78.7897 272.683 78.5638 268.852 78.5638 264.471C77.988 264.565 77.4287 264.638 76.8861 264.689C76.6261 264.983 76.3642 265.275 76.0863 265.55C75.8839 265.751 75.4396 265.822 75.1332 265.773C74.6363 265.694 74.1533 265.494 73.6839 265.297C71.9455 264.571 70.2163 263.82 68.4818 263.083C67.9004 262.836 67.4721 261.972 67.6332 261.388C67.662 261.285 67.6843 261.179 67.7064 261.074C67.6695 261.022 67.6316 260.97 67.5951 260.916C68.5949 258.125 69.8429 255.299 70.6058 252.34C71.3398 249.514 73.3622 246.862 72.3626 243.614H72.3568ZM141.789 324.419C141.58 324.779 141.242 325.152 141.045 325.507C141.359 326.219 141.743 326.894 142.136 327.564C142.548 326.868 143.022 326.19 143.245 325.436C143.296 325.257 142.303 324.76 141.789 324.414V324.419ZM158.31 287.139C157.744 288.768 157.194 290.404 156.606 292.025C155.555 294.924 154.637 297.865 153.899 300.859C153.612 302.022 153.288 303.169 152.848 304.292C151.722 307.16 150.658 310.05 149.593 312.941C149.484 313.236 149.424 313.55 149.37 313.866C150.53 313.789 151.499 313.707 152.369 313.657C152.495 313.47 152.622 313.285 152.757 313.106C153.193 312.529 154.124 312.403 154.612 312.583C155.769 313.01 156.773 313.609 157.398 314.717C157.567 315.016 157.718 315.324 157.909 315.609C157.917 315.622 157.927 315.633 157.936 315.646C158.653 315.949 159.446 315.836 160.433 314.658C158.573 306.396 160.36 297.794 158.31 287.139ZM143.287 302.846C143.104 302.973 142.928 303.108 142.816 303.281C140.763 306.424 138.586 309.478 136.335 312.482C136.228 312.625 136.151 312.797 136.092 312.978C138.963 314.932 140.942 314.309 142.154 312.334C143.506 310.138 144.39 307.561 145.008 305.036C145.358 303.612 144.685 302.839 143.287 302.846ZM182.649 167.57C182.321 167.601 181.992 167.644 181.661 167.702C180.485 167.908 179.311 168.216 178.188 168.621C176.387 169.269 174.83 170.344 173.604 171.823C172.722 172.889 172.101 174.098 171.991 175.532C171.663 179.808 171.517 184.084 171.859 188.029L171.857 188.033C171.937 189.394 171.991 190.421 172.062 191.447C172.18 193.156 172.319 194.865 172.435 196.574C172.645 199.679 172.402 202.721 171.374 205.699C170.65 207.799 170.067 209.953 169.494 212.102C168.655 215.249 167.972 218.421 168.058 221.715C168.089 222.921 168.223 224.104 168.398 225.29C168.622 226.821 168.753 228.356 168.629 229.904C168.494 231.609 168.28 233.31 168.347 235.027C167.746 239.136 168.009 243.222 168.619 247.306C168.847 248.828 168.969 250.368 169.132 251.9C169.242 252.921 169.299 253.951 169.454 254.964C170.276 260.392 170.775 265.847 170.916 271.335C170.983 273.903 171.107 276.471 171.841 278.965C172.185 280.13 172.192 281.336 172.058 282.537C171.946 283.558 171.835 284.584 171.635 285.589C171.299 287.267 170.886 288.93 170.515 290.602C170.144 292.274 169.678 293.934 169.443 295.627C169.056 298.397 169.95 300.715 172.332 302.308C173.776 303.273 175.385 303.888 177.127 303.99C177.878 304.033 178.638 304.061 179.393 304.039C183.635 303.635 187.688 301.17 189.116 297.193C192.092 288.894 195.127 280.386 193.526 271.319C190.96 256.738 193.277 242.174 193.462 227.611C193.466 227.283 193.5 226.953 193.559 226.622C193.552 225.948 193.739 225.311 194.143 224.702C194.761 223.204 195.695 221.722 196.491 220.34C199.265 215.52 200.438 210.371 200.351 203.834L200.357 203.823C199.334 195.304 198.346 185.739 194.456 176.782C193.844 175.372 193.335 173.897 192.543 172.597C190.49 169.227 186.938 167.491 182.649 167.57ZM160.651 166.8C160.027 169.704 159.109 172.518 157.932 175.26C157.663 175.889 157.425 176.533 157.189 177.177C156.118 180.106 155.431 183.078 155.961 186.233C156.246 187.93 156.164 189.65 156.103 191.363C155.93 196.156 155.775 200.949 155.571 205.742C155.514 207.107 155.329 208.468 155.182 209.83C154.997 211.531 154.724 213.226 154.61 214.933C154.472 216.988 154.211 219.021 153.885 221.052C153.29 224.769 152.465 228.455 152.494 232.25C152.498 232.759 152.363 233.268 152.302 233.779C152.059 235.82 151.814 237.861 151.58 239.904C151.29 242.455 150.957 245.003 150.739 247.561C150.534 249.952 150.373 252.341 149.813 254.686C149.534 255.859 149.461 257.059 149.526 258.259C149.553 258.762 149.652 259.29 149.854 259.748C150.198 260.527 150.569 261.32 151.068 262.003C152.079 263.388 152.956 264.858 153.901 266.286C154.015 266.457 154.137 266.623 154.265 266.786C154.934 267.332 155.652 267.872 156.416 268.407C162.311 248.601 162.334 228.859 165.01 209.527C165.855 203.448 162.618 175.411 160.651 166.8ZM170.749 81.8051C167.643 81.848 164.537 82.1452 161.767 82.3501C161.378 82.6372 161.047 83.1062 160.987 83.5258C160.963 83.6947 160.908 83.8599 160.898 84.0288C160.723 86.7769 160.256 89.4667 159.515 92.1245C158.869 94.4482 158.802 96.8628 158.731 99.2612C158.711 99.9367 158.824 100.636 158.994 101.293C159.766 104.289 160.633 107.25 162.424 109.839C162.619 110.12 162.762 110.436 162.913 110.743C163.829 112.605 164.96 114.302 166.504 115.718C167.135 116.296 167.685 116.96 168.26 117.596C169.071 118.494 169.732 119.494 170.203 120.608C171.808 124.403 173.847 127.984 175.628 131.691C176.371 133.235 177.118 134.777 177.855 136.325C178.094 136.825 177.966 137.329 177.787 137.812C177.668 138.132 177.477 138.427 177.369 138.75C177.204 139.247 177.169 139.78 177.452 140.236C177.936 141.02 178.455 141.78 179.048 142.481C179.354 142.481 179.696 142.446 180.077 142.366C180.323 140.046 180.573 137.703 180.822 135.363C180.758 134.882 180.811 134.489 180.962 134.037C181.249 131.343 181.533 128.659 181.814 126.024C181.8 125.938 181.784 125.852 181.771 125.766C181.692 125.263 181.655 124.737 181.718 124.234C181.803 123.56 181.968 122.916 182.209 122.307C182.25 121.924 182.291 121.542 182.331 121.162C182.507 121.117 182.682 121.078 182.858 121.037C183.07 120.701 183.311 120.38 183.578 120.072C183.914 119.685 184.402 119.439 184.94 119.462C185.794 119.502 186.647 119.58 187.499 119.649C188.897 119.764 190.256 119.656 191.587 119.364C192.953 118.976 194.145 118.446 195.063 117.614C196.217 116.567 197.428 115.934 198.664 115.518C198.673 115.509 198.682 115.5 198.691 115.491C199.372 114.723 200.026 113.931 200.698 113.155C200.959 112.854 201.82 112.652 202.126 112.821C202.877 113.231 203.619 113.651 204.364 114.07C204.599 114.202 204.835 114.278 205.074 114.311C205.968 114.133 206.847 113.894 207.697 113.516C208.39 113.21 209.071 112.787 209.62 112.267C215.741 106.517 221.451 100.437 225.381 92.5024C224.142 92.6528 222.918 92.7671 221.71 92.8491C221.683 92.9008 221.655 92.9526 221.628 93.0044C221.186 93.8489 220.444 94.2395 219.546 94.2671C218.694 94.2926 217.827 94.2551 216.987 94.1294C214.785 93.7993 212.588 93.4207 210.396 93.0298C208.709 92.7292 207.025 92.3989 205.35 92.0454C204.004 91.7625 202.704 91.3424 201.503 90.643C201.427 90.5987 201.355 90.5462 201.284 90.4907C201.047 90.4115 200.811 90.3314 200.577 90.2485C200.276 88.9308 199.941 87.457 199.455 85.313V85.3071C198.832 85.4674 198.228 85.6286 197.638 85.7846C197.102 86.5582 196.35 87.0318 195.329 87.186C194.314 87.3392 193.306 87.5987 192.285 87.6635C190.56 87.7736 188.888 88.0565 187.27 88.6811C186.8 88.8638 186.266 88.9751 185.765 88.9594C183.18 88.8809 180.636 88.6174 178.314 87.3012C176.801 86.4429 175.159 85.9741 173.401 85.9702C173.23 85.9702 173.059 85.9517 172.888 85.9282C172.719 85.9046 172.552 85.8561 172.383 85.8305C171.837 85.7478 171.361 85.1588 171.577 84.7758C171.734 84.4969 171.924 84.184 172.183 84.0229C172.857 83.6037 173.67 83.7113 174.407 83.5337C174.203 83.3773 173.992 83.218 173.778 83.0532C172.928 82.4002 171.761 81.7878 170.749 81.8051ZM206.772 49.2583C205.553 49.3388 204.643 49.8747 204.078 51.0239C203.631 51.9371 203.12 52.8189 202.627 53.7085C202.28 54.3351 202.195 54.9683 202.486 55.644C202.822 56.4257 203.103 57.2231 202.985 58.101C202.68 58.0028 202.321 57.9751 202.081 57.7924C201.561 57.3918 201.111 56.8974 200.61 56.4673C200.35 56.2453 200.002 56.2155 199.67 56.3589C199.595 56.3911 199.52 56.4235 199.446 56.4565C198.95 57.0461 198.456 57.6324 197.953 58.2309C198.03 58.3055 198.112 58.3694 198.19 58.4096C199.221 58.938 200.274 59.4316 201.35 59.8579C201.8 60.0366 202.327 60.0147 202.822 60.0796L202.824 60.0757C203.203 60.0757 203.58 60.0737 203.959 60.0717C204.649 60.5667 205.313 61.0966 206.032 61.5424C206.078 61.5714 206.126 61.5973 206.173 61.6216C206.572 61.6627 206.981 61.7085 207.402 61.768C208.67 57.9912 207.987 54.6929 206.772 49.2583ZM218.093 48.3891C217.455 48.1153 216.324 48.1621 215.566 48.4673C214.983 48.9662 214.518 49.7367 213.903 50.8471C213.15 52.2025 212.749 53.6756 212.415 55.1723C212.343 55.5004 212.357 55.8481 212.329 56.186H212.327C212.361 57.5728 212.757 58.9601 213.59 60.5532C213.667 60.6984 213.826 60.7967 213.932 60.9301C213.988 61.0005 214.06 61.0593 214.143 61.1069C217.956 57.7173 219.11 54.5261 219.561 51.0591C219.671 50.2037 218.856 48.7185 218.093 48.3891ZM225.173 51.1401C225.125 51.1855 225.068 51.2293 225.01 51.2739C224.843 51.8315 224.737 52.3748 224.652 52.854L224.648 52.852C224.608 53.0529 224.573 53.224 224.543 53.3755C224.566 53.5168 224.589 53.6578 224.607 53.7983C225.063 53.5441 225.514 53.2956 225.97 53.0415C225.704 52.4058 225.439 51.7757 225.173 51.1401ZM209.927 41.1538C209.021 41.5271 208.158 42.0117 207.295 42.4975C207.248 42.7015 207.215 42.9112 207.178 43.1167C207.077 43.6948 207.585 44.2166 208.197 44.2895C209.22 43.9443 210.246 43.4746 211.452 42.9799C210.643 41.9917 210.089 41.0902 209.927 41.1538ZM409.114 18.2241C395.116 19.055 383.901 19.4407 376.959 19.6372C351.44 20.3561 302.147 20.7942 284.121 19.7964C279.751 19.5547 269.186 18.7843 263.692 20.0532C262.23 20.391 260.997 20.4539 258.532 20.5776C256.829 20.662 254.718 20.6783 252.798 19.4936C261.743 19.5014 263.113 19.0306 272.52 18.9594C278.986 18.9103 283.549 19.0929 285.472 19.1518C294.432 19.4229 324.931 19.3556 409.114 18.2241ZM169.339 10.0405H169.343C168.95 10.0798 168.111 10.165 167.272 10.2514C166.789 10.3009 166.477 10.958 166.701 11.4038C168.303 14.5958 170.614 17.3225 172.578 20.2749C172.597 20.3025 172.659 20.3178 172.732 20.3217C174.261 18.8287 175.802 17.3045 177.384 15.8227C177.503 15.7113 177.621 15.5978 177.74 15.4858C178.684 14.365 179.618 13.2346 180.559 12.1098C180.663 11.9842 180.789 11.7834 180.758 11.6557C180.682 11.3532 180.587 10.9878 180.367 10.8071C180.127 10.6108 179.742 10.524 179.418 10.5161C178.065 10.4788 176.705 10.5439 175.354 10.4653C174.004 10.3887 172.662 10.173 171.315 10.0493C170.81 10.0022 170.299 10.0405 169.339 10.0405Z" fill="#8DC0FF"/>
</svg>
