<svg width="267" height="24" viewBox="0 0 267 24" fill="none" xmlns="http://www.w3.org/2000/svg">
<path d="M3.60322 5.99064C7.19045 6.69376 10.7981 6.43043 13.02 8.06169C16.3874 10.5316 16.147 14.8168 14.8277 18.5984C13.7129 21.797 11.2098 23.2799 7.7683 23.0294C5.81744 22.8862 3.76686 23.06 1.95662 22.4822C1.08986 22.2035 0.17451 20.5262 0.138715 19.4524C-0.045377 14.0549 -0.045377 8.64719 0.133601 3.24972C0.169397 2.14773 1.25094 1.08154 1.85179 0C2.43475 1.05086 3.28617 2.04291 3.53419 3.16792C3.82822 4.50514 3.60322 5.95484 3.60322 5.99319V5.99064ZM13.8305 14.3745C11.0513 12.0273 9.35865 10.5981 7.66858 9.17135C6.3109 10.9841 4.268 12.6256 3.76686 14.6506C3.09952 17.3507 4.75124 20.1171 7.78619 19.6339C9.622 19.3424 11.1075 16.8597 13.8331 14.3745H13.8305Z" fill="#8DC0FF"/>
<path d="M125.827 11.3499C125.876 18.9054 122.603 23.5358 117.579 23.3645C112.58 23.1957 109.305 18.2943 109.599 11.3525C109.645 10.2531 109.85 9.15615 110.052 8.0695C110.942 3.28056 113.759 0.468044 117.689 0.401567C121.499 0.340203 124.639 3.3138 125.515 7.92121C125.751 9.15616 125.748 10.4346 125.827 11.3499ZM122.21 11.7283C121.463 8.70616 122.383 3.75102 117.679 3.86352C113.273 3.96835 113.409 8.67804 113.424 12.0812C113.44 15.3335 113.445 19.8233 117.594 19.9179C122.342 20.0253 121.547 15.2082 122.21 11.7309V11.7283Z" fill="#8DC0FF"/>
<path d="M255.883 5.6459C258.885 6.57914 263.183 6.63285 264.558 8.66553C266.276 11.2045 266.356 15.5434 265.632 18.7676C265.228 20.5701 261.927 22.3906 259.636 22.9173C257.305 23.4517 254.61 22.4085 251.293 21.9482C251.293 15.6227 251.237 8.88795 251.375 2.15582C251.391 1.43223 252.526 0.729109 253.142 0.0183105C253.751 0.767462 254.702 1.43991 254.896 2.28622C255.239 3.78452 255.121 5.38768 255.198 6.94735C255.428 6.51524 255.655 6.08312 255.886 5.65102L255.883 5.6459ZM264.85 14.3852C262.17 12.0405 260.657 9.61666 258.869 9.39422C255.696 9.00047 254.924 11.9511 254.916 14.6102C254.909 17.3076 255.793 20.1764 258.989 19.6139C260.792 19.2968 262.216 16.8448 264.85 14.3877V14.3852Z" fill="#8DC0FF"/>
<path d="M200.973 11.7307C200.998 18.8617 197.657 23.5202 192.64 23.3515C187.78 23.1879 184.645 18.6239 184.691 11.7818C184.74 4.99089 188.022 0.414192 192.857 0.396294C197.767 0.378396 200.95 4.82215 200.973 11.7307ZM197.196 11.9736C196.754 8.63438 197.442 3.80197 192.827 3.85822C188.388 3.91191 188.593 8.60625 188.588 12.035C188.582 15.3282 188.554 19.7873 192.661 19.9023C197.319 20.0327 196.792 15.3256 197.196 11.971V11.9736Z" fill="#8DC0FF"/>
<path d="M157.836 12.0197C157.816 12.3342 157.793 12.6486 157.767 12.9631C157.218 19.6825 153.907 23.6507 149.1 23.3439C144.602 23.0575 141.644 18.808 141.511 12.4466C141.508 12.2881 141.501 12.1322 141.501 11.9736C141.47 4.86309 144.83 0.214769 149.864 0.401417C154.625 0.580395 157.916 5.37958 157.836 12.0197ZM145.303 11.6719C145.689 14.9754 144.914 19.7541 149.486 19.8819C154.042 20.0098 153.884 15.3026 153.899 11.9251C153.914 8.52193 154.037 3.91963 149.493 3.89917C145.106 3.87872 145.663 8.41966 145.305 11.6719H145.303Z" fill="#8DC0FF"/>
<path d="M179.301 11.4448C179.224 12.759 179.211 13.7076 179.106 14.6459C178.516 19.9053 175.557 23.242 171.418 23.3493C167.212 23.4593 164.049 20.3502 163.459 14.9988C163.17 12.3729 163.208 9.58849 163.76 7.02144C164.591 3.17341 166.961 0.401803 171.272 0.437599C175.57 0.475951 177.726 3.32937 178.774 7.11348C179.188 8.61178 179.163 10.2354 179.298 11.4448H179.301ZM175.869 11.7516C174.811 8.80099 175.961 3.73593 171.16 3.84843C166.619 3.95326 166.854 8.73197 166.874 12.0533C166.895 15.2263 166.823 19.8235 171.055 19.9181C175.795 20.0229 174.939 15.1164 175.872 11.7516H175.869Z" fill="#8DC0FF"/>
<path d="M103.647 22.3749H88.6434C89.927 20.4112 90.6531 18.964 91.6861 17.7853C93.977 15.1646 96.7895 12.9146 98.6381 10.033C99.5023 8.6856 98.6202 6.21827 98.5307 4.25974C96.7563 4.67394 94.9256 4.93472 93.2253 5.55092C92.0517 5.97535 91.0545 6.8907 89.1625 8.11543C89.6483 3.11427 91.8471 0.680176 95.2298 0.680176C97.7483 0.680176 101.484 1.79238 102.461 3.60517C103.54 5.60973 102.749 9.30435 101.568 11.6592C100.223 14.3387 97.5489 16.351 95.1275 19.0075C98.4514 19.4984 101.279 19.9178 104.107 20.3371C103.954 21.0172 103.8 21.6973 103.644 22.38L103.647 22.3749Z" fill="#8DC0FF"/>
<path d="M30.4378 10.8642C28.9599 10.3119 27.4667 9.2943 26.0068 9.33521C24.419 9.37868 22.8593 10.4091 20.2871 11.3909C22.3965 6.03947 25.7434 5.5511 29.3306 6.1673C32.6085 6.7298 34.0608 9.04885 34.0071 12.3727C33.9534 15.6557 33.9943 18.9386 33.9943 21.9404C30.8341 22.4057 28.1519 23.4464 25.7869 22.958C23.7056 22.5259 21.1207 20.7642 20.2948 18.9054C19.0778 16.1696 21.1641 14.1574 24.0303 13.4824C25.8687 13.0503 27.7531 12.815 29.6145 12.4903C29.888 11.9483 30.1616 11.4062 30.4352 10.8642H30.4378ZM30.5758 17.2153C30.1949 16.5122 29.8113 15.8091 29.4304 15.1034C27.5332 15.9651 25.6335 16.8293 23.7363 17.6909C24.5136 18.4938 25.5926 20.1148 26.0093 19.9588C27.6457 19.3477 29.0698 18.1767 30.5758 17.2128V17.2153Z" fill="#8DC0FF"/>
<path d="M39.8897 14.3334C39.8897 12.7456 39.8897 11.1578 39.8897 9.57006C39.8923 7.11038 40.3934 5.34363 43.4744 6.80102C43.9321 7.01835 44.602 6.91608 45.1389 6.80358C52.0833 5.35897 54.0444 6.9263 54.0904 14.0189C54.1006 15.6067 54.3051 17.2355 54.0265 18.7721C53.7861 20.0863 52.9782 21.2957 52.4208 22.5511C51.7381 21.2164 50.746 19.9457 50.452 18.5318C50.1043 16.857 50.7869 14.9011 50.2296 13.3516C49.6619 11.7715 48.1304 10.5366 47.0207 9.15076C45.8855 10.5903 44.2082 11.8789 43.7531 13.5076C43.1778 15.5735 43.7403 17.9309 43.5153 20.1323C43.4284 20.9812 42.5335 21.7482 42.0042 22.5536C41.3088 21.7201 40.1659 20.9607 40.0074 20.0326C39.6903 18.1815 39.9128 16.2383 39.9128 14.3334H39.8872H39.8897Z" fill="#8DC0FF"/>
<path d="M63.7451 12.2575C67.0256 9.64442 69.6591 7.55038 72.2926 5.45378C72.7375 5.96259 73.1824 6.47142 73.6273 6.98023C71.7685 8.9899 69.9122 10.9996 67.7773 13.3084C69.8278 16.103 71.8477 18.8592 74.3509 22.2726C68.5673 23.6252 68.1991 17.8084 64.369 16.1209C64.144 17.6882 64.121 19.1303 63.6812 20.4317C63.4051 21.2525 62.5025 21.861 61.8812 22.5667C61.3724 21.8968 60.4366 21.2346 60.4238 20.557C60.3088 14.3695 60.3088 8.17938 60.4238 1.99185C60.4366 1.32708 61.3903 0.680183 61.9093 0.0256348C62.5204 0.73899 63.6122 1.42167 63.6608 2.17338C63.8602 5.31061 63.7451 8.46572 63.7451 12.2575Z" fill="#8DC0FF"/>
<path d="M234.375 6.54832C234.375 9.74691 234.045 12.9251 234.518 15.9805C234.743 17.4327 236.494 18.6472 237.553 19.9691C238.819 18.7802 240.759 17.7907 241.189 16.3512C241.841 14.1625 241.296 11.6415 241.562 9.29691C241.68 8.27162 242.544 7.32814 243.071 6.34888C243.687 7.22843 244.797 8.08754 244.835 8.99266C245.019 13.3853 244.919 17.7907 244.919 22.1731C231.992 22.5848 231.291 22.3086 230.844 16.8217C230.154 8.36112 230.524 7.08525 234.377 6.54832H234.375Z" fill="#8DC0FF"/>
<path d="M217.357 6.73726C219.778 6.49437 222.016 6.14918 224.26 6.1185C224.956 6.10827 225.664 6.95459 226.365 7.40715C225.976 7.99011 225.618 9.05376 225.194 9.08189C220.262 9.40149 220.609 12.9171 220.668 16.2973C220.686 17.3993 220.931 18.5984 220.584 19.5802C220.195 20.6745 219.252 21.572 218.548 22.5564C218.017 21.6103 217.073 20.6822 217.03 19.7132C216.858 15.9393 216.953 12.1526 216.996 8.37364C217.004 7.77279 217.255 7.17448 217.357 6.7347V6.73726Z" fill="#8DC0FF"/>
</svg>
